<svg xmlns="http://www.w3.org/2000/svg" xmlns:xlink="http://www.w3.org/1999/xlink" width="67" height="67" viewBox="0 0 67 67">
  <defs>
    <clipPath id="clip-path">
      <rect id="Rectángulo_34165" data-name="Rectángulo 34165" width="67" height="67" transform="translate(1029 4865)" fill="#ffd41c"/>
    </clipPath>
  </defs>
  <g id="Enmascarar_grupo_93" data-name="Enmascarar grupo 93" transform="translate(-1029 -4865)" clip-path="url(#clip-path)">
    <g id="surface1" transform="translate(1029 4866.902)">
      <path id="Trazado_115150" data-name="Trazado 115150" d="M60.287.981H6.713A5.732,5.732,0,0,0,.981,6.714V38.49a5.732,5.732,0,0,0,5.732,5.732H9.531a1.181,1.181,0,0,1,1.036,1.746L2.153,61.381a.563.563,0,0,0,.811.735L28.872,44.482a1.5,1.5,0,0,1,.843-.26H60.287a5.732,5.732,0,0,0,5.732-5.732V6.714A5.732,5.732,0,0,0,60.287.981Zm0,0" fill="#f2f2f2"/>
      <path id="Trazado_115151" data-name="Trazado 115151" d="M41.545,6.627l-20.972,9.7H13.815a1.983,1.983,0,0,0-1.983,1.983v7.35a1.983,1.983,0,0,0,1.983,1.983h6.758l20.972,9.7a.847.847,0,0,0,1.2-.768V7.4A.847.847,0,0,0,41.545,6.627Zm0,0" fill="#fd715c"/>
      <path id="Trazado_115152" data-name="Trazado 115152" d="M20.573,20.441h-8.74v5.216a1.983,1.983,0,0,0,1.983,1.983h6.758l20.972,9.7a.847.847,0,0,0,1.2-.769V30.68Zm0,0" fill="#ee5646"/>
      <path id="Trazado_115153" data-name="Trazado 115153" d="M20.573,27.641H13.815a1.983,1.983,0,0,1-1.983-1.983v-7.35a1.983,1.983,0,0,1,1.983-1.983h6.758Zm0,0" fill="#3c5666"/>
      <path id="Trazado_115154" data-name="Trazado 115154" d="M13.176,27.534l.1.03a1.969,1.969,0,0,0,.541.077h6.758v-7.2h-8.74v5.216a1.979,1.979,0,0,0,1.344,1.877Zm0,0" fill="#194451"/>
      <path id="Trazado_115155" data-name="Trazado 115155" d="M60.287.981H59.194v36.35a2.362,2.362,0,0,1-2.362,2.362H29.715a1.5,1.5,0,0,0-.843.26L4.971,56.22,2.153,61.381a.563.563,0,0,0,.811.735L28.872,44.482a1.5,1.5,0,0,1,.843-.26H60.286a5.732,5.732,0,0,0,5.732-5.732V6.713A5.732,5.732,0,0,0,60.287.981Zm0,0" fill="#dbd9d1"/>
      <path id="Trazado_115156" data-name="Trazado 115156" d="M49.1,22.964h6.073a.981.981,0,0,0,0-1.963H49.1a.981.981,0,0,0,0,1.963Zm0,0"/>
      <path id="Trazado_115157" data-name="Trazado 115157" d="M55.761,34.081l-6.073-4.6A.982.982,0,0,0,48.5,31.045l6.073,4.6a.981.981,0,1,0,1.185-1.565Zm0,0"/>
      <path id="Trazado_115158" data-name="Trazado 115158" d="M49.1,14.683a.976.976,0,0,0,.592-.2l6.073-4.6a.981.981,0,1,0-1.185-1.565l-6.073,4.6a.981.981,0,0,0,.594,1.764Zm0,0"/>
      <path id="Trazado_115159" data-name="Trazado 115159" d="M60.287,0H6.713A6.721,6.721,0,0,0,0,6.714V21.635a.981.981,0,0,0,1.963,0V6.714a4.756,4.756,0,0,1,4.75-4.751H60.287a4.756,4.756,0,0,1,4.75,4.751V21.635a.981.981,0,1,0,1.963,0V6.714A6.721,6.721,0,0,0,60.287,0Zm0,0"/>
      <path id="Trazado_115160" data-name="Trazado 115160" d="M66.019,25.213a.981.981,0,0,0-.981.981v12.3a4.756,4.756,0,0,1-4.75,4.75H29.715a2.472,2.472,0,0,0-1.4.43L3.846,60.328l7.583-13.889a2.162,2.162,0,0,0-1.9-3.2H6.713a4.756,4.756,0,0,1-4.75-4.751v-12.3a.981.981,0,0,0-1.963,0v12.3A6.721,6.721,0,0,0,6.713,45.2H9.531a.2.2,0,0,1,.175.294L1.291,60.911a1.544,1.544,0,0,0,2.224,2.017L29.424,45.293a.514.514,0,0,1,.291-.089H60.287A6.721,6.721,0,0,0,67,38.49v-12.3A.981.981,0,0,0,66.019,25.213Zm0,0"/>
      <path id="Trazado_115161" data-name="Trazado 115161" d="M20.357,15.343H13.815a2.963,2.963,0,0,0-2.965,2.965v7.35a2.968,2.968,0,0,0,2.965,2.965h6.542l20.776,9.606a1.828,1.828,0,0,0,2.6-1.66V7.4a1.828,1.828,0,0,0-2.6-1.659Zm-.766,3.726H16.5a.981.981,0,1,0,0,1.963h3.09v1.9H16.5a.981.981,0,1,0,0,1.963h3.09v1.763H13.815a1,1,0,0,1-1-1v-7.35a1,1,0,0,1,1-1h5.776v1.763ZM41.766,7.607V36.358L21.554,27.013V16.951Zm0,0"/>
    </g>
  </g>
</svg>
