<svg xmlns="http://www.w3.org/2000/svg" xmlns:xlink="http://www.w3.org/1999/xlink" width="400" height="349" viewBox="0 0 400 349">
  <defs>
    <clipPath id="clip-path">
      <rect id="Rectángulo_35046" data-name="Rectángulo 35046" width="400" height="349" transform="translate(180 394)" fill="#fff" stroke="#707070" stroke-width="1"/>
    </clipPath>
    <clipPath id="clip-path-2">
      <path id="Trazado_122156" data-name="Trazado 122156" d="M5546.064-245.6l-1.142.566-1.708.854-8.384,4.163-19.187,9.524-9.262,4.6-9.755,4.848-.8.4-3.2,1.591-2.527,1.254-1.985.985-.018.009-2.414,1.2-1.231.616-.976.485-7.009,3.478-.666.328-1.4.7-.866.431-4.427,2.2-.814.405-48.925,24.3-2.3,1.142-5.333,2.652h-.009l-4.692,2.341-.542.27-5.6,2.785-9.625,4.781-.593.3-1.41.7-3.4,1.689-.113.056L5375-160.615h0l-5.04,2.5h0l-6.547,3.251-.166.083-1.117.554-2.9,1.439-.008,0-4.2,2.084-1.024.509-2.751,1.366a16.99,16.99,0,0,1-3.2,1.2,16.59,16.59,0,0,1-5.222.518,16.679,16.679,0,0,1-3.207-.518,16.734,16.734,0,0,1-5.468-2.568q-.344-.244-.675-.509c-.047-.037-.094-.074-.141-.113a16.611,16.611,0,0,1-4.148-5.01c-.09-.168-.179-.339-.265-.511l-.477-.953L5318.4-177.506l-.516-1.043-.109-.228-4.1-8.254-.188-.367-2-4.014-1.707-3.434a.037.037,0,0,1-.011-.02l-.06-.119-.089-.2-1.926-3.874-2.779-5.6-11.4-22.968-2.11-4.246L5285-244.762l-.263-.529-1.251-2.523-.243-.488h0l-.889-1.786h-.009l-.025-.05-1.146-2.314-.347-.7-.587-1.2-4.082-8.2-.038-.076-3.439-6.926-4.78-9.619-1.616-3.252-.1-.209-3.009-6.049-4.082-8.234-2.1-4.22-.738-1.48-.427-.864-.308-.626-2.613-5.253-1.42-2.858-2.462-4.959-.054-.109-9.441-19-6.992-14.074-.387-.785a16.663,16.663,0,0,1,7.33-22.247l.179-.089,9.366-4.648,6.128-3.049.675-.338,1.2-.6,11.193-5.562,3.795-1.877,7.676-3.814.06-.03.447-.228.814-.4,9.723-4.837,3.645-1.808,3.674-1.828.259-.129.179-.089,2.085-1.033,2.065-1.033,3.625-1.8,20.251-10.052,8.065-4.012,1.321-.655,5.2-2.583.1-.049,1.191-.6.437-.209,1.46-.724,15.663-7.787,14.1-7,6.407-3.178,54.01-26.836a16.666,16.666,0,0,1,22.337,7.519l11.173,22.5,3.477,7L5477.4-421.3l.327.655,5.215,10.5,2.74,5.522.994,2,.06.129.884,1.758,7.112,14.333,1.509,3.049,18.513,37.3.03.03,1.123,2.254,7.875,15.842.467.944,7.289,14.679,5.105,10.28,3.3,6.644,1.569,3.139.268.545,1.668,3.367.468.944a.033.033,0,0,1,.01.02l9.664,19.446A16.66,16.66,0,0,1,5546.064-245.6Z" transform="translate(-5230.401 472.001)" fill="none"/>
    </clipPath>
  </defs>
  <g id="Enmascarar_grupo_308" data-name="Enmascarar grupo 308" transform="translate(-180 -394)" clip-path="url(#clip-path)">
    <g id="Grupo_94828" data-name="Grupo 94828" transform="translate(-5012.863 876.268)">
      <path id="Trazado_122153" data-name="Trazado 122153" d="M5546.064-245.6l-1.142.566-1.708.854-8.384,4.163-19.187,9.524-9.262,4.6-9.755,4.848-.8.4-3.2,1.591-2.527,1.254-1.985.985-.018.009-2.414,1.2-1.231.616-.976.485-7.009,3.478-.666.328-1.4.7-.866.431-4.427,2.2-.814.405-48.925,24.3-2.3,1.142-5.333,2.652h-.009l-4.692,2.341-.542.27-5.6,2.785-9.625,4.781-.593.3-1.41.7-3.4,1.689-.113.056L5375-160.615h0l-5.04,2.5h0l-6.547,3.251-.166.083-1.117.554-2.9,1.439-.008,0-4.2,2.084-1.024.509-2.751,1.366a16.99,16.99,0,0,1-3.2,1.2,16.59,16.59,0,0,1-5.222.518,16.679,16.679,0,0,1-3.207-.518,16.734,16.734,0,0,1-5.468-2.568q-.344-.244-.675-.509c-.047-.037-.094-.074-.141-.113a16.611,16.611,0,0,1-4.148-5.01c-.09-.168-.179-.339-.265-.511l-.477-.953L5318.4-177.506l-.516-1.043-.109-.228-4.1-8.254-.188-.367-2-4.014-1.707-3.434a.037.037,0,0,1-.011-.02l-.06-.119-.089-.2-1.926-3.874-2.779-5.6-11.4-22.968-2.11-4.246L5285-244.762l-.263-.529-1.251-2.523-.243-.488h0l-.889-1.786h-.009l-.025-.05-1.146-2.314-.347-.7-.587-1.2-4.082-8.2-.038-.076-3.439-6.926-4.78-9.619-1.616-3.252-.1-.209-3.009-6.049-4.082-8.234-2.1-4.22-.738-1.48-.427-.864-.308-.626-2.613-5.253-1.42-2.858-2.462-4.959-.054-.109-9.441-19-6.992-14.074-.387-.785a16.663,16.663,0,0,1,7.33-22.247l.179-.089,9.366-4.648,6.128-3.049.675-.338,1.2-.6,11.193-5.562,3.795-1.877,7.676-3.814.06-.03.447-.228.814-.4,9.723-4.837,3.645-1.808,3.674-1.828.259-.129.179-.089,2.085-1.033,2.065-1.033,3.625-1.8,20.251-10.052,8.065-4.012,1.321-.655,5.2-2.583.1-.049,1.191-.6.437-.209,1.46-.724,15.663-7.787,14.1-7,6.407-3.178,54.01-26.836a16.666,16.666,0,0,1,22.337,7.519l11.173,22.5,3.477,7L5477.4-421.3l.327.655,5.215,10.5,2.74,5.522.994,2,.06.129.884,1.758,7.112,14.333,1.509,3.049,18.513,37.3.03.03,1.123,2.254,7.875,15.842.467.944,7.289,14.679,5.105,10.28,3.3,6.644,1.569,3.139.268.545,1.668,3.367.468.944a.033.033,0,0,1,.01.02l9.664,19.446A16.66,16.66,0,0,1,5546.064-245.6Z" transform="translate(0)" fill="#ffd41c"/>
      <g id="Grupo_94732" data-name="Grupo 94732" transform="translate(5230.402 -472.001)">
        <g id="Grupo_94731" data-name="Grupo 94731" transform="translate(0 0)" clip-path="url(#clip-path-2)">
          <path id="Trazado_122154" data-name="Trazado 122154" d="M5701.992,751.76a148.457,148.457,0,0,1-9.6,23.4c-.087.171-.175.341-.262.509H5508.565q-.344-.244-.675-.509c-.048-.036-.095-.074-.141-.112a16.62,16.62,0,0,1-4.149-5.01q-.135-.253-.265-.511l-.477-.953-10.041-20.222-.517-1.043-.108-.228-4.1-8.254-.189-.367-2-4.014-1.708-3.434a.037.037,0,0,1-.01-.02l-.06-.119-.089-.2-1.927-3.874-2.778-5.6-11.406-22.968-2.109-4.246-6.408-12.893-.263-.529-1.252-2.523-.242-.488h0l-.889-1.786h-.01l-.025-.05-1.146-2.314-.348-.7-.587-1.2-4.082-8.2-.037-.076-3.439-6.926-4.78-9.619-1.616-3.253-.1-.209-3.009-6.049-4.082-8.234-2.1-4.22-.738-1.481-.427-.864-.308-.626-2.613-5.253-1.42-2.858-2.462-4.959-.054-.109a45.76,45.76,0,0,1,17.663-7.737c14.663-2.823,17.667.623,33.235-1.519a54.033,54.033,0,0,0,19.965-6.655,60.865,60.865,0,0,0,6.687-4.47q.634-.485,1.254-.981,1.213-.965,2.385-1.972c1.885-1.613,3.7-3.292,5.507-5,.02-.017.039-.036.058-.055.257-.242.513-.487.77-.73q1.31-1.248,2.624-2.509c4.986-4.768,10.116-9.578,16.474-13.663a63.364,63.364,0,0,1,15.284-7.173q1.588-.5,3.248-.945c20.836-5.529,49.583-3.391,67.4,12.277a46.869,46.869,0,0,1,4.827,4.91q.519.615,1.012,1.24c17.541,22.252,8.338,52.913,32.939,68.218q1.132.7,2.212,1.278h0l.164.086c.107.057.214.113.32.166a30.01,30.01,0,0,0,5.456,2.176h0a28.091,28.091,0,0,0,3.795.81h0c.454.066.9.12,1.345.164l.3.03c1.077.1,2.127.143,3.159.161,2.7.046,5.263-.1,7.846.046h0l.174.011a22.587,22.587,0,0,1,13.468,5.166c5.792,4.522,9.856,10.833,12.571,18.211q1.028,2.792,1.8,5.777a80.422,80.422,0,0,1,1.908,9.954C5712.135,708.043,5707.456,734.337,5701.992,751.76Z" transform="translate(-5404.815 -453.852)" fill="#bcd7fd"/>
          <g id="decor" transform="translate(36.901 181.93)">
            <path id="Trazado_122155" data-name="Trazado 122155" d="M5663.3,1455.074a19.33,19.33,0,0,0,.051-5.378l-5.006-1.6c-.266-1.1-.531-2.194-.8-3.3l-.589-2.433c.416-.4.859-.856,1.331-1.278.9-.8,1.808-1.583,2.713-2.374l-.034-.073c-.582-1.243-2.394-4.452-2.553-4.7l-5.312,1.187-4.12-4.326,1.575-5.28-4.479-2.767c-1.07.951-2.033,1.942-3.038,2.838-.347.311-.7.611-1.064.893l-5.625-1.681c-.385-1.8-.762-3.55-1.161-5.408l-2.938-.1-2.377-.084-1.625,5.234a55.818,55.818,0,0,1-5.9,1.234l-3.607-3.761a24.177,24.177,0,0,0-4.757,2.468c.37,1.654.738,3.3,1.152,5.159q-.275.281-.558.564l4.78,9.619,3.439,6.926a9.791,9.791,0,0,1,18.292,3.167,9.973,9.973,0,0,1,.111,1.483,9.8,9.8,0,0,1-11.278,9.677l.242.488,1.251,2.523.263.529,6.408,12.893,2.275-.546,3.766,3.935a25.153,25.153,0,0,0,4.692-2.545c-.4-1.815-.772-3.5-1.151-5.223,1.508-1.365,2.833-2.861,4.466-4.072l4.835,1.46a12.516,12.516,0,0,0,2.934-4.392c-.2-.254-.424-.553-.67-.829-.755-.841-1.524-1.668-2.275-2.511-.244-.274-.45-.582-.638-.827l1.682-5.582Z" transform="translate(-5613.99 -1419.2)" fill="#ddeafd"/>
          </g>
        </g>
      </g>
      <g id="Grupo_94827" data-name="Grupo 94827" transform="translate(5251.482 -375.514)">
        <path id="Trazado_122157" data-name="Trazado 122157" d="M6511.069,2869.558a1.491,1.491,0,0,1-.481,1.088,1.7,1.7,0,0,1-1.162.45h-201.4a16.739,16.739,0,0,1-5.469-2.568q-.343-.244-.675-.509h207.546A1.594,1.594,0,0,1,6511.069,2869.558Z" transform="translate(-6219.886 -2643.203)" fill="#4b5a98"/>
        <g id="clouds">
          <path id="Trazado_122158" data-name="Trazado 122158" d="M7085.209,691.527a4.325,4.325,0,0,1,1.869-1.28c1.616-.524,8.331.037,8.688.285h0c.068-.231,1.688-5.477,5.938-6.4,3.018-.657,6.1,1.136,7.809,4.552a5.191,5.191,0,0,1,5.5-.427,6.652,6.652,0,0,1,2.42,2.7,13.462,13.462,0,0,0,7.343-.161,6.1,6.1,0,0,1,5.1.7l1.629,1.027h-46.542Z" transform="translate(-6927.642 -669.277)" fill="#eaf2ff"/>
          <path id="Trazado_122159" data-name="Trazado 122159" d="M7026.068,1296.883a4.735,4.735,0,0,1,1.838-1.873c1.588-.766,8.189.054,8.541.416h0c.067-.338,1.659-8.01,5.838-9.363,2.966-.96,6,1.662,7.676,6.658.322-.339,2.825-2.878,5.405-.624a9.6,9.6,0,0,1,2.379,3.953,9.1,9.1,0,0,0,7.218-.235,4.378,4.378,0,0,1,5.018,1.023l1.6,1.5H7025.83Z" transform="translate(-6874.194 -1213.251)" fill="#ddeafd"/>
          <path id="Trazado_122160" data-name="Trazado 122160" d="M6465.65,543.769a1.111,1.111,0,0,0,1.029-1.232,4.715,4.715,0,0,0-2.159-3.748,3.793,3.793,0,0,0-4.932.948,9.355,9.355,0,0,0-5.772-8.291,7.883,7.883,0,0,0-9.233,3.316c-.2-.236-2.031-2.3-4.512-1.895-2.347.383-4.291,2.814-4.512,5.922a3.915,3.915,0,0,0-2.833.237,5.06,5.06,0,0,0-2.459,3.516,1.145,1.145,0,0,0,1.013,1.451Z" transform="translate(-6335.894 -531)" fill="#eaf2ff"/>
          <path id="Trazado_122161" data-name="Trazado 122161" d="M8042.239,1704.658a1.215,1.215,0,0,0,1.126-1.348,5.158,5.158,0,0,0-2.362-4.1,4.148,4.148,0,0,0-5.394,1.036,10.231,10.231,0,0,0-6.311-9.067,8.621,8.621,0,0,0-10.1,3.627c-.222-.258-2.221-2.515-4.935-2.072-2.566.419-4.692,3.077-4.935,6.476a4.282,4.282,0,0,0-3.1.259,5.534,5.534,0,0,0-2.689,3.845,1.252,1.252,0,0,0,1.108,1.587Z" transform="translate(-7757.822 -1579.133)" fill="#ddeafd"/>
          <path id="Trazado_122162" data-name="Trazado 122162" d="M5487.4,1127.5h-32.351l-.738-1.48-.427-.864-.308-.626-2.613-5.253-1.42-2.858a7.443,7.443,0,0,1,7.243,2.369,10.364,10.364,0,0,1,7.4-9.777,9.651,9.651,0,0,1,10.864,4.646,9.343,9.343,0,0,1,.937,5.034,4.013,4.013,0,0,1,4.87,0,4.325,4.325,0,0,1,1.5,4.357,5.423,5.423,0,0,1,6.555.193l.053.046A2.426,2.426,0,0,1,5487.4,1127.5Z" transform="translate(-5449.54 -1053.125)" fill="#f1f6ff"/>
        </g>
        <g id="Ratinga" transform="translate(30.833 93.234)">
          <g id="Grupo_94733" data-name="Grupo 94733" transform="translate(66.455 90.238)">
            <circle id="Elipse_5618" data-name="Elipse 5618" cx="17.36" cy="17.36" r="17.36" transform="translate(0 24.551) rotate(-45)" fill="#4b4b73"/>
          </g>
          <g id="Grupo_94734" data-name="Grupo 94734" transform="translate(2.681 0)">
            <path id="Trazado_122163" data-name="Trazado 122163" d="M6021.36,1631.535v.125h-91.9a39.385,39.385,0,0,0-7.614-23.328q-.9-1.231-1.891-2.387-.646-.756-1.33-1.479a39.588,39.588,0,0,0-15.491-10.1q-.588-.208-1.184-.4a39.51,39.51,0,0,0-7.982-1.669q-1.709-.177-3.458-.2c-.206,0-.414,0-.62,0a39.453,39.453,0,0,0-4.246.229h0a39.475,39.475,0,0,0-7.8,1.65h0c-.146.045-.291.093-.436.141a39.3,39.3,0,0,0-4.589,1.854h0a39.614,39.614,0,0,0-22.5,35.7h-4.049a16.615,16.615,0,0,1-4.149-5.01c-.09-.168-.179-.339-.264-.511l-.478-.953-10.041-20.222-.517-1.043-.109-.228-4.1-8.254-.188-.367-2-4.014-1.708-3.434a.037.037,0,0,1-.01-.02l-.06-.119-.088-.2-1.927-3.874-2.778-5.6-11.4-22.968-2.109-4.246-6.409-12.893a131.551,131.551,0,0,1,42.9-28.05c.5-.2.992-.4,1.491-.591h0q3.013-1.169,6.1-2.194,3.378-1.123,6.833-2.066h0a130.908,130.908,0,0,1,16.617-3.39q.934-.128,1.871-.242,5.874-.721,11.9-.917h.01q2.114-.068,4.245-.068a130.949,130.949,0,0,1,79.4,26.687q2.446,1.854,4.8,3.823h0q.7.581,1.388,1.173,3.765,3.234,7.279,6.741,2.314,2.31,4.514,4.734.387.427.771.857l.012.013c.067.075.134.15.2.226q.561.632,1.113,1.271.266.306.527.615,1.178,1.377,2.314,2.786l.317.392q.3.379.6.761,1.507,1.909,2.944,3.875,1.594,2.18,3.1,4.429.585.873,1.157,1.756h0l.038.059v0q.842,1.3,1.655,2.628.505.822,1,1.654a130.928,130.928,0,0,1,7.169,13.906v0q1.014,2.294,1.942,4.634s0,0,0,0a130.549,130.549,0,0,1,6.425,21.37q.086.406.167.812t.164.818q.55,2.8.977,5.633.346,2.273.61,4.571.274,2.368.463,4.76.1,1.31.182,2.627.152,2.6.2,5.222c0,.18.007.36.01.541Q6021.36,1630.552,6021.36,1631.535Z" transform="translate(-5797.93 -1500.19)" fill="#4b4b73"/>
          </g>
          <g id="Grupo_94744" data-name="Grupo 94744">
            <g id="Grupo_94735" data-name="Grupo 94735" transform="translate(98.186 6.229)">
              <path id="Trazado_122164" data-name="Trazado 122164" d="M6810.621,1666.847l74.231-54.187a131.723,131.723,0,0,0-66.114-47.728l-28.014,87.549A39.64,39.64,0,0,1,6810.621,1666.847Z" transform="translate(-6790.725 -1564.933)" fill="#91c2c2"/>
            </g>
            <g id="Grupo_94742" data-name="Grupo 94742">
              <g id="Grupo_94737" data-name="Grupo 94737" transform="translate(54.597 4.111)">
                <path id="Trazado_122165" data-name="Trazado 122165" d="M6356.657,1632.726a39.606,39.606,0,0,1,24.541-.142l28.014-87.55q-3.638-1.163-7.367-2.118a146.708,146.708,0,0,0-64.236,32.5Z" transform="translate(-6337.608 -1542.916)" fill="#edba3b"/>
              </g>
              <g id="Grupo_94738" data-name="Grupo 94738" transform="translate(44.651)">
                <path id="Trazado_122166" data-name="Trazado 122166" d="M6234.215,1506.869l9.946,29.926a146.713,146.713,0,0,1,64.236-32.5,132.1,132.1,0,0,0-74.182,2.573Z" transform="translate(-6234.215 -1500.186)" fill="#f3d561"/>
              </g>
              <g id="Grupo_94739" data-name="Grupo 94739" transform="translate(29.175 90.868)">
                <path id="Trazado_122167" data-name="Trazado 122167" d="M6098.077,2462.416a39.366,39.366,0,0,0-7.042,17.956c-.09-.168-.179-.339-.264-.511l-.478-.953-10.041-20.222-.517-1.043-.108-.228-4.1-8.254-.189-.367-2-4.014Z" transform="translate(-6073.34 -2444.78)" fill="#de5b24"/>
              </g>
              <g id="Grupo_94740" data-name="Grupo 94740" transform="translate(22.604 36.609)">
                <path id="Trazado_122168" data-name="Trazado 122168" d="M6056.072,1938.051a39.643,39.643,0,0,0-19.733,14.584L6011.6,1935l-1.708-3.434a.037.037,0,0,1-.01-.02l-.06-.119-.088-.2-1.927-3.874-2.779-5.6a141.666,141.666,0,0,1,18.592-27.516q3.7-4.277,7.7-8.2,2.4-2.358,4.9-4.588h0q.4-.358.805-.713l3.351,10.081s0,0,0,0l.736,2.214,1.43,4.3h0Z" transform="translate(-6005.03 -1880.74)" fill="#e3821f"/>
              </g>
              <g id="Grupo_94741" data-name="Grupo 94741" transform="translate(0 6.683)">
                <path id="Trazado_122169" data-name="Trazado 122169" d="M5824.657,1599.585q-.4.355-.8.713h0q-2.5,2.231-4.9,4.588-4,3.925-7.7,8.2a141.684,141.684,0,0,0-18.591,27.516l-11.405-22.968-2.11-4.246-6.407-12.893-.263-.529-1.251-2.523-.242-.488h0l-.889-1.786h-.009l-.025-.05a131.6,131.6,0,0,1,31.966-20.5q4.417-2,9-3.679h0q1.828-.669,3.679-1.284l.65,1.957.275.828,8.264,24.867Z" transform="translate(-5770.06 -1569.66)" fill="#e69535"/>
              </g>
            </g>
            <g id="Grupo_94743" data-name="Grupo 94743" transform="translate(118.082 53.956)">
              <path id="Trazado_122170" data-name="Trazado 122170" d="M7071.779,2061.07l-74.23,54.187a39.384,39.384,0,0,1,7.613,23.327h91.9A130.864,130.864,0,0,0,7071.779,2061.07Z" transform="translate(-6997.549 -2061.07)" fill="#5870b0"/>
            </g>
          </g>
          <g id="Grupo_94745" data-name="Grupo 94745" transform="translate(73.888 25.952)">
            <path id="Trazado_122171" data-name="Trazado 122171" d="M6540.988,1847.931l.054.021a17.36,17.36,0,1,0,31.566,12.594h0l17.844-90.587-5.12,1.241Z" transform="translate(-6538.144 -1769.961)" fill="#4b4b73"/>
          </g>
          <g id="Grupo_94748" data-name="Grupo 94748" transform="translate(68.769 27.192)">
            <g id="Grupo_94746" data-name="Grupo 94746">
              <path id="Trazado_122172" data-name="Trazado 122172" d="M6487.769,1860.827l.053.021a17.363,17.363,0,0,0,8.033,25.723l41.38-103.715Z" transform="translate(-6484.923 -1782.857)" fill="#6078f1"/>
            </g>
            <g id="Grupo_94747" data-name="Grupo 94747" transform="translate(10.932)">
              <path id="Trazado_122173" data-name="Trazado 122173" d="M6622.094,1873.443h0l17.844-90.587-41.38,103.715a17.364,17.364,0,0,0,23.535-13.129Z" transform="translate(-6598.56 -1782.857)" fill="#4d6bd6"/>
            </g>
          </g>
          <g id="Grupo_94749" data-name="Grupo 94749" transform="translate(61.575 90.238)">
            <circle id="Elipse_5619" data-name="Elipse 5619" cx="17.36" cy="17.36" r="17.36" transform="translate(0 24.551) rotate(-45)" fill="#6078f1"/>
          </g>
          <g id="Grupo_94750" data-name="Grupo 94750" transform="translate(72.689 101.352)">
            <circle id="Elipse_5620" data-name="Elipse 5620" cx="9.501" cy="9.501" r="9.501" transform="translate(0 13.437) rotate(-45)" fill="#f6e8dd"/>
          </g>
        </g>
        <g id="man" transform="translate(197.349 66.851)">
          <g id="Grupo_94792" data-name="Grupo 94792">
            <g id="Grupo_94751" data-name="Grupo 94751" transform="translate(25.809 132.273)">
              <path id="Trazado_122174" data-name="Trazado 122174" d="M7780.9,2601.219l-.537.049c-1.917-.579-3.5.313-8.691-.332-.005.15,1.784,13.208,1.781,13.328-.021.869-2.931,4.106-3.267,4.426,0,0,1.208.258.492.845-3.26,2.669.405,1.489.236,1.681l2.754-.783s1.694,1.867,8.9-3.15a18.842,18.842,0,0,1-1.095-1.544c-.017-.116-1.04-13.256-.651-14.3l.012-.033h0Z" transform="translate(-7769.319 -2600.937)" fill="#9f5c44"/>
            </g>
            <g id="Grupo_94754" data-name="Grupo 94754" transform="translate(14.253 146.264)">
              <g id="Grupo_94752" data-name="Grupo 94752">
                <path id="Trazado_122175" data-name="Trazado 122175" d="M7665.053,2746.973s-.675-.939-1.27-.471-4.119,4.075-7.735,4.45-7.315,1.078-6.815,6.886c0,0,13.132.094,14.6,0a12.528,12.528,0,0,0,3.819-1.391v1.389h8.081V2755.6h0a.772.772,0,0,1-.729-.965,8.822,8.822,0,0,0,0-3.1c-.463-3.35-1.893-4.405-1.893-4.405S7667.008,2748.943,7665.053,2746.973Z" transform="translate(-7649.187 -2746.371)" fill="#262646"/>
              </g>
              <g id="Grupo_94753" data-name="Grupo 94753" transform="translate(1.298 8.962)">
                <path id="Trazado_122176" data-name="Trazado 122176" d="M7662.955,2840.07h24.267a.271.271,0,0,0,0-.541h-24.267a.271.271,0,0,0,0,.541Z" transform="translate(-7662.685 -2839.529)" fill="#1d1d33"/>
              </g>
            </g>
            <g id="Grupo_94755" data-name="Grupo 94755" transform="translate(48.247 132.273)">
              <path id="Trazado_122177" data-name="Trazado 122177" d="M8014.147,2601.219l-.537.049c-1.918-.579-3.5.313-8.692-.332,0,.15,1.784,13.208,1.781,13.328-.021.869-2.93,4.106-3.267,4.426,0,0,1.208.258.493.845-3.26,2.669.4,1.489.235,1.681l2.754-.783s1.694,1.867,8.9-3.15a18.925,18.925,0,0,1-1.094-1.544c-.017-.116-1.04-13.256-.651-14.3l.012-.033h0C8014.1,2601.341,8014.125,2601.28,8014.147,2601.219Z" transform="translate(-8002.57 -2600.937)" fill="#9f5c44"/>
            </g>
            <g id="Grupo_94759" data-name="Grupo 94759" transform="translate(36.42 146.264)">
              <g id="Grupo_94756" data-name="Grupo 94756" transform="translate(0.271)">
                <path id="Trazado_122178" data-name="Trazado 122178" d="M7898.3,2746.973s-.674-.939-1.269-.471-4.12,4.075-7.735,4.45-7.315,1.078-6.816,6.886c0,0,13.132.094,14.6,0a12.521,12.521,0,0,0,3.819-1.391v1.389h8.081V2755.6h0a.771.771,0,0,1-.729-.965,8.854,8.854,0,0,0,0-3.1c-.463-3.35-1.892-4.405-1.892-4.405S7900.256,2748.943,7898.3,2746.973Z" transform="translate(-7882.436 -2746.371)" fill="#262646"/>
              </g>
              <g id="Grupo_94757" data-name="Grupo 94757" transform="translate(0 4.878)">
                <path id="Trazado_122179" data-name="Trazado 122179" d="M7879.911,2803.529h.015a.271.271,0,0,0,.256-.285c-.169-3.105.9-4.844,3.45-5.639a.271.271,0,0,0-.161-.517c-2.794.87-4.011,2.835-3.83,6.185A.27.27,0,0,0,7879.911,2803.529Z" transform="translate(-7879.624 -2797.076)" fill="#1d1d33"/>
              </g>
              <g id="Grupo_94758" data-name="Grupo 94758" transform="translate(1.569 8.962)">
                <path id="Trazado_122180" data-name="Trazado 122180" d="M7896.2,2840.07h24.268a.271.271,0,0,0,0-.541H7896.2a.271.271,0,0,0,0,.541Z" transform="translate(-7895.932 -2839.529)" fill="#1d1d33"/>
              </g>
            </g>
            <g id="Grupo_94760" data-name="Grupo 94760" transform="translate(20.269 59.049)">
              <path id="Trazado_122181" data-name="Trazado 122181" d="M7729.493,1839.754l-8.15,2.592s-9.829,19.9-9.61,40.512l4.961,40.09,14.233.374s1.716-31.227-4.2-40.239l12.711-33.478Z" transform="translate(-7711.729 -1839.754)" fill="#40405f"/>
            </g>
            <g id="Grupo_94761" data-name="Grupo 94761" transform="translate(37.719 57.624)">
              <path id="Trazado_122182" data-name="Trazado 122182" d="M7901.543,1824.943l-8.042,2.91a144.494,144.494,0,0,0,3.295,42.531l8.6,39.552h13.244s-.263-31.391-6.53-40.163c0,0,2.063-21.533-.245-35.376Z" transform="translate(-7893.128 -1824.943)" fill="#40405f"/>
            </g>
            <g id="Grupo_94762" data-name="Grupo 94762" transform="translate(31.332 20.944)">
              <path id="Trazado_122183" data-name="Trazado 122183" d="M7833.7,1454.845c3.186.684,7.135-2.39,9.043-5.765a14.07,14.07,0,0,1-3.57-1.372,5.664,5.664,0,0,1-.5-3.079,20.226,20.226,0,0,1-7.347-.979l-.041,4.314-4.558,1.6C7826.854,1449.875,7830.129,1454.078,7833.7,1454.845Z" transform="translate(-7826.731 -1443.649)" fill="#9f5c44"/>
            </g>
            <g id="Grupo_94763" data-name="Grupo 94763" transform="translate(35.935 16.966)">
              <path id="Trazado_122184" data-name="Trazado 122184" d="M7881.913,1407.511c.027-2.347.42-5.129.373-5.222l-7.707,2.8v2.076A38.786,38.786,0,0,0,7881.913,1407.511Z" transform="translate(-7874.58 -1402.289)" fill="#734943"/>
            </g>
            <g id="Grupo_94770" data-name="Grupo 94770" transform="translate(29.543)">
              <g id="Grupo_94764" data-name="Grupo 94764" transform="translate(1.41)">
                <path id="Trazado_122185" data-name="Trazado 122185" d="M7838.516,1228.411a2.06,2.06,0,0,0-1.974-.507.751.751,0,0,1-.839-.324,2.224,2.224,0,0,0-1.5-1,2.72,2.72,0,0,0-1.432.153.782.782,0,0,1-.8-.162,2.241,2.241,0,0,0-.569-.388c-1.418-.678-3.691.007-5.693,1.694-.024-.024-.084-.024-.17,0h0c-.764.188-3.582,2.089-2.5,4.621a2.354,2.354,0,0,0,1.009,1.108,5.634,5.634,0,0,0,2.379.644h0c.252.02.506.031.757.034a17.173,17.173,0,0,0,3.37-.326,1.008,1.008,0,0,0,.264,1.427,1.821,1.821,0,0,0,.635.266l.568-.62h0l.131-.142c.067.011.133.021.2.033,1.8.313,2.238.716,2.266,1.051.055.664-1.526,1.014-1.771,2.178-.232,1.1.927,2.02,1.019,2.091a3.067,3.067,0,0,0,1.055.516l.1.025a3.562,3.562,0,0,0,.672.1c.075-.131.147-.257.216-.38h0c.364-.642.661-1.187.908-1.686.073-.147.141-.29.207-.43a13.346,13.346,0,0,0,.758-2.036c0-.012.013,0,.013,0h0c.014-.048.346-1.414.68-2.795,0,0,0,0,0-.007.329-1.375.658-2.76.667-2.875A3.093,3.093,0,0,0,7838.516,1228.411Z" transform="translate(-7822.783 -1225.928)" fill="#40405f"/>
              </g>
              <g id="Grupo_94765" data-name="Grupo 94765" transform="translate(2.524 4.943)">
                <path id="Trazado_122186" data-name="Trazado 122186" d="M7834.369,1282.922s-.079,7.887.866,10.012,4.131,2.522,7.363.929a6.741,6.741,0,0,0,3.522-5.164l.722-5.255-2.875-6.127-9.444,2.352Z" transform="translate(-7834.368 -1277.317)" fill="#9f5c44"/>
              </g>
              <g id="Grupo_94766" data-name="Grupo 94766" transform="translate(0 1.742)">
                <path id="Trazado_122187" data-name="Trazado 122187" d="M7813.748,1250.674s-3.021.625-4.3.032c-1.762-.817-1.408-3.8-.931-5.171.374-1.076,1.188-1.894,3.769-1.286,1.091.257.347,1.7,1.389,1.291,2.422-.949,6.592-2.123,7.8.435,0,0,1.017-.7.455.318,0,0,3-.293,3.333,1.722s-1.41,8.031-1.41,8.031l-1.5-4.258-1.47-1.841Z" transform="translate(-7808.127 -1244.042)" fill="#40405f"/>
              </g>
              <g id="Grupo_94767" data-name="Grupo 94767" transform="translate(13.228 12.452)">
                <path id="Trazado_122188" data-name="Trazado 122188" d="M7946.38,1356.175s1.477-1.583,2.916-.309-1.338,5.975-3.663,3.747Z" transform="translate(-7945.633 -1355.37)" fill="#9f5c44"/>
              </g>
              <g id="Grupo_94768" data-name="Grupo 94768" transform="translate(5.023 6.808)">
                <path id="Trazado_122189" data-name="Trazado 122189" d="M7867.433,1296.725s-8.015-.39-7,2.061c.651,1.574,3.737.83,5.862.1a1.9,1.9,0,0,1,2.551,1.866c0,.015,0,.031,0,.046-.124,1.226-.521,2.571-.085,2.99.2.2.868.206.971-.055l1.55-3.877Z" transform="translate(-7860.344 -1296.702)" fill="#40405f"/>
              </g>
              <g id="Grupo_94769" data-name="Grupo 94769" transform="translate(7.852 14.941)" opacity="0.56">
                <circle id="Elipse_5621" data-name="Elipse 5621" cx="1.865" cy="1.865" r="1.865" transform="translate(0 2.637) rotate(-45)" fill="#734943"/>
              </g>
            </g>
            <g id="Grupo_94771" data-name="Grupo 94771" transform="translate(25.816 25.237)">
              <path id="Trazado_122190" data-name="Trazado 122190" d="M7798,1504.1c-.027-3.582-.1-6.352-.1-6.352,1.719,1.507,5.337-3.9-.507-6.933-.689-.358-8.888-2.549-8.888-2.549l-1.479,1.5c-2.409,2.439-7.229,1.972-9.38-.7l-.174-.215c-.91.282-1.366.341-2.118.589l-.459.15c-1.576.525-2.386.85-2.9,1.022a15.333,15.333,0,0,0-1.592.678c-1.457,4.39-1.16,36.219-.275,40,.093.4-.687,3.876-.287,3.972,5.576,1.33,32.042.26,32.139-.261a51.126,51.126,0,0,0-.735-5.907C7798.114,1515.47,7798.062,1511.965,7798,1504.1Z" transform="translate(-7769.391 -1488.268)" fill="#e17747"/>
            </g>
            <g id="Grupo_94773" data-name="Grupo 94773" transform="translate(10.542 28.041)">
              <g id="Grupo_94772" data-name="Grupo 94772">
                <path id="Trazado_122191" data-name="Trazado 122191" d="M7631.586,1519.679c-1.228-1.649-2.895-2.754-4.687-2.041h0a8.406,8.406,0,0,0-4.4,4.437l-6.389,21.009-5.5,10.3,3.1,6.4s10.908-7.659,12.781-11.063c2.282-4.146,5.3-18.617,6.426-24.311a5.325,5.325,0,0,0-.934-4.188Z" transform="translate(-7610.609 -1517.418)" fill="#e17747"/>
              </g>
            </g>
            <g id="Grupo_94774" data-name="Grupo 94774" transform="translate(31.769 25.969)">
              <path id="Trazado_122192" data-name="Trazado 122192" d="M7838.773,1500.831c.1,0,.2,0,.308,0a10.8,10.8,0,0,0,8.1-4.3.406.406,0,1,0-.654-.479,9.96,9.96,0,0,1-7.466,3.971,9.818,9.818,0,0,1-7.09-2.85.405.405,0,1,0-.575.572A10.716,10.716,0,0,0,7838.773,1500.831Z" transform="translate(-7831.273 -1495.878)" fill="#dd5119"/>
            </g>
            <g id="Grupo_94775" data-name="Grupo 94775" transform="translate(22.579 130.801)">
              <path id="Trazado_122193" data-name="Trazado 122193" d="M7752.632,2597.449H7737.75l-2.006-11.816,4.228.266Z" transform="translate(-7735.743 -2585.633)" fill="#40405f"/>
            </g>
            <g id="Grupo_94776" data-name="Grupo 94776" transform="translate(46.061 130.801)">
              <path id="Trazado_122194" data-name="Trazado 122194" d="M7997.015,2597.449h-15.166l-2.006-11.816,4.228.266Z" transform="translate(-7979.843 -2585.633)" fill="#40405f"/>
            </g>
            <g id="Grupo_94777" data-name="Grupo 94777" transform="translate(48.595 130.782)">
              <path id="Trazado_122195" data-name="Trazado 122195" d="M8006.59,2586.25h10.431a.406.406,0,1,0,0-.812H8006.59a.406.406,0,1,0,0,.812Z" transform="translate(-8006.184 -2585.439)" fill="#4f4f7c"/>
            </g>
            <g id="Grupo_94778" data-name="Grupo 94778" transform="translate(24.32 130.782)">
              <path id="Trazado_122196" data-name="Trazado 122196" d="M7754.242,2586.25h10.431a.406.406,0,1,0,0-.812h-10.431a.406.406,0,1,0,0,.812Z" transform="translate(-7753.836 -2585.439)" fill="#4f4f7c"/>
            </g>
            <g id="Grupo_94779" data-name="Grupo 94779" transform="translate(32.548 99.715)">
              <path id="Trazado_122197" data-name="Trazado 122197" d="M7842.087,2265.558a.406.406,0,0,0,.284-.7l-2.313-2.258a.406.406,0,0,0-.566.581l2.313,2.258A.4.4,0,0,0,7842.087,2265.558Z" transform="translate(-7839.369 -2262.489)" fill="#4f4f7c"/>
            </g>
            <g id="Grupo_94780" data-name="Grupo 94780" transform="translate(53.307 99.715)">
              <path id="Trazado_122198" data-name="Trazado 122198" d="M8057.886,2265.558a.4.4,0,0,0,.29-.123.406.406,0,0,0-.007-.574l-2.313-2.258a.406.406,0,0,0-.567.581l2.313,2.258A.408.408,0,0,0,8057.886,2265.558Z" transform="translate(-8055.167 -2262.489)" fill="#4f4f7c"/>
            </g>
            <g id="Grupo_94781" data-name="Grupo 94781" transform="translate(46.943 75.087)">
              <path id="Trazado_122199" data-name="Trazado 122199" d="M7996.938,2062.975a.407.407,0,0,0,.4-.492c-.036-.168-3.683-16.9-5.9-25.914-2.207-8.957-1.5-29.475-1.494-29.681a.406.406,0,0,0-.812-.028c-.007.207-.715,20.838,1.519,29.9,2.219,9.007,5.862,25.724,5.9,25.892A.405.405,0,0,0,7996.938,2062.975Z" transform="translate(-7989.013 -2006.468)" fill="#4f4f7c"/>
            </g>
            <g id="Grupo_94782" data-name="Grupo 94782" transform="translate(24.586 74.032)">
              <path id="Trazado_122200" data-name="Trazado 122200" d="M7761.693,2053.066a.434.434,0,0,0,.081-.008.406.406,0,0,0,.318-.478c-.046-.226-4.554-22.635-4.677-29.865-.123-7.2,6.539-26.479,6.606-26.673a.406.406,0,1,0-.767-.266c-.277.8-6.776,19.615-6.651,26.953.125,7.3,4.506,29.088,4.692,30.012A.407.407,0,0,0,7761.693,2053.066Z" transform="translate(-7756.601 -1995.504)" fill="#4f4f7c"/>
            </g>
            <g id="Grupo_94783" data-name="Grupo 94783" transform="translate(0 42.928)">
              <path id="Trazado_122201" data-name="Trazado 122201" d="M7633.788,1685.731a1.286,1.286,0,0,0-.694-2.146l-9.9-1.9-4.837-8.843a1.286,1.286,0,0,0-2.255,0l-4.862,8.83-.39.073a30.114,30.114,0,0,0,8.335,13.244,28.542,28.542,0,0,0,8.6,5.322l-.91-7.247Z" transform="translate(-7600.285 -1672.177)" fill="#f0c675"/>
              <path id="Trazado_122202" data-name="Trazado 122202" d="M7511.592,1771.648l-9.516,1.794a1.287,1.287,0,0,0-.7,2.144l6.9,7.353-1.285,10a1.286,1.286,0,0,0,1.823,1.328l9.124-4.285,9.111,4.311a1.287,1.287,0,0,0,1.827-1.323l-.346-2.754a28.54,28.54,0,0,1-8.6-5.322A30.111,30.111,0,0,1,7511.592,1771.648Z" transform="translate(-7501.027 -1762.079)" fill="#edbb48"/>
            </g>
            <g id="Grupo_94789" data-name="Grupo 94789" transform="translate(17.67 27.503)">
              <g id="Grupo_94784" data-name="Grupo 94784" transform="translate(0 38.87)">
                <path id="Trazado_122203" data-name="Trazado 122203" d="M7691.726,1926.771a5.668,5.668,0,0,1-1.877.55l-4.062.284a.846.846,0,0,1-.918-.828h0a.736.736,0,0,1,.654-.768l3.09-.143-1.6-.331a2.4,2.4,0,0,1-.876-.378l-1.04-.719a.862.862,0,0,1-.238-1.193l.253-.354-.049-.043a.928.928,0,0,1-.133-1.284h0a.844.844,0,0,1,1.139-.122c.8.556,2.069,1.439,2.25,1.551a9.808,9.808,0,0,0,3.951-.989.629.629,0,0,0-.034-1.022l-2.125-.193a.9.9,0,0,1-.753-1.214l.014-.031a.765.765,0,0,1,.691-.445l2.579-.04,3.432-1.485c2.152-.774,3.457,1.217,3.621,1.407l8.658-3.089.375,5.153Z" transform="translate(-7684.714 -1915.892)" fill="#9f5c44"/>
              </g>
              <g id="Grupo_94785" data-name="Grupo 94785" transform="translate(16.234)">
                <path id="Trazado_122204" data-name="Trazado 122204" d="M7867.844,1541.218c1.79-3.067-.354-14.723-1.559-22.185a6.381,6.381,0,0,1,4.436-7.118h0c3.427-.64,6.616,2.408,7.033,6.633,1.016,10.287,4.992,25.37,1.259,28.7-5.479,4.882-21.615,12.575-21.615,12.575l-3.934-8.162Z" transform="translate(-7853.466 -1511.83)" fill="#e17747"/>
              </g>
              <g id="Grupo_94786" data-name="Grupo 94786" transform="translate(18.463 13.53)">
                <path id="Trazado_122205" data-name="Trazado 122205" d="M7877.044,1677.27a.4.4,0,0,0,.238-.078l11.813-8.576.043-.074c1.4-2.394.572-9.289-.419-15.718a.406.406,0,0,0-.8.124c.833,5.4,1.791,12.815.56,15.114l-11.671,8.474a.406.406,0,0,0,.239.734Z" transform="translate(-7876.638 -1652.481)" fill="#dd5119"/>
              </g>
              <g id="Grupo_94787" data-name="Grupo 94787" transform="translate(23.61 26.336)">
                <path id="Trazado_122206" data-name="Trazado 122206" d="M7930.549,1805.759a.4.4,0,0,0,.2-.053c.8-.45,1.749-.981,2.8-1.567,5.371-3,12.727-7.1,15.039-9.156,1.444-1.287,1.949-4.148,1.589-9a.406.406,0,0,0-.81.06c.335,4.521-.1,7.249-1.32,8.339-2.244,2-9.857,6.244-14.894,9.053-1.051.586-2.007,1.119-2.8,1.57a.406.406,0,0,0,.2.759Z" transform="translate(-7930.143 -1785.603)" fill="#dd5119"/>
              </g>
              <g id="Grupo_94788" data-name="Grupo 94788" transform="translate(21.259 35.776)">
                <path id="Trazado_122207" data-name="Trazado 122207" d="M7910.91,1892.763a.406.406,0,0,0,.35-.61l-4.8-8.223a.405.405,0,1,0-.7.409l4.8,8.223A.4.4,0,0,0,7910.91,1892.763Z" transform="translate(-7905.701 -1883.728)" fill="#de5d26"/>
              </g>
            </g>
            <g id="Grupo_94790" data-name="Grupo 94790" transform="translate(37.314 83.791)">
              <path id="Trazado_122208" data-name="Trazado 122208" d="M7890.65,2104.859a.421.421,0,0,0,.076-.007.406.406,0,0,0,.324-.474l-1.334-7.091a.406.406,0,1,0-.8.15l1.334,7.09A.407.407,0,0,0,7890.65,2104.859Z" transform="translate(-7888.911 -2096.956)" fill="#4f4f7c"/>
            </g>
            <g id="Grupo_94791" data-name="Grupo 94791" transform="translate(46.939 75.087)">
              <path id="Trazado_122209" data-name="Trazado 122209" d="M7989.373,2017.826a4.5,4.5,0,0,0,3.334-1.411c2.829-2.9,2.7-9.282,2.69-9.552a.406.406,0,0,0-.406-.4h-.011a.406.406,0,0,0-.4.416c0,.063.13,6.309-2.46,8.966a3.671,3.671,0,0,1-2.753,1.165.406.406,0,1,0,0,.812Z" transform="translate(-7988.967 -2006.468)" fill="#4f4f7c"/>
            </g>
          </g>
        </g>
        <g id="woman" transform="translate(55.895 20.902)">
          <g id="Grupo_94800" data-name="Grupo 94800" transform="translate(6.012)">
            <g id="Grupo_94793" data-name="Grupo 94793">
              <path id="Trazado_122210" data-name="Trazado 122210" d="M6121.778,766.663c-1.741-.783-1.817-2.242-2.29-9.642-.432-6.757-5.407-5.285-5.573-5.041,0,0-2.43-5.921-10.056-2.782,0,0-3.6,1.832-4.2,7.152a10.808,10.808,0,0,1-1.97,5.188,5.987,5.987,0,0,1-2.593,2.168,3,3,0,0,0-1.848,3.785q.078.215.179.435c.53,1.136,2.652,2.244,4.938-.14,1.3,5.131,8.647,1.053,8.647,1.053l4.495.273c2.263,2.6,6.276.236,6.276.236,3.01,1.4,4.144-.166,4.564-1.354A1.069,1.069,0,0,0,6121.778,766.663Z" transform="translate(-6093.081 -748.281)" fill="#40405f"/>
            </g>
            <g id="Grupo_94794" data-name="Grupo 94794" transform="translate(13.159 18.745)">
              <path id="Trazado_122211" data-name="Trazado 122211" d="M6229.876,945.9l.821-2.763,5.908,1.555-.218,1.658-.038.125A9.5,9.5,0,0,1,6229.876,945.9Z" transform="translate(-6229.876 -943.142)" fill="#d57b64"/>
            </g>
            <g id="Grupo_94795" data-name="Grupo 94795" transform="translate(8.329 21.508)">
              <path id="Trazado_122212" data-name="Trazado 122212" d="M6179.665,976l2.9-.41a1.344,1.344,0,0,0,1.1-.948l.828-2.784a9.506,9.506,0,0,0,6.475.576l-1.009,3.382s2.341.277,3.377.353a24.238,24.238,0,0,1-.083,3.067l.043-.031c-.358,4.236-1.392,9.98-2.709,10.638a2.855,2.855,0,0,1-.838.258h0c-1.889.293-5.3-5.276-8.037-10.167.082.046.17.088.254.133C6181.183,978.662,6180.265,977.1,6179.665,976Z" transform="translate(-6179.665 -971.858)" fill="#e8a183"/>
            </g>
            <g id="Grupo_94796" data-name="Grupo 94796" transform="translate(12.023 6.867)">
              <path id="Trazado_122213" data-name="Trazado 122213" d="M6229.924,823s-.042,7-.855,9.053-3.4,3.046-6.54,1.634a6.492,6.492,0,0,1-3.564-4.8l-.9-4.981,7.769-4.235Z" transform="translate(-6218.064 -819.667)" fill="#e8a183"/>
            </g>
            <g id="Grupo_94797" data-name="Grupo 94797" transform="translate(9.834 12.158)">
              <path id="Trazado_122214" data-name="Trazado 122214" d="M6198.11,875.329s-1.324-1.354-2.5-.193,1.379,5.225,3.277,3.2Z" transform="translate(-6195.309 -874.666)" fill="#e8a183"/>
            </g>
            <g id="Grupo_94798" data-name="Grupo 94798" transform="translate(11.1 5.63)">
              <path id="Trazado_122215" data-name="Trazado 122215" d="M6209.545,813.137c.018.1,6.746-1.813,7.786-4.954a46.171,46.171,0,0,0,3.917,3.191c.517.184.783-.591.783-.591l-4.437-3.979-9.128,4.863Z" transform="translate(-6208.466 -806.804)" fill="#40405f"/>
            </g>
            <g id="Grupo_94799" data-name="Grupo 94799" transform="translate(13.549 13.137)" opacity="0.57">
              <circle id="Elipse_5622" data-name="Elipse 5622" cx="2.077" cy="2.077" r="2.077" transform="translate(0 3.33) rotate(-53.292)" fill="#d57b64"/>
            </g>
          </g>
          <g id="Grupo_94810" data-name="Grupo 94810" transform="translate(5.44 54.677)">
            <g id="Grupo_94803" data-name="Grupo 94803" transform="translate(40.858 34.473)">
              <g id="Grupo_94801" data-name="Grupo 94801" transform="translate(4.946 22.796)">
                <path id="Trazado_122216" data-name="Trazado 122216" d="M6564.944,1912.022h0s-.776-.127-.8.114a5.457,5.457,0,0,0,.538,1.29,28.812,28.812,0,0,0-1.389,4.58,8.172,8.172,0,0,0,.583,3.155l22.424-1.854s.662-.662.694-2.951a1.409,1.409,0,0,0-1.362-1.423,10.416,10.416,0,0,1-1.576-.152,14.083,14.083,0,0,1-1.917-.7h0C6575.473,1917.354,6564.944,1912.022,6564.944,1912.022Z" transform="translate(-6563.271 -1911.989)" fill="#262646"/>
              </g>
              <g id="Grupo_94802" data-name="Grupo 94802">
                <path id="Trazado_122217" data-name="Trazado 122217" d="M6526.262,1692.89c-1.007-1.843-2.337-6.6-5-17.873-4.479,3.187-9.638,1.529-9.4,2.693,2.167,10.425,7.491,16.349,6.612,20.136,0,0,10.528,5.332,17.189,2.062C6532.313,1698.509,6527.8,1695.71,6526.262,1692.89Z" transform="translate(-6511.858 -1675.017)" fill="#e8a183"/>
              </g>
            </g>
            <g id="Grupo_94806" data-name="Grupo 94806" transform="translate(15.521 31.892)">
              <g id="Grupo_94804" data-name="Grupo 94804" transform="translate(0 19.832)">
                <path id="Trazado_122218" data-name="Trazado 122218" d="M6255.8,1854.9h0s-.271-.635-.463-.542a4.812,4.812,0,0,0-.711,1.006,25.593,25.593,0,0,0-4.076,1.123,7.235,7.235,0,0,0-2.084,1.915l11.927,15.745s.806.179,2.532-.873a1.235,1.235,0,0,0,.423-1.679,9.04,9.04,0,0,1-.627-1.24,12.193,12.193,0,0,1-.381-1.748h0C6256.767,1865.2,6255.8,1854.9,6255.8,1854.9Z" transform="translate(-6248.469 -1854.344)" fill="#262646"/>
              </g>
              <g id="Grupo_94805" data-name="Grupo 94805" transform="translate(7.334)">
                <path id="Trazado_122219" data-name="Trazado 122219" d="M6332.068,1672c1.061-4.125,3.442-9.118,7.142-16.889-4.488-1.821-6.025-7.6-6.782-6.871-6.772,6.506-4.478,19.192-7.722,20.321,0,0,.964,10.308,6.54,13.706A28.208,28.208,0,0,1,6332.068,1672Z" transform="translate(-6324.705 -1648.182)" fill="#e8a183"/>
              </g>
            </g>
            <g id="Grupo_94807" data-name="Grupo 94807" transform="translate(13.802 8.248)">
              <path id="Trazado_122220" data-name="Trazado 122220" d="M6230.6,1410.543l.335-8.011s20.373-1.364,29.564,4.609-10.818,39.635-10.818,39.635l-10.284-3.339s5.406-18.831,9.738-25.951Z" transform="translate(-6230.604 -1402.397)" fill="#4b4b73"/>
            </g>
            <g id="Grupo_94808" data-name="Grupo 94808">
              <path id="Trazado_122221" data-name="Trazado 122221" d="M6133.244,1331.449c-5.558-5.4-10.408-2.852-19.63-4.545-.442-.081,0-5.147,0-5.147l-23.063-5.1-2.314,4.316s-5.149,18.366,6.746,20.813c10.935,2.25,28.771,3.236,28.771,3.236s.56,2.989,1.911,8.7c.92,3.88,6.095,15.356,6.095,15.356l13.031-2.158-9.722-31.769A11.348,11.348,0,0,0,6133.244,1331.449Z" transform="translate(-6087.127 -1316.658)" fill="#4b4b73"/>
            </g>
            <g id="Grupo_94809" data-name="Grupo 94809" transform="translate(28.821 27.406)">
              <path id="Trazado_122222" data-name="Trazado 122222" d="M6397.482,1614.868a.437.437,0,0,0,.411-.587,30.587,30.587,0,0,1-1.023-3.177c-1.333-5.628-1.9-8.645-1.907-8.675l-.063-.337-.342-.019c-.03,0-3.08-.172-7.357-.522a.436.436,0,0,0-.072.87c3.467.284,6.129.45,7.042.5.183.934.765,3.8,1.851,8.38a31.484,31.484,0,0,0,1.052,3.276A.436.436,0,0,0,6397.482,1614.868Z" transform="translate(-6386.728 -1601.55)" fill="#59598f"/>
            </g>
          </g>
          <g id="Grupo_94811" data-name="Grupo 94811" transform="translate(24.435 25.369)">
            <path id="Trazado_122223" data-name="Trazado 122223" d="M6287.2,1014.622l1.591-2.629s2.719.425,3.65,2.629c1.08,2.556,7.762,24.79,7.762,24.79s11.467,2.274,12.57,4.171-.851,3.689-.851,3.689l-27.331-1.492Z" transform="translate(-6284.593 -1011.993)" fill="#91c2c2"/>
          </g>
          <g id="Grupo_94812" data-name="Grupo 94812" transform="translate(7.563 24.554)">
            <path id="Trazado_122224" data-name="Trazado 122224" d="M6113.524,1004.083a31.521,31.521,0,0,1,3.945-.554.633.633,0,0,1,.615.354c1.994,3.965,5.453,5.066,7.568,4.295,1.853-.675,2.525-3.269,2.694-3.982l.057-.033c.089.015,1.16.084,1.386.107l.04,0c.15.015.3.042.442.069l1.206,5.185,2.429,6.956a5.555,5.555,0,0,1-.82,5.2c-.126.166-.258.33-.393.489-.027-.007-.047-.01-.052-.005-.29.266-1.254,1.161-1.254,1.161,0,.022-.007.05-.01.073s-.028.022-.042.031-.672,3.343-1.315,6.444c-1.117,4.732-2.49,10.012-2.49,10.012-1.805.445-2.588.174-4.444.078-5.532-.286-13.886-3.211-13.886-3.211s2.313-3.774,2.815-5.048a31.868,31.868,0,0,0-.1-13.86l-.69-12.909A7.951,7.951,0,0,1,6113.524,1004.083Z" transform="translate(-6109.199 -1003.527)" fill="#91c2c2"/>
          </g>
          <g id="Grupo_94813" data-name="Grupo 94813" transform="translate(27.697 30.117)">
            <path id="Trazado_122225" data-name="Trazado 122225" d="M6318.938,1083.624a.437.437,0,0,0,.425-.335l.249-1.046c.562-2.712,1.146-5.6,1.286-6.3l.037-.029.022-.1.984-.911.069.017.184-.2c.148-.174.292-.354.43-.536a5.955,5.955,0,0,0,.862-5.584l-2.428-6.956a.436.436,0,1,0-.823.288l2.427,6.956a5.084,5.084,0,0,1-.733,4.767c-.1.128-.2.255-.3.379l-.1.067-1.387,1.283-.064.229s-.673,3.343-1.315,6.442l-.246,1.032a.436.436,0,0,0,.324.526A.4.4,0,0,0,6318.938,1083.624Z" transform="translate(-6318.502 -1061.353)" fill="#6ca1a1"/>
          </g>
          <g id="Grupo_94814" data-name="Grupo 94814" transform="translate(13.773 57.168)">
            <path id="Trazado_122226" data-name="Trazado 122226" d="M6196.686,1349.256a3.106,3.106,0,0,1,.644.4c.054.107-.482,1.2-1.912.815s-5.433-3.018-5.433-3.018c-.337-.074-3.707,1.444-4.842,1.7a3.065,3.065,0,0,1-2.216-.665l-9.172-.936.311-5,.466.407,8.947.913,4.169-.9a5.307,5.307,0,0,1,3.391.387l5.76,2.715a.751.751,0,0,1,.386.9h0a.725.725,0,0,1-.906.5l-.153-.048.842.36a.7.7,0,0,1,.393.818l-.031.124a.691.691,0,0,1-.642.53Z" transform="translate(-6173.755 -1342.557)" fill="#e8a183"/>
          </g>
          <g id="Grupo_94815" data-name="Grupo 94815" transform="translate(0 25.707)">
            <path id="Trazado_122227" data-name="Trazado 122227" d="M6030.679,1044.1c.469-2.716,1.147-6.393,1.951-10.171,1.608-7.562,3.87-14.867,5.781-16.9a5.88,5.88,0,0,1,2.3-1.523l1.834,20.81-.524,3.429-.455,2.973,10.3,1.271c-.179,2.013-.391,7.716-.369,9.467l-14.527-1.755a6.311,6.311,0,0,1-3.491-1.055A6.526,6.526,0,0,1,6030.679,1044.1Z" transform="translate(-6030.583 -1015.507)" fill="#91c2c2"/>
          </g>
          <g id="Grupo_94816" data-name="Grupo 94816" transform="translate(10.482 40.697)">
            <path id="Trazado_122228" data-name="Trazado 122228" d="M6150.193,1187.548a.436.436,0,0,0,.436-.414c.044-.859.1-1.654.15-2.269l.037-.42-10.27-1.267,1.735-11.342a.436.436,0,0,0-.366-.5.441.441,0,0,0-.5.366l-1.871,12.23,10.327,1.274c-.041.548-.082,1.195-.116,1.881a.435.435,0,0,0,.414.458Z" transform="translate(-6139.547 -1171.334)" fill="#6ca1a1"/>
          </g>
          <g id="Grupo_94817" data-name="Grupo 94817" transform="translate(17.581 62.747)">
            <path id="Rectángulo_35045" data-name="Rectángulo 35045" d="M0,0H30.4a0,0,0,0,1,0,0V.424a3.082,3.082,0,0,1-3.082,3.082H0a0,0,0,0,1,0,0V0A0,0,0,0,1,0,0Z" transform="translate(30.403 3.506) rotate(180)" fill="#6078f1"/>
          </g>
          <g id="Grupo_94820" data-name="Grupo 94820" transform="translate(25.586 45.388)">
            <g id="Grupo_94818" data-name="Grupo 94818" transform="translate(6.063)">
              <path id="Trazado_122229" data-name="Trazado 122229" d="M6359.582,1220.1h25.108a.359.359,0,0,1,.333.474l-3.472,16.471a28.737,28.737,0,0,1-14.317-6.285A27.863,27.863,0,0,1,6359.582,1220.1Z" transform="translate(-6359.582 -1220.097)" fill="#789bfb"/>
            </g>
            <g id="Grupo_94819" data-name="Grupo 94819">
              <path id="Trazado_122230" data-name="Trazado 122230" d="M6296.582,1239.717l.549-2.606,3.487-16.54a.593.593,0,0,1,.533-.474h1.464a27.87,27.87,0,0,0,7.653,10.661,28.735,28.735,0,0,0,14.316,6.285l-.014.069-.55,2.606a1.555,1.555,0,0,1-1.4,1.245h-25.166A.942.942,0,0,1,6296.582,1239.717Z" transform="translate(-6296.552 -1220.097)" fill="#6d8aef"/>
            </g>
          </g>
        </g>
        <g id="review" transform="translate(161.009 -7.615)">
          <g id="Grupo_94821" data-name="Grupo 94821">
            <path id="Trazado_122231" data-name="Trazado 122231" d="M6607.795,930.208c-12.006,0-21.737-8.851-21.737-19.77h0a18.569,18.569,0,0,1,4.553-12.1c-6.3,3.462-10.516,9.749-10.516,16.933h0c0,10.918,9.732,19.769,21.738,19.769h92.437a22.519,22.519,0,0,0,17.187-7.67,23.28,23.28,0,0,1-11.224,2.837Z" transform="translate(-6580.095 -895.503)" fill="#764cf0"/>
            <path id="Trazado_122232" data-name="Trazado 122232" d="M6752.7,897.816c0-10.919-9.732-19.769-21.738-19.769h-92.437a23.277,23.277,0,0,0-11.223,2.836,18.57,18.57,0,0,0-4.554,12.1h0c0,10.918,9.733,19.769,21.738,19.769h92.438a23.277,23.277,0,0,0,11.224-2.836,18.569,18.569,0,0,0,4.553-12.1Z" transform="translate(-6616.786 -878.047)" fill="#8d6af2"/>
          </g>
          <g id="Grupo_94826" data-name="Grupo 94826" transform="translate(10.178 8.006)">
            <g id="Grupo_94822" data-name="Grupo 94822" transform="translate(5 -2)">
              <path id="Trazado_122233" data-name="Trazado 122233" d="M6725.316,945.283a.945.945,0,0,0-.51-1.577l-7.277-1.394-3.555-6.5a.946.946,0,0,0-1.658,0l-3.573,6.49-.286.054a22.14,22.14,0,0,0,6.125,9.734A21,21,0,0,0,6720.9,956l-.669-5.327Z" transform="translate(-6700.691 -935.321)" fill="#fbde62"/>
              <path id="Trazado_122234" data-name="Trazado 122234" d="M6660.671,985.637l-6.994,1.319a.945.945,0,0,0-.515,1.576l5.067,5.4-.944,7.348a.945.945,0,0,0,1.34.976l6.706-3.15,6.7,3.169a.946.946,0,0,0,1.343-.973l-.254-2.024a20.986,20.986,0,0,1-6.32-3.912A22.131,22.131,0,0,1,6660.671,985.637Z" transform="translate(-6652.905 -978.604)" fill="#ffd41c"/>
            </g>
            <g id="Grupo_94829" data-name="Grupo 94829" transform="translate(34 -2)">
              <path id="Trazado_122233-2" data-name="Trazado 122233" d="M6725.316,945.283a.945.945,0,0,0-.51-1.577l-7.277-1.394-3.555-6.5a.946.946,0,0,0-1.658,0l-3.573,6.49-.286.054a22.14,22.14,0,0,0,6.125,9.734A21,21,0,0,0,6720.9,956l-.669-5.327Z" transform="translate(-6700.691 -935.321)" fill="#fbde62"/>
              <path id="Trazado_122234-2" data-name="Trazado 122234" d="M6660.671,985.637l-6.994,1.319a.945.945,0,0,0-.515,1.576l5.067,5.4-.944,7.348a.945.945,0,0,0,1.34.976l6.706-3.15,6.7,3.169a.946.946,0,0,0,1.343-.973l-.254-2.024a20.986,20.986,0,0,1-6.32-3.912A22.131,22.131,0,0,1,6660.671,985.637Z" transform="translate(-6652.905 -978.604)" fill="#ffd41c"/>
            </g>
            <g id="Grupo_94830" data-name="Grupo 94830" transform="translate(63 -2)">
              <path id="Trazado_122233-3" data-name="Trazado 122233" d="M6725.316,945.283a.945.945,0,0,0-.51-1.577l-7.277-1.394-3.555-6.5a.946.946,0,0,0-1.658,0l-3.573,6.49-.286.054a22.14,22.14,0,0,0,6.125,9.734A21,21,0,0,0,6720.9,956l-.669-5.327Z" transform="translate(-6700.691 -935.321)" fill="#fbde62"/>
              <path id="Trazado_122234-3" data-name="Trazado 122234" d="M6660.671,985.637l-6.994,1.319a.945.945,0,0,0-.515,1.576l5.067,5.4-.944,7.348a.945.945,0,0,0,1.34.976l6.706-3.15,6.7,3.169a.946.946,0,0,0,1.343-.973l-.254-2.024a20.986,20.986,0,0,1-6.32-3.912A22.131,22.131,0,0,1,6660.671,985.637Z" transform="translate(-6652.905 -978.604)" fill="#ffd41c"/>
            </g>
            <g id="Grupo_94831" data-name="Grupo 94831" transform="translate(92 -2)">
              <path id="Trazado_122233-4" data-name="Trazado 122233" d="M6725.316,945.283a.945.945,0,0,0-.51-1.577l-7.277-1.394-3.555-6.5a.946.946,0,0,0-1.658,0l-3.573,6.49-.286.054a22.14,22.14,0,0,0,6.125,9.734A21,21,0,0,0,6720.9,956l-.669-5.327Z" transform="translate(-6700.691 -935.321)" fill="#fbde62"/>
              <path id="Trazado_122234-4" data-name="Trazado 122234" d="M6660.671,985.637l-6.994,1.319a.945.945,0,0,0-.515,1.576l5.067,5.4-.944,7.348a.945.945,0,0,0,1.34.976l6.706-3.15,6.7,3.169a.946.946,0,0,0,1.343-.973l-.254-2.024a20.986,20.986,0,0,1-6.32-3.912A22.131,22.131,0,0,1,6660.671,985.637Z" transform="translate(-6652.905 -978.604)" fill="#ffd41c"/>
            </g>
          </g>
        </g>
      </g>
      <rect id="Rectángulo_35047" data-name="Rectángulo 35047" width="37.057" height="37.058" rx="8" transform="matrix(0.985, 0.174, -0.174, 0.985, 5269.234, -261.315)" fill="#26d19e"/>
      <ellipse id="Elipse_5623" data-name="Elipse 5623" cx="18.701" cy="18.701" rx="18.701" ry="18.701" transform="translate(5450.461 -453.788)" fill="#764cf0"/>
    </g>
    <g id="Grupo_90929" data-name="Grupo 90929" transform="translate(238.546 459.503)">
      <path id="Trazado_114419" data-name="Trazado 114419" d="M460.06,77.2H412.079a6.248,6.248,0,0,0-6.247,6.247v21.687a6.248,6.248,0,0,0,6.247,6.247h12.438l-.683,7.976,8.2-8.2h27.4a6.242,6.242,0,0,0,6.245-6.085c.152-6.032.4-15.239.62-21.4A6.241,6.241,0,0,0,460.06,77.2Z" transform="translate(-405.832 -77.202)" fill="#26d19e"/>
      <g id="Grupo_90920" data-name="Grupo 90920" transform="translate(6.609 6.342)">
        <path id="Trazado_114420" data-name="Trazado 114420" d="M462.479,95.381,455.1,84.044l-7.778,11.205-.132.132h5.844v7.646h3.34V95.381Z" transform="translate(-415.465 -84.044)" fill="#fff"/>
        <path id="Trazado_114421" data-name="Trazado 114421" d="M421.865,91.049a4.212,4.212,0,0,0-2.67-3.908.687.687,0,0,0-.285-.048,1.413,1.413,0,0,0-.2.019,2.179,2.179,0,0,0-1.5-.4c-2.533,0-4.251,2.435-4.251,4.663,0,2.66,2.532,4.251,4.732,4.251A4.406,4.406,0,0,0,421.865,91.049Zm-4.3,2.434a2.173,2.173,0,0,1-2.346-2,2.36,2.36,0,0,1,2.209-2.61.946.946,0,0,1,.137.008,3.007,3.007,0,0,0,.373.02.624.624,0,0,0,.147-.01,2.388,2.388,0,0,1-.52,4.594Z" transform="translate(-412.962 -84.239)" fill="#fff"/>
        <path id="Trazado_114422" data-name="Trazado 114422" d="M431.829,95.127a.937.937,0,0,0-.284-.04,1.05,1.05,0,0,0-.186.02,2.122,2.122,0,0,0-1.512-.412c-2.533,0-4.261,2.435-4.261,4.653,0,2.769,2.523,4.27,4.752,4.27a4.4,4.4,0,0,0,4.162-4.574A4.227,4.227,0,0,0,431.829,95.127Zm-1.629,6.341a2.167,2.167,0,0,1-2.346-2,2.365,2.365,0,0,1,2.189-2.612,1.01,1.01,0,0,1,.157.009,2.767,2.767,0,0,0,.364.03.459.459,0,0,0,.166-.019,2.372,2.372,0,0,1,1.522,2.14A2.345,2.345,0,0,1,430.2,101.468Z" transform="translate(-413.885 -84.823)" fill="#fff"/>
        <path id="Trazado_114423" data-name="Trazado 114423" d="M427.415,88.326a3.153,3.153,0,0,0,.275-1.109,1.075,1.075,0,0,0-1.109-1.089c-.864,0-1.138.913-1.355,1.728v-.01c-5.055,13.2-5.134,13.331-5.213,13.439a1.218,1.218,0,0,0-.295.746,1.179,1.179,0,0,0,1.287,1.208c.745,0,.883-.52,1.02-1.031v.009Z" transform="translate(-413.456 -84.196)" fill="#fff"/>
      </g>
    </g>
  </g>
</svg>
