<svg xmlns="http://www.w3.org/2000/svg" width="295" height="573.024" viewBox="0 0 295 573.024">
  <g id="Grupo_94073" data-name="Grupo 94073" transform="translate(-1125 -12465)">
    <rect id="Rectángulo_34863" data-name="Rectángulo 34863" width="190" height="537" rx="41" transform="translate(1230 12492)" fill="#ccfff0"/>
    <g id="Grupo_94072" data-name="Grupo 94072" transform="translate(899.616 12433.89)">
      <g id="Grupo_94071" data-name="Grupo 94071" transform="translate(253.384 216.033)">
        <path id="Trazado_121239" data-name="Trazado 121239" d="M319.834,4352.521a4.144,4.144,0,0,1,.97,1.264,18.377,18.377,0,0,1,2.3,7.851,20.893,20.893,0,0,1-3.632,2.159,170.357,170.357,0,0,1-39.541,14.022,4.479,4.479,0,0,1-2.753.013,4.527,4.527,0,0,1-1.636-1.522c-.941-1.228-1.937-2.725-1.482-4.2.461-1.5,2.151-2.164,3.618-2.71,5.474-2.037,10.525-5.047,15.781-7.593,3.99-1.933,8.1-3.6,12.211-5.265l9.492-3.846C316.682,4352.075,318.552,4351.5,319.834,4352.521Z" transform="translate(-272.194 -3998.959)" fill="#d7e4e5"/>
        <path id="Trazado_121240" data-name="Trazado 121240" d="M2851.8,3622.636a6.663,6.663,0,0,1,2.427-.034c1.154.043,2.427-.239,3.382.411a3.64,3.64,0,0,1,1.06,1.338c2.64,4.88,2.975,10.633,3.252,16.175a102.092,102.092,0,0,1,.005,15.219,34.162,34.162,0,0,1-4.438,14.44,10.258,10.258,0,0,1-4.233,4.231,4.759,4.759,0,0,1-5.565-.955,6.93,6.93,0,0,1-1.155-3.977c-.175-2.572-.192-5.15-.21-7.728-.067-9.832-.129-19.726,1.549-29.413a35.667,35.667,0,0,1,1.91-7.266A3.89,3.89,0,0,1,2851.8,3622.636Z" transform="translate(-2624.996 -3331.756)" fill="#d7e4e5"/>
        <path id="Trazado_121241" data-name="Trazado 121241" d="M2472.149,2203.768c2.2-3.189,6.145-1.859,8.948-.313a33.717,33.717,0,0,1,9.115,7.668c3.115,3.645,5.586,7.782,8.244,11.756.414.618-.583,1.193-.993.58-3.022-4.518-5.817-9.231-9.57-13.2a27.484,27.484,0,0,0-9.309-6.742c-1.51-.6-3.441-1.014-4.809.123-1.683,1.4-2.08,3.989-2.13,6.034a31.194,31.194,0,0,0,.844,6.9,71.7,71.7,0,0,0,1.727,7.257c.8,2.544,1.754,5.036,2.46,7.609a.575.575,0,0,1-1.108.306c-.767-2.8-1.815-5.5-2.666-8.274a72.842,72.842,0,0,1-1.625-7.11C2470.466,2212.315,2469.639,2207.4,2472.149,2203.768Z" transform="translate(-2281.239 -2032.328)" fill="#19161d"/>
        <g id="Grupo_94064" data-name="Grupo 94064" transform="translate(179.958 184.16)">
          <path id="Trazado_121242" data-name="Trazado 121242" d="M2834.352,2452.347l16.074-10.816-44.575-67.8-3.878,1.427Z" transform="translate(-2764.407 -2373.727)" fill="#e96f9e"/>
          <path id="Trazado_121243" data-name="Trazado 121243" d="M2876.91,2448.927l4.75-10.853,10.329,3.457-39.115-67.645-5.459-.159,31.716,62.139Z" transform="translate(-2805.97 -2373.727)" fill="#e13e7d"/>
          <path id="Trazado_121244" data-name="Trazado 121244" d="M2361.844,2404.271l37.565-13.823,32.379,77.193-43.918,11.591Z" transform="translate(-2361.844 -2389.021)" fill="#e5578e"/>
          <path id="Trazado_121245" data-name="Trazado 121245" d="M2670.754,2486.786a2.838,2.838,0,0,0,3.479,1.714,2.549,2.549,0,0,0,1.3-3.473,2.837,2.837,0,0,0-3.479-1.716A2.549,2.549,0,0,0,2670.754,2486.786Z" transform="translate(-2644.172 -2473.824)" fill="#e13e7d"/>
          <path id="Trazado_121246" data-name="Trazado 121246" d="M2474.833,2559.165a2.838,2.838,0,0,0,3.479,1.714,2.549,2.549,0,0,0,1.3-3.473,2.838,2.838,0,0,0-3.479-1.715A2.549,2.549,0,0,0,2474.833,2559.165Z" transform="translate(-2464.972 -2540.026)" fill="#e13e7d"/>
        </g>
        <g id="Grupo_94065" data-name="Grupo 94065" transform="translate(179.958 184.16)">
          <path id="Trazado_121247" data-name="Trazado 121247" d="M2834.352,2452.347l16.074-10.816-44.575-67.8-3.878,1.427Z" transform="translate(-2764.407 -2373.727)" fill="#ffe268"/>
          <path id="Trazado_121248" data-name="Trazado 121248" d="M2876.91,2448.927l4.75-10.853,10.329,3.457-39.115-67.645-5.459-.159,31.716,62.139Z" transform="translate(-2805.97 -2373.727)" fill="#ffd41c"/>
          <path id="Trazado_121249" data-name="Trazado 121249" d="M2361.844,2404.271l37.565-13.823,32.379,77.193-19.594,5.17c-3.971,1.048-7.684,2.9-11.668,3.9-4.191,1.054-8.427,1.407-12.657,2.523Z" transform="translate(-2361.844 -2389.021)" fill="#ffd41c"/>
          <path id="Trazado_121250" data-name="Trazado 121250" d="M2670.754,2486.786a2.838,2.838,0,0,0,3.479,1.714,2.549,2.549,0,0,0,1.3-3.473,2.837,2.837,0,0,0-3.479-1.716A2.549,2.549,0,0,0,2670.754,2486.786Z" transform="translate(-2644.172 -2473.824)" fill="#fff8d9"/>
          <path id="Trazado_121251" data-name="Trazado 121251" d="M2474.833,2559.165a2.838,2.838,0,0,0,3.479,1.714,2.549,2.549,0,0,0,1.3-3.473,2.838,2.838,0,0,0-3.479-1.715A2.549,2.549,0,0,0,2474.833,2559.165Z" transform="translate(-2464.972 -2540.026)" fill="#fff8d9"/>
        </g>
        <path id="Trazado_121252" data-name="Trazado 121252" d="M2420.759,2228.62c.064-2.257.469-4.77,1.943-6.567,2.548-3.105,7.021-1.347,9.858.342,3.73,2.22,6.427,5.772,8.578,9.475a35.307,35.307,0,0,1,4.636,13.483c.086.735-1.064.727-1.149,0a34.936,34.936,0,0,0-5.448-14.494c-2.344-3.677-5.358-6.922-9.448-8.623-1.683-.7-3.757-1.183-5.4-.151-2.084,1.307-2.366,4.639-2.427,6.827a47.647,47.647,0,0,0,2.688,17.1c.773,2.173,1.9,4.117,2.847,6.2.3.669-.686,1.254-.992.58-.536-1.177-1.215-2.284-1.75-3.466-.588-1.3-1.1-2.637-1.553-3.99a43.347,43.347,0,0,1-1.848-8.162A53.711,53.711,0,0,1,2420.759,2228.62Z" transform="translate(-2235.758 -2049.276)" fill="#19161d"/>
        <path id="Trazado_121253" data-name="Trazado 121253" d="M400.663,1367.237a14.061,14.061,0,0,1,3.15,3.083,3.242,3.242,0,0,1-.029,4.054c-1.657,1.636-3.612.234-5.314-.3-2.156-.675-4.244-.9-6.378-1.858q-1.781-.8-3.561-1.6a10.877,10.877,0,0,1-3.3-1.682,1.249,1.249,0,0,1,.235-2.058c1.019-.41,2.784-.176,3.874-.168-1.118-2.074-3.453-3.279-4.316-5.52-.871-2.264,1.258-3.832,3.371-2.616a6.043,6.043,0,0,1,1.265.97c.665.667,1.171,1.485,1.88,2.1a9.334,9.334,0,0,0,1.337.918C395.219,1363.983,398.205,1365.415,400.663,1367.237Z" transform="translate(-373.583 -1260.669)" fill="#f69c85"/>
        <path id="Trazado_121254" data-name="Trazado 121254" d="M300.575,1298.49a12.253,12.253,0,0,0-1.35-3.4c-.585-1.059-1.458-2.052-1.533-3.314a4.313,4.313,0,0,1,.529-1.839,8.6,8.6,0,0,0,.575-2.123,1.781,1.781,0,0,0-.263-1.442,1.337,1.337,0,0,0-1.573-.173c-1.5.766-1.87,3.727-2.415,5.2a4.539,4.539,0,0,0-.283.99c-.186,1.456,1.166,2.88,1.924,3.985a11.425,11.425,0,0,0,2.453,2.656,2.938,2.938,0,0,0,1.628.74.469.469,0,0,0,.291-.065.54.54,0,0,0,.13-.514Q300.647,1298.836,300.575,1298.49Z" transform="translate(-290.757 -1194.701)" fill="#f69c85"/>
        <path id="Trazado_121255" data-name="Trazado 121255" d="M333.491,1327.666a12.254,12.254,0,0,0-1.35-3.4c-.585-1.059-1.458-2.052-1.533-3.313a4.314,4.314,0,0,1,.529-1.839,8.6,8.6,0,0,0,.575-2.123,1.78,1.78,0,0,0-.263-1.441,1.337,1.337,0,0,0-1.573-.174c-1.5.767-1.87,3.727-2.415,5.2a4.544,4.544,0,0,0-.283.99c-.186,1.456,1.166,2.88,1.924,3.985a11.426,11.426,0,0,0,2.453,2.656,2.941,2.941,0,0,0,1.628.74.47.47,0,0,0,.291-.066.54.54,0,0,0,.13-.514Q333.563,1328.011,333.491,1327.666Z" transform="translate(-320.864 -1221.387)" fill="#f69c85"/>
        <path id="Trazado_121256" data-name="Trazado 121256" d="M643.686,1766.242a39.15,39.15,0,0,0,1.381-4.776c.474-1.682,1.2-3.316,1.832-4.943a54.042,54.042,0,0,1,4.795-9.721,76.281,76.281,0,0,1,5.866-7.676c1.648-1.962,3.7-4.366,6.391-4.754.725-.1,1.037,1,.305,1.108-2.662.385-4.6,2.923-6.217,4.856a71.007,71.007,0,0,0-5.917,7.935,55.932,55.932,0,0,0-4.509,9.572A45.971,45.971,0,0,0,646,1762.4a32.994,32.994,0,0,1-1.324,4.424C644.389,1767.5,643.4,1766.916,643.686,1766.242Z" transform="translate(-610.327 -1604.775)" fill="#19161d"/>
        <path id="Trazado_121257" data-name="Trazado 121257" d="M511.31,3342.648c-3.129.194-6.1-1.239-8.91-2.635-.6-1.534.212-3.216.9-4.711,3.969-8.576,4.405-18.313,4.569-27.762q.222-12.807-.061-25.617c-.093-4.227-.221-8.521.842-12.613a35.914,35.914,0,0,1,3.747-8.577,28.718,28.718,0,0,1,6.409-8.3c2.72-2.228,6.335-3.591,9.785-2.913a11.905,11.905,0,0,1,7.943,6.538,24.678,24.678,0,0,1,2.216,10.332c.529,15.424-5.447,30.206-9.636,45.06a199.6,199.6,0,0,0-5.757,27.911C519.173,3339.256,515.493,3342.389,511.31,3342.648Z" transform="translate(-480.956 -2990.45)" fill="#f6bbab"/>
        <path id="Trazado_121258" data-name="Trazado 121258" d="M580.309,3251.114q.252-.148.511-.284l.071-.039c.161-.084.323-.164.486-.242l.109-.052.156-.07.146-.066c.075-.033.15-.064.225-.095l.08-.034c.082-.033.164-.065.247-.1l.061-.024.112-.041c.17-.062.34-.122.512-.177l.172-.052.144-.043.157-.043c.053-.015.107-.03.16-.044l.151-.037.168-.041c.163-.038.327-.07.491-.1.05-.01.1-.02.151-.028.081-.014.163-.026.244-.038l.078-.012c.069-.01.139-.018.208-.026l.116-.014.128-.012.2-.018c.046,0,.092-.006.138-.009.062,0,.124-.009.187-.011l.2-.006.13,0c.043,0,.087,0,.13,0,.065,0,.131,0,.2,0l.131,0,.194.007c.066,0,.132.009.2.014l.128.009.155.016c.057.006.114.011.171.018l.139.02c.062.009.124.016.186.026l.141.025c.061.011.122.021.183.033h0a11.909,11.909,0,0,1,7.938,6.537,24.679,24.679,0,0,1,2.216,10.332c.378,11.024-2.567,21.719-5.807,32.348-8.473,1.063-17.023,2.423-25.022,5.02q.126-10.916-.114-21.833c-.093-4.228-.221-8.521.842-12.614a30.021,30.021,0,0,1,2.339-5.963c.45-.874.917-1.746,1.409-2.613a28.711,28.711,0,0,1,6.41-8.3c.384-.314.786-.61,1.2-.887Q579.953,3251.324,580.309,3251.114Z" transform="translate(-540.551 -2990.457)" fill="#e89179"/>
        <path id="Trazado_121259" data-name="Trazado 121259" d="M303.352,4238.748a18.522,18.522,0,0,0,5.572-2.343c.55-.321,4.12-2.439,3.769-3.232a131.432,131.432,0,0,1,4.862,12.538,1.623,1.623,0,0,1-.806,2.367c-13.249,8.471-28.842,16.727-44.771,18.231a1.222,1.222,0,0,1-.767-.1,1.147,1.147,0,0,1-.385-.507c-3.089-6.471,3.783-9.085,7.183-13.052,2.259-2.635,4.718-5.176,6.871-7.936.571-.732,6.12-9.13,6.024-9.167l5.65,2.142a15.445,15.445,0,0,0,4.631,1.225A8.912,8.912,0,0,0,303.352,4238.748Z" transform="translate(-268.626 -3890.308)" fill="#09585d"/>
        <path id="Trazado_121260" data-name="Trazado 121260" d="M2757.394,3611.759a113.635,113.635,0,0,1,2.786,37.78c-.43,4.552-1.219,9.284-3.95,12.95a5.011,5.011,0,0,1-3.427,2.308c-2.473.16-4.034-2.548-4.924-4.861a162.758,162.758,0,0,1-7.714-26.644c3.606-.171,7.688-1.1,9.437-4.254,1.551-2.8.647-6.325-.762-9.2s-3.317-5.611-3.781-8.78Z" transform="translate(-2527.916 -3321.289)" fill="#09585d"/>
        <path id="Trazado_121261" data-name="Trazado 121261" d="M1964.807,3212.2c-1.221-5.039.747-11.834,5.624-13.955,6.126-2.663,14.01-.55,19.722,2.044,15.875,7.209,29.674,18.267,42.7,29.853,3.351,2.98,6.8,6.208,8.157,10.48,1.033,3.248.738,6.749.432,10.144-.242,2.687-1.214,6.125-3.908,6.26a5.665,5.665,0,0,1-2.8-.872c-20.558-10.665-41.683-20.2-60.772-33.479-3.308-2.3-6.689-4.826-8.443-8.454A10.129,10.129,0,0,1,1964.807,3212.2Z" transform="translate(-1818.413 -2942.584)" fill="#ffcabd"/>
        <path id="Trazado_121262" data-name="Trazado 121262" d="M1972.34,3197.6a19.069,19.069,0,0,1,7.026-.426c5.122.971,9.775,4.235,14.9,5.108,11.088,5.611,21.175,13.038,30.736,21.071a120.613,120.613,0,0,1-11.36,21.65c-.08.117-.163.233-.244.349-13.53-6.861-26.919-13.958-39.433-22.66-3.308-2.3-6.689-4.827-8.443-8.454a10.146,10.146,0,0,1-.714-2.021,14.162,14.162,0,0,1,1.757-10.556A13.449,13.449,0,0,1,1972.34,3197.6Z" transform="translate(-1818.418 -2942.605)" fill="#e89179"/>
        <path id="Trazado_121263" data-name="Trazado 121263" d="M560.476,1857.769a513.091,513.091,0,0,1,29.2,81.311,19.919,19.919,0,0,0,2.126,5.648,19.531,19.531,0,0,0,3.758,4l39.676,34.987a233.2,233.2,0,0,1-27.735,40.36l-23.6-22.042c-5.8-5.413-11.63-10.867-16.315-17.266a114.531,114.531,0,0,1-10.275-18.089c-7.887-16.328-15.009-33.011-22.129-49.688-4.335,7.972-9.947,15.031-14.564,22.781-2.484,4.17-6.344,7.538-9.679,11.008-5.1,5.31-10.565,10.171-15.151,15.882a6.881,6.881,0,0,0-1.97,4.649c-1.194,10.495-2.643,21-3.284,31.532q-.358,5.883-.529,11.776a1.965,1.965,0,0,1-2.614,2.367c-3.553-.436-42.092-4.985-42.005-5.562q2.374-15.752,5.78-31.324c2.093-9.568,3.844-19.776,7.914-28.74,2.776-6.113,6.849-11.531,10.889-16.894l30.361-40.3a31.857,31.857,0,0,0,4.385-7.014,29.383,29.383,0,0,0,1.485-5.651,191.456,191.456,0,0,0,2.871-22.8l46.991-7.52" transform="translate(-428.989 -1711.62)" fill="#16bcc8"/>
        <path id="Trazado_121264" data-name="Trazado 121264" d="M924.025,401.155c-1.52-.219-3.058-.387-4.559-.667a18.893,18.893,0,0,1-9.261-4.19c-3.31-2.977-3.685-6.62-4.245-10.737-.534-3.925.087-8.3,2.822-11.332,2.347-2.6,5.842-3.83,9.246-4.666,4.966-1.221,10.2-1.823,15.185-.684a18.136,18.136,0,0,1,10.26,6.229,13.864,13.864,0,0,1,2.345,5.333c.621,2.219,2.15,3.978,2.494,6.349a18.537,18.537,0,0,1,.026,3.8c-.3,4.928-.706,10.141-3.563,14.168a7,7,0,0,1-3.354,2.751c-1.976.65-4.156-.078-5.935-1.158s-3.339-2.509-5.189-3.461A19.6,19.6,0,0,0,924.025,401.155Z" transform="translate(-850.102 -355.278)" fill="#f37cb2"/>
        <path id="Trazado_121265" data-name="Trazado 121265" d="M966.355,2596.02c2.73-4.081,6.66-7.279,9.936-10.906,3.583-3.967,6.76-8.234,10.065-12.426,6.372-8.08,13.386-15.691,18.692-24.556a.575.575,0,0,1,.992.58c-5.236,8.749-12.12,16.31-18.448,24.255-3.318,4.166-6.469,8.435-10.008,12.423-1.658,1.868-3.393,3.657-5.161,5.422a39.215,39.215,0,0,0-5.076,5.788C966.938,2597.213,965.942,2596.638,966.355,2596.02Z" transform="translate(-905.413 -2348.835)" fill="#19161d"/>
        <path id="Trazado_121266" data-name="Trazado 121266" d="M297.254,1384.337c1.413,1.92,2.643,3.926,4.088,5.847,2.287,3.038,4.907,5.815,7.1,8.927,2.12,3.01,4.77,5.665,7.151,8.513a57.748,57.748,0,0,0,8.2,7.393c3.742,3.026,7.3,5.952,12.223,6.76a3.426,3.426,0,0,0,1.488,0c1.122-.319,1.693-1.545,2.037-2.66a23.834,23.834,0,0,0-.416-15.049,13.2,13.2,0,0,0-1.6-3.447,14.84,14.84,0,0,0-1.782-1.6,33.192,33.192,0,0,0-6.143-4.6c-3.824-2.231-7.035-5.906-10.559-8.636a66.261,66.261,0,0,1-8.771-7.426c-1.458-1.458-2.525-3.242-3.9-4.769a10.888,10.888,0,0,1-1.505-1.72,4.409,4.409,0,0,0-1.843-1.871c-2.061-.937-4.068.37-5.992,1.11a2.084,2.084,0,0,1-.762.187,2.4,2.4,0,0,1-.868-.257c-2.127-.887-4.512-.8-6.816-.881a2.231,2.231,0,0,1-.939-.175,2.284,2.284,0,0,1-.587-.49c-1.326-1.388-2.6-2.856-3.994-4.179a12.034,12.034,0,0,1-1.425-1.287c-.466-.627-.5-1.517-.952-2.166a3.731,3.731,0,0,0-1.441-1.322,1.864,1.864,0,0,0-1.879.126,2.147,2.147,0,0,0-.721,1.5,9.345,9.345,0,0,0,1.8,5.919l3.335,4.635a20.972,20.972,0,0,0,1.371,1.769,13.644,13.644,0,0,0,1.611,1.967,12.436,12.436,0,0,0,2.333,1.357,36.91,36.91,0,0,0,5.44,2.279c1.745.521,2.8,1.8,3.914,3.2Q296.865,1383.806,297.254,1384.337Z" transform="translate(-274.63 -1262.676)" fill="#f6bbab"/>
        <path id="Trazado_121267" data-name="Trazado 121267" d="M903.248,1111.906q-.241,11.768-.481,23.537a9.954,9.954,0,0,1-5.382-1.495c.541.337.182,5.719.207,6.529.2,6.2.75,11.918-.161,18.149a2.4,2.4,0,0,0,.03,1.225c.395,1.006,4.474,2.953,5.5,3.585a27.525,27.525,0,0,0,8.787,3.5,2.387,2.387,0,0,0,3.186-1.415c2.175-3.852,3.327-8.184,4.369-12.483q1.719-7.094,3.116-14.26c.784-4.027,2.077-7.575,2.328-11.754.546-9.117-1.091-18.274-3.562-27.019a89.231,89.231,0,0,0-4.217-12.356,42.7,42.7,0,0,0-2.29-4.845,24.808,24.808,0,0,1-2.514-5.648c-.089-.3-.271-.661-.577-.62a.655.655,0,0,0-.341.21,27.734,27.734,0,0,0-3.2,3.413,21.13,21.13,0,0,0-2.49,5.326,30.27,30.27,0,0,0-1.612,6.514,63.749,63.749,0,0,0-.44,7.416Q903.376,1105.661,903.248,1111.906Z" transform="translate(-842.402 -1003.089)" fill="#09585d"/>
        <path id="Trazado_121268" data-name="Trazado 121268" d="M991.2,955.813a14.947,14.947,0,0,1,.47-6.483,12.752,12.752,0,0,1,5.614-6.426,37.939,37.939,0,0,1,8.021-3.33c13.187-4.324,26.985-8.705,40.7-6.562,4.059.634,8.472,2.2,10.27,5.89,1.308,2.686.9,5.847.584,8.817-1.585,14.69.394,28.621,3.038,43.032.681,3.712,7.52,43.161,8.683,43.091l-17.364,1.047c-15.209.917-30.67,1.885-44.976,7.129l-8.456-35.565c-1.243-5.226-2.343-10.474-3.4-15.755a18.827,18.827,0,0,0-.9-3.372,35.059,35.059,0,0,0-3.3-5.318c-1.893-3-1.812-6.457-.734-9.734.457-1.39,1.35-2.454,1.721-3.862a22.711,22.711,0,0,0,.675-6.124C991.8,960.143,991.413,957.964,991.2,955.813Z" transform="translate(-925.931 -871.304)" fill="#09585d"/>
        <path id="Trazado_121269" data-name="Trazado 121269" d="M1145.016,635.349a6.451,6.451,0,0,1,5.181-.038c2.116.995,3.341,3.2,4.427,5.273,2.164,4.127,3.748,8.519,5.561,12.8,1.621,3.832,3.436,8.065,6.368,11.09a4.525,4.525,0,0,1-.9,1.039c-2.665,2.514-4.908,5.411-7.407,8.075a103.517,103.517,0,0,0-11.922,15.072,3.137,3.137,0,0,1-1.16,1.237c-.377-1.428-.424-2.888-.847-4.3-.33-1.1-.757-2.2-1.008-3.32-.658-2.95-1.3-5.906-1.975-8.851-.444-1.924-.284-1.758.553-3.147.506-.84.945-.788,1.118-1.895.372-2.382-1.428-5.808-2.307-7.946-2.714-6.6-4.27-13.321-.666-20.1a11.246,11.246,0,0,1,4.154-4.585A7.448,7.448,0,0,1,1145.016,635.349Z" transform="translate(-1062.426 -599.045)" fill="#f6bbab"/>
        <path id="Trazado_121270" data-name="Trazado 121270" d="M2320.978,2023.413a2.751,2.751,0,0,0-.5-.19,5.088,5.088,0,0,0-5.819,1.859c-2.476,3.437-2.472,7.437-2.039,11.45a23.636,23.636,0,0,1-.388,7.457c-.23,1.077-.645,2.1-.811,3.186-.105.692-.757,1.883-.195,2.5a3.132,3.132,0,0,0,1.846,1.063c.861.043,1.518-.736,1.974-1.467a19.078,19.078,0,0,0,2.5-6.313c.444-2.2.251-4.425.8-6.629a13.7,13.7,0,0,1,.656-1.862c.838-2.055,2.2-4.345,2.632-6.519.21-1.051.45-3.643-.436-4.383A1.273,1.273,0,0,0,2320.978,2023.413Z" transform="translate(-2135.382 -1868.74)" fill="#f6bbab"/>
        <path id="Trazado_121271" data-name="Trazado 121271" d="M2181.933,1369.461c7.948,2.1,9.912,11.2,11.769,17.956a115.717,115.717,0,0,1,2.878,15.673c.652,4.969,1.226,9.955,2.193,14.875.477,2.427,1.152,4.781,1.758,7.174a3.038,3.038,0,0,0,.964,1.876,9.272,9.272,0,0,1,2.063,2.39,11,11,0,0,1,.685,1.727c.426,1.278,1.059,2.289,1.589,3.51,1.8,4.139,4.133,7.634,3.5,12.243-.178,1.291-.594,2.718-1.742,3.334-1.007.54-2.306.291-3.3.862-.48.277-.843.724-1.319,1.007-1.1.656-2.522.3-3.768.606-1.062.262-2.007,1.011-3.1,1a4.114,4.114,0,0,0-1.747.018c-.329.151-.563.457-.877.637a1.822,1.822,0,0,1-2.227-.642c-1.54-2.009-1.7-4.025-2.3-6.359a52.712,52.712,0,0,1-1.468-6.255c-.641-4.745-.8-9.573-1.98-14.232a65.69,65.69,0,0,0-2.4-7.128l-9.684-25.492c-1.259-3.314-3.232-5.869-3.906-9.4-.706-3.7-.806-7.756,1.284-11.059a10.258,10.258,0,0,1,9.423-4.625A10.642,10.642,0,0,1,2181.933,1369.461Z" transform="translate(-2005.551 -1270.699)" fill="#f6bbab"/>
        <path id="Trazado_121272" data-name="Trazado 121272" d="M1139.507,667.926q1.021-.836,2.106-1.571c3.45-2.336,9.661-4.647,12.228.328a10.03,10.03,0,0,1,.547,6.227c-.884,5.341-3.336,11.375-7.472,15.02a13.588,13.588,0,0,1-4.8,2.716c-.408-1.274-.9-2.528-1.4-3.731C1138.149,680.676,1136.621,674.326,1139.507,667.926Z" transform="translate(-1062.446 -625.518)" fill="#f2896b"/>
        <path id="Trazado_121273" data-name="Trazado 121273" d="M986.664,401.947a23.74,23.74,0,0,1-2.467,10.092c-2.518,5.038-7.4,9.034-12.993,9.708-6.275.756-11.124-3.673-13.861-8.891-2.911-5.55-3.636-12.1-3.837-18.275-.183-5.63-.777-11.878,4.683-15.333,6.6-4.177,11.4-2.839,17.678,1.367A25.134,25.134,0,0,1,986.664,401.947Z" transform="translate(-893.646 -362.994)" fill="#f6bbab"/>
        <path id="Trazado_121274" data-name="Trazado 121274" d="M944.932,363.392c-.481-1.152-.873-2.346-1.239-3.539A3.215,3.215,0,0,0,942.63,358c-.779,1.91.2,4.592-2.055,5.821a5.5,5.5,0,0,1-2.512.443,43.96,43.96,0,0,0-14.7,2.964,3.011,3.011,0,0,1-1.826.309,2.289,2.289,0,0,1-1.347-1.332c-.672-1.43-.464-3.031-.569-4.562a6.411,6.411,0,0,1,1.347-4.743c1.656-2.063,3.434-4.574,5.565-6.169a15.3,15.3,0,0,1,9.83-2.561,13.871,13.871,0,0,1,6.134,1.481c2.576,1.415,4.327,3.921,6.854,5.394,2.571,1.5,4.085,2.4,5.7,5.132a21.708,21.708,0,0,1,2.784,8.511,23.677,23.677,0,0,1,.1,4.365c-.043.62-.88,3.558-.616,3.942-.779-1.039-1.358-2.367-2.4-3.134s-2.138-1.443-3.171-2.218a21.558,21.558,0,0,1-5.354-5.43A18.073,18.073,0,0,1,944.932,363.392Z" transform="translate(-862.74 -336.877)" fill="#f37cb2"/>
        <path id="Trazado_121275" data-name="Trazado 121275" d="M1285.543,240.41c-2.737-1.333-6.358-3.6-6.266-6.983.09-3.322,2.352-6.43,4.908-8.373,3.376-2.568,7.525-3.865,11.269-5.858a34.248,34.248,0,0,1,5.082-2.531c5.824-1.948,11.559,1.16,17.284,1.877a37.363,37.363,0,0,0,12.274-.5c1.24-.26,2.6-.567,3.716.037a5.077,5.077,0,0,1,1.747,2.006c1.594,2.666,3.229,5.459,3.46,8.556a20.117,20.117,0,0,1-.648,5.631,25.289,25.289,0,0,1-2.013,6.522,8.525,8.525,0,0,1-4.966,4.437c-2.557.725-5.254-.21-7.775-1.052-.809-.27-1.828-.485-2.41.138a2.75,2.75,0,0,0-.43.757c-1.383,2.992-4.94,4.506-8.233,4.374s-6.375-1.6-9.254-3.209a21.869,21.869,0,0,0-3.847-1.867,26.469,26.469,0,0,0-3.871-.765A36.478,36.478,0,0,1,1285.543,240.41Z" transform="translate(-1191.715 -216.033)" fill="#f37cb2"/>
        <path id="Trazado_121276" data-name="Trazado 121276" d="M1268.115,526.719a4.963,4.963,0,0,1,3.845,2.053c2.225,3.208,1.376,10.8-2.509,12.475-3.815,1.642-6.142-.859-6.958-4.491-.843-3.753-.18-8.519,4.082-9.84A4.588,4.588,0,0,1,1268.115,526.719Z" transform="translate(-1176.075 -500.199)" fill="#f6bbab"/>
        <path id="Trazado_121277" data-name="Trazado 121277" d="M1613.1,959.619q1.975,1.419,3.948,2.841c3.584,2.579,7.441,5.07,10.033,8.727q.241.34.465.692c2.521,3.958,3.76,8.6,4.925,13.1a62.754,62.754,0,0,0-24.228,8.572l-4.447-9.377a6.83,6.83,0,0,0-1.262-2.014,6.3,6.3,0,0,0-2.1-1.222c-2.853-1.163-5.829-2-8.714-3.08a80.748,80.748,0,0,1-14.319-7.366,51.882,51.882,0,0,0-6.33-3.781,47.19,47.19,0,0,1-7.138-4.283c-3.038-2.06-6.005-4.433-7.772-7.65a19.157,19.157,0,0,1-2.193-10.234,22.81,22.81,0,0,1,1.079-6.808,12.4,12.4,0,0,1,3.643-5.2c1.554-1.414,3.52-1.448,5.562-1.161,5.244.737,10.041,3.29,14.62,5.95q13.057,7.585,25.513,16.148C1607.32,955.481,1610.216,957.544,1613.1,959.619Z" transform="translate(-1442.948 -870.187)" fill="#09585d"/>
        <path id="Trazado_121278" data-name="Trazado 121278" d="M1273.27,546.1a4.824,4.824,0,0,1,.341-2.83,4.671,4.671,0,0,1,1.418-1.537c1.214-.931,2.432-1.656,3.951-.85a5.093,5.093,0,0,1,2.654,4.105,7.941,7.941,0,0,1-.04,2.473,4.556,4.556,0,0,1-2.992,3.392C1275.864,551.706,1273.678,548.855,1273.27,546.1Z" transform="translate(-1186.159 -512.839)" fill="#f2896b"/>
        <path id="Trazado_121279" data-name="Trazado 121279" d="M1121.019,605.67a1,1,0,0,1,.789-.347,1.2,1.2,0,0,1,.827.481,2.872,2.872,0,0,1,.6,1.932c-.028.629-.487,1.2-1.161.975-.943-.146-1.576-1.681-1.351-2.509A1.288,1.288,0,0,1,1121.019,605.67Z" transform="translate(-1046.652 -572.095)" fill="#19161d"/>
        <path id="Trazado_121280" data-name="Trazado 121280" d="M990.281,639.328a.957.957,0,0,1,.943.3c.533.567.674,2.21-.054,2.672a.72.72,0,0,1-.929.156,2.2,2.2,0,0,1-.906-2.1A1.279,1.279,0,0,1,990.281,639.328Z" transform="translate(-926.503 -603.175)" fill="#19161d"/>
        <path id="Trazado_121281" data-name="Trazado 121281" d="M1089.953,547.137a2.01,2.01,0,0,1,.015-.323,1.77,1.77,0,0,1,1.178-1.336,4,4,0,0,1,1.848-.137c.794.088,2.251.331,2.679,1.132.451.843-.678,1.52-1.326,1.755a6.261,6.261,0,0,1-3.184.668A1.771,1.771,0,0,1,1089.953,547.137Z" transform="translate(-1018.551 -517.194)" fill="#19161d"/>
        <path id="Trazado_121282" data-name="Trazado 121282" d="M956.461,579.914a2.451,2.451,0,0,1,.231-.731,2.318,2.318,0,0,1,.523-.633,4.313,4.313,0,0,1,3.343-1.05,1.5,1.5,0,0,1,.554.154c.745.414,1.134,2.022.218,2.461a8.607,8.607,0,0,1-1.651.358c-.464.1-.947.137-1.407.246-.307.073-.543.267-.832.352C956.682,581.291,956.357,580.59,956.461,579.914Z" transform="translate(-896.436 -546.621)" fill="#19161d"/>
        <path id="Trazado_121283" data-name="Trazado 121283" d="M1273.8,542.174a7.073,7.073,0,0,1,3.541-2.842c.445-.206.835.455.387.662a7.094,7.094,0,0,0-3.106,2.308,5.019,5.019,0,0,0-.718,3.309,5.2,5.2,0,0,1,2.1-1.746c.437-.23.824.431.387.662a4.259,4.259,0,0,0-1.97,1.714.341.341,0,0,1-.471.15c-.1.331-.706.277-.753-.151A6.636,6.636,0,0,1,1273.8,542.174Z" transform="translate(-1186.085 -511.703)" fill="#19161d"/>
        <path id="Trazado_121284" data-name="Trazado 121284" d="M1115.82,546.94a15.415,15.415,0,0,0,1.455,1.217c.417.263.033.926-.387.661a16.892,16.892,0,0,1-1.61-1.337C1114.9,547.169,1115.441,546.63,1115.82,546.94Z" transform="translate(-1041.596 -518.612)" fill="#09585d"/>
        <path id="Trazado_121285" data-name="Trazado 121285" d="M1094.852,553.7c.516.411,1.124.688,1.647,1.089.386.3.005.963-.387.662-.575-.442-1.233-.757-1.8-1.209C1093.924,553.936,1094.47,553.4,1094.852,553.7Z" transform="translate(-1022.416 -524.799)" fill="#09585d"/>
        <path id="Trazado_121286" data-name="Trazado 121286" d="M985.728,584.147c.5.256.953.6,1.469.83.45.2.06.862-.387.662-.515-.231-.967-.574-1.469-.83C984.9,584.583,985.289,583.922,985.728,584.147Z" transform="translate(-922.691 -552.686)" fill="#09585d"/>
        <path id="Trazado_121287" data-name="Trazado 121287" d="M965.442,593.25a15.893,15.893,0,0,0,1.7.6.383.383,0,0,1-.2.739,17.59,17.59,0,0,1-1.879-.677C964.6,593.72,964.993,593.06,965.442,593.25Z" transform="translate(-904.129 -561.023)" fill="#09585d"/>
        <path id="Trazado_121288" data-name="Trazado 121288" d="M1174.8,655.032a3.765,3.765,0,0,1-1.037,2.006,2.258,2.258,0,0,1-2.114.583,2.414,2.414,0,0,1-1.563-2.1,4.505,4.505,0,0,1,.386-2.018,4.219,4.219,0,0,1,1.355-1.979,1.934,1.934,0,0,1,2.264-.075C1175.029,652.195,1175.022,653.976,1174.8,655.032Z" transform="translate(-1091.835 -613.978)" fill="#f4886c"/>
        <path id="Trazado_121289" data-name="Trazado 121289" d="M1062.946,644.74a1.205,1.205,0,0,1,.7.417,3.155,3.155,0,0,1,.5.968,29.429,29.429,0,0,1,1.929,5.779,1.546,1.546,0,0,1-.064.932,1.61,1.61,0,0,1-1.3.662,1.592,1.592,0,0,0-.265.052,2.462,2.462,0,0,0-.557.336c-1.115.725-2.51.271-2.107-1.159a12.7,12.7,0,0,0,.417-4.643c-.069-.724-.661-3.164.479-3.346A.829.829,0,0,1,1062.946,644.74Z" transform="translate(-992.727 -608.14)" fill="#f4886c"/>
        <path id="Trazado_121290" data-name="Trazado 121290" d="M1057.769,649.07a20.709,20.709,0,0,0,.337-2.6c.026-.945-.25-1.878-.255-2.825a.383.383,0,0,1,.766,0,31.823,31.823,0,0,1,.183,3.854c-.113,1-.3,2.017-.478,3.011a3.987,3.987,0,0,0-.093,1.27c.1.707.846.473,1.29.341a14.173,14.173,0,0,0,2.161-.953c.442-.217.83.444.387.662-.986.484-3.988,2.291-4.526.338A7.708,7.708,0,0,1,1057.769,649.07Z" transform="translate(-988.813 -606.805)" fill="#19161d"/>
        <path id="Trazado_121291" data-name="Trazado 121291" d="M1133.746,387.157c.3-.39.842.157.542.542-1.893,2.433-2.306,5.544-2.122,8.54.03.494-.736.491-.766,0A13.137,13.137,0,0,1,1133.746,387.157Z" transform="translate(-1056.425 -372.429)" fill="#19161d"/>
        <path id="Trazado_121292" data-name="Trazado 121292" d="M1069.657,374.909c.382-.3.928.234.542.542-2.952,2.35-3.82,6.34-3.655,9.945.023.494-.744.492-.766,0C1065.6,381.61,1066.56,377.374,1069.657,374.909Z" transform="translate(-996.422 -361.266)" fill="#19161d"/>
        <path id="Trazado_121293" data-name="Trazado 121293" d="M1002.772,380.516a10.258,10.258,0,0,1,2.84-4.352.383.383,0,0,1,.542.542,9.925,9.925,0,0,0-2.643,4.014,14.611,14.611,0,0,0-.565,6.059c.056.491-.711.485-.766,0A16.123,16.123,0,0,1,1002.772,380.516Z" transform="translate(-938.186 -362.393)" fill="#19161d"/>
        <path id="Trazado_121294" data-name="Trazado 121294" d="M940.345,397.649c.308-.386.846.16.542.542-2.749,3.449-3.274,7.654-2.825,11.924.052.491-.715.486-.766,0C936.822,405.615,937.461,401.266,940.345,397.649Z" transform="translate(-878.794 -382.027)" fill="#19161d"/>
        <path id="Trazado_121295" data-name="Trazado 121295" d="M1121.039,255.254a14.888,14.888,0,0,0,3.7,2.273,8.327,8.327,0,0,1,2.435,1.016,8.568,8.568,0,0,1,1.768,2.176,4.356,4.356,0,0,0,1.523,1.258,14.905,14.905,0,0,0,1.745,1.024,6.119,6.119,0,0,0,2.628.482,5.727,5.727,0,0,1,.625.276,13.974,13.974,0,0,1,2.925,2.469,17.262,17.262,0,0,1,4.053,6.611c.148.469.888.269.739-.2a18.115,18.115,0,0,0-4.9-7.6,16.377,16.377,0,0,0-1.675-1.441c-.245-.176-.787-.4-1.156-.667a.45.45,0,0,0-.021-.051.368.368,0,0,0,.182-.16c1.109-1.862-.189-3.968.837-5.84a11.6,11.6,0,0,0,1.9-5.974c-.016-.493-.783-.494-.766,0,.079,2.342-1.11,4.123-2.081,6.147a3.05,3.05,0,0,0-.281,1.126q-.018-.263-.043-.522c-.118-1.194-.4-2.674-1.467-3.4-.612-.417-1.559-.545-1.784.38a6.588,6.588,0,0,0,.68,4.04l.011.025a10.053,10.053,0,0,0-1.257-1.506c-.719-.7-2.209-2.031-3.311-1.762-1.282.312-.485,1.968.266,3.081a9.378,9.378,0,0,0-3.366-1.717,16.2,16.2,0,0,1-3.519-2.2C1121.026,254.3,1120.644,254.966,1121.039,255.254Zm14.078,6.739a22.861,22.861,0,0,0,.141-2.6A5.27,5.27,0,0,1,1135.117,261.992Zm-.666-1.414c-.86-1.622-1.979-3.2-1.885-5.083.082-1.647,1.37.087,1.549.673a7.768,7.768,0,0,1,.326,2.133C1134.456,259.053,1134.473,259.818,1134.451,260.579Zm-5.409-1.132a15.232,15.232,0,0,0,2.743,2.228c.3.192.586.41.879.619-.474-.222-.917-.483-1.284-.687a4.9,4.9,0,0,1-1.948-1.521C1129.3,259.879,1129.175,259.662,1129.042,259.447Zm-.723-2.516c-.1-.323-.339-.9.214-.7a4.273,4.273,0,0,1,.811.387,9.372,9.372,0,0,1,3.406,3.785,17.106,17.106,0,0,0,.823,1.568c-.146-.093-.288-.192-.429-.292a30.717,30.717,0,0,1-2.72-1.964A6.569,6.569,0,0,1,1128.319,256.931Z" transform="translate(-1046.832 -247.586)" fill="#19161d"/>
        <path id="Trazado_121296" data-name="Trazado 121296" d="M1326.486,278.815a14.134,14.134,0,0,0,2.391-1.912,17.465,17.465,0,0,1,2.319-1.7,8.16,8.16,0,0,1,5.482-.952,8.506,8.506,0,0,0,3.486-.1,14.2,14.2,0,0,0,3.386-1.737,12.2,12.2,0,0,1,6.429-2.236,16.306,16.306,0,0,1,6.426,1.627c2.449,1.065,4.673,2.12,7.371,1.3,2.143-.652,3.989-2.063,6.067-2.882,2.12-.835,4.363.05,6.359.82.456.176.258.917-.2.739a21.416,21.416,0,0,0-3.047-.992,5.424,5.424,0,0,0-3.659.5c-1.974.923-3.8,2.169-5.93,2.73a8.545,8.545,0,0,1-5.555-.768,24.2,24.2,0,0,0-7.13-2.275c-2.544-.244-4.636.817-6.738,2.1-1.874,1.142-3.691,2.17-5.95,2.075-1.082-.045-2.135-.3-3.223-.276a6.862,6.862,0,0,0-3.181.987c-1.734.977-2.966,2.691-4.71,3.608C1326.436,279.707,1326.048,279.045,1326.486,278.815Z" transform="translate(-1234.72 -265.296)" fill="#19161d"/>
        <path id="Trazado_121297" data-name="Trazado 121297" d="M1387.456,362.492c2.207.456,4.44,1.279,6.716,1.182a17.343,17.343,0,0,0,6.558-1.909,11.653,11.653,0,0,1,5.177-1.556,10.507,10.507,0,0,1,5.263,1.923c1.87,1.128,3.794,2.275,6.045,2.286,2.137.01,3.524-1.71,5.087-2.891,2.522-1.905,6.712-2.519,8.931.17.312.378-.227.923-.542.542a5.029,5.029,0,0,0-5.259-1.367c-1.9.456-3.175,1.732-4.649,2.916-3.132,2.516-6.677,1.009-9.727-.828-1.824-1.1-3.6-2.068-5.795-1.97-2.023.09-3.811,1.352-5.628,2.11a17.27,17.27,0,0,1-5.788,1.354c-2.208.094-4.457-.781-6.594-1.223C1386.768,363.131,1386.973,362.392,1387.456,362.492Z" transform="translate(-1290.223 -347.607)" fill="#19161d"/>
        <path id="Trazado_121298" data-name="Trazado 121298" d="M1414.605,448.789a6.285,6.285,0,0,0,5.5,3.474c1.167.017,2.292-.541,3.464-.6a3.883,3.883,0,0,1,2.778,1.268c.782.723,1.432,1.58,2.2,2.317a5.622,5.622,0,0,0,3.646,1.223c2.7.14,5.094-1.391,7.1-3.037.378-.311.924.228.542.542a12.623,12.623,0,0,1-6.763,3.242,7.777,7.777,0,0,1-3.775-.577,8.3,8.3,0,0,1-2.515-2.154c-1.146-1.23-2.154-2.28-3.972-1.977a10.787,10.787,0,0,1-3.67.424,7.011,7.011,0,0,1-5.191-3.761C1413.713,448.739,1414.374,448.352,1414.605,448.789Z" transform="translate(-1314.845 -428.748)" fill="#19161d"/>
        <path id="Trazado_121299" data-name="Trazado 121299" d="M1476.132,969.176a15.725,15.725,0,0,1,1.924,3.454,14.521,14.521,0,0,0,.945,2.729.579.579,0,0,0,.9.116c1.225-1.306,1.678-3.166,2.546-4.7.589-1.042,1.218-2.061,1.811-3.1a5.649,5.649,0,0,0,1.045-2.552c.008-1.769-1.62-3.3-2.587-4.65a16.948,16.948,0,0,1-2.845-5.538.579.579,0,0,0-.854-.571c-1.379.8-1.546,2.646-2.026,4.011a20.4,20.4,0,0,1-1.51,3.412,8.414,8.414,0,0,1-.959,1.439,4.007,4.007,0,0,0-.675.836C1472.979,965.864,1475.252,967.78,1476.132,969.176Zm-.964-4.954a15.829,15.829,0,0,0,2.755-5.066,16.6,16.6,0,0,1,1.06-3.182,16,16,0,0,0,2.045,4.085c.52.76,1.069,1.5,1.612,2.243a7.423,7.423,0,0,1,1.46,2.305c.231,1-.535,1.978-1.014,2.8-.544.93-1.109,1.849-1.631,2.791-.65,1.175-1.064,2.616-1.816,3.762-.253-.729-.4-1.5-.7-2.213a18.148,18.148,0,0,0-1.443-2.55c-.528-.848-1.08-1.656-1.679-2.454C1475.246,965.978,1474.384,965.1,1475.168,964.222Z" transform="translate(-1369.503 -891.269)" fill="#fff"/>
        <path id="Trazado_121300" data-name="Trazado 121300" d="M1348.452,1165.606c1.985,2.16,5.646,2.472,7.582.057a6.5,6.5,0,0,0,.324-7.147.614.614,0,0,0-.045-.167,2.473,2.473,0,0,0-.493-.713c-.086-.123-.175-.244-.267-.361a.459.459,0,0,0-.409-.2,5.365,5.365,0,0,0-1.876-.784,5.115,5.115,0,0,0-4.126,1.471C1346.93,1159.8,1346.293,1163.258,1348.452,1165.606Zm1.3-6.837c.829-.763,2.222-1.688,3.4-1.317a4.323,4.323,0,0,1,1.881,1.038,5.6,5.6,0,0,1,.246,6.268,3.843,3.843,0,0,1-5.844.219A4.344,4.344,0,0,1,1349.748,1158.77Z" transform="translate(-1253.77 -1075.992)" fill="#fff"/>
        <path id="Trazado_121301" data-name="Trazado 121301" d="M1079.81,1443.317c1.985,2.16,5.646,2.472,7.582.057a6.5,6.5,0,0,0,.324-7.147.629.629,0,0,0-.045-.167,2.475,2.475,0,0,0-.493-.713c-.086-.123-.175-.244-.267-.361a.459.459,0,0,0-.408-.2,5.358,5.358,0,0,0-1.876-.784,5.117,5.117,0,0,0-4.126,1.471C1078.288,1437.513,1077.652,1440.968,1079.81,1443.317Zm1.3-6.837c.829-.763,2.223-1.688,3.4-1.317a4.325,4.325,0,0,1,1.881,1.038,5.6,5.6,0,0,1,.246,6.268,3.843,3.843,0,0,1-5.845.219A4.344,4.344,0,0,1,1081.106,1436.48Z" transform="translate(-1008.057 -1330)" fill="#fff"/>
        <path id="Trazado_121302" data-name="Trazado 121302" d="M1631.481,1883.142c1.985,2.16,5.646,2.472,7.582.057a6.5,6.5,0,0,0,.324-7.147.637.637,0,0,0-.045-.167,2.475,2.475,0,0,0-.493-.713c-.086-.123-.175-.244-.267-.361a.458.458,0,0,0-.408-.2,5.355,5.355,0,0,0-1.876-.784,5.116,5.116,0,0,0-4.126,1.471C1629.959,1877.338,1629.323,1880.793,1631.481,1883.142Zm1.3-6.837c.829-.763,2.223-1.688,3.4-1.317a4.323,4.323,0,0,1,1.881,1.038,5.6,5.6,0,0,1,.246,6.268,3.843,3.843,0,0,1-5.845.219A4.344,4.344,0,0,1,1632.777,1876.305Z" transform="translate(-1512.642 -1732.286)" fill="#fff"/>
        <path id="Trazado_121303" data-name="Trazado 121303" d="M1356.1,1620.627c1.985,2.16,5.646,2.473,7.582.057a6.5,6.5,0,0,0,.324-7.147.627.627,0,0,0-.045-.167,2.478,2.478,0,0,0-.493-.713c-.086-.123-.175-.244-.267-.361a.459.459,0,0,0-.409-.2,5.364,5.364,0,0,0-1.876-.784,5.116,5.116,0,0,0-4.126,1.471C1354.577,1614.823,1353.94,1618.278,1356.1,1620.627Zm1.3-6.837c.829-.763,2.223-1.688,3.4-1.317a4.323,4.323,0,0,1,1.881,1.038,5.6,5.6,0,0,1,.246,6.268,3.843,3.843,0,0,1-5.845.219A4.344,4.344,0,0,1,1357.395,1613.79Z" transform="translate(-1260.764 -1492.176)" fill="#fff"/>
        <path id="Trazado_121304" data-name="Trazado 121304" d="M1618.491,1223.933c1.985,2.16,5.646,2.472,7.582.057a6.5,6.5,0,0,0,.324-7.147.622.622,0,0,0-.045-.167,2.483,2.483,0,0,0-.493-.713c-.086-.123-.175-.244-.267-.361a.459.459,0,0,0-.409-.2,5.361,5.361,0,0,0-1.876-.784,5.116,5.116,0,0,0-4.126,1.471C1616.969,1218.129,1616.332,1221.584,1618.491,1223.933Zm1.3-6.837c.829-.763,2.222-1.688,3.4-1.317a4.322,4.322,0,0,1,1.881,1.038,5.6,5.6,0,0,1,.246,6.268,3.843,3.843,0,0,1-5.844.219A4.344,4.344,0,0,1,1619.787,1217.1Z" transform="translate(-1500.761 -1129.34)" fill="#fff"/>
        <path id="Trazado_121305" data-name="Trazado 121305" d="M1970.091,1169.537c1.985,2.16,5.646,2.472,7.582.057a6.5,6.5,0,0,0,.324-7.147.632.632,0,0,0-.045-.167,2.482,2.482,0,0,0-.493-.713c-.086-.123-.175-.244-.267-.361a.459.459,0,0,0-.409-.2,5.362,5.362,0,0,0-1.876-.784,5.116,5.116,0,0,0-4.126,1.471C1968.569,1163.733,1967.933,1167.188,1970.091,1169.537Zm1.3-6.837c.829-.763,2.222-1.688,3.4-1.317a4.323,4.323,0,0,1,1.881,1.038,5.6,5.6,0,0,1,.246,6.268,3.843,3.843,0,0,1-5.844.219A4.344,4.344,0,0,1,1971.387,1162.7Z" transform="translate(-1822.352 -1079.587)" fill="#fff"/>
        <path id="Trazado_121306" data-name="Trazado 121306" d="M1244.826,1295.076c1.244,2.216,3,4.175,3.952,6.546a.582.582,0,0,0,1.05.137c.953-1.361.878-3.269,1.468-4.794.753-1.947,1.81-3.854,2.041-5.961a4.379,4.379,0,0,0-.33-2.51,21.335,21.335,0,0,0-1.755-2.448,12.811,12.811,0,0,1-2.513-5.462.486.486,0,0,0-.191-.327.55.55,0,0,0-.707-.553c-1.386.408-1.8,2.622-2.151,3.8a22.179,22.179,0,0,1-1.344,3.352,10.119,10.119,0,0,0-1.373,3C1242.786,1291.68,1243.97,1293.551,1244.826,1295.076Zm.513-7.64a23.759,23.759,0,0,0,1.261-2.977c.219-.691.4-1.394.652-2.075a7.085,7.085,0,0,1,.451-1.137,12.452,12.452,0,0,0,2.051,4.667c1.014,1.455,2.676,2.886,2.466,4.8-.232,2.117-1.312,3.975-2.032,5.942-.387,1.059-.466,2.374-.847,3.488-.878-1.672-2.056-3.149-3.025-4.781-.845-1.425-2.115-3.226-2.205-4.924C1244.055,1289.38,1244.9,1288.366,1245.339,1287.436Z" transform="translate(-1158.494 -1188.895)" fill="#fff"/>
        <path id="Trazado_121307" data-name="Trazado 121307" d="M1176.676,1631.25c1.791,1.8,4,3.222,5.558,5.251a.582.582,0,0,0,1.049-.148c.554-1.566-.028-3.384.133-5.012.205-2.077.714-4.2.374-6.29a4.38,4.38,0,0,0-.989-2.33,21.3,21.3,0,0,0-2.346-1.89,12.812,12.812,0,0,1-3.882-4.591.484.484,0,0,0-.272-.264.55.55,0,0,0-.829-.344c-1.226.763-1.033,3.007-1.057,4.237a22.2,22.2,0,0,1-.4,3.589,10.118,10.118,0,0,0-.521,3.255C1173.8,1628.524,1175.443,1630.01,1176.676,1631.25Zm-1.548-7.5a23.741,23.741,0,0,0,.42-3.206c.026-.724.016-1.451.074-2.174a7.064,7.064,0,0,1,.131-1.216,12.457,12.457,0,0,0,3.224,3.949c1.366,1.131,3.35,2.065,3.66,3.969.342,2.1-.2,4.181-.37,6.269-.09,1.124.186,2.412.116,3.588-1.293-1.376-2.823-2.485-4.193-3.8-1.2-1.147-2.9-2.543-3.441-4.155C1174.41,1625.968,1174.95,1624.766,1175.128,1623.751Z" transform="translate(-1094.93 -1496.092)" fill="#fff"/>
        <path id="Trazado_121308" data-name="Trazado 121308" d="M1434.794,1830.241c1.791,1.8,4,3.222,5.558,5.251a.582.582,0,0,0,1.049-.149c.554-1.566-.028-3.384.133-5.012.205-2.077.714-4.2.374-6.29a4.378,4.378,0,0,0-.989-2.33,21.31,21.31,0,0,0-2.345-1.89,12.812,12.812,0,0,1-3.882-4.591.485.485,0,0,0-.272-.264.55.55,0,0,0-.829-.344c-1.226.763-1.033,3.007-1.057,4.237a22.2,22.2,0,0,1-.4,3.589,10.118,10.118,0,0,0-.521,3.255C1431.92,1827.515,1433.562,1829,1434.794,1830.241Zm-1.548-7.5a23.739,23.739,0,0,0,.42-3.206c.026-.724.017-1.451.074-2.174a7.124,7.124,0,0,1,.131-1.216,12.458,12.458,0,0,0,3.224,3.949c1.366,1.131,3.35,2.065,3.66,3.969.342,2.1-.2,4.181-.37,6.269-.09,1.125.186,2.412.116,3.588-1.293-1.376-2.823-2.485-4.193-3.8-1.2-1.146-2.9-2.543-3.441-4.155C1432.528,1824.959,1433.069,1823.757,1433.246,1822.742Z" transform="translate(-1331.018 -1678.099)" fill="#fff"/>
        <g id="Grupo_94066" data-name="Grupo 94066" transform="translate(65.456 77.154)">
          <path id="Trazado_121309" data-name="Trazado 121309" d="M1028.206,1126.364a12.81,12.81,0,0,1-2.513-5.462.485.485,0,0,0-.191-.327.55.55,0,0,0-.707-.553c-1.386.408-1.8,2.622-2.151,3.8a22.193,22.193,0,0,1-1.344,3.352c-.279.574-.7,1.188-1,1.821.189,1.5.394,3.015.447,4.511.329.666.706,1.3,1.035,1.889,1.244,2.216,3,4.175,3.952,6.545a.582.582,0,0,0,1.05.137c.953-1.361.878-3.269,1.468-4.794.753-1.947,1.81-3.854,2.041-5.961a4.379,4.379,0,0,0-.33-2.51A21.322,21.322,0,0,0,1028.206,1126.364Zm-1.5-.131c1.014,1.455,2.676,2.885,2.466,4.8-.232,2.117-1.312,3.975-2.032,5.942-.388,1.059-.466,2.374-.847,3.488-.878-1.672-2.056-3.149-3.025-4.782-.846-1.424-2.115-3.225-2.206-4.923-.057-1.062.785-2.076,1.228-3.006a23.76,23.76,0,0,0,1.262-2.977c.219-.691.4-1.394.652-2.075a7.081,7.081,0,0,1,.451-1.137A12.458,12.458,0,0,0,1026.707,1126.232Z" transform="translate(-1020.296 -1119.995)" fill="#fff"/>
          <path id="Trazado_121310" data-name="Trazado 121310" d="M1140.369,1906.687a.55.55,0,0,1,.829.344.484.484,0,0,1,.272.264,12.815,12.815,0,0,0,3.882,4.591,21.316,21.316,0,0,1,2.346,1.89,4.379,4.379,0,0,1,.989,2.33c.34,2.092-.168,4.212-.374,6.29-.161,1.628.421,3.446-.133,5.012a.582.582,0,0,1-1.049.148c-1.555-2.029-3.767-3.448-5.558-5.251-.125-.125-.254-.254-.385-.385l-.51-2.144a28.775,28.775,0,0,0,2.409,2.409c1.37,1.314,2.9,2.423,4.193,3.8.069-1.176-.206-2.463-.116-3.588.168-2.088.711-4.167.369-6.269-.31-1.9-2.294-2.839-3.66-3.969a12.46,12.46,0,0,1-3.224-3.949,7.076,7.076,0,0,0-.131,1.216c-.057.723-.047,1.45-.074,2.174a23.743,23.743,0,0,1-.42,3.206c-.062.353-.167.729-.265,1.111l-.639-2.687a19.628,19.628,0,0,0,.191-2.307C1139.336,1909.694,1139.143,1907.45,1140.369,1906.687Z" transform="translate(-1128.979 -1839.46)" fill="#fff"/>
          <path id="Trazado_121311" data-name="Trazado 121311" d="M1089.454,1765.131a5.6,5.6,0,0,0-.246-6.268,4.324,4.324,0,0,0-1.881-1.038,2.263,2.263,0,0,0-1.38.054q-.126-.55-.251-1.1a3.8,3.8,0,0,1,1.748-.111,5.359,5.359,0,0,1,1.876.784.459.459,0,0,1,.409.2c.092.117.181.238.267.361a2.473,2.473,0,0,1,.493.713.63.63,0,0,1,.045.167,6.5,6.5,0,0,1-.324,7.147,4.423,4.423,0,0,1-2,1.42l-.271-1.138A3.351,3.351,0,0,0,1089.454,1765.131Z" transform="translate(-1080.114 -1702.276)" fill="#fff"/>
          <path id="Trazado_121312" data-name="Trazado 121312" d="M1807.792,1809.411a12.46,12.46,0,0,1-3.224-3.949,7.1,7.1,0,0,0-.131,1.216c-.057.723-.047,1.45-.073,2.174a23.754,23.754,0,0,1-.42,3.206c-.178,1.015-.718,2.217-.379,3.225.541,1.612,2.246,3.008,3.441,4.155,1.136,1.09,2.38,2.04,3.51,3.117.158.758.312,1.48.46,2.16-1.55-1.978-3.72-3.382-5.483-5.157-1.233-1.241-2.874-2.727-3.181-4.538a10.116,10.116,0,0,1,.521-3.255,22.181,22.181,0,0,0,.4-3.589c.024-1.23-.169-3.474,1.057-4.237a.55.55,0,0,1,.829.344.485.485,0,0,1,.272.264,11.063,11.063,0,0,0,2.237,3.134q.174.938.35,1.879C1807.914,1809.509,1807.852,1809.461,1807.792,1809.411Z" transform="translate(-1735.533 -1745.48)" fill="#fff"/>
        </g>
        <path id="Trazado_121313" data-name="Trazado 121313" d="M1452.573,1349.681a24.241,24.241,0,0,1,2.216,3.594,19.768,19.768,0,0,0,1.441,2.943.583.583,0,0,0,.993,0c1.045-1.823,1.039-4.04,1.9-5.949a23.886,23.886,0,0,1,1.577-2.922,10.224,10.224,0,0,0,1.443-2.676c.542-2.049-.628-3.558-1.858-5.08a17.264,17.264,0,0,1-3.389-5.247.57.57,0,0,0-.672-.385c-1.341-.7-2.112,2.072-2.506,2.882-.665,1.369-1.157,2.806-1.822,4.172a19.277,19.277,0,0,0-1.594,3.593C1449.821,1346.526,1451.514,1348.278,1452.573,1349.681Zm-.147-7.152a31.9,31.9,0,0,0,1.332-2.972c.087-.234,2.076-4.487,2.1-4.469a.622.622,0,0,0,.115.071,15.577,15.577,0,0,0,2.552,4.083c1.192,1.467,3.269,3.325,2.413,5.4a26.985,26.985,0,0,1-1.75,2.983,20.019,20.019,0,0,0-1.248,2.508c-.576,1.444-.718,3.1-1.267,4.554-.27-.578-.481-1.184-.773-1.758a27.378,27.378,0,0,0-1.643-2.849c-.9-1.342-2.373-2.663-2.8-4.259C1451.152,1344.694,1451.942,1343.512,1452.426,1342.529Z" transform="translate(-1348.065 -1238.44)" fill="#fff"/>
        <path id="Trazado_121314" data-name="Trazado 121314" d="M1638.019,1544.536a24.224,24.224,0,0,1,2.216,3.594,19.781,19.781,0,0,0,1.442,2.943.583.583,0,0,0,.992,0c1.045-1.822,1.04-4.04,1.9-5.949a23.836,23.836,0,0,1,1.577-2.922,10.225,10.225,0,0,0,1.443-2.676c.542-2.049-.628-3.558-1.858-5.08a17.264,17.264,0,0,1-3.39-5.247.57.57,0,0,0-.672-.385c-1.341-.7-2.112,2.072-2.506,2.883-.665,1.369-1.157,2.805-1.822,4.172a19.264,19.264,0,0,0-1.594,3.592C1635.268,1541.381,1636.961,1543.133,1638.019,1544.536Zm-.147-7.152a31.932,31.932,0,0,0,1.332-2.972c.086-.233,2.076-4.487,2.1-4.469a.6.6,0,0,0,.116.07,15.588,15.588,0,0,0,2.552,4.083c1.192,1.467,3.269,3.325,2.413,5.4a27.052,27.052,0,0,1-1.75,2.983,19.947,19.947,0,0,0-1.248,2.508c-.577,1.444-.719,3.1-1.267,4.553-.271-.578-.481-1.184-.773-1.758a27.342,27.342,0,0,0-1.643-2.849c-.9-1.342-2.373-2.663-2.8-4.259C1636.6,1539.549,1637.389,1538.367,1637.873,1537.384Z" transform="translate(-1517.684 -1416.664)" fill="#fff"/>
        <path id="Trazado_121315" data-name="Trazado 121315" d="M1707.559,1044.029a24.234,24.234,0,0,1,4.214-.253,19.756,19.756,0,0,0,3.275.121.583.583,0,0,0,.469-.875c-1.112-1.782-3.068-2.826-4.345-4.484a23.839,23.839,0,0,1-1.829-2.771,10.227,10.227,0,0,0-1.676-2.537c-1.549-1.446-3.433-1.128-5.354-.765a17.265,17.265,0,0,1-6.227.506.57.57,0,0,0-.657.41c-1.25.851.828,2.841,1.355,3.571.892,1.233,1.925,2.346,2.815,3.578a19.289,19.289,0,0,0,2.412,3.1C1703.478,1044.962,1705.823,1044.3,1707.559,1044.029Zm-6.372-3.252a31.916,31.916,0,0,0-1.989-2.579c-.165-.187-2.972-3.95-2.946-3.962a.621.621,0,0,0,.117-.068,15.587,15.587,0,0,0,4.8-.318c1.856-.357,4.476-1.309,5.9.427a27.02,27.02,0,0,1,1.8,2.953,20,20,0,0,0,1.62,2.285c1,1.191,2.388,2.1,3.414,3.269-.637-.035-1.271-.136-1.914-.15a27.336,27.336,0,0,0-3.287.1c-1.609.16-3.469.832-5.077.455C1702.493,1042.922,1701.825,1041.667,1701.188,1040.777Z" transform="translate(-1571.989 -962.501)" fill="#fff"/>
        <g id="Grupo_94067" data-name="Grupo 94067" transform="translate(137.139 86.969)">
          <path id="Trazado_121316" data-name="Trazado 121316" d="M1866.315,1347.349c.283.4.572.862.9,1.282q-1.1-.518-2.173-1.074c-.107-.154-.213-.307-.321-.455-.89-1.232-1.923-2.345-2.815-3.578-.528-.73-2.606-2.72-1.355-3.571a.569.569,0,0,1,.657-.41,17.265,17.265,0,0,0,6.226-.506c1.922-.364,3.805-.682,5.354.765a10.227,10.227,0,0,1,1.676,2.537,23.842,23.842,0,0,0,1.829,2.771c1.277,1.658,3.234,2.7,4.346,4.484a.583.583,0,0,1-.469.875,19.756,19.756,0,0,1-3.275-.121,24.246,24.246,0,0,0-4.214.253c-.181.028-.369.061-.561.094-.11-.04-.22-.079-.33-.12q-.9-.337-1.784-.7c1.274-.04,2.617-.445,3.82-.565a27.31,27.31,0,0,1,3.287-.1c.644.014,1.277.115,1.914.15-1.026-1.173-2.414-2.078-3.414-3.269a19.974,19.974,0,0,1-1.62-2.285,27.053,27.053,0,0,0-1.8-2.953c-1.423-1.736-4.042-.784-5.9-.427a15.579,15.579,0,0,1-4.8.318.612.612,0,0,1-.117.068c-.026.012,2.782,3.776,2.946,3.962A31.971,31.971,0,0,1,1866.315,1347.349Z" transform="translate(-1860.162 -1329.876)" fill="#fff"/>
          <path id="Trazado_121317" data-name="Trazado 121317" d="M2198.836,1236.18a.618.618,0,0,1-.116.069c-.026.012,2.781,3.776,2.946,3.962a31.905,31.905,0,0,1,1.989,2.579c.638.891,1.306,2.146,2.44,2.411,1.609.377,3.469-.3,5.078-.455.144-.014.288-.023.432-.034q.627.526,1.226,1.082a22.636,22.636,0,0,0-2.8.248c-1.736.27-4.081.933-5.549-.4a19.311,19.311,0,0,1-2.412-3.1c-.89-1.232-1.923-2.345-2.815-3.578-.528-.73-2.605-2.72-1.355-3.571a.592.592,0,0,1,.383-.394q.881.626,1.761,1.255A10.946,10.946,0,0,1,2198.836,1236.18Z" transform="translate(-2168.709 -1235)" fill="#fff"/>
          <path id="Trazado_121318" data-name="Trazado 121318" d="M2240.633,1523.91c-.37.168-.74.337-1.107.512-.042-.043-.085-.085-.125-.129-2.159-2.349-1.522-5.8.689-7.84a5.116,5.116,0,0,1,4.126-1.471,5.359,5.359,0,0,1,1.876.784.459.459,0,0,1,.409.2q.138.176.267.361a2.473,2.473,0,0,1,.493.713.628.628,0,0,1,.045.167,7.552,7.552,0,0,1,.9,3.843c-.4.121-.791.244-1.185.373a6.189,6.189,0,0,0-1.039-4.242,4.324,4.324,0,0,0-1.881-1.038c-1.18-.371-2.574.554-3.4,1.317a4.344,4.344,0,0,0-.314,6.208C2240.461,1523.751,2240.546,1523.832,2240.633,1523.91Z" transform="translate(-2205.814 -1491.033)" fill="#fff"/>
        </g>
        <path id="Trazado_121319" data-name="Trazado 121319" d="M982.667,1238.637c.266-1.469.677-2.91,1.077-4.347.365-1.309.721-2.619.994-3.951a29.927,29.927,0,0,0,.454-4.763,21.8,21.8,0,0,0-.112-4.174,29.177,29.177,0,0,1-.482-3.719.575.575,0,0,1,1.149,0,39.853,39.853,0,0,0,.562,4.286,26.982,26.982,0,0,1-.017,4.695,36.836,36.836,0,0,1-1.531,8.259c-.371,1.33-.722,2.663-.986,4.019-.3,1.525-.886,3.139-.579,4.7a9.243,9.243,0,0,0,1.949,3.505c.778,1,1.728,1.849,2.581,2.785a11.135,11.135,0,0,1,2.626,6.493c.4,3.1.952,6.162,1.6,9.224.632,2.979,1.15,6,1.92,8.946.765,2.926,1.413,5.86,2.106,8.8.557,2.367,1.2,4.714,1.878,7.049a.575.575,0,0,1-1.108.306c-.846-2.92-1.628-5.857-2.284-8.826-.649-2.941-1.455-5.834-2.131-8.768-.688-2.987-1.251-6.016-1.87-9.019-.61-2.96-.936-5.943-1.442-8.917a8.873,8.873,0,0,0-1.355-3.538,23.733,23.733,0,0,0-2.554-2.805c-1.6-1.71-3.217-3.978-3.154-6.411A25.757,25.757,0,0,1,982.667,1238.637Z" transform="translate(-919.775 -1131.684)" fill="#19161d"/>
        <path id="Trazado_121320" data-name="Trazado 121320" d="M1135.212,980.108c.037,4.294,1.333,8.514,2.381,12.646.858,3.381,1.89,6.993,4,9.837.784-.557,1.261-1.9,1.74-2.625,1.025-1.553,2.2-3.007,3.3-4.505,2.115-2.874,4.107-5.807,6.431-8.521,2.428-2.836,4.742-5.764,7.177-8.595,1.167-1.357,2.181-2.838,3.376-4.169a18.581,18.581,0,0,0,3.085-3.935c.332-.663,1.324-.08.992.58a16.463,16.463,0,0,1-2.851,3.717c-1.2,1.29-2.2,2.731-3.333,4.082-2.543,3.043-5.068,6.109-7.634,9.133-2.549,3-4.716,6.265-7.085,9.406a42.53,42.53,0,0,0-2.89,4.074c-.583,1-1.181,2.2-2.324,2.641a.554.554,0,0,1-.559-.148c-2.356-2.992-3.515-6.756-4.464-10.391-1.125-4.306-2.455-8.747-2.493-13.227A.575.575,0,0,1,1135.212,980.108Z" transform="translate(-1058.896 -905.602)" fill="#19161d"/>
        <path id="Trazado_121321" data-name="Trazado 121321" d="M1614.489,974.692c.32-.668,1.311-.085.992.58a21.559,21.559,0,0,0-1.709,10.181c.023.742-1.126.739-1.149,0A22.75,22.75,0,0,1,1614.489,974.692Z" transform="translate(-1496.593 -909.67)" fill="#19161d"/>
        <path id="Trazado_121322" data-name="Trazado 121322" d="M1696.113,1272.654c1.357,2.255,2.714,4.468,5.157,5.668.665.327.083,1.318-.58.992-2.616-1.285-4.115-3.663-5.569-6.08A.575.575,0,0,1,1696.113,1272.654Z" transform="translate(-1571.989 -1182.22)" fill="#19161d"/>
        <path id="Trazado_121323" data-name="Trazado 121323" d="M2151.894,1445.266a15.724,15.724,0,0,1,8.3-5.384c.721-.171,1.026.937.306,1.108a14.706,14.706,0,0,0-7.791,5.088C2152.229,1446.647,2151.421,1445.829,2151.894,1445.266Z" transform="translate(-1989.724 -1335.41)" fill="#19161d"/>
        <path id="Trazado_121324" data-name="Trazado 121324" d="M2141.211,1429.441c1.09-2.218,3.393-3.412,5.314-4.8.6-.436,1.174.562.58.992-1.763,1.277-3.9,2.356-4.9,4.391C2141.877,1430.687,2140.886,1430.1,2141.211,1429.441Z" transform="translate(-1980.025 -1321.384)" fill="#19161d"/>
        <path id="Trazado_121325" data-name="Trazado 121325" d="M940.358,1751.025a8.887,8.887,0,0,1,3.4.639,4.886,4.886,0,0,1,1.967,2.312c1.882,3.645,2.526,7.793,3.474,11.745,1.036,4.318,2.148,8.619,3.164,12.942.85,3.615,2.048,7.5,1.783,11.246-.052.735-1.2.74-1.149,0,.25-3.538-.865-7.164-1.658-10.58-.92-3.965-1.942-7.906-2.9-11.861-.94-3.878-1.554-7.991-3.127-11.674a7.788,7.788,0,0,0-1.754-2.9c-.807-.7-2.21-.661-3.2-.719C939.622,1752.13,939.617,1750.981,940.358,1751.025Z" transform="translate(-881.218 -1620.011)" fill="#19161d"/>
        <g id="Grupo_94068" data-name="Grupo 94068" transform="translate(61.649 165.676)">
          <path id="Trazado_121326" data-name="Trazado 121326" d="M975.693,2233.919l24.526-.75-9.645-76.011-12.859.393Z" transform="translate(-975.693 -2157.159)" fill="#71d6de"/>
          <path id="Trazado_121327" data-name="Trazado 121327" d="M975.693,2236.035l11.369-12.746-2.945-63.818-6.4.2Z" transform="translate(-975.693 -2159.274)" fill="#16bcc8"/>
          <path id="Trazado_121328" data-name="Trazado 121328" d="M975.693,2919.933l24.526-.75-13.156-12Z" transform="translate(-975.693 -2843.172)" fill="#8adde3"/>
        </g>
        <g id="Grupo_94069" data-name="Grupo 94069" transform="translate(0 152.61)">
          <path id="Trazado_121329" data-name="Trazado 121329" d="M740.364,2232.393l19.311,1.565,7.424-80.8-3.922-1.3Z" transform="translate(-698.8 -2139.24)" fill="#e96f9e"/>
          <path id="Trazado_121330" data-name="Trazado 121330" d="M774.466,2244.3l10.48-5.524,5.92,9.142,11.593-77.275-4.169-3.528-13.945,68.357Z" transform="translate(-729.992 -2153.195)" fill="#e13e7d"/>
          <path id="Trazado_121331" data-name="Trazado 121331" d="M279.772,2004.069l37.988,12.614-22.813,80.54-41.564-18.32Z" transform="translate(-253.384 -2004.069)" fill="#e5578e"/>
          <path id="Trazado_121332" data-name="Trazado 121332" d="M821.506,2155.612a2.839,2.839,0,0,0,1.651,3.509,2.549,2.549,0,0,0,3.183-1.9,2.838,2.838,0,0,0-1.65-3.51A2.549,2.549,0,0,0,821.506,2155.612Z" transform="translate(-772.907 -2140.828)" fill="#e13e7d"/>
          <path id="Trazado_121333" data-name="Trazado 121333" d="M623.2,2090.049a2.838,2.838,0,0,0,1.651,3.509,2.549,2.549,0,0,0,3.184-1.9,2.838,2.838,0,0,0-1.65-3.51A2.549,2.549,0,0,0,623.2,2090.049Z" transform="translate(-591.527 -2080.861)" fill="#e13e7d"/>
        </g>
        <g id="Grupo_94070" data-name="Grupo 94070" transform="translate(0 152.61)">
          <path id="Trazado_121334" data-name="Trazado 121334" d="M740.364,2232.393l19.311,1.565,7.424-80.8-3.922-1.3Z" transform="translate(-698.8 -2139.24)" fill="#ffe268"/>
          <path id="Trazado_121335" data-name="Trazado 121335" d="M774.466,2244.3l10.48-5.524,5.92,9.142,11.593-77.275-4.169-3.528-13.945,68.357Z" transform="translate(-729.992 -2153.195)" fill="#ffd41c"/>
          <path id="Trazado_121336" data-name="Trazado 121336" d="M279.772,2004.069l37.988,12.614-22.813,80.54-41.564-18.32Z" transform="translate(-253.384 -2004.069)" fill="#ffd41c"/>
          <path id="Trazado_121337" data-name="Trazado 121337" d="M821.506,2155.612a2.839,2.839,0,0,0,1.651,3.509,2.549,2.549,0,0,0,3.183-1.9,2.838,2.838,0,0,0-1.65-3.51A2.549,2.549,0,0,0,821.506,2155.612Z" transform="translate(-772.907 -2140.828)" fill="#fff1b3"/>
          <path id="Trazado_121338" data-name="Trazado 121338" d="M623.2,2090.049a2.838,2.838,0,0,0,1.651,3.509,2.549,2.549,0,0,0,3.184-1.9,2.838,2.838,0,0,0-1.65-3.51A2.549,2.549,0,0,0,623.2,2090.049Z" transform="translate(-591.527 -2080.861)" fill="#fff1b3"/>
        </g>
        <path id="Trazado_121339" data-name="Trazado 121339" d="M845.232,1768.709a53.954,53.954,0,0,0,4.969-11.09,73.415,73.415,0,0,0,3.364-11.933,34.861,34.861,0,0,0,.79-8.812,6.729,6.729,0,0,0-1.472-3.871c-.957-1.1-3.063-2.03-4.471-1.339-.663.325-1.246-.666-.58-.992,2.91-1.427,6.143,1.07,7.154,3.714,1.148,3,.48,6.56,0,9.627a73.764,73.764,0,0,1-3.338,12.956,58.983,58.983,0,0,1-5.421,12.32C845.829,1769.913,844.834,1769.337,845.232,1768.709Z" transform="translate(-794.633 -1601.017)" fill="#19161d"/>
        <path id="Trazado_121340" data-name="Trazado 121340" d="M1117.375,2867.783c3.808-1.445,7.942-.5,11.9-.547-.312-5.354-1.4-10.621-2.031-15.94-.058-.49.708-.484.766,0,.647,5.444,1.772,10.831,2.054,16.314a.386.386,0,0,1-.383.383c-4.011.122-8.236-.94-12.1.528C1117.116,2868.7,1116.918,2867.957,1117.375,2867.783Z" transform="translate(-1043.396 -2626.041)" fill="#19161d"/>
        <path id="Trazado_121341" data-name="Trazado 121341" d="M1103.388,2714.348c-.02-.494.746-.492.766,0,.2,4.978.192,9.96.192,14.941a.383.383,0,0,1-.766,0C1103.58,2724.308,1103.59,2719.326,1103.388,2714.348Z" transform="translate(-1030.839 -2500.777)" fill="#19161d"/>
        <path id="Trazado_121342" data-name="Trazado 121342" d="M1126.392,2922.738c1.172,1.071,2.39,2.086,3.64,3.064.389.3-.158.843-.542.542-1.25-.979-2.468-1.994-3.639-3.065C1125.485,2922.945,1126.028,2922.4,1126.392,2922.738Z" transform="translate(-1051.274 -2691.624)" fill="#19161d"/>
        <path id="Trazado_121343" data-name="Trazado 121343" d="M1038.142,2933.868c1.2-1.639,2.6-3.106,3.891-4.675.313-.382.852.163.542.542-1.245,1.517-2.61,2.934-3.771,4.52C1038.515,2934.649,1037.85,2934.267,1038.142,2933.868Z" transform="translate(-971.096 -2697.504)" fill="#19161d"/>
        <path id="Trazado_121344" data-name="Trazado 121344" d="M876.884,2256.844c1.446-1.53,1.084-4.1,1.577-6.013.746-2.893,1.3-5.8,1.909-8.721,1.27-6.053,3.023-11.985,4.174-18.066,1.144-6.047,1.749-12.2,3.115-18.2.646-2.839,1.342-5.644,1.75-8.531a35.566,35.566,0,0,1,1.743-8.1c.178-.455.919-.257.739.2a35.33,35.33,0,0,0-1.743,8.1c-.4,2.886-1.1,5.694-1.751,8.531-1.381,6-1.984,12.157-3.115,18.2-1.137,6.083-2.882,12.019-4.174,18.066-.623,2.918-1.111,5.841-1.909,8.721-.541,1.954-.236,4.18-1.418,5.932a3.374,3.374,0,0,1-.356.419C877.086,2257.746,876.545,2257.2,876.884,2256.844Z" transform="translate(-823.569 -2020.558)" fill="#19161d"/>
        <path id="Trazado_121345" data-name="Trazado 121345" d="M891.08,2989.937c.875,2.014,2.371,3.656,3.448,5.555a.383.383,0,0,1-.661.387c-1.077-1.9-2.573-3.541-3.448-5.555C890.224,2989.875,890.884,2989.485,891.08,2989.937Z" transform="translate(-836.015 -2752.999)" fill="#19161d"/>
        <path id="Trazado_121346" data-name="Trazado 121346" d="M773.821,3011.457c1.846-2.292,4.45-3.721,6.7-5.555.38-.309.925.23.542.542-2.253,1.833-4.86,3.265-6.7,5.555C774.053,3012.383,773.515,3011.837,773.821,3011.457Z" transform="translate(-729.318 -2767.7)" fill="#19161d"/>
        <path id="Trazado_121347" data-name="Trazado 121347" d="M748.63,2767.89a38.768,38.768,0,0,0,1.783-6.576c.509-2.3,1.318-4.517,1.915-6.795a134.8,134.8,0,0,0,2.623-13.446c.076-.487.814-.28.739.2-.7,4.513-1.484,9.019-2.623,13.446-.557,2.165-1.323,4.268-1.835,6.443a44.11,44.11,0,0,1-1.863,6.928C749.183,2768.543,748.441,2768.346,748.63,2767.89Z" transform="translate(-706.333 -2525.305)" fill="#19161d"/>
        <path id="Trazado_121348" data-name="Trazado 121348" d="M939.621,2218.813c.569-2.735,2.051-5.1,3.295-7.562.223-.441.884-.053.662.386-1.215,2.4-2.662,4.708-3.218,7.379C940.259,2219.5,939.521,2219.3,939.621,2218.813Z" transform="translate(-881.042 -2040.781)" fill="#19161d"/>
        <path id="Trazado_121349" data-name="Trazado 121349" d="M616.991,2891.267a25.008,25.008,0,0,1,5.232,8.123c.2.446-.458.836-.662.387a24.48,24.48,0,0,0-5.112-7.968C616.093,2891.466,616.635,2890.925,616.991,2891.267Z" transform="translate(-585.355 -2662.835)" fill="#19161d"/>
        <path id="Trazado_121350" data-name="Trazado 121350" d="M569.889,2911.438c2.411,2.375,5.054,4.522,6.956,7.357.276.411-.388.794-.662.386-1.863-2.776-4.474-4.876-6.836-7.2C568.994,2911.633,569.536,2911.091,569.889,2911.438Z" transform="translate(-542.275 -2681.282)" fill="#19161d"/>
        <path id="Trazado_121351" data-name="Trazado 121351" d="M302.5,2831.009a23.987,23.987,0,0,1,6.987-2.72.383.383,0,0,1,.2.739,23.314,23.314,0,0,0-6.8,2.643C302.474,2831.938,302.09,2831.275,302.5,2831.009Z" transform="translate(-298.149 -2605.319)" fill="#19161d"/>
        <path id="Trazado_121352" data-name="Trazado 121352" d="M311.335,2800.577a28.5,28.5,0,0,1,3.731-1.571c.467-.167.665.574.2.739a26.927,26.927,0,0,0-3.548,1.494C311.285,2801.469,310.9,2800.808,311.335,2800.577Z" transform="translate(-306.214 -2578.526)" fill="#19161d"/>
        <path id="Trazado_121353" data-name="Trazado 121353" d="M1385.033,2196.243a118.859,118.859,0,0,0,7.258,29.345c.262.695-.849.992-1.108.306a119.977,119.977,0,0,1-7.3-29.651C1383.806,2195.506,1384.956,2195.513,1385.033,2196.243Z" transform="translate(-1287.391 -2026.728)" fill="#19161d"/>
        <path id="Trazado_121354" data-name="Trazado 121354" d="M2190.37,3329.738c2.861-2.209,4.917-5.217,7.286-7.9,2.664-3.023,5.364-5.995,7.926-9.106,2.494-3.029,4.861-6.127,7.131-9.326,2.183-3.077,4.4-6.278,5.551-9.906.224-.7,1.333-.4,1.108.306a36.459,36.459,0,0,1-5.287,9.643c-2.3,3.274-4.7,6.447-7.233,9.54-2.707,3.3-5.535,6.482-8.383,9.662-2.471,2.759-4.56,5.8-7.519,8.084C2190.363,3331.182,2189.792,3330.183,2190.37,3329.738Z" transform="translate(-2024.827 -3030.466)" fill="#19161d"/>
        <path id="Trazado_121355" data-name="Trazado 121355" d="M500.466,3211.161a80.673,80.673,0,0,1,8.527,1.952c3.061.8,6.151,1.4,9.273,1.9,3.328.536,6.671.962,10.014,1.387.952-3.683,1.839-7.364,2.551-11.106,1.534-8.065,2.958-16.18,5.513-24,.229-.7,1.339-.4,1.108.306-2.518,7.706-3.942,15.7-5.447,23.65-.721,3.805-1.6,7.552-2.574,11.3,2.735.348,5.469.7,8.194,1.123.731.113.419,1.22-.306,1.108-2.72-.42-5.448-.776-8.177-1.125a93.706,93.706,0,0,0-2.588,12.064c-.091.725-1.242.734-1.149,0a93.644,93.644,0,0,1,2.528-11.985l.059-.226c-3.224-.411-6.449-.822-9.661-1.324-3.13-.489-6.233-1.086-9.3-1.875a86.653,86.653,0,0,0-8.87-2.041C499.43,3212.161,499.741,3211.054,500.466,3211.161Z" transform="translate(-478.717 -2927.846)" fill="#19161d"/>
        <path id="Trazado_121356" data-name="Trazado 121356" d="M1771.164,2154.929a33.781,33.781,0,0,1,4.3,6.821c.332.66-.659,1.242-.992.58a32.6,32.6,0,0,0-4.124-6.588C1769.874,2155.18,1770.683,2154.363,1771.164,2154.929Z" transform="translate(-1640.744 -1989.269)" fill="#19161d"/>
        <path id="Trazado_121357" data-name="Trazado 121357" d="M1733.112,2170.825a49.794,49.794,0,0,1,2.165,5.118c.222.709-.888,1.01-1.108.306a47.094,47.094,0,0,0-2.049-4.843C1731.824,2170.734,1732.814,2170.148,1733.112,2170.825Z" transform="translate(-1605.859 -2003.708)" fill="#19161d"/>
        <path id="Trazado_121358" data-name="Trazado 121358" d="M1255.939,2253.623c.253-1.927.73-3.817.958-5.746.086-.727,1.236-.735,1.149,0-.228,1.931-.7,3.819-.958,5.746C1256.994,2254.347,1255.843,2254.356,1255.939,2253.623Z" transform="translate(-1170.366 -2073.956)" fill="#19161d"/>
        <path id="Trazado_121359" data-name="Trazado 121359" d="M1223.754,2253.87c.3-.676,1.291-.091.992.58a10.492,10.492,0,0,0-1.262,3.924.575.575,0,0,1-1.149,0A11.945,11.945,0,0,1,1223.754,2253.87Z" transform="translate(-1139.634 -2079.666)" fill="#19161d"/>
        <path id="Trazado_121360" data-name="Trazado 121360" d="M2097.89,2997.827c1.141-2.478,2.783-4.7,3.582-7.333a.575.575,0,0,1,1.108.305c-.828,2.731-2.514,5.037-3.7,7.608C2098.573,2999.08,2097.582,2998.5,2097.89,2997.827Z" transform="translate(-1940.406 -2753.323)" fill="#19161d"/>
        <path id="Trazado_121361" data-name="Trazado 121361" d="M2048.756,2988.229a14.078,14.078,0,0,0,5.291-6.552c.262-.685,1.374-.387,1.108.306a15.406,15.406,0,0,1-5.819,7.239C2048.719,2989.635,2048.144,2988.639,2048.756,2988.229Z" transform="translate(-1895.281 -2745.272)" fill="#19161d"/>
        <path id="Trazado_121362" data-name="Trazado 121362" d="M735.846,3150.39c1.849-.4,3.719-.691,5.555-1.149a.575.575,0,0,1,.305,1.108c-1.836.459-3.706.75-5.555,1.15C735.429,3151.654,735.122,3150.547,735.846,3150.39Z" transform="translate(-694.289 -2898.873)" fill="#19161d"/>
        <path id="Trazado_121363" data-name="Trazado 121363" d="M525.654,1567.275c.276-.406.94-.023.662.387a2.05,2.05,0,0,0-.407,1.946c.436.959,2.218-.113,2.754-.394a20.5,20.5,0,0,0,4.985-3.973c1.045-1.076,2.013-2.249,2.951-3.421.653-.817,2.043-2.588.395-3.08a.383.383,0,0,1,.2-.739c1.717.512,1.512,1.977.73,3.268a28.576,28.576,0,0,1-4.228,5.013,25.03,25.03,0,0,1-3.222,2.7,8.182,8.182,0,0,1-3.654,1.746C524.74,1570.873,524.781,1568.562,525.654,1567.275Z" transform="translate(-501.898 -1443.446)" fill="#19161d"/>
        <path id="Trazado_121364" data-name="Trazado 121364" d="M518.33,1701.254a1.807,1.807,0,0,1,1.112-1.587.377.377,0,0,1,.373.1,1.585,1.585,0,0,1,.16.21,3.022,3.022,0,0,1,.269,3.2,1.186,1.186,0,0,1-.81.737c-.63.177-.852-.256-.89-.829A2.786,2.786,0,0,1,518.33,1701.254Z" transform="translate(-495.666 -1573.023)" fill="#e5578e"/>
        <path id="Trazado_121365" data-name="Trazado 121365" d="M588.7,1657.5a.815.815,0,0,1,1.3-.342,2.44,2.44,0,0,1,.307.261,2.91,2.91,0,0,1,.463.367,1.645,1.645,0,0,1,.365,1.95.735.735,0,0,1-.334.291.521.521,0,0,1-.279.184.914.914,0,0,1-.869-.353c-.053-.056-.1-.116-.155-.179a2.6,2.6,0,0,1-.465-.551A2,2,0,0,1,588.7,1657.5Z" transform="translate(-560.017 -1533.983)" fill="#09585d"/>
        <path id="Trazado_121366" data-name="Trazado 121366" d="M627,1639.947a.383.383,0,0,1,0,.766A.383.383,0,0,1,627,1639.947Z" transform="translate(-594.777 -1518.415)" fill="#09585d"/>
        <path id="Trazado_121367" data-name="Trazado 121367" d="M638.226,1625.36a.383.383,0,0,1,0,.766A.383.383,0,0,1,638.226,1625.36Z" transform="translate(-605.04 -1505.073)" fill="#09585d"/>
        <path id="Trazado_121368" data-name="Trazado 121368" d="M287.976,1366.638c.389,1.519-1.381,1.434-2.464,1.594a15.043,15.043,0,0,1-4.539-.02q-.213.939-.474,1.866c.056-.2-.614-1.252-.7-1.515a7.568,7.568,0,0,1-.362-1.772c-.083-1.012-.361-2.151.782-2.685a2.889,2.889,0,0,1,1.777-.034q2.042.407,4.049.967A2.391,2.391,0,0,1,287.976,1366.638Z" transform="translate(-277.129 -1265.973)" fill="#f6bbab"/>
        <path id="Trazado_121369" data-name="Trazado 121369" d="M344.011,1380.137a.772.772,0,0,0,.691.518,9.04,9.04,0,0,0,1.207-.016c.779-.042.652-1.061.466-1.6a.194.194,0,0,0-.008-.138.769.769,0,0,0-.852-.373,5.452,5.452,0,0,0-1.085.08C343.806,1378.8,343.8,1379.616,344.011,1380.137Zm.288-.881c.056-.262.225-.3.48-.313.279-.013.957-.146,1.195.069a.181.181,0,0,0,.011.067,1.9,1.9,0,0,1,.144.831c-.035.365-.185.34-.472.332-.393-.011-1.162.238-1.3-.285A1.576,1.576,0,0,1,344.3,1379.256Z" transform="translate(-336.161 -1279.301)" fill="#19161d"/>
        <path id="Trazado_121370" data-name="Trazado 121370" d="M414.986,1469.589c2.408.635,4.886.407,7.243,1.29.994.372,1.689-.636,2.554-1a7.756,7.756,0,0,1,3.03-.5.383.383,0,0,1,0,.766,6.411,6.411,0,0,0-3.229.688c-.74.412-1.118,1.063-2.037.9a12.487,12.487,0,0,1-1.609-.526,11.241,11.241,0,0,0-2.3-.359,23.779,23.779,0,0,1-3.852-.529A.384.384,0,0,1,414.986,1469.589Z" transform="translate(-400.758 -1362.41)" fill="#19161d"/>
        <path id="Trazado_121371" data-name="Trazado 121371" d="M297.228,1441.6c1.039,1.7,2.219,3.313,3.352,4.954a25.787,25.787,0,0,0,3,4.267c1.323,1.272,3.312,1.788,5,2.361,1.916.65,3.823,1.323,5.751,1.938.469.15.268.889-.2.739-2.021-.645-4.021-1.352-6.03-2.032a15.738,15.738,0,0,1-4.847-2.275c-1.337-1.052-2.132-2.723-3.02-4.132-1.165-1.849-2.528-3.563-3.668-5.432C296.308,1441.565,296.971,1441.181,297.228,1441.6Z" transform="translate(-292.827 -1336.832)" fill="#19161d"/>
        <path id="Trazado_121372" data-name="Trazado 121372" d="M273.378,1359.837c.618-2.169,2.906-1.813,4.581-1.316s3.875.494,4.692,2.333c.149.336-.346.628-.5.29-.645-1.451-2.323-1.579-3.693-1.89-1.461-.331-3.915-1.419-4.529.736A.288.288,0,0,1,273.378,1359.837Z" transform="translate(-271.66 -1260.665)" fill="#19161d"/>
        <path id="Trazado_121373" data-name="Trazado 121373" d="M311.934,1409.909a22.173,22.173,0,0,0,3.161.032c.368-.041.364.534,0,.575a22.245,22.245,0,0,1-3.161-.032C311.564,1410.473,311.563,1409.9,311.934,1409.909Z" transform="translate(-306.683 -1308.011)" fill="#19161d"/>
        <path id="Trazado_121374" data-name="Trazado 121374" d="M321.694,1295.6a.291.291,0,0,1,.393-.1c.111.058.224.113.337.168.243-1.536,1.177-3.008.987-4.645-.043-.368.532-.364.575,0a6.586,6.586,0,0,1-.441,2.976,5.125,5.125,0,0,0-.5,3.14.288.288,0,0,1-.554.153,3.471,3.471,0,0,1-.126-1.04.317.317,0,0,1-.125-.033c-.148-.077-.3-.146-.447-.224A.289.289,0,0,1,321.694,1295.6Z" transform="translate(-315.829 -1199.017)" fill="#19161d"/>
        <path id="Trazado_121375" data-name="Trazado 121375" d="M2577.849,2285.484a9.1,9.1,0,0,0,.235-2.529.575.575,0,0,1,1.149,0,10.222,10.222,0,0,1-.276,2.834A.575.575,0,0,1,2577.849,2285.484Z" transform="translate(-2379.433 -2106.034)" fill="#19161d"/>
        <path id="Trazado_121376" data-name="Trazado 121376" d="M2513.273,2295.218c.7-.952.446-2.179.432-3.285a.575.575,0,0,1,1.149,0c.017,1.319.249,2.731-.589,3.865C2513.83,2296.387,2512.832,2295.815,2513.273,2295.218Z" transform="translate(-2320.29 -2114.245)" fill="#19161d"/>
        <path id="Trazado_121377" data-name="Trazado 121377" d="M2450.457,2300.61c.187,1.179.713,2.267.894,3.448.111.725-1,1.036-1.108.305-.181-1.181-.707-2.269-.894-3.448C2449.233,2300.19,2450.34,2299.879,2450.457,2300.61Z" transform="translate(-2261.914 -2122.309)" fill="#19161d"/>
        <path id="Trazado_121378" data-name="Trazado 121378" d="M2307.789,1991.151a41.02,41.02,0,0,0,1.845-8.7c.173-2.806-.48-5.588-.259-8.4a13.766,13.766,0,0,1,.727-3.481,24.826,24.826,0,0,1,1.479-2.843c.57-1.133-.03-2.512-.505-3.568-.563-1.251-1.285-2.412-1.755-3.706-.169-.466.572-.664.739-.2.789,2.172,2.8,4.471,2.488,6.915a6.387,6.387,0,0,1-1.1,2.326,10.57,10.57,0,0,0-1.28,4.249c-.339,2.908.334,5.8.228,8.713a38.016,38.016,0,0,1-1.873,8.9A.383.383,0,0,1,2307.789,1991.151Z" transform="translate(-2132.429 -1811.139)" fill="#19161d"/>
        <path id="Trazado_121379" data-name="Trazado 121379" d="M2465.673,1638.594a58.121,58.121,0,0,0,1.509,11.015c.369,1.948.629,3.917.946,5.874.314,1.937.764,3.845,1.129,5.772.336,1.771.632,3.55,1,5.315a16.931,16.931,0,0,0,1.742,5.321c.8,1.336,1.874,2.474,2.629,3.845a32.291,32.291,0,0,1,2.011,4.77c.166.466-.574.666-.739.2a30.335,30.335,0,0,0-2.248-5.142c-.775-1.328-1.853-2.447-2.606-3.792a17.985,17.985,0,0,1-1.527-5c-.406-1.88-.711-3.78-1.069-5.668-.366-1.932-.807-3.844-1.122-5.786-.317-1.958-.586-3.922-.956-5.871a57.188,57.188,0,0,1-1.467-10.854A.383.383,0,0,1,2465.673,1638.594Z" transform="translate(-2276.152 -1516.839)" fill="#19161d"/>
        <path id="Trazado_121380" data-name="Trazado 121380" d="M2310.574,2291.136c.059.864.784,1.063,1.518,1.142a.2.2,0,0,0,.311.006.163.163,0,0,0,.09-.134c.552-.828,1.506-2.056.8-3.029-.433-.6-1.282-1.115-1.907-.457A4.069,4.069,0,0,0,2310.574,2291.136Zm.457-.493a5.043,5.043,0,0,1,.507-1.521c.614-1.006,1.8.231,1.57,1.074a5.9,5.9,0,0,1-.914,1.71,2.017,2.017,0,0,1-.923-.213C2310.88,2291.438,2310.944,2291.036,2311.031,2290.643Z" transform="translate(-2134.988 -2111.482)" fill="#19161d"/>
        <path id="Trazado_121381" data-name="Trazado 121381" d="M2518.81,2013.689a3.446,3.446,0,0,0,.844-1.32c.084-.23.454-.131.369.1a3.89,3.89,0,0,1-.943,1.489C2518.9,2014.133,2518.633,2013.862,2518.81,2013.689Z" transform="translate(-2325.402 -1858.932)" fill="#19161d"/>
        <path id="Trazado_121382" data-name="Trazado 121382" d="M3192.633,3140.021c2.093-2.875,1.952-6.783,4.079-9.622.694-.927,1.559-.708,2.51-.345a27.211,27.211,0,0,0,6,1.732c.483.063.489.83,0,.766a28.305,28.305,0,0,1-5.139-1.395c-.615-.2-1.216-.448-1.834-.638-.775-.238-1.155.637-1.461,1.195-1.518,2.763-1.6,6.1-3.494,8.694C3193.007,3140.8,3192.342,3140.421,3192.633,3140.021Z" transform="translate(-2941.7 -2881.055)" fill="#19161d"/>
        <path id="Trazado_121383" data-name="Trazado 121383" d="M3040.874,2741.185c.861,2.74,2.737,4.975,4,7.523,1.442,2.915,2.721,5.942,4.009,8.928a53.176,53.176,0,0,0,4.143,8.269,32.436,32.436,0,0,1,3.94,7.077c.162.469-.579.668-.739.2a32.953,32.953,0,0,0-4.031-7.151,53.632,53.632,0,0,1-4.117-8.341c-1.283-2.975-2.571-5.979-4.007-8.883-1.248-2.523-3.081-4.7-3.935-7.421C3039.987,2740.917,3040.727,2740.716,3040.874,2741.185Z" transform="translate(-2802.267 -2525.418)" fill="#19161d"/>
        <path id="Trazado_121384" data-name="Trazado 121384" d="M2665.934,3228.29c2.52.189,4.622-.7,7-1.3,1.12-.284,2.279-.41,3.414-.616a25.478,25.478,0,0,0,3.681-1.066c2.307-.789,4.588-1.652,6.925-2.353,2.474-.742,5.028-1.036,7.524-1.672,2.4-.611,4.726-1.456,7.081-2.2,2.232-.705,4.512-1.155,6.77-1.754,4.236-1.124,7.787-4.442,10.967-7.317.365-.33.909.21.542.542-1.616,1.462-3.289,2.858-5.03,4.169a18.816,18.816,0,0,1-5.4,3.09c-2.166.708-4.441,1.053-6.628,1.7-2.485.733-4.918,1.627-7.414,2.328s-5.05.979-7.538,1.663c-2.463.677-4.855,1.592-7.265,2.431a31.076,31.076,0,0,1-3.668,1.113c-1.245.268-2.514.4-3.756.683-1.2.273-2.327.777-3.53,1.048a12.492,12.492,0,0,1-3.674.278C2665.444,3229.02,2665.44,3228.253,2665.934,3228.29Z" transform="translate(-2459.684 -2954.382)" fill="#19161d"/>
        <path id="Trazado_121385" data-name="Trazado 121385" d="M3011.082,3258.441c2.868-1.254,5.932-.661,8.915-.23.488.071.28.809-.2.739-2.744-.4-5.678-1-8.324.153C3011.021,3259.3,3010.63,3258.639,3011.082,3258.441Z" transform="translate(-2775.528 -2998.08)" fill="#19161d"/>
        <path id="Trazado_121386" data-name="Trazado 121386" d="M3027.237,3227.759c1.917.013,3.829.187,5.747.192a.383.383,0,0,1,0,.766c-1.918,0-3.83-.178-5.747-.191A.383.383,0,0,1,3027.237,3227.759Z" transform="translate(-2790.148 -2970.706)" fill="#19161d"/>
        <path id="Trazado_121387" data-name="Trazado 121387" d="M2532.095,2657.982a50.524,50.524,0,0,0-29.566,6.416,168.1,168.1,0,0,0-13.538-31.815c9.547-1.48,19.484-3.114,27.346-8.73A365.906,365.906,0,0,0,2532.095,2657.982Z" transform="translate(-2298.181 -2418.344)" fill="#a488f5"/>
        <path id="Trazado_121388" data-name="Trazado 121388" d="M2737.762,2841.979c2.581-.242,4.164-2.4,5.653-4.352a33.27,33.27,0,0,1-2.958-6.465c-.15-.472.59-.673.739-.2a31.755,31.755,0,0,0,2.721,6.018c.095-.12.189-.239.284-.355a.381.381,0,0,1,.464-.06,27.723,27.723,0,0,0,6.223,2.748c.471.145.27.885-.2.739a28.743,28.743,0,0,1-6.124-2.662q-.119.148-.237.3c1.262,2.162,2.653,4.26,3.92,6.4a.383.383,0,0,1-.662.387c-1.217-2.053-2.542-4.071-3.761-6.142-1.6,2.058-3.27,4.155-6.06,4.416C2737.27,2842.791,2737.275,2842.024,2737.762,2841.979Z" transform="translate(-2525.384 -2607.529)" fill="#d7e4e5"/>
        <path id="Trazado_121389" data-name="Trazado 121389" d="M2632.214,2757.126c2.988-1.063,6.063-1.868,9-3.065.458-.187.655.555.2.739-2.94,1.2-6.015,2-9,3.065C2631.951,2758.031,2631.752,2757.291,2632.214,2757.126Z" transform="translate(-2428.94 -2537.412)" fill="#d7e4e5"/>
        <path id="Trazado_121390" data-name="Trazado 121390" d="M2559.893,2759.316a9.732,9.732,0,0,0,1.937,3.284,5.282,5.282,0,0,0,1.258,1.239,18.434,18.434,0,0,1,1.781.912c.619.472,1.52,1.614,2.4,1.565.669-.037,1.218-.826,1.632-1.445,1.51,1.991,2.09,4.542,3.1,6.8.2.45.862.06.661-.386-1.092-2.435-1.707-5.132-3.439-7.225.84-.17,1.683-.325,2.534-.436.483-.063.489-.83,0-.766-2.037.265-4.029.754-6.04,1.163a.32.32,0,0,0-.261.227,5.073,5.073,0,0,0-.879-.544,5.859,5.859,0,0,1-2.452-1.962,8.725,8.725,0,0,1-1.491-2.625A.383.383,0,0,0,2559.893,2759.316Zm6.956,6.061c-.273-.206-.533-.429-.8-.65.789-.162,1.576-.337,2.364-.5C2568.057,2764.778,2567.45,2765.831,2566.848,2765.377Z" transform="translate(-2363.015 -2541.812)" fill="#d7e4e5"/>
        <g id="Grupo_94074" data-name="Grupo 94074">
          <path id="Trazado_121391" data-name="Trazado 121391" d="M719.791,2394.256c1.736-3.619,3.01-7.45,4.933-10.975-1.505-1.125-3.024-2.231-4.6-3.25-.414-.267-.03-.93.387-.661,1.577,1.017,3.092,2.12,4.594,3.242.082-.141.162-.283.246-.423a.383.383,0,0,1,.662.387c-.1.165-.194.332-.289.5,1.7,1.274,3.385,2.562,5.132,3.767.4.278.021.943-.387.661-1.743-1.2-3.427-2.486-5.119-3.757-1.9,3.5-3.169,7.306-4.892,10.9C720.239,2395.088,719.578,2394.7,719.791,2394.256Z" transform="translate(-679.945 -2194.67)" fill="#8d6af2"/>
          <path id="Trazado_121392" data-name="Trazado 121392" d="M576.515,2393.821a33.725,33.725,0,0,1,4.992,1.323c1.111-2.82,2.194-5.65,3.156-8.525.156-.466.9-.266.739.2-.967,2.887-2.055,5.731-3.171,8.563,1.346.453,2.688.92,4.053,1.309a.383.383,0,0,1-.2.739c-1.391-.4-2.759-.874-4.13-1.335q-.666,1.683-1.336,3.366c-.18.454-.921.256-.739-.2q.675-1.7,1.351-3.4a33.436,33.436,0,0,0-4.915-1.3C575.825,2394.479,576.032,2393.74,576.515,2393.821Z" transform="translate(-548.496 -2201.115)" fill="#8d6af2"/>
          <path id="Trazado_121393" data-name="Trazado 121393" d="M537.889,2373.11c.979-4.479,1.561-9.059,3.065-13.408.16-.464.9-.264.739.2-1.5,4.349-2.085,8.929-3.065,13.408C538.523,2373.8,537.784,2373.592,537.889,2373.11Z" transform="translate(-513.597 -2176.497)" fill="#8d6af2"/>
          <path id="Trazado_121394" data-name="Trazado 121394" d="M491.568,2534.1c5.863,4.394,12.529,7.511,18.772,11.3a.383.383,0,0,1-.387.662c-6.242-3.791-12.909-6.908-18.772-11.3C490.79,2534.468,491.172,2533.8,491.568,2534.1Z" transform="translate(-470.735 -2336.182)" fill="#8d6af2"/>
          <path id="Trazado_121395" data-name="Trazado 121395" d="M445.959,2574.084c2.113,1.057,5.11.37,6.016,3.075.408,1.219.522,3.376,1.843,4.017a.391.391,0,0,0,.524-.137,35.159,35.159,0,0,0,2.065-3.78c.057.292.121.583.2.867.3,1.078.847,2.493,2.084,2.765.758.167,1.39-.484,2.22-.227a7.773,7.773,0,0,1,2.783,1.788c.368.327.912-.213.542-.542-1.177-1.045-2.6-2.242-4.281-2.066-.761.08-1.22.567-1.844-.218a4.3,4.3,0,0,1-.71-1.51,12.472,12.472,0,0,1-.406-2.183c.056-.134.113-.266.167-.4.157-.389.334-.82.5-1.274,3.1,1.853,6.238,3.655,9.175,5.764.4.289.784-.376.387-.662-2.979-2.139-6.169-3.956-9.317-5.835a4.73,4.73,0,0,0,.034-3.386.385.385,0,0,0-.6-.077,4.487,4.487,0,0,0-1.029,2.5,64.578,64.578,0,0,1-6.248-4.252c-.384-.3-.93.237-.542.542a67.81,67.81,0,0,0,6.7,4.538l0,.02a15.9,15.9,0,0,0-.006,2.419l-.029.065a37.635,37.635,0,0,1-2.284,4.4,4.567,4.567,0,0,1-.808-2.048,7.621,7.621,0,0,0-.958-2.523c-1.376-1.9-3.9-1.356-5.789-2.3C445.905,2573.2,445.517,2573.863,445.959,2574.084Zm11.311-.941-.248-.15a5.263,5.263,0,0,1,.455-1.8A4.872,4.872,0,0,1,457.269,2573.143Zm-.238.738c-.028.078-.056.155-.085.231,0-.088.005-.177.01-.265v-.01Z" transform="translate(-429.344 -2367.461)" fill="#8d6af2"/>
        </g>
        <path id="Trazado_121396" data-name="Trazado 121396" d="M2817.968,4107.485c1.03-1.646,3.1-2.169,4.9-2.475a11.737,11.737,0,0,1,6.988.933c.452.2.062.857-.386.662a10.906,10.906,0,0,0-6.183-.89c-1.628.234-3.722.66-4.658,2.157C2818.368,4108.289,2817.7,4107.9,2817.968,4107.485Z" transform="translate(-2599.024 -3772.921)" fill="#d7e4e5"/>
        <path id="Trazado_121397" data-name="Trazado 121397" d="M2778.356,3991.22a4.988,4.988,0,0,0,2.363.066,10.712,10.712,0,0,1,2.121-.007,13.167,13.167,0,0,1,5.247-1.222.383.383,0,0,1,0,.766,11.776,11.776,0,0,0-3.737.677,13.116,13.116,0,0,1,4.058,1.546.383.383,0,0,1-.387.662,12.807,12.807,0,0,0-5.059-1.648,31.212,31.212,0,0,0-3.238,1.775c-.423.258-.808-.4-.387-.662.677-.413,1.345-.806,2.017-1.166a7.06,7.06,0,0,1-3.2-.049C2777.7,3991.78,2777.9,3991.038,2778.356,3991.22Z" transform="translate(-2562.427 -3667.943)" fill="#d7e4e5"/>
        <path id="Trazado_121398" data-name="Trazado 121398" d="M2767.577,3927.783a10.62,10.62,0,0,1,4.244-.418,30.105,30.105,0,0,1,4.95-1.625.383.383,0,0,1,.2.739,35.563,35.563,0,0,0-3.659,1.1,23.869,23.869,0,0,1,4.426,1.356c.452.183.255.925-.2.739a20.91,20.91,0,0,0-5.6-1.526,12.658,12.658,0,0,0-3.351,2.194c-.361.336-.9-.2-.542-.542a12.633,12.633,0,0,1,2.352-1.712,9.3,9.3,0,0,0-2.618.437C2767.309,3928.674,2767.109,3927.935,2767.577,3927.783Z" transform="translate(-2552.746 -3609.102)" fill="#d7e4e5"/>
        <path id="Trazado_121399" data-name="Trazado 121399" d="M2724.047,3751.436a7.42,7.42,0,0,0,1.823,3.536,34.5,34.5,0,0,0,3.145,3.363,23.97,23.97,0,0,1,3.16,3.172,5.084,5.084,0,0,0,.545.99.385.385,0,0,0,.7-.3c-.006-.024-.013-.048-.02-.072a.417.417,0,0,0,.03-.059c1.087-2.869,1.016-6.414.618-9.418a20.733,20.733,0,0,0-.538-2.774,3.569,3.569,0,0,0-.892-1.9c-1.641-1.261-1.806,4.792-1.794,5.306a31.227,31.227,0,0,0,.486,4.508l-.058-.106a41.065,41.065,0,0,0-2.748-4.881,12.792,12.792,0,0,0-1.742-1.95c-.52-.471-1.2-1.131-1.96-1.107C2723.963,3749.776,2723.975,3750.854,2724.047,3751.436Zm8.944,9.505c-.157-.37-.334-.73-.523-1.086-.11-.491-.192-.989-.279-1.472a32.882,32.882,0,0,1-.563-4.157,16.069,16.069,0,0,1,.243-4.409,3.179,3.179,0,0,1,.36-1.15.674.674,0,0,1,.086.133,3.14,3.14,0,0,1,.171.373,15.817,15.817,0,0,1,.874,4.391A22.456,22.456,0,0,1,2732.99,3760.941Zm-7.86-10.352a10.2,10.2,0,0,1,3.6,3.987c.753,1.316,1.395,2.692,2.149,4.007.143.249.288.5.432.749-1.1-1.1-2.338-2.094-3.38-3.19a15.207,15.207,0,0,1-2.564-3.262C2725.231,3752.629,2724.3,3750.15,2725.131,3750.589Z" transform="translate(-2513.147 -3446.367)" fill="#d7e4e5"/>
        <path id="Trazado_121400" data-name="Trazado 121400" d="M465.239,4311.917c1.11.415,2.249.736,3.39,1.046a12.536,12.536,0,0,0-1.847-1.811c-.389-.3.157-.842.542-.542a14.778,14.778,0,0,1,2.588,2.7,26.023,26.023,0,0,1,4.486,1.58c.445.215.056.876-.387.662a21.528,21.528,0,0,0-3.358-1.247c.08.111.16.221.24.333,1.045,1.459,2.467,2.692,3.042,4.439.155.471-.585.671-.739.2-.516-1.566-1.818-2.7-2.777-4-.33-.446-.656-.889-.987-1.323-1.476-.4-2.962-.774-4.4-1.31C464.577,4312.484,464.776,4311.744,465.239,4311.917Z" transform="translate(-446.733 -3961.056)" fill="#d7e4e5"/>
        <path id="Trazado_121401" data-name="Trazado 121401" d="M415.67,4375.374a11.646,11.646,0,0,1,2.507.292c-.585-.67-1.24-1.3-1.884-1.936a.383.383,0,0,1,.542-.542,24.783,24.783,0,0,1,2.594,2.82,17.259,17.259,0,0,1,3.458,1.59.383.383,0,0,1-.387.662,17.382,17.382,0,0,0-2.4-1.2,6.923,6.923,0,0,1,.667,1.785c.106.481-.633.687-.739.2a6.723,6.723,0,0,0-1.068-2.389,11.377,11.377,0,0,0-3.287-.523A.383.383,0,0,1,415.67,4375.374Z" transform="translate(-401.48 -4018.27)" fill="#d7e4e5"/>
        <path id="Trazado_121402" data-name="Trazado 121402" d="M543.785,4168.225a.348.348,0,0,0,.152.3c-.047.379.543.633.709.243l.028-.064a.347.347,0,0,0,.4-.081,30.809,30.809,0,0,0,5.633-7.892c.839-1.672,2.143-4.1,1.312-5.983a.375.375,0,0,0-.433-.176c-2.062.869-3.045,3.149-3.84,5.093-.424,1.038-.866,2.069-1.313,3.1a14.552,14.552,0,0,0,.385-3c.011-.761.02-2.115-.8-2.53a.907.907,0,0,0-1.26.336c-.928,1.447-.848,3.745-.918,5.39C543.766,4164.714,543.781,4166.468,543.785,4168.225Zm2.2-7.426a30.3,30.3,0,0,1-1.451,5.731,28.893,28.893,0,0,1,.53-7.643c.053-.2.286-1.2.571-.992C546.34,4158.416,546.066,4160.063,545.982,4160.8Zm-.69,6.488c.93-2.1,1.908-4.179,2.753-6.31.725-1.828,1.56-4.48,3.425-5.507a5.42,5.42,0,0,1-.535,2.9,24.286,24.286,0,0,1-1.425,3A30.784,30.784,0,0,1,545.291,4167.287Z" transform="translate(-518.995 -3818.4)" fill="#d7e4e5"/>
        <path id="Trazado_121403" data-name="Trazado 121403" d="M327.41,4492.656c4.827-.283,7.321,5.149,9.4,8.618a.383.383,0,0,1-.662.387c-1.925-3.216-4.249-8.5-8.736-8.238C326.916,4493.452,326.919,4492.686,327.41,4492.656Z" transform="translate(-320.754 -4127.635)" fill="#d7e4e5"/>
        <path id="Trazado_121404" data-name="Trazado 121404" d="M763.448,4289.832c.179-.455.92-.257.739.2a21.4,21.4,0,0,0-1.548,7.213,26.868,26.868,0,0,0,1.037,7.524.383.383,0,0,1-.739.2,29.673,29.673,0,0,1-1.069-7.4A21.156,21.156,0,0,1,763.448,4289.832Z" transform="translate(-718.469 -3941.896)" fill="#d7e4e5"/>
        <path id="Trazado_121405" data-name="Trazado 121405" d="M2844.091,3614.616c2.354,2.37,5.974,3.181,9.179,3.591.483.062.489.828,0,.766-3.41-.436-7.212-1.29-9.721-3.815A.383.383,0,0,1,2844.091,3614.616Z" transform="translate(-2622.374 -3324.441)" fill="#d7e4e5"/>
        <path id="Trazado_121406" data-name="Trazado 121406" d="M2864.919,3680.763a25,25,0,0,0,3.455-.152,7.548,7.548,0,0,0,3.33-2.016c1.769-1.663,2.646-4.241,3.5-6.448a45.087,45.087,0,0,0,2.922-14.513,119.309,119.309,0,0,0-.182-13.834,36.465,36.465,0,0,0-3.393-13.8c-.222-.44.439-.828.662-.386a37.452,37.452,0,0,1,3.473,13.857,110.779,110.779,0,0,1,.137,15.529,41.122,41.122,0,0,1-3.5,14.915,13.946,13.946,0,0,1-3.791,5.844,8.3,8.3,0,0,1-2.953,1.586,17.589,17.589,0,0,1-3.658.179C2864.426,3681.563,2864.429,3680.8,2864.919,3680.763Z" transform="translate(-2641.686 -3338.089)" fill="#09585d"/>
        <path id="Trazado_121407" data-name="Trazado 121407" d="M275.712,4478.028c.078-.486.817-.279.739.2-.246,1.527.991,3.339,2.176,4.181,1.515,1.075,4.126-.268,5.68-.744,4.511-1.384,9.1-2.515,13.565-4.034,2.188-.744,4.3-1.676,6.452-2.5,2.323-.89,4.689-1.662,6.965-2.67,1.972-.874,3.926-1.779,5.931-2.579a26.624,26.624,0,0,0,5.661-2.684c.4-.286.787.379.387.662a25.658,25.658,0,0,1-5.57,2.653c-2.4.943-4.723,2.074-7.1,3.076-2.435,1.025-4.962,1.819-7.411,2.809-2.487,1.005-4.968,1.96-7.53,2.765-2.422.761-4.872,1.432-7.315,2.124-2.334.662-4.643,1.507-7,2.064a3.792,3.792,0,0,1-4.168-1.255A5.312,5.312,0,0,1,275.712,4478.028Z" transform="translate(-273.767 -4104.297)" fill="#09585d"/>
      </g>
      <path id="Trazado_121408" data-name="Trazado 121408" d="M1066.749,792.608a1.315,1.315,0,0,0,.712.181c.313-.068.461-.417.69-.641a1.577,1.577,0,0,1,1.439-.275c.586.128,1.627.9,2.152.395a3.756,3.756,0,0,1-1.3,2.584,3.906,3.906,0,0,1-2.771.941,4.646,4.646,0,0,1-1.41-.328,5.825,5.825,0,0,1-2.111-1.434c.772-.1.9-.836,1.478-1.236a1.253,1.253,0,0,1,1-.226C1066.669,792.579,1066.709,792.593,1066.749,792.608Z" transform="translate(-741.564 -526.641)" fill="#f37cb2"/>
      <path id="Trazado_121409" data-name="Trazado 121409" d="M1051.026,781.939a5.563,5.563,0,0,0,4.513.526,6.387,6.387,0,0,0,4.157-2.943c.256-.421.919-.037.662.387a7.189,7.189,0,0,1-4.351,3.226c-1.689.487-3.891.558-5.368-.535C1050.247,782.31,1050.628,781.645,1051.026,781.939Z" transform="translate(-729.058 -515.229)" fill="#19161d"/>
    </g>
    <rect id="Rectángulo_34864" data-name="Rectángulo 34864" width="40.647" height="40.647" rx="8" transform="matrix(0.985, 0.174, -0.174, 0.985, 1132.058, 12772.027)" fill="#26d19e"/>
    <rect id="Rectángulo_34865" data-name="Rectángulo 34865" width="59.647" height="59.647" rx="8" transform="matrix(0.985, 0.174, -0.174, 0.985, 1333.708, 12465)" fill="#21155c"/>
    <circle id="Elipse_5584" data-name="Elipse 5584" cx="20.512" cy="20.512" r="20.512" transform="translate(1325 12997)" fill="#764cf0"/>
    <circle id="Elipse_5585" data-name="Elipse 5585" cx="10" cy="10" r="10" transform="translate(1301 12485.098)" fill="#764cf0"/>
    <circle id="Elipse_5586" data-name="Elipse 5586" cx="7" cy="7" r="7" transform="translate(1356.025 12538.098)" fill="#ffd41c"/>
    <path id="Trazado_121410" data-name="Trazado 121410" d="M690.2-25.236c-6.735-3.175-13.5-6.251-20.229-9.3C636.3-49.813,601.5-65.612,575.575-93.012a142.043,142.043,0,0,1-36.931-76.906,135.081,135.081,0,0,1,.943-44.946h-5.012a140.028,140.028,0,0,0-.8,45.643A147.043,147.043,0,0,0,572-89.632c26.587,28.1,61.845,44.1,95.938,59.573C675.344-26.7,682.8-23.316,690.2-19.78Z" transform="translate(790.072 13286.178) rotate(-30)" fill="#764cf0"/>
  </g>
</svg>
