<svg id="comprador_1_" data-name="comprador (1)" xmlns="http://www.w3.org/2000/svg" width="92.001" height="92.002" viewBox="0 0 92.001 92.002">
  <path id="Trazado_121219" data-name="Trazado 121219" d="M50.738,102.052H24.613A4.854,4.854,0,0,1,19.759,97.2V81.293a5.986,5.986,0,0,1,5.986-5.986h10.3a3.043,3.043,0,0,1,2.535,1.359,3.044,3.044,0,0,0,4.791.358l.649-.717a3.044,3.044,0,0,1,2.256-1h3.332a5.986,5.986,0,0,1,5.986,5.986V97.2a4.854,4.854,0,0,1-4.854,4.854Z" transform="translate(-16.209 -61.775)" fill="#738b95"/>
  <g id="Grupo_94050" data-name="Grupo 94050" transform="translate(29.742 13.532)">
    <path id="Trazado_121220" data-name="Trazado 121220" d="M169.172,75.307h-3.332a3.03,3.03,0,0,0-.324.017,5.985,5.985,0,0,1,5.55,5.968V97.2a4.854,4.854,0,0,1-4.854,4.854h4.09a4.854,4.854,0,0,0,4.854-4.854V81.293A5.985,5.985,0,0,0,169.172,75.307Z" transform="translate(-165.517 -75.307)" fill="#617881"/>
  </g>
  <path id="Trazado_121221" data-name="Trazado 121221" d="M46.236,341.513H9a1.5,1.5,0,0,1-1.5-1.5V325.364A19.554,19.554,0,0,1,27.054,305.81h1.13a19.554,19.554,0,0,1,19.554,19.554v14.647a1.5,1.5,0,0,1-1.5,1.5Z" transform="translate(-6.152 -250.859)" fill="#80b4fb"/>
  <path id="Trazado_121222" data-name="Trazado 121222" d="M109.851,305.81h-1.13c-.561,0-1.116.025-1.665.071a19.555,19.555,0,0,1,17.889,19.483v16.149H127.9a1.5,1.5,0,0,0,1.5-1.5V325.364A19.554,19.554,0,0,0,109.851,305.81Z" transform="translate(-87.819 -250.859)" fill="#61a2f9"/>
  <path id="Trazado_121223" data-name="Trazado 121223" d="M96.645,257.758a5,5,0,0,1-5-5V239.72h10v13.039A5,5,0,0,1,96.645,257.758Z" transform="translate(-75.178 -196.645)" fill="#e2a770"/>
  <path id="Trazado_121224" data-name="Trazado 121224" d="M61.545,155.262a12.687,12.687,0,0,1-12.688-12.687V129.887c6.533-.269,12.446-.93,14.918-3.763,2.2,3.122,5.89,4.084,10.457,3.763v12.688A12.687,12.687,0,0,1,61.545,155.262Z" transform="translate(-40.078 -103.461)" fill="#f1d0a5"/>
  <path id="Trazado_121225" data-name="Trazado 121225" d="M119.282,146.559v12.778a12.69,12.69,0,0,1-10.727,12.536A12.695,12.695,0,0,0,123.2,159.337V146.65A19.111,19.111,0,0,1,119.282,146.559Z" transform="translate(-89.049 -120.224)" fill="#f1b986"/>
  <path id="Trazado_121226" data-name="Trazado 121226" d="M67.98,428.427H46.7l-2.94-14.869a1.5,1.5,0,0,1,1.475-1.8H69.445a1.5,1.5,0,0,1,1.475,1.8Z" transform="translate(-35.874 -337.773)" fill="#738b95"/>
  <path id="Trazado_121227" data-name="Trazado 121227" d="M163.253,411.764h-3.7a1.5,1.5,0,0,1,1.475,1.8l-2.94,14.869h3.7l2.94-14.869A1.5,1.5,0,0,0,163.253,411.764Z" transform="translate(-129.682 -337.774)" fill="#617881"/>
  <path id="Trazado_121228" data-name="Trazado 121228" d="M105.66,445.43l-1.4-2.02a1.377,1.377,0,0,1,0-1.568l1.4-2.02a1.376,1.376,0,0,1,2.263,0l1.4,2.02a1.377,1.377,0,0,1,0,1.568l-1.4,2.02A1.376,1.376,0,0,1,105.66,445.43Z" transform="translate(-85.325 -360.305)" fill="#f9f6f9"/>
  <path id="Trazado_121229" data-name="Trazado 121229" d="M299.9,7.5H265.82a2.3,2.3,0,0,0-2.3,2.3V26.707a1.153,1.153,0,0,1-.765,1.086l-4.111,1.469a1.153,1.153,0,0,0,0,2.172l4.111,1.469a1.153,1.153,0,0,1,.765,1.086V36.61a2.3,2.3,0,0,0,2.3,2.3H299.9a2.3,2.3,0,0,0,2.3-2.3V9.8A2.3,2.3,0,0,0,299.9,7.5Z" transform="translate(-211.544 -6.152)" fill="#ffe07d"/>
  <path id="Trazado_121230" data-name="Trazado 121230" d="M473.756,7.5h-3.935a2.3,2.3,0,0,1,2.3,2.3V36.61a2.3,2.3,0,0,1-2.3,2.3h3.935a2.3,2.3,0,0,0,2.3-2.3V9.8A2.3,2.3,0,0,0,473.756,7.5Z" transform="translate(-385.399 -6.152)" fill="#ffd064"/>
  <path id="Trazado_121231" data-name="Trazado 121231" d="M372.5,75.5H360.3a1.008,1.008,0,0,1-.994-1.179l1.884-10.941a1.008,1.008,0,0,1,.993-.837h8.435a1.008,1.008,0,0,1,.994.837l1.884,10.941A1.008,1.008,0,0,1,372.5,75.5Z" transform="translate(-294.73 -51.305)" fill="#80b4fb"/>
  <path id="Trazado_121232" data-name="Trazado 121232" d="M409.634,74.323l-1.883-10.941a1.008,1.008,0,0,0-.993-.837h-3.41a1.008,1.008,0,0,1,.994.837l1.884,10.941a1.008,1.008,0,0,1-.993,1.179h3.41A1.008,1.008,0,0,0,409.634,74.323Z" transform="translate(-330.87 -51.306)" fill="#61a2f9"/>
  <g id="Grupo_94051" data-name="Grupo 94051" transform="translate(0)">
    <path id="Trazado_121233" data-name="Trazado 121233" d="M27.813,110.034V107.25A14.079,14.079,0,0,0,35.285,97.2a6.21,6.21,0,0,0,5.446-6.155V75.138A7.342,7.342,0,0,0,33.4,67.8H30.065a4.4,4.4,0,0,0-3.255,1.443l-.649.717a1.7,1.7,0,0,1-2.669-.2A4.382,4.382,0,0,0,19.835,67.8H9.536A7.342,7.342,0,0,0,2.2,75.137v6.755a1.348,1.348,0,0,0,2.7,0V75.137A4.643,4.643,0,0,1,9.536,70.5h10.3a1.692,1.692,0,0,1,1.412.757,4.391,4.391,0,0,0,6.912.517l.649-.717a1.7,1.7,0,0,1,1.257-.558H33.4a4.643,4.643,0,0,1,4.638,4.638V91.043A3.512,3.512,0,0,1,35.5,94.412V82.046A1.348,1.348,0,0,0,34.06,80.7c-4.49.315-7.52-.73-9.261-3.2a1.347,1.347,0,0,0-2.116-.109c-1.221,1.4-3.835,2.885-13.959,3.3a1.347,1.347,0,0,0-1.292,1.346V94.412A3.512,3.512,0,0,1,4.9,91.043V87.281a1.348,1.348,0,1,0-2.7,0v3.762A6.211,6.211,0,0,0,7.648,97.2,14.08,14.08,0,0,0,15.12,107.25v2.784A20.868,20.868,0,0,0,0,130.125v14.647a2.852,2.852,0,0,0,2.849,2.849H40.084a2.852,2.852,0,0,0,2.849-2.849V130.125a20.911,20.911,0,0,0-15.12-20.091Zm-17.686-15.3v-11.4c6.006-.309,10.653-1.034,13.432-3.1,2.123,2.21,5.17,3.274,9.247,3.221V94.734a11.34,11.34,0,0,1-22.68,0Zm11.34,14.035a14,14,0,0,0,3.651-.482v3.447a3.651,3.651,0,1,1-7.3,0v-3.447A14,14,0,0,0,21.467,108.769Zm18.771,36a.154.154,0,0,1-.154.154H33.746l2.622-13.26a2.851,2.851,0,0,0-2.8-3.4H29.524a1.348,1.348,0,1,0,0,2.7h4.047a.156.156,0,0,1,.153.186L31,144.926H11.934L9.209,131.144a.156.156,0,0,1,.153-.186H24.136a1.348,1.348,0,1,0,0-2.7H9.362a2.851,2.851,0,0,0-2.8,3.4l2.622,13.26H2.849a.154.154,0,0,1-.154-.154V130.125a18.177,18.177,0,0,1,12.518-17.3,6.347,6.347,0,0,0,12.505,0,18.325,18.325,0,0,1,8.532,5.928,18.008,18.008,0,0,1,3.987,11.372Z" transform="translate(0 -55.62)"/>
    <path id="Trazado_121234" data-name="Trazado 121234" d="M102.891,432.9a2.724,2.724,0,0,0-2.239-1.172h0a2.724,2.724,0,0,0-2.239,1.172l-1.4,2.02a2.737,2.737,0,0,0,0,3.1l1.4,2.02a2.724,2.724,0,0,0,4.478,0l1.4-2.02a2.737,2.737,0,0,0,0-3.1Zm-.816,3.588-1.4,2.02a.027.027,0,0,1-.047,0l-1.4-2.02a.029.029,0,0,1,0-.033l1.4-2.02a.022.022,0,0,1,.024-.012.022.022,0,0,1,.024.012l1.4,2.02A.029.029,0,0,1,102.075,436.492Z" transform="translate(-79.185 -354.153)"/>
    <path id="Trazado_121235" data-name="Trazado 121235" d="M80.673,206.971a1.348,1.348,0,0,0-1.348,1.348v1.288a1.348,1.348,0,0,0,2.7,0v-1.288A1.347,1.347,0,0,0,80.673,206.971Z" transform="translate(-65.071 -169.78)"/>
    <path id="Trazado_121236" data-name="Trazado 121236" d="M145.952,210.954a1.348,1.348,0,0,0,1.348-1.348v-1.288a1.348,1.348,0,1,0-2.7,0v1.288A1.348,1.348,0,0,0,145.952,210.954Z" transform="translate(-118.62 -169.78)"/>
    <path id="Trazado_121237" data-name="Trazado 121237" d="M364.465,36.319H363.9v-.447a3.656,3.656,0,0,0-7.311,0v.447h-.562a2.351,2.351,0,0,0-2.322,1.956l-1.884,10.941a2.356,2.356,0,0,0,2.322,2.755h12.2a2.356,2.356,0,0,0,2.322-2.756l-1.884-10.941a2.351,2.351,0,0,0-2.322-1.956Zm-5.178-.447a.96.96,0,0,1,1.921,0v.447h-1.921Zm-4.738,13.4,1.767-10.262h.276v.946a1.348,1.348,0,1,0,2.7,0v-.946h1.921v.946a1.348,1.348,0,1,0,2.7,0v-.946h.276l1.767,10.262Z" transform="translate(-288.578 -26.428)"/>
    <path id="Trazado_121238" data-name="Trazado 121238" d="M293.749,0h-5.6a1.348,1.348,0,1,0,0,2.7h5.6a.95.95,0,0,1,.949.949V30.458a.95.95,0,0,1-.949.949H259.668a.95.95,0,0,1-.949-.949V27.836a2.507,2.507,0,0,0-1.659-2.355l-3.6-1.286,3.6-1.286a2.506,2.506,0,0,0,1.659-2.355V3.644a.95.95,0,0,1,.949-.949h23.091a1.348,1.348,0,0,0,0-2.7H259.668a3.648,3.648,0,0,0-3.644,3.644V20.418l-3.982,1.423a2.5,2.5,0,0,0,0,4.71l3.982,1.423v2.484a3.648,3.648,0,0,0,3.644,3.644h34.081a3.648,3.648,0,0,0,3.644-3.644V3.644A3.648,3.648,0,0,0,293.749,0Z" transform="translate(-205.392)"/>
  </g>
</svg>
