<svg xmlns="http://www.w3.org/2000/svg" xmlns:xlink="http://www.w3.org/1999/xlink" width="78" height="78" viewBox="0 0 78 78">
  <defs>
    <clipPath id="clip-path">
      <rect id="Rectángulo_34793" data-name="Rectángulo 34793" width="78" height="78" transform="translate(1286 797)" fill="#26d19e"/>
    </clipPath>
  </defs>
  <g id="Enmascarar_grupo_273" data-name="Enmascarar grupo 273" transform="translate(-1286 -797)" clip-path="url(#clip-path)">
    <g id="buyer_1_" data-name="buyer (1)" transform="translate(1286 797)">
      <g id="Grupo_93934" data-name="Grupo 93934">
        <path id="Trazado_121101" data-name="Trazado 121101" d="M37.391,8.916H31.914a5.385,5.385,0,0,1,.378,1.984v6.02l-.035-.019a3.283,3.283,0,0,1,1.678,2.864v.448A3.285,3.285,0,0,1,30.65,23.5h-1.2a6.758,6.758,0,0,1-6.7,5.849H17.3A6.758,6.758,0,0,1,10.6,23.5h-1.2a3.285,3.285,0,0,1-3.285-3.285v-.448A3.283,3.283,0,0,1,7.8,16.9l-.035.019v-8h-5.1A1.523,1.523,0,0,0,1.143,10.44V54.378A1.523,1.523,0,0,0,2.666,55.9H37.391a1.523,1.523,0,0,0,1.523-1.523V10.44a1.524,1.524,0,0,0-1.523-1.523Z" fill="#d8ecfe"/>
      </g>
      <path id="Trazado_121102" data-name="Trazado 121102" d="M7.236,32.609h.381V22.966a3.281,3.281,0,0,1-1.5-2.753v-.448a3.28,3.28,0,0,1,1.5-2.753V10.44a1.516,1.516,0,0,1,.148-.652V8.916h-5.1A1.523,1.523,0,0,0,1.143,10.44V38.7A6.094,6.094,0,0,1,7.236,32.609Z" fill="#c4e2ff"/>
      <g id="Grupo_93935" data-name="Grupo 93935">
        <path id="Trazado_121103" data-name="Trazado 121103" d="M32.82,32.609H23.462v.858a3.434,3.434,0,0,1-6.868,0v-.858H7.236A6.094,6.094,0,0,0,1.143,38.7V54.378A1.523,1.523,0,0,0,2.666,55.9H37.391a1.523,1.523,0,0,0,1.523-1.523V38.7a6.094,6.094,0,0,0-6.094-6.094Z" fill="#05e39c"/>
      </g>
      <g id="Grupo_93936" data-name="Grupo 93936">
        <path id="Trazado_121104" data-name="Trazado 121104" d="M7.617,54.378V32.609H7.236A6.094,6.094,0,0,0,1.143,38.7V54.378A1.523,1.523,0,0,0,2.666,55.9H9.141A1.523,1.523,0,0,1,7.617,54.378Z" fill="#0ed290"/>
      </g>
      <g id="Grupo_93937" data-name="Grupo 93937">
        <path id="Trazado_121105" data-name="Trazado 121105" d="M22.758,29.347H17.3a6.852,6.852,0,0,1-.7-.037v4.157a3.434,3.434,0,0,0,6.868,0V29.311a6.853,6.853,0,0,1-.7.037Z" fill="#ffb09e"/>
      </g>
      <g id="Grupo_93939" data-name="Grupo 93939">
        <g id="Grupo_93938" data-name="Grupo 93938">
          <path id="Trazado_121106" data-name="Trazado 121106" d="M19.957,33.468V29.347H17.3a6.852,6.852,0,0,1-.7-.037v4.157a3.434,3.434,0,0,0,5.115,2.994,3.432,3.432,0,0,1-1.753-2.994Z" fill="#f89580"/>
        </g>
      </g>
      <g id="Grupo_93950" data-name="Grupo 93950">
        <g id="Grupo_93944" data-name="Grupo 93944">
          <g id="Grupo_93941" data-name="Grupo 93941">
            <g id="Grupo_93940" data-name="Grupo 93940">
              <path id="Trazado_121107" data-name="Trazado 121107" d="M26.315,8.878v2.534h.07a3.132,3.132,0,0,1,3.132,3.132V16.48H30.65a3.268,3.268,0,0,1,1.642.44V10.9a5.4,5.4,0,0,0-5.4-5.4H25.126a5.377,5.377,0,0,1,1.189,3.379Z" fill="#883f2e"/>
            </g>
          </g>
          <g id="Grupo_93942" data-name="Grupo 93942">
            <path id="Trazado_121108" data-name="Trazado 121108" d="M9.407,16.48h1.134V14.543a3.132,3.132,0,0,1,3.132-3.132H26.315V8.878a5.4,5.4,0,0,0-5.4-5.4H10.127A2.362,2.362,0,0,0,7.765,5.838V16.92a3.268,3.268,0,0,1,1.642-.44Z" fill="#a44f3e"/>
          </g>
          <g id="Grupo_93943" data-name="Grupo 93943">
            <path id="Trazado_121109" data-name="Trazado 121109" d="M14.168,5.838A2.362,2.362,0,0,1,16.53,3.476h-6.4A2.362,2.362,0,0,0,7.765,5.838V16.92a3.268,3.268,0,0,1,1.642-.44h1.134V14.543a3.132,3.132,0,0,1,3.132-3.132h.5Z" fill="#883f2e"/>
          </g>
        </g>
        <g id="Grupo_93947" data-name="Grupo 93947">
          <g id="Grupo_93945" data-name="Grupo 93945">
            <path id="Trazado_121110" data-name="Trazado 121110" d="M10.541,22.589V16.48H9.407a3.285,3.285,0,0,0-3.285,3.285v.448A3.285,3.285,0,0,0,9.407,23.5h1.2a6.817,6.817,0,0,1-.063-.91Z" fill="#f89580"/>
          </g>
          <g id="Grupo_93946" data-name="Grupo 93946">
            <path id="Trazado_121111" data-name="Trazado 121111" d="M30.65,16.48H29.516v6.109a6.789,6.789,0,0,1-.063.91h1.2a3.285,3.285,0,0,0,3.285-3.285v-.448A3.285,3.285,0,0,0,30.65,16.48Z" fill="#ffb09e"/>
          </g>
        </g>
        <g id="Grupo_93948" data-name="Grupo 93948">
          <path id="Trazado_121112" data-name="Trazado 121112" d="M22.758,29.347H17.3a6.758,6.758,0,0,1-6.758-6.758V14.543a3.132,3.132,0,0,1,3.132-3.132H26.385a3.132,3.132,0,0,1,3.132,3.132v8.046A6.758,6.758,0,0,1,22.758,29.347Z" fill="#ffcebf"/>
        </g>
        <g id="Grupo_93949" data-name="Grupo 93949">
          <path id="Trazado_121113" data-name="Trazado 121113" d="M14.388,22.589V14.543a3.132,3.132,0,0,1,3.132-3.132H13.672a3.132,3.132,0,0,0-3.132,3.132v8.046A6.758,6.758,0,0,0,17.3,29.347h3.847a6.758,6.758,0,0,1-6.758-6.758Z" fill="#ffb09e"/>
        </g>
      </g>
      <g id="Grupo_93951" data-name="Grupo 93951">
        <circle id="Elipse_5564" data-name="Elipse 5564" cx="4.893" cy="4.893" r="4.893" transform="translate(5.091 42.052)" fill="#fff"/>
      </g>
      <g id="Grupo_93952" data-name="Grupo 93952">
        <path id="Trazado_121114" data-name="Trazado 121114" d="M8.952,46.945a4.894,4.894,0,0,1,2.963-4.5,4.893,4.893,0,1,0,0,8.994,4.894,4.894,0,0,1-2.963-4.5Z" fill="#eaf6ff"/>
      </g>
      <g id="Grupo_93953" data-name="Grupo 93953">
        <path id="Trazado_121115" data-name="Trazado 121115" d="M75.334,43.083H44.73a1.523,1.523,0,0,1-1.523-1.523V30.527A1.523,1.523,0,0,1,44.73,29h30.6a1.523,1.523,0,0,1,1.523,1.523V41.559A1.523,1.523,0,0,1,75.334,43.083Z" fill="#d8ecfe"/>
      </g>
      <g id="Grupo_93954" data-name="Grupo 93954">
        <path id="Trazado_121116" data-name="Trazado 121116" d="M49.664,41.559V30.527A1.523,1.523,0,0,1,51.188,29H44.73a1.523,1.523,0,0,0-1.523,1.523V41.559a1.523,1.523,0,0,0,1.523,1.523h6.458A1.523,1.523,0,0,1,49.664,41.559Z" fill="#c4e2ff"/>
      </g>
      <g id="Grupo_93955" data-name="Grupo 93955">
        <path id="Trazado_121117" data-name="Trazado 121117" d="M75.334,55.9H44.73a1.523,1.523,0,0,1-1.523-1.523v-3.42a1.523,1.523,0,0,1,1.523-1.523h30.6a1.523,1.523,0,0,1,1.523,1.523v3.42A1.523,1.523,0,0,1,75.334,55.9Z" fill="#af66da"/>
      </g>
      <g id="Grupo_93956" data-name="Grupo 93956">
        <path id="Trazado_121118" data-name="Trazado 121118" d="M49.664,54.378v-3.42a1.523,1.523,0,0,1,1.523-1.523H44.73a1.523,1.523,0,0,0-1.523,1.523v3.42A1.523,1.523,0,0,0,44.73,55.9h6.458a1.523,1.523,0,0,1-1.523-1.523Z" fill="#9857bd"/>
      </g>
      <g id="Grupo_93959" data-name="Grupo 93959">
        <g id="Grupo_93957" data-name="Grupo 93957">
          <path id="Trazado_121119" data-name="Trazado 121119" d="M75.334,22.995H44.73a1.523,1.523,0,0,1-1.523-1.523V10.44A1.523,1.523,0,0,1,44.73,8.916h30.6a1.523,1.523,0,0,1,1.523,1.523V21.471A1.523,1.523,0,0,1,75.334,22.995Z" fill="#d8ecfe"/>
        </g>
        <g id="Grupo_93958" data-name="Grupo 93958">
          <path id="Trazado_121120" data-name="Trazado 121120" d="M49.664,21.471V10.44a1.523,1.523,0,0,1,1.523-1.523H44.73a1.523,1.523,0,0,0-1.523,1.523V21.471a1.523,1.523,0,0,0,1.523,1.523h6.458A1.523,1.523,0,0,1,49.664,21.471Z" fill="#c4e2ff"/>
        </g>
      </g>
      <g id="Grupo_93962" data-name="Grupo 93962">
        <g id="Grupo_93960" data-name="Grupo 93960">
          <path id="Trazado_121121" data-name="Trazado 121121" d="M75.334,74.524H2.666A1.523,1.523,0,0,1,1.143,73V61.969a1.523,1.523,0,0,1,1.523-1.523H75.334a1.523,1.523,0,0,1,1.523,1.523V73A1.524,1.524,0,0,1,75.334,74.524Z" fill="#ffe177"/>
        </g>
        <g id="Grupo_93961" data-name="Grupo 93961">
          <path id="Trazado_121122" data-name="Trazado 121122" d="M7.313,73V61.969a1.523,1.523,0,0,1,1.523-1.523H2.666a1.523,1.523,0,0,0-1.523,1.523V73a1.523,1.523,0,0,0,1.523,1.523h6.17A1.524,1.524,0,0,1,7.313,73Z" fill="#ffd15b"/>
        </g>
      </g>
      <g id="Grupo_93963" data-name="Grupo 93963">
        <path id="Trazado_121123" data-name="Trazado 121123" d="M2.666,57.044H37.391a2.669,2.669,0,0,0,2.666-2.666V46.77a1.143,1.143,0,0,0-2.285,0v7.608a.381.381,0,0,1-.381.381H2.666a.381.381,0,0,1-.381-.381V38.7a4.957,4.957,0,0,1,4.951-4.951h8.225a4.575,4.575,0,0,0,9.133,0H32.82A4.957,4.957,0,0,1,37.772,38.7v2.734a1.143,1.143,0,0,0,2.285,0v-31a2.669,2.669,0,0,0-2.666-2.666H32.637A6.55,6.55,0,0,0,26.89,4.356H25.638a6.524,6.524,0,0,0-4.724-2.023H10.127a3.508,3.508,0,0,0-3.5,3.5V7.774H2.666A2.669,2.669,0,0,0,0,10.44V54.378a2.669,2.669,0,0,0,2.666,2.666Zm23.719-44.49a1.991,1.991,0,0,1,1.989,1.989v8.046A5.622,5.622,0,0,1,22.758,28.2H17.3a5.622,5.622,0,0,1-5.616-5.616V14.543a1.991,1.991,0,0,1,1.989-1.989ZM20.028,35.759a2.294,2.294,0,0,1-2.291-2.291V30.49h4.582v2.978A2.294,2.294,0,0,1,20.028,35.759Zm17.362-25.7a.381.381,0,0,1,.381.381V33.433a7.205,7.205,0,0,0-4.951-1.966H24.6v-1.2a7.927,7.927,0,0,0,5.782-5.628h.263a4.433,4.433,0,0,0,4.428-4.428v-.448a4.421,4.421,0,0,0-1.643-3.439V10.9a6.58,6.58,0,0,0-.056-.841h4.012Zm-4.6,9.707v.448a2.145,2.145,0,0,1-2.134,2.143V17.623A2.145,2.145,0,0,1,32.793,19.766ZM31.149,10.9v4.466a4.453,4.453,0,0,0-.49-.029v-.795a4.282,4.282,0,0,0-3.2-4.138V8.878a6.515,6.515,0,0,0-.392-2.232A4.264,4.264,0,0,1,31.149,10.9ZM10.127,4.619H20.913a4.264,4.264,0,0,1,4.259,4.259v1.391h-11.5A4.279,4.279,0,0,0,9.4,14.543v.795a4.457,4.457,0,0,0-.49.029V5.838a1.221,1.221,0,0,1,1.219-1.219ZM7.264,19.766A2.145,2.145,0,0,1,9.4,17.623v4.733a2.145,2.145,0,0,1-2.134-2.143Zm-4.6-9.707H6.623v6.267a4.421,4.421,0,0,0-1.643,3.439v.448a4.433,4.433,0,0,0,4.428,4.428H9.67a7.927,7.927,0,0,0,5.782,5.628v1.2H7.236a7.205,7.205,0,0,0-4.951,1.966V10.44a.381.381,0,0,1,.381-.381Z"/>
        <path id="Trazado_121124" data-name="Trazado 121124" d="M19.26,20.779A1.143,1.143,0,1,0,20.8,19.088l-.749-.681L20.9,17.39a1.143,1.143,0,1,0-1.749-1.471l-1.563,1.858a1.142,1.142,0,0,0,.106,1.581Z"/>
        <path id="Trazado_121125" data-name="Trazado 121125" d="M15.364,19.1a1.143,1.143,0,0,0,1.143-1.143V15.873a1.143,1.143,0,1,0-2.285,0v2.084A1.143,1.143,0,0,0,15.364,19.1Z"/>
        <path id="Trazado_121126" data-name="Trazado 121126" d="M24.693,19.1a1.143,1.143,0,0,0,1.143-1.143V15.873a1.143,1.143,0,1,0-2.285,0v2.084A1.143,1.143,0,0,0,24.693,19.1Z"/>
        <path id="Trazado_121127" data-name="Trazado 121127" d="M15.441,22.258a4.648,4.648,0,0,0,9.174,0,1.143,1.143,0,0,0-2.256-.365,2.362,2.362,0,0,1-4.663,0,1.142,1.142,0,1,0-2.256.365Z"/>
        <path id="Trazado_121128" data-name="Trazado 121128" d="M3.949,46.945A6.036,6.036,0,1,0,9.984,40.91a6.043,6.043,0,0,0-6.036,6.036Zm9.786,0a3.751,3.751,0,1,1-3.751-3.751,3.755,3.755,0,0,1,3.751,3.751Z"/>
        <path id="Trazado_121129" data-name="Trazado 121129" d="M75.334,27.861H44.73a2.669,2.669,0,0,0-2.666,2.666V41.559a2.669,2.669,0,0,0,2.666,2.666h30.6A2.669,2.669,0,0,0,78,41.559V30.527a2.669,2.669,0,0,0-2.666-2.666Zm.381,13.7a.381.381,0,0,1-.381.381H44.73a.381.381,0,0,1-.381-.381V30.527a.381.381,0,0,1,.381-.381h30.6a.381.381,0,0,1,.381.381Z"/>
        <path id="Trazado_121130" data-name="Trazado 121130" d="M75.334,48.292H44.73a2.669,2.669,0,0,0-2.666,2.666v3.42a2.669,2.669,0,0,0,2.666,2.666h30.6A2.669,2.669,0,0,0,78,54.378v-3.42a2.669,2.669,0,0,0-2.666-2.666Zm.381,6.086a.381.381,0,0,1-.381.381H44.73a.381.381,0,0,1-.381-.381v-3.42a.381.381,0,0,1,.381-.381h30.6a.381.381,0,0,1,.381.381Z"/>
        <path id="Trazado_121131" data-name="Trazado 121131" d="M32.905,45.2H19.685a1.143,1.143,0,1,0,0,2.285h13.22a1.143,1.143,0,0,0,0-2.285Z"/>
        <path id="Trazado_121132" data-name="Trazado 121132" d="M19.685,49.666a1.143,1.143,0,0,0,0,2.285h9.946a1.143,1.143,0,0,0,0-2.285Z"/>
        <path id="Trazado_121133" data-name="Trazado 121133" d="M75.334,7.774H71.145a1.143,1.143,0,1,0,0,2.285h4.189a.381.381,0,0,1,.381.381V21.471a.381.381,0,0,1-.381.381H44.73a.381.381,0,0,1-.381-.381V10.44a.381.381,0,0,1,.381-.381H65.813a1.143,1.143,0,1,0,0-2.285H44.73a2.669,2.669,0,0,0-2.666,2.666V21.471a2.669,2.669,0,0,0,2.666,2.666h30.6A2.669,2.669,0,0,0,78,21.471V10.44A2.669,2.669,0,0,0,75.334,7.774Z"/>
        <path id="Trazado_121134" data-name="Trazado 121134" d="M71.878,12.5H51.619a1.143,1.143,0,0,0,0,2.285H71.878a1.143,1.143,0,0,0,0-2.285Z"/>
        <path id="Trazado_121135" data-name="Trazado 121135" d="M71.878,17.123H51.619a1.143,1.143,0,0,0,0,2.285H71.878a1.143,1.143,0,0,0,0-2.285Z"/>
        <path id="Trazado_121136" data-name="Trazado 121136" d="M48.185,34.954H62.951a1.143,1.143,0,0,0,0-2.285H48.185a1.143,1.143,0,0,0,0,2.285Z"/>
        <path id="Trazado_121137" data-name="Trazado 121137" d="M71.878,32.5H66.556a1.143,1.143,0,0,0,0,2.285h5.322a1.143,1.143,0,0,0,0-2.285Z"/>
        <path id="Trazado_121138" data-name="Trazado 121138" d="M71.878,37.3H48.185a1.143,1.143,0,0,0,0,2.285H71.878a1.143,1.143,0,0,0,0-2.285Z"/>
        <path id="Trazado_121139" data-name="Trazado 121139" d="M75.334,59.3H15.387a1.143,1.143,0,0,0,0,2.285H75.334a.381.381,0,0,1,.381.381V73a.381.381,0,0,1-.381.381H2.666A.381.381,0,0,1,2.285,73V61.969a.381.381,0,0,1,.381-.381h7.389a1.143,1.143,0,0,0,0-2.285H2.666A2.669,2.669,0,0,0,0,61.969V73a2.669,2.669,0,0,0,2.666,2.666H75.334A2.669,2.669,0,0,0,78,73V61.969A2.669,2.669,0,0,0,75.334,59.3Z"/>
        <path id="Trazado_121140" data-name="Trazado 121140" d="M70.5,66.584a1.143,1.143,0,0,0,0-2.285H63.6a1.143,1.143,0,0,0,0,2.285Z"/>
        <path id="Trazado_121141" data-name="Trazado 121141" d="M59.947,64.3H7.5a1.143,1.143,0,0,0,0,2.285H59.947a1.143,1.143,0,0,0,0-2.285Z"/>
        <path id="Trazado_121142" data-name="Trazado 121142" d="M33.516,69.859A1.143,1.143,0,0,0,34.658,71H70.5a1.143,1.143,0,0,0,0-2.285H34.658A1.143,1.143,0,0,0,33.516,69.859Z"/>
        <path id="Trazado_121143" data-name="Trazado 121143" d="M18.51,68.717a1.143,1.143,0,0,0,0,2.285H31.154a1.143,1.143,0,0,0,0-2.285Z"/>
        <circle id="Elipse_5565" data-name="Elipse 5565" cx="1.143" cy="1.143" r="1.143" transform="translate(47.042 12.503)"/>
        <circle id="Elipse_5566" data-name="Elipse 5566" cx="1.143" cy="1.143" r="1.143" transform="translate(47.042 17.123)"/>
        <circle id="Elipse_5567" data-name="Elipse 5567" cx="1.143" cy="1.143" r="1.143" transform="translate(31.762 49.666)"/>
        <circle id="Elipse_5568" data-name="Elipse 5568" cx="1.143" cy="1.143" r="1.143" transform="translate(6.353 68.716)"/>
        <circle id="Elipse_5569" data-name="Elipse 5569" cx="1.143" cy="1.143" r="1.143" transform="translate(9.712 68.716)"/>
        <circle id="Elipse_5570" data-name="Elipse 5570" cx="1.143" cy="1.143" r="1.143" transform="translate(12.975 68.716)"/>
      </g>
    </g>
  </g>
</svg>
