<svg xmlns="http://www.w3.org/2000/svg" width="1030" height="720" viewBox="0 0 1030 720"><g transform="translate(-285 -2048)"><g transform="translate(0 -16)"><rect width="1030" height="720" transform="translate(285 2064)" fill="#fff8d9"/><g transform="translate(0 17)"><line x2="610" y2="443" transform="translate(495 2104)" fill="none" stroke="#764cf0" stroke-width="10"/><line x2="610" transform="translate(495.5 2580)" fill="none" stroke="#764cf0" stroke-width="10"/><line y1="109" transform="translate(800.5 2580)" fill="none" stroke="#764cf0" stroke-width="10"/><line x1="610" y2="443" transform="translate(495 2104)" fill="none" stroke="#764cf0" stroke-width="10"/><circle cx="95" cy="95" r="95" transform="translate(705 2231)" fill="#ffd41c"/><g transform="translate(739 2265)"><path d="M105.625,71.682V79.7a46.005,46.005,0,0,1-20.646,4.875H33.646A46.005,46.005,0,0,1,13,79.7V71.682a9.762,9.762,0,0,1,2.511-6.557,10.455,10.455,0,0,1,3.607-2.511L46.491,51.671a4.907,4.907,0,0,0,3-3.681l.073.024c0,4.046,3.9,7.312,9.75,7.312s9.75-3.266,9.75-7.312l.073-.024a4.907,4.907,0,0,0,3,3.681L99.507,62.615a10.455,10.455,0,0,1,3.607,2.511,9.762,9.762,0,0,1,2.511,6.557Z" transform="translate(1.438 68.986)" fill="#fdadc8"/><path d="M58.668,30.889v2.437c0,6.728-5.46,14.625-12.187,14.625H44.043L43.97,47.9A54.308,54.308,0,0,0,51.112,25.99l.244.024h2.438a4.89,4.89,0,0,1,4.875,4.875Z" transform="translate(45.957 37.361)" fill="#faa68e"/><path d="M70.125,29V92.375l-.073.049a10.454,10.454,0,0,0-3.607-2.511L39.071,78.969a4.907,4.907,0,0,1-3-3.681A4.558,4.558,0,0,1,36,74.459V61.248A40.2,40.2,0,0,0,55.427,43.576l.073.049h2.438C64.665,43.625,70.125,35.727,70.125,29Z" transform="translate(34.5 41.688)" fill="#a65d4e"/><path d="M101.75,42.438V66.813a4.89,4.89,0,0,0-4.875-4.875H94.437l-.244-.024a46.169,46.169,0,0,0,.244-4.851c0-16.161-14.625-14.625-19.5-29.25,0,13.479-28.031,21.938-53.625,21.938v7.313a46.172,46.172,0,0,0,.244,4.851l-.244.024H18.875A4.89,4.89,0,0,0,14,66.813V42.438C14,19.55,33.646,1,57.875,1A45.052,45.052,0,0,1,88.9,13.139a40.241,40.241,0,0,1,12.846,29.3Z" transform="translate(2.875 1.437)" fill="#a65d4e"/><path d="M47.616,56.27l-.073.024c0,4.046-3.9,7.312-9.75,7.312s-9.75-3.266-9.75-7.312l-.073-.024a4.558,4.558,0,0,0,.073-.829V42.23a26.264,26.264,0,0,0,19.5,0V55.441A4.558,4.558,0,0,0,47.616,56.27Z" transform="translate(22.957 60.706)" fill="#ffcdbe"/><path d="M48.125,61.248V74.459a4.558,4.558,0,0,1-.073.829,4.907,4.907,0,0,1-3,3.681L17.681,89.913a10.454,10.454,0,0,0-3.608,2.511L14,92.375V29c0,6.727,5.46,14.625,12.188,14.625h2.438l.073-.049A40.2,40.2,0,0,0,48.125,61.248Z" transform="translate(2.875 41.688)" fill="#a65d4e"/><path d="M70.625,12c0,13.479-28.031,21.937-53.625,21.937V41.25a46.172,46.172,0,0,0,.244,4.851,54.308,54.308,0,0,0,7.142,21.913A40.2,40.2,0,0,0,43.813,85.686a26.264,26.264,0,0,0,19.5,0A40.2,40.2,0,0,0,82.739,68.014,54.308,54.308,0,0,0,89.881,46.1a46.171,46.171,0,0,0,.244-4.851C90.125,25.089,75.5,26.625,70.625,12Z" transform="translate(7.187 17.25)" fill="#ffcebf"/><path d="M28.7,47.9l-.073.049H26.188C19.46,47.952,14,40.054,14,33.327V30.889a4.89,4.89,0,0,1,4.875-4.875h2.437l.244-.024A54.308,54.308,0,0,0,28.7,47.9Z" transform="translate(2.875 37.361)" fill="#faa68e"/><path d="M70.625,12c0,13.479-28.031,21.937-53.625,21.937V41.25c25.594,0,53.625-8.458,53.625-21.937,4.548,13.65,17.567,13.236,19.3,26.232.132-1.428.2-2.871.2-4.295C90.125,25.089,75.5,26.625,70.625,12Z" transform="translate(7.188 17.25)" fill="#faa68e"/><path d="M35.356,58.732V53.857a4.875,4.875,0,0,1,4.875-4.875h7.313V42.23a26.264,26.264,0,0,1-19.5,0V55.441a4.558,4.558,0,0,1-.073.829l.073.024c0,4.046,3.9,7.313,9.75,7.313a14.459,14.459,0,0,0,1.445-.1A4.875,4.875,0,0,1,35.356,58.732Z" transform="translate(22.957 60.706)" fill="#faa68e"/><path d="M24.386,35.792l-.073.049H21.875A9.465,9.465,0,0,1,17,34.415V80.676l23.741-9.492a4.907,4.907,0,0,0,3-3.681,4.558,4.558,0,0,0,.073-.829V53.464A40.2,40.2,0,0,1,24.386,35.792Z" transform="translate(7.188 49.472)" fill="#784132"/><path d="M55.427,35.792l.073.049h2.438a9.465,9.465,0,0,0,4.875-1.426V80.676L39.071,71.185a4.907,4.907,0,0,1-3-3.681A4.558,4.558,0,0,1,36,66.675V53.464A40.2,40.2,0,0,0,55.427,35.792Z" transform="translate(34.5 49.472)" fill="#784132"/><path d="M99.641,70.881a11.189,11.189,0,0,1-2.7.332h-56.4A10.481,10.481,0,0,1,30.063,60.731V52.2L19.118,56.587A9.787,9.787,0,0,0,13,65.631V73.65a46.005,46.005,0,0,0,20.646,4.875H84.979a46.005,46.005,0,0,0,20.646-4.875V67.025a11.093,11.093,0,0,1-5.984,3.856Z" transform="translate(1.438 75.038)" fill="#d88caa"/><path d="M28.407,13.313a52.219,52.219,0,0,0,8.27,5.35h.487c17.062,0,28.468-3.062,34.91-7.958a42.657,42.657,0,0,0-3.881-4.278c-.28-.266-.595-.5-.885-.758-6.745,4.951-15.961,8.119-30.145,8.119a78.943,78.943,0,0,1-8.758-.475Z" transform="translate(23.585 8.149)" fill="#c38778"/><path d="M34.455,20.025a78.943,78.943,0,0,0,8.758.475c14.184,0,23.4-3.169,30.145-8.119A45.057,45.057,0,0,0,43.212,1,45.749,45.749,0,0,0,24.2,5.144,27.278,27.278,0,0,0,34.455,20.025Z" transform="translate(17.538 1.437)" fill="#b46e5a"/><path d="M43.831,13.313A43,43,0,0,1,22.445,5.669,42.258,42.258,0,0,0,17.677,10.7C24.053,15.553,35.312,18.6,52.1,18.663a52.219,52.219,0,0,1-8.27-5.35Z" transform="translate(8.161 8.149)" fill="#b46e5a"/><path d="M75.431,25.436c-.146-.77-.319-1.533-.509-2.286-.049-.195-.1-.388-.156-.58a39.732,39.732,0,0,0-1.285-3.959c-.068-.178-.136-.358-.207-.534a40.217,40.217,0,0,0-3.23-6.337l-.017-.027A41.924,41.924,0,0,0,67.2,7.74h0c-6.445,4.885-17.85,7.946-34.912,7.946H31.8A78.668,78.668,0,0,0,48.548,22a9.843,9.843,0,0,0,.8-3.873A22.408,22.408,0,0,0,51.5,22.755a111.542,111.542,0,0,0,23.934,2.681Z" transform="translate(28.463 11.126)" fill="#b46e5a"/><path d="M27,34H51.375s-2.437,9.75-12.187,9.75S27,34,27,34Z" transform="translate(21.563 48.875)" fill="#ff808c"/><ellipse cx="8.702" cy="3.656" rx="8.702" ry="3.656" transform="translate(52.048 85.313)" fill="#f25a6b"/><path d="M107.063,133.378v-89.5C107.063,19.683,86.288,0,60.75,0S14.438,19.683,14.438,43.875v89.5A12.131,12.131,0,0,0,12,140.663v8.024a2.438,2.438,0,0,0,1.348,2.194A48.875,48.875,0,0,0,35.088,156H86.412a48.874,48.874,0,0,0,21.74-5.119,2.438,2.438,0,0,0,1.348-2.194v-8.024a12.131,12.131,0,0,0-2.437-7.286Zm-4.875-3.859c-.119-.054-.227-.122-.351-.173L74.471,118.4a2.437,2.437,0,0,1-1.533-2.264V104.581A42.881,42.881,0,0,0,91.177,87.75h1.26a13.248,13.248,0,0,0,9.75-4.826ZM68.126,117h-.063c0,2.825-3.076,4.875-7.312,4.875s-7.312-2.05-7.312-4.875h-.063a7.769,7.769,0,0,0,.063-.863v-9.843a28.46,28.46,0,0,0,14.625,0v9.843a7.77,7.77,0,0,0,.063.863ZM19.313,68.25a2.437,2.437,0,0,1,2.438-2.437H22.3a57.825,57.825,0,0,0,5.224,16.855c-4.556-1.131-8.212-7.04-8.212-11.98Zm7.313-9.75V53.6c22.515-.436,45.094-6.888,51.7-17.735a35.77,35.77,0,0,0,8.234,8.288c4.648,3.693,8.319,6.615,8.319,14.347,0,25.106-18.018,43.875-34.125,43.875S26.625,83.606,26.625,58.5ZM99.2,65.813h.551a2.437,2.437,0,0,1,2.438,2.438v2.438c0,4.941-3.656,10.849-8.212,11.98A57.825,57.825,0,0,0,99.2,65.813ZM60.75,4.875c22.849,0,41.437,17.5,41.437,39V61.386a7.23,7.23,0,0,0-2.437-.448h-.066c.039-.814.066-1.628.066-2.437,0-10.081-5.165-14.191-10.159-18.167-3.859-3.071-7.505-5.972-9.467-11.854a2.437,2.437,0,0,0-4.748.77c0,10.389-23.919,19.5-51.187,19.5a2.438,2.438,0,0,0-2.437,2.438V58.5c0,.809.027,1.623.066,2.438H21.75a7.23,7.23,0,0,0-2.437.449V43.875C19.313,22.371,37.9,4.875,60.75,4.875ZM29.063,87.75h1.26a42.881,42.881,0,0,0,18.24,16.831v11.556a2.437,2.437,0,0,1-1.53,2.262L19.664,129.346c-.124.051-.244.119-.351.173v-46.6A13.248,13.248,0,0,0,29.063,87.75Zm75.562,59.4a43.98,43.98,0,0,1-18.213,3.973H35.088a43.979,43.979,0,0,1-18.213-3.973v-6.489a7.274,7.274,0,0,1,4.6-6.788l27.371-10.949a7.359,7.359,0,0,0,1.463-.814A12.777,12.777,0,0,0,60.75,126.75a12.777,12.777,0,0,0,10.437-4.631,7.442,7.442,0,0,0,1.462.817l27.368,10.947a7.274,7.274,0,0,1,4.607,6.781Z"/><path d="M52.812,33H28.437a2.437,2.437,0,0,0-2.364,3.03,14.93,14.93,0,0,0,29.1,0A2.437,2.437,0,0,0,52.812,33ZM40.625,42.75a9.606,9.606,0,0,1-8.473-4.875H49.1a9.606,9.606,0,0,1-8.473,4.875Z" transform="translate(20.125 47.438)"/><path d="M44.75,28.9c3.371,0,4.875,1.5,4.875,4.875H54.5a8.958,8.958,0,0,0-9.75-9.75A9.75,9.75,0,0,0,35,33.773h4.875A4.875,4.875,0,0,1,44.75,28.9Z" transform="translate(33.063 34.477)"/><path d="M35.648,33.773h4.875a9.75,9.75,0,0,0-9.75-9.75,8.958,8.958,0,0,0-9.75,9.75H25.9c0-3.371,1.5-4.875,4.875-4.875A4.875,4.875,0,0,1,35.648,33.773Z" transform="translate(12.915 34.477)"/></g><rect width="234" height="44" rx="22" transform="translate(683 2085)" fill="#a488f5"/><rect width="234" height="44" rx="22" transform="translate(683 2446)" fill="#a488f5"/><rect width="284" height="44" rx="22" transform="translate(495 2613)" fill="#ffd41c"/><rect width="284" height="44" rx="22" transform="translate(821 2613)" fill="#ffd41c"/><rect width="234" height="44" rx="22" transform="translate(395 2312)" fill="#a488f5"/><rect width="234" height="44" rx="22" transform="translate(948 2312)" fill="#a488f5"/><text transform="translate(800 2113)" fill="#12263f" font-size="16" font-family="Roboto-Bold, Roboto" font-weight="700"><tspan x="-78.176" y="0">¿Qué piensa y siente?</tspan></text><text transform="translate(800 2150)" fill="#12263f" font-size="16" font-family="Roboto-Regular, Roboto"><tspan x="-62.055" y="0">Lo que le importa</tspan><tspan x="-65.254" y="20">lo que le preocupa</tspan><tspan x="-94.648" y="40">Inquietudes y aspiraciones</tspan></text><text transform="translate(800 2514)" fill="#12263f" font-size="16" font-family="Roboto-Regular, Roboto"><tspan x="-64.129" y="0">Actitud en público</tspan><tspan x="-37.84" y="20">Apariencia</tspan><tspan x="-120.449" y="40">Comportamiento hacia los demás</tspan></text><text transform="translate(630 2685)" fill="#12263f" font-size="16" font-family="Roboto-Regular, Roboto"><tspan x="-26.363" y="0">Miedos</tspan><tspan x="-48.547" y="20">Frustraciones</tspan><tspan x="-40.305" y="40">Obstáculos</tspan></text><text transform="translate(963 2685)" fill="#12263f" font-size="16" font-family="Roboto-Regular, Roboto"><tspan x="-26.535" y="0">Deseos</tspan><tspan x="-46.172" y="20">Necesidades</tspan><tspan x="-58.434" y="40">Medida del éxito</tspan></text><text transform="translate(507 2384)" fill="#12263f" font-size="16" font-family="Roboto-Regular, Roboto"><tspan x="-84.023" y="0">lo que dicen los amigos</tspan><tspan x="-64.207" y="20">Lo que dice el jefe</tspan><tspan x="-57.715" y="40">Lo que dicen las</tspan><tspan x="-73.715" y="60">personas influyentes</tspan></text><text transform="translate(1065 2384)" fill="#12263f" font-size="16" font-family="Roboto-Regular, Roboto"><tspan x="-27.742" y="0">Entorno</tspan><tspan x="-27.348" y="20">Amigos</tspan><tspan x="-68.531" y="40">Oferta del mercado</tspan></text><text transform="translate(800 2474)" fill="#12263f" font-size="16" font-family="Roboto-Bold, Roboto" font-weight="700"><tspan x="-41.539" y="0">¿Qué hace?</tspan></text><text transform="translate(637 2641)" fill="#12263f" font-size="16" font-family="Roboto-Bold, Roboto" font-weight="700"><tspan x="-91.348" y="0">¿Cuáles son sus dolores?</tspan></text><text transform="translate(963 2641)" fill="#12263f" font-size="16" font-family="Roboto-Bold, Roboto" font-weight="700"><tspan x="-109.594" y="0">¿Cuáles son sus necesidades?</tspan></text><text transform="translate(512 2340)" fill="#12263f" font-size="16" font-family="Roboto-Bold, Roboto" font-weight="700"><tspan x="-54.301" y="0">¿Qué escucha?</tspan></text><text transform="translate(1065 2340)" fill="#12263f" font-size="16" font-family="Roboto-Bold, Roboto" font-weight="700"><tspan x="-32.645" y="0">¿Qué ve?</tspan></text><g transform="translate(0 -1946.248)"><rect width="25.647" height="25.647" rx="4" transform="matrix(0.985, 0.174, -0.174, 0.985, 700.286, 4231.29)" fill="#21155c"/><rect width="24.647" height="24.647" rx="3" transform="matrix(0.966, -0.259, 0.259, 0.966, 836.732, 4182.618)" fill="#26d19e"/><circle cx="6.012" cy="6.012" r="6.012" transform="translate(710.688 4266.211)" fill="#764cf0"/><circle cx="9.512" cy="9.512" r="9.512" transform="translate(851.825 4332.211)" fill="#21155c"/></g></g></g></g></svg>