<svg xmlns="http://www.w3.org/2000/svg" xmlns:xlink="http://www.w3.org/1999/xlink" width="33" height="33" viewBox="0 0 33 33"><defs><clipPath id="a"><rect width="33" height="33" transform="translate(-6631 7333)" fill="#fff" stroke="#707070" stroke-width="1"/></clipPath></defs><g transform="translate(6691 -9742)"><g transform="translate(-60 2409)" clip-path="url(#a)"><g transform="translate(-6631 7333)"><path d="M22.355,16.5V13.392a2.3,2.3,0,0,0-.442-1.363,2.335,2.335,0,0,0-1.155-.852l-.442-.442.085-.09,3.55-1.065a1.969,1.969,0,0,0,1.6,1.065,1.969,1.969,0,0,0,1.6-1.065l3.806,1.139a2.135,2.135,0,0,1,1.517,2.044v4.269H28.742V16.5a3.194,3.194,0,0,0-6.387,0Zm0,0" fill="#ff826e"/><path d="M10.645,14.7v1.8a3.194,3.194,0,1,0-6.387,0v.532H.532V12.764A2.135,2.135,0,0,1,2.049,10.72L5.855,9.581a1.969,1.969,0,0,0,1.6,1.065,1.969,1.969,0,0,0,1.6-1.065l3.369,1.011a5.619,5.619,0,0,0-1.772,4.1Zm0,0" fill="#ff826e"/><path d="M29.274,29.806H26.613a1.068,1.068,0,0,0-1.065,1.065V27.555a3.193,3.193,0,0,0-2.475-3.108l-3.321-.766-.021-.005a2.221,2.221,0,0,1,.415-.181l3.806-1.139a1.969,1.969,0,0,0,1.6,1.065,1.969,1.969,0,0,0,1.6-1.065l3.806,1.139a2.135,2.135,0,0,1,1.517,2.044v4.269Zm0,0" fill="#b4dd7f"/><path d="M13.253,23.68l-3.327.766a3.193,3.193,0,0,0-2.475,3.108v3.316a1.068,1.068,0,0,0-1.065-1.065H.532V25.538a2.135,2.135,0,0,1,1.517-2.044l3.806-1.139a1.969,1.969,0,0,0,1.6,1.065,1.969,1.969,0,0,0,1.6-1.065l3.806,1.139a2.221,2.221,0,0,1,.415.181Zm0,0" fill="#b4dd7f"/><path d="M11.177,32.468H7.452V27.555a3.193,3.193,0,0,1,2.475-3.108l3.327-.766,1.118-.261h4.258l1.118.271.005-.01,3.321.766a3.193,3.193,0,0,1,2.475,3.108v4.913Zm0,0" fill="#e6e9ed"/><path d="M17.565,27.677l.532,4.79H14.9l.532-4.79Zm0,0" fill="#ff826e"/><path d="M18.145,26l-.048.08-.532,1.6H15.435l-.532-1.6L14.855,26l1.645-.985Zm0,0" fill="#ff826e"/><path d="M19.731,23.675l.021.005-.005.01-.586,2.922L18.145,26,16.5,25.016l2.129-1.6Zm0,0" fill="#ccd1d9"/><path d="M13.269,23.675l1.1-.255,2.129,1.6L14.855,26l-1.017.612-.586-2.933Zm0,0" fill="#ccd1d9"/><path d="M28.742,3.726v.532H27.9a1.817,1.817,0,0,1-1.283-.532,1.817,1.817,0,0,1-1.283.532H22.355V3.726a3.194,3.194,0,1,1,6.387,0Zm0,0" fill="#b27946"/><path d="M10.645,4.258H7.67a1.817,1.817,0,0,1-1.283-.532A1.817,1.817,0,0,1,5.1,4.258H4.258V3.726a3.194,3.194,0,0,1,6.387,0Zm0,0" fill="#b27946"/><path d="M23.952,8.085a3.172,3.172,0,0,0,3.194,0v1.5a1.969,1.969,0,0,1-1.6,1.065,1.969,1.969,0,0,1-1.6-1.065Zm0,0" fill="#f0d0b4"/><path d="M27.145,8.085a3.172,3.172,0,0,1-3.194,0,3.185,3.185,0,0,1-1.6-2.762V4.258H25.33a1.817,1.817,0,0,0,1.283-.532,1.817,1.817,0,0,0,1.283.532h.846V5.323a3.164,3.164,0,0,1-.937,2.257,3.066,3.066,0,0,1-.66.505Zm0,0" fill="#f0d0b4"/><path d="M5.855,8.085l1.6.431a3.117,3.117,0,0,0,1.6-.431v1.5a1.969,1.969,0,0,1-1.6,1.065,1.969,1.969,0,0,1-1.6-1.065Zm0,0" fill="#f0d0b4"/><path d="M9.048,8.085a3.117,3.117,0,0,1-1.6.431l-1.6-.431a3.066,3.066,0,0,1-.66-.505,3.164,3.164,0,0,1-.937-2.257V4.258H5.1a1.817,1.817,0,0,0,1.283-.532,1.817,1.817,0,0,0,1.283.532h2.975V5.323a3.185,3.185,0,0,1-1.6,2.762Zm0,0" fill="#f0d0b4"/><path d="M24.484,16.5a1.817,1.817,0,0,1-1.283.532h-.846V16.5a3.194,3.194,0,1,1,6.387,0v.532H25.767a1.817,1.817,0,0,1-1.283-.532Zm0,0" fill="#b27946"/><path d="M9.8,17.032A1.817,1.817,0,0,1,8.516,16.5a1.817,1.817,0,0,1-1.283.532H4.258V16.5a3.194,3.194,0,0,1,6.387,0v.532Zm0,0" fill="#b27946"/><path d="M12.418,10.592A5.634,5.634,0,0,1,18.453,9.48,5.7,5.7,0,0,1,20.284,10.7l.474.474a2.335,2.335,0,0,1,1.155.852,2.3,2.3,0,0,1,.442,1.363v4.173c0-.069-.005-.138-.011-.208a2.178,2.178,0,0,0-2.118-1.916.528.528,0,0,0-.09-.005h-.974l-.532-1.065a6.358,6.358,0,0,1-3.518,1.065H12.865a.528.528,0,0,0-.09.005,2.178,2.178,0,0,0-2.118,1.916c-.005.069-.011.139-.011.208V14.7a5.619,5.619,0,0,1,1.772-4.1Zm0,0" fill="#fcd770"/><path d="M23.952,20.859a3.172,3.172,0,0,0,3.194,0v1.5a1.969,1.969,0,0,1-1.6,1.065,1.969,1.969,0,0,1-1.6-1.065Zm0,0" fill="#f0d0b4"/><path d="M5.855,20.859l1.6.431a3.117,3.117,0,0,0,1.6-.431v1.5a1.969,1.969,0,0,1-1.6,1.065,1.969,1.969,0,0,1-1.6-1.065Zm0,0" fill="#f0d0b4"/><path d="M9.048,20.859a3.117,3.117,0,0,1-1.6.431l-1.6-.431a3.066,3.066,0,0,1-.66-.505A3.164,3.164,0,0,1,4.258,18.1V17.032H7.233A1.817,1.817,0,0,0,8.516,16.5a1.817,1.817,0,0,0,1.283.532h.846V18.1a3.185,3.185,0,0,1-1.6,2.762Zm0,0" fill="#f0d0b4"/><path d="M23.952,20.859a3.185,3.185,0,0,1-1.6-2.762V17.032H23.2a1.817,1.817,0,0,0,1.283-.532,1.817,1.817,0,0,0,1.283.532h2.975V18.1a3.164,3.164,0,0,1-.937,2.257,3.066,3.066,0,0,1-.66.505,3.172,3.172,0,0,1-3.194,0Zm0,0" fill="#f0d0b4"/><path d="M14.371,23.419v-1.6l.048-.1a6.086,6.086,0,0,0,2.081.633,3.71,3.71,0,0,0,2.081-.633l.048.1v1.6l-2.129,1.6Zm0,0" fill="#f0d0b4"/><path d="M22.355,17.565v.005a2.127,2.127,0,0,1-2.129,2.124l-.144-.037a3.628,3.628,0,0,0,.144-1.027V15.441a2.178,2.178,0,0,1,2.118,1.916c.005.069.011.139.011.208Zm0,0" fill="#f0d0b4"/><path d="M12.774,18.629a3.628,3.628,0,0,0,.144,1.027l-.144.037a2.127,2.127,0,0,1-2.129-2.124v-.005c0-.069.005-.138.011-.208a2.178,2.178,0,0,1,2.118-1.916Zm0,0" fill="#f0d0b4"/><path d="M20.226,15.441v3.188a3.628,3.628,0,0,1-.144,1.027,3.72,3.72,0,0,1-3.582,2.7,6.086,6.086,0,0,1-2.081-.633,3.861,3.861,0,0,1-.554-.458,3.707,3.707,0,0,1-.947-1.607,3.628,3.628,0,0,1-.144-1.027V15.441a.528.528,0,0,1,.09-.005h2.246a6.358,6.358,0,0,0,3.518-1.065l.532,1.065h.974a.528.528,0,0,1,.09.005Zm0,0" fill="#f0d0b4"/><path d="M33,17.032V12.761a2.645,2.645,0,0,0-1.9-2.549L27.677,9.185V8.376a3.722,3.722,0,0,0,1.6-3.053v-1.6a3.726,3.726,0,0,0-7.452,0v1.6a3.72,3.72,0,0,0,1.6,3.053v.809L20.4,10.09A6.151,6.151,0,0,0,12.288,10L9.581,9.185V8.376a3.722,3.722,0,0,0,1.6-3.053v-1.6a3.726,3.726,0,1,0-7.452,0v1.6a3.72,3.72,0,0,0,1.6,3.053v.809L1.9,10.212A2.646,2.646,0,0,0,0,12.761v4.271H1.065V12.761A1.586,1.586,0,0,1,2.2,11.232L5.63,10.2a2.315,2.315,0,0,0,1.822.974A2.315,2.315,0,0,0,9.273,10.2l2.183.655a6.143,6.143,0,0,0-1.295,3.092A3.721,3.721,0,0,0,3.726,16.5v1.6a3.72,3.72,0,0,0,1.6,3.053v.809L1.9,22.986A2.646,2.646,0,0,0,0,25.536v4.8H6.387a.533.533,0,0,1,.532.532V33H26.081V30.871a.533.533,0,0,1,.532-.532H33v-4.8a2.645,2.645,0,0,0-1.9-2.549l-3.426-1.028V21.15a3.722,3.722,0,0,0,1.6-3.053V16.5a3.723,3.723,0,0,0-6.387-2.6v-.5a2.862,2.862,0,0,0-1.463-2.5l2.3-.691a2.192,2.192,0,0,0,3.644,0L30.8,11.232a1.586,1.586,0,0,1,1.138,1.529v4.271ZM7.452,1.065a2.664,2.664,0,0,1,2.661,2.661H7.672a1.294,1.294,0,0,1-.909-.376l-.376-.376-.376.376a1.294,1.294,0,0,1-.909.376H4.79A2.664,2.664,0,0,1,7.452,1.065ZM4.79,5.323V4.79H5.1a2.331,2.331,0,0,0,1.285-.382,2.331,2.331,0,0,0,1.285.382h2.441v.532a2.661,2.661,0,0,1-5.323,0Zm2.661,4.79a1.362,1.362,0,0,1-1.065-.679V8.892a3.694,3.694,0,0,0,2.129,0v.542a1.36,1.36,0,0,1-1.065.679Zm14.631,9.342a3.742,3.742,0,0,0,1.337,1.7v.809l-3.426,1.028a2.613,2.613,0,0,0-.33.126l-.5-.116V21.948A4.28,4.28,0,0,0,20.454,20.2a2.651,2.651,0,0,0,1.628-.747ZM16.5,22.887a4.229,4.229,0,0,0,1.6-.313v.58l-1.6,1.2-1.6-1.2v-.58a4.229,4.229,0,0,0,1.6.313Zm-2.25,1.107,1.3.974-1.335.8-.338-1.688Zm1.662,4.216h1.176l.414,3.726h-2Zm1.269-1.065H15.819l-.306-.917.987-.592.986.592Zm.272-2.178,1.3-.974.375.086-.338,1.688Zm3.955-6.329a1.6,1.6,0,0,1-.672.43,4.316,4.316,0,0,0,.023-.44V16.082a1.607,1.607,0,0,1,1.056,1.323,1.588,1.588,0,0,1-.407,1.233Zm-1.714-.01a3.194,3.194,0,0,1-6.387,0V15.968h1.807a6.845,6.845,0,0,0,3.3-.843l.421.843h.861Zm-7.429.44a1.573,1.573,0,0,1-.023-2.986v2.546a4.316,4.316,0,0,0,.023.44Zm.281,1.133a4.271,4.271,0,0,0,1.292,1.746V23l-.5.116a2.755,2.755,0,0,0-.329-.126L9.581,21.959V21.15a3.745,3.745,0,0,0,1.337-1.7,2.651,2.651,0,0,0,1.628.747ZM7.452,13.839A2.664,2.664,0,0,1,10.113,16.5H9.8a1.294,1.294,0,0,1-.909-.376l-.376-.376-.376.376a1.294,1.294,0,0,1-.909.376H4.79a2.664,2.664,0,0,1,2.661-2.661ZM4.79,18.1v-.532H7.231a2.331,2.331,0,0,0,1.285-.382,2.331,2.331,0,0,0,1.285.382h.312V18.1a2.661,2.661,0,0,1-5.323,0Zm2.661,3.726a3.7,3.7,0,0,0,1.065-.157v.542a1.36,1.36,0,0,1-1.065.679,1.362,1.362,0,0,1-1.065-.679v-.542A3.721,3.721,0,0,0,7.452,21.823ZM6.387,29.274H4.258V25.548H3.194v3.726H1.065V25.536A1.586,1.586,0,0,1,2.2,24.006L5.63,22.978a2.315,2.315,0,0,0,1.822.974,2.315,2.315,0,0,0,1.822-.974l2.018.606-1.485.342a3.709,3.709,0,0,0-2.888,3.63v.653H7.984v-.653a2.65,2.65,0,0,1,2.063-2.593l2.79-.644.627,3.138,1.114-.668.315.945-.466,4.2H11.71V27.677H10.645v4.258H7.984V30.871a1.6,1.6,0,0,0-1.6-1.6ZM30.8,24.006a1.586,1.586,0,0,1,1.138,1.529v3.739H29.806V25.548H28.742v3.726H26.613a1.6,1.6,0,0,0-1.6,1.6v1.065H22.355V27.677H21.29v4.258H18.573l-.467-4.2.315-.945,1.114.668.627-3.138,2.791.644a2.65,2.65,0,0,1,2.063,2.593v.653h1.065v-.653a3.709,3.709,0,0,0-2.888-3.63l-1.485-.342,2.018-.606a2.191,2.191,0,0,0,3.644,0Zm-4.185-1.8a1.174,1.174,0,0,1-2.129,0v-.543a3.688,3.688,0,0,0,2.129,0Zm-1.065-1.45A2.664,2.664,0,0,1,22.887,18.1v-.532H23.2a2.331,2.331,0,0,0,1.285-.382,2.331,2.331,0,0,0,1.285.382H28.21V18.1A2.664,2.664,0,0,1,25.548,20.758Zm0-6.919A2.664,2.664,0,0,1,28.21,16.5H25.769a1.294,1.294,0,0,1-.909-.376l-.376-.376-.376.376a1.294,1.294,0,0,1-.909.376h-.312a2.664,2.664,0,0,1,2.661-2.661Zm-3.726,1.642a2.8,2.8,0,0,0-1.688-.577H19.49l-.655-1.309-.5.334a5.787,5.787,0,0,1-3.221.975H12.866a2.8,2.8,0,0,0-1.688.577v-.787a5.113,5.113,0,0,1,8.728-3.616l.565.565.119.04a1.8,1.8,0,0,1,1.233,1.71ZM25.548,1.064A2.664,2.664,0,0,1,28.21,3.726H27.9a1.294,1.294,0,0,1-.909-.376l-.376-.376-.376.376a1.294,1.294,0,0,1-.909.376H22.887a2.664,2.664,0,0,1,2.661-2.661ZM22.887,5.323V4.79h2.441a2.331,2.331,0,0,0,1.285-.382A2.331,2.331,0,0,0,27.9,4.79h.312v.532a2.661,2.661,0,1,1-5.323,0Zm2.661,4.79a1.361,1.361,0,0,1-1.065-.679V8.891a3.688,3.688,0,0,0,2.129,0v.542a1.36,1.36,0,0,1-1.065.679Zm0,0"/><path d="M12.242,0h1.065V1.065H12.242Zm0,0"/><path d="M12.242,2.129h1.065V7.984H12.242Zm0,0"/><path d="M19.694,0h1.065V1.065H19.694Zm0,0"/><path d="M19.694,2.129h1.065V7.984H19.694Zm0,0"/><path d="M14.371,2.129h1.065V5.855H14.371Zm0,0"/><path d="M14.371,6.919h1.065V7.984H14.371Zm0,0"/><path d="M17.565,2.129h1.065V5.855H17.565Zm0,0"/><path d="M17.565,6.919h1.065V7.984H17.565Zm0,0"/></g></g></g></svg>