<svg xmlns="http://www.w3.org/2000/svg" xmlns:xlink="http://www.w3.org/1999/xlink" width="33" height="33" viewBox="0 0 33 33"><defs><clipPath id="a"><rect width="33" height="33" transform="translate(-6631 7142)" fill="#fff" stroke="#707070" stroke-width="1"/></clipPath></defs><g transform="translate(6691 -9551)"><g transform="translate(-60 2409)" clip-path="url(#a)"><g transform="translate(-6631 7142)"><path d="M29.879,22.784H3.121V4.751A.452.452,0,0,1,3.573,4.3H29.427a.452.452,0,0,1,.452.452V22.784Z" fill="#dfeaef"/><path d="M29.427,4.3H26.062a.452.452,0,0,1,.452.452V20.126a.532.532,0,0,1-.532.532H3.121v2.127H29.879V4.751A.452.452,0,0,0,29.427,4.3Z" fill="#bfcfd6"/><path d="M5.119,19.371V6.572A.275.275,0,0,1,5.394,6.3H27.606a.275.275,0,0,1,.275.275v12.8a.275.275,0,0,1-.275.275H5.394A.275.275,0,0,1,5.119,19.371Z" fill="#35e5e5"/><path d="M27.606,6.3H26.515V18.084a.275.275,0,0,1-.275.275H5.119v1.013a.275.275,0,0,0,.275.275H27.606a.275.275,0,0,0,.275-.275V6.572A.275.275,0,0,0,27.606,6.3Z" fill="#28cec9"/><path d="M31.889,28.7H1.111a.628.628,0,0,1-.628-.628V26.847H32.517v1.226A.628.628,0,0,1,31.889,28.7Z" fill="#6f98a3"/><path d="M32.517,26.847H.483l2.638-5.2H29.879Z" fill="#9ebecc"/><path d="M29.879,21.644H26.1l1.733,3.419a.574.574,0,0,1-.512.834H.965l-.481.949H32.517Z" fill="#86aebc"/><path d="M20.741,26.847l-.631-2.288a.427.427,0,0,0-.411-.313H13.3a.427.427,0,0,0-.411.313l-.631,2.288Z" fill="#dfeaef"/><path d="M12.521,25.9l-.262.949h8.482l-.262-.949Z" fill="#bfcfd6"/><path d="M33,26.817s0-.01,0-.014a.474.474,0,0,0-.008-.056V26.74a.469.469,0,0,0-.014-.05l0-.013q-.008-.022-.018-.043l0-.007-2.585-5.1V4.751a.937.937,0,0,0-.936-.936H3.573a.937.937,0,0,0-.936.936V21.529l-2.585,5.1,0,.007c-.007.014-.013.028-.018.043l0,.013a.491.491,0,0,0-.014.05v.005A.476.476,0,0,0,0,26.8s0,.01,0,.014,0,.02,0,.03v1.226a1.113,1.113,0,0,0,1.111,1.111H31.889A1.113,1.113,0,0,0,33,28.073V26.847C33,26.836,33,26.826,33,26.817ZM3.6,4.783H29.4V21.161H3.6ZM3.418,22.127H29.582l2.147,4.236H21.109l-.533-1.933a.913.913,0,0,0-.878-.668H13.3a.913.913,0,0,0-.878.668l-.533,1.933H1.27Zm16.688,4.236H12.894l.451-1.634h6.311Zm11.927,1.71a.145.145,0,0,1-.145.145H1.111a.145.145,0,0,1-.145-.145V27.33H32.033Z"/><path d="M27.881,13.777a.483.483,0,0,0-.483.483v4.9H5.6v-4.9a.483.483,0,0,0-.967,0v5.111a.759.759,0,0,0,.758.758H27.606a.759.759,0,0,0,.758-.758V14.261A.483.483,0,0,0,27.881,13.777Z"/><path d="M27.606,5.814H5.394a.759.759,0,0,0-.758.758v5.111a.483.483,0,0,0,.967,0v-4.9H27.4v4.9a.483.483,0,0,0,.967,0V6.572A.759.759,0,0,0,27.606,5.814Z"/></g></g></g></svg>