<svg xmlns="http://www.w3.org/2000/svg" xmlns:xlink="http://www.w3.org/1999/xlink" width="33" height="33" viewBox="0 0 33 33"><defs><clipPath id="a"><rect width="33" height="33" transform="translate(-6631 8574)" fill="#fff" stroke="#707070" stroke-width="1"/></clipPath></defs><g transform="translate(6631 -8574)"><g clip-path="url(#a)"><g transform="translate(-6631 8574)"><path d="M30.279,32.517h-1.4a.376.376,0,0,1-.376-.376V30.361h2.157v1.781a.376.376,0,0,1-.376.376Z" fill="#8d9ca8"/><path d="M4.126,32.517h-1.4a.376.376,0,0,1-.376-.376V30.361H4.5v1.781A.376.376,0,0,1,4.126,32.517Z" fill="#8d9ca8"/><path d="M30.655,30.361v1.781a.376.376,0,0,1-.376.376H29.231a.376.376,0,0,0,.376-.376V30.361Z" fill="#7a8c98"/><path d="M4.5,30.361v1.781a.376.376,0,0,1-.376.376H3.078a.376.376,0,0,0,.376-.376V30.361Z" fill="#7a8c98"/><path d="M32.273,30.361H.727a.238.238,0,0,1-.238-.238v-1.4a.238.238,0,0,1,.238-.238H32.273a.238.238,0,0,1,.238.238v1.4A.238.238,0,0,1,32.273,30.361Z" fill="#8d9ca8"/><path d="M32.511,28.721v1.4a.237.237,0,0,1-.238.238H30.986a.237.237,0,0,0,.238-.238v-1.4a.237.237,0,0,0-.238-.238h1.287A.237.237,0,0,1,32.511,28.721Z" fill="#7a8c98"/><path d="M30.5,28.483h-14v-14H30a.5.5,0,0,1,.5.5Z" fill="#fccd7f"/><path d="M30.5,14.979V28.484H29.236V14.979a.5.5,0,0,0-.5-.5H30A.5.5,0,0,1,30.5,14.979Z" fill="#fbc56d"/><path d="M23.5,14.483H21.829V18.2a.294.294,0,0,0,.429.262l1.108-.568a.3.3,0,0,1,.269,0l1.108.568a.294.294,0,0,0,.429-.262V14.483Z" fill="#d8aa5e"/><path d="M25.172,14.483V18.2a.3.3,0,0,1-.429.262l-.835-.428V14.483Z" fill="#c99c56"/><path d="M25.858,26.129H21.142a.284.284,0,0,1-.284-.284V23.822a.284.284,0,0,1,.284-.284h4.717a.284.284,0,0,1,.284.284v2.024A.284.284,0,0,1,25.858,26.129Z" fill="#d8aa5e"/><path d="M26.142,23.822v2.024a.284.284,0,0,1-.284.284H24.569a.284.284,0,0,0,.284-.284V23.822a.284.284,0,0,0-.284-.284h1.289A.284.284,0,0,1,26.142,23.822Z" fill="#c99c56"/><path d="M23.5,14.483H9.5V.978a.5.5,0,0,1,.5-.5H23a.5.5,0,0,1,.5.5Z" fill="#fccd7f"/><path d="M23.5.978V14.483H22.235V.978a.5.5,0,0,0-.5-.5H23A.5.5,0,0,1,23.5.978Z" fill="#fbc56d"/><path d="M16.5.483H14.829V4.2a.294.294,0,0,0,.429.262l1.108-.568a.3.3,0,0,1,.269,0l1.108.568a.294.294,0,0,0,.429-.262V.483Z" fill="#d8aa5e"/><path d="M18.172.483V4.2a.3.3,0,0,1-.429.262l-.835-.428V.483Z" fill="#c99c56"/><path d="M18.858,12.129H14.142a.284.284,0,0,1-.284-.284V9.821a.284.284,0,0,1,.284-.284h4.717a.284.284,0,0,1,.284.284v2.024A.284.284,0,0,1,18.858,12.129Z" fill="#d8aa5e"/><path d="M19.142,9.821v2.024a.284.284,0,0,1-.284.284H17.569a.284.284,0,0,0,.284-.284V9.821a.284.284,0,0,0-.284-.284h1.289A.284.284,0,0,1,19.142,9.821Z" fill="#c99c56"/><path d="M16.5,28.483H2.5v-13.5a.5.5,0,0,1,.5-.5H16.5Z" fill="#fccd7f"/><path d="M16.5,14.483v14H15.235V14.979a.5.5,0,0,0-.5-.5Z" fill="#fbc56d"/><path d="M9.5,14.483H7.828V18.2a.294.294,0,0,0,.429.262l1.108-.568a.3.3,0,0,1,.269,0l1.108.568a.294.294,0,0,0,.429-.262V14.483Z" fill="#d8aa5e"/><path d="M11.172,14.483V18.2a.3.3,0,0,1-.429.262l-.835-.428V14.483Z" fill="#c99c56"/><path d="M11.858,26.129H7.142a.284.284,0,0,1-.284-.284V23.822a.284.284,0,0,1,.284-.284h4.717a.284.284,0,0,1,.284.284v2.024A.284.284,0,0,1,11.858,26.129Z" fill="#d8aa5e"/><path d="M12.142,23.822v2.024a.284.284,0,0,1-.284.284H10.569a.284.284,0,0,0,.284-.284V23.822a.284.284,0,0,0-.284-.284h1.289A.284.284,0,0,1,12.142,23.822Z" fill="#c99c56"/><path d="M18.858,12.612a.767.767,0,0,0,.766-.767V9.821a.767.767,0,0,0-.766-.766H14.142a.767.767,0,0,0-.767.766v2.024a.767.767,0,0,0,.767.767Zm-4.517-2.591h4.318v1.626H14.341Z"/><path d="M21.142,23.055a.767.767,0,0,0-.766.766v2.024a.767.767,0,0,0,.766.766h4.717a.767.767,0,0,0,.766-.766V23.822a.767.767,0,0,0-.766-.766Zm4.517,2.591H21.341V24.021h4.318Z"/><path d="M11.858,23.055H7.142a.767.767,0,0,0-.766.766v2.024a.767.767,0,0,0,.766.766h4.717a.767.767,0,0,0,.766-.766V23.822A.767.767,0,0,0,11.858,23.055Zm-.2,2.591H7.341V24.021h4.318Z"/><path d="M32.273,28h-1.29V26.129a.483.483,0,0,0-.966,0V28H16.983V14.966h4.363V18.2a.777.777,0,0,0,1.132.692l1.022-.524,1.022.524a.777.777,0,0,0,1.132-.692V14.966H30a.013.013,0,0,1,.013.013v8.957a.483.483,0,1,0,.966,0V14.979A.979.979,0,0,0,30,14H23.983V.978A.979.979,0,0,0,23.005,0H10a.979.979,0,0,0-.978.978V3.4a.483.483,0,0,0,.966,0V.978A.013.013,0,0,1,10,.966h4.35V4.2a.776.776,0,0,0,1.132.692L16.5,4.368l1.022.524A.777.777,0,0,0,18.654,4.2V.966h4.351a.012.012,0,0,1,.012.012V14H9.983V5.592a.483.483,0,0,0-.966,0V14H3a.979.979,0,0,0-.978.978V28H.727a.721.721,0,0,0-.72.72v1.4a.721.721,0,0,0,.72.72H1.862v1.3A.86.86,0,0,0,2.721,33h1.4a.86.86,0,0,0,.859-.859v-1.3H28.015v1.3a.86.86,0,0,0,.859.859h1.4a.86.86,0,0,0,.859-.859v-1.3h1.136a.721.721,0,0,0,.72-.72v-1.4a.721.721,0,0,0-.72-.72ZM17.689,3.892l-.834-.428a.779.779,0,0,0-.709,0l-.834.428V.966h2.377Zm4.623,11.074h2.377v2.927l-.834-.428a.779.779,0,0,0-.709,0l-.834.428Zm-14,0h2.377v2.927l-.834-.428a.779.779,0,0,0-.709,0l-.834.428V14.966Zm-5.329.013A.013.013,0,0,1,3,14.966h4.35V18.2a.777.777,0,0,0,1.132.692L9.5,18.368l1.022.524a.777.777,0,0,0,1.132-.692V14.966h4.363V28H2.983ZM4.019,32.034H2.828V30.843H4.019Zm26.153,0H28.981V30.843h1.191Zm1.856-2.157H.972v-.911H32.028Z"/></g></g></g></svg>