<svg xmlns="http://www.w3.org/2000/svg" xmlns:xlink="http://www.w3.org/1999/xlink" width="85" height="141" viewBox="0 0 85 141"><defs><clipPath id="a"><rect width="67" height="67" transform="translate(189 4893)" fill="#26d19e"/></clipPath></defs><g transform="translate(-600 -19210.902)"><rect width="85" height="141" transform="translate(600 19210.902)" fill="#764cf0"/><g transform="translate(420 14354.902)" clip-path="url(#a)"><g transform="translate(187.919 4891.92)"><circle cx="15.129" cy="15.129" r="15.129" transform="translate(2.161 2.161)" fill="#e6e9ed"/><circle cx="15.129" cy="15.129" r="15.129" transform="translate(36.742 2.161)" fill="#e6e9ed"/><circle cx="15.129" cy="15.129" r="15.129" transform="translate(25.935 36.742)" fill="#e6e9ed"/><path d="M59.435,30.377v.011a15.1,15.1,0,0,1-15.129,0V28.226a5.709,5.709,0,0,1,4.323-5.533l3.242,4.323,3.242-4.323a5.709,5.709,0,0,1,4.323,5.533Z" fill="#b4dd7f"/><path d="M45.052,13.5a7.147,7.147,0,0,1-.746-3.166,3.842,3.842,0,0,1,3.847-3.847h7.435a3.837,3.837,0,0,1,3.847,3.847A7.147,7.147,0,0,1,58.69,13.5a2.124,2.124,0,0,0-1.416-.53H54.292a5.858,5.858,0,0,1-4.139-1.718,1.528,1.528,0,0,0-2.6,1.081v.638H46.468a2.124,2.124,0,0,0-1.416.53Z" fill="#656d78"/><path d="M45.387,47.548h-1.9a5.858,5.858,0,0,1-4.139-1.718,1.528,1.528,0,0,0-2.6,1.081v.638H35.661a2.124,2.124,0,0,0-1.416.53,7.147,7.147,0,0,1-.746-3.166,3.842,3.842,0,0,1,3.847-3.847h7.435a3.837,3.837,0,0,1,3.847,3.847,7.147,7.147,0,0,1-.746,3.166,2.124,2.124,0,0,0-1.416-.53Z" fill="#656d78"/><path d="M23.18,26.357a5.725,5.725,0,0,1,1.675,4.02v.011a15.1,15.1,0,0,1-15.129,0v-.011a5.719,5.719,0,0,1,4.323-5.522,3.242,3.242,0,0,0,6.484,0,5.671,5.671,0,0,1,2.648,1.5Z" fill="#ff826e"/><path d="M24.855,14.048v7.565a7.526,7.526,0,0,1-1.675,4.744,5.671,5.671,0,0,0-2.648-1.5l-.638-2.54a3.226,3.226,0,0,0,1.718-2.864V15.129h-1.9a5.858,5.858,0,0,1-4.139-1.718,1.528,1.528,0,0,0-2.6,1.081v4.96a3.226,3.226,0,0,0,1.718,2.864l-.638,2.54a5.671,5.671,0,0,0-2.648,1.5,7.526,7.526,0,0,1-1.675-4.744V14.048a7.565,7.565,0,0,1,15.129,0Z" fill="#fcd770"/><path d="M48.629,64.958v.011a15.1,15.1,0,0,1-15.129,0V62.807a5.709,5.709,0,0,1,4.323-5.533L41.065,61.6l3.242-4.323a5.709,5.709,0,0,1,4.323,5.533Z" fill="#fcd770"/><path d="M12.968,49.71V62.677L2.161,64.828V47.559Z" fill="#ff826e"/><path d="M12.968,62.677V49.71L16.6,46.8a6.458,6.458,0,0,1,4.042-1.416h8.537a1.084,1.084,0,0,1,1.081,1.081,3.247,3.247,0,0,1-3.242,3.242h-.929a15.777,15.777,0,0,0-.151,2.161A15.14,15.14,0,0,0,41.065,67H20.64A6.458,6.458,0,0,1,16.6,65.584Z" fill="#f0d0b4"/><path d="M58.8,13.605a2.113,2.113,0,0,1,.638,1.524,2.168,2.168,0,0,1-2.161,2.161H56.194V12.968h1.081a2.124,2.124,0,0,1,1.416.53A1.019,1.019,0,0,0,58.8,13.605Z" fill="#f0d0b4"/><path d="M52.952,20.532a3.279,3.279,0,0,0,1.524-.378l.638,2.54-3.242,4.323-3.242-4.323.638-2.54a3.279,3.279,0,0,0,1.524.378Z" fill="#f0d0b4"/><path d="M56.194,12.968V17.29a3.226,3.226,0,0,1-1.718,2.864,3.279,3.279,0,0,1-1.524.378H50.79a3.279,3.279,0,0,1-1.524-.378,3.226,3.226,0,0,1-1.718-2.864V12.33a1.528,1.528,0,0,1,2.6-1.081,5.858,5.858,0,0,0,4.139,1.718Z" fill="#f0d0b4"/><path d="M44.306,15.129a2.175,2.175,0,0,1,.746-1.632,2.124,2.124,0,0,1,1.416-.53h1.081V17.29H46.468a2.177,2.177,0,0,1-2.161-2.161Z" fill="#f0d0b4"/><path d="M45.387,51.871V47.548h1.081a2.124,2.124,0,0,1,1.416.53,1.018,1.018,0,0,0,.108.108,2.113,2.113,0,0,1,.638,1.524,2.168,2.168,0,0,1-2.161,2.161Z" fill="#f0d0b4"/><path d="M42.145,55.113a3.279,3.279,0,0,0,1.524-.378l.638,2.54L41.065,61.6l-3.242-4.323.638-2.54a3.279,3.279,0,0,0,1.524.378Z" fill="#f0d0b4"/><path d="M36.742,47.548v4.323H35.661A2.177,2.177,0,0,1,33.5,49.71a2.175,2.175,0,0,1,.746-1.632,2.124,2.124,0,0,1,1.416-.53Z" fill="#f0d0b4"/><path d="M45.387,47.548v4.323a3.226,3.226,0,0,1-1.718,2.864,3.279,3.279,0,0,1-1.524.378H39.984a3.279,3.279,0,0,1-1.524-.378,3.226,3.226,0,0,1-1.718-2.864v-4.96a1.528,1.528,0,0,1,2.6-1.081,5.858,5.858,0,0,0,4.139,1.718Z" fill="#f0d0b4"/><path d="M18.371,22.694a3.279,3.279,0,0,0,1.524-.378l.638,2.54a3.242,3.242,0,0,1-6.484,0l.638-2.54a3.279,3.279,0,0,0,1.524.378Z" fill="#f0d0b4"/><path d="M21.613,15.129v4.323a3.226,3.226,0,0,1-1.718,2.864,3.279,3.279,0,0,1-1.524.378H16.21a3.279,3.279,0,0,1-1.524-.378,3.226,3.226,0,0,1-1.718-2.864v-4.96a1.528,1.528,0,0,1,2.6-1.081,5.858,5.858,0,0,0,4.139,1.718Z" fill="#f0d0b4"/><path d="M17.29,33.5A16.216,16.216,0,0,0,33.445,18.371h2.27a16.218,16.218,0,1,0,0-2.161h-2.27A16.2,16.2,0,1,0,17.29,33.5ZM10.806,21.613V14.048a6.484,6.484,0,0,1,12.968,0v7.565a6.411,6.411,0,0,1-.829,3.173A6.724,6.724,0,0,0,21.432,24l-.31-1.241a4.3,4.3,0,0,0,1.571-3.307v-5.4h-2.98a4.738,4.738,0,0,1-3.373-1.4A2.609,2.609,0,0,0,11.887,14.5v4.956a4.3,4.3,0,0,0,1.571,3.307L13.148,24a6.7,6.7,0,0,0-1.513.787,6.411,6.411,0,0,1-.829-3.173Zm9.726-2.161a2.163,2.163,0,0,1-2.161,2.161H16.21a2.163,2.163,0,0,1-2.161-2.161V14.5a.448.448,0,0,1,.764-.317,6.884,6.884,0,0,0,4.9,2.031h.819ZM15.451,23.7a4.288,4.288,0,0,0,.759.077h2.161a4.289,4.289,0,0,0,.759-.077l.312,1.252a2.153,2.153,0,0,1-4.3,0ZM10.86,29.766a4.6,4.6,0,0,1,2.384-3.434,4.3,4.3,0,0,0,8.092,0,4.6,4.6,0,0,1,2.384,3.434,13.933,13.933,0,0,1-12.86,0Zm34.527-.026V28.23a4.612,4.612,0,0,1,2.846-4.263l3.637,4.851,3.637-4.851a4.612,4.612,0,0,1,2.846,4.263V29.74a13.951,13.951,0,0,1-12.968,0ZM46.468,16.21a1.081,1.081,0,1,1,0-2.161Zm.045-4.323h-.045a3.2,3.2,0,0,0-.831.121,6,6,0,0,1-.25-1.677,2.769,2.769,0,0,1,2.766-2.766h7.436a2.769,2.769,0,0,1,2.765,2.766,6.044,6.044,0,0,1-.25,1.678,3.159,3.159,0,0,0-.831-.122h-2.98a4.738,4.738,0,0,1-3.373-1.4,2.6,2.6,0,0,0-4.408,1.4Zm10.761,2.161a1.081,1.081,0,1,1,0,2.161ZM48.629,17.29V12.334a.448.448,0,0,1,.764-.317,6.884,6.884,0,0,0,4.9,2.031h.819V17.29a2.163,2.163,0,0,1-2.161,2.161H50.79A2.163,2.163,0,0,1,48.629,17.29Zm2.161,4.323h2.161a4.288,4.288,0,0,0,.759-.077l.23.921-2.069,2.758L49.8,22.457l.23-.921A4.288,4.288,0,0,0,50.79,21.613ZM51.871,3.242a14.032,14.032,0,0,1,8.645,25.1v-.11a6.779,6.779,0,0,0-4.5-6.392L55.7,20.6a4.3,4.3,0,0,0,1.418-2.226h.153A3.238,3.238,0,0,0,59.947,13.3a8.193,8.193,0,0,0,.569-2.969A4.933,4.933,0,0,0,55.588,5.4H48.154a4.933,4.933,0,0,0-4.928,4.928A8.194,8.194,0,0,0,43.8,13.3a3.211,3.211,0,0,0-.569,1.828,3.246,3.246,0,0,0,3.242,3.242h.153A4.3,4.3,0,0,0,48.039,20.6l-.31,1.241a6.779,6.779,0,0,0-4.5,6.392v.11a14.032,14.032,0,0,1,8.645-25.1Zm-34.581,0a14.03,14.03,0,0,1,8.374,25.3A6.776,6.776,0,0,0,24.549,26.3a8.671,8.671,0,0,0,1.386-4.686V14.048a8.645,8.645,0,1,0-17.29,0v7.565A8.671,8.671,0,0,0,10.032,26.3a6.735,6.735,0,0,0-1.115,2.244,14.03,14.03,0,0,1,8.374-25.3Z"/><path d="M61.6,50.79H57.219a16.191,16.191,0,0,0-30.482-6.484H20.646a7.6,7.6,0,0,0-4.726,1.657l-3.234,2.588L1.081,46.239v19.91l11.6-2.313,3.234,2.588a7.6,7.6,0,0,0,4.726,1.657h20.42A16.216,16.216,0,0,0,57.219,52.952h6.539V33.5H61.6Zm-49.71,11L3.242,63.515V48.873L11.887,50.6Zm8.758,4.128a5.418,5.418,0,0,1-3.375-1.184l-3.221-2.577V50.229l3.221-2.577a5.421,5.421,0,0,1,3.375-1.184h8.533a2.163,2.163,0,0,1-2.161,2.161H23.327l-1.659,1.659a5.372,5.372,0,0,1-3.821,1.583H16.21v2.161h1.637A7.516,7.516,0,0,0,23.2,51.816l1.026-1.026h.671c-.024.361-.038.722-.038,1.081a16.207,16.207,0,0,0,8.157,14.048Zm13.936-1.6V62.81a4.612,4.612,0,0,1,2.846-4.263L41.065,63.4,44.7,58.547a4.612,4.612,0,0,1,2.846,4.263v1.511a13.951,13.951,0,0,1-12.968,0ZM35.661,50.79a1.081,1.081,0,1,1,0-2.161Zm.045-4.323h-.045a3.2,3.2,0,0,0-.831.121,6,6,0,0,1-.25-1.677,2.77,2.77,0,0,1,2.766-2.766h7.436a2.77,2.77,0,0,1,2.766,2.766,6.044,6.044,0,0,1-.25,1.678,3.173,3.173,0,0,0-.832-.122h-2.98a4.738,4.738,0,0,1-3.373-1.4,2.6,2.6,0,0,0-4.408,1.4Zm10.761,2.161a1.081,1.081,0,1,1,0,2.161Zm-8.645,3.242V46.915a.448.448,0,0,1,.764-.317,6.884,6.884,0,0,0,4.9,2.031h.819v3.242a2.163,2.163,0,0,1-2.161,2.161H39.984A2.163,2.163,0,0,1,37.823,51.871Zm2.161,4.323h2.161a4.289,4.289,0,0,0,.759-.077l.23.921L41.065,59.8,39,57.038l.23-.921a4.288,4.288,0,0,0,.759.077Zm9.726,6.727v-.11a6.779,6.779,0,0,0-4.5-6.392l-.31-1.241a4.3,4.3,0,0,0,1.418-2.226h.153A3.238,3.238,0,0,0,49.14,47.88a8.193,8.193,0,0,0,.569-2.969,4.933,4.933,0,0,0-4.928-4.928H37.347a4.933,4.933,0,0,0-4.928,4.928,8.194,8.194,0,0,0,.569,2.97,3.211,3.211,0,0,0-.569,1.828,3.246,3.246,0,0,0,3.242,3.242h.153a4.3,4.3,0,0,0,1.418,2.226l-.31,1.241a6.779,6.779,0,0,0-4.5,6.392v.11a14.016,14.016,0,0,1-5.4-11.05c0-.36.016-.723.044-1.085a4.324,4.324,0,0,0,4.278-4.318,2.162,2.162,0,0,0-2.108-2.156A14.039,14.039,0,1,1,49.71,62.921Z"/></g></g></g></svg>