<svg xmlns="http://www.w3.org/2000/svg" xmlns:xlink="http://www.w3.org/1999/xlink" width="85" height="141" viewBox="0 0 85 141"><defs><clipPath id="a"><rect width="67" height="67" transform="translate(189 4893)" fill="#26d19e"/></clipPath></defs><g transform="translate(-1020 -19210.902)"><rect width="85" height="141" transform="translate(1020 19210.902)" fill="#764cf0"/><g transform="translate(840 14354.902)" clip-path="url(#a)"><g transform="translate(189 4893)"><path d="M27.016,14.048V29.177A10.752,10.752,0,0,0,22.877,30L17.1,16.026A25.713,25.713,0,0,1,27.016,14.048Z" fill="#ccd1d9"/><path d="M3.058,30.064l13.973,5.781a10.752,10.752,0,0,0-.821,4.139H1.081A25.713,25.713,0,0,1,3.058,30.064Z" fill="#ccd1d9"/><path d="M22.877,30a10.894,10.894,0,0,0-3.5,2.345l-10.7-10.7A25.909,25.909,0,0,1,17.1,16.026Z" fill="#ccd1d9"/><path d="M17.031,44.123,3.058,49.9a25.713,25.713,0,0,1-1.978-9.92H16.21A10.752,10.752,0,0,0,17.031,44.123Z" fill="#ccd1d9"/><path d="M8.678,21.645l10.7,10.7a10.894,10.894,0,0,0-2.345,3.5L3.058,30.064a25.909,25.909,0,0,1,5.619-8.418Z" fill="#ccd1d9"/><path d="M17.031,44.123a10.808,10.808,0,0,0,20.792-4.139H52.952A25.932,25.932,0,0,1,3.058,49.9Z" fill="#ef7385"/><path d="M17.031,35.845A10.86,10.86,0,0,1,22.877,30a10.8,10.8,0,1,1-5.846,5.846Z" fill="#fcd770"/><path d="M62.148,29.177a36.779,36.779,0,0,1,1.61,10.806H37.823A10.81,10.81,0,0,0,27.016,29.177V3.242a36.665,36.665,0,0,1,17.29,4.312v4.333a2.168,2.168,0,0,0,2.161,2.161h2.161V16.21a4.321,4.321,0,0,0,4.323,4.323,6.5,6.5,0,0,0-6.484,6.484v2.161Z" fill="#b4dd7f"/><path d="M63.758,27.016v2.161H46.468V27.016a6.466,6.466,0,0,1,2.475-5.09l2.929,2.929,3.242-4.323,3.242,4.323,2.929-2.929A6.466,6.466,0,0,1,63.758,27.016Z" fill="#ef7385"/><path d="M57.274,20.532a6.424,6.424,0,0,1,4.009,1.394l-2.929,2.929-3.242-4.323Z" fill="#ef7385"/><path d="M55.113,20.532l-3.242,4.323-2.929-2.929a6.424,6.424,0,0,1,4.009-1.394Z" fill="#ef7385"/><path d="M63.758,9.726a2.168,2.168,0,0,1,2.161,2.161,2.177,2.177,0,0,1-2.161,2.161H61.6V9.726Z" fill="#f0d0b4"/><path d="M61.6,7.565V16.21a4.321,4.321,0,0,1-4.323,4.323H52.952a4.321,4.321,0,0,1-4.323-4.323V9.315a1.749,1.749,0,0,1,2.529-1.567,18.668,18.668,0,0,0,8.278,1.978h.1A2.171,2.171,0,0,0,61.6,7.565Z" fill="#f0d0b4"/><path d="M48.629,9.726v4.323H46.468a2.168,2.168,0,0,1-2.161-2.161,2.177,2.177,0,0,1,2.161-2.161Z" fill="#f0d0b4"/><path d="M65.919,7.565v4.323a2.168,2.168,0,0,0-2.161-2.161H61.6V7.565a2.171,2.171,0,0,1-2.064,2.161h-.1a18.668,18.668,0,0,1-8.278-1.978,1.749,1.749,0,0,0-2.529,1.567v.411H46.468a2.177,2.177,0,0,0-2.161,2.161V7.554A6.487,6.487,0,0,1,50.79,1.081h8.645A6.489,6.489,0,0,1,65.919,7.565Z" fill="#fcd770"/><path d="M59.435,0H50.79a7.574,7.574,0,0,0-7.376,5.91,37.919,37.919,0,0,0-16.4-3.749H25.935V12.995a27.013,27.013,0,1,0,28.07,28.07H64.839V39.984a37.9,37.9,0,0,0-1.289-9.726h1.289V27.016a7.567,7.567,0,0,0-4.084-6.709,5.369,5.369,0,0,0,1.922-4.1V15.129h1.081A3.246,3.246,0,0,0,67,11.887V7.565A7.574,7.574,0,0,0,59.435,0ZM47.548,12.968H46.468a1.081,1.081,0,0,1,0-2.161h1.081ZM19.415,30.855l-9.183-9.183a24.967,24.967,0,0,1,6.286-4.209l4.973,12.006a11.92,11.92,0,0,0-2.076,1.386Zm-1.528,1.528A11.86,11.86,0,0,0,16.5,34.459L4.494,29.485A24.934,24.934,0,0,1,8.7,23.2Zm-2.222,4.069a11.8,11.8,0,0,0-.481,2.452h-13A24.7,24.7,0,0,1,3.66,31.479Zm-.481,4.613a11.87,11.87,0,0,0,.481,2.452l-12,4.972a24.7,24.7,0,0,1-1.473-7.424Zm2.106-1.081a9.726,9.726,0,1,1,9.726,9.726A9.736,9.736,0,0,1,17.29,39.984Zm8.645-11.832a11.87,11.87,0,0,0-2.452.481l-4.972-12a24.7,24.7,0,0,1,7.424-1.472Zm1.081,36.687A24.884,24.884,0,0,1,4.494,50.482L16.5,45.509a11.877,11.877,0,0,0,22.348-4.445H51.843A24.881,24.881,0,0,1,27.016,64.839ZM62.661,38.9H38.848A11.9,11.9,0,0,0,28.1,28.152V4.339A35.716,35.716,0,0,1,43.226,8.226v3.661a3.246,3.246,0,0,0,3.242,3.242h1.081V16.21a5.369,5.369,0,0,0,1.922,4.1,7.567,7.567,0,0,0-4.084,6.709v3.242h15.93A35.625,35.625,0,0,1,62.661,38.9Zm-9.71-17.29-1.2,1.6-1.076-1.077A5.33,5.33,0,0,1,52.952,21.613Zm9.726,5.4V28.1H47.548V27.016a5.359,5.359,0,0,1,1.382-3.574L51.988,26.5l3.125-4.167L58.238,26.5,61.3,23.442a5.359,5.359,0,0,1,1.382,3.574Zm-5.4-5.4a5.338,5.338,0,0,1,2.275.52L58.473,23.21Zm-4.323-2.161A3.246,3.246,0,0,1,49.71,16.21v-6.9a.668.668,0,0,1,.668-.668.662.662,0,0,1,.3.07,19.9,19.9,0,0,0,8.76,2.091h.1a3.192,3.192,0,0,0,.983-.184V16.21a3.246,3.246,0,0,1-3.242,3.242ZM59.435,6.484a1.081,1.081,0,0,1,.021,2.161,17.709,17.709,0,0,1-7.812-1.863,2.863,2.863,0,0,0-1.267-.3,2.828,2.828,0,0,0-2.741,2.161H46.468a3.205,3.205,0,0,0-1.081.2V7.565a5.409,5.409,0,0,1,5.4-5.4h8.645a5.409,5.409,0,0,1,5.4,5.4V8.844a3.205,3.205,0,0,0-1.081-.2H62.677V7.565a3.246,3.246,0,0,0-3.242-3.242H58.355V6.484Zm4.323,6.484H62.677V10.806h1.081a1.081,1.081,0,1,1,0,2.161Z"/><path d="M25.935,45.188v2.36H28.1V45.387h2.161V42.145A3.246,3.246,0,0,0,27.016,38.9a1.081,1.081,0,0,1-1.081-1.081V36.742h1.081A1.081,1.081,0,0,1,28.1,37.823V38.9h2.161V37.823A3.238,3.238,0,0,0,28.1,34.779v-2.36H25.935v2.161H23.774v3.242a3.246,3.246,0,0,0,3.242,3.242A1.081,1.081,0,0,1,28.1,42.145v1.081H27.016a1.081,1.081,0,0,1-1.081-1.081V41.065H23.774v1.081A3.238,3.238,0,0,0,25.935,45.188Z"/><path d="M49.71,32.419h2.161v2.161H49.71Z"/><path d="M54.032,32.419h2.161v2.161H54.032Z"/><path d="M58.355,32.419h2.161v2.161H58.355Z"/></g></g></g></svg>