<svg xmlns="http://www.w3.org/2000/svg" xmlns:xlink="http://www.w3.org/1999/xlink" width="33" height="33" viewBox="0 0 33 33"><defs><clipPath id="a"><rect width="33" height="33" transform="translate(-6631 8041)" fill="#fff" stroke="#707070" stroke-width="1"/></clipPath></defs><g transform="translate(6631 -8041)"><g clip-path="url(#a)"><g transform="translate(-6631 8044.126)"><path d="M31.55,26.232H27.038V4.512H31.55a.967.967,0,0,1,.967.967V25.266A.967.967,0,0,1,31.55,26.232Zm0,0" fill="#e8e8e8"/><path d="M27.36,26.232a.967.967,0,0,0,.967-.967V1.482A.967.967,0,0,0,27.36.516H9.185a.967.967,0,0,0-.967.967V21.5l2.32-.008v4.745Zm0,0" fill="#e8e8e8"/><path d="M11.909,22.172H4.479a.644.644,0,0,1-.645-.645V13.471H17.821a.644.644,0,0,1,.645.645v1.86a1.934,1.934,0,0,1-.623,1.421L13.22,21.66a1.934,1.934,0,0,1-1.311.512Zm0,0" fill="#7bd6a4"/><path d="M5.93,25.169a1.063,1.063,0,1,1-1.063-1.063A1.063,1.063,0,0,1,5.93,25.169Zm0,0" fill="#515759"/><path d="M11.6,25.169a1.063,1.063,0,1,1-1.063-1.063A1.063,1.063,0,0,1,11.6,25.169Zm0,0" fill="#515759"/><path d="M3.835,11.344H1.386a.967.967,0,1,1,0-1.934H2.868a.967.967,0,0,1,.967.967Zm0,0" fill="#ff8c64"/><path d="M24.138,10.57H22.913a.644.644,0,0,1-.645-.645V8.7a.644.644,0,0,1,.645-.645h1.225a.644.644,0,0,1,.645.645V9.926A.644.644,0,0,1,24.138,10.57Zm0,0" fill="#edaf54"/><path d="M24.138,15.984H22.913a.644.644,0,0,1-.645-.645V14.115a.644.644,0,0,1,.645-.645h1.225a.644.644,0,0,1,.645.645V15.34A.644.644,0,0,1,24.138,15.984Zm0,0" fill="#edaf54"/><path d="M24.138,21.4H22.913a.644.644,0,0,1-.645-.645V19.529a.644.644,0,0,1,.645-.645h1.225a.644.644,0,0,1,.645.645v1.225A.644.644,0,0,1,24.138,21.4Zm0,0" fill="#edaf54"/><path d="M18.467,14.115v1.86a1.933,1.933,0,0,1-.623,1.421L13.222,21.66a1.934,1.934,0,0,1-1.311.512H9.977a1.934,1.934,0,0,0,1.311-.512L15.911,17.4a1.933,1.933,0,0,0,.623-1.421v-1.86a.645.645,0,0,0-.645-.645h1.934a.645.645,0,0,1,.645.645Zm0,0" fill="#28af5f"/><path d="M32.517,5.479V25.266a.967.967,0,0,1-.967.967H29.616a.967.967,0,0,0,.967-.967V5.479a.967.967,0,0,0-.967-.967H31.55A.967.967,0,0,1,32.517,5.479Zm0,0" fill="#ccc"/><path d="M28.327,1.482V25.266a.967.967,0,0,1-.967.967H25.427a.967.967,0,0,0,.967-.967V1.482a.967.967,0,0,0-.967-.967H27.36A.967.967,0,0,1,28.327,1.482Zm0,0" fill="#ccc"/><path d="M6.542,20.432a.483.483,0,0,0,.483-.483V15.308a.483.483,0,0,0-.967,0v4.641A.483.483,0,0,0,6.542,20.432Zm0,0"/><path d="M9.185,20.432a.483.483,0,0,0,.483-.483V15.308a.483.483,0,0,0-.967,0v4.641A.483.483,0,0,0,9.185,20.432Zm0,0"/><path d="M11.763,20.432a.483.483,0,0,0,.483-.483V15.308a.483.483,0,0,0-.967,0v4.641A.483.483,0,0,0,11.763,20.432Zm0,0"/><path d="M14.405,18.111a.483.483,0,0,0,.483-.483v-2.32a.483.483,0,1,0-.967,0v2.32A.483.483,0,0,0,14.405,18.111Zm0,0"/><path d="M31.55,4.028h-.967a.483.483,0,0,0,0,.967h.967a.484.484,0,0,1,.483.483V25.266a.484.484,0,0,1-.483.483H28.727a1.444,1.444,0,0,0,.083-.483V23.622a.483.483,0,1,0-.967,0v1.644a.484.484,0,0,1-.483.483H11.972a1.545,1.545,0,0,0-.95-2.049V22.655h.888a2.41,2.41,0,0,0,1.639-.64l4.623-4.263a2.423,2.423,0,0,0,.778-1.777v-1.86a1.129,1.129,0,0,0-1.128-1.128H8.7V1.482A.484.484,0,0,1,9.185,1H27.36a.484.484,0,0,1,.483.483V21.366a.483.483,0,0,0,.967,0V1.482A1.452,1.452,0,0,0,27.36.032H9.185a1.452,1.452,0,0,0-1.45,1.45v11.5H4.318v-2.61a1.452,1.452,0,0,0-1.45-1.45H1.45a1.45,1.45,0,1,0,0,2.9h1.9v9.7A1.129,1.129,0,0,0,4.383,22.65V23.7a1.547,1.547,0,1,0,1.952,1.952H9.069a1.549,1.549,0,0,0,1.469,1.063H31.55A1.452,1.452,0,0,0,33,25.266V5.479a1.452,1.452,0,0,0-1.45-1.45ZM10.055,23.7a1.553,1.553,0,0,0-.986.986H6.335A1.553,1.553,0,0,0,5.35,23.7V22.655h4.705ZM.967,10.377a.484.484,0,0,1,.483-.483H2.868a.484.484,0,0,1,.483.483v.483H1.45A.484.484,0,0,1,.967,10.377Zm3.352,11.15V13.954h13.5a.161.161,0,0,1,.161.161v1.86a1.455,1.455,0,0,1-.467,1.066L12.893,21.3a1.446,1.446,0,0,1-.983.384H4.48a.161.161,0,0,1-.161-.161Zm.548,4.222a.58.58,0,1,1,.58-.58A.581.581,0,0,1,4.866,25.749Zm5.672-1.16a.58.58,0,1,1-.58.58A.581.581,0,0,1,10.538,24.589Zm0,0"/><path d="M25.266,8.7a1.129,1.129,0,0,0-1.128-1.128H22.913A1.129,1.129,0,0,0,21.785,8.7V9.926a1.129,1.129,0,0,0,1.128,1.128h1.225a1.129,1.129,0,0,0,1.128-1.128ZM24.3,9.926a.161.161,0,0,1-.161.161H22.913a.161.161,0,0,1-.161-.161V8.7a.161.161,0,0,1,.161-.161h1.225A.161.161,0,0,1,24.3,8.7Zm0,0"/><path d="M25.266,14.115a1.129,1.129,0,0,0-1.128-1.128H22.913a1.129,1.129,0,0,0-1.128,1.128V15.34a1.129,1.129,0,0,0,1.128,1.128h1.225a1.129,1.129,0,0,0,1.128-1.128ZM24.3,15.34a.161.161,0,0,1-.161.161H22.913a.161.161,0,0,1-.161-.161V14.115a.161.161,0,0,1,.161-.161h1.225a.161.161,0,0,1,.161.161Zm0,0"/><path d="M24.138,18.4H22.913a1.129,1.129,0,0,0-1.128,1.128v1.225a1.129,1.129,0,0,0,1.128,1.128h1.225a1.129,1.129,0,0,0,1.128-1.128V19.529A1.129,1.129,0,0,0,24.138,18.4Zm.161,2.353a.161.161,0,0,1-.161.161H22.913a.161.161,0,0,1-.161-.161V19.529a.161.161,0,0,1,.161-.161h1.225a.161.161,0,0,1,.161.161Zm0,0"/><path d="M19.98,7.863H11.73a.483.483,0,0,0,0,.967h8.25a.483.483,0,0,0,0-.967Zm0,0"/><path d="M11.73,9.8a.483.483,0,1,0,0,.967h2.6a.483.483,0,1,0,0-.967Zm0,0"/><path d="M16.264,9.8a.483.483,0,1,0,0,.967h1.783a.483.483,0,1,0,0-.967Zm0,0"/><path d="M19.98,18.691h-1.1a.483.483,0,0,0,0,.967h1.1a.483.483,0,0,0,0-.967Zm0,0"/><path d="M19.98,20.625H17.273a.483.483,0,1,0,0,.967H19.98a.483.483,0,1,0,0-.967Zm0,0"/></g></g></g></svg>