<svg xmlns="http://www.w3.org/2000/svg" xmlns:xlink="http://www.w3.org/1999/xlink" width="33" height="33" viewBox="0 0 33 33"><defs><clipPath id="a"><rect width="33" height="33" transform="translate(-6631 8432)" fill="#fff" stroke="#707070" stroke-width="1"/></clipPath></defs><g transform="translate(6631 -8432)"><g clip-path="url(#a)"><g transform="translate(-6631 8432)"><path d="M16.5,11.445h0a6.9,6.9,0,0,0-6.9,6.9V27.4H23.4V18.346A6.9,6.9,0,0,0,16.5,11.445Z" fill="#fb4239"/><path d="M17.947,11.6a6.929,6.929,0,0,0-1.447-.152h0a6.9,6.9,0,0,0-6.9,6.9V27.4h2.894V18.346A6.9,6.9,0,0,1,17.947,11.6Z" fill="#e21717"/><rect width="2.023" height="4.152" transform="translate(15.415 23.25)" fill="#c4000a"/><rect width="16.51" height="3.198" transform="translate(8.245 26.382)" fill="#2796af"/><rect width="1.354" height="3.198" transform="translate(8.245 26.382)" fill="#0e7889"/><rect width="19.371" height="3.785" transform="translate(6.815 28.731)" fill="#caedff"/><rect width="1.43" height="3.785" transform="translate(6.815 28.731)" fill="#76c2e0"/><circle cx="2.447" cy="2.447" r="2.447" transform="translate(13.979 19.424)" fill="#fec007"/><path d="M18.588,13.146a.483.483,0,0,0-.445.858,5.484,5.484,0,0,1,2.794,3.123.483.483,0,0,0,.921-.3A6.442,6.442,0,0,0,18.588,13.146Z"/><path d="M26.185,28.248h-.947V26.383a.483.483,0,0,0-.483-.483h-.871V18.346a7.384,7.384,0,0,0-14.769,0v.747a.483.483,0,0,0,.967,0v-.747a6.418,6.418,0,1,1,12.835,0V25.9h-5V24.4a2.922,2.922,0,0,0,1.236-1.461.483.483,0,0,0-.9-.351,1.954,1.954,0,0,1-1,1.067l-.025.011a1.964,1.964,0,1,1,.979-2.606.483.483,0,0,0,.879-.4,2.93,2.93,0,1,0-4.16,3.737V25.9H10.082V21a.483.483,0,1,0-.967,0v4.9H8.245a.483.483,0,0,0-.483.483v1.866H6.814a.483.483,0,0,0-.483.483v3.785A.483.483,0,0,0,6.814,33H18.061a.483.483,0,0,0,0-.967H7.3V29.215H25.7v2.818H19.966a.483.483,0,0,0,0,.967h6.219a.483.483,0,0,0,.483-.483V28.732A.484.484,0,0,0,26.185,28.248ZM15.9,24.753a2.932,2.932,0,0,0,.528.049,2.981,2.981,0,0,0,.528-.047V25.9H15.9V24.753h0Zm-7.17,2.113H24.272v1.382H8.728Z"/><path d="M16.5,9.205a.483.483,0,0,0,.483-.483V.483a.483.483,0,0,0-.967,0V8.722A.483.483,0,0,0,16.5,9.205Z"/><path d="M13.183,9.6a.483.483,0,0,0,.845-.47l-4.006-7.2a.483.483,0,0,0-.845.47Z"/><path d="M11.6,11.4a.483.483,0,0,0,.227-.911L4.55,6.626A.483.483,0,0,0,4.1,7.48l7.279,3.859A.481.481,0,0,0,11.6,11.4Z"/><path d="M19.159,9.788a.483.483,0,0,0,.658-.187l4.006-7.2a.483.483,0,0,0-.845-.47l-4.006,7.2A.483.483,0,0,0,19.159,9.788Z"/><path d="M29.1,6.827a.483.483,0,0,0-.653-.2l-7.279,3.859a.483.483,0,1,0,.453.854L28.9,7.48A.483.483,0,0,0,29.1,6.827Z"/></g></g></g></svg>