<svg xmlns="http://www.w3.org/2000/svg" xmlns:xlink="http://www.w3.org/1999/xlink" width="33" height="33" viewBox="0 0 33 33"><defs><clipPath id="a"><rect width="33" height="33" transform="translate(265 18937)" fill="#26d19e"/></clipPath></defs><g transform="translate(-265 -21289.902)"><g transform="translate(0 2352.902)" clip-path="url(#a)"><g transform="translate(265 18937)"><path d="M32.518,32.514H.482L5.239,21H27.761Z" fill="#a8eefc"/><path d="M27.761,21H26.026l4.757,11.516h1.735Z" fill="#7ee5f2"/><path d="M30.417,27.427l-1.058-2.56H16.836L12.413,21H9.564l-1.6,3.868H3.641l-1.058,2.56H6.909l-2.1,5.087H7.656L11.2,23.937l10.083,8.577h4.3l-5.817-5.087Z" fill="#ffdb56"/><path d="M28.681,27.427h1.735l-1.058-2.56H27.624Z" fill="#ffbb24"/><path d="M7.966,24.867H3.641L5.239,21H9.564Z" fill="#4ce166"/><path d="M29.359,24.867H16.836L12.413,21H27.761Z" fill="#4ce166"/><path d="M29.359,24.867,27.761,21H26.026l1.6,3.868Z" fill="#44c868"/><path d="M11.2,23.937,7.656,32.514H21.282Z" fill="#4ce166"/><path d="M16.5.486a9.966,9.966,0,0,0-9.928,10c0,8.413,9.928,16.153,9.928,16.153s9.928-7.741,9.928-16.153A9.966,9.966,0,0,0,16.5.486Zm0,13.993a3.99,3.99,0,1,1,3.96-3.99A3.975,3.975,0,0,1,16.5,14.478Z" fill="#ff4a4a"/><path d="M16.5.486c-.292,0-.582.013-.868.038a9.974,9.974,0,0,1,9.061,9.965c0,6.882-6.643,13.313-9.061,15.426.538.47.868.727.868.727s9.928-7.741,9.928-16.153A9.966,9.966,0,0,0,16.5.486Z" fill="#e7343f"/><path d="M16.5,14.964a4.475,4.475,0,0,0,0-8.951,4.394,4.394,0,0,0-2.515.786.488.488,0,0,0-.124.675.48.48,0,0,0,.67.125A3.439,3.439,0,0,1,16.5,6.985a3.494,3.494,0,1,1-3.087,1.889.487.487,0,0,0-.205-.655.48.48,0,0,0-.65.207,4.515,4.515,0,0,0-.5,2.063A4.464,4.464,0,0,0,16.5,14.964Z"/><path d="M32.963,32.328,28.206,20.812h0a.482.482,0,0,0-.445-.3h-4.74a24.58,24.58,0,0,0,2.289-3.738,14.409,14.409,0,0,0,1.6-6.287,10.411,10.411,0,1,0-20.821,0,14.409,14.409,0,0,0,1.6,6.287,24.566,24.566,0,0,0,2.289,3.738H5.239a.482.482,0,0,0-.445.3L1.552,28.659a.487.487,0,0,0,.26.635.48.48,0,0,0,.63-.262l.463-1.12H6.186l-1.7,4.116H1.2L1.7,30.836a.487.487,0,0,0-.26-.635.481.481,0,0,0-.63.262L.037,32.328a.488.488,0,0,0,.044.456.481.481,0,0,0,.4.216H32.518a.481.481,0,0,0,.4-.216A.489.489,0,0,0,32.963,32.328ZM7.054,10.489a9.447,9.447,0,1,1,18.893,0c0,2.2-.759,5.717-4.27,10.2l-.01.013q-.269.343-.56.693A37.082,37.082,0,0,1,16.5,26.018a37.024,37.024,0,0,1-4.594-4.61q-.3-.359-.573-.71l-.009-.011C7.813,16.206,7.054,12.69,7.054,10.489Zm-1.493,11H8.841l-1.2,2.9H4.364ZM8.379,32.029l3.013-7.293,8.573,7.293Zm13.08,0L11.51,23.566a.48.48,0,0,0-.756.184l-3.42,8.278H5.53l1.824-4.415a.488.488,0,0,0-.044-.456.481.481,0,0,0-.4-.216h-3.6l.656-1.589h4a.482.482,0,0,0,.445-.3l1.474-3.569h.836q.218.274.444.547a36.363,36.363,0,0,0,5.039,4.994.479.479,0,0,0,.59,0c.057-.044.822-.645,1.913-1.673h5.458a.486.486,0,0,0,0-.971H19.7c.668-.677,1.4-1.466,2.133-2.35q.227-.274.444-.547H27.44l1.2,2.9H26.093a.486.486,0,0,0,0,.971h2.944l.656,1.589h-9.93a.482.482,0,0,0-.452.316.488.488,0,0,0,.136.537l4.843,4.235Zm4.3,0-4.707-4.116H30.1l1.7,4.116Z"/></g></g></g></svg>