<svg xmlns="http://www.w3.org/2000/svg" xmlns:xlink="http://www.w3.org/1999/xlink" width="295" height="258" viewBox="0 0 295 258"><defs><clipPath id="a"><ellipse cx="138.835" cy="80.159" rx="138.835" ry="80.159" fill="none"/></clipPath><linearGradient id="b" x1="0.272" y1="0.148" x2="0.923" y2="0.687" gradientUnits="objectBoundingBox"><stop offset="0"/><stop offset="0.136" stop-color="#030303"/><stop offset="0.263" stop-color="#0e0e0e"/><stop offset="0.387" stop-color="#212121"/><stop offset="0.508" stop-color="#3c3c3c"/><stop offset="0.627" stop-color="#5e5e5e"/><stop offset="0.746" stop-color="#888"/><stop offset="0.863" stop-color="#bababa"/><stop offset="0.977" stop-color="#f2f2f2"/><stop offset="1" stop-color="#fff"/></linearGradient><linearGradient id="c" x1="-0.215" y1="0.608" x2="0.455" y2="0.498" xlink:href="#b"/></defs><g transform="translate(-285 -20155.902)"><g transform="translate(0 2352.902)"><path d="M0,0H295a0,0,0,0,1,0,0V93a20,20,0,0,1-20,20H20A20,20,0,0,1,0,93V0A0,0,0,0,1,0,0Z" transform="translate(285 17948)" fill="#d1c3fa"/><g transform="translate(-69.168 17465.766)"><g transform="translate(362.791 407.898)"><path d="M365.468,869.207l-2.587-1.642-.089,17.164c.206,20.974,13.744,41.3,40.657,56.844,54.218,31.3,142.124,31.3,196.343,0,26.833-15.493,40.365-35.75,40.638-56.055a4.4,4.4,0,0,0,.021-.513c0-.216.036-19.111.036-19.111l-4.8-1.784c-6.091-13.149-18.031-25.583-35.9-35.9-54.219-31.3-142.125-31.3-196.343,0C383.284,839.853,370.634,854.186,365.468,869.207Z" transform="translate(-362.791 -788.048)" fill="#764cf0"/><g transform="translate(0.083)"><ellipse cx="138.835" cy="80.159" rx="138.835" ry="80.159" fill="#8d6af2"/><path d="M553.137,825.077c42.7-24.653,111.927-24.653,154.626,0s42.7,64.623,0,89.276-111.927,24.653-154.626,0S510.438,849.73,553.137,825.077Z" transform="translate(-491.615 -789.555)" fill="#bddff4"/><path d="M77.233,0c42.655,0,77.233,19.964,77.233,44.592S119.887,89.184,77.233,89.184,0,69.219,0,44.592,34.578,0,77.233,0Z" transform="translate(61.602 35.567)" fill="#8d6af2"/><path d="M870.347,1008.223c18.214-10.516,47.743-10.516,65.955,0s18.213,27.565,0,38.08-47.743,10.516-65.955,0S852.134,1018.739,870.347,1008.223Z" transform="translate(-764.489 -947.104)" fill="#bddff4"/><path d="M1018.5,1093.758c6.777-3.913,17.766-3.913,24.543,0s6.777,10.258,0,14.171-17.766,3.913-24.543,0S1011.718,1097.671,1018.5,1093.758Z" transform="translate(-891.931 -1020.683)" fill="#8d6af2"/></g></g><g transform="translate(362.874 407.898)"><g transform="translate(0)" clip-path="url(#a)"><path d="M1124.981,800.863a31.038,31.038,0,0,0-.787-11.347l-9.276-22.624-89.16-18.308-1.294,14.422L958.49,736.82l-1.89,21.06c27,14.047,56.473,28.068,88.391,41.48,22.465,9.44,44.255,17.785,65.208,25.177C1112.75,822.693,1123.352,814.6,1124.981,800.863Z" transform="translate(-845.734 -732.824)" opacity="0.3" fill="url(#b)" style="mix-blend-mode:multiply;isolation:isolate"/></g></g><g transform="translate(391.62 337.234)"><path d="M769.57,1355.347,705.805,1331l-7.131,3.47L681.235,1326l-3,7.411-1.387,4.888,53.124,26.062q2.3-2.373,4.5-4.843l20.246,9.932C757.881,1366.188,766.637,1358.827,769.57,1355.347Z" transform="translate(-646.998 -1141.257)" opacity="0.3" fill="url(#c)" style="mix-blend-mode:multiply;isolation:isolate"/><g transform="translate(0 0)"><g transform="translate(82.333)"><path d="M1179.671,485.089v-94.1l32.024,18.488v94.1Z" transform="translate(-1138.204 -380.947)" fill="#a0fbe0"/><path d="M999.2,353.069v94.1l-41.467-8.714v-94.1Z" transform="translate(-957.738 -343.025)" fill="#ccfff0"/><path d="M1351.064,584.041v-94.1l.03,94.081Z" transform="translate(-1277.573 -461.409)" fill="#cecdd9"/><path d="M1594.8,500.681v94.1l-.316,1.4v-94.1Z" transform="translate(-1475.509 -470.142)" fill="#2c65d6"/><path d="M1396.674,587.462l-45.451-3.407v-94.1l45.451,3.407Z" transform="translate(-1277.703 -461.421)" fill="#ccfff0"/><path d="M1032.372,364.425l-31.819-18.37-41.977-8.82-.838,1.331,41.467,8.714,32.024,18.488,45.481,3.41.316-1.4Z" transform="translate(-957.738 -337.234)" fill="#5af1c4"/><g transform="translate(41.467 11.44)"><path d="M1182.222,418.988c2.155.959,2.215,3.422,2.236,5.43.025,2.363-.177,5.014,1.4,6.985,3.263,4.076,8.849,6.282,13.645,3.67,5.09-2.772,7.141-10.047,3.622-14.641-2.132-2.783-5.259-4.824-5.5-8.647a4.562,4.562,0,0,1,1.538-3.465l-17.073-9.858a27.27,27.27,0,0,1-2.418,2.85v16.508C1180.5,418.253,1181.383,418.615,1182.222,418.988Z" transform="translate(-1179.67 -398.462)" fill="#26d19e"/><path d="M1263.565,692.923c-.906-3.656-1.2-7.668-5.1-9.222a11.011,11.011,0,0,0-9.388.53c-2.135,1.111-5.234,4.252-4.485,6.961a4.742,4.742,0,0,0,1.834,2.8c1.221.892,3.373,2.037,2.306,4.233a16.319,16.319,0,0,1-2.425,2.909,10.82,10.82,0,0,0-2.671,9.218,8.732,8.732,0,0,0,5.491,6.369,5.17,5.17,0,0,0,3.9-.242c.731-.284,1.427-.682,2.131-1.026,2.3-1.125,4.051.966,4.4,3.081a.581.581,0,0,0,.559.425c2.238.134,3.015,1.5,3.446,3.192Z" transform="translate(-1231.541 -629.75)" fill="#26d19e"/></g><g transform="translate(0 11.71)"><path d="M959.016,465.367c3.59-1.388,7.523.8,10.433,2.735,4.824,3.206,8.915,9.112,15.032,9.792,3.144.35,8.038-2.227,6.059-6.054-1.652-3.193-5.518-5.181-8.143-7.487-1.4-1.226-3.633-3.285-1.874-5.091,2.47-2.535,7.433-2.295,10.608-3.354,5.308-1.77,1.311-8.031-.167-11.043s-.639-6.007-.336-9.136c.173-1.789.17-3.964-1.322-5.209a.6.6,0,0,0-.7-.091c-2.709,1.428-3.86,4.3-4.936,7.007a28.9,28.9,0,0,1-2.453,5.262c-1.832,2.808-4.946.9-6.153-1.209a10.41,10.41,0,0,1-.883-5.879c.335-5.062,2.417-9.967,2.992-15.044a28.151,28.151,0,0,1,2.374-8.842,15.63,15.63,0,0,0,1.526-6.262c.108-8.7-11.449-5.22-15.757-2.651-2.614,1.559-5.006,3.688-7.576,4.875v58.3A9.592,9.592,0,0,1,959.016,465.367Z" transform="translate(-957.738 -399.904)" fill="#26d19e"/><path d="M1155.638,413.713c-.858.9-1.732,1.753-2.516,2.565-1.9,1.966-3.262,4.03-2.965,6.849.268,2.54,2.22,4.861,4.194,6.315a9.764,9.764,0,0,0,1.288.778Z" transform="translate(-1114.171 -411.133)" fill="#26d19e"/></g><path d="M1396.674,502,1377.7,500.58c-2.685,1.462-6.486,1.541-9.364,2.085-2.245.424-5.4.97-6.585,3.207-1.687,3.177,3.322,6.031,5.175,7.618a11.587,11.587,0,0,1,4,8.713c.035,3.218-1.222,8.231-5.081,8.671s-2.132,4.105-2.335,7.026c-.217,3.126-.961,6.185-1.2,9.317-.3,3.933-6.24,4.517-8.373,1.674a.626.626,0,0,0-.987-.023,11.245,11.245,0,0,1-1.732-4.078v29.23a25.5,25.5,0,0,0,1.12,4.624c1.193,2.548,3.283,3.942,5.861,4.925,3.158,1.2,6.84,1.115,10.159,1.278,4.625.227,9.1,1.406,13.613,2.363a47.352,47.352,0,0,0,14.7,1.138Z" transform="translate(-1277.703 -470.06)" fill="#26d19e"/><path d="M1248.04,462.193a5.959,5.959,0,0,0-2.793-5.573,4.745,4.745,0,0,0-5.7.53c-4.954,3.747-2.4,16.48-2.4,16.48S1248.031,468.877,1248.04,462.193Z" transform="translate(-1184.411 -433.737)" fill="#90caf4" style="mix-blend-mode:multiply;isolation:isolate"/><g transform="translate(47.464 19.118)"><path d="M1221.578,446.5a11.063,11.063,0,0,0-4.607-6.265c-2.09-1.207-3.875-.744-4.607.945-2.684,4.613,4.607,19.153,4.607,19.153S1224.262,454.21,1221.578,446.5Z" transform="translate(-1211.77 -439.556)" fill="#ffd41c"/><path d="M1229.546,456.9c0,1.914-1.344,2.689-3,1.733a6.633,6.633,0,0,1-3-5.2c0-1.914,1.344-2.69,3-1.733A6.633,6.633,0,0,1,1229.546,456.9Z" transform="translate(-1221.344 -449.098)" fill="#e2f1f7"/></g><g transform="translate(50.633 40.832)"><ellipse cx="2.032" cy="1.173" rx="2.032" ry="1.173" fill="#21155c"/></g><path d="M1422.623,778.77a5.959,5.959,0,0,0-2.793-5.573,4.744,4.744,0,0,0-5.7.529c-4.954,3.747-2.4,16.48-2.4,16.48S1422.614,785.455,1422.623,778.77Z" transform="translate(-1326.375 -691.164)" fill="#90caf4" style="mix-blend-mode:multiply;isolation:isolate"/><g transform="translate(80.084 78.269)"><path d="M1396.16,763.075a11.066,11.066,0,0,0-4.607-6.265c-2.09-1.207-3.875-.744-4.608.945-2.685,4.613,4.607,19.153,4.607,19.153S1398.844,770.788,1396.16,763.075Z" transform="translate(-1386.352 -756.133)" fill="#ffd41c"/><path d="M1404.129,773.476c0,1.914-1.344,2.69-3,1.733a6.633,6.633,0,0,1-3-5.2c0-1.914,1.344-2.689,3-1.733A6.633,6.633,0,0,1,1404.129,773.476Z" transform="translate(-1395.927 -765.676)" fill="#e2f1f7"/></g><g transform="translate(83.252 99.982)"><path d="M1406.78,872.687a.876.876,0,0,1,0,1.659,3.177,3.177,0,0,1-2.874,0,.876.876,0,0,1,0-1.659A3.175,3.175,0,0,1,1406.78,872.687Z" transform="translate(-1403.311 -872.344)" fill="#21155c"/></g><path d="M1015.262,556.856a5.959,5.959,0,0,0-2.793-5.573,4.744,4.744,0,0,0-5.7.53c-4.955,3.747-2.4,16.48-2.4,16.48S1015.253,563.54,1015.262,556.856Z" transform="translate(-995.126 -510.713)" fill="#90caf4" style="mix-blend-mode:multiply;isolation:isolate"/><g transform="translate(3.971 36.805)"><path d="M988.8,541.161a11.065,11.065,0,0,0-4.608-6.265c-2.09-1.207-3.875-.744-4.607.945-2.684,4.613,4.607,19.153,4.607,19.153S991.484,548.873,988.8,541.161Z" transform="translate(-978.992 -534.219)" fill="#ffd41c"/><path d="M996.768,551.562c0,1.914-1.344,2.69-3,1.733a6.633,6.633,0,0,1-3-5.2c0-1.914,1.344-2.689,3-1.733A6.633,6.633,0,0,1,996.768,551.562Z" transform="translate(-988.566 -543.761)" fill="#e2f1f7"/></g><g transform="translate(7.14 58.519)"><ellipse cx="2.032" cy="1.173" rx="2.032" ry="1.173" fill="#21155c"/></g></g><g transform="translate(0 24.124)"><path d="M539.734,661.822l-8.165-2.6s-17.2,23.583-14.111,31.315,20.1,28.222,20.1,28.222L542.2,711.8s-15.078-18.75-10.245-25.323a61.264,61.264,0,0,0,6.959-11.792Z" transform="translate(-517.087 -623.182)" fill="#ffea8e"/><path d="M858.574,573.513s3.125-4.293,3.03-6.965-3.139-7.424-3.139-7.424l-2.855,8.579s-.057-3.253-.86-1.276.544,7.738.544,7.738l-.67,2.664,3.3,1.2Z" transform="translate(-791.453 -541.79)" fill="#f8bcb4"/><g transform="translate(18.656 90.082)"><path d="M668.339,1331.837a19.178,19.178,0,0,0,2.922-3.534c.966-1.687,2.052-1.156,2.13-.115s-.493,7.728-3.732,9.66c-2.256,1.346-2.629-1.9-2.816-3.238a7.043,7.043,0,0,1,.12-2.5Z" transform="translate(-657.469 -1256.452)" fill="#21155c"/><path d="M666.843,1349.254a7.041,7.041,0,0,1,.12-2.5l1.376-.277s.548-.519,1.207-1.255a5.2,5.2,0,0,1,.793,2.635,2.575,2.575,0,0,0,1.431,2.168,5.914,5.914,0,0,1-2.111,2.464C667.4,1353.838,667.03,1350.593,666.843,1349.254Z" transform="translate(-657.469 -1271.095)" fill="#21155c"/><path d="M734,1333.809l2.766-1.239.976,1.655a20.873,20.873,0,0,0,6.2,1.14c2.418-.153,3.757-.813,4.538.7s-3.464,3.328-9.708,4.808-5.31.4-5.833-1.248S734,1333.809,734,1333.809Z" transform="translate(-711.178 -1260.805)" fill="#21155c"/><path d="M732.938,1339.629c-.523-1.643,1.062-5.819,1.062-5.819l2.766-1.239.976,1.655s.473.161,1.185.362c-2.057.292-4.441,1.672-4.117,6.576.01.142.017.271.025.407C732.962,1341.646,733.3,1340.774,732.938,1339.629Z" transform="translate(-711.178 -1260.805)" fill="#21155c"/><path d="M651.872,949.831l19.626.143s7.9,34.612,6.026,41.6c-1.607,6-4.865,31.474-4.865,31.474a13.009,13.009,0,0,1-1.211.626c-.156-.66-.444-1.7-.444-1.7l-.407,2.048c-1.355.477-2.909.652-3.09-.96-.553-4.925-3.03-21.272.583-29.694.753-1.755-9.433-25.286-11.843-31.152S651.872,949.831,651.872,949.831Z" transform="translate(-645.345 -949.578)" fill="#21155c"/><path d="M619.88,990.584c-2.6-7.859-2.956-30.444-2.943-39.477a3.461,3.461,0,0,0,2.381-.548,12.018,12.018,0,0,0,1.446-1.3,1.9,1.9,0,0,0,.483-.784c4.008,1.235,9.4,3,9.4,3L632,966.744s-3.115,19.909-3.2,24.583-.422,12.671-.048,21.548,1.081,11.625,1.081,11.625-.035.059-.1.152l-.519-.632.206,1.04c-.681.792-2.109,1.887-3.538-.553-1.974-3.372-7.454-16.553-6.943-23.2S620.066,991.145,619.88,990.584Z" transform="translate(-616.936 -948.477)" fill="#21155c"/></g><g transform="translate(55.58 6.514)"><path d="M842.5,597.768l-.107,2.832,2.428-1.631s.741-2,.741-2.052-.381-1.033-.381-1.033Z" transform="translate(-837.188 -578.194)" fill="#f6c800"/><path d="M826.986,503.372l-.344-.308-2.3,1.522,1.3.671Z" transform="translate(-822.511 -502.718)" fill="#f6c800"/><path d="M837.359,508.155a11.063,11.063,0,0,0-4.607-6.265c-2.09-1.207-3.875-.744-4.607.945-2.684,4.613,4.607,19.153,4.607,19.153S840.043,515.867,837.359,508.155Z" transform="translate(-825.122 -501.213)" fill="#f6c800"/><path d="M824.362,516.884a11.066,11.066,0,0,0-4.607-6.265c-2.09-1.207-3.875-.744-4.607.945-2.685,4.613,4.607,19.153,4.607,19.153S827.046,524.6,824.362,516.884Z" transform="translate(-814.554 -508.311)" fill="#ffdb42"/><path d="M832.329,527.285c0,1.914-1.343,2.689-3,1.733a6.634,6.634,0,0,1-3-5.2c0-1.914,1.344-2.69,3-1.733A6.632,6.632,0,0,1,832.329,527.285Z" transform="translate(-824.127 -517.853)" fill="#e2f1f7"/></g><g transform="translate(22.462)"><path d="M642.865,543.343c1.377-.7,2.607-7.444,3.32-12.264-2.236-4.779-1.211-9.9,2.246-11.511s8.04.883,10.234,5.579,1.169,9.813-2.29,11.429a5.468,5.468,0,0,1-3.275.394,24.892,24.892,0,0,0,.644,9.123,26.7,26.7,0,0,0,6.247,10.96s-21.367-5.246-22.5-9.189S640.7,544.441,642.865,543.343Z" transform="translate(-637.303 -509.225)" fill="#f8bcb4"/><path d="M646.533,543.343c1.377-.7,2.607-7.444,3.32-12.264-2.236-4.779-1.211-9.9,2.246-11.511s8.04.883,10.234,5.579c.18.385.331.774.467,1.163-3.146,1.619-6.9,4.368-7.651,8.487-1.338,7.331-.139,18.392-.139,18.392l-12.43-4.047-.768-4.17C643.005,544.084,645.188,544.025,646.533,543.343Z" transform="translate(-640.97 -509.225)" fill="#ef9baa"/><path d="M671.082,491.622c1.645.991,3.589-.145,4.719-1.4a7.872,7.872,0,0,0,1.674-3.736c.877,1.538,2.023,2.907,3.655,2.79,2.073-.149,2.789-2.317,2.867-4.194a13.936,13.936,0,0,0,12.2-6.395c2.468-4.168-.437-12.83-6.17-12.312a3.815,3.815,0,0,0-2.837,1.7c-.851,1.259-.654,4.737-2.591,4.076-1.188-.406-2.211-2.043-3.314-2.713a5.727,5.727,0,0,0-3.4-.943c-4.93.356-8.778,7.865-7.347,12.492a9.047,9.047,0,0,0-1.651,5.47C668.95,488.156,669.5,490.666,671.082,491.622Z" transform="translate(-662.984 -466.349)" fill="#26d19e"/></g><path d="M592.293,653.785c8.035-1.346,35.543,8.95,33.68,16.569s-5.392,25.071-5.628,30.7c-.208,4.974-.315,7.474-.337,7.988.192,2.463-5.527,4.8-12.757,5.341s-13.232-.929-13.407-3.277C590.267,660.771,584.8,655.041,592.293,653.785Z" transform="translate(-575.193 -618.667)" fill="#ffea8e"/><path d="M610.409,629.429c3.647.015,7.714-5.457,7.714-5.457.687-.437,3.3-.176,6.292.674,3.372.956,5.947,2.293,5.75,2.986a21.309,21.309,0,0,1,.509,3.9c.295,4.9,3.385,5.3,3.385,5.3l.606,11.084c-.253.151-11.017-.808-11.889-.7s-11.574-4.155-11.722-4.364-4.153-10.868-4.163-11S606.492,629.413,610.409,629.429Z" transform="translate(-590.101 -594.352)" fill="#ffea8e"/><path d="M702.266,666.732s1.555-.221,10.352,4.781,22.127,11.773,18.068,21.215c-3.827,8.9-30.174-.876-30.174-.876Z" transform="translate(-666.24 -629.29)" fill="#ffea8e"/><path d="M856.57,581.228a18.236,18.236,0,0,1-1.037-3.41c-.24-1.509-.387-2.69-.882-2.726s-.66,6.21-.33,7.286a2.723,2.723,0,0,0,1.437,1.538Z" transform="translate(-791.172 -554.774)" fill="#f8bcb4"/><path d="M829.231,645.635s-6.444,19.115-5.907,20.52,8.038,5.4,8.038,5.4,1.236-12.281,1.607-18.649.964-7.12-.74-7.954A2.584,2.584,0,0,0,829.231,645.635Z" transform="translate(-766.08 -611.375)" fill="#ffea8e"/></g></g></g></g></g></g></svg>