<svg xmlns="http://www.w3.org/2000/svg" xmlns:xlink="http://www.w3.org/1999/xlink" width="33" height="33" viewBox="0 0 33 33"><defs><clipPath id="a"><rect width="33" height="33" transform="translate(-6631 8503)" fill="#fff" stroke="#707070" stroke-width="1"/></clipPath></defs><g transform="translate(6631 -8503)"><g clip-path="url(#a)"><g transform="translate(-6631 8503)"><path d="M31.861,15.327a2.238,2.238,0,0,0-3.166,0l-3.413,3.413a1.925,1.925,0,0,1-1.362.564H16.946a1.311,1.311,0,0,1-.928-2.239l.581-.58a2.238,2.238,0,0,0-3.166-3.166l-3.247,3.247a3.517,3.517,0,0,0-.957,1.757,2.719,2.719,0,0,1-.741,1.349L.483,27.678v4.839H7.011L13.9,25.628a5.025,5.025,0,0,1,3.553-1.472H25.4a1.925,1.925,0,0,0,1.362-.564l5.1-5.1a2.239,2.239,0,0,0,0-3.166Zm0,0" fill="#ffdecf"/><path d="M13.863,5.966V3.932a3.448,3.448,0,1,1,6.9,0V5.966a.806.806,0,1,1-1.611,0v-2A1.863,1.863,0,0,0,17.367,2.1a1.839,1.839,0,0,0-1.893,1.836V5.966a.806.806,0,1,1-1.611,0Zm0,0" fill="#dce6eb"/><path d="M31.861,15.327a2.237,2.237,0,0,0-2.106-.594,2.238,2.238,0,0,1-.472,2.47l-4.305,4.305a4.641,4.641,0,0,1-3.282,1.36H14.875a5.025,5.025,0,0,0-3.553,1.472l-5.5,5.5a4.743,4.743,0,0,1-3.354,1.389H.483v1.289H7.011L13.9,25.628a5.025,5.025,0,0,1,3.553-1.472H25.4a1.925,1.925,0,0,0,1.362-.564l5.1-5.1a2.239,2.239,0,0,0,0-3.166Zm0,0" fill="#fcb19f"/><path d="M13.434,13.319A2.238,2.238,0,0,1,16.6,16.484l-.581.581a1.311,1.311,0,0,0,.928,2.239h6.331a.767.767,0,0,0,.766-.812l-.8-13.6a.6.6,0,0,0-.6-.568H20.76V5.966a.806.806,0,1,1-1.611,0V4.322H15.475V5.966a.806.806,0,1,1-1.611,0V4.322H11.987a.6.6,0,0,0-.6.568l-.659,11.137Zm0,0" fill="#72e4a0"/><path d="M24.043,18.491l-.8-13.6a.6.6,0,0,0-.6-.568H20.76v.96l.563,9.515a3.038,3.038,0,0,1-3.033,3.218H15.633A1.309,1.309,0,0,0,16.946,19.3h6.331a.767.767,0,0,0,.766-.812Zm0,0" fill="#62c389"/><path d="M29.895,8.719H27.453a.763.763,0,1,1,0-1.527h2.442a.763.763,0,0,1,0,1.527Zm0,0" fill="#ffd508"/><path d="M28.652,3.608,26.926,5.335a.763.763,0,1,1-1.08-1.08l1.727-1.727a.763.763,0,0,1,1.08,1.08Zm0,0" fill="#ffd508"/><path d="M28.652,12.3l-1.727-1.727a.763.763,0,1,0-1.08,1.079l1.727,1.727a.763.763,0,1,0,1.08-1.079Zm0,0" fill="#ffd508"/><path d="M4.728,8.719H7.17a.763.763,0,1,0,0-1.527H4.728a.763.763,0,1,0,0,1.527Zm0,0" fill="#ffd508"/><path d="M5.971,3.608,7.7,5.335a.763.763,0,0,0,1.08-1.08L7.051,2.529a.763.763,0,0,0-1.08,1.08Zm0,0" fill="#ffd508"/><path d="M5.971,12.3,7.7,10.576a.763.763,0,1,1,1.08,1.079L7.051,13.382A.763.763,0,1,1,5.971,12.3Zm0,0" fill="#ffd508"/><path d="M23.819,14.707l.138,2.327,1.707-1.707c.022-.022.044-.043.067-.063a2.236,2.236,0,0,0-1.911-.556Zm0,0" fill="#fcb19f"/><path d="M25.663,15.327l-1.706,1.707.086,1.458a.767.767,0,0,1-.766.812h.643a1.925,1.925,0,0,0,1.362-.564L28.7,15.327c.022-.022.044-.043.067-.063a2.238,2.238,0,0,0-3.1.063Zm0,0" fill="#fcb19f"/><path d="M32.2,14.985a2.726,2.726,0,0,0-3.44-.336,2.711,2.711,0,0,0-3.033,0,2.686,2.686,0,0,0-1.456-.46l-.552-9.327a1.088,1.088,0,0,0-1.085-1.023H21.242a3.909,3.909,0,0,0-.673-2.11.483.483,0,1,0-.8.543,2.948,2.948,0,0,1,.508,1.661V5.966a.322.322,0,1,1-.645,0v-2a2.358,2.358,0,0,0-2.251-2.359,2.321,2.321,0,0,0-2.39,2.32V5.966a.322.322,0,1,1-.645,0V3.932A2.967,2.967,0,0,1,18.183,1.1a.483.483,0,0,0,.284-.924,3.933,3.933,0,0,0-5.085,3.666h-1.4A1.088,1.088,0,0,0,10.9,4.861L10.639,9.3a.483.483,0,0,0,.965.057l.263-4.442a.12.12,0,0,1,.12-.113H13.38v1.16a1.289,1.289,0,1,0,2.578,0V4.805h2.707V5.966a1.289,1.289,0,1,0,2.578,0V4.805h1.393a.12.12,0,0,1,.12.113c.152,2.568.652,11.028.8,13.6a.283.283,0,0,1-.283.3H16.946a.828.828,0,0,1-.586-1.414l.58-.58a2.722,2.722,0,0,0-3.849-3.849l-1.809,1.809.188-3.173a.483.483,0,1,0-.965-.057l-.252,4.259-.408.408a4,4,0,0,0-1.088,2,2.23,2.23,0,0,1-.61,1.109L.141,27.336A.483.483,0,0,0,0,27.678v4.839A.484.484,0,0,0,.483,33H7.011a.483.483,0,0,0,.342-.141l6.888-6.888a4.512,4.512,0,0,1,3.211-1.33h5.262a.483.483,0,0,0,0-.967H17.453a5.473,5.473,0,0,0-3.9,1.613L6.811,32.033H.967V27.878l7.865-7.865a3.193,3.193,0,0,0,.871-1.59,3.042,3.042,0,0,1,.826-1.516l3.246-3.247a1.755,1.755,0,0,1,2.482,2.482l-.58.581a1.8,1.8,0,0,0,1.269,3.064h6.974a2.394,2.394,0,0,0,1.7-.706l3.413-3.413a1.755,1.755,0,0,1,2.482,2.482l-5.1,5.1a1.433,1.433,0,0,1-1.02.422h-.428a.483.483,0,0,0,0,.967H25.4a2.393,2.393,0,0,0,1.7-.706l5.1-5.1a2.725,2.725,0,0,0,0-3.849ZM17.353,2.579a1.38,1.38,0,0,1,1.306,1.26h-2.7A1.352,1.352,0,0,1,17.353,2.579Zm7.625,12.75-.6.6-.046-.772a1.728,1.728,0,0,1,.648.17ZM24.941,18.4a1.447,1.447,0,0,1-.424.293,1.245,1.245,0,0,0,.009-.227l-.074-1.241,1.553-1.553a1.749,1.749,0,0,1,2-.34Zm0,0"/><path d="M26.206,7.955A1.248,1.248,0,0,0,27.453,9.2h2.442a1.247,1.247,0,0,0,0-2.494H27.453a1.248,1.248,0,0,0-1.247,1.247Zm3.968,0a.28.28,0,0,1-.28.28H27.453a.28.28,0,0,1,0-.56h2.442A.28.28,0,0,1,30.175,7.955Zm0,0"/><path d="M27.267,5.676,28.994,3.95a1.247,1.247,0,0,0-1.763-1.763L25.5,3.914a1.247,1.247,0,0,0,1.763,1.763ZM26.188,4.6,27.915,2.87a.28.28,0,0,1,.4.4L26.584,4.993a.28.28,0,1,1-.4-.4Zm0,0"/><path d="M27.231,13.724a1.247,1.247,0,0,0,1.763-1.763l-1.727-1.727A1.247,1.247,0,1,0,25.5,12Zm-1.043-2.806a.28.28,0,0,1,.4,0l1.727,1.727a.28.28,0,0,1-.4.4l-1.727-1.727A.279.279,0,0,1,26.188,10.918Zm0,0"/><path d="M4.728,9.2H7.17a1.247,1.247,0,1,0,0-2.493H4.728a1.247,1.247,0,1,0,0,2.493Zm0-1.527H7.17a.28.28,0,0,1,0,.56H4.728a.28.28,0,1,1,0-.56Zm0,0"/><path d="M7.356,5.676A1.247,1.247,0,1,0,9.119,3.914L7.392,2.187A1.247,1.247,0,0,0,5.629,3.95ZM6.313,2.87a.28.28,0,0,1,.4,0L8.435,4.6a.28.28,0,0,1-.4.4L6.313,3.266a.28.28,0,0,1,0-.4Zm0,0"/><path d="M7.356,10.234,5.629,11.961a1.247,1.247,0,0,0,1.763,1.763L9.119,12a1.247,1.247,0,0,0-1.763-1.763Zm1.079,1.079L6.709,13.04a.28.28,0,0,1-.4-.4L8.04,10.917a.28.28,0,0,1,.4.4Zm0,0"/></g></g></g></svg>