<svg xmlns="http://www.w3.org/2000/svg" xmlns:xlink="http://www.w3.org/1999/xlink" width="33" height="33" viewBox="0 0 33 33"><defs><clipPath id="a"><rect width="33" height="33" transform="translate(-6631 8987)" fill="#fff" stroke="#707070" stroke-width="1"/></clipPath></defs><g transform="translate(6631 -8987)" clip-path="url(#a)"><g transform="translate(-6631 8987)"><path d="M9.975,11.754A11.362,11.362,0,0,1,10.1,10.1,11.272,11.272,0,1,0,22.9,22.9,11.277,11.277,0,0,1,9.975,11.754Z" fill="#57a4ff"/><path d="M32.517,11.754A11.271,11.271,0,0,0,10.1,10.1,11.277,11.277,0,0,1,22.9,22.9,11.273,11.273,0,0,0,32.517,11.754Z" fill="#ffb655"/><path d="M11.754,9.975A11.362,11.362,0,0,0,10.1,10.1,11.277,11.277,0,0,0,22.9,22.9,11.277,11.277,0,0,0,11.754,9.975Z" fill="#91dc5a"/><path d="M2.417,21.246A11.275,11.275,0,0,1,10.036,10.58q.025-.244.061-.484a11.271,11.271,0,0,0,1.658,22.42q.489,0,.967-.041A11.272,11.272,0,0,1,2.417,21.246Z" fill="#006df0"/><path d="M22.886,23.022q.009-.059.018-.118-.343.051-.693.081Q22.545,23.013,22.886,23.022Z" fill="#006df0"/><path d="M22.212.524q-.478-.041-.967-.041A11.273,11.273,0,0,0,10.1,10.1a11.362,11.362,0,0,1,1.658-.122q.147,0,.294,0A11.276,11.276,0,0,1,22.212.524Z" fill="#ff7956"/><path d="M24.9,22.42A11.275,11.275,0,0,0,13.688,9.975q-.488,0-.965.041A11.278,11.278,0,0,1,22.9,22.9,11.2,11.2,0,0,0,24.9,22.42Z" fill="#ff7956"/><path d="M11.908,11.754A11.362,11.362,0,0,1,12.03,10.1q.343-.051.693-.081-.479-.041-.969-.041A11.362,11.362,0,0,0,10.1,10.1,11.277,11.277,0,0,0,21.246,23.025q.488,0,.965-.041A11.272,11.272,0,0,1,11.908,11.754Z" fill="#64c37d"/><path d="M18.975,26.9l.76.6c.208-.265.405-.544.586-.828l-.816-.519C19.342,26.41,19.164,26.662,18.975,26.9Z"/><path d="M19.817,25.625l.849.463c.162-.3.31-.6.441-.914l-.891-.376A9.153,9.153,0,0,1,19.817,25.625Z"/><path d="M17.934,28.023l.652.714c.249-.227.489-.47.714-.72l-.719-.646C18.378,27.6,18.16,27.817,17.934,28.023Z"/><path d="M16.723,28.957l.525.812c.283-.183.56-.382.823-.593l-.6-.756C17.23,28.611,16.979,28.791,16.723,28.957Z"/><path d="M9.08,31.031a10.083,10.083,0,0,0,.991.218l.16-.953a9.142,9.142,0,0,1-.9-.2Z" fill="#fff"/><path d="M10.742,31.338c.334.033.675.05,1.013.05v-.967c-.306,0-.614-.015-.917-.045Z" fill="#fff"/><path d="M2.578,21.246H1.611A10.157,10.157,0,0,0,8.434,30.83l.317-.913A9.189,9.189,0,0,1,2.578,21.246Z" fill="#fff"/><path d="M11.743,8.2l.905.339a9.226,9.226,0,0,1,2.575-3.71L14.589,4.1A10.2,10.2,0,0,0,11.743,8.2Z"/><path d="M24.566,2.17l-.317.913a9.189,9.189,0,0,1,6.173,8.672h.967A10.157,10.157,0,0,0,24.566,2.17Z" fill="#fff"/><path d="M22.769,2.7a9.138,9.138,0,0,1,.9.2l.255-.933a10.083,10.083,0,0,0-.991-.218Z" fill="#fff"/><path d="M21.246,2.578c.306,0,.614.015.917.045l.1-.962c-.334-.033-.675-.05-1.013-.05Z" fill="#fff"/><path d="M21.246,0A11.758,11.758,0,0,0,9.675,9.675,11.754,11.754,0,1,0,23.325,23.325,11.755,11.755,0,0,0,21.246,0ZM11.754,32.033a10.788,10.788,0,0,1-1.588-21.459,10.915,10.915,0,0,1,1.588-.117A10.8,10.8,0,0,1,22.542,21.246,10.781,10.781,0,0,1,11.754,32.033Zm11.706-9.72c.032-.356.048-.713.048-1.068A11.768,11.768,0,0,0,11.754,9.491c-.355,0-.713.016-1.068.048A10.788,10.788,0,1,1,23.46,22.314Z"/><path d="M21.246,22.542A10.8,10.8,0,0,1,10.458,11.754c0-.107,0-.216,0-.324L9.5,11.4c0,.117-.005.236-.005.352A11.768,11.768,0,0,0,21.246,23.509c.116,0,.234,0,.351-.005l-.029-.966C21.461,22.54,21.352,22.542,21.246,22.542Z"/><path d="M16.234,12.147a10.127,10.127,0,0,0-.932-.4l-.339.905a9.151,9.151,0,0,1,.842.365Z" fill="#fff"/><path d="M16.831,12.466l-.485.836a9.183,9.183,0,0,1,4.426,6.234l.95-.18A10.149,10.149,0,0,0,16.831,12.466Z" fill="#fff"/><path d="M14.661,11.527a10.1,10.1,0,0,0-.986-.242l-.183.949a9.134,9.134,0,0,1,.892.219Z" fill="#fff"/></g></g></svg>