<svg xmlns="http://www.w3.org/2000/svg" xmlns:xlink="http://www.w3.org/1999/xlink" width="33" height="33" viewBox="0 0 33 33"><defs><clipPath id="a"><rect width="33" height="33" transform="translate(-6631 7899)" fill="#fff" stroke="#707070" stroke-width="1"/></clipPath></defs><g transform="translate(6631 -7899)"><g clip-path="url(#a)"><g transform="translate(-6631 7899)"><path d="M6.716,15.046,5.669,12.917a.366.366,0,0,0-.329-.2H1.611A1.082,1.082,0,0,1,.53,11.63v-8.1A1.082,1.082,0,0,1,1.611,2.449H16.126a1.082,1.082,0,0,1,1.081,1.082v8.1a1.082,1.082,0,0,1-1.081,1.082H8.665a.366.366,0,0,0-.326.2l-1.1,2.139a.3.3,0,0,1-.527,0Z" fill="#f9f4f3"/><path d="M17.207,3.531v8.1a1.082,1.082,0,0,1-1.082,1.082H14.192a1.082,1.082,0,0,0,1.082-1.082v-8.1a1.082,1.082,0,0,0-1.082-1.082h1.934a1.082,1.082,0,0,1,1.082,1.082Z" fill="#f5edea"/><path d="M2.774,10.079V5.171A.528.528,0,0,1,3.3,4.643h5a.528.528,0,0,1,.529.529v4.908a.528.528,0,0,1-.529.529h-5a.529.529,0,0,1-.529-.529Z" fill="#ffb76f"/><path d="M25.093,18.276,26.14,16.15a.366.366,0,0,1,.329-.2h2.586a1.081,1.081,0,0,0,1.081-1.081V9.084A1.081,1.081,0,0,0,29.055,8H15.684A1.081,1.081,0,0,0,14.6,9.084v5.78a1.081,1.081,0,0,0,1.081,1.081h7.461a.366.366,0,0,1,.326.2l1.1,2.136a.3.3,0,0,0,.527,0Z" fill="#ade194"/><path d="M29.055,8H27.121A1.081,1.081,0,0,1,28.2,9.084v5.78a1.081,1.081,0,0,1-1.081,1.081h1.934a1.081,1.081,0,0,0,1.081-1.081V9.084A1.081,1.081,0,0,0,29.055,8Z" fill="#90d774"/><path d="M9.13,30.551H1.375a.892.892,0,0,1-.892-.892v-1.99A2.187,2.187,0,0,1,2.67,25.482H7.835a2.187,2.187,0,0,1,2.187,2.187v1.99a.892.892,0,0,1-.892.892Z" fill="#6bd9e7"/><path d="M31.625,30.551H23.869a.892.892,0,0,1-.892-.892v-1.99a2.187,2.187,0,0,1,2.187-2.187h5.165a2.187,2.187,0,0,1,2.187,2.187v1.99a.892.892,0,0,1-.892.892Z" fill="#fe646f"/><path d="M30.329,25.482H28.4a2.187,2.187,0,0,1,2.187,2.187v1.99a.892.892,0,0,1-.892.892h1.934a.892.892,0,0,0,.892-.892v-1.99a2.187,2.187,0,0,0-2.187-2.187Z" fill="#fd4755"/><path d="M25.128,23.813V22.059a2.594,2.594,0,0,1,5.188,0V23.8a2.594,2.594,0,0,1-5.188.01Z" fill="#ffcebf"/><path d="M27.722,19.465a2.585,2.585,0,0,0-.967.187,2.594,2.594,0,0,1,1.627,2.407V23.8a2.6,2.6,0,0,1-1.631,2.412A2.6,2.6,0,0,0,30.316,23.8V22.059a2.594,2.594,0,0,0-2.594-2.594Z" fill="#ffb09e"/><path d="M25.128,22.539h5.188v-.48a2.594,2.594,0,0,0-5.188,0v.48Z" fill="#e49280"/><path d="M27.722,19.465a2.585,2.585,0,0,0-.967.187,2.594,2.594,0,0,1,1.627,2.407v.48h1.934v-.48A2.594,2.594,0,0,0,27.722,19.465Z" fill="#dd7f66"/><path d="M7.835,25.482H5.9a2.187,2.187,0,0,1,2.187,2.187v1.99a.892.892,0,0,1-.892.892H9.13a.892.892,0,0,0,.892-.892v-1.99a2.187,2.187,0,0,0-2.187-2.187Z" fill="#02c7dd"/><path d="M2.634,23.813V22.059a2.594,2.594,0,1,1,5.187,0V23.8a2.594,2.594,0,0,1-5.187.01Z" fill="#ffcebf"/><path d="M5.228,19.465a2.585,2.585,0,0,0-.967.187,2.594,2.594,0,0,1,1.627,2.407V23.8a2.6,2.6,0,0,1-1.631,2.412A2.6,2.6,0,0,0,7.822,23.8V22.059a2.594,2.594,0,0,0-2.594-2.594Z" fill="#ffb09e"/><path d="M2.634,22.539H7.822v-.48a2.594,2.594,0,1,0-5.188,0v.48Z" fill="#e49280"/><path d="M5.228,19.465a2.585,2.585,0,0,0-.967.187,2.594,2.594,0,0,1,1.627,2.407v.48H7.822v-.48a2.594,2.594,0,0,0-2.594-2.594Z" fill="#dd7f66"/><path d="M3.3,4.159A1.013,1.013,0,0,0,2.291,5.171v4.908A1.013,1.013,0,0,0,3.3,11.091h5a1.013,1.013,0,0,0,1.012-1.012V5.171A1.013,1.013,0,0,0,8.3,4.159ZM8.349,5.171v4.908a.045.045,0,0,1-.045.045h-5a.045.045,0,0,1-.045-.045V5.171A.045.045,0,0,1,3.3,5.126h5A.045.045,0,0,1,8.349,5.171Z"/><path d="M5.713,5.7a.483.483,0,0,0-.483.483v1.27a.483.483,0,0,0,.967,0V6.181A.483.483,0,0,0,5.713,5.7Z"/><path d="M5.713,8.422a.483.483,0,0,0-.483.483v.222a.483.483,0,0,0,.967,0V8.906A.483.483,0,0,0,5.713,8.422Z"/><path d="M30.553,25.009A3.065,3.065,0,0,0,30.8,23.8V22.059a3.077,3.077,0,0,0-6.154,0v1.755a3.055,3.055,0,0,0,.244,1.2,2.674,2.674,0,0,0-2.395,2.656v1.99a1.377,1.377,0,0,0,1.375,1.375h2.584a.483.483,0,0,0,0-.967H23.87a.409.409,0,0,1-.409-.409v-1.99a1.706,1.706,0,0,1,1.7-1.7h.363a3.089,3.089,0,0,0,4.384,0h.418a1.706,1.706,0,0,1,1.7,1.7v1.99a.409.409,0,0,1-.409.409h-2.87a.483.483,0,0,0,0,.967h2.87A1.377,1.377,0,0,0,33,29.659v-1.99a2.674,2.674,0,0,0-2.447-2.66Zm-2.832-5.061a2.113,2.113,0,0,1,2.11,2.107H25.612A2.113,2.113,0,0,1,27.722,19.948Zm0,5.971a2.108,2.108,0,0,1-2.105-2.105v-.791h4.221V23.8A2.118,2.118,0,0,1,27.717,25.919Z"/><path d="M8.059,25.009A3.065,3.065,0,0,0,8.3,23.8V22.059a3.077,3.077,0,0,0-6.154,0v1.755a3.055,3.055,0,0,0,.244,1.2A2.674,2.674,0,0,0,0,27.669v1.99a1.377,1.377,0,0,0,1.375,1.375H9.13a1.377,1.377,0,0,0,1.375-1.375v-1.99A2.674,2.674,0,0,0,8.059,25.009Zm-4.942-1.2v-.791H7.338V23.8A2.11,2.11,0,0,1,3.117,23.813Zm2.11-3.865a2.113,2.113,0,0,1,2.11,2.107H3.118A2.113,2.113,0,0,1,5.228,19.948Zm4.311,9.71a.409.409,0,0,1-.409.409H1.375a.409.409,0,0,1-.409-.409v-1.99a1.706,1.706,0,0,1,1.7-1.7h.363a3.089,3.089,0,0,0,4.384,0h.418a1.706,1.706,0,0,1,1.7,1.7v1.99Z"/><path d="M24.136,18.5a.774.774,0,0,0,.692.423h.007a.774.774,0,0,0,.692-.434h0l1.015-2.061h2.513a1.566,1.566,0,0,0,1.565-1.565V9.084a1.566,1.566,0,0,0-1.565-1.565H17.69V3.531a1.567,1.567,0,0,0-1.565-1.566h-3.1a.483.483,0,0,0,0,.967h3.1a.6.6,0,0,1,.6.6V7.519h-1.04a1.566,1.566,0,0,0-1.565,1.565v3.145H8.665a.846.846,0,0,0-.756.462l-.925,1.8L6.1,12.7a.844.844,0,0,0-.762-.475H1.611a.6.6,0,0,1-.6-.6v-8.1a.6.6,0,0,1,.6-.6h9.057a.483.483,0,0,0,0-.967H1.611A1.567,1.567,0,0,0,.046,3.532v8.1A1.567,1.567,0,0,0,1.611,13.2H5.267l1.015,2.063a.774.774,0,0,0,.692.435h.007a.774.774,0,0,0,.692-.423L8.736,13.2h5.383v1.668a1.566,1.566,0,0,0,1.565,1.565h7.389Zm-9.05-3.637V9.084a.6.6,0,0,1,.6-.6H29.055a.6.6,0,0,1,.6.6v5.78a.6.6,0,0,1-.6.6H26.469a.844.844,0,0,0-.762.474l-.881,1.79-.925-1.8a.846.846,0,0,0-.756-.462H15.684a.6.6,0,0,1-.6-.6Z"/><path d="M17.634,10.612h1.354a.483.483,0,0,0,0-.967H17.634A.483.483,0,0,0,17.634,10.612Z"/><path d="M21.583,11.325H17.634a.483.483,0,0,0,0,.967h3.949A.483.483,0,0,0,21.583,11.325Z"/><path d="M21.583,12.909H17.634a.483.483,0,0,0,0,.967h3.949A.483.483,0,0,0,21.583,12.909Z"/><path d="M14.859,5.819a.483.483,0,0,0-.483-.483H10.994a.483.483,0,0,0,0,.967h3.382A.483.483,0,0,0,14.859,5.819Z"/><path d="M12.578,7.015H10.994a.483.483,0,0,0,0,.967h1.584a.483.483,0,0,0,0-.967Z"/><path d="M12.578,8.6H10.994a.483.483,0,0,0,0,.967h1.584a.483.483,0,0,0,0-.967Z"/><path d="M23.617,12.684l1.459.987a.484.484,0,0,0,.648-.1l1.895-2.361a.483.483,0,1,0-.754-.605L25.248,12.62l-1.09-.737a.483.483,0,1,0-.542.8Z"/></g></g></g></svg>