<svg xmlns="http://www.w3.org/2000/svg" xmlns:xlink="http://www.w3.org/1999/xlink" width="33" height="33" viewBox="0 0 33 33"><defs><clipPath id="a"><rect width="33" height="33" transform="translate(-6631 7970)" fill="#fff" stroke="#707070" stroke-width="1"/></clipPath></defs><g transform="translate(6631 -7970)" clip-path="url(#a)"><g transform="translate(-6631 7970)"><path d="M23.268,8.039a1.209,1.209,0,0,0-1.652.443l-.755,1.308V3.137a1.209,1.209,0,0,0-2.418,0V1.693a1.209,1.209,0,1,0-2.418,0V3.137a1.209,1.209,0,0,0-2.418,0V4.752a1.209,1.209,0,0,0-2.418,0v8.581a4.815,4.815,0,0,0,1.024,2.976,2.871,2.871,0,0,1,.6,1.77v1.61h6.43V18.079a2.911,2.911,0,0,1,.608-1.784,4.845,4.845,0,0,0,.438-.673l3.424-5.931a1.209,1.209,0,0,0-.443-1.652Z" fill="#ffcbbe"/><path d="M23.268,8.039a1.209,1.209,0,0,0-1.652.443l-.755,1.308V8.871l-3.153,5.461a4.84,4.84,0,0,1-.442.678,2.9,2.9,0,0,0-.6,1.78v.3A1.308,1.308,0,0,1,15.354,18.4H12.811V19.69h6.43V18.079a2.9,2.9,0,0,1,.6-1.78,4.846,4.846,0,0,0,.442-.678l3.424-5.931A1.209,1.209,0,0,0,23.268,8.039Z" fill="#eaac9d"/><path d="M12.24,19.689h7.571v2.7H12.24Z" fill="#efecef"/><path d="M11.927,22.388h8.2V32.516h-8.2Z" fill="#756e78"/><path d="M32.053,18.744a.926.926,0,0,0-1.264.339l-.578,1V14.99a.926.926,0,1,0-1.851,0V13.885a.926.926,0,1,0-1.851,0V14.99a.926.926,0,1,0-1.851,0v1.237a.926.926,0,1,0-1.851,0V22.8a3.686,3.686,0,0,0,.784,2.279,2.2,2.2,0,0,1,.457,1.355v1.233h4.922V26.43a2.229,2.229,0,0,1,.466-1.366,3.71,3.71,0,0,0,.335-.515l2.621-4.541a.926.926,0,0,0-.339-1.264Z" fill="#fff1dd"/><path d="M32.053,18.744a.926.926,0,0,0-1.264.339l-.578,1V18.032L27.192,23.26a3.708,3.708,0,0,1-.342.524,2.2,2.2,0,0,0-.459,1.357v.24a.994.994,0,0,1-.994.993H24.046c0,.019,0,1.289,0,1.289h4.922V26.43a2.2,2.2,0,0,1,.459-1.357,3.7,3.7,0,0,0,.342-.524l2.621-4.541a.926.926,0,0,0-.339-1.264Z" fill="#ffe4c1"/><path d="M23.61,27.663h5.8v2.066h-5.8Z" fill="#e28086"/><path d="M23.37,29.729h6.275v2.787H23.37Z" fill="#a7a2d3"/><path d="M.907,17.246a.847.847,0,0,1,1.156.31l.529.916V13.813a.847.847,0,0,1,1.693,0V12.8a.847.847,0,1,1,1.693,0v1.011a.847.847,0,0,1,1.693,0v1.131a.847.847,0,0,1,1.693,0v6.008a3.372,3.372,0,0,1-.717,2.084,2.011,2.011,0,0,0-.418,1.24V25.4h-4.5V24.276A2.038,2.038,0,0,0,3.3,23.027a3.39,3.39,0,0,1-.307-.471L.6,18.4a.847.847,0,0,1,.31-1.156Z" fill="#c18678"/><path d="M9.365,14.944a.847.847,0,0,0-1.693,0V13.813a.847.847,0,0,0-.509-.777.844.844,0,0,1,.269.619v6.008a3.371,3.371,0,0,1-.711,2.076A2.032,2.032,0,0,0,6.3,22.987v.238a.889.889,0,0,1-.889.889H3.721c0,.053.007.107.007.161V25.4h4.5V24.276a2.032,2.032,0,0,1,.424-1.247,3.372,3.372,0,0,0,.711-2.076Z" fill="#b46e59"/><path d="M3.328,25.4h5.3v1.89h-5.3Z" transform="translate(11.958 52.697) rotate(180)" fill="#f6e781"/><path d="M3.109,27.293H8.849v5.223H3.109Z" transform="translate(11.958 59.81) rotate(180)" fill="#93c8a5"/><path d="M17.546,22.388v7.5a1.335,1.335,0,0,1-1.335,1.335H11.927v1.289h8.2V22.388Z" fill="#544f57"/><path d="M27.068,29.729v.163a1.335,1.335,0,0,1-1.335,1.335H23.37v1.289h6.275V29.729Z" fill="#8078bc"/><path d="M6.271,27.293v2.6a1.335,1.335,0,0,1-1.335,1.335H3.109v1.289H8.849V27.293Z" fill="#69af81"/><path d="M32.516,7.4A2.389,2.389,0,0,0,30.13,5.016h-.682a.775.775,0,0,1,0-1.55h.682a.774.774,0,0,1,.715.474.806.806,0,0,0,1.484-.628A2.382,2.382,0,0,0,30.595,1.9V1.29a.806.806,0,1,0-1.611,0V1.9a2.387,2.387,0,0,0,.465,4.727h.682a.775.775,0,0,1,0,1.55h-.682a.771.771,0,0,1-.723-.494.806.806,0,0,0-1.5.585,2.37,2.37,0,0,0,1.759,1.475v.61a.806.806,0,0,0,1.611,0V9.744A2.391,2.391,0,0,0,32.516,7.4Z" fill="#93c8a5"/><path d="M20.231,16.591c.335-.431.111-.107,3.9-6.659a1.693,1.693,0,0,0-2.784-1.907V3.137a1.692,1.692,0,0,0-2.42-1.528,1.692,1.692,0,0,0-3.381,0,1.692,1.692,0,0,0-2.42,1.528v.086a1.692,1.692,0,0,0-2.418,1.529v5.763a.483.483,0,1,0,.967,0V4.752a.726.726,0,0,1,1.451,0v3.16a.483.483,0,1,0,.967,0V3.137a.726.726,0,0,1,1.451,0V7.912a.483.483,0,1,0,.967,0V1.693a.726.726,0,0,1,1.451,0V7.912a.483.483,0,0,0,.967,0V3.137a.726.726,0,0,1,1.451,0V9.658l-.325.563a2.537,2.537,0,0,0-2.622,4.191.483.483,0,0,0,.684-.684,1.57,1.57,0,0,1,1.9-2.469.483.483,0,0,0,.661-.176l1.351-2.337.014-.024a.726.726,0,0,1,1.257.726c-3.8,6.58-3.553,6.2-3.826,6.549a3.411,3.411,0,0,0-.71,2.08v1.127H13.294V18.079a3.368,3.368,0,0,0-.7-2.068,4.309,4.309,0,0,1-.921-2.679v-.562a.483.483,0,0,0-.967,0v.562a5.267,5.267,0,0,0,1.127,3.274,2.4,2.4,0,0,1,.495,1.473v1.126H12.24a.483.483,0,0,0-.483.483v2.246a.484.484,0,0,0-.313.452V32.516a.483.483,0,0,0,.483.483h8.2a.483.483,0,0,0,.483-.483V22.388a.483.483,0,0,0-.313-.452V19.689a.483.483,0,0,0-.483-.483h-.087V18.079a2.44,2.44,0,0,1,.507-1.488Zm-.99,3.582h.088V21.9h-6.6V20.173Zm.4,11.86h-7.23V22.871h7.23Z"/><path d="M32.295,18.325a1.41,1.41,0,0,0-1.6.132V14.99a1.409,1.409,0,0,0-1.869-1.332,1.409,1.409,0,0,0-2.782,0,1.409,1.409,0,0,0-1.866,1.232,1.409,1.409,0,0,0-1.855,1.337V22.8a4.145,4.145,0,0,0,.887,2.576,1.722,1.722,0,0,1,.355,1.058v.751a.483.483,0,0,0-.437.481v1.649a.483.483,0,0,0-.239.417v2.787A.483.483,0,0,0,23.37,33h6.275a.483.483,0,0,0,.483-.483V29.729a.483.483,0,0,0-.239-.417V27.663a.483.483,0,0,0-.437-.481V26.43a1.754,1.754,0,0,1,.364-1.07c.262-.338.1-.1,2.994-5.111A1.408,1.408,0,0,0,32.295,18.325ZM29.162,32.033H23.854v-1.82h5.309Zm2.811-12.266c-2.909,5.034-2.719,4.743-2.92,5a2.725,2.725,0,0,0-.567,1.662v.75h-.269a.483.483,0,0,0,0,.967h.706v1.1h-4.83v-1.1h1.868a.483.483,0,0,0,0-.967H24.53v-.749a2.693,2.693,0,0,0-.56-1.653,3.187,3.187,0,0,1-.681-1.981v-6.57a.442.442,0,1,1,.885,0v2.419a.483.483,0,0,0,.967,0V14.99a.442.442,0,1,1,.885,0v3.656a.483.483,0,0,0,.967,0V13.885a.442.442,0,1,1,.885,0v4.761a.483.483,0,0,0,.967,0V14.99a.442.442,0,1,1,.885,0v4.963l-.188.326A2.056,2.056,0,0,0,27.5,23.7a.483.483,0,1,0,.684-.684A1.089,1.089,0,0,1,29.5,21.307a.483.483,0,0,0,.661-.176l.466-.806.578-1h0a.442.442,0,0,1,.766.443Z"/><path d="M8.519,13.614a1.327,1.327,0,0,0-.371.053,1.331,1.331,0,0,0-1.711-1.126,1.33,1.33,0,0,0-2.608,0,1.33,1.33,0,0,0-1.719,1.272V16.9a1.33,1.33,0,0,0-1.93,1.743c2.649,4.583,2.5,4.365,2.741,4.679a1.562,1.562,0,0,1,.325.953v.652a.483.483,0,0,0-.4.476v1.485a.483.483,0,0,0-.219.4v5.223A.483.483,0,0,0,3.109,33H8.849a.483.483,0,0,0,.483-.483v-.983a.483.483,0,1,0-.967,0v.5H3.593V27.777H8.365v1.5a.483.483,0,1,0,.967,0V27.293a.483.483,0,0,0-.219-.4V25.4a.484.484,0,0,0-.4-.476v-.651a1.534,1.534,0,0,1,.316-.942,3.832,3.832,0,0,0,.82-2.382V14.944a1.331,1.331,0,0,0-1.33-1.33ZM3.811,26.81v-.923H8.146v.923Zm5.07-5.857a2.874,2.874,0,0,1-.614,1.786,2.5,2.5,0,0,0-.521,1.537v.644H4.211v-.645a2.534,2.534,0,0,0-.527-1.545c-.182-.235,0,.047-2.668-4.57a.363.363,0,0,1,.629-.363L2.6,19.45a.484.484,0,0,0,.661.176.954.954,0,0,1,1.153,1.5.483.483,0,0,0,.684.684A1.921,1.921,0,0,0,3.226,18.6l-.15-.26V13.813a.363.363,0,1,1,.726,0v3.344a.483.483,0,1,0,.967,0V12.8a.363.363,0,1,1,.726,0v4.355a.483.483,0,1,0,.967,0V13.813a.363.363,0,1,1,.726,0v3.344a.483.483,0,1,0,.967,0V14.944a.363.363,0,0,1,.726,0Z"/><path d="M27.95,6.688a1.289,1.289,0,0,0-1.176,1.757A2.851,2.851,0,0,0,28.5,10.114v.24a1.289,1.289,0,0,0,2.578,0v-.243a2.869,2.869,0,0,0,.481-5.2,1.289,1.289,0,0,0,1.215-1.791,2.867,2.867,0,0,0-1.7-1.592V1.289a1.289,1.289,0,0,0-2.578,0v.243a2.869,2.869,0,0,0-.55,5.156Zm1.128-4.314a.483.483,0,0,0,.389-.474V1.289a.322.322,0,1,1,.645,0V1.9a.483.483,0,0,0,.39.474A1.9,1.9,0,0,1,31.883,3.5a.322.322,0,1,1-.594.251,1.257,1.257,0,0,0-1.16-.769h-.682a1.258,1.258,0,1,0,0,2.517h.682a1.9,1.9,0,0,1,.371,3.77.483.483,0,0,0-.389.474v.611a.322.322,0,0,1-.645,0v-.61a.483.483,0,0,0-.391-.474,1.887,1.887,0,0,1-1.4-1.176.322.322,0,1,1,.6-.234,1.251,1.251,0,0,0,1.173.8h.682a1.258,1.258,0,1,0,0-2.517h-.682a1.9,1.9,0,0,1-.371-3.77ZM30.74,4.6a2.87,2.87,0,0,0-.61-.065h-.682a.292.292,0,0,1,0-.583h.682a.292.292,0,0,1,.269.179A1.281,1.281,0,0,0,30.74,4.6ZM28.874,7.053a2.871,2.871,0,0,0,.574.058h.682a.292.292,0,0,1,0,.583h-.682a.287.287,0,0,1-.272-.186A1.281,1.281,0,0,0,28.874,7.053Z"/></g></g></svg>