<svg xmlns="http://www.w3.org/2000/svg" width="295" height="233.001" viewBox="0 0 295 233.001"><g transform="translate(9559 -8512.999)"><g transform="translate(0 2385)"><path d="M0,0H295a0,0,0,0,1,0,0V93a20,20,0,0,1-20,20H20A20,20,0,0,1,0,93V0A0,0,0,0,1,0,0Z" transform="translate(-9559 6248)" fill="#d1c3fa"/><g transform="translate(-9587.575 6113.118)"><path d="M157.45,128.366l-111.892,64.6c-13.993,8.078-13.993,13.45-.005,21.525l111.9,64.607c13.982,8.072,23.307,8.078,37.3.006l111.9-64.6c13.982-8.079,13.987-13.465,0-21.541l-111.9-64.6c-13.992-8.073-23.312-8.07-37.3.009" transform="translate(-0.022 -73.372)" fill="#8d6af2" fill-rule="evenodd"/><path d="M35.041,379.182h0l-.01,10.767h0c0,3.363,3.494,6.725,10.49,10.764l111.9,64.607c13.982,8.072,23.307,8.078,37.3.006l111.9-64.6c6.991-4.039,10.487-7.405,10.489-10.771l.01-10.767c0,3.366-3.5,6.732-10.488,10.771l-111.9,64.6c-13.992,8.071-23.317,8.066-37.3-.006l-111.9-64.607c-7-4.039-10.492-7.4-10.49-10.764" transform="translate(0 -248.826)" fill="#764cf0" fill-rule="evenodd"/><path d="M225.268,183.658l-83.923,48.453c-9.324,5.384-9.325,16.151,0,21.535L225.269,302.1c9.324,5.383,27.974,5.383,37.3,0l83.924-48.453c9.325-5.384,9.325-16.151,0-21.535l-83.924-48.453c-9.325-5.384-27.974-5.384-37.3,0" transform="translate(-67.838 -112.52)" fill="#d1c3fa" fill-rule="evenodd"/><g transform="translate(93.741 14.882)"><path d="M388.982,357.347a14.431,14.431,0,0,0,2.217,2.47c1.048.819,2.1.982,2.292,1.474s.295,2.456-2.194,2.849-5.469-1.736-5.894-2.064-.492-1.269-.647-1.31-.115.7-.319.77-1.662-.368-1.908-1.023a20.016,20.016,0,0,1-.1-3.848,6.72,6.72,0,0,1,.117-1.267,5.726,5.726,0,0,0,3.324,2.505c2.1.426,3.046-.213,3.111-.557" transform="translate(-330.993 -247.464)" fill="#0da34a" fill-rule="evenodd"/><path d="M355.956,179.015c-.851,3.34.982,8.023,1.506,12.182a24.577,24.577,0,0,1-.458,8.056,8.471,8.471,0,0,0,7.532,2.423c4.814-.753,6.222-3.177,6.222-3.177s.557-14.376.491-18.011-.246-5.862-1.392-7.008a2.105,2.105,0,0,0-.5-.363,4.016,4.016,0,0,0-2.281-.371l-.138.015q-.085.092-.177.181a10.871,10.871,0,0,1,.34,2.626,22.058,22.058,0,0,1-.229,3.684,10.263,10.263,0,0,1-4.061-1.31,8.349,8.349,0,0,1-3.179-3.559,7.271,7.271,0,0,0-3.679,4.633" transform="translate(-312.789 -122.692)" fill="#e52f68" fill-rule="evenodd"/><path d="M393.622,371.323c-.056.772-.526,1.828-2.278,2.1-2.489.393-5.469-1.736-5.894-2.064s-.492-1.269-.647-1.31-.115.7-.319.77-1.662-.368-1.908-1.023a3.149,3.149,0,0,1-.121-.8,7.349,7.349,0,0,0,1.4.87c.409.115.655-.507,1-.507s.508.557.753.9a6.61,6.61,0,0,0,3.324,2.079c2.079.655,3.095.295,3.586-.2s.458-.917.687-1.032.42.212.42.212Z" transform="translate(-331.04 -256.75)" fill="#e6f2fe" fill-rule="evenodd"/><path d="M358.343,256.419a8.874,8.874,0,0,0-.637,4.078,16.4,16.4,0,0,0,.7,4.274s2.194,12.035,2.227,13.41-.524,3.111-.557,7.27-.147,7.073-.147,7.073a5.728,5.728,0,0,0,3.324,2.505c2.1.426,3.046-.213,3.111-.557s-.721-5.371-.721-7.991a42.789,42.789,0,0,1,.229-4.552,8.636,8.636,0,0,0,.769-2.9,7.784,7.784,0,0,0-.213-2.636s.884-6.484,1.474-10.545c.311-2.144.549-5.257.7-7.717a13.53,13.53,0,0,1-2.737.709,8.471,8.471,0,0,1-7.532-2.423" transform="translate(-314.128 -179.858)" fill="#1c344e" fill-rule="evenodd"/><path d="M383.2,257.188h0a14,14,0,0,0,1.952-.468,14.04,14.04,0,0,1-1.952.469m6.033-3.146s-.154,5.813-.253,9.644a54.183,54.183,0,0,0,.262,7.86,12.748,12.748,0,0,1-.262,4.486,31.084,31.084,0,0,0-.426,7.761,18.17,18.17,0,0,0,.721,4.356,2.344,2.344,0,0,1-2.325,2.194c-2.292.229-3.961-2.289-3.961-2.289-.116-1.158-.205-2.313-.205-3.2a42.789,42.789,0,0,1,.229-4.552,8.635,8.635,0,0,0,.769-2.9,7.785,7.785,0,0,0-.213-2.636s.884-6.484,1.474-10.545c.311-2.144.549-5.257.7-7.717q-.284.108-.6.209C388.258,255.722,389.234,254.042,389.234,254.042Z" transform="translate(-331.266 -178.234)" fill="#0f2741" fill-rule="evenodd"/><path d="M370.847,372.274a14.43,14.43,0,0,0,2.217,2.47c1.048.818,2.1.982,2.292,1.474s.295,2.456-2.194,2.849-5.469-1.736-5.895-2.063-.491-1.269-.647-1.31-.114.7-.319.77-1.662-.369-1.908-1.023a20.018,20.018,0,0,1-.1-3.848,6.745,6.745,0,0,1,.116-1.267,5.728,5.728,0,0,0,3.324,2.505c2.1.426,3.046-.213,3.111-.557" transform="translate(-318.607 -257.659)" fill="#0da34a" fill-rule="evenodd"/><path d="M381.48,376.57a14.134,14.134,0,0,0,2.195,2.439l.094.071a4.039,4.039,0,0,0-.88.559c-.311.295-.434.688-.7.688s-2.26-1.425-2.391-2.031a1.267,1.267,0,0,1,.579-1.124c.649-.121.99-.392,1.065-.591Z" transform="translate(-329.217 -261.924)" fill="#058237" fill-rule="evenodd"/><path d="M375.486,386.249c-.056.772-.526,1.828-2.278,2.1-2.489.393-5.469-1.736-5.895-2.063s-.491-1.269-.647-1.31-.114.7-.319.77-1.662-.369-1.908-1.023a3.134,3.134,0,0,1-.121-.8,7.355,7.355,0,0,0,1.4.87c.41.115.655-.508,1-.508s.508.557.753.9a6.613,6.613,0,0,0,3.324,2.079c2.08.655,3.095.295,3.586-.2s.458-.917.688-1.031S375.486,386.249,375.486,386.249Z" transform="translate(-318.653 -266.946)" fill="#e6f2fe" fill-rule="evenodd"/><path d="M399.976,361.644a14.162,14.162,0,0,0,2.195,2.439l.094.071h0a4.045,4.045,0,0,0-.88.559c-.311.295-.434.688-.7.688a7.1,7.1,0,0,1-2.238-1.738,2.286,2.286,0,0,0,1.526-2.019" transform="translate(-341.965 -251.729)" fill="#058237" fill-rule="evenodd"/><path d="M334.267,278.045l16.636,9.89V301.82l-16.636-9.89Z" transform="translate(-298.126 -194.629)" fill="#6d3c1b" fill-rule="evenodd"/><path d="M334.267,278.045l16.636,9.89v6.279l-8.262.59-8.374-8.842Z" transform="translate(-298.126 -194.629)" fill="#8d5024" fill-rule="evenodd"/><path d="M388.814,305.423l-2.063,1.212V320.52l2.063-1.212Z" transform="translate(-333.974 -213.329)" fill="#9a5720" fill-rule="evenodd"/><path d="M352.966,284.112l-2.063,1.212-16.636-9.89,2.063-1.212Z" transform="translate(-298.126 -192.018)" fill="#ba722a" fill-rule="evenodd"/><path d="M349.171,283.333a2.7,2.7,0,0,0-.178.344c-.033.156.049.491.516.647a1.352,1.352,0,0,0,.884-.025l.121-.22a.606.606,0,0,0-.05-.086c-.1-.131-.344-.131-.663-.057-.282.065-.526-.055-.63-.6" transform="translate(-308.181 -198.241)" fill="#8d5024" fill-rule="evenodd"/><path d="M359.513,320.543c0,.636-.386.923-.862.642a2.1,2.1,0,0,1-.863-1.663c0-.636.386-.923.863-.642a2.1,2.1,0,0,1,.862,1.663" transform="translate(-314.192 -222.447)" fill="#f2aa00" fill-rule="evenodd"/><path d="M349.211,185.9s-1.368.672-2.383,4.241a77.706,77.706,0,0,0-2.325,12.051,59.1,59.1,0,0,0,.917,7.434,28.628,28.628,0,0,1,.475,3.062c.115,1.031.106,3.1.18,3.856s.344.917.663.843.565-.074.663.057.139.45.63.4.458-.246.934.147,1.2.082,1.506-.082.557-1.343.573-2.341a3.164,3.164,0,0,0-.459-2.047,7.477,7.477,0,0,1-1.081-1.981c-.246-.77-.819-1.376-.524-4.683a13.247,13.247,0,0,0-.262-4.945s3.111-7.532,3.635-11.789-3.143-4.225-3.143-4.225" transform="translate(-305.118 -131.69)" fill="#fcc09e" fill-rule="evenodd"/><path d="M349.211,185.9s-1.368.672-2.383,4.241a77.706,77.706,0,0,0-2.325,12.051,59.1,59.1,0,0,0,.917,7.434,28.628,28.628,0,0,1,.475,3.062c.005.048.01.1.015.149h0a2.026,2.026,0,0,0,3.914-.532,5.2,5.2,0,0,1-.319-.763c-.246-.77-.819-1.376-.524-4.683a13.247,13.247,0,0,0-.262-4.945s3.111-7.532,3.635-11.789-3.143-4.225-3.143-4.225" transform="translate(-305.118 -131.69)" fill="#e52f68" fill-rule="evenodd"/><path d="M347.895,263.341c.166.908.226,1.426.317,2.241.005.048.01.1.015.149h0a2.026,2.026,0,0,0,3.914-.532,5.193,5.193,0,0,1-.319-.763c-.077-.24-.185-.465-.289-.76,0,0-.36.8-1.758.551a3.775,3.775,0,0,1-1.88-.885" transform="translate(-307.435 -184.586)" fill="#c51641" fill-rule="evenodd"/><path d="M398.722,173.965s2.127-.049,2.684,3.717-.688,10.823-.688,10.823a38.083,38.083,0,0,1,1.556,5.174c.622,2.816.851,3.848,1.064,4.126s1.9,1.768,2.047,2.374a12.447,12.447,0,0,1,.246,2.276c-.016.393-.966,1.343-1.392,1.457s-1.883.589-2.211.131.049-.868.1-1.212-.049-.589-.2-.671A2.054,2.054,0,0,1,400.767,201a4.446,4.446,0,0,1,.18-2.1l-.755-1.463c.148-4.033.47-13.288.42-16.1-.065-3.635-.246-5.862-1.392-7.008a2.1,2.1,0,0,0-.5-.363" transform="translate(-342.151 -123.54)" fill="#fcc09e" fill-rule="evenodd"/><path d="M398.722,173.965s2.127-.049,2.684,3.717-.688,10.823-.688,10.823a38.083,38.083,0,0,1,1.556,5.174c.622,2.816.851,3.848,1.064,4.126a5.28,5.28,0,0,1-1.036.7,4.49,4.49,0,0,1-1.355.393l-.755-1.463c.148-4.033.47-13.288.42-16.1-.065-3.635-.246-5.862-1.392-7.008a2.1,2.1,0,0,0-.5-.363" transform="translate(-342.151 -123.54)" fill="#e52f68" fill-rule="evenodd"/><path d="M405.847,241.936a8.97,8.97,0,0,0,.657,2.3,5.278,5.278,0,0,1-1.036.7,4.49,4.49,0,0,1-1.355.393l-.755-1.463.025-.678a6.463,6.463,0,0,0,1.094-.381,6.124,6.124,0,0,0,1.37-.87" transform="translate(-345.318 -169.966)" fill="#c51641" fill-rule="evenodd"/><path d="M408.939,253.274a3.425,3.425,0,0,1,.777,1.076,12.452,12.452,0,0,1,.246,2.276c-.016.393-.966,1.343-1.392,1.457s-1.883.589-2.211.131.049-.868.1-1.212-.049-.589-.2-.671a2.053,2.053,0,0,1-1.163-1.162,1.38,1.38,0,0,1-.035-.136c.011.03.42,1.068,1.017.939s.638.393.966.344.475-.344.262-1a1.126,1.126,0,0,1,.065-1.015,1.176,1.176,0,0,0,.18.712c.221.319.639.475.68.548s.188,1.474.5,1.49.426-.114.54-.737a3.87,3.87,0,0,0-.016-1.621c-.114-.653-.317-1.415-.318-1.419" transform="translate(-346.482 -177.71)" fill="#eb9d70" fill-rule="evenodd"/><path d="M361.977,277.913s1.965.819,2.26,1.424a25.124,25.124,0,0,1,.475,4.093.917.917,0,0,1-.786.262.9.9,0,0,1-.77-.385,25.9,25.9,0,0,0-.418-3.267c-.172-.246-1.334-.7-1.457-.933a.813.813,0,0,1,.074-.827.716.716,0,0,1,.623-.368" transform="translate(-316.522 -194.539)" fill="#8d5024" fill-rule="evenodd"/><path d="M371.18,171.341a3.283,3.283,0,0,1-.089.62,2.811,2.811,0,0,1-.2.573A8.61,8.61,0,0,0,373.089,175a8.258,8.258,0,0,0,3.373,1.588,15.311,15.311,0,0,0,.016-3.078,5.726,5.726,0,0,0-.175-.918,3.725,3.725,0,0,1-2.151.378,5.306,5.306,0,0,1-2.972-1.627" transform="translate(-323.144 -121.748)" fill="#fcc09e" fill-rule="evenodd"/><path d="M366.88,148.984s1.7,2.358,3.8,2.562a3.743,3.743,0,0,0,3.749-1.957,18.531,18.531,0,0,0,2.194-6.083,4.367,4.367,0,0,0-.046-.829h0a6.567,6.567,0,0,0-.438-1.372,3.535,3.535,0,0,0-.573-.884s-.426.54-2.259.655a5.627,5.627,0,0,1-3.389-1.1,2.043,2.043,0,0,1,.066,1.621c-.295,1.1-1.13.835-1.948,1.457s.54,1.932.54,1.932l-.737.983s-.819-1.916-1.31-1.785-.786.933-.7,1.736a2.278,2.278,0,0,0,.925,1.384,2.01,2.01,0,0,0,.164.688,2.037,2.037,0,0,0,.54.7l-.59.259Z" transform="translate(-319.67 -100.326)" fill="#fccfa8" fill-rule="evenodd"/><path d="M368.675,173.709l-.633,1.141a8.35,8.35,0,0,0,3.179,3.559,10.263,10.263,0,0,0,4.061,1.31,22.053,22.053,0,0,0,.229-3.684,10.871,10.871,0,0,0-.34-2.626,3.6,3.6,0,0,1-.816.594,5.724,5.724,0,0,1,.175.918,15.31,15.31,0,0,1-.016,3.078,8.258,8.258,0,0,1-3.373-1.588,8.609,8.609,0,0,1-2.194-2.464,2.192,2.192,0,0,0,.12-.3Z" transform="translate(-321.196 -123.16)" fill="#c51641" fill-rule="evenodd"/><path d="M362.832,136.911l.8-.352a2.038,2.038,0,0,1-.54-.7,2.01,2.01,0,0,1-.164-.688,2.278,2.278,0,0,1-.925-1.384c-.082-.8.213-1.6.7-1.736s1.31,1.785,1.31,1.785l.737-.983s-1.359-1.31-.54-1.932,1.654-.36,1.948-1.457a2.043,2.043,0,0,0-.066-1.621,5.627,5.627,0,0,0,3.389,1.1c1.834-.115,2.259-.655,2.259-.655a3.536,3.536,0,0,1,.573.884,6.585,6.585,0,0,1,.438,1.374l.2-1.669a4.961,4.961,0,0,0,.917-1.2,4.306,4.306,0,0,0,.557-1.212,5.169,5.169,0,0,1-.982.9,2.068,2.068,0,0,1-.688.278,4.015,4.015,0,0,0,1.244-2.227,4.719,4.719,0,0,0-.033-2.571,3.082,3.082,0,0,1-.655,1.67,1.581,1.581,0,0,1-1.228.573,1.987,1.987,0,0,0,.868-1.474,1.75,1.75,0,0,0-.41-1.408s.164,2.129-1.2,2.243-1.965-2.309-5.469-1.915a4.216,4.216,0,0,0-3.9,3.471s-1.736.851-1.768,4.257,2.612,6.649,2.612,6.649" transform="translate(-315.853 -88.188)" fill="#563317" fill-rule="evenodd"/><path d="M228.036,233.305l-.713,1.326a2.935,2.935,0,0,0-3.095,2.6c-.507,2.816.793,4.634,1.109,6.615s-.192,3.635-1.813,4.568a4.525,4.525,0,0,1-3.275.442s1.261,1.883,4.764,1,4.323-10.267,4.028-11.986-.8-2.1-.8-2.1l.871-.632a9.386,9.386,0,0,1-1.074-1.83Z" transform="translate(-220.25 -164.071)" fill="#a05c35" fill-rule="evenodd"/><path d="M243.279,233.305l-.713,1.326a2.056,2.056,0,0,0,.392.687c.328.418.524.45.524.45l.871-.632a9.386,9.386,0,0,1-1.074-1.83Z" transform="translate(-235.492 -164.071)" fill="#4b34a6" fill-rule="evenodd"/><path d="M255.048,247.786c.559-.131,1.206-.293,1.946-.494,1.084-.293,2.068-.643,2.961-.965a48.192,48.192,0,0,1,4.415,9.28,72.154,72.154,0,0,1,2.683,14.371,7.074,7.074,0,0,0-.752.629,7.887,7.887,0,0,0-2.08,3.733,9.646,9.646,0,0,0-2.662-1.867q.035-.286.069-.589c.72-6.288-.295-10.938-2-16.145a20.506,20.506,0,0,0-4.582-7.953" transform="translate(-244.018 -172.965)" fill="#bfc8d7" fill-rule="evenodd"/><path d="M255.471,245.713l.042,1.078a29.926,29.926,0,0,0,2.7,2.554,24.634,24.634,0,0,0,2.489,1.883,7.247,7.247,0,0,0,.131-2.194c-.017-.915-.063-1.9-.1-2.651a1.491,1.491,0,0,1-.409.236c-1.113.393-2.718.131-4.552-.753q-.155-.075-.3-.154" transform="translate(-244.307 -172.546)" fill="#fcc09e" fill-rule="evenodd"/><path d="M259.925,448.709l.024.116a8.067,8.067,0,0,1,1.3,2.554,18.562,18.562,0,0,0,2.08,3.848,2,2,0,0,1,.851-.688,3.311,3.311,0,0,1,.983-.311,23.694,23.694,0,0,1-1.588-4.241,4.857,4.857,0,0,1-.06-.74,3.1,3.1,0,0,1-1.114.162,4.835,4.835,0,0,1-2.473-.7" transform="translate(-247.349 -311.197)" fill="#fcc09e" fill-rule="evenodd"/><path d="M257.952,449.074a8.068,8.068,0,0,1,1.3,2.554,18.562,18.562,0,0,0,2.08,3.848,2,2,0,0,1,.851-.688,3.312,3.312,0,0,1,.983-.311,11.083,11.083,0,0,0,1.309,1.883c.557.54.884.934.852,1.163a1.8,1.8,0,0,1-2.342.95c-1.67-.409-3-2.587-3.046-2.751a2.487,2.487,0,0,0-.311-1.376,1.991,1.991,0,0,0-1.228-.622A4.065,4.065,0,0,1,257,451.038a2.384,2.384,0,0,1,.948-1.964" transform="translate(-245.352 -311.446)" fill="#c51641" fill-rule="evenodd"/><path d="M279.333,442.3c0,.018,0,.036,0,.054.012.266,1.17,2.806,1.776,4.118a2.544,2.544,0,0,0-.725.183,3.512,3.512,0,0,0-.9.573,10.233,10.233,0,0,1-1.826-2.923,8.831,8.831,0,0,0-1.541-2.636l-.04-.3a7.7,7.7,0,0,0,3.255.928" transform="translate(-258.382 -306.187)" fill="#fcc09e" fill-rule="evenodd"/><path d="M275.166,442.312s-.367.115-.465,1.2a2.212,2.212,0,0,0,.9,2.293,1.736,1.736,0,0,1,1.048,1.572,3.317,3.317,0,0,0,1.654,2.587,4.775,4.775,0,0,0,3.193,1.13c.458-.115.8-1.1.737-1.425a23,23,0,0,0-2.075-2.549,2.547,2.547,0,0,0-.725.183,3.511,3.511,0,0,0-.9.573,10.232,10.232,0,0,1-1.826-2.923,8.834,8.834,0,0,0-1.541-2.636" transform="translate(-257.43 -306.828)" fill="#c51641" fill-rule="evenodd"/><path d="M258.567,460.239a5.021,5.021,0,0,1,.377,1.317c.074.655.074,1.482.074,1.482a.408.408,0,0,0,.393.246,1.01,1.01,0,0,0,.557-.115l.026-1.679c-.2-.067-.391-.1-.528-.14a2.9,2.9,0,0,1-.9-1.111Z" transform="translate(-246.421 -319.072)" fill="#ab1137" fill-rule="evenodd"/><path d="M275.912,451.849a2.975,2.975,0,0,1,.151.866c.033.573,0,1.236,0,1.236s.049.237.41.246.426-.1.426-.1l.037-1.453a1.987,1.987,0,0,0-.5-.331,1.344,1.344,0,0,1-.528-.465Z" transform="translate(-258.269 -313.342)" fill="#ab1137" fill-rule="evenodd"/><path d="M272.948,267.015a.769.769,0,1,0,.77.769.769.769,0,0,0-.77-.769" transform="translate(-255.718 -187.095)" fill="#29415b" fill-rule="evenodd"/><path d="M276.1,276.288a.768.768,0,1,0,.77.769.769.769,0,0,0-.77-.769" transform="translate(-257.87 -193.429)" fill="#29415b" fill-rule="evenodd"/><path d="M250.393,321.386a33.56,33.56,0,0,0-2.066,8.964c-.393,4.879,2.391,13.132,2.128,17.16s-.819,4.29-.524,8.482.655,4.486.655,4.486a4.85,4.85,0,0,0,3.864,1.965c2.6.033,2.17-2.055,2.2-2.726s.336-9.742.86-11.773a13,13,0,0,0,.72-4.126,80.242,80.242,0,0,1,1.113-9.988,58.924,58.924,0,0,0,.267-8.266l-.01.044s-.77-.983-4.077-2.6a13.171,13.171,0,0,0-5.133-1.618Z" transform="translate(-239.401 -224.232)" fill="#1c344c" fill-rule="evenodd"/><path d="M242.683,250.929a20.506,20.506,0,0,1,4.582,7.953c1.7,5.207,2.718,9.857,2,16.145s-1.277,6.582-1.277,6.582a6.847,6.847,0,0,1-4.88-2.522c-2.292-2.587-2.423-4.421-2.423-4.421a7.621,7.621,0,0,0,1.637-5.3,9.587,9.587,0,0,0-1.331-4.849,46.466,46.466,0,0,1-3.549-7.053c-1.965-5.207,2.555-6.009,2.555-6.009s.272-.03.829-.131Z" transform="translate(-231.653 -176.108)" fill="#29415b" fill-rule="evenodd"/><path d="M282.135,318.154a21.337,21.337,0,0,1,1.172,11.109c-.983,6.353-2.063,9.53-2.1,11.364s.229,2.75-.393,4.388-.753,5.731-.851,7.827,0,3.668,0,3.668a2.031,2.031,0,0,1-1.211,1.539c-.9.431-3.142-.6-4.016-1.043.081-2.073.373-9.462.839-11.269a13,13,0,0,0,.72-4.126,80.236,80.236,0,0,1,1.113-9.988,58.924,58.924,0,0,0,.267-8.266,7.9,7.9,0,0,1,2.07-3.689,7.1,7.1,0,0,1,2.386-1.513" transform="translate(-257.468 -222.025)" fill="#0f2443" fill-rule="evenodd"/><path d="M270.526,244.206a48.193,48.193,0,0,1,4.415,9.28,68.375,68.375,0,0,1,2.718,15.359,51.407,51.407,0,0,1-.1,5.666,4.266,4.266,0,0,0,3.8-1.245c1.7-1.735,1.081-4.519,1.081-4.519a20.073,20.073,0,0,1-2.816-5.338,38.107,38.107,0,0,1-1.657-6.708q.046-.071.094-.15a5.216,5.216,0,0,0,.491-3.422c-.2-.819-2.161-2.325-2.292-5.01s.066-4.6-1.588-4.863a7.726,7.726,0,0,0-3.467.707Z" transform="translate(-254.59 -170.844)" fill="#29415b" fill-rule="evenodd"/><path d="M286.891,282.605c-.393-.59-2.358-.442-3.586.507s-4.045,5.01-4.045,5.01a23.631,23.631,0,0,1,3.422-.77c2.522-.442,3.176-.1,4.012-1.654a3.89,3.89,0,0,0,.2-3.095" transform="translate(-260.555 -197.505)" fill="#183350" fill-rule="evenodd"/><path d="M285.69,244.115a3.371,3.371,0,0,1,1.45,2.009,19.382,19.382,0,0,0,1.49,4.535c1.064,2.145,2.653,5.9,2.653,5.9-.294-.441-1.469-.47-2.556-.058a5.505,5.505,0,0,0,.183-2.757c-.2-.819-2.161-2.325-2.292-5.01-.11-2.256.011-3.968-.927-4.614Z" transform="translate(-264.947 -171.454)" fill="#405872" fill-rule="evenodd"/><path d="M237.541,255.791s1.743-.515,3.74,3.022,4.847,8.678,4.847,8.678a12.649,12.649,0,0,1,4.486-2.128,43.307,43.307,0,0,1,4.363-.909,4.016,4.016,0,0,0-1.03.565c-1.228.95-4.045,5.01-4.045,5.01a23.083,23.083,0,0,1-2.334,1.915c-.95.622-2.377.976-4.257-.753s-6.779-8.482-7.008-11.691,1.237-3.71,1.237-3.71" transform="translate(-231.198 -179.411)" fill="#29415b" fill-rule="evenodd"/><path d="M254.459,247.919a.648.648,0,0,0-.509.575c-.009.462,1.637,6.811,3.324,6.73s2.391-2.489,2.391-2.489a24.632,24.632,0,0,1-2.489-1.883,29.929,29.929,0,0,1-2.7-2.554Z" transform="translate(-243.268 -174.052)" fill="#e6f2fe" fill-rule="evenodd"/><path d="M272.006,247.828a5.869,5.869,0,0,1,1.807,2.339c.737,1.621,1.2,2.1.59,2.833s-2.423-.327-2.423-.327a7.247,7.247,0,0,0,.131-2.194c-.016-.915-.063-1.9-.1-2.651" transform="translate(-255.582 -173.99)" fill="#e6f2fe" fill-rule="evenodd"/><path d="M254.794,203.4a15.838,15.838,0,0,1-.205,3.294c-.426,2.456-2.063,5.371-3.177,5.764s-2.718.131-4.552-.753a6.024,6.024,0,0,1-1.221-.778A9.131,9.131,0,0,1,242.5,205c-.327-3.733.492-4.454.492-4.454a4.827,4.827,0,0,1,1.343-3.16c1.392-1.49,5.207-2.7,7.827-.409s2.628,6.426,2.628,6.426" transform="translate(-235.398 -138.387)" fill="#fccfa8" fill-rule="evenodd"/><path d="M245.422,210.743A9.116,9.116,0,0,1,242.5,205c-.327-3.733.492-4.454.492-4.454a4.827,4.827,0,0,1,1.343-3.16c1.392-1.49,5.207-2.7,7.827-.409a7.934,7.934,0,0,1,2.305,4.11c-.016-.037-.576-1.274-3.092-1.048a5.443,5.443,0,0,0-3.881,2.505,5.119,5.119,0,0,1,.246,2.031,3.3,3.3,0,0,1-.753,1.818,4.162,4.162,0,0,0-.246,2.047,4.043,4.043,0,0,0,.966,2.129,4.159,4.159,0,0,1-1.294-1.85c-.54-1.343-.164-2.26-.557-2.964s-1.777-.843-1.76.876.966,1.94.966,1.94a1,1,0,0,0,.057.77,2.634,2.634,0,0,0,.753.9Z" transform="translate(-235.398 -138.387)" fill="#a05c35" fill-rule="evenodd"/><path d="M281.549,234.126a5.3,5.3,0,0,1-1.228-1.654,7.4,7.4,0,0,1-.354-1.224,10.8,10.8,0,0,1-.308,1.151h0a5.171,5.171,0,0,0,.7.99,2.7,2.7,0,0,0,1.187.737" transform="translate(-260.828 -162.666)" fill="#a05c35" fill-rule="evenodd"/><path d="M250.057,294.409q-.171-.309-.352-.625a4.285,4.285,0,0,1,.352.625" transform="translate(-240.369 -205.379)" fill="#fff" fill-rule="evenodd"/><path d="M263.053,284.741a20.419,20.419,0,0,0-3.07-2.08c-.559-.11-1.13.573-1.474,1.163s.557,1.981,1.31,2.882,1.441-.851,1.441-.851a10.9,10.9,0,0,1,1.793-1.113Z" transform="translate(-246.331 -197.774)" fill="#fcc09e" fill-rule="evenodd"/><path d="M659.7,159.9a11.484,11.484,0,0,1-1.5-1.644l.446-.278a6.7,6.7,0,0,1-.786-1.1,2.6,2.6,0,0,1-.213-.491,2.071,2.071,0,0,1-.565-2.088c.442-1.138.9-.909,1.318-.188a8.134,8.134,0,0,1,.925,4.192,3.872,3.872,0,0,0,.379,1.594" transform="translate(-518.537 -109.567)" fill="#fccfa8" fill-rule="evenodd"/><path d="M656.077,124.161a4.218,4.218,0,0,0,3.242.786,10.165,10.165,0,0,0,2.652-.409,5.974,5.974,0,0,1,.344,1.6,12.773,12.773,0,0,1,.037,2.073,9.951,9.951,0,0,0,.536-2.007,10.432,10.432,0,0,0,.049-1.965,6.137,6.137,0,0,0,1.8-4.061,5.117,5.117,0,0,0-1.441-4.29s1.032,2.358-.769,2.964-3.242-1.31-6.517-1.081-3.946,2.309-4.077,2.931a2.656,2.656,0,0,0-.033,1.048s-1.114.2-1.883,2.194a3.218,3.218,0,0,0,.59,3.357,12.2,12.2,0,0,0,.933,3,8.9,8.9,0,0,0,1.588,2.358l.606-.377a6.693,6.693,0,0,1-.786-1.1,2.6,2.6,0,0,1-.213-.491,2.071,2.071,0,0,1-.565-2.088c.442-1.138.9-.909,1.318-.188a8.134,8.134,0,0,1,.925,4.192,4.016,4.016,0,0,0,2.129,3.406,7.355,7.355,0,0,0,4.323-.59c2.03-1.048,2.423-2.03,2.423-2.03a2.525,2.525,0,0,1-1.13-1.736,4.529,4.529,0,0,1-.119-1.962s-.5,1.569-.675,1.405-.254-.647-.622-.573-.393.41-.8.434-.729-.327-1.154-.336a1.516,1.516,0,0,0-1.367,1,2.334,2.334,0,0,1-.941,1.1,3.733,3.733,0,0,1-1.212-1.809,37.166,37.166,0,0,1-.852-3.963,8.581,8.581,0,0,0,1.711-1.359c.352-.507-.048-1.432-.048-1.432" transform="translate(-513.632 -83.874)" fill="#a05c35" fill-rule="evenodd"/><path d="M677.784,165.88s.123.835.86.581.712-.066,1.007-.172.352-.827.352-.827a.929.929,0,0,1-.541.123,1.007,1.007,0,0,1-.36-.131.918.918,0,0,1-.581.393,2.1,2.1,0,0,1-.737.033" transform="translate(-532.758 -117.727)" fill="#fccfa8" fill-rule="evenodd"/><path d="M664.774,171.408l-.016-.065c.005.022.011.043.016.065" transform="translate(-523.86 -121.749)" fill="#fff" fill-rule="evenodd"/><path d="M665.407,173.26l-.028-.064.028.064" transform="translate(-524.285 -123.015)" fill="#fff" fill-rule="evenodd"/><path d="M662.106,171.186l-.149,1.826-.309.24s1.512,3.075,4.492,2.42a2.624,2.624,0,0,0,2.336-2.253,7.544,7.544,0,0,1-3.828.365,4.148,4.148,0,0,1-1.586-1.508l-.007-.012-.034-.059-.007-.012-.027-.048-.007-.012-.007-.012-.026-.049-.006-.012-.006-.012-.006-.012-.025-.051-.006-.012h0a9.783,9.783,0,0,1-.792-.785" transform="translate(-521.736 -121.642)" fill="#fcc09e" fill-rule="evenodd"/><path d="M651.172,175.34a7.053,7.053,0,0,0-3.905,4.551c-.852,3.341.982,8.024,1.506,12.183a24.571,24.571,0,0,1-.459,8.056,8.472,8.472,0,0,0,7.532,2.424c4.814-.753,6.222-3.177,6.222-3.177s.557-14.376.491-18.011-.246-5.862-1.392-7.008a2.123,2.123,0,0,0-.5-.363A7.954,7.954,0,0,1,659,175.111c-.164.085-.329.159-.495.225a2.624,2.624,0,0,1-2.336,2.253c-2.979.655-4.491-2.418-4.492-2.42l-.5.17" transform="translate(-511.762 -123.56)" fill="#1fc16c" fill-rule="evenodd"/><path d="M680.293,357.377a14.423,14.423,0,0,0,2.217,2.47c1.048.819,2.1.983,2.292,1.474s.295,2.456-2.194,2.849-5.469-1.735-5.895-2.063-.491-1.269-.647-1.31-.114.7-.319.769-1.662-.368-1.908-1.023a20.011,20.011,0,0,1-.1-3.848,6.736,6.736,0,0,1,.116-1.267,5.729,5.729,0,0,0,3.324,2.505c2.1.426,3.045-.213,3.111-.557" transform="translate(-529.966 -247.484)" fill="#d10f18" fill-rule="evenodd"/><path d="M684.932,371.352c-.056.772-.526,1.828-2.278,2.1-2.489.393-5.469-1.735-5.895-2.063s-.491-1.269-.647-1.31-.114.7-.319.769-1.662-.368-1.908-1.023a3.15,3.15,0,0,1-.121-.8,7.358,7.358,0,0,0,1.4.87c.409.114.655-.508,1-.508s.508.557.753.9a6.61,6.61,0,0,0,3.324,2.08c2.08.655,3.095.295,3.586-.2s.459-.917.688-1.031.42.212.42.212Z" transform="translate(-530.012 -256.771)" fill="#e6f2fe" fill-rule="evenodd"/><path d="M691.287,361.674a14.12,14.12,0,0,0,2.195,2.439l.094.071h0a4.037,4.037,0,0,0-.88.559c-.311.295-.434.688-.7.688a7.1,7.1,0,0,1-2.238-1.738,2.286,2.286,0,0,0,1.526-2.019" transform="translate(-540.938 -251.75)" fill="#b20811" fill-rule="evenodd"/><path d="M649.654,256.448a8.874,8.874,0,0,0-.636,4.078,16.4,16.4,0,0,0,.7,4.274s2.194,12.035,2.227,13.41-.524,3.111-.557,7.27-.147,7.074-.147,7.074a5.727,5.727,0,0,0,3.324,2.505c2.1.426,3.046-.213,3.111-.557s-.721-5.371-.721-7.991a42.857,42.857,0,0,1,.229-4.552,8.624,8.624,0,0,0,.769-2.9,7.782,7.782,0,0,0-.213-2.636s.884-6.484,1.473-10.545c.311-2.145.55-5.257.705-7.717a13.523,13.523,0,0,1-2.737.709,8.472,8.472,0,0,1-7.532-2.424" transform="translate(-513.101 -179.878)" fill="#1c344e" fill-rule="evenodd"/><path d="M674.513,257.218h0a13.981,13.981,0,0,0,1.951-.469,13.938,13.938,0,0,1-1.951.469m6.033-3.146s-.155,5.813-.253,9.644a54.122,54.122,0,0,0,.262,7.859,12.766,12.766,0,0,1-.262,4.487,31.063,31.063,0,0,0-.426,7.761,18.159,18.159,0,0,0,.721,4.356,2.344,2.344,0,0,1-2.325,2.194c-2.292.229-3.961-2.289-3.961-2.289-.116-1.158-.205-2.313-.205-3.2a42.869,42.869,0,0,1,.229-4.552,8.621,8.621,0,0,0,.769-2.9,7.779,7.779,0,0,0-.213-2.636s.884-6.484,1.473-10.545c.311-2.145.55-5.257.705-7.717q-.284.108-.6.209C679.569,255.752,680.545,254.072,680.545,254.072Z" transform="translate(-530.239 -178.255)" fill="#0f2741" fill-rule="evenodd"/><path d="M662.158,372.3a14.432,14.432,0,0,0,2.217,2.47c1.048.819,2.1.983,2.292,1.474s.294,2.456-2.194,2.849-5.469-1.736-5.894-2.063-.491-1.269-.647-1.31-.114.7-.319.77-1.662-.368-1.908-1.023a20.049,20.049,0,0,1-.1-3.848,6.72,6.72,0,0,1,.117-1.267,5.727,5.727,0,0,0,3.324,2.505c2.1.426,3.046-.213,3.111-.557" transform="translate(-517.579 -257.679)" fill="#d10f18" fill-rule="evenodd"/><path d="M672.79,376.6a14.111,14.111,0,0,0,2.195,2.439l.093.071a4.033,4.033,0,0,0-.88.559c-.311.294-.434.688-.7.688s-2.259-1.424-2.391-2.031a1.267,1.267,0,0,1,.579-1.123c.649-.121.99-.392,1.065-.591Z" transform="translate(-528.19 -261.945)" fill="#b20811" fill-rule="evenodd"/><path d="M666.8,386.279c-.056.772-.526,1.828-2.278,2.1-2.489.393-5.469-1.736-5.894-2.063s-.491-1.269-.647-1.31-.114.7-.319.77-1.662-.368-1.908-1.023a3.142,3.142,0,0,1-.12-.8,7.361,7.361,0,0,0,1.4.87c.409.115.655-.507,1-.507s.508.557.753.9a6.611,6.611,0,0,0,3.324,2.08c2.08.655,3.095.294,3.586-.2s.458-.917.688-1.031S666.8,386.279,666.8,386.279Z" transform="translate(-517.626 -266.966)" fill="#e6f2fe" fill-rule="evenodd"/><path d="M659.092,177.344a4.608,4.608,0,0,0-.452.22,4.708,4.708,0,0,0,4,3.085c3.193.377,4.388-1.719,4.6-3.193a2.708,2.708,0,0,0,.023-.528q-.165.093-.348.187c-.164.085-.329.159-.495.225a2.624,2.624,0,0,1-2.336,2.253c-2.979.655-4.49-2.418-4.491-2.42l-.5.17" transform="translate(-519.682 -125.564)" fill="#0da34a" fill-rule="evenodd"/><path d="M676.107,255.377l5.047,2.649v1.1l-5.047-2.649Z" transform="translate(-531.612 -179.146)" fill="#8d8a91" fill-rule="evenodd"/><path d="M702.42,246.54l-10.39,5.45v1.1l10.39-5.45Z" transform="translate(-542.488 -173.11)" fill="#40454b" fill-rule="evenodd"/><path d="M660.922,235.665l9.86,5.175,10.39-5.45-9.86-5.175Z" transform="translate(-521.24 -161.96)" fill="#a1a1a1" fill-rule="evenodd"/><path d="M642.062,185.455s-1.473.443-2.128,3.145a43.4,43.4,0,0,0-1.277,7.4c-.082,1.916-.933,3.749-.786,5.027a5.771,5.771,0,0,0,2.98,4.356,31.977,31.977,0,0,0,5.043,2s1.05,2.2,2.005,2.645a10.029,10.029,0,0,0,4.028.213c.344-.131.36-.311.36-.311l-2.309-1.212v-1.1a2.212,2.212,0,0,1,1.228.049c.524.229,1.8.54,2.08.327s.147-.507-.655-.933-1.064-.9-2.031-1.114a21.566,21.566,0,0,1-2.26-.688s-1.539-1.768-3.046-3.242A22.078,22.078,0,0,0,643,199.988a35.094,35.094,0,0,0,1.211-4.978c.491-2.882,1.818-5.747.671-7.647a3.6,3.6,0,0,0-2.824-1.908" transform="translate(-505.484 -131.388)" fill="#fcc09e" fill-rule="evenodd"/><path d="M643.964,185.455s-1.473.443-2.128,3.145a51.713,51.713,0,0,0-1.2,6.356s.557.872,2.571,1.052a10.405,10.405,0,0,0,2.754-.156q.079-.407.154-.842c.491-2.882,1.817-5.747.671-7.647a3.6,3.6,0,0,0-2.824-1.908" transform="translate(-507.386 -131.388)" fill="#2fd981" fill-rule="evenodd"/><path d="M690.033,173.994a3.241,3.241,0,0,1,2.643,2.217c.655,2.03-.017,5.7-.049,7.139a16.915,16.915,0,0,1-.589,3.406,12.443,12.443,0,0,1,2,1.867,8.524,8.524,0,0,1,1.212,1.654,5.884,5.884,0,0,1,2.211,2.1c.655,1.277.851,1.6.557,1.67s-.966-.851-1.056-.917-.147-.114-.147-.114a3.667,3.667,0,0,1-.082,1.6,6.1,6.1,0,0,1-1.9,2.62c-.7.41-1.032.066-.9-.655a3.69,3.69,0,0,0-.393-2.538c-.491-.72-.835-.786-.835-.786s-.622.016-.8.475-.278,1.8-.819,2.014-.426-1.981-.426-2.522a7.669,7.669,0,0,1,1.069-2.129c.123-3.873.232-8.007.2-9.729-.066-3.635-.246-5.862-1.392-7.008a2.122,2.122,0,0,0-.5-.363" transform="translate(-541.124 -123.56)" fill="#fcc09e" fill-rule="evenodd"/><path d="M690.033,173.994a3.241,3.241,0,0,1,2.643,2.217c.581,1.8.118,4.894-.017,6.574-.1.088-.187.168-.255.221a4.464,4.464,0,0,1-.486.327c.01-.807.013-1.483,0-1.968-.066-3.635-.246-5.862-1.392-7.008a2.122,2.122,0,0,0-.5-.363" transform="translate(-541.124 -123.56)" fill="#2fd981" fill-rule="evenodd"/><path d="M672.006,147.586l.015-.069s-.5,1.569-.675,1.405-.254-.647-.622-.573-.393.41-.8.434-.729-.327-1.154-.336a1.516,1.516,0,0,0-1.367,1,2.335,2.335,0,0,1-.941,1.1,3.733,3.733,0,0,1-1.212-1.809,37.15,37.15,0,0,1-.852-3.962,8.582,8.582,0,0,0,1.711-1.359c.352-.507-.048-1.432-.048-1.432a4.218,4.218,0,0,0,3.242.786,10.167,10.167,0,0,0,2.653-.409,5.975,5.975,0,0,1,.344,1.6,12.765,12.765,0,0,1,.037,2.073l-.313,1.483s-.006.023-.015.069" transform="translate(-523.612 -101.693)" fill="#fccfa8" fill-rule="evenodd"/><path d="M692.03,239.9l.759.508,4.323-11.06-.759-.508Z" transform="translate(-542.488 -161.023)" fill="#8d8a91" fill-rule="evenodd"/><path d="M694.424,229.76l10.39-5.45,4.323-11.06-10.39,5.45Z" transform="translate(-544.123 -150.373)" fill="#40454b" fill-rule="evenodd"/><path d="M705.667,217.1l10.39-5.45.759.508-10.39,5.45Z" transform="translate(-551.803 -149.279)" fill="#a1a1a1" fill-rule="evenodd"/><path d="M465.374,79.652a8.462,8.462,0,0,0,2.473-.688c1.392-.606,5.977-.589,6.861-.737s2.046-.885,3.143-.328,1.212,4.093,2.194,5.927,1.867,1.981,1.588,4.732a5.208,5.208,0,0,1-1.883,3.815,7.424,7.424,0,0,0,.818,3.832c.95,1.375,2.784,6.451,1.932,12.608s-1.621,9.841-1.621,9.841a11.892,11.892,0,0,1-5.535,1.981,10.81,10.81,0,0,1-6.124-1.277s-3.569-6.026-3.373-12.052,3.34-7.826,3.209-10.938-3.406-5.6-4.912-9.792-.131-6.059.229-6.419a2.4,2.4,0,0,1,1-.506" transform="translate(-386.366 -57.785)" fill="#e52f68" fill-rule="evenodd"/><path d="M486.228,139.1a22.338,22.338,0,0,1,1.414,11.653c-.851,6.157-1.621,9.841-1.621,9.841a11.892,11.892,0,0,1-5.535,1.981,10.81,10.81,0,0,1-6.124-1.277s-3.569-6.026-3.373-12.052c.141-4.336,1.809-6.484,2.684-8.507a63.668,63.668,0,0,0,5.914,5.97c2.751,2.292,3.406,2.1,4.945-1.015a18.743,18.743,0,0,0,1.7-6.594" transform="translate(-391.506 -99.729)" fill="#f73b77" fill-rule="evenodd"/><path d="M471.374,149.784c.015-.062.029-.124.045-.185m5.86,16.32-.082-.018h0l-.066-.015-.026-.006-.218-.053-.021-.005-.063-.017-.076-.02h0l-.062-.017-.041-.012-.045-.013-.074-.021-.067-.02-.006,0-.07-.022h0l-.07-.022-.008,0-.058-.018-.016-.005c-.109-.035-.215-.071-.316-.107l-.005,0-.06-.021h0l-.061-.022-.051-.019-.02-.007-.048-.018h0l-.058-.022h0l-.044-.018-.021-.008-.047-.019-.055-.022-.046-.019-.017-.007-.042-.018-.051-.021-.18-.079-.011-.005-.042-.019h0l-.043-.02-.042-.019h0l-.04-.019-.039-.018-.02-.01-.018-.009-.036-.018h0l-.033-.016-.02-.01-.014-.007-.032-.016,0,0-.027-.014-.019-.01-.01-.005-.028-.015,0,0-.022-.011-.018-.009-.007,0-.023-.013-.005,0-.017-.009-.016-.008,0,0-.019-.01-.005,0-.012-.007-.013-.007,0,0-.014-.008,0,0-.008,0-.01-.005h0l-.009-.005,0,0,0,0-.006,0h0l0,0h0s-3.569-6.026-3.373-12.052c0-.085.006-.169.01-.252l0-.066q.005-.1.011-.2l0-.055q.008-.12.017-.239l0-.05c.005-.062.011-.125.017-.186l.007-.069c.008-.073.015-.145.023-.217v-.009c.009-.077.018-.153.028-.229l.008-.055c.007-.057.015-.113.023-.168l.009-.063c.01-.071.022-.142.033-.211l.005-.031c.01-.06.021-.119.031-.178l.011-.059q.017-.09.034-.179l.006-.029c.014-.068.027-.134.042-.2l.011-.05c.012-.052.023-.1.035-.156l.011-.05c.015-.062.029-.124.045-.185l0-.01.005-.02q.021-.085.044-.169l.013-.048.04-.146.012-.044c.017-.061.035-.12.053-.18l.011-.037.044-.144.015-.048c.018-.056.036-.113.055-.168v-.006l0-.014c.018-.052.035-.1.053-.156l.017-.048.046-.128.015-.042c.02-.053.039-.106.059-.159l.015-.04.047-.121.021-.054.055-.137.006-.014,0,0,.064-.154.016-.036.047-.11.024-.056c.02-.047.041-.093.061-.139l.012-.026.059-.13.012-.027.053-.115.026-.056.056-.119.024-.049.045-.093.019-.04.064-.131,0-.009.067-.136.016-.032.046-.092.02-.039.008-.015.053-.105.013-.026.04-.078.034-.066.019-.037.052-.1,0,0,.05-.1.022-.042.03-.058.041-.081.01-.019.05-.1.01-.02.006-.011.051-.1.012-.024.02-.04.047-.1v0l.059-.12.016-.033.048-.1.009-.019.053-.114.007-.014.008-.016.043-.1.018-.04.041-.092.009-.02,0-.007a70.372,70.372,0,0,0,5.182,5.335.58.58,0,0,0,.029.054s-2.128-1.932-3.275-.851-2.227,5.141-.852,10.643A26.764,26.764,0,0,0,477.279,165.918Z" transform="translate(-391.506 -103.261)" fill="#fff" fill-rule="evenodd"/><path d="M472.139,125.071a10.549,10.549,0,0,1-2.917-1.083s-3.569-6.026-3.373-12.052,3.34-7.826,3.209-10.938-3.406-5.6-4.912-9.792-.131-6.059.229-6.419a1.716,1.716,0,0,1,.467-.315A36.267,36.267,0,0,0,467.57,91c1.507,2.522,1.932,2.718,1.932,2.718s-1.769,2.963.556,5.108a3.6,3.6,0,0,0,4.65.36,6.35,6.35,0,0,0-1.72,5.272c.262,3.6.753,4.356.753,4.356s-2.128-1.932-3.275-.851-2.227,5.141-.852,10.643a26.764,26.764,0,0,0,2.523,6.462" transform="translate(-386.366 -62.414)" fill="#c51641" fill-rule="evenodd"/><path d="M512.845,88.745s5.831,2.166,6.912,1.577-1.343-5.272-3.7-7.27a57.241,57.241,0,0,0-6.949-4.573h0c1.028.676,1.159,4.092,2.119,5.883.939,1.753,1.788,1.965,1.618,4.382Z" transform="translate(-417.547 -58.32)" fill="#fcc09e" fill-rule="evenodd"/><path d="M512.845,88.745s.781.29,1.824.629a7.742,7.742,0,0,1,.634-4.129,8.693,8.693,0,0,1,1.163-1.821c-.137-.132-.273-.258-.41-.373a57.241,57.241,0,0,0-6.949-4.573h0c1.028.676,1.159,4.092,2.119,5.883.939,1.753,1.788,1.965,1.618,4.382Z" transform="translate(-417.547 -58.32)" fill="#c51641" fill-rule="evenodd"/><path d="M525.043,99.293l.467.154a7.742,7.742,0,0,1,.634-4.129,8.7,8.7,0,0,1,1.163-1.821q-.146-.142-.293-.272a6.5,6.5,0,0,0-1.656,2.862,6.825,6.825,0,0,0-.315,3.2" transform="translate(-428.388 -68.393)" fill="#e6f2fe" fill-rule="evenodd"/><path d="M473.587,209.543l3.392,9.588a11.754,11.754,0,0,0-4.241,4.47c-1.244,2.718-1.834,5.174-2.227,5.518a.936.936,0,0,1-.606.183,2.416,2.416,0,0,0-.4,1.633c.008,1.2.434,2.284.369,4.135a28.7,28.7,0,0,0,.36,4.486,1.854,1.854,0,0,0,.77.107,3.459,3.459,0,0,0,.833-.148c.021-1.1.075-3.159.2-4.715.18-2.227.336-2.292.532-2.6s6.385-7.753,6.385-7.753a9.575,9.575,0,0,0,2.341-2.866,6.194,6.194,0,0,0,.573-2.915c.078-.659.408-5.6.61-8.665a12.715,12.715,0,0,1-3,.692,10.852,10.852,0,0,1-5.888-1.148" transform="translate(-390.495 -147.841)" fill="#fcc09e" fill-rule="evenodd"/><path d="M499.622,207.4s-1.766,8.211-1.8,9.357.327,1.785-.246,3.521-1.031,2.03-1.031,2.03-1.278,8.743-1.212,11.331a15.3,15.3,0,0,0,1.261,5.6c.1.247.21.517.33.792a1.6,1.6,0,0,0-.726.222,1.577,1.577,0,0,0-.7.606,14.19,14.19,0,0,1-1.6-2.505c-1.114-2-2.159-4.518-2.159-4.518a57.811,57.811,0,0,1-.508-6.8c0-.343.018-.684.039-1.018,1.345-1.624,2.524-3.042,2.524-3.042a9.575,9.575,0,0,0,2.341-2.866,6.2,6.2,0,0,0,.573-2.915c.078-.659.408-5.6.61-8.665a12.752,12.752,0,0,1-1.672.48h0a12.01,12.01,0,0,0,3.983-1.614Z" transform="translate(-405.331 -146.38)" fill="#fcc09e" fill-rule="evenodd"/><path d="M463.957,271.031a.415.415,0,0,0-.3-.356c-.278-.082-1.76-.229-2.448,1.932s-.442,4.028.1,4.617a2.088,2.088,0,0,1,.8,2.112,10.879,10.879,0,0,0,1.031,4.879c.72,1.539,1.7,1.932,2.079,1.981s1.441-.164,1.228-.753a13.883,13.883,0,0,1-.516-2.931c-.017-.7-.052-1.269-.052-1.269a3.46,3.46,0,0,1-.833.148,1.854,1.854,0,0,1-.77-.107,28.7,28.7,0,0,1-.36-4.486c.066-1.85-.36-2.931-.369-4.135a2.416,2.416,0,0,1,.4-1.633" transform="translate(-384.547 -189.569)" fill="#d10f18" fill-rule="evenodd"/><path d="M489.432,290.8s1.046,2.521,2.159,4.518a14.19,14.19,0,0,0,1.6,2.505,1.577,1.577,0,0,1,.7-.606,1.605,1.605,0,0,1,.726-.222,30.811,30.811,0,0,0,1.607,2.858c.72,1.064,1.064,1.343.7,1.736a2.172,2.172,0,0,1-2.571.229,17.737,17.737,0,0,1-3.9-4c-.115-.344.147-1.294-.213-1.49s-.434.45-.688.336a5.045,5.045,0,0,1-1.711-2.759,3.759,3.759,0,0,1,.753-2.538,1.676,1.676,0,0,1,.821-.572" transform="translate(-403.031 -203.342)" fill="#d10f18" fill-rule="evenodd"/><path d="M457.919,276.445s-.873,1.03-1.495,1.963-.557,1.163-.442,1.768.344.8.426.8.484-.419.835-.508c.1-.026.228-.05.356-.072a7.292,7.292,0,0,1,.277-3.825c.014-.044.029-.087.043-.129Z" transform="translate(-381.21 -193.536)" fill="#b20811" fill-rule="evenodd"/><path d="M487.885,300.945a20.066,20.066,0,0,0,.3,2.408,8.668,8.668,0,0,0,.549,1.867c.1.131.81.164.908.147a7.874,7.874,0,0,0-.016-1.4,2.242,2.242,0,0,1,.04-.357.137.137,0,0,1-.08-.012,5.225,5.225,0,0,1-1.7-2.654" transform="translate(-403.052 -210.27)" fill="#b20811" fill-rule="evenodd"/><path d="M504.518,56.652c.475.2,1,1.031,1.621,2.538s3.242,7.008,4.618,8.023,3.056,1.215,3.247.4a6.19,6.19,0,0,0-.661-5.02c-1.375-2.325-6.534-8.449-6.7-8.957a19.291,19.291,0,0,0-1.556-4.159,29.932,29.932,0,0,0-3.683-3.755q.048.233.088.48c.075.457.125.9.153,1.339h0l0,0h0l0,0,.006.005.006.005,0,0h0l0,0h0l0,0h0l0,0h0l.006.005h0l.006.005,0,0h0l0,0h0l0,0h0l0,0h0l0,0h0l0,0h0l0,0h0l0,0h0l.006,0h0l0,0h0l0,0,0,0,.013.01h0l0,0h0l0,0,0,0,0,0,0,0h0l0,0h0l0,0h0l0,0,.012.009,0,0,0,0,0,0h0l.006,0,0,0,.006,0h0l0,0,0,0,0,0,0,0h0l0,0,.006,0,0,0,0,0,0,0,0,0,0,0,0,0,.027.017.011.007.016.01.021.014,0,0,.026.017.006,0,.02.014.016.011L502,47.8l.025.017h0l.023.016.011.008.013.01.021.015,0,0,.024.017.006,0,.017.013.016.011.008.005.023.017,0,0,.021.016.011.008.011.009.02.015,0,0,.022.017.007.005.015.011.015.012.006,0,.021.017,0,0,.018.015.011.009.01.008.019.015h0l.02.016.007.005.013.01.015.012,0,0,.019.016,0,0,.016.013.01.009.008.007.018.015h0l.018.015.007.006.028.024.017.015,0,0,.014.012.01.009.006.006.016.014h0l.016.014.007.006.009.008.013.011,0,0,.015.014,0,0,.011.01.01.009,0,0,.014.013h0l.013.012.007.006.007.007.012.011,0,0,.106.1.008.008,0,0,.01.01,0,0,.008.008c.1.1.145.156.145.156h-.813l-.013,0h-.013l-.012,0h-.013l-.013,0h-.013l-.013,0h0l-.013,0-.013,0-.013,0-.012,0-.013,0-.013,0-.012,0-.013,0-.012,0-.012,0-.013,0h0l-.012,0h0l-.012,0-.012,0h0l-.012,0-.012,0-.012,0h0l-.024,0-.012,0h0l-.012,0h0l-.012,0-.012,0-.012,0-.011,0h0l-.012,0h0l-.035.008h0l-.011,0h0l-.022.005h0l-.011,0-.011,0h0l-.011,0h0l-.011,0h0l-.011,0h0l-.01,0h0l-.01,0h0l-.01,0h0l-.01,0-.01,0-.01,0h0l-.01,0h0l-.01,0h0a13.126,13.126,0,0,1-.123,1.374l.319-.138.017-.007h0l.034-.013h0l.017-.006h0a4.058,4.058,0,0,1,1.164-.138h.9l-.006,0h-.03l0,0h0l0,0h-.005l-.005,0h-.005l-.006,0h-.006l-.006,0H503.9l-.007,0h-.007l-.007,0,0,0h0l-.008,0,0,0h0l-.008,0,0,0h0l-.008,0,0,0,0,0-.009,0,0,0,0,0-.009,0,0,0,0,0-.009,0,0,0,0,0-.01,0,0,0,0,0-.01,0-.005,0,0,0-.01,0-.005,0,0,0-.01,0-.005,0,0,0-.01,0-.005,0-.005,0-.01,0-.005,0-.005,0-.011,0-.006,0-.005,0-.011,0-.005,0-.006,0-.011,0-.005,0-.006,0-.011,0-.006,0-.006,0-.011,0-.006,0-.006,0-.012,0-.006,0-.006,0-.011.005-.006,0-.006,0-.012,0-.006,0-.006,0-.01,0-.011,0-.011,0-.011,0-.011,0-.011,0-.011,0-.011,0-.011,0h0l-.011,0h0l-.011,0-.011,0h0l-.011,0-.011,0-.011.005h0l-.011,0h0l-.011.005-.011,0h0l-.011,0h0l-.011,0-.011.005h0l-.011.005h0l-.011,0-.011.005h0l-.011.005-.011.005-.011.005-.011,0h0l-.011.005-.011.005h0l-.011.005-.011.005h0l-.011.005-.01.005-.011.005-.01.005-.01.005h0l-.01.005-.01.005-.01.005h0l-.01.005h0l-.01.005-.01.005h0l-.01.005-.01.005h0l-.01.005-.01.005-.01.005-.01.005-.01.005h0l-.009.005-.01.005h0l-.01.005-.009.005-.009.005-.009.005h0l-.009.005-.009.005h0l-.009.005-.009.005h0l-.009.005h0l-.009.005h0l-.009.005-.008.005c-.393.246-1.1.737-1.146.95s.508.442,1.359.147l.02-.007.02-.007.02-.007.02-.007.02-.007h0l.02-.007.02-.007.02-.007.02-.007.02-.006h0l.02-.006h0l.02-.007.02-.006.02-.006h0l.02-.006.02-.006.02-.006.02-.006.02-.006.02-.006.02-.006.02-.006.02-.006.02-.006.02-.006.02-.006.02-.006.02-.005.02-.006.02-.006.02-.006.02-.005.02-.005.02-.005.02-.005.019-.005h0l.019-.005.019-.005.039-.01.019-.005.019,0h0l.019,0,.019,0,.019-.005h0l.019,0,.019,0,.018,0,.018,0,.018,0,.018,0,.018,0h0l.018,0,.018,0,.018,0,.018,0,.017,0,.017,0,.017,0,.017,0h0l.017,0,.017,0,.016,0,.017,0h0l.012,0,.013,0,.007,0h.006l.013,0,.013,0h0l.013,0,.013,0h.005l.007,0,.012,0,.011,0h0l.012,0,.012,0h0l.008,0,.012,0,.009,0h0l.012,0,.011,0h0l.009,0,.011,0h.011l.011,0,.011,0h0l.01,0,.01,0h.01l.01,0,.009,0h0l.01,0,.01,0h.01l.01,0,.008,0h0l.009,0,.009,0h0l.007,0,.009,0h.008l.008,0,.008,0h.008l.008,0h.008l.008,0,.007,0h.007l.007,0h.091l.023,0,.547.781,0,0,.144.2-1.753,2.937-.606.07L501.982,53.5l-.264.01a3.911,3.911,0,0,0-1.1.046q-.136.312-.28.6c.316.221.875.439,1.081.586a10.756,10.756,0,0,0,1.85,1.339,6.621,6.621,0,0,0,1.245.578" transform="translate(-411.56 -35.949)" fill="#fcc09e" fill-rule="evenodd"/><path d="M472.855,185.26l7.964,4.323,2.407-.812-7.964-4.323Z" transform="translate(-392.786 -130.7)" fill="#ba722a" fill-rule="evenodd"/><path d="M468.34,187.009l7.964,4.323-.016,7.768-7.964-4.323c-1.678-.862-2.669-1.806-1.694-3.717Z" transform="translate(-388.271 -132.449)" fill="#8d5024" fill-rule="evenodd"/><path d="M500.353,198.085l1.357,6.842s-.064,1.689-1.407,2.065a3.031,3.031,0,0,1-2.374-.328l.017-7.768Z" transform="translate(-409.912 -140.014)" fill="#9a5720" fill-rule="evenodd"/><path d="M511.029,66.007l.607-.07-1.753,2.937-.607.07Z" transform="translate(-417.663 -49.754)" fill="#40454b" fill-rule="evenodd"/><path d="M503.292,53.162a3.41,3.41,0,0,1,.763-.131l-.772-1.063c.022.409.024.807.01,1.195m3.258,3.3-.672-.925c-.348.082-.8.2-1.227.348-.851.295-1.408.066-1.359-.147s.753-.7,1.146-.95a5,5,0,0,1,.661-.323l-.169-.233a4.227,4.227,0,0,0-1.441.163l-.319.138a12.909,12.909,0,0,1-.451,2.005L504.8,59.4Z" transform="translate(-413.184 -40.212)" fill="#8d8a91" fill-rule="evenodd"/><path d="M505.888,52.663l-.086-.119a6.647,6.647,0,0,0-1.135-.928,2.068,2.068,0,0,1-.2-.15c0,.053.007.106.01.159l.772,1.063c.3-.024.562-.025.639-.025m.917,1.263,0,0c-.049,0-.328-.026-.68-.031l.169.233C506.548,54.019,506.768,53.939,506.806,53.926Zm.939,2.2.606-.07-.71-.978c-.068.013-.282.055-.568.123Z" transform="translate(-414.378 -39.869)" fill="#a1a1a1" fill-rule="evenodd"/><path d="M462.231,84.079a3.4,3.4,0,0,0-2.841,2.55c-.524,2.292.77,4.978.966,5.387s.425,11.4.7,12.608,4.077,7.139,4.175,7.631.229,3.586.311,3.831a10.351,10.351,0,0,0,2.9,2.112c.475.016,1.2-.753,1.2-.753s-.41.033-.688-.688a11.6,11.6,0,0,1-.458-1.948l1.474,1.048a1.971,1.971,0,0,0,.082-1.114,13.783,13.783,0,0,0-1.8-3.078,5.635,5.635,0,0,1-.95-1.965c-.246-.819-2.325-8.482-2.325-8.482s.164-8.728.2-9.612.806-4.609-.295-6.239a2.644,2.644,0,0,0-2.643-1.289" transform="translate(-383.504 -62.125)" fill="#fcc09e" fill-rule="evenodd"/><path d="M462.231,84.079a3.4,3.4,0,0,0-2.841,2.55c-.524,2.292.77,4.978.966,5.387a8.216,8.216,0,0,1,.117,1.261h0a3.4,3.4,0,0,0,1.782.949,5.729,5.729,0,0,0,2.853.059c.027-1.329.051-2.4.061-2.678.033-.884.806-4.609-.295-6.239a2.644,2.644,0,0,0-2.643-1.289" transform="translate(-383.504 -62.125)" fill="#c51641" fill-rule="evenodd"/><path d="M462.715,109.21a9.026,9.026,0,0,1,.113,1.253h0a3.4,3.4,0,0,0,1.782.949,5.73,5.73,0,0,0,2.853.059l.021-1.017a6.471,6.471,0,0,1-2.81.025,3.5,3.5,0,0,1-1.96-1.269" transform="translate(-385.86 -79.311)" fill="#e6f2fe" fill-rule="evenodd"/><path d="M478.669,78.64s-.7.562-.717.893a27.961,27.961,0,0,0,4.367,7.634c2.358,2.767,2.421-1.343,2.421-1.343s-.442-.344-1.85-1.637-3.946-3.979-4.11-4.683a5.364,5.364,0,0,1-.111-.863Z" transform="translate(-396.267 -58.43)" fill="#c51641" fill-rule="evenodd"/><path d="M495.125,79.159a12.686,12.686,0,0,1,2.288,3.433c1.048,2.227,1.49,3.9,1.113,4.306s-2.163-.72-2.163-.72-.54-3.062-.933-4.716c-.189-.8-.348-1.611-.462-2.242.026-.009.051-.018.075-.028Z" transform="translate(-407.889 -58.785)" fill="#c51641" fill-rule="evenodd"/><path d="M488.377,181.091l1.2.851.012.009.039.028.039.028.039.028.039.028.039.028.039.028.031.022.008.006.039.028.039.028.039.028.039.028.039.028.039.028.039.028.039.028.039.028.039.028.039.028.039.028.039.028.039.028.039.028.039.028.039.028.039.028.039.028.039.028.039.028.039.028.039.028.039.028.039.028.039.028c.021,1.183.032,1.842.052,3.025-.523.216-1.2.191-1.289-.4l-.028-1.582-.154-.11c.044-.044.07-.071.07-.071s-.41.033-.688-.688a11.594,11.594,0,0,1-.458-1.948" transform="translate(-403.388 -128.407)" fill="#f2aa00" fill-rule="evenodd"/><path d="M479.413,186.7c.085.381.877.43,1.015,0v-.278a10.773,10.773,0,0,1-1.015-.867Z" transform="translate(-397.265 -131.455)" fill="#f2aa00" fill-rule="evenodd"/><path d="M479.59,36.771a10.212,10.212,0,0,1,1.107,3.318,12.972,12.972,0,0,1-1.212,8.056c-.95,1.834-1.048,1.883-1.572,2.1a5.17,5.17,0,0,1-2.047.147,19.23,19.23,0,0,1-3.963-1.965,5.324,5.324,0,0,1-.53-.484l.906-.827s-.246-.311-.54-.671a1.957,1.957,0,0,1-.377-.753,2.276,2.276,0,0,1-1.1-1,2.412,2.412,0,0,1-.377-1.048,2.88,2.88,0,0,0,2.653-1.457,4.034,4.034,0,0,0,.18-3.6,3.8,3.8,0,0,0,4.208.573,5.012,5.012,0,0,0,2.66-2.385" transform="translate(-390.76 -29.833)" fill="#fccfa8" fill-rule="evenodd"/><path d="M467.332,27.321a3.8,3.8,0,0,0,4.208.573c2.718-1.048,2.063-2.784,4.012-3.308s3.258,1.637,3.258,1.637-.753-3.406-2.538-5.158-3-.115-4.094.589-1.752-.917-4.29-.851-4.339,4.29-4.339,4.29-1.916.737-1.49,5.125a8.885,8.885,0,0,0,3.924,6.459l.906-.827s-.246-.311-.54-.671a1.956,1.956,0,0,1-.377-.753,2.277,2.277,0,0,1-1.1-1,2.412,2.412,0,0,1-.377-1.048,2.88,2.88,0,0,0,2.653-1.457,4.034,4.034,0,0,0,.18-3.6" transform="translate(-385.37 -18.571)" fill="#a05c35" fill-rule="evenodd"/><path d="M463.849,29.758a4.078,4.078,0,0,1-1.052-.149c-.639-.164-.753-.2-.753-.2a1.465,1.465,0,0,0-.7.786,1.42,1.42,0,0,0-.065,1.1l.769,1.048A2.149,2.149,0,0,1,463,31.33a12.259,12.259,0,0,1,.847-1.572Z" transform="translate(-384.822 -24.807)" fill="#d10f18" fill-rule="evenodd"/><path d="M449.519,19.521a4.58,4.58,0,0,0-.565-3.734c-1.212-1.67-5.207-1.146-6.124,2.554s2.652,7.139,2.751,9.89-2.62,1.539-2.62,1.539,2.031,2.1,4.028.589.033-3.93.622-6.222a5.852,5.852,0,0,1,1.209-2.5l-.193-.263a1.42,1.42,0,0,1,.065-1.1,1.466,1.466,0,0,1,.7-.786l.123.033" transform="translate(-372.175 -14.882)" fill="#a05c35" fill-rule="evenodd"/><path d="M480.166,75.891a8.1,8.1,0,0,0,.124,1.735c.164.7,2.7,3.389,4.11,4.683s1.85,1.637,1.85,1.637-.54-3.062-.933-4.716c-.189-.8-.348-1.611-.462-2.242a5.421,5.421,0,0,1-1.972.12,16.4,16.4,0,0,1-2.716-1.217Z" transform="translate(-397.776 -56.553)" fill="#fcc09e" fill-rule="evenodd"/><path d="M570.245,438.047a14.433,14.433,0,0,0,2.217,2.47c1.048.818,2.1.982,2.292,1.474s.295,2.456-2.194,2.849-5.469-1.736-5.895-2.063-.491-1.269-.647-1.31-.114.7-.319.769-1.662-.368-1.908-1.023a20.04,20.04,0,0,1-.1-3.848,6.743,6.743,0,0,1,.116-1.267,5.728,5.728,0,0,0,3.324,2.505c2.1.426,3.046-.213,3.111-.557" transform="translate(-454.801 -302.583)" fill="#6d4fc9" fill-rule="evenodd"/><path d="M537.218,259.715c-.851,3.34.983,8.023,1.507,12.183a24.569,24.569,0,0,1-.459,8.056,8.471,8.471,0,0,0,7.532,2.423c4.814-.753,6.222-3.176,6.222-3.176s.557-14.376.491-18.011-.246-5.862-1.392-7.008a2.1,2.1,0,0,0-.5-.363,4.019,4.019,0,0,0-2.281-.371c-1.441.131-6.716,1.334-6.716,1.334a7.136,7.136,0,0,0-4.407,4.934" transform="translate(-436.596 -177.813)" fill="#dce8f6" fill-rule="evenodd"/><path d="M574.884,452.023c-.056.772-.526,1.828-2.278,2.1-2.489.393-5.469-1.736-5.895-2.063s-.491-1.269-.647-1.31-.114.7-.319.769-1.662-.368-1.908-1.023a3.15,3.15,0,0,1-.12-.8,7.355,7.355,0,0,0,1.4.87c.41.114.655-.508,1-.508s.508.557.753.9a6.608,6.608,0,0,0,3.324,2.08c2.08.655,3.095.295,3.586-.2s.458-.917.688-1.031.42.212.42.212Z" transform="translate(-454.847 -311.871)" fill="#e6f2fe" fill-rule="evenodd"/><path d="M539.606,337.118a8.879,8.879,0,0,0-.636,4.078,16.381,16.381,0,0,0,.7,4.273s2.194,12.035,2.227,13.411-.524,3.111-.557,7.27-.147,7.073-.147,7.073a5.727,5.727,0,0,0,3.324,2.505c2.1.426,3.046-.213,3.111-.557s-.72-5.371-.72-7.991a42.857,42.857,0,0,1,.229-4.552,8.624,8.624,0,0,0,.769-2.9,7.779,7.779,0,0,0-.213-2.636s.884-6.484,1.473-10.545c.311-2.145.55-5.257.705-7.717a13.5,13.5,0,0,1-2.737.709,8.471,8.471,0,0,1-7.532-2.423" transform="translate(-437.935 -234.978)" fill="#5c5253" fill-rule="evenodd"/><path d="M564.464,337.888h0a13.973,13.973,0,0,0,1.951-.469,13.962,13.962,0,0,1-1.952.469m6.033-3.146s-.155,5.812-.253,9.644a54.207,54.207,0,0,0,.262,7.86,12.768,12.768,0,0,1-.262,4.486,31.058,31.058,0,0,0-.426,7.761,18.149,18.149,0,0,0,.72,4.356,2.344,2.344,0,0,1-2.325,2.194c-2.292.229-3.961-2.289-3.961-2.289-.116-1.157-.2-2.313-.2-3.2a42.844,42.844,0,0,1,.229-4.552,8.624,8.624,0,0,0,.769-2.9,7.782,7.782,0,0,0-.213-2.636s.884-6.484,1.473-10.545c.311-2.145.55-5.257.7-7.717q-.284.108-.6.209C569.521,336.422,570.5,334.742,570.5,334.742Z" transform="translate(-455.073 -233.355)" fill="#382e2c" fill-rule="evenodd"/><path d="M552.109,452.973a14.427,14.427,0,0,0,2.217,2.47c1.048.819,2.1.983,2.292,1.474s.295,2.456-2.194,2.849-5.469-1.736-5.894-2.063-.491-1.269-.647-1.31-.114.7-.319.77-1.662-.368-1.908-1.023a20.019,20.019,0,0,1-.1-3.848,6.72,6.72,0,0,1,.117-1.267A5.727,5.727,0,0,0,549,453.53c2.1.426,3.046-.213,3.111-.557" transform="translate(-442.413 -312.779)" fill="#6d4fc9" fill-rule="evenodd"/><path d="M562.742,457.27a14.135,14.135,0,0,0,2.2,2.439l.093.071h0a4.032,4.032,0,0,0-.88.559c-.311.295-.434.688-.7.688S561.2,459.6,561.064,459a1.267,1.267,0,0,1,.579-1.123c.649-.122.99-.392,1.065-.591Z" transform="translate(-453.024 -317.044)" fill="#4b34a6" fill-rule="evenodd"/><path d="M556.749,466.949c-.056.772-.526,1.828-2.278,2.1-2.489.393-5.469-1.736-5.894-2.063s-.491-1.269-.647-1.31-.114.7-.319.77-1.662-.368-1.908-1.023a3.139,3.139,0,0,1-.12-.8,7.361,7.361,0,0,0,1.4.87c.409.115.655-.507,1-.507s.508.557.753.9a6.61,6.61,0,0,0,3.324,2.08c2.079.655,3.095.294,3.586-.2s.458-.917.688-1.031.42.212.42.212Z" transform="translate(-442.46 -322.066)" fill="#e6f2fe" fill-rule="evenodd"/><path d="M581.238,442.344a14.132,14.132,0,0,0,2.195,2.439l.093.071h0a4.03,4.03,0,0,0-.88.559c-.311.295-.434.688-.7.688a7.1,7.1,0,0,1-2.239-1.738,2.286,2.286,0,0,0,1.526-2.019" transform="translate(-465.772 -306.85)" fill="#4b34a6" fill-rule="evenodd"/><path d="M515.529,358.744l16.636,9.89V382.52l-16.636-9.89Z" transform="translate(-421.934 -249.749)" fill="#6d3c1b" fill-rule="evenodd"/><path d="M515.529,358.744l16.636,9.89v6.279l-8.262.59-8.374-8.842Z" transform="translate(-421.934 -249.749)" fill="#8d5024" fill-rule="evenodd"/><path d="M570.076,386.123l-2.063,1.212V401.22l2.063-1.212Z" transform="translate(-457.781 -268.449)" fill="#9a5720" fill-rule="evenodd"/><path d="M534.229,364.812l-2.063,1.212-16.636-9.89,2.063-1.212Z" transform="translate(-421.934 -247.138)" fill="#ba722a" fill-rule="evenodd"/><path d="M530.434,364.032a2.673,2.673,0,0,0-.177.345c-.033.156.049.491.516.647a1.355,1.355,0,0,0,.884-.025l.121-.22a.693.693,0,0,0-.051-.086c-.1-.131-.344-.131-.663-.057-.282.065-.526-.055-.63-.6" transform="translate(-431.988 -253.361)" fill="#8d5024" fill-rule="evenodd"/><path d="M540.776,401.243c0,.636-.386.924-.862.642a2.1,2.1,0,0,1-.862-1.662c0-.636.386-.923.862-.642a2.1,2.1,0,0,1,.862,1.662" transform="translate(-437.999 -277.567)" fill="#f2aa00" fill-rule="evenodd"/><path d="M530.474,266.6s-1.367.672-2.383,4.241a77.685,77.685,0,0,0-2.325,12.051,59.111,59.111,0,0,0,.917,7.434,28.786,28.786,0,0,1,.475,3.062c.114,1.031.106,3.1.18,3.856s.344.917.663.843.565-.074.663.057.139.45.63.4.459-.246.933.147,1.2.082,1.507-.082.557-1.342.573-2.341a3.163,3.163,0,0,0-.458-2.047,7.471,7.471,0,0,1-1.081-1.981c-.245-.77-.819-1.376-.524-4.683a13.247,13.247,0,0,0-.262-4.945s3.111-7.532,3.635-11.79-3.143-4.225-3.143-4.225" transform="translate(-428.925 -186.811)" fill="#a67449" fill-rule="evenodd"/><path d="M532.821,266.6s-1.367.672-2.383,4.241c-.4,1.4-.843,3.3-1.236,5.2a4.335,4.335,0,0,0,2.208,1.627,5.828,5.828,0,0,0,2.662.294,39.718,39.718,0,0,0,1.891-7.137c.524-4.257-3.143-4.225-3.143-4.225" transform="translate(-431.273 -186.811)" fill="#bfc8d7" fill-rule="evenodd"/><path d="M579.985,254.664s2.127-.049,2.684,3.717-.688,10.823-.688,10.823a38.1,38.1,0,0,1,1.555,5.174c.622,2.816.851,3.848,1.064,4.126s1.9,1.768,2.047,2.374a12.412,12.412,0,0,1,.246,2.276c-.016.393-.966,1.343-1.392,1.457s-1.883.59-2.21.131.049-.868.1-1.212-.049-.59-.2-.671a2.054,2.054,0,0,1-1.163-1.163,4.451,4.451,0,0,1,.18-2.1l-.755-1.463c.148-4.033.47-13.289.42-16.1-.066-3.635-.246-5.862-1.392-7.008a2.1,2.1,0,0,0-.5-.363" transform="translate(-465.958 -178.659)" fill="#a67449" fill-rule="evenodd"/><path d="M579.985,254.664s2.127-.049,2.684,3.717a27.34,27.34,0,0,1-.043,5.911,1.329,1.329,0,0,1-.367.335,2.413,2.413,0,0,1-.4.194c.021-1.17.029-2.145.017-2.786-.066-3.635-.246-5.862-1.392-7.008a2.1,2.1,0,0,0-.5-.363" transform="translate(-465.958 -178.659)" fill="#bfc8d7" fill-rule="evenodd"/><path d="M590.2,333.974a3.423,3.423,0,0,1,.777,1.076,12.423,12.423,0,0,1,.246,2.276c-.016.393-.966,1.343-1.392,1.457s-1.883.59-2.21.131.049-.868.1-1.212-.049-.59-.2-.671a2.053,2.053,0,0,1-1.163-1.163c-.014-.044-.025-.089-.035-.136.012.03.42,1.068,1.017.938s.639.393.966.344.475-.344.262-1a1.128,1.128,0,0,1,.066-1.015,1.175,1.175,0,0,0,.18.712c.221.32.639.475.68.549s.188,1.474.5,1.49.426-.115.54-.737a3.871,3.871,0,0,0-.016-1.621c-.114-.653-.317-1.415-.318-1.419" transform="translate(-470.289 -232.83)" fill="#91633a" fill-rule="evenodd"/><path d="M552.048,252.394a4.68,4.68,0,0,1-.1.965,1.531,1.531,0,0,1-.349.718s2.494,3.883,5.146,3c2.309-.77,1.788-3.481,1.614-4.172a3.383,3.383,0,0,1-2.785,1.134,5.274,5.274,0,0,1-3.528-1.644" transform="translate(-446.571 -177.109)" fill="#a67449" fill-rule="evenodd"/><path d="M548.3,231.024a5.751,5.751,0,0,0,4.228,2.457c2.7.065,3.635-1.965,4.683-5.043a10.542,10.542,0,0,0,.4-3.728v0a2.6,2.6,0,0,0-.257-1.018,3.849,3.849,0,0,1-.352-1.114s-.082.115-.491.09-.5-.278-.5-.278a.938.938,0,0,1-.721.712c-.671.221-.827-.327-.827-.327a1.064,1.064,0,0,1-1.023.557.785.785,0,0,1-.688-.794,1.141,1.141,0,0,1-.6.164.825.825,0,0,1-.671-.4,2.38,2.38,0,0,1-.237,1.334.676.676,0,0,1-.786.385,1.95,1.95,0,0,1-.286.622,1.124,1.124,0,0,1-.8.508,1.309,1.309,0,0,1,0,.819s-.024.016.074.237a2.66,2.66,0,0,0,.417.548l-.786,1.032a6.631,6.631,0,0,0-.524-1.254c-.328-.573-1.032-.8-1.359.524a2.034,2.034,0,0,0,1,2.1l-.033.565a.741.741,0,0,1,.475.221.636.636,0,0,1-.331,1.09" transform="translate(-443.522 -156.552)" fill="#ba8659" fill-rule="evenodd"/><path d="M544.154,213.062l.786-1.032a2.658,2.658,0,0,1-.417-.548c-.1-.221-.074-.237-.074-.237a1.31,1.31,0,0,0,0-.819,1.124,1.124,0,0,0,.8-.508,1.951,1.951,0,0,0,.286-.622.676.676,0,0,0,.786-.385,2.381,2.381,0,0,0,.237-1.334.826.826,0,0,0,.671.4,1.141,1.141,0,0,0,.6-.164.785.785,0,0,0,.688.794,1.064,1.064,0,0,0,1.023-.557s.156.548.827.327a.939.939,0,0,0,.721-.712s.09.254.5.278.491-.09.491-.09a3.85,3.85,0,0,0,.352,1.114,2.651,2.651,0,0,1,.257,1.023s.488-.1.57-.924-.213-1-.213-1a1.528,1.528,0,0,0,.18-.868,1.594,1.594,0,0,0-.139-.59.785.785,0,0,0,.238-.794.732.732,0,0,0-.524-.639s.066-.7-.27-.958a.669.669,0,0,0-.565-.18s.2-.917-.335-1.236-.745-.172-.745-.172-.049-.728-.565-.909a1.149,1.149,0,0,0-.9.041,1.209,1.209,0,0,0-.991-.852c-.81-.123-1.04.352-1.04.352a1.463,1.463,0,0,0-1.245-.5,1.157,1.157,0,0,0-.876.745,1.423,1.423,0,0,0-1.212.066,1.332,1.332,0,0,0-.557.958,1.274,1.274,0,0,0-1.089.753c-.278.72-.213.9-.213.9a.97.97,0,0,0-.983.59c-.229.655-.131.851-.131.851a1.279,1.279,0,0,0-.77,1,1.733,1.733,0,0,0,.066.933.812.812,0,0,0-.442.786,1.118,1.118,0,0,0,.409.835,1.482,1.482,0,0,0-.3,1.154.8.8,0,0,0,.721.655,1.14,1.14,0,0,0-.238.95,1.125,1.125,0,0,0,.647.671.821.821,0,0,0-.254.925.755.755,0,0,0,.7.6,1.044,1.044,0,0,0,0,.884.988.988,0,0,0,.811.336.77.77,0,0,0,.729.958.639.639,0,0,0,.54-1.1.742.742,0,0,0-.475-.221l.033-.565a2.034,2.034,0,0,1-1-2.1c.327-1.326,1.032-1.1,1.359-.524a6.626,6.626,0,0,1,.524,1.254" transform="translate(-438.604 -141.831)" fill="#563317" fill-rule="evenodd"/><path d="M543.24,358.612s1.965.819,2.259,1.425a25.083,25.083,0,0,1,.475,4.093.916.916,0,0,1-.786.262.9.9,0,0,1-.77-.385,25.891,25.891,0,0,0-.418-3.267c-.172-.246-1.334-.7-1.457-.934a.814.814,0,0,1,.074-.827.717.717,0,0,1,.623-.368" transform="translate(-440.329 -249.659)" fill="#8d5024" fill-rule="evenodd"/><path d="M410.083,318.844a34.784,34.784,0,0,0,4.634-1.015c3.144-.851,5.453-2.178,7.106-1.916s1.457,2.178,1.588,4.863,2.1,4.192,2.292,5.01a5.216,5.216,0,0,1-.491,3.422c-.622,1.015-1.015,1.163-1.015,1.163a18.02,18.02,0,0,0,.8,6.14c.982,2.587,3.012,4.715,2.619,11.985s-1.7,10.872-1.7,10.872-1.916,2.784-6.566,2.62a13.31,13.31,0,0,1-7.45-2.44s-2.473-6.927-1.032-12.887,2.98-7.106,2.161-10.414-3.537-6.19-5.5-11.4,2.555-6.009,2.555-6.009" transform="translate(-347.827 -220.471)" fill="#6d4fc9" fill-rule="evenodd"/><path d="M433.7,390.811a19.077,19.077,0,0,1,1.211,8.866c-.393,7.27-1.7,10.872-1.7,10.872s-1.916,2.784-6.566,2.62a13.31,13.31,0,0,1-7.45-2.44s-2.473-6.927-1.032-12.887a60.126,60.126,0,0,1,1.865-6.008h0a13.166,13.166,0,0,1,5.133,1.618c3.307,1.621,4.077,2.6,4.077,2.6a7.887,7.887,0,0,1,2.08-3.733,7.1,7.1,0,0,1,2.386-1.513" transform="translate(-355.12 -271.651)" fill="#093c4d" fill-rule="evenodd"/><path d="M425.559,318.37l.042,1.078A29.919,29.919,0,0,0,428.3,322a24.646,24.646,0,0,0,2.489,1.883,7.248,7.248,0,0,0,.131-2.194c-.017-.914-.063-1.9-.1-2.65a1.5,1.5,0,0,1-.409.236c-1.113.393-2.718.131-4.552-.753q-.155-.075-.3-.154" transform="translate(-360.481 -222.172)" fill="#fcc09e" fill-rule="evenodd"/><path d="M424.547,320.576a.648.648,0,0,0-.509.575c-.009.461,1.637,6.811,3.324,6.73s2.391-2.489,2.391-2.489a24.634,24.634,0,0,1-2.489-1.883,29.931,29.931,0,0,1-2.7-2.554Z" transform="translate(-359.442 -223.679)" fill="#4b34a6" fill-rule="evenodd"/><path d="M442.094,320.485a5.869,5.869,0,0,1,1.807,2.339c.737,1.621,1.2,2.1.59,2.833s-2.423-.327-2.423-.327a7.249,7.249,0,0,0,.131-2.194c-.017-.914-.063-1.9-.1-2.65" transform="translate(-371.757 -223.617)" fill="#4b34a6" fill-rule="evenodd"/><path d="M456.979,355.262c-.393-.589-2.358-.442-3.586.508s-4.045,5.01-4.045,5.01a23.629,23.629,0,0,1,3.422-.77c2.522-.442,3.176-.1,4.012-1.654a3.89,3.89,0,0,0,.2-3.095" transform="translate(-376.73 -247.132)" fill="#4b34a6" fill-rule="evenodd"/><path d="M455.778,316.772a3.37,3.37,0,0,1,1.45,2.009,19.394,19.394,0,0,0,1.49,4.536c1.064,2.145,2.653,5.895,2.653,5.895-.294-.441-1.469-.469-2.556-.058A5.5,5.5,0,0,0,459,326.4c-.2-.819-2.161-2.325-2.292-5.01-.11-2.256.011-3.968-.927-4.614Z" transform="translate(-381.122 -221.081)" fill="#6d4fc9" fill-rule="evenodd"/><path d="M407.629,328.448s1.743-.515,3.74,3.022,4.847,8.678,4.847,8.678a12.648,12.648,0,0,1,4.486-2.129,43.261,43.261,0,0,1,4.363-.909,4.007,4.007,0,0,0-1.03.565c-1.228.95-4.045,5.01-4.045,5.01a23.052,23.052,0,0,1-2.334,1.915c-.95.622-2.377.976-4.257-.753s-6.779-8.482-7.008-11.691,1.237-3.71,1.237-3.71" transform="translate(-347.373 -229.038)" fill="#8c7be5" fill-rule="evenodd"/><path d="M433.141,357.4a20.418,20.418,0,0,0-3.07-2.08c-.558-.11-1.13.573-1.474,1.162s.557,1.981,1.31,2.882,1.441-.851,1.441-.851a10.891,10.891,0,0,1,1.793-1.113Z" transform="translate(-362.505 -247.4)" fill="#fcc09e" fill-rule="evenodd"/><path d="M424.855,455.315s.828,7.183.828,8.149-.639,3.717-.41,6.009c.153,1.53.816,4.852,1.241,6.894a8.063,8.063,0,0,1,1.3,2.554,18.544,18.544,0,0,0,2.08,3.848,2,2,0,0,1,.851-.688,3.313,3.313,0,0,1,.983-.311,23.694,23.694,0,0,1-1.588-4.241c-.327-1.637.688-13.132.688-13.132a11.021,11.021,0,0,0,.639-2.571,7,7,0,0,0-.082-2.161l.608-2.431q-.228,0-.465-.006a14.007,14.007,0,0,1-6.668-1.913Z" transform="translate(-360 -315.709)" fill="#fcc09e" fill-rule="evenodd"/><path d="M428.041,521.731a8.063,8.063,0,0,1,1.3,2.554,18.547,18.547,0,0,0,2.08,3.848,2,2,0,0,1,.851-.688,3.307,3.307,0,0,1,.983-.311,11.087,11.087,0,0,0,1.309,1.883c.557.54.884.933.851,1.163a1.8,1.8,0,0,1-2.342.95c-1.67-.409-3-2.587-3.045-2.751a2.486,2.486,0,0,0-.311-1.376,1.991,1.991,0,0,0-1.228-.622,4.062,4.062,0,0,1-1.392-2.685,2.384,2.384,0,0,1,.947-1.964" transform="translate(-361.527 -361.073)" fill="#093c4d" fill-rule="evenodd"/><path d="M450.554,454.459a14.149,14.149,0,0,0-.767,2.214c-.311,1.228-.442,2-.442,2a4.876,4.876,0,0,1,.033,1.981,4.713,4.713,0,0,1-.524,1.85s-.524,3.275-.786,7.139-.377,4.323-.36,4.683c.012.266,1.17,2.806,1.776,4.118a2.554,2.554,0,0,0-.725.183,3.515,3.515,0,0,0-.9.573,10.234,10.234,0,0,1-1.826-2.923,8.844,8.844,0,0,0-1.541-2.637c-.141-1.035-.56-4.266-.722-7.453l-.114-2.256.01-.118a11.023,11.023,0,0,0,.639-2.571,7,7,0,0,0-.082-2.161l.608-2.431a7.889,7.889,0,0,0,5.725-2.19" transform="translate(-372.841 -315.125)" fill="#fcc09e" fill-rule="evenodd"/><path d="M445.255,514.968s-.367.115-.465,1.2a2.212,2.212,0,0,0,.9,2.292,1.736,1.736,0,0,1,1.048,1.572,3.316,3.316,0,0,0,1.654,2.587,4.775,4.775,0,0,0,3.193,1.13c.458-.115.8-1.1.737-1.425a23,23,0,0,0-2.075-2.549,2.554,2.554,0,0,0-.725.183,3.513,3.513,0,0,0-.9.573A10.233,10.233,0,0,1,446.8,517.6a8.837,8.837,0,0,0-1.541-2.637" transform="translate(-373.605 -356.454)" fill="#093c4d" fill-rule="evenodd"/><path d="M428.655,532.9a5.022,5.022,0,0,1,.377,1.317c.074.655.074,1.482.074,1.482a.408.408,0,0,0,.393.246,1.012,1.012,0,0,0,.557-.115l.026-1.679c-.2-.067-.391-.1-.528-.141a2.9,2.9,0,0,1-.9-1.11Z" transform="translate(-362.596 -368.699)" fill="#072e3b" fill-rule="evenodd"/><path d="M446,524.506a2.985,2.985,0,0,1,.151.866c.033.573,0,1.236,0,1.236s.049.237.41.246.426-.1.426-.1l.037-1.453a1.994,1.994,0,0,0-.5-.331,1.34,1.34,0,0,1-.528-.465Z" transform="translate(-374.444 -362.968)" fill="#072e3b" fill-rule="evenodd"/><path d="M443.036,339.672a.769.769,0,1,0,.77.769.769.769,0,0,0-.77-.769" transform="translate(-371.893 -236.722)" fill="#4b34a6" fill-rule="evenodd"/><path d="M446.187,348.944a.769.769,0,1,0,.77.769.769.769,0,0,0-.77-.769" transform="translate(-374.045 -243.055)" fill="#4b34a6" fill-rule="evenodd"/><path d="M422.858,318.742q-.334.076-.621.137c-.012-.114-.021-.23-.025-.349a8.908,8.908,0,0,1,.131-2.129,5.88,5.88,0,0,0,.923.624l.027.7a.648.648,0,0,0-.509.575,2.766,2.766,0,0,0,.075.443" transform="translate(-358.188 -220.827)" fill="#020c17" fill-rule="evenodd"/><path d="M431.8,291.11a15.837,15.837,0,0,1-.205,3.294c-.426,2.456-2.063,5.371-3.177,5.764s-2.718.131-4.552-.753a6.023,6.023,0,0,1-1.221-.778c.286-1.422.928-2,1.212-3.7a9.22,9.22,0,0,0-.122-3.97,6.07,6.07,0,0,0,3.062,1.1,9.639,9.639,0,0,0,3.684-.229,5.4,5.4,0,0,1-1.7-.344,2.451,2.451,0,0,1-1.171-1.1,4.3,4.3,0,0,0,2.685.933,4.569,4.569,0,0,0,1.507-.216" transform="translate(-358.493 -203.062)" fill="#fccfa8" fill-rule="evenodd"/><path d="M414.051,274.361a6.071,6.071,0,0,0,3.062,1.1,9.638,9.638,0,0,0,3.684-.23,5.4,5.4,0,0,1-1.7-.344,2.45,2.45,0,0,1-1.171-1.1,4.3,4.3,0,0,0,2.685.933,7.287,7.287,0,0,0,3.766-1.31,1.765,1.765,0,0,1-.835-.016c-.671-.1-.745-.426-.745-.426a3.041,3.041,0,0,0,2.071-.27,3.459,3.459,0,0,0,1.474-1.343s-2.6.475-3.619-1.13-2.309-3.848-5.911-4.126a5.983,5.983,0,0,0-5.387,2.8s-2.424.982-2.882,7.663,1.277,9.366,2.915,10.676a12.348,12.348,0,0,0,4.372,1.883,6.493,6.493,0,0,1-3-4.961c-.131-3.275.95-3.471,1.343-5.829a9.221,9.221,0,0,0-.122-3.97" transform="translate(-348.806 -186.459)" fill="#061729" fill-rule="evenodd"/><path d="M443.683,300.347a4.985,4.985,0,0,0,2.584,2.206,6.783,6.783,0,0,0,3.5.54s-3.21-1.048-3.259-3.864.623-3.537.72-5.829a5.371,5.371,0,0,0-.237-1.708,7.388,7.388,0,0,1-.825.306,15.839,15.839,0,0,1-.205,3.294,11.7,11.7,0,0,1-2.282,5.056Z" transform="translate(-372.861 -203.95)" fill="#061729" fill-rule="evenodd"/></g></g></g></g></svg>