<svg xmlns="http://www.w3.org/2000/svg" xmlns:xlink="http://www.w3.org/1999/xlink" width="33" height="33" viewBox="0 0 33 33"><defs><clipPath id="a"><rect width="33" height="33" transform="translate(-6631 7828)" fill="#fff" stroke="#707070" stroke-width="1"/></clipPath></defs><g transform="translate(6631 -7828)"><g clip-path="url(#a)"><g transform="translate(-6631 7828)"><path d="M32.164,32.46H.836a.355.355,0,0,1-.355-.355V30.451A.355.355,0,0,1,.836,30.1H32.164a.355.355,0,0,1,.355.355v1.654A.355.355,0,0,1,32.164,32.46Z" fill="#d77f4a"/><path d="M32.518,30.45v1.656a.353.353,0,0,1-.353.353H30.88a.353.353,0,0,0,.353-.353V30.45a.354.354,0,0,0-.353-.354h1.285A.354.354,0,0,1,32.518,30.45Z" fill="#c86d36"/><path d="M24.8.54a6.73,6.73,0,0,0-3.1,12.71.28.28,0,0,1,.148.29,4.244,4.244,0,0,1-.927,2.2.228.228,0,0,0,.206.381c1.1-.2,2.78-.715,3.4-1.958A.287.287,0,0,1,24.789,14h0A6.729,6.729,0,0,0,24.8.54Z" fill="#c1e9af"/><path d="M31.52,7.269A6.729,6.729,0,0,1,24.791,14h0a.287.287,0,0,0-.257.161c-.62,1.243-2.3,1.753-3.4,1.958a.227.227,0,0,1-.206-.381,3.377,3.377,0,0,0,.737-1.354,3.532,3.532,0,0,0,1.995-1.572.287.287,0,0,1,.257-.161h0a6.73,6.73,0,0,0,6.048-9.681,6.7,6.7,0,0,1,1.556,4.3Z" fill="#ade194"/><path d="M13.358,24.757H6.447a3.141,3.141,0,0,1-3.141-3.141V10.258a6.6,6.6,0,1,1,13.194,0V21.615A3.142,3.142,0,0,1,13.358,24.757Z" fill="#596c76"/><path d="M16.5,10.258V21.615a3.141,3.141,0,0,1-3.141,3.141H12.073a3.141,3.141,0,0,0,3.141-3.141V10.258A6.6,6.6,0,0,0,9.26,3.692c.211-.021.426-.031.642-.031a6.6,6.6,0,0,1,6.6,6.6Z" fill="#465a61"/><path d="M15.1,11.712v2.982a5.2,5.2,0,1,1-10.395,0V10.4l5.322-1.072Z" fill="#ffcebf"/><path d="M15.1,11.712v2.982a5.2,5.2,0,0,1-5.782,5.165,5.377,5.377,0,0,0,4.627-5.438v-2.73Z" fill="#ffb09e"/><path d="M5.066,9.076l-.652,1.41-.243,1.226h.534A6.749,6.749,0,0,0,9.9,9.863V9.076H5.066Z" fill="#596c76"/><path d="M13.886,9.076H9.9v.787a6.749,6.749,0,0,0,5.2,1.849l-.419-1.226Z" fill="#596c76"/><path d="M4.705,14.867H4.048A1.006,1.006,0,0,1,3.042,13.86v-.006a1.006,1.006,0,0,1,1.006-1.006h.657Z" fill="#ffcebf"/><path d="M15.1,14.867h.657a1.006,1.006,0,0,0,1.006-1.006v-.006a1.006,1.006,0,0,0-1.006-1.006H15.1Z" fill="#ffcebf"/><path d="M18.325,30.1H1.48V19.244a.355.355,0,0,1,.355-.355H17.97a.355.355,0,0,1,.355.355V30.1Z" fill="#9facba"/><path d="M18.325,19.243V30.1H17.04V19.243a.354.354,0,0,0-.353-.354h1.285a.354.354,0,0,1,.353.354Z" fill="#8d9ca8"/><circle cx="1.446" cy="1.446" r="1.446" transform="translate(8.1 23.046)" fill="#f5f8f9"/><path d="M10.993,24.493a1.446,1.446,0,0,1-2.831.418,1.393,1.393,0,0,0,.321.037A1.446,1.446,0,0,0,9.929,23.5a1.425,1.425,0,0,0-.062-.418,1.446,1.446,0,0,1,1.125,1.41Z" fill="#e8edf2"/><path d="M21.354,13.609a3.686,3.686,0,0,1-.772,1.79.709.709,0,0,0,.508,1.2.714.714,0,0,0,.131-.012c2.294-.425,3.272-1.362,3.688-2.112A7.211,7.211,0,0,0,24.8.059h-.013a7.181,7.181,0,0,0-2.312.38.482.482,0,1,0,.309.912,6.219,6.219,0,0,1,2-.329H24.8a6.247,6.247,0,0,1-.014,12.495.766.766,0,0,0-.688.428,3.683,3.683,0,0,1-2.393,1.549,5.394,5.394,0,0,0,.622-1.882.762.762,0,0,0-.4-.788,6.245,6.245,0,0,1-.961-10.488.482.482,0,0,0-.591-.761,7.209,7.209,0,0,0,.98,12.036Z"/><path d="M8.048,12.826a.482.482,0,0,0-.482.482v.812a.482.482,0,0,0,.963,0v-.812A.482.482,0,0,0,8.048,12.826Z"/><path d="M11.757,12.826a.482.482,0,0,0-.482.482v.812a.482.482,0,1,0,.963,0v-.812A.482.482,0,0,0,11.757,12.826Z"/><path d="M10.188,16.418a.373.373,0,0,1-.275.119.377.377,0,0,1-.284-.13.482.482,0,1,0-.727.632,1.34,1.34,0,0,0,1.991.036.482.482,0,0,0-.7-.658Z"/><path d="M32.165,29.615H18.807V19.243a.836.836,0,0,0-.835-.835h-.99v-3.7a1.476,1.476,0,0,0,.264-.843v-.013a1.476,1.476,0,0,0-.264-.843v-2.75a7.079,7.079,0,1,0-14.158,0v2.75a1.476,1.476,0,0,0-.264.843v.013a1.476,1.476,0,0,0,.264.843v3.7h-.99A.836.836,0,0,0,1,19.243V22.4a.482.482,0,1,0,.963,0V19.371H17.844V29.615H1.962V24.579a.482.482,0,1,0-.963,0v5.035H.835A.836.836,0,0,0,0,30.45v1.657a.836.836,0,0,0,.835.835h31.33A.836.836,0,0,0,33,32.106V30.45a.836.836,0,0,0-.835-.835ZM3.787,10.258a6.115,6.115,0,0,1,12.231,0v2.132a1.484,1.484,0,0,0-.257-.023h-.179v-.655a.487.487,0,0,0-.51-.481,6.224,6.224,0,0,1-4.813-1.693.519.519,0,0,0-.428-.157.722.722,0,0,0-.371.245c-.059.057-.12.112-.182.165a5.934,5.934,0,0,1-1.6.963,6.716,6.716,0,0,1-2.949.477.486.486,0,0,0-.374.145.608.608,0,0,0-.137.43v.561H4.045a1.49,1.49,0,0,0-.257.023V10.258Zm-.264,3.606v-.013a.522.522,0,0,1,.521-.521h.179v1.055H4.044A.522.522,0,0,1,3.523,13.864Zm.264,4.543V15.326a1.484,1.484,0,0,0,.257.023h.218A5.657,5.657,0,0,0,5.61,18.407Zm9.018,0H7A4.707,4.707,0,0,1,5.187,14.7V12.206A7.317,7.317,0,0,0,9.9,10.522a7.316,7.316,0,0,0,4.716,1.684v2.488a4.709,4.709,0,0,1-1.813,3.713Zm3.213,0H14.2a5.656,5.656,0,0,0,1.347-3.059h.218a1.49,1.49,0,0,0,.257-.023v3.082Zm.264-4.543a.522.522,0,0,1-.521.521h-.179V13.33h.179a.522.522,0,0,1,.521.521ZM32.037,31.978H.963v-1.4H32.037Z"/><path d="M11.475,24.493a1.928,1.928,0,1,0-1.928,1.928A1.93,1.93,0,0,0,11.475,24.493Zm-2.893,0a.965.965,0,1,1,.965.965A.966.966,0,0,1,8.582,24.493Z"/><path d="M21.582,5.374H28a.482.482,0,1,0,0-.963H21.582a.482.482,0,0,0,0,.963Z"/><path d="M28.482,6.924A.482.482,0,0,0,28,6.442H21.582a.482.482,0,0,0,0,.963H28A.482.482,0,0,0,28.482,6.924Z"/><path d="M21.582,8.474a.482.482,0,0,0,0,.963h3.851a.482.482,0,1,0,0-.963Z"/></g></g></g></svg>