<svg xmlns="http://www.w3.org/2000/svg" xmlns:xlink="http://www.w3.org/1999/xlink" width="33" height="33" viewBox="0 0 33 33"><defs><clipPath id="a"><rect width="33" height="33" transform="translate(-6631 7402)" fill="#fff" stroke="#707070" stroke-width="1"/></clipPath></defs><g transform="translate(6691 -9811)"><g transform="translate(-60 2409)" clip-path="url(#a)"><g transform="translate(-6631 7402)"><path d="M19.836,28.513H13.164v2.676a1.328,1.328,0,0,0,1.328,1.328h4.017a1.328,1.328,0,0,0,1.328-1.328Z" fill="#d8ecfe"/><path d="M16.425,32.517H14.491a1.328,1.328,0,0,1-1.328-1.328V28.512H15.1v2.676A1.328,1.328,0,0,0,16.425,32.517Z" fill="#b3dafe"/><path d="M20.5,28.506H12.5a1,1,0,1,1,0-2H20.5a1,1,0,1,1,0,2Z" fill="#eaf6ff"/><path d="M14.43,28.506H12.5a1,1,0,1,1,0-2H14.43a1,1,0,1,0,0,2Z" fill="#d8ecfe"/><path d="M18.168,19.512A1.668,1.668,0,0,1,16.5,21.18v4.854H13.164v-.977a1.658,1.658,0,0,0-.943-1.5,10.01,10.01,0,0,1-5.73-9.05V14.5H9.827v.011a1.668,1.668,0,1,0,3.336,0V14.5H16.5v3.347a1.668,1.668,0,0,1,1.668,1.668Z" fill="#aee69c"/><path d="M14.452,25.057v.977H13.164v-.977a1.658,1.658,0,0,0-.943-1.5,10.01,10.01,0,0,1-5.73-9.05V14.5H7.78v.012a10.01,10.01,0,0,0,5.73,9.05A1.658,1.658,0,0,1,14.452,25.057Z" fill="#89daa4"/><path d="M26.509,14.5v.011a10.009,10.009,0,0,1-5.726,9.048,1.66,1.66,0,0,0-.947,1.5v1.45H16.5V21.18a1.668,1.668,0,0,0,0-3.336V14.5h3.336a1.668,1.668,0,0,1,3.336,0Z" fill="#8ac9fe"/><path d="M26.509,14.5H23.173a1.668,1.668,0,0,0-3.336,0H16.5V11.171a1.668,1.668,0,0,1,0-3.336V4.5a10.009,10.009,0,0,1,10.009,10Z" fill="#ffe177"/><path d="M14.832,9.5A1.668,1.668,0,0,0,16.5,11.171V14.5H13.164v.011a1.668,1.668,0,1,1-3.336,0V14.5H6.491A9.99,9.99,0,0,1,16.5,4.5V7.835A1.667,1.667,0,0,0,14.832,9.5Z" fill="#fe646f"/><path d="M16.5,4.5V4.58A9.988,9.988,0,0,0,7.78,14.5H6.491A9.99,9.99,0,0,1,16.5,4.5Z" fill="#fd4755"/><path d="M25.438,9.01a.483.483,0,1,0-.823.507,9.492,9.492,0,0,1,1.4,4.5H23.6a2.152,2.152,0,0,0-4.188,0H16.983V11.171a.483.483,0,0,0-.483-.483,1.185,1.185,0,1,1,0-2.369.483.483,0,0,0,.483-.483V4.994a9.438,9.438,0,0,1,6.4,2.924.483.483,0,0,0,.7-.669,10.4,10.4,0,0,0-7.571-3.234h-.013A10.494,10.494,0,0,0,9.581,6.609a.483.483,0,0,0,.637.727,9.521,9.521,0,0,1,5.8-2.342V7.406a2.152,2.152,0,0,0,0,4.193v2.414H13.164a.483.483,0,0,0-.483.483v.011a1.185,1.185,0,0,1-2.37,0V14.5a.483.483,0,0,0-.483-.483H6.987a9.443,9.443,0,0,1,1.869-5.2.483.483,0,0,0-.775-.578A10.421,10.421,0,0,0,6.007,14.5a10.557,10.557,0,0,0,6.006,9.5,1.178,1.178,0,0,1,.667,1.063v.963a1.468,1.468,0,0,0-1.669,1.484c0,.952.655,1.485,1.669,1.484v2.2A1.873,1.873,0,0,0,14.491,33h4.018a1.872,1.872,0,0,0,1.811-1.811v-2.2c1.132,0,1.669-.6,1.669-1.484,0-.921-.58-1.484-1.669-1.484v-.963a1.182,1.182,0,0,1,.671-1.065,10.668,10.668,0,0,0,6-9.5A10.468,10.468,0,0,0,25.438,9.01ZM12.428,23.121a9.579,9.579,0,0,1-5.44-8.141H9.4a2.152,2.152,0,0,0,4.2,0h2.422v2.864a.483.483,0,0,0,.483.483,1.185,1.185,0,1,1,0,2.369.483.483,0,0,0-.483.483v4.841h-2.37v-.963a2.149,2.149,0,0,0-1.219-1.936Zm6.081,8.912H14.491A.886.886,0,0,1,13.647,31h5.706C19.354,31.518,19.191,32.033,18.509,32.033ZM20.5,28.023H17.516a.483.483,0,0,0-.483.483s0,0,0,0,0,0,0,0a.483.483,0,0,0,.483.483h1.837v1.039H13.647V29H15.41a.483.483,0,0,0,.483-.483s0,0,0,0,0,0,0,0a.483.483,0,0,0-.483-.483H12.5a.521.521,0,1,1,0-1.035H20.5A.518.518,0,1,1,20.5,28.023Zm.073-4.9a2.153,2.153,0,0,0-1.223,1.938v.963h-2.37V21.609a2.152,2.152,0,0,0,0-4.193V14.98h2.853a.483.483,0,0,0,.483-.48,1.185,1.185,0,0,1,2.37,0,.483.483,0,0,0,.483.48h2.84a9.578,9.578,0,0,1-5.436,8.139Z"/><path d="M16.5,2.969a.483.483,0,0,1-.483-.483v-2a.483.483,0,0,1,.967,0v2A.483.483,0,0,1,16.5,2.969Z"/><path d="M23.263,4.781a.483.483,0,0,1-.177-.66l1-1.734a.483.483,0,0,1,.837.483l-1,1.734a.52.52,0,0,1-.66.177Z"/><path d="M28.214,9.732a.483.483,0,0,1,.177-.66l1.734-1a.483.483,0,0,1,.483.837l-1.734,1a.5.5,0,0,1-.66-.177Z"/><path d="M2.215,24.742a.491.491,0,0,1,.177-.66l1.734-1a.483.483,0,1,1,.483.837l-1.734,1A.454.454,0,0,1,2.215,24.742Z"/><path d="M9.076,4.6l-1-1.734a.483.483,0,1,1,.837-.483l1,1.734a.491.491,0,0,1-.177.66.5.5,0,0,1-.66-.177Z"/><path d="M4.125,9.909l-1.734-1a.483.483,0,0,1,.483-.837l1.734,1a.46.46,0,0,1,.177.66.493.493,0,0,1-.66.177Z"/><path d="M30.125,24.919l-1.734-1a.483.483,0,0,1,.483-.837l1.734,1a.476.476,0,0,1,.177.66A.445.445,0,0,1,30.125,24.919Z"/><path d="M2.49,16.978h-2a.483.483,0,1,1,0-.967h2a.483.483,0,1,1,0,.967Z"/><path d="M32.512,16.978h-2a.483.483,0,0,1,0-.967h2a.483.483,0,0,1,0,.967Z"/></g></g></g></svg>