<svg xmlns="http://www.w3.org/2000/svg" xmlns:xlink="http://www.w3.org/1999/xlink" width="51" height="51" viewBox="0 0 51 51"><defs><clipPath id="a"><rect width="51" height="51" transform="translate(866 17997)" fill="#26d19e"/></clipPath></defs><g transform="translate(-866 -20357.902)"><g transform="translate(0 2360.902)" clip-path="url(#a)"><g transform="translate(866 17997)"><path d="M43.5,50.25H13.492a1.2,1.2,0,0,1-1.2-1.2V3.357H44.7v45.7A1.2,1.2,0,0,1,43.5,50.25Z" fill="#e8f3ff"/><path d="M44.7,3.357H41.288V45.641a1.2,1.2,0,0,1-1.2,1.2H12.3V49.05a1.2,1.2,0,0,0,1.2,1.2h30a1.2,1.2,0,0,0,1.2-1.2Z" fill="#c1e2ff"/><circle cx="9.63" cy="9.63" r="9.63" transform="translate(6.303 13.006)" fill="#fcdd2e"/><path d="M20.813,14.335A9.629,9.629,0,0,1,7.632,27.516,9.63,9.63,0,1,0,20.813,14.335Z" fill="#f9c301"/><path d="M27.389,24.187a2.261,2.261,0,0,0-.933.2.209.209,0,0,1-.3-.189v-.662a2.274,2.274,0,0,0-4.239-1.143.209.209,0,0,1-.3.069,2.274,2.274,0,0,0-3.515,1.905v.6a.209.209,0,0,1-.3.189,2.274,2.274,0,0,0-3.207,2.074v.559a2.274,2.274,0,0,0,2.274,2.274H27.389a2.274,2.274,0,0,0,2.274-2.274V26.462A2.274,2.274,0,0,0,27.389,24.187Z" fill="#b3d8fb"/><path d="M27.477,24.19a2.263,2.263,0,0,1,.386,1.268v1.329a2.274,2.274,0,0,1-2.274,2.274H15.081l-.088,0a2.272,2.272,0,0,0,1.888,1.006H27.389a2.274,2.274,0,0,0,2.274-2.274V26.462A2.274,2.274,0,0,0,27.477,24.19Z" fill="#62b4fd"/><circle cx="2.194" cy="2.194" r="2.194" transform="translate(21.767 34.139)" fill="#fcdd2e"/><path d="M25.418,44.773a1.457,1.457,0,0,1-2.914,0,11.214,11.214,0,0,1,1.33-3.083.145.145,0,0,1,.253,0,11.217,11.217,0,0,1,1.33,3.083Z" fill="#62b4fd"/><path d="M44.7,9.788H12.3V1.945a1.2,1.2,0,0,1,1.2-1.2H43.5a1.2,1.2,0,0,1,1.2,1.2Z" fill="#1690fb"/><path d="M43.5.75H41.288V9.788H44.7V1.95A1.2,1.2,0,0,0,43.5.75Z" fill="#0571f9"/><path d="M30.17,20.28a1.229,1.229,0,0,1-1.2-.73q-.233-.456-.811-.223a.622.622,0,0,0-.355.329.579.579,0,0,0,.03.482,1.97,1.97,0,0,0,.907.978,2.973,2.973,0,0,0,1.394.319,2.544,2.544,0,0,0,1.819-.674,2.351,2.351,0,0,0,.725-1.769,2.077,2.077,0,0,0-.552-1.48,2.228,2.228,0,0,0-1.455-.679.08.08,0,0,1-.066-.051.062.062,0,0,1,.015-.071l1.318-1.328a.819.819,0,0,0,.274-.547q.04-.608-.4-.608h-3.5q-.426,0-.426.608t.426.608h2.048a3.275,3.275,0,0,0-.4.375l-.872.912a.606.606,0,0,0-.132.7.525.525,0,0,0,.527.385,4.205,4.205,0,0,1,.659.046,2.5,2.5,0,0,1,.573.167.908.908,0,0,1,.446.4,1.346,1.346,0,0,1,.157.679,1.169,1.169,0,0,1-.319.841,1.116,1.116,0,0,1-.846.335Z"/><path d="M38.391,19a2.6,2.6,0,0,0-.238-1.161,1.719,1.719,0,0,0-.679-.74,2.949,2.949,0,0,0-.988-.355,5.291,5.291,0,0,0-1.226-.056q-.182.01-.223-.056a.616.616,0,0,1-.04-.279v-.71a.259.259,0,0,1,.035-.162.215.215,0,0,1,.157-.041H37.4q.426,0,.426-.608t-.426-.608H34.468a.815.815,0,0,0-.628.2,1.085,1.085,0,0,0-.182.72v1.885q0,.851,1,.74a7.578,7.578,0,0,1,1.191-.025,1.195,1.195,0,0,1,1.191,1.313,1.31,1.31,0,0,1-.314.872,1.04,1.04,0,0,1-.821.345,1.265,1.265,0,0,1-.694-.172,1.7,1.7,0,0,1-.5-.547q-.274-.466-.841-.193a.52.52,0,0,0-.3.76,2.045,2.045,0,0,0,.917.983,2.958,2.958,0,0,0,1.4.324,2.485,2.485,0,0,0,1.8-.669,2.37,2.37,0,0,0,.7-1.764Z"/><path d="M40.883,14.305A1.594,1.594,0,1,0,42.477,15.9,1.6,1.6,0,0,0,40.883,14.305Zm0,2.255a.66.66,0,1,1,.66-.66A.661.661,0,0,1,40.883,16.56Z"/><path d="M35.672,35.583h-5.7a.75.75,0,0,0,0,1.5h5.7a.75.75,0,0,0,0-1.5Z"/><path d="M35.672,43.173h-5.7a.75.75,0,1,0,0,1.5h5.7a.75.75,0,1,0,0-1.5Z"/><path d="M23.961,33.389A2.944,2.944,0,1,0,26.9,36.333,2.947,2.947,0,0,0,23.961,33.389Zm0,4.387A1.444,1.444,0,1,1,25.4,36.333,1.445,1.445,0,0,1,23.961,37.777Z"/><path d="M23.961,40.867a.9.9,0,0,0-.78.456,9.375,9.375,0,0,0-1.427,3.45,2.207,2.207,0,0,0,4.414,0,9.377,9.377,0,0,0-1.427-3.45.9.9,0,0,0-.78-.456Zm0,4.613a.707.707,0,0,1-.707-.706,6.6,6.6,0,0,1,.707-1.735,6.61,6.61,0,0,1,.707,1.735A.708.708,0,0,1,23.961,45.48Z"/><path d="M43.5,0h-30a1.952,1.952,0,0,0-1.95,1.95V13.219a10.382,10.382,0,0,0-3.166,2.3.75.75,0,0,0,1.091,1.029,8.8,8.8,0,0,1,6.461-2.788,8.922,8.922,0,0,1,8.641,6.836,3.018,3.018,0,0,0-3,1,3.025,3.025,0,0,0-4.214,2.659,3.027,3.027,0,0,0-3.505,2.986v.559a3.027,3.027,0,0,0,3.024,3.024H19.4A8.886,8.886,0,0,1,7.767,19.139a.75.75,0,1,0-1.379-.591,10.386,10.386,0,0,0,5.158,13.495V49.05A1.952,1.952,0,0,0,13.5,51h30a1.952,1.952,0,0,0,1.95-1.95V42.066a.75.75,0,1,0-1.5,0V49.05a.451.451,0,0,1-.45.45h-30a.451.451,0,0,1-.45-.45V32.607a10.385,10.385,0,0,0,9.278-1.793h5.064a3.027,3.027,0,0,0,3.024-3.024V26.461a3.027,3.027,0,0,0-3.5-2.986,3.007,3.007,0,0,0-.643-1.8,10.376,10.376,0,0,0-10.333-9.418,10.457,10.457,0,0,0-2.886.4V10.538H40.9a.75.75,0,0,0,0-1.5H13.047V1.95a.451.451,0,0,1,.45-.45h30a.451.451,0,0,1,.45.45V38.344a.75.75,0,1,0,1.5,0V1.95A1.952,1.952,0,0,0,43.5,0ZM26.765,25.071a1.508,1.508,0,0,1,.624-.134,1.526,1.526,0,0,1,1.524,1.524V27.79a1.526,1.526,0,0,1-1.524,1.524H16.88a1.526,1.526,0,0,1-1.524-1.524v-.559a1.526,1.526,0,0,1,1.524-1.524,1.507,1.507,0,0,1,.624.134.959.959,0,0,0,1.355-.873v-.6a1.524,1.524,0,0,1,2.355-1.277.959.959,0,0,0,1.354-.319,1.524,1.524,0,0,1,2.841.766V24.2a.959.959,0,0,0,1.355.873Z"/><path d="M19.786,2.969H15.98a.75.75,0,1,0,0,1.5h3.807a.75.75,0,1,0,0-1.5Z"/><path d="M19.786,5.953H15.98a.75.75,0,1,0,0,1.5h3.807a.75.75,0,1,0,0-1.5Z"/></g></g></g></svg>