<svg xmlns="http://www.w3.org/2000/svg" xmlns:xlink="http://www.w3.org/1999/xlink" width="60" height="60" viewBox="0 0 60 60"><defs><clipPath id="a"><rect width="60" height="60" transform="translate(615 3930)" fill="#764cf0"/></clipPath></defs><g transform="translate(9239 7770)"><g transform="translate(-9854 -11700)" clip-path="url(#a)"><g transform="translate(615 3930)"><path d="M34.852,40.246H53.189V10.158H.879V45.817a1.758,1.758,0,0,0,1.758,1.758H37.2Z" fill="#eaf6ff"/><path d="M7.69,45.817V10.158H.879V45.817a1.758,1.758,0,0,0,1.758,1.758H9.448A1.758,1.758,0,0,1,7.69,45.817Z" fill="#d8ecfe"/><path d="M51.431,2.876H2.637A1.758,1.758,0,0,0,.879,4.634v5.524h52.31V4.634A1.758,1.758,0,0,0,51.431,2.876Z" fill="#af66da"/><path d="M9.448,2.876H2.637A1.758,1.758,0,0,0,.879,4.634v5.524H7.69V4.634A1.758,1.758,0,0,1,9.448,2.876Z" fill="#9857bd"/><path d="M53.728,36.167h-4.09v4.079H54.42V36.859a.692.692,0,0,0-.692-.692Z" fill="#ffe177"/><path d="M49.637,36.167H51.82v4.079H49.637Z" fill="#ffd15b"/><path d="M39.921,36.167a.692.692,0,0,0-.692.692v3.387h4.782V36.167Z" fill="#ffe177"/><path d="M42.177,36.167H39.921a.692.692,0,0,0-.692.692v3.387h2.256V36.859A.692.692,0,0,1,42.177,36.167Z" fill="#ffd15b"/><path d="M44.011,40.246V35.312a.692.692,0,0,1,.692-.692h4.242a.692.692,0,0,1,.692.692v4.934Z" fill="#ffe177"/><path d="M47.1,34.62H44.7a.692.692,0,0,0-.692.692v4.934h2.395V35.312A.692.692,0,0,1,47.1,34.62Z" fill="#ffd15b"/><path d="M59.088,41.149,55.014,53.882h-15.8L34.852,40.246H58.43a.692.692,0,0,1,.659.9Z" fill="#fe646f"/><path d="M34.852,40.246l4.364,13.636h3.938L38.79,40.246Z" fill="#fd4755"/><circle cx="2.813" cy="2.813" r="2.813" transform="translate(51.548 51.498)" fill="#9e9797"/><path d="M54.023,54.311A2.813,2.813,0,0,1,55.6,51.784a2.813,2.813,0,1,0,0,5.053A2.813,2.813,0,0,1,54.023,54.311Z" fill="#766e6e"/><circle cx="2.813" cy="2.813" r="2.813" transform="translate(37.084 51.498)" fill="#9e9797"/><path d="M39.559,54.311a2.813,2.813,0,0,1,1.575-2.526,2.813,2.813,0,1,0,0,5.053A2.813,2.813,0,0,1,39.559,54.311Z" fill="#766e6e"/><path d="M7.937,15.427v4.087a.586.586,0,0,0,.586.586h31.52V14.841H8.523a.586.586,0,0,0-.586.586Z" fill="#fff"/><path d="M7.937,15.427v4.087a.586.586,0,0,0,.586.586h31.52V14.841H8.523a.586.586,0,0,0-.586.586Z" fill="#fff"/><path d="M11.484,18.149a.586.586,0,0,1-.586-.586V14.841H8.523a.586.586,0,0,0-.586.586v4.087a.586.586,0,0,0,.586.586h31.52V18.149H11.484Z" fill="#f9f3f1"/><path d="M45.545,20.1h-5.5V14.841h5.5a.586.586,0,0,1,.586.586v4.087A.586.586,0,0,1,45.545,20.1Z" fill="#05e39c"/><path d="M46.131,19.514V18.149H40.042V20.1h5.5A.586.586,0,0,0,46.131,19.514Z" fill="#0ed290"/><circle cx="4.249" cy="4.249" r="4.249" transform="translate(7.937 23.855)" fill="#05e39c"/><path d="M10.9,28.1a4.25,4.25,0,0,1,2.768-3.983,4.249,4.249,0,1,0,0,7.965A4.249,4.249,0,0,1,10.9,28.1Z" fill="#0ed290"/><path d="M7.937,37.4V41.49a.586.586,0,0,0,.586.586H26.448a.586.586,0,0,0,.586-.586V37.4a.586.586,0,0,0-.586-.586H8.523A.586.586,0,0,0,7.937,37.4Z" fill="#af66da"/><path d="M12.155,41.49V37.4a.586.586,0,0,1,.586-.586H8.523a.586.586,0,0,0-.586.586V41.49a.586.586,0,0,0,.586.586h4.219A.586.586,0,0,1,12.155,41.49Z" fill="#9857bd"/><path d="M59.7,40.012a1.576,1.576,0,0,0-1.269-.645H55.3V36.859a1.573,1.573,0,0,0-1.23-1.533V32.7a.879.879,0,0,0-1.758,0v2.593h-1.8a1.572,1.572,0,0,0-1.57-1.547H44.7a1.572,1.572,0,0,0-1.57,1.547H39.921a1.573,1.573,0,0,0-1.571,1.571v2.508H35.494l-.9-2.818a.879.879,0,0,0-.837-.611H30.79a.879.879,0,0,0,0,1.758h2.323l2.88,9H2.637a.88.88,0,0,1-.879-.879V11.037H52.31V28.594a.879.879,0,0,0,1.758,0V4.634A2.64,2.64,0,0,0,51.431,2H2.637A2.64,2.64,0,0,0,0,4.634V45.817a2.64,2.64,0,0,0,2.637,2.637H36.556l.97,3.03a3.691,3.691,0,1,0,6.035,3.276H50.7a3.691,3.691,0,1,0,6.012-3.3l3.216-10.048a1.576,1.576,0,0,0-.227-1.4ZM1.758,4.634a.88.88,0,0,1,.879-.879H51.431a.88.88,0,0,1,.879.879V9.279H1.758ZM50.516,37.046h3.024v2.321H50.516ZM44.89,35.5h3.868v3.868H44.89Zm-4.782,1.547h3.024v2.321H40.108Zm-.211,19.2a1.934,1.934,0,1,1,1.934-1.934A1.936,1.936,0,0,1,39.9,56.245Zm14.464,0A1.934,1.934,0,1,1,56.3,54.311,1.936,1.936,0,0,1,54.361,56.245Zm.749-5.55A3.693,3.693,0,0,0,50.91,53h-7.56a3.69,3.69,0,0,0-4.228-2.3l-3.065-9.577H58.173Z"/><path d="M52.732,48.86a.879.879,0,0,0,.879-.879V43.762a.879.879,0,0,0-1.758,0v4.219A.879.879,0,0,0,52.732,48.86Z"/><path d="M48.934,48.86a.879.879,0,0,0,.879-.879V43.762a.879.879,0,0,0-1.758,0v4.219A.879.879,0,0,0,48.934,48.86Z"/><path d="M45.137,48.86a.879.879,0,0,0,.879-.879V43.762a.879.879,0,0,0-1.758,0v4.219A.879.879,0,0,0,45.137,48.86Z"/><path d="M41.339,48.86a.879.879,0,0,0,.879-.879V43.762a.879.879,0,0,0-1.758,0v4.219A.879.879,0,0,0,41.339,48.86Z"/><path d="M32.812,15.72a.879.879,0,1,0,0-1.758H8.523a1.466,1.466,0,0,0-1.465,1.465v4.087a1.466,1.466,0,0,0,1.465,1.465H45.545a1.466,1.466,0,0,0,1.465-1.465V15.427a1.466,1.466,0,0,0-1.465-1.465H36.914a.879.879,0,1,0,0,1.758h2.249v3.5H8.816v-3.5Zm8.109,0h4.331v3.5H40.921Z"/><path d="M12.185,33.231a5.123,5.123,0,0,0,4.157-8.124l.647-.9a.879.879,0,1,0-1.425-1.029l-.494.684a5.127,5.127,0,1,0-2.885,9.364Zm0-8.5a3.349,3.349,0,0,1,1.855.559l-1.986,2.749L10.58,26.673a.879.879,0,0,0-1.2,1.288l2.2,2.046a.879.879,0,0,0,.6.235c.029,0,.058,0,.086,0a.879.879,0,0,0,.626-.36l2.328-3.224a3.369,3.369,0,1,1-3.041-1.919Z"/><path d="M47.01,26.845a.879.879,0,0,0-.879-.879H28.141a.879.879,0,0,0,0,1.758h17.99A.879.879,0,0,0,47.01,26.845Z"/><path d="M19.738,25.966a.879.879,0,1,0,0,1.758h4.943a.879.879,0,0,0,0-1.758Z"/><path d="M40.783,30.622a.879.879,0,0,0-.879-.879H19.738a.879.879,0,1,0,0,1.758H39.9A.879.879,0,0,0,40.783,30.622Z"/><path d="M17.812,41.2a.879.879,0,1,0,0,1.758h8.636a1.466,1.466,0,0,0,1.465-1.465V37.4a1.466,1.466,0,0,0-1.465-1.465H8.523A1.466,1.466,0,0,0,7.058,37.4V41.49a1.466,1.466,0,0,0,1.465,1.465h5.188a.879.879,0,1,0,0-1.758h-4.9V37.7h17.34v3.5Z"/><circle cx="0.879" cy="0.879" r="0.879" transform="translate(41.654 5.595)"/><circle cx="0.879" cy="0.879" r="0.879" transform="translate(44.837 5.595)"/><circle cx="0.879" cy="0.879" r="0.879" transform="translate(48.02 5.595)"/><circle cx="0.879" cy="0.879" r="0.879" transform="translate(42.209 29.743)"/><circle cx="0.879" cy="0.879" r="0.879" transform="translate(45.253 29.743)"/></g></g></g></svg>