<svg xmlns="http://www.w3.org/2000/svg" xmlns:xlink="http://www.w3.org/1999/xlink" width="60" height="60" viewBox="0 0 60 60"><defs><clipPath id="a"><rect width="60" height="60" transform="translate(1235 3930)" fill="#764cf0"/></clipPath></defs><g transform="translate(-1235 -3930)" clip-path="url(#a)"><g transform="translate(1235 3930)"><path d="M10.2,45.757h-3.2a5.67,5.67,0,0,1-5.671-5.67V19.751l2.686-5.729L1.322,8.293V6.55A5.67,5.67,0,0,1,6.993.879H53.007A5.67,5.67,0,0,1,58.678,6.55V8.293l-2.307,5.728,2.307,5.729V40.087a5.67,5.67,0,0,1-5.671,5.67H49.8L30,40.948Z" fill="#c7aee4"/><path d="M49.8,39.146v6.611H10.2V39.146a7.9,7.9,0,0,1,4.571-7.159V30.446a6.308,6.308,0,0,1,9.463-5.464l3.384,1.955a7.157,7.157,0,0,1,4.77,0l3.384-1.955a6.309,6.309,0,0,1,9.463,5.464v1.541A7.9,7.9,0,0,1,49.8,39.146Z" fill="#bd9cde"/><path d="M1.322,8.294H58.678V19.75H1.322Z" fill="#7a8fa5"/><path d="M46.288,39.146v15.6a4.377,4.377,0,0,1-4.377,4.377h-7.9l-2.36-.607c-2.534-6.666-2.518-17.546.506-23.744h9.75a4.377,4.377,0,0,1,4.377,4.377Z" fill="#fd7a6e"/><path d="M31.655,58.514,30,58.089l-4.015,1.032h-7.9a4.377,4.377,0,0,1-4.377-4.377v-15.6a4.377,4.377,0,0,1,4.377-4.377H32.161c-3.025,6.2-3.04,17.079-.506,23.744Z" fill="#f85647"/><path d="M34.015,34.766V59.121H31.9c-3.343-5.526-3.787-18.264.264-24.352Z" fill="#fff4e5"/><path d="M31.9,59.121H25.985V34.766h6.169l.007,0C29.043,41.16,29.122,52.528,31.9,59.121Z" fill="#ffe0b7"/><path d="M26.61,33.687A3.382,3.382,0,0,1,27.8,31.1l-5.331-3.078a2.793,2.793,0,0,0-4.19,2.419v6.482a2.793,2.793,0,0,0,4.19,2.419L27.8,36.269a3.382,3.382,0,0,1-1.194-2.582Z" fill="#ffd9a0"/><path d="M37.527,28.027,32.2,31.1a3.388,3.388,0,0,1,0,5.164l5.331,3.078a2.793,2.793,0,0,0,4.19-2.419V30.446a2.793,2.793,0,0,0-4.19-2.419Z" fill="#ffd9a0"/><circle cx="3.643" cy="3.643" r="3.643" transform="translate(26.357 30.044)" fill="#fff4e5"/><path d="M53.008,0H14.728a.879.879,0,0,0,0,1.758h38.28A4.8,4.8,0,0,1,57.8,6.549v.866H2.2V6.549A4.8,4.8,0,0,1,6.992,1.758h3.634a.879.879,0,0,0,0-1.758H6.992A6.557,6.557,0,0,0,.443,6.549V40.087a6.557,6.557,0,0,0,6.549,6.549h5.841v8.108A5.262,5.262,0,0,0,18.089,60H41.911a5.262,5.262,0,0,0,5.256-5.256v-1.3a.879.879,0,1,0-1.758,0v1.3a3.5,3.5,0,0,1-3.5,3.5H34.894v-19.4l2.193,1.266a3.672,3.672,0,0,0,5.508-3.18V35.714a3.5,3.5,0,0,1,1.743.917,3.45,3.45,0,0,1,1.071,2.516V49.339a.879.879,0,1,0,1.758,0v-2.7h5.841a6.557,6.557,0,0,0,6.549-6.549V6.549A6.557,6.557,0,0,0,53.008,0ZM57.8,9.173v9.7H2.2v-9.7ZM14.591,54.744v-15.6a3.448,3.448,0,0,1,1.071-2.514,3.5,3.5,0,0,1,1.742-.917v1.214a3.672,3.672,0,0,0,5.508,3.18l2.193-1.266v19.4H18.089A3.5,3.5,0,0,1,14.591,54.744ZM32.764,33.687A2.764,2.764,0,1,1,30,30.923,2.767,2.767,0,0,1,32.764,33.687Zm-6.543,2.481-4.188,2.418a1.914,1.914,0,0,1-2.872-1.658V30.446a1.914,1.914,0,0,1,2.872-1.658l4.188,2.418a4.508,4.508,0,0,0,0,4.961Zm6.915,22.074H26.864V37.827l.642-.371a4.51,4.51,0,0,0,4.989,0l.642.371V58.242Zm7.7-21.314a1.914,1.914,0,0,1-2.871,1.658l-4.188-2.418a4.508,4.508,0,0,0,0-4.961l4.188-2.418a1.914,1.914,0,0,1,2.871,1.658Zm12.17,7.95H47.167V39.149A5.268,5.268,0,0,0,42.6,33.933V30.446a3.672,3.672,0,0,0-5.508-3.18l-4.593,2.652a4.51,4.51,0,0,0-4.989,0l-4.593-2.652a3.672,3.672,0,0,0-5.508,3.18v3.487a5.268,5.268,0,0,0-4.571,5.214v5.731H6.992A4.8,4.8,0,0,1,2.2,40.087V20.629H57.8V40.087a4.8,4.8,0,0,1-4.791,4.791Z"/><path d="M22.682,15.185a.879.879,0,0,0,.879-.879V12.9a.879.879,0,0,0-1.758,0v1.406A.879.879,0,0,0,22.682,15.185Z"/><path d="M37.318,15.185a.879.879,0,0,0,.879-.879V12.9a.879.879,0,1,0-1.758,0v1.406A.879.879,0,0,0,37.318,15.185Z"/><path d="M30,16.023a3.438,3.438,0,0,0,2.592-1.18.879.879,0,0,0-1.325-1.155,1.678,1.678,0,0,1-2.534,0,.879.879,0,0,0-1.325,1.155A3.438,3.438,0,0,0,30,16.023Z"/></g></g></svg>