<svg xmlns="http://www.w3.org/2000/svg" xmlns:xlink="http://www.w3.org/1999/xlink" width="293.775" height="294.333" viewBox="0 0 293.775 294.333"><defs><clipPath id="a"><path d="M-52.188,75.449-82.216,90.441l-14.593,7.291L-135.6,117.1l-.231.116-.484.242-14.056,7.028-7.88,3.935-.147.074-62.338,31.132a20.528,20.528,0,0,1-23.02-3.22,20.321,20.321,0,0,1-4.5-5.976l-2.809-5.618-1.515-3.041-.316-.631-.452-.915v-.011l-6.828-13.657-.431-.852-.231-.463-8.954-17.939-.358-.715-1.852-3.7-.473-.957-.8-1.61c-.01,0-.01,0-.01-.011l-1.957-3.914-1.526-3.051-.074-.158-1.084-2.167a1.064,1.064,0,0,0-.074-.158l-.779-1.536-2.515-5.05-3.188-6.365-4.114-8.238-.021-.042-4.9-9.827-1.694-3.4-8.933-17.865-28.292-56.646a20.532,20.532,0,0,1,9.2-27.534l43.116-21.526,33.668-16.823c.011-.011.021-.011.042-.021l7.67-3.83h.011L-236.426-89l4.261-2.125L-228.419-93l4.44-2.22,7.733-3.872h.011l5.766-2.872h.011l55.752-27.85a20.519,20.519,0,0,1,27.534,9.185L-43,47.915A20.516,20.516,0,0,1-52.188,75.449Z" transform="translate(334.608 131.982)" fill="none"/></clipPath></defs><g transform="translate(8812.776 6345)"><g transform="translate(-8478.169 -6213.018)"><path d="M-52.188,75.449-82.216,90.441l-14.593,7.291L-135.6,117.1l-.231.116-.484.242-14.056,7.028-7.88,3.935-.147.074-62.338,31.132a20.528,20.528,0,0,1-23.02-3.22,20.321,20.321,0,0,1-4.5-5.976l-2.809-5.618-1.515-3.041-.316-.631-.452-.915v-.011l-6.828-13.657-.431-.852-.231-.463-8.954-17.939-.358-.715-1.852-3.7-.473-.957-.8-1.61c-.01,0-.01,0-.01-.011l-1.957-3.914-1.526-3.051-.074-.158-1.084-2.167a1.064,1.064,0,0,0-.074-.158l-.779-1.536-2.515-5.05-3.188-6.365-4.114-8.238-.021-.042-4.9-9.827-1.694-3.4-8.933-17.865-28.292-56.646a20.532,20.532,0,0,1,9.2-27.534l43.116-21.526,33.668-16.823c.011-.011.021-.011.042-.021l7.67-3.83h.011L-236.426-89l4.261-2.125L-228.419-93l4.44-2.22,7.733-3.872h.011l5.766-2.872h.011l55.752-27.85a20.519,20.519,0,0,1,27.534,9.185L-43,47.915A20.516,20.516,0,0,1-52.188,75.449Z" transform="translate(0 0)" fill="#ffd41c"/><g transform="translate(-334.608 -131.982)"><g clip-path="url(#a)"><g transform="translate(-27.159 18.958)"><circle cx="113.438" cy="113.438" r="113.438" transform="translate(0 160.426) rotate(-45)" fill="#21155c"/></g></g></g><g transform="translate(-287.396 -103.506)"><path d="M-208.722-104.893q1.955-.052,3.885.007a45.971,45.971,0,0,1,7.4.879c13.442,2.637,26.85,12.117,27.414,26.858a65.237,65.237,0,0,1-.964,12.366c-1.142,7.426-3.488,14.635-4.461,22.085a9.764,9.764,0,0,0,.317,5.1c1.355,3.171,5.249,4.195,8.613,4.956,5.893,1.334,12.047,3.276,15.973,7.869,3,3.506,4.324,8.188,4.6,12.792a33.3,33.3,0,0,1-4.208,18.232c-1.833,3.249-4.378,6.3-7.853,7.662-4.075,1.592-8.64.6-12.936-.224-31.7-6.116-64.436-2.425-96.294,2.82A47.042,47.042,0,0,1-279.3-4.293c-1.949-7.289-1.543-14.334,3.178-20.512,3.4-4.446,8.177-7.656,13.185-10.153,4.529-2.258,5.837-4.633,5.459-9.72-.828-11.145-.981-23.183,3.432-33.661C-246.515-96.222-227.167-104.4-208.722-104.893Z" transform="translate(290.222 104.917)" fill="#26d19e"/><g transform="translate(57.193 59.451)"><path d="M-198.493-32.5v18.031l-32.941-.167-3.943-33.776Z" transform="translate(235.376 48.411)" fill="#ffe1c2"/><path d="M-198.676-28.961v9.333a27.81,27.81,0,0,1-11.558-.28c-10.657-2.638-19.623-9.4-21.627-20.741A71.469,71.469,0,0,0-198.676-28.961Z" transform="translate(235.559 48.816)" fill="#0b0a10"/></g><g transform="translate(41.98 0.682)"><path d="M-189.636-26.089c-15.218,9.285-38.463,4.88-44.19-14.487A178.791,178.791,0,0,1-238.579-60.4c-.487-2.8-.758-4.983-.925-6.537a31.11,31.11,0,0,1-.706-6.5,30.521,30.521,0,0,1,30.6-30.436,30.549,30.549,0,0,1,18.48,6.177,30.629,30.629,0,0,1,9.956,12.981c2.362,5.89,2.147,12.061,2.207,18.272.045,4.648.062,9.273-.314,13.916-.661,8.155-1.89,18.549-8.047,24.614A12.8,12.8,0,0,1-189.636-26.089Z" transform="translate(250.337 104.289)" fill="#ffe1c2"/><g transform="translate(34.791 36.738)"><path d="M-209.432-59.1a2.545,2.545,0,0,1-2.344,2.706A2.545,2.545,0,0,1-214.12-59.1a2.544,2.544,0,0,1,2.344-2.705A2.544,2.544,0,0,1-209.432-59.1Z" transform="translate(216.905 69.744)" fill="#0b0a10"/><path d="M-186.837-59.1a2.545,2.545,0,0,1-2.344,2.706,2.545,2.545,0,0,1-2.345-2.706,2.544,2.544,0,0,1,2.345-2.705A2.544,2.544,0,0,1-186.837-59.1Z" transform="translate(218.083 69.744)" fill="#0b0a10"/><g transform="translate(14.366 4.832)"><g transform="translate(3.259)"><path d="M-195.021-44.043a.282.282,0,0,1-.072-.008,16.247,16.247,0,0,1-4.767-1.917.322.322,0,0,1-.11-.44.322.322,0,0,1,.441-.11,15.652,15.652,0,0,0,4.177,1.744c-.165-6.513-.371-13.122-.612-19.652a.321.321,0,0,1,.309-.332.318.318,0,0,1,.332.309c.246,6.673.456,13.427.623,20.077a.32.32,0,0,1-.118.257A.32.32,0,0,1-195.021-44.043Z" transform="translate(200.015 64.758)" fill="#0b0a10"/></g><g transform="translate(0 21.977)"><path d="M-200.435-40.477a2.144,2.144,0,0,1-.281-.018c-1.6-.207-2.088-1.935-2.384-2.967a.321.321,0,0,1,.221-.4.321.321,0,0,1,.4.221c.341,1.19.764,2.364,1.849,2.505.823.105,1.533-.435,2.236-1.705a.319.319,0,0,1,.436-.125.322.322,0,0,1,.126.437C-198.126-42-198.971-40.477-200.435-40.477Z" transform="translate(203.113 43.87)" fill="#0b0a10"/></g></g><path d="M-216.766-66.083A3.717,3.717,0,0,1-214.53-69a3.717,3.717,0,0,1,3.666.285.337.337,0,0,1,.068.472.338.338,0,0,1-.257.135h-.017a6.772,6.772,0,0,0-5.106,2.279l-.011.012a.339.339,0,0,1-.478.008A.341.341,0,0,1-216.766-66.083Z" transform="translate(216.767 69.351)" fill="#0b0a10"/><path d="M-191.058-68.348a3.715,3.715,0,0,1,3.593-.779,3.714,3.714,0,0,1,2.61,2.589.337.337,0,0,1-.254.4.339.339,0,0,1-.283-.063l-.014-.011a6.773,6.773,0,0,0-5.367-1.567h-.016a.336.336,0,0,1-.369-.3A.338.338,0,0,1-191.058-68.348Z" transform="translate(218.102 69.355)" fill="#0b0a10"/></g><g transform="translate(0 41.977)"><path d="M-243.566-64.268a7.439,7.439,0,0,0-5.341,4.116,10.2,10.2,0,0,0-.608,6.842,12.852,12.852,0,0,0,11.331,9.552,6.607,6.607,0,0,0,3.867-.747,5.789,5.789,0,0,0,2.523-4.507,12.985,12.985,0,0,0-.891-5.248C-234.337-59.064-237.3-65.247-243.566-64.268Z" transform="translate(249.835 64.371)" fill="#ffe1c2"/><g transform="translate(5.48 6.971)"><path d="M-238.507-51.8a.316.316,0,0,1-.266-.143,22.185,22.185,0,0,0-2.395-3.152,7.069,7.069,0,0,0-3.22-2.023.321.321,0,0,1-.228-.392.321.321,0,0,1,.392-.228,7.7,7.7,0,0,1,3.516,2.2,22.763,22.763,0,0,1,2.467,3.244.321.321,0,0,1-.088.445A.322.322,0,0,1-238.507-51.8Z" transform="translate(244.626 57.745)" fill="#0b0a10"/></g></g><path d="M-190.73-98.285a19.77,19.77,0,0,1-7.222,15.644,18.329,18.329,0,0,1-19.52,1.4c-.45,7.654-2.71,15.629-8.4,20.766a19.249,19.249,0,0,1-10.222,4.662c-.873-1.49-3.814-5.752-4.559-7.306-.487-2.8.578-2.135.41-3.689a34.129,34.129,0,0,1-.82-6.8c0-16.811,14.577-30.658,31.477-30.658A31.507,31.507,0,0,1-190.73-98.285Z" transform="translate(250.292 104.269)" fill="#26d19e"/></g><path d="M-230.246-23.941s7.323,2.514,18.8,2.514,16.176-2.3,16.176-2.3l1.311,11.8S-158.765.323-146.305,24.587s8.525,99.461,8.525,99.461L-273.09,134.322s-17.487-13.335-16.613-48.747,16.912-68.883,26.887-78.694c13.335-13.116,30.384-18.363,30.384-18.363Z" transform="translate(289.735 109.138)" fill="#f34919"/></g><g transform="translate(-298.076 30.609)"><path d="M-281.624,124.859l-3.039-102.3h148.9v101.8l-145.638.317" transform="translate(300.679 -22.554)" fill="#0b0a10"/><path d="M-142.883,119.505H-275.67l-2.975-91.416H-141.4Z" transform="translate(300.993 -22.265)" fill="#d1c3fa"/><g transform="translate(52.503 9.152)"><g transform="translate(11.245)"><g transform="translate(0.995 11.027)"><ellipse cx="28.333" cy="28.501" rx="28.333" ry="28.501" fill="#ffe268"/><rect width="16.126" height="17.349" transform="translate(20.605 48.441)" fill="#ffe268"/><g transform="translate(15.937 25.009)" style="isolation:isolate"><path d="M-207.941,104.911a34.043,34.043,0,0,1,7.284-24.546,18.86,18.86,0,0,0,2.834-4.7c.585-1.441,1.47-3.618.935-5.512A3.022,3.022,0,0,0-198.9,68a3.891,3.891,0,0,0-2.746.554,10.773,10.773,0,0,0-3.473,2.942,23.633,23.633,0,0,1-.371,6.471,1.21,1.21,0,0,1-1.4.991,1.215,1.215,0,0,1-1.085-1.326,12.09,12.09,0,0,1,2.407-6.266c-.015-.174-.032-.348-.052-.521-.311-2.815-1.32-4.388-3.083-4.807a3.74,3.74,0,0,0-2.578.367c-1.575.824-2.671,2.415-3.346,4.858a16.407,16.407,0,0,1,2.253,5.888,6.617,6.617,0,0,1,.1,1.243,1.223,1.223,0,0,1-.967,1.194,1.255,1.255,0,0,1-1.418-.652,10.789,10.789,0,0,1-.473-7.49c.009-.037.019-.073.027-.109-.02-.033-.042-.065-.063-.1-.992-1.514-2.608-3.147-4.679-2.334a4.015,4.015,0,0,0-1.886,1.709c-2.124,3.53-.558,8.009,1.044,11.516,1.237,2.708,2.6,5.4,4.048,8l.161.29c2.134,3.827,4.55,8.163,3.469,12.5l-.427-.106c1.04-4.171-1.332-8.426-3.425-12.181l-.163-.291c-1.454-2.611-2.821-5.314-4.062-8.032-1.647-3.606-3.251-8.219-1.021-11.925a4.4,4.4,0,0,1,2.1-1.893c1.772-.7,3.561.115,5.061,2.285a7.4,7.4,0,0,1,3.459-4.763,4.167,4.167,0,0,1,2.884-.406c1.965.467,3.084,2.164,3.418,5.187l.007.075a11.125,11.125,0,0,1,3.329-2.706,4.286,4.286,0,0,1,3.06-.591,3.463,3.463,0,0,1,2.323,2.465c.576,2.039-.343,4.3-.951,5.8a19.283,19.283,0,0,1-2.9,4.811,33.593,33.593,0,0,0-7.188,24.226Zm-6.838-33.057a10.189,10.189,0,0,0,.512,6.872.815.815,0,0,0,.928.427.786.786,0,0,0,.627-.775,6.1,6.1,0,0,0-.1-1.159A15.977,15.977,0,0,0-214.779,71.855Zm9.26.187a11.606,11.606,0,0,0-2.019,5.62.778.778,0,0,0,.709.855.76.76,0,0,0,.9-.611A23.229,23.229,0,0,0-205.519,72.042Z" transform="translate(223.203 -65.503)" fill="#ffd41c"/></g><g transform="translate(19.861 60.909)"><path d="M-201.859,99.625v4.783a5.462,5.462,0,0,1-.026.547,2.644,2.644,0,0,1-.061.45,6.137,6.137,0,0,1-6.053,5.18h-5.333a6.137,6.137,0,0,1-6.053-5.18,2.65,2.65,0,0,1-.062-.45c-.017-.176-.026-.362-.026-.547V99.625Z" transform="translate(219.474 -99.625)" fill="#8d6af2"/><g transform="translate(0 1.421)"><rect width="17.615" height="0.459" fill="#0b0a10"/></g><g transform="translate(0 3.23)"><rect width="17.615" height="0.45" fill="#0b0a10"/></g><g transform="translate(0.026 5.33)"><path d="M-201.887,104.691a2.644,2.644,0,0,1-.061.45h-17.439a2.649,2.649,0,0,1-.062-.45Z" transform="translate(219.449 -104.691)" fill="#0b0a10"/></g></g><g transform="translate(44.716 9.585)"><path d="M-195.85,53.545a6.423,6.423,0,0,0,.812,2.923,5.313,5.313,0,0,0,1.946,2.334,2.37,2.37,0,0,0,2.841-.243,2.966,2.966,0,0,0,.6-2.238,7.426,7.426,0,0,0-1.553-4.078C-192.931,50.04-195.808,50.413-195.85,53.545Z" transform="translate(195.85 -50.844)" fill="#fff"/><path d="M-191.459,63.052a17.728,17.728,0,0,0,.731,6.848c.331,1.062.937,2.239,2.03,2.418a2.148,2.148,0,0,0,2-.971,4.868,4.868,0,0,0,.734-2.212,13.593,13.593,0,0,0-.472-5.7c-.364-1.2-1.219-3.046-2.613-3.313C-190.668,59.813-191.347,61.816-191.459,63.052Z" transform="translate(196.076 -50.362)" fill="#fff"/></g></g><g transform="translate(0 66.353)"><path d="M-238.635,99.694a.658.658,0,0,1-.572-.331.658.658,0,0,1,.243-.9l7.055-4.056a.66.66,0,0,1,.9.243.661.661,0,0,1-.243.9l-7.055,4.055A.655.655,0,0,1-238.635,99.694Z" transform="translate(239.296 -94.319)" fill="#ffdb42"/></g><g transform="translate(59.294 24.279)"><path d="M-182.279,59.7a.659.659,0,0,1-.572-.331.659.659,0,0,1,.243-.9l7.056-4.056a.66.66,0,0,1,.9.244.66.66,0,0,1-.244.9l-7.054,4.055A.649.649,0,0,1-182.279,59.7Z" transform="translate(182.94 -54.329)" fill="#ffdb42"/></g><g transform="translate(49.503 9.271)"><path d="M-191.586,47.576a.657.657,0,0,1-.428-.159.66.66,0,0,1-.073-.93l5.3-6.193a.662.662,0,0,1,.931-.072.662.662,0,0,1,.072.931l-5.3,6.192A.662.662,0,0,1-191.586,47.576Z" transform="translate(192.245 -40.064)" fill="#ffdb42"/></g><g transform="translate(30.281)"><path d="M-209.854,40.746h-.006a.661.661,0,0,1-.654-.666l.076-8.174a.659.659,0,0,1,.66-.653h.006a.661.661,0,0,1,.653.666l-.075,8.174A.661.661,0,0,1-209.854,40.746Z" transform="translate(210.515 -31.253)" fill="#ffdb42"/></g><g transform="translate(6.582 6.669)"><path d="M-227.234,45.237a.66.66,0,0,1-.512-.243l-5.145-6.325a.66.66,0,0,1,.095-.928.659.659,0,0,1,.928.095l5.146,6.325a.66.66,0,0,1-.1.928A.654.654,0,0,1-227.234,45.237Z" transform="translate(233.04 -37.592)" fill="#ffdb42"/></g></g><g transform="translate(1.466 41.505)"><g transform="translate(0 10.895)"><path d="M-247.931,82.821a.659.659,0,0,1-.659-.623.66.66,0,0,1,.623-.7l8.113-.446a.657.657,0,0,1,.694.623.658.658,0,0,1-.622.694l-8.113.447Z" transform="translate(248.591 -81.057)" fill="#ffdb42"/></g><g transform="translate(71.748)"><path d="M-179.738,72.467a.661.661,0,0,1-.659-.624.66.66,0,0,1,.623-.7l8.113-.446a.662.662,0,0,1,.7.623.66.66,0,0,1-.623.7l-8.113.446Z" transform="translate(180.398 -70.702)" fill="#ffdb42"/></g></g><g transform="translate(0 34.532)"><path d="M-241.835,68.563a.647.647,0,0,1-.256-.053l-7.49-3.169a.659.659,0,0,1-.35-.865.658.658,0,0,1,.864-.35l7.49,3.169a.659.659,0,0,1,.35.865A.66.66,0,0,1-241.835,68.563Z" transform="translate(249.984 -64.074)" fill="#ffdb42"/><g transform="translate(69.256 21.778)"><path d="M-176.01,89.262a.656.656,0,0,1-.257-.053l-7.489-3.169a.658.658,0,0,1-.35-.864.658.658,0,0,1,.864-.351l7.49,3.169a.66.66,0,0,1,.35.865A.661.661,0,0,1-176.01,89.262Z" transform="translate(184.159 -84.773)" fill="#ffdb42"/></g></g><g transform="translate(5.831 17.992)"><path d="M-238.071,55.486a.657.657,0,0,1-.47-.2l-5.711-5.814a.66.66,0,0,1,.008-.933.659.659,0,0,1,.932.008l5.712,5.814a.66.66,0,0,1-.008.933A.657.657,0,0,1-238.071,55.486Z" transform="translate(244.442 -48.354)" fill="#ffdb42"/><g transform="translate(55.677 46.807)"><path d="M-185.152,99.975a.658.658,0,0,1-.47-.2l-5.711-5.814a.659.659,0,0,1,.008-.932.658.658,0,0,1,.932.007l5.712,5.814a.66.66,0,0,1-.008.933A.658.658,0,0,1-185.152,99.975Z" transform="translate(191.523 -92.842)" fill="#ffdb42"/></g></g></g><g transform="translate(0 101.798)"><path d="M-299.886,149.253h184.6l-19.689-29.944H-281.084Z" transform="translate(299.886 -119.309)" fill="#b7b8fb"/><path d="M-299.886,149.253h184.6l-19.689-29.944H-281.084Z" transform="translate(299.886 -119.309)" fill="#0b0a10" opacity="0.68"/><g transform="translate(18.363 3.738)"><path d="M-137.146,126.527h-145.1a.186.186,0,0,1-.168-.107.187.187,0,0,1,.026-.2l2.786-3.292a.186.186,0,0,1,.142-.066h139.4a.188.188,0,0,1,.14.063l2.911,3.293a.186.186,0,0,1,.031.2A.186.186,0,0,1-137.146,126.527Zm-144.7-.371H-137.56l-2.583-2.921H-279.375Z" transform="translate(282.432 -122.862)" fill="#fff"/></g><g transform="translate(13.855 11.078)"><path d="M-131.732,133.765H-286.518a.2.2,0,0,1-.175-.1.2.2,0,0,1,.007-.2l2.288-3.528a.2.2,0,0,1,.167-.09h149.378a.2.2,0,0,1,.149.067l3.121,3.528a.2.2,0,0,1,.032.214A.2.2,0,0,1-131.732,133.765Zm-154.419-.4h153.976l-2.767-3.129h-149.18Z" transform="translate(286.717 -129.838)" fill="#fff"/></g><g transform="translate(45.042 19.719)"><path d="M-169.552,142.357h-87.364a.159.159,0,0,1-.128-.065.158.158,0,0,1-.023-.143l1.292-3.988a.158.158,0,0,1,.152-.11h84.311a.162.162,0,0,1,.146.095l1.761,3.989a.162.162,0,0,1-.013.152A.159.159,0,0,1-169.552,142.357Zm-87.145-.318h86.9l-1.62-3.67h-84.092Z" transform="translate(257.075 -138.051)" fill="#fff"/></g></g></g><path d="M-92.807-10.7H-163.88a16.579,16.579,0,0,1,5.39-6.133,16.582,16.582,0,0,1,10.81-2.758,22.582,22.582,0,0,1,9.51-13.985c4.832-3.191,11.367-3.95,16.494-1.286,5.994,3.113,9.06,10.067,9.882,16.773a12.246,12.246,0,0,1,12.777-.682A12.728,12.728,0,0,1-92.807-10.7Z" transform="translate(8.899 4.978)" fill="#a488f5"/><g transform="translate(-316.224 -30.075)"><g transform="translate(146.896 40.591)"><path d="M-115.229,3.457h-56.835a5.452,5.452,0,0,0-5.452,5.452V20.74a5.452,5.452,0,0,0,5.452,5.451h15.857l-1.358,11.831,8.728-11.831h33.608a5.452,5.452,0,0,0,5.452-5.451V8.909A5.452,5.452,0,0,0-115.229,3.457Z" transform="translate(177.516 -3.457)" fill="#fff"/><g transform="translate(9.558 4.35)"><path d="M-160.47,10.677s-4.63-5.6-7.473-1.705,7.636,13,7.636,13S-160.592,10.8-160.47,10.677Z" transform="translate(168.432 -7.592)" fill="#f34919"/><path d="M-161.02,10.677s4.63-5.6,7.473-1.705-7.173,13-7.173,13S-160.9,10.8-161.02,10.677Z" transform="translate(168.818 -7.592)" fill="#f34919"/></g><g transform="translate(35.441 5.121)"><path d="M-139.5,17.6l1.1.049a.723.723,0,0,1,.72.719v1a.726.726,0,0,1-.72.72h-4.709a.726.726,0,0,1-.72-.72v-1a.714.714,0,0,1,.72-.719h1.047l.048-6.133h-.932a.8.8,0,0,1-.8-.8v-.049c0-.556.033-.948.033-.948l2.55-1.292a.762.762,0,0,1,.377-.1h.49a.728.728,0,0,1,.556.245.73.73,0,0,1,.246.556Z" transform="translate(143.831 -8.324)" fill="#0b0a10"/><path d="M-135.608,20.069a.625.625,0,0,1-.622-.638V9.2a.63.63,0,0,1,.622-.654h1.145a.629.629,0,0,1,.621.654v3.957h.017l3.222-4.267a.814.814,0,0,1,.686-.344h1.309a.594.594,0,0,1,.6.6.744.744,0,0,1-.132.392l-3.613,4.709,3.63,4.857a.661.661,0,0,1,.13.377.594.594,0,0,1-.6.6l-1.34-.017a.786.786,0,0,1-.67-.343l-3.156-4.2h-.082v3.908a.624.624,0,0,1-.621.638Z" transform="translate(144.227 -8.313)" fill="#0b0a10"/></g></g><circle cx="19.573" cy="19.573" r="19.573" fill="#a488f5"/><g transform="translate(6.418 6.466)"><path d="M-301.069-21.176s-1.135-7.648.606-7.8,5.6,7.572,5.6,7.572l3.786.455L-291.756-5.5s-17.567.606-18.1-1.211A7.342,7.342,0,0,1-310-10.122s-1.288-2.2-.985-3.483a11.367,11.367,0,0,1,.909-2.423,10.15,10.15,0,0,1-.606-3.787c.227-1.438,2.726-1.59,4.089-1.514S-301.069-21.176-301.069-21.176Z" transform="translate(311.035 28.978)" fill="#21155c"/><g transform="translate(16.035 7.615)"><path d="M-285.129-5.693h0l-10.554-.152a.111.111,0,0,1-.109-.113.111.111,0,0,1,.112-.109h0l10.443.149.3-14.926-10.645-.675a.111.111,0,0,1-.1-.118.111.111,0,0,1,.112-.1h.007l10.752.681a.111.111,0,0,1,.1.113l-.3,15.144A.111.111,0,0,1-285.129-5.693Z" transform="translate(295.794 21.74)" fill="#21155c"/></g></g><g transform="translate(3.356 81.649)"><circle cx="22.27" cy="22.27" r="22.27" transform="translate(0 31.495) rotate(-45)" fill="#26d19e"/><g transform="translate(15.148 15.147)"><path d="M-283.2,89.572a16.366,16.366,0,0,1-16.347-16.347A16.366,16.366,0,0,1-283.2,56.877a16.365,16.365,0,0,1,16.347,16.348A16.365,16.365,0,0,1-283.2,89.572Zm0-32.013a15.684,15.684,0,0,0-15.666,15.666A15.684,15.684,0,0,0-283.2,88.891a15.684,15.684,0,0,0,15.666-15.666A15.684,15.684,0,0,0-283.2,57.559Z" transform="translate(299.548 -56.877)" fill="#faf0e3"/></g><g transform="translate(31.154 15.488)"><rect width="0.681" height="32.013" fill="#faf0e3"/></g><g transform="translate(15.488 31.154)"><rect width="32.013" height="0.681" fill="#faf0e3"/></g><g transform="translate(23.124 15.108)"><path d="M-286.919,89.059c-2.4-2.573-3.969-6.158-4.664-10.653a32.655,32.655,0,0,1-.09-9.352,20.837,20.837,0,0,1,2.048-6.951,12.308,12.308,0,0,1,5-5.263l.321.6a11.629,11.629,0,0,0-4.718,4.977A20.19,20.19,0,0,0-291,69.145a31.985,31.985,0,0,0,.089,9.158c.674,4.358,2.184,7.82,4.488,10.292Z" transform="translate(291.966 -56.84)" fill="#faf0e3"/></g><g transform="translate(33.594 15.512)"><path d="M-280.325,89.221l-.52-.441c2.908-3.428,3.57-8.194,3.834-12.4.272-4.373.284-10-2.073-14.776a11.131,11.131,0,0,0-2.932-3.843l.425-.532a11.805,11.805,0,0,1,3.118,4.074c2.428,4.917,2.42,10.663,2.141,15.12C-276.6,80.74-277.288,85.641-280.325,89.221Z" transform="translate(282.016 -57.224)" fill="#faf0e3"/></g><g transform="translate(15.14 23.363)"><path d="M-298.947,72.08l-.608-.307a5.544,5.544,0,0,1,1.68-1.81,26.211,26.211,0,0,1,22.343-4.428,15.785,15.785,0,0,1,8.283,4.863l-.524.436a15.131,15.131,0,0,0-7.936-4.641A25.522,25.522,0,0,0-297.459,70.5,4.978,4.978,0,0,0-298.947,72.08Z" transform="translate(299.555 -64.686)" fill="#faf0e3"/></g><g transform="translate(15.344 33.517)"><path d="M-284.477,80.691a38.056,38.056,0,0,1-3.993-.21,22.3,22.3,0,0,1-6.512-1.535,8.155,8.155,0,0,1-4.38-3.738l.517-.234a7.613,7.613,0,0,0,4.087,3.451,21.8,21.8,0,0,0,6.346,1.492,35.069,35.069,0,0,0,13.264-1.061c3.58-1.034,6.3-2.639,7.658-4.519l.46.334c-1.836,2.54-5.343,3.974-7.961,4.73A34.35,34.35,0,0,1-284.477,80.691Z" transform="translate(299.361 -74.337)" fill="#faf0e3"/></g></g></g><g transform="translate(-304.216 -49.689)"><path d="M-117.326,44.729l7.1,2.183-7.1,2.183-2.183,7.1-2.183-7.1-7.1-2.183,7.1-2.183,2.183-7.1Z" transform="translate(314.945 58.53)" fill="#764cf0"/><path d="M-261.194-41.261l7.1,2.183-7.1,2.183-2.183,7.1-2.183-7.1-7.1-2.183,7.1-2.183,2.183-7.1Z" transform="translate(307.446 54.047)" fill="#764cf0"/><path d="M-122.224,74.475l4.879,1.5-4.879,1.5-1.5,4.879-1.5-4.879-4.878-1.5,4.878-1.5,1.5-4.879Z" transform="translate(314.876 60.196)" fill="#764cf0"/><path d="M-158.6-48.887l4.879,1.5-4.879,1.5-1.5,4.879-1.5-4.879-4.878-1.5,4.878-1.5,1.5-4.878Z" transform="translate(312.98 53.766)" fill="#764cf0"/><path d="M-297.842,33.8l4.879,1.5-4.879,1.5-1.5,4.879-1.5-4.879-4.879-1.5,4.879-1.5,1.5-4.878Z" transform="translate(305.722 58.075)" fill="#764cf0"/></g><rect width="35.349" height="35.349" rx="8" transform="matrix(0.985, 0.174, -0.174, 0.985, -101.914, 78.017)" fill="#26d19e"/><circle cx="17.839" cy="17.839" r="17.839" transform="translate(-123.255 -103.506)" fill="#764cf0"/></g></g></svg>