<svg xmlns="http://www.w3.org/2000/svg" xmlns:xlink="http://www.w3.org/1999/xlink" width="292.53" height="295.985" viewBox="0 0 292.53 295.985"><defs><clipPath id="a"><rect width="218.072" height="218.072" rx="19.504" transform="translate(589.158 303.519) rotate(-26.539)" fill="none"/></clipPath></defs><g transform="translate(8811.53 7578.985)"><g transform="translate(-9400.688 -7785.066)"><path d="M864.24,409.89,835.7,424.14l-50.96,25.45-13.82,6.91-7.49,3.74-.14.07L704.04,489.9a19.511,19.511,0,0,1-21.88-3.06,19.314,19.314,0,0,1-4.28-5.68l-11.33-22.69-.41-.81-.22-.44-8.85-17.73-6.36-12.74-7.26-14.52-8.59-17.21-36.99-74.05a19.515,19.515,0,0,1,8.74-26.17l86.57-43.23,10.76-5.38L766.8,214.8a19.5,19.5,0,0,1,26.17,8.73l80,160.19A19.5,19.5,0,0,1,864.24,409.89Z" fill="#ffd41c"/><g clip-path="url(#a)"><path d="M823.94,390.773a105.848,105.848,0,0,1-48.266,88.715c-.223.152-.435.293-.67.423a105.6,105.6,0,0,1-112.871.341,2.3,2.3,0,0,1-.318-.188l-.388-.247c-.493-.306-.987-.635-1.457-.952q-3.474-2.293-6.748-4.867c-.294-.223-.587-.458-.881-.693-1.963-1.564-3.856-3.2-5.7-4.926a103.7,103.7,0,0,1-11.484-12.425,105.723,105.723,0,0,1-9.522-14.412c-.129-.211-.247-.446-.364-.67a104.809,104.809,0,0,1-7.006-16.033q-1.323-3.862-2.328-7.865c-.587-2.28-1.093-4.572-1.516-6.9A102.478,102.478,0,0,1,613,399.248c-.235-2.786-.341-5.619-.341-8.475a105.46,105.46,0,0,1,44.681-86.282q2.891-2.062,5.924-3.915a1.516,1.516,0,0,1,.294-.176q3.615-2.2,7.406-4.1c.211-.106.423-.212.646-.318,2.445-1.21,4.973-2.339,7.523-3.35h.012c2.057-.835,4.138-1.587,6.265-2.28a104.286,104.286,0,0,1,20-4.444c.587-.07,1.164-.141,1.74-.2,2.374-.258,4.784-.423,7.217-.505,1.3-.059,2.621-.082,3.938-.082.611,0,1.211.011,1.81.023h.4a107.568,107.568,0,0,1,10.92.788c2.01.247,4.021.552,5.984.928A105.664,105.664,0,0,1,823.94,390.773Z" fill="#21155c"/><circle cx="24.813" cy="24.813" r="24.813" transform="translate(759.253 288.229)" fill="#ccfff0"/><circle cx="22.893" cy="22.893" r="22.893" transform="translate(758.211 332.528) rotate(-82.005)" fill="none" stroke="#26d19e" stroke-miterlimit="10" stroke-width="1"/><path d="M779.28,313.8a1.1,1.1,0,0,1,1.167,1.114,4.661,4.661,0,0,1-.108.918,3.909,3.909,0,0,0-.108.756c0,1.254,1.589,1.686,2.928,1.686,1.524,0,3.1-.573,3.1-2.4,0-1.869-1.89-2.669-3.425-3.285-2-.811-4.3-1.837-4.3-5.025,0-2.117,1.783-3.523,3.707-3.987v-.951c0-.919.162-1.556,1.167-1.556.67,0,1.124.194,1.124.94,0,.389,0,.973-.012,1.48,1.675.26,3.794,1.2,3.794,3.156a1.144,1.144,0,0,1-1.168,1.221,1.329,1.329,0,0,1-1.3-1.124c-.432-.875-1.48-.983-2.388-.983-.962,0-2.507.605-2.507,1.88,0,1.567,1.588,2.313,3.231,3.069,2.053.919,4.5,2.129,4.5,5.155,0,2.733-2.086,4.257-4.355,4.646v1.339c0,.93-.173,1.579-1.167,1.579-.691,0-1.146-.206-1.146-.951,0-.443,0-1.276.023-1.945-2.194-.314-4.215-1.568-4.215-3.934C777.821,315.313,777.832,313.8,779.28,313.8Z" fill="#26d19e"/><circle cx="24.813" cy="24.813" r="24.813" transform="translate(621.495 302.335)" fill="#ccfff0"/><circle cx="22.893" cy="22.893" r="22.893" transform="translate(619.485 345.28) rotate(-79.059)" fill="none" stroke="#26d19e" stroke-miterlimit="10" stroke-width="1"/><path d="M641.521,327.906a1.1,1.1,0,0,1,1.167,1.114,4.665,4.665,0,0,1-.108.918,3.987,3.987,0,0,0-.108.756c0,1.254,1.589,1.686,2.929,1.686,1.523,0,3.1-.573,3.1-2.4,0-1.869-1.891-2.669-3.426-3.285-2-.811-4.3-1.837-4.3-5.025,0-2.117,1.783-3.523,3.706-3.987v-.951c0-.919.162-1.556,1.167-1.556.67,0,1.124.194,1.124.94,0,.389,0,.973-.011,1.48,1.675.26,3.793,1.2,3.793,3.156a1.143,1.143,0,0,1-1.167,1.221,1.33,1.33,0,0,1-1.3-1.124c-.432-.875-1.48-.983-2.388-.983-.962,0-2.507.6-2.507,1.88,0,1.567,1.589,2.312,3.231,3.069,2.053.919,4.495,2.129,4.495,5.155,0,2.733-2.086,4.257-4.354,4.646v1.339c0,.93-.173,1.579-1.167,1.579-.692,0-1.146-.206-1.146-.951,0-.443,0-1.276.022-1.945-2.194-.314-4.215-1.568-4.215-3.934C640.062,329.419,640.073,327.906,641.521,327.906Z" fill="#26d19e"/><g transform="translate(16 -4)"><path d="M816.891,376.066h-70.23a10.686,10.686,0,0,1-10.655-10.654h0a10.687,10.687,0,0,1,10.655-10.655h70.23a10.686,10.686,0,0,1,10.654,10.655h0A10.685,10.685,0,0,1,816.891,376.066Z" fill="#baa6f7"/><line y2="16.207" transform="translate(762.718 357.608)" fill="none" stroke="#faf0e3" stroke-linecap="round" stroke-linejoin="round" stroke-width="0.588"/><path d="M753.614,363.061a5.052,5.052,0,1,1-5.052-5.052A5.052,5.052,0,0,1,753.614,363.061Z" fill="none" stroke="#faf0e3" stroke-linecap="round" stroke-linejoin="round" stroke-width="0.588"/><line x2="3.101" y2="4.102" transform="translate(751.613 367.413)" fill="none" stroke="#faf0e3" stroke-linecap="round" stroke-linejoin="round" stroke-width="0.588"/></g><path d="M682.626,339.308l4.784,1.472-4.784,1.472-1.472,4.784-1.472-4.784L674.9,340.78l4.784-1.472,1.472-4.784Z" fill="#764cf0"/><path d="M762.26,339.308l4.784,1.472-4.784,1.472-1.472,4.784-1.472-4.784-4.784-1.472,4.784-1.472,1.472-4.784Z" fill="#764cf0"/><path d="M795.874,346.912l4.784,1.472-4.784,1.472-1.472,4.784-1.472-4.784-4.784-1.472,4.784-1.472,1.472-4.784Z" fill="#764cf0"/><path d="M784.127,374.523,788.911,376l-4.784,1.472-1.472,4.784-1.472-4.784L776.4,376l4.784-1.472,1.472-4.784Z" fill="#764cf0"/><path d="M631,363.061l4.784,1.472L631,366l-1.472,4.784L628.06,366l-4.784-1.472,4.784-1.472,1.472-4.784Z" fill="#764cf0"/><path d="M652.471,363.755l6.676,2.054-6.676,2.054-2.054,6.676-2.054-6.676-6.676-2.054,6.676-2.054,2.054-6.676Z" fill="#764cf0"/></g><path d="M785.2,460.31H763.29L704.04,489.9a19.511,19.511,0,0,1-21.88-3.06c-2.82.17-5.5.3-7.59.4h-.01a139.607,139.607,0,0,1-12.43-6.99,2.584,2.584,0,0,1-.31-.19l-.39-.24c-.5-.31-.99-.64-1.46-.96-2.32-1.52-4.56-3.15-6.75-4.86-.29-.23-.59-.46-.88-.7-1.96-1.56-3.85-3.19-5.7-4.92l-.4-7.04-.27-4.85-.47-8.18-2.05-36.08-1.38-24.36c1.69-2.12,3.43-4.13,5.19-6.04a.175.175,0,0,1,.05-.04,125.008,125.008,0,0,1,42.93-30.19l41.26,1.96s29.8,17.61,42.72,30.31c2.75,2.69,4.73,5.17,5.51,7.21,1.2,3.16,2.25,12.75,3.14,25.04.3,4.17.59,8.65.85,13.3.38,6.53.72,13.4,1.02,20.17.11,2.32.21,4.63.3,6.91.05,1.26.1,2.52.15,3.76A.075.075,0,0,0,785.2,460.31Z" fill="#fff"/><path d="M679.272,271.812c-1.75,7.016-.493,14.42,1.276,21.431s4.056,13.979,4.374,21.2c.149,3.411-.124,6.952,1.149,10.121,1.6,3.992,5.453,6.713,9.516,8.129a14.848,14.848,0,0,0,1.217-6.708c.021-9.743-.416-19.579-2.9-29S686.626,278.2,679.272,271.812Z" fill="#26d19e"/><path d="M731.957,336.3l-.035,1.281-.294,11.144-.129,4.831s-3.6,7.359-17.856,8.7-23.4-10.65-23.4-10.65a112.435,112.435,0,0,0,1.645-15.458c.153-7.347-2.4-15.752-2.4-15.752Z" fill="#ffe1c2"/><path d="M731.922,337.581l-.294,11.144a27.241,27.241,0,0,1-19.384-.929,30.684,30.684,0,0,1-15.693-16.245C708.577,333.643,720.4,333.867,731.922,337.581Z" fill="#0b0a10"/><path d="M740.4,340.339c-17.192,10.526-43.485,5.585-49.995-16.3a202.017,202.017,0,0,1-5.407-22.413c-.557-3.165-.866-5.634-1.057-7.39a35.161,35.161,0,0,1-.81-7.347,34.642,34.642,0,0,1,66.741-12.855c2.681,6.656,2.449,13.634,2.528,20.658.059,5.256.086,10.486-.331,15.736-.732,9.223-2.1,20.979-9.056,27.848A14.489,14.489,0,0,1,740.4,340.339Z" fill="#ffe1c2"/><path d="M678.9,297.66a8.712,8.712,0,0,0-6.633,4.283,11.959,11.959,0,0,0-1.376,7.925,15.049,15.049,0,0,0,12.293,12.249,7.738,7.738,0,0,0,4.585-.495,6.776,6.776,0,0,0,3.383-5.014,15.207,15.207,0,0,0-.528-6.211C689.164,304.63,686.308,297.126,678.9,297.66Z" fill="#ffe1c2"/><path d="M684.005,313.125a.393.393,0,0,0,.083-.034.376.376,0,0,0,.146-.511,26.4,26.4,0,0,0-2.563-4.026,9.026,9.026,0,0,0-3.889-2.9.376.376,0,1,0-.252.708,8.3,8.3,0,0,1,3.56,2.674,25.912,25.912,0,0,1,2.487,3.914A.376.376,0,0,0,684.005,313.125Z" fill="#0b0a10"/><path d="M732.536,299.028c1.472,5.693,2.726,11.682,1.666,17.422a1.184,1.184,0,0,1-1.63.894c-.868-.376-1.751-.766-2.586-1.111" fill="none" stroke="#0b0a10" stroke-linecap="round" stroke-linejoin="round" stroke-width="0.588"/><path d="M718.877,301.958a2.454,2.454,0,1,1-2.429-2.8A2.636,2.636,0,0,1,718.877,301.958Z" fill="#0b0a10"/><path d="M743.51,301.958a2.454,2.454,0,1,1-2.43-2.8A2.637,2.637,0,0,1,743.51,301.958Z" fill="#0b0a10"/><path d="M726.013,318.7a4.7,4.7,0,0,0,2.744,3.41,3.413,3.413,0,0,0,4.031-1.2" fill="none" stroke="#0b0a10" stroke-linecap="round" stroke-linejoin="round" stroke-width="0.588"/><path d="M712.145,291.069a6.974,6.974,0,0,0-2.009,2.222,2.639,2.639,0,0,0,.192,2.843,3.422,3.422,0,0,0,2.229.938,12.314,12.314,0,0,0,5.829-.707A3.793,3.793,0,0,0,721,293.947a3.239,3.239,0,0,0-1.305-2.965A5.887,5.887,0,0,0,712.145,291.069Z" fill="#26d19e"/><path d="M740.475,290.428a6.97,6.97,0,0,0-2.433,1.747,2.638,2.638,0,0,0-.413,2.819,3.419,3.419,0,0,0,1.98,1.388,12.315,12.315,0,0,0,5.847.54,3.793,3.793,0,0,0,3.07-1.81,3.236,3.236,0,0,0-.65-3.174A5.885,5.885,0,0,0,740.475,290.428Z" fill="#26d19e"/><path d="M684.974,299.49l3.04,5.606a12.98,12.98,0,0,0,5.075-4.447c6.315-8.379,8.966-19.794,6.015-29.93-1.071-3.681-2.939-7.264-5.977-9.527a17.1,17.1,0,0,0-9.139,2.947,10.845,10.845,0,0,0-3.477,3.6,12.41,12.41,0,0,0-1.237,4.1C677.818,281.211,680.473,291.191,684.974,299.49Z" fill="#26d19e"/><path d="M696.015,266.322A37.22,37.22,0,0,0,729.559,283.4c-.687-1.584-1.48-3.418-2.167-5,7.012,6.663,16.5,12.539,25.121,16.931.065.033,1.447-4.907,1.562-5.473a42.2,42.2,0,0,0,.806-6.254,36.02,36.02,0,0,0-16.717-33.077c-9.188-5.792-20.75-7.394-31.359-5.072a33.23,33.23,0,0,0-13.546,6.043,21.189,21.189,0,0,0-7.886,12.341C688.4,264.263,693.025,265.7,696.015,266.322Z" fill="#26d19e"/><path d="M712.3,460.25l-.03.06-.88,1.77-.03.06-1.14,2.27-.02.04c0,.01.01.03.01.04v.01c.7,3.59-4.02,6.91-4.02,6.91.01.06.01.12.02.17a.247.247,0,0,1,.01.12,3.249,3.249,0,0,1,.03.44v.14c0,3.97-3.71,6.28-3.71,6.28s-.3,4.05-2.7,6c-1.31,1.07-10.05,1.82-17.68,2.28-2.82.17-5.5.3-7.59.4h-.01c-2.58.11-4.28.17-4.28.17s-39.32,19.51-51.92,13.51c-9.41-4.48-8.79-32.2-7.87-45.97.31-4.68.66-7.75.66-7.75l34.35,1.11,2.87.09-.66,8.17-.37,4.59-.02.29,9.39-1.89,7.66-1.54,1.77-.36,2.79-.56,17.22,1.25,2.4.18,11.76.85,11.95.87A.03.03,0,0,1,712.3,460.25Z" fill="#ffe1c2"/><path d="M688.286,466.605s11.635.509,18.179-.78a7.049,7.049,0,0,0,4.928-3.743l1.3-2.58" fill="none" stroke="#0b0a10" stroke-linecap="round" stroke-linejoin="round" stroke-width="0.588"/><path d="M689.036,472.632c3.189.016,6.571.025,9.755-.15,5.211-.286,10.729-1.125,11.5-8.678" fill="none" stroke="#0b0a10" stroke-linecap="round" stroke-linejoin="round" stroke-width="0.588"/><path d="M689.186,478.635s10.43,1.126,13.281-.45a6.85,6.85,0,0,0,3.677-7.053" fill="none" stroke="#0b0a10" stroke-linecap="round" stroke-linejoin="round" stroke-width="0.588"/><path d="M647.669,381.469S615.655,408.68,604.851,454.7l55.073,2.4Z" fill="#fff"/><path d="M663.826,458.3S696.99,441.044,697.89,443.6s-13.055,16.057-13.055,16.057Z" fill="#ffe1c2"/><line y1="6.003" x2="35.215" transform="translate(630.061 458.101)" fill="none" stroke="#0b0a10" stroke-linecap="round" stroke-linejoin="round" stroke-width="0.588"/><path d="M700.032,460.306l-24.5-3.8H807.437l16.176,3.8S699.855,460.128,700.032,460.306Z" fill="#b7b8fb"/><path d="M700.032,460.306l-24.5-3.8H807.437l16.176,3.8S699.855,460.128,700.032,460.306Z" fill="#5e35d5"/><path d="M849.16,383.87,835.7,424.14l-12.09,36.17H700.03l.28-.93.86-2.88,21.73-72.63Z" fill="#a488f5"/><circle cx="9.304" cy="9.304" r="9.304" transform="translate(766.153 430.884) rotate(-80.806)" fill="#faf0e3"/><line x1="4.352" y2="44.569" transform="translate(647.319 416.884)" fill="none" stroke="#0b0a10" stroke-linecap="round" stroke-linejoin="round" stroke-width="0.588"/><path d="M24,0A24,24,0,1,1,0,24,24,24,0,0,1,24,0Z" transform="translate(616.868 378.78)" fill="#ffd41c"/><path d="M640.518,397.871s-7.495-9.073-12.1-2.762,12.36,21.039,12.36,21.039S640.32,398.068,640.518,397.871Z" fill="#fd5c6f"/><path d="M640.252,397.871s7.495-9.073,12.1-2.762-11.612,21.039-11.612,21.039S640.449,398.068,640.252,397.871Z" fill="#fd5c6f"/><path d="M677.8,373.95H741.2a6.081,6.081,0,0,1,6.081,6.082v13.2a6.081,6.081,0,0,1-6.081,6.082h-17.69l1.515,13.2-9.737-13.2H677.8a6.082,6.082,0,0,1-6.081-6.082v-13.2A6.082,6.082,0,0,1,677.8,373.95Z" fill="#faf0e3"/><path d="M696.615,386.271a2.87,2.87,0,1,1-2.87-2.87A2.87,2.87,0,0,1,696.615,386.271Z" fill="#baa6f7"/><path d="M707.245,386.271a2.87,2.87,0,1,1-2.87-2.87A2.87,2.87,0,0,1,707.245,386.271Z" fill="#baa6f7"/><path d="M717.874,386.271A2.87,2.87,0,1,1,715,383.4,2.87,2.87,0,0,1,717.874,386.271Z" fill="#baa6f7"/><path d="M728.5,386.271a2.87,2.87,0,1,1-2.87-2.87A2.87,2.87,0,0,1,728.5,386.271Z" fill="#baa6f7"/><path d="M751.656,480.717a24,24,0,1,0-18.7-30.239l-10.43-5.841,9.508,11.621A24,24,0,0,0,751.656,480.717Z" fill="#764cf0"/><path d="M741.919,444.778h5.914l-.485,13.282-3.005,8.628h24.431" fill="none" stroke="#faf0e3" stroke-linecap="round" stroke-linejoin="round" stroke-width="0.854"/><path d="M747.93,449.528h22.88L767.32,459.9H748.9Z" fill="none" stroke="#faf0e3" stroke-linecap="round" stroke-linejoin="round" stroke-width="0.854"/><circle cx="2.569" cy="2.569" r="2.569" transform="translate(746.766 466.882)" fill="none" stroke="#faf0e3" stroke-linecap="round" stroke-linejoin="round" stroke-width="0.854"/><path d="M766.253,469.451a2.569,2.569,0,1,1-2.569-2.569A2.57,2.57,0,0,1,766.253,469.451Z" fill="none" stroke="#faf0e3" stroke-linecap="round" stroke-linejoin="round" stroke-width="0.854"/><rect width="35.349" height="35.349" rx="8" transform="matrix(0.985, 0.174, -0.174, 0.985, 623.007, 251.491)" fill="#26d19e"/><circle cx="17.839" cy="17.839" r="17.839" transform="translate(791.166 229.713)" fill="#764cf0"/></g></g></svg>