<svg xmlns="http://www.w3.org/2000/svg" xmlns:xlink="http://www.w3.org/1999/xlink" width="85" height="85" viewBox="0 0 85 85"><defs><clipPath id="a"><rect width="67" height="67" transform="translate(189 4865)" fill="#ffd41c"/></clipPath></defs><g transform="translate(-180 -4856)"><rect width="85" height="85" transform="translate(180 4856)" fill="#26d19e"/><g clip-path="url(#a)"><g transform="translate(191.776 4865)"><path d="M58.075,9.317h-20.1v4.024h18L54.693,18.4A17.235,17.235,0,0,1,42,30.941l-4.024.447v4.05A21.273,21.273,0,0,0,58.593,19.391l1.8-7.1A2.39,2.39,0,0,0,58.075,9.317Zm0,0" fill="#f5b556"/><path d="M3.373,9.317h20.1v4.024h-18L6.756,18.4a17.233,17.233,0,0,0,12.7,12.538l4.024.447v4.05A21.272,21.272,0,0,1,2.855,19.391l-1.8-7.1A2.39,2.39,0,0,1,3.373,9.317Zm0,0" fill="#f5b556"/><path d="M33.749,37.017H27.7A24.575,24.575,0,0,1,20.887,54.9H40.56A24.575,24.575,0,0,1,33.749,37.017Zm0,0" fill="#fed066"/><path d="M33.749,37.017H30.724s-3.4,11.847,3.095,17.879h6.742A24.574,24.574,0,0,1,33.749,37.017Zm0,0" fill="#f5b556"/><path d="M14.086.981c0,6.915,0,13.842,0,13.934,0,14.008,9.4,21.971,14.071,25.062a4.656,4.656,0,0,0,5.137,0c4.669-3.091,14.071-11.054,14.071-25.062,0-.092,0-7.018,0-13.934Zm0,0" fill="#fed066"/><path d="M47.361.981h-6.8c0,6.915,0,13.842,0,13.934,0,13.218-8.371,21.053-13.238,24.492.291.205.57.4.833.57a4.656,4.656,0,0,0,5.137,0c4.669-3.091,14.071-11.054,14.071-25.062C47.363,14.823,47.362,7.9,47.361.981Zm0,0" fill="#f5b556"/><path d="M48.771,5.755H12.678A1.151,1.151,0,0,1,11.526,4.6V2.133A1.151,1.151,0,0,1,12.678.981H48.771a1.151,1.151,0,0,1,1.151,1.151V4.6A1.151,1.151,0,0,1,48.771,5.755Zm0,0" fill="#f5b556"/><path d="M48.771.981H43.134V5.755h5.637A1.151,1.151,0,0,0,49.922,4.6V2.133A1.151,1.151,0,0,0,48.771.981Zm0,0" fill="#e8a246"/><path d="M44.163,66.019H17.284a1.009,1.009,0,0,1-1.009-1.01V54.35a1.009,1.009,0,0,1,1.009-1.009H44.163a1.009,1.009,0,0,1,1.01,1.009V65.009A1.009,1.009,0,0,1,44.163,66.019Zm0,0" fill="#3c5666"/><path d="M44.163,53.341H38.385V66.019h5.778a1.009,1.009,0,0,0,1.01-1.01V54.35A1.009,1.009,0,0,0,44.163,53.341Zm0,0" fill="#194451"/><path d="M20.777,61.268V58.091a.249.249,0,0,1,.249-.249h19.4a.249.249,0,0,1,.25.249v3.176a.25.25,0,0,1-.25.25h-19.4A.249.249,0,0,1,20.777,61.268Zm0,0" fill="#f2f2f2"/><path d="M31.054,10.524l2.084,6.415a.347.347,0,0,0,.33.239h6.745a.347.347,0,0,1,.2.627L34.96,21.771a.346.346,0,0,0-.126.387l2.085,6.415a.347.347,0,0,1-.534.387L30.928,25a.346.346,0,0,0-.407,0l-5.457,3.965a.347.347,0,0,1-.534-.387l2.085-6.415a.346.346,0,0,0-.126-.387l-5.457-3.965a.347.347,0,0,1,.2-.627H27.98a.347.347,0,0,0,.33-.239l2.085-6.415A.346.346,0,0,1,31.054,10.524Zm0,0" fill="#f2f2f2"/><path d="M41.476,17.115a1.325,1.325,0,0,0-1.263-.918H33.929l-1.942-5.976a1.328,1.328,0,0,0-2.526,0L27.519,16.2H21.235a1.328,1.328,0,0,0-.78,2.4l5.084,3.694L23.6,28.27a1.328,1.328,0,0,0,2.044,1.485l5.083-3.694,5.084,3.694a1.329,1.329,0,0,0,2.044-1.486L35.91,22.294,40.994,18.6A1.325,1.325,0,0,0,41.476,17.115Zm-7.094,3.862a1.326,1.326,0,0,0-.482,1.484l1.481,4.558L31.5,24.2a1.324,1.324,0,0,0-1.561,0l-3.877,2.817,1.481-4.558a1.327,1.327,0,0,0-.483-1.485L23.188,18.16H27.98a1.325,1.325,0,0,0,1.263-.918l1.481-4.557L32.2,17.242a1.325,1.325,0,0,0,1.263.917h4.792Zm0,0"/><path d="M60.736,9.637a3.351,3.351,0,0,0-2.661-1.3H48.344v-1.6h.427A2.135,2.135,0,0,0,50.9,4.6V2.133A2.135,2.135,0,0,0,48.771,0H12.678a2.135,2.135,0,0,0-2.133,2.133V4.6a2.135,2.135,0,0,0,2.133,2.132H13.1v1.6H3.373A3.371,3.371,0,0,0,.1,12.535l1.8,7.1a22.252,22.252,0,0,0,20.3,16.75,35.67,35.67,0,0,0,4.442,3.746,24.15,24.15,0,0,1-4.868,12.231h-4.49a1.993,1.993,0,0,0-1.991,1.991V65.009A1.993,1.993,0,0,0,17.284,67H44.163a1.993,1.993,0,0,0,1.991-1.991V54.35a1.993,1.993,0,0,0-1.991-1.991h-4.49a24.152,24.152,0,0,1-4.868-12.231,35.669,35.669,0,0,0,4.441-3.746,22.254,22.254,0,0,0,20.3-16.75l1.8-7.1A3.35,3.35,0,0,0,60.736,9.637ZM48.344,14.915v-.593h6.369l-.972,3.838A16.31,16.31,0,0,1,44.875,28.9,29.11,29.11,0,0,0,48.344,14.915ZM16.573,28.9A16.308,16.308,0,0,1,7.707,18.161l-.973-3.838H13.1v.593A29.108,29.108,0,0,0,16.573,28.9Zm-5.86,1.042a20.141,20.141,0,0,1-6.907-10.79l-1.8-7.1A1.408,1.408,0,0,1,3.373,10.3H13.1V12.36H5.473a.982.982,0,0,0-.952,1.223L5.8,18.643A18.263,18.263,0,0,0,18.233,31.625q.166.242.336.483c.523.736,1.064,1.429,1.614,2.082A20.126,20.126,0,0,1,10.713,29.94Zm33.45,24.382a.028.028,0,0,1,.028.028V65.009a.028.028,0,0,1-.028.028H17.284a.028.028,0,0,1-.028-.028V54.35a.028.028,0,0,1,.028-.028Zm-6.917-1.963H24.2a26.2,26.2,0,0,0,4.28-11.1,5.578,5.578,0,0,0,4.486,0A26.208,26.208,0,0,0,37.246,52.359Zm.881-17.635-.036.036a33.6,33.6,0,0,1-5.341,4.4,3.665,3.665,0,0,1-4.053,0,33.578,33.578,0,0,1-5.341-4.4c-.011-.013-.023-.024-.036-.036a30.977,30.977,0,0,1-3.151-3.753,27.189,27.189,0,0,1-5.1-16.056V6.736h2.565a.981.981,0,0,0,0-1.963H12.678a.17.17,0,0,1-.17-.17V2.133a.17.17,0,0,1,.17-.17H48.771a.17.17,0,0,1,.17.17V4.6a.17.17,0,0,1-.17.169H22.2a.981.981,0,0,0,0,1.963H46.38v8.179a27.187,27.187,0,0,1-5.1,16.056A30.956,30.956,0,0,1,38.127,34.724ZM59.44,12.053l-1.8,7.1A20.3,20.3,0,0,1,41.265,34.19c.549-.653,1.09-1.345,1.613-2.082q.171-.24.336-.482A18.263,18.263,0,0,0,55.644,18.643l1.283-5.061a.982.982,0,0,0-.951-1.223H48.344V10.3h9.731a1.408,1.408,0,0,1,1.365,1.755Zm0,0"/><path d="M19.795,58.091v3.176A1.233,1.233,0,0,0,21.026,62.5h19.4a1.232,1.232,0,0,0,1.231-1.231V58.091a1.232,1.232,0,0,0-1.231-1.231H38.346a.981.981,0,0,0,0,1.963H39.69v1.712H21.757V58.823h12.02a.981.981,0,0,0,0-1.963H21.026A1.232,1.232,0,0,0,19.795,58.091Zm0,0"/></g></g></g></svg>