<svg xmlns="http://www.w3.org/2000/svg" xmlns:xlink="http://www.w3.org/1999/xlink" width="287.222" height="296.666" viewBox="0 0 287.222 296.666"><defs><clipPath id="a"><path d="M-61.249,415.536l-29.357,14.658-52.419,26.179-14.216,7.108-7.7,3.847-.144.072-60.947,30.437a20.07,20.07,0,0,1-22.507-3.148,19.867,19.867,0,0,1-4.4-5.843l-11.654-23.34-.422-.833-.226-.453-9.1-18.238-6.542-13.1-7.468-14.936-8.836-17.7-38.049-76.171a20.073,20.073,0,0,1,8.99-26.919l89.049-44.468,11.068-5.534,64.66-32.289a20.061,20.061,0,0,1,26.919,8.98l82.291,164.778A20.058,20.058,0,0,1-61.249,415.536Z" transform="translate(337.364 -212.736)" fill="none"/></clipPath></defs><g transform="translate(8806.222 6970)"><g transform="translate(-8468.854 -7182.736)"><path d="M-61.253,415.536-90.61,430.194l-14.267,7.128L-142.8,456.26l-.226.113-.473.237-13.743,6.871-7.7,3.847-.144.072-60.947,30.437a20.07,20.07,0,0,1-22.507-3.148,19.868,19.868,0,0,1-4.4-5.843l-2.746-5.493-1.481-2.973-.309-.617-.442-.895v-.01l-6.676-13.352-.422-.833-.226-.453-8.754-17.538-.35-.7-1.81-3.621-.463-.936-.782-1.574c-.01,0-.01,0-.01-.01l-1.913-3.827-1.492-2.983-.072-.154-1.059-2.119a1.04,1.04,0,0,0-.072-.154l-.761-1.5-2.458-4.937-3.117-6.223-4.022-8.054-.021-.041-4.793-9.607-1.656-3.322-8.733-17.466-27.66-55.382a20.073,20.073,0,0,1,8.99-26.919l42.154-21.046,32.916-16.448c.01-.01.021-.01.041-.021l7.5-3.744h.01l2.263-1.132,4.166-2.078,3.662-1.831,4.341-2.17,7.56-3.785h.01l5.637-2.808h.01l54.508-27.228a20.061,20.061,0,0,1,26.919,8.98l82.291,164.778A20.058,20.058,0,0,1-61.253,415.536Z" transform="translate(0 0)" fill="#ffd41c"/><g transform="translate(-337.363 212.736)"><g clip-path="url(#a)"><g transform="translate(29.409 23.907)"><g transform="translate(0 53.484)"><path d="M-90.988,396.875a108.342,108.342,0,0,1-12.775,51.2,109.192,109.192,0,0,1-36.979,40.234c-.226.154-.453.309-.688.442a108.311,108.311,0,0,1-58.451,17.016,108.223,108.223,0,0,1-57.9-16.667,2.658,2.658,0,0,1-.319-.2c-.143-.082-.277-.164-.41-.256-.5-.319-1.006-.647-1.5-.976q-3.573-2.372-6.953-5.021c-.3-.226-.606-.473-.9-.719a108.538,108.538,0,0,1-17.723-17.879,108.856,108.856,0,0,1-9.807-14.848c-.134-.226-.257-.463-.381-.7a108.4,108.4,0,0,1-7.219-16.523q-1.355-3.99-2.4-8.113c-.606-2.341-1.119-4.7-1.56-7.106a107.752,107.752,0,0,1-1.469-11.163c-.237-2.875-.349-5.791-.349-8.728a108.707,108.707,0,0,1,46.056-88.94q2.989-2.126,6.11-4.036a1.828,1.828,0,0,1,.3-.184q3.728-2.265,7.641-4.22c.216-.113.431-.226.657-.329,2.526-1.253,5.124-2.413,7.763-3.46h.01q3.172-1.279,6.449-2.341a106.48,106.48,0,0,1,20.621-4.581c.6-.082,1.191-.144,1.787-.206q3.681-.4,7.444-.524c1.345-.062,2.7-.081,4.057-.081.626,0,1.243.009,1.869.02h.41a110.006,110.006,0,0,1,11.254.812c2.075.257,4.139.575,6.172.956A108.915,108.915,0,0,1-90.988,396.875Z" transform="translate(308.773 -287.972)" fill="#21155c"/></g><g transform="translate(119.015)"><circle cx="25.221" cy="25.221" r="25.221" fill="#b7b8fb"/><g transform="translate(8.27 8.331)"><path d="M-172.19,254.129s-1.464-9.854.78-10.05,7.22,9.757,7.22,9.757l4.879.585-.878,19.9s-22.635.781-23.318-1.56a9.467,9.467,0,0,1-.2-4.391s-1.658-2.829-1.268-4.488a14.655,14.655,0,0,1,1.171-3.122,13.1,13.1,0,0,1-.781-4.879c.293-1.854,3.513-2.049,5.269-1.951S-172.19,254.129-172.19,254.129Z" transform="translate(185.032 -244.076)" fill="#faf0e3"/><path d="M-164.672,253.754l13.855.878-.39,19.514-13.6-.2" transform="translate(185.611 -243.799)" fill="none" stroke="#faf0e3" stroke-linecap="round" stroke-linejoin="round" stroke-width="0.279"/></g></g><g transform="translate(27.134 81.949)"><path d="M-259.517,348.46l5.063,1.558-5.063,1.557-1.557,5.063-1.557-5.063-5.063-1.557,5.063-1.558,1.557-5.063Z" transform="translate(282.815 -314.85)" fill="#764cf0"/><path d="M-276.428,367.012l3.694,1.136-3.694,1.136-1.136,3.694-1.136-3.694-3.694-1.136,3.694-1.136,1.136-3.694Z" transform="translate(282.394 -314.28)" fill="#764cf0"/><path d="M-114.386,386.893l3.694,1.136-3.694,1.136-1.136,3.694-1.136-3.694-3.694-1.136,3.694-1.136,1.136-3.694Z" transform="translate(287.035 -313.71)" fill="#764cf0"/><path d="M-99.595,402.746l4.119,1.267-4.119,1.267-1.267,4.119-1.267-4.119-4.119-1.267,4.119-1.267,1.267-4.119Z" transform="translate(287.439 -313.268)" fill="#764cf0"/><path d="M-182.576,319.764l4.119,1.267-4.119,1.267-1.267,4.119-1.267-4.119-4.119-1.267,4.119-1.267,1.267-4.119Z" transform="translate(285.062 -315.645)" fill="#764cf0"/><path d="M-108.408,419.36l5.055,1.555-5.055,1.555-1.555,5.055-1.555-5.055-5.055-1.555,5.055-1.555,1.555-5.055Z" transform="translate(287.143 -312.819)" fill="#764cf0"/></g></g></g></g><g transform="translate(-161.256 302.829)"><path d="M-78.858,308.318v74.541h-98V308.318a7.991,7.991,0,0,1,8-8h82A7.992,7.992,0,0,1-78.858,308.318Z" transform="translate(176.853 -300.321)" fill="#faf0e3"/><path d="M-78.858,308.318v7.162h-98v-7.162a7.991,7.991,0,0,1,8-8h82A7.992,7.992,0,0,1-78.858,308.318Z" transform="translate(176.853 -300.321)" fill="#ffe268"/><g transform="translate(69.527 5.634)"><circle cx="2.431" cy="2.431" r="2.431" fill="#f34919"/><circle cx="2.431" cy="2.431" r="2.431" transform="translate(7.778)" fill="#ffb3da"/><circle cx="2.431" cy="2.431" r="2.431" transform="translate(15.834)" fill="#b7b8fb"/></g><g transform="translate(8.851 20.86)"><path d="M-168.248,328.4v45.2H-84.4" transform="translate(168.248 -320.376)" fill="none" stroke="#0b0a10" stroke-linecap="round" stroke-linejoin="round" stroke-width="1.132"/><rect width="11.497" height="30.924" transform="translate(14.471 18.633)" fill="#ffd41c"/><rect width="11.497" height="36.87" transform="translate(37.465 12.687)" fill="#26d19e"/><rect width="11.497" height="42.421" transform="translate(61.252 7.136)" fill="#764cf0"/><g transform="translate(15.66)"><line y1="10.308" x2="45.989" transform="translate(0 1.784)" fill="none" stroke="#0b0a10" stroke-linecap="round" stroke-linejoin="round" stroke-width="1.132"/><path d="M-116.024,320.6l9.911,1.189-7.334,4.757" transform="translate(154.084 -320.6)" fill="none" stroke="#0b0a10" stroke-linecap="round" stroke-linejoin="round" stroke-width="1.132"/></g></g></g><g transform="translate(-314.789 311.104)"><path d="M-264.977,333.586a25.221,25.221,0,0,0-25.22-25.221,25.222,25.222,0,0,0-25.221,25.221,25.221,25.221,0,0,0,22.766,25.1l-4.043,11.9,10.192-12.047A25.224,25.224,0,0,0-264.977,333.586Z" transform="translate(315.418 -308.365)" fill="#764cf0"/><g transform="translate(7.914 15.132)"><rect width="35.448" height="20.107" fill="#faf0e3"/><path d="M-307.724,323.076l17.8,11.394,17.65-11.394" transform="translate(307.724 -323.076)" fill="none" stroke="#0b0a10" stroke-linecap="round" stroke-linejoin="round" stroke-width="0.284"/><line y1="10.5" x2="14.82" transform="translate(0 9.607)" fill="none" stroke="#0b0a10" stroke-linecap="round" stroke-linejoin="round" stroke-width="0.284"/><line x2="13.926" y2="10.947" transform="translate(21.522 9.16)" fill="none" stroke="#0b0a10" stroke-linecap="round" stroke-linejoin="round" stroke-width="0.284"/></g></g><g transform="translate(-335.742 241.828)"><g transform="translate(16.581)"><g transform="translate(0 99.698)"><g transform="translate(45.813)"><path d="M-106.66,433.737l-37.926,18.937-.226.113-.473.237-13.743,6.871-7.7,3.847-.144.072-60.947,30.437A20.07,20.07,0,0,1-250.33,491.1a19.868,19.868,0,0,1-4.4-5.843l-2.746-5.493c-.432.885-.885,1.78-1.368,2.674-.093.185-.2.37-.3.555l-.123-6.82-.134-7.509-.494-2.5-15.234-76.85c11.233-27.784,37.535-41.639,43.028-44.273.658-.319,1.018-.473,1.018-.473l20.85-2.9h.01l26.95-3.734s39.932,19.225,62.315,53.479C-113.953,402.158-109.488,417.587-106.66,433.737Z" transform="translate(275.13 -337.94)" fill="#f34919"/></g><g transform="translate(18.373 51.38)"><path d="M-249.113,458.681a124.605,124.605,0,0,1-7.6,19.657c-.432.885-.885,1.78-1.368,2.674-.093.185-.2.37-.3.555v.01c-.123.247-.257.483-.4.73v.01c-5.771,10.544-14.123,20.871-24.934,21.982-22.815,2.356-17.569-44.838-17.569-44.838s2.829-5.987,6.079-14.061c1.378-3.415,2.829-7.2,4.176-11.068.257-.73.5-1.471.751-2.212.761-2.253,1.471-4.526,2.1-6.738.062-.2.113-.4.175-.607.473-1.625.988-3.323,1.543-5.04.041-.113.072-.216.1-.319s.062-.185.093-.267c.072-.226.144-.453.226-.679,4.773-14.5,11.675-30.581,11.675-30.581l14.514,40.683.761,2.14v.01Z" transform="translate(301.806 -387.89)" fill="#f34919"/></g><g transform="translate(38.328 116.173)"><path d="M-267.889,479.393a.36.36,0,0,1-.356-.3c-1.929-11.833-13.966-27.472-14.087-27.628a.363.363,0,0,1,.065-.507.362.362,0,0,1,.507.064c.122.158,12.271,15.942,14.228,27.955a.362.362,0,0,1-.3.416A.564.564,0,0,1-267.889,479.393Z" transform="translate(282.407 -450.879)" fill="#0b0a10"/></g><g transform="translate(0 64.413)"><path d="M-274.553,438.392l-.863.288-.246.081-22.757,7.5L-319.131,409.9a4.115,4.115,0,0,1,2.865-6.079l18.012-3.184.072-.01c.123-.021.246-.041.369-.051a4.145,4.145,0,0,1,3.954,2.147Z" transform="translate(319.668 -400.559)" fill="#764cf0"/><g transform="translate(21.414 0.012)"><path d="M-276.012,438.68l-.246.081c-5.494-10.432-11.173-21.2-17.005-31.71a22.41,22.41,0,0,0-2.957-4.436,8.575,8.575,0,0,0-2.629-1.982l.072-.01c.123-.021.246-.041.369-.051a8.913,8.913,0,0,1,2.382,1.869,22.653,22.653,0,0,1,2.978,4.488C-287.215,417.474-281.516,428.236-276.012,438.68Z" transform="translate(298.85 -400.571)" fill="#faf0e3"/></g><g transform="translate(14.736 4.135)"><path d="M-298.047,404.806a1.342,1.342,0,0,0-.987-.206l-5.236.977a1.307,1.307,0,0,0-1.049,1.522,1.279,1.279,0,0,0,.545.844,1.306,1.306,0,0,0,.741.226,1,1,0,0,0,.247-.021l5.236-.977a1.329,1.329,0,0,0,.843-.545,1.317,1.317,0,0,0,.206-.977A1.279,1.279,0,0,0-298.047,404.806Zm.123,1.677a1.09,1.09,0,0,1-.679.442l-5.236.977a1.039,1.039,0,0,1-.792-.175,1.028,1.028,0,0,1-.432-.669,1.054,1.054,0,0,1,.833-1.234l5.246-.977a1.182,1.182,0,0,1,.2-.01,1.016,1.016,0,0,1,.586.185,1,1,0,0,1,.442.669A1.079,1.079,0,0,1-297.923,406.483Z" transform="translate(305.342 -404.579)" fill="#faf0e3"/></g></g><g transform="translate(5.523 76.54)"><path d="M-300.928,458.767a72.9,72.9,0,0,0-.918-10.881c-.918-5.244-5.244-11.667-5.769-12.978s-7.734-8.521-6.554-12.061,7.6-11.667,9.963-10.356-3.016,12.454-3.016,12.454l3.234,4.021s5.419-2.709,8.958-3.365,17.042-4.064,17.435-1.574S-296.6,434.253-296.6,434.253l.787,1.18s24.646-9.046,26.088-6.292-16.78,11.4-16.78,11.4,14.551-6.685,15.731-4.719-10.619,10.488-10.619,10.488,1.442,9.963-2.753,13.371S-298.306,461.914-300.928,458.767Z" transform="translate(314.299 -412.349)" fill="#ffe1c2"/></g><g transform="translate(59.957 73.311)"><path d="M-259.24,480.4c-.093.185-.2.37-.3.555v.01c-.123.247-.257.483-.4.73l-.165-8.455v-.01l-.185-9.1-.72-36.167-.37-18.382a.36.36,0,0,1,.36-.37.364.364,0,0,1,.37.35l.4,20.542v.01l.895,44.643Z" transform="translate(261.38 -409.21)" fill="#0b0a10"/></g><g transform="translate(172.171 73.309)"><path d="M-148.1,450.633l-.226.113-.473.237L-152.29,409.6a.373.373,0,0,1,.329-.391.354.354,0,0,1,.391.329Z" transform="translate(152.29 -409.208)" fill="#0b0a10"/></g></g><g transform="translate(34.625 1.557)"><path d="M-231.737,245.271c-8.352-2-16.281-4.779-25.844-.445-7.136,3.233-10.79,9.584-11.006,17.326-6.315-.537-12.612,3.831-15.614,9.413a15.975,15.975,0,0,0,2,17.74c3.486,3.907,8.819,5.771,14.045,6.087s10.427-.75,15.541-1.875c1.468-.323,2.579-1.762,3.578-2.885a116.6,116.6,0,0,0,15.054-21.366,42.215,42.215,0,0,0,4.573-11.184C-228.547,254.132-230.011,248.926-231.737,245.271Z" transform="translate(286.007 -242.532)" fill="#26d19e"/></g><g transform="translate(84.791)"><path d="M-237.237,248.817a19.2,19.2,0,0,1,17.552-7.667,19.2,19.2,0,0,1,15.168,11.694c6.08-1.845,13.182,1.579,16.315,7.107s2.761,12.613-.032,18.32a19.39,19.39,0,0,1,6.061,14.664,30.118,30.118,0,0,1-17.884,26.531C-209.766,295.511-222.762,270.231-237.237,248.817Z" transform="translate(237.237 -241.018)" fill="#26d19e"/></g><g transform="translate(84.968 67.182)"><path d="M-184.364,338.842s-7.61,23.855-30.161,19.4c0,0-10.679-1.4-17.179-9.653a18.98,18.98,0,0,1-1.171-1.622l-1.15-3.656-3.041-9.714,37.749-27.265Z" transform="translate(237.065 -306.33)" fill="#ffe1c2"/><g transform="translate(3.041 9.972)"><path d="M-207.471,336.685c-3.266,6.275-9.15,11.348-16.082,12.785a12.673,12.673,0,0,1-5.124.134,9.1,9.1,0,0,1-3.112-1.294,18.98,18.98,0,0,1-1.171-1.622l-1.15-3.656c8.934-9.982,18.094-20.785,29.882-27.008C-203.385,323.049-204.206,330.4-207.471,336.685Z" transform="translate(234.109 -316.024)" fill="#0b0a10"/></g></g><g transform="translate(52.614 12.052)"><path d="M-241.639,344.364c19.289,5.53,43.2-6.2,43.628-28.922a201.032,201.032,0,0,0-.767-22.938c-.307-3.185-.667-5.634-.949-7.37a34.975,34.975,0,0,0-1.175-7.263,34.352,34.352,0,0,0-42.3-23.886,34.378,34.378,0,0,0-18.21,12.224,34.463,34.463,0,0,0-6.925,17.061c-.8,7.1,1.272,13.73,3.063,20.488,1.339,5.058,2.7,10.083,4.5,15.008,3.152,8.653,7.591,19.566,16.085,24.308A14.385,14.385,0,0,0-241.639,344.364Z" transform="translate(268.519 -252.734)" fill="#ffe1c2"/><g transform="translate(18.51 46.59)"><path d="M-244.842,320.717a.361.361,0,0,1-.146-.031.362.362,0,0,1-.2-.243c-1.808-7.281-3.6-14.674-5.322-21.973a.361.361,0,0,1,.268-.435.364.364,0,0,1,.434.268c1.687,7.144,3.438,14.377,5.208,21.508a17.575,17.575,0,0,0,4.011-3.141.363.363,0,0,1,.511-.011.363.363,0,0,1,.012.511,18.316,18.316,0,0,1-4.6,3.5A.356.356,0,0,1-244.842,320.717Z" transform="translate(250.525 -298.027)" fill="#0b0a10"/><g transform="translate(9.686 21.663)"><path d="M-238.19,323.57a4.337,4.337,0,0,1-2.816-1.532.362.362,0,0,1,.007-.511.361.361,0,0,1,.51.006c1.141,1.168,2.074,1.542,2.935,1.183,1.136-.477,1.245-1.878,1.258-3.272a.376.376,0,0,1,.365-.357.362.362,0,0,1,.358.365c-.012,1.208-.033,3.229-1.7,3.929A2.345,2.345,0,0,1-238.19,323.57Z" transform="translate(241.108 -319.087)" fill="#0b0a10"/></g></g><g transform="translate(2.726 37.113)"><g transform="translate(7.131 14.669)"><path d="M-254.578,305a2.4,2.4,0,0,1-1.432,3.05,2.4,2.4,0,0,1-2.816-1.851,2.4,2.4,0,0,1,1.432-3.05A2.4,2.4,0,0,1-254.578,305Z" transform="translate(258.936 -303.074)" fill="#0b0a10"/></g><g transform="translate(27.844 6.934)"><path d="M-234.442,297.479a2.394,2.394,0,0,1-1.432,3.05,2.4,2.4,0,0,1-2.816-1.851,2.4,2.4,0,0,1,1.432-3.051A2.4,2.4,0,0,1-234.442,297.479Z" transform="translate(238.8 -295.554)" fill="#0b0a10"/></g><g transform="translate(0 3.277)"><path d="M-265.656,296.506a1.942,1.942,0,0,0,.016,1.794,1.985,1.985,0,0,0,1.8.583,10.127,10.127,0,0,0,2.371-.5,7.313,7.313,0,0,0,4.2-2.894,2.316,2.316,0,0,0,.1-2.571,2.17,2.17,0,0,0-.772-.57C-260.827,290.979-264.645,293.874-265.656,296.506Z" transform="translate(265.869 -291.999)" fill="#26d19e"/></g><g transform="translate(23.073)"><path d="M-243.226,293.32a1.937,1.937,0,0,0,.017,1.793,1.98,1.98,0,0,0,1.8.584,10.129,10.129,0,0,0,2.371-.5,7.315,7.315,0,0,0,4.2-2.894,2.319,2.319,0,0,0,.1-2.571,2.173,2.173,0,0,0-.774-.57C-238.4,287.793-242.215,290.688-243.226,293.32Z" transform="translate(243.439 -288.813)" fill="#26d19e"/></g></g><g transform="translate(62.206 29.953)"><path d="M-199.872,282a9,9,0,0,1,7.784,2.435,12.344,12.344,0,0,1,3.554,7.51A15.545,15.545,0,0,1-197.4,307.53a8,8,0,0,1-4.7.771,7,7,0,0,1-4.75-4.06,15.7,15.7,0,0,1-1.186-6.328C-208.167,291.77-207.394,283.513-199.872,282Z" transform="translate(208.045 -281.853)" fill="#ffe1c2"/><g transform="translate(6.965 7.723)"><path d="M-200.884,298.589a.348.348,0,0,1-.092-.011.388.388,0,0,1-.287-.468,27.29,27.29,0,0,1,1.442-4.714,9.322,9.322,0,0,1,3.07-3.964.389.389,0,0,1,.541.1.388.388,0,0,1-.095.54,8.553,8.553,0,0,0-2.807,3.643,26.877,26.877,0,0,0-1.4,4.582A.387.387,0,0,1-200.884,298.589Z" transform="translate(201.274 -289.361)" fill="#0b0a10"/></g></g></g><g transform="translate(74.782 2.681)"><path d="M-232.04,244.488a30.251,30.251,0,0,0-10.6,7.634,17.186,17.186,0,0,0-4.29,12.1,8.7,8.7,0,0,0,2.837,6.185c2.678,2.167,6.828,1.683,9.588-.38a26.648,26.648,0,0,0-.287,9.52c.616,3.136,2.631,6.2,5.688,7.138a8.36,8.36,0,0,0,6.667-1.071,15.818,15.818,0,0,0,4.8-4.958,14.542,14.542,0,0,0,2.258,8.788,9.359,9.359,0,0,0,7.8,4.356,9.523,9.523,0,0,0,3.712-.947c5.956-2.788,8.763-10.108,8-16.639s-4.4-12.365-8.449-17.548a48.626,48.626,0,0,0-11.334-11.044C-220.087,244.716-227.234,242.259-232.04,244.488Z" transform="translate(246.968 -243.624)" fill="#26d19e"/></g></g><g transform="translate(0 137.618)"><path d="M-331.6,374.8h43.689A4.191,4.191,0,0,1-283.716,379v9.1a4.191,4.191,0,0,1-4.191,4.191H-300.1l1.043,9.094-6.709-9.094H-331.6a4.191,4.191,0,0,1-4.191-4.191V379A4.191,4.191,0,0,1-331.6,374.8Z" transform="translate(335.787 -374.805)" fill="#faf0e3"/><g transform="translate(13.203 6.512)"><path d="M-319,383.113a1.977,1.977,0,0,1-1.977,1.978,1.978,1.978,0,0,1-1.978-1.978,1.978,1.978,0,0,1,1.978-1.977A1.977,1.977,0,0,1-319,383.113Z" transform="translate(322.952 -381.136)" fill="#a488f5"/><path d="M-311.876,383.113a1.978,1.978,0,0,1-1.978,1.978,1.977,1.977,0,0,1-1.977-1.978,1.977,1.977,0,0,1,1.977-1.977A1.978,1.978,0,0,1-311.876,383.113Z" transform="translate(323.156 -381.136)" fill="#a488f5"/><path d="M-304.756,383.113a1.978,1.978,0,0,1-1.978,1.978,1.978,1.978,0,0,1-1.977-1.978,1.978,1.978,0,0,1,1.977-1.977A1.978,1.978,0,0,1-304.756,383.113Z" transform="translate(323.36 -381.136)" fill="#a488f5"/><path d="M-297.636,383.113a1.978,1.978,0,0,1-1.977,1.978,1.978,1.978,0,0,1-1.978-1.978,1.978,1.978,0,0,1,1.978-1.977A1.978,1.978,0,0,1-297.636,383.113Z" transform="translate(323.564 -381.136)" fill="#a488f5"/></g></g></g><rect width="35.349" height="35.349" rx="8" transform="matrix(0.985, 0.174, -0.174, 0.985, -181.43, 449.735)" fill="#26d19e"/><circle cx="17.839" cy="17.839" r="17.839" transform="translate(-125.569 257.957)" fill="#764cf0"/></g></g></svg>