<svg xmlns="http://www.w3.org/2000/svg" xmlns:xlink="http://www.w3.org/1999/xlink" width="85" height="85" viewBox="0 0 85 85"><defs><clipPath id="a"><rect width="67" height="67" transform="translate(189 4865)" fill="#ffd41c"/></clipPath></defs><g transform="translate(-1125 -7822.338)"><rect width="85" height="85" transform="translate(1125 7822.338)" fill="#764cf0"/><g transform="translate(945 2966.338)" clip-path="url(#a)"><g transform="translate(189 4865)"><path d="M61.756,5.1H5.245A3.933,3.933,0,0,0,1.311,9.034V45.641a3.933,3.933,0,0,0,3.934,3.934H61.756a3.933,3.933,0,0,0,3.934-3.934V9.034A3.933,3.933,0,0,0,61.756,5.1ZM59.71,41.687a1.673,1.673,0,0,1-1.673,1.673H8.963A1.673,1.673,0,0,1,7.29,41.687v-28.7a1.673,1.673,0,0,1,1.673-1.673H58.037a1.673,1.673,0,0,1,1.673,1.673Z" fill="#ccf5fc"/><path d="M7.291,41.691V12.985A1.669,1.669,0,0,1,8.96,11.316H58.041a1.669,1.669,0,0,1,1.669,1.669V41.691a1.669,1.669,0,0,1-1.669,1.669H8.96a1.669,1.669,0,0,1-1.669-1.669Z" fill="#fffbdf"/><path d="M41.523,61.9H25.478a2.617,2.617,0,0,1-2.617-2.617v-.01a2.617,2.617,0,0,1,2.617-2.617H41.523a2.617,2.617,0,0,1,2.617,2.617v.01A2.617,2.617,0,0,1,41.523,61.9Z" fill="#66e0f7"/><path d="M27.969,49.575l-2.046,7.081H41.077l-2.046-7.081Z" fill="#66e0f7"/><path d="M22.63,24.576H15.57a1.963,1.963,0,0,1-1.963-1.963V18.257a1.963,1.963,0,0,1,1.963-1.963h7.06a1.963,1.963,0,0,1,1.963,1.963v4.356A1.963,1.963,0,0,1,22.63,24.576Z" fill="#ff9eb1"/><path d="M42.981,26.338l2.579,9.625,1.669-1.669,4.426,4.426,3.709-3.709-4.426-4.426,1.669-1.669Z" fill="#ecf3f3"/><circle cx="4.141" cy="4.141" r="4.141" transform="translate(14.959 29.176)" fill="#d1aee4"/><circle cx="1.309" cy="1.309" r="1.309" transform="translate(32.192 42.288)"/><path d="M61.756,3.789H5.245A5.251,5.251,0,0,0,0,9.033V45.642a5.251,5.251,0,0,0,5.245,5.245H26.292L24.825,55.4a3.933,3.933,0,0,0,.658,7.811H41.518a3.933,3.933,0,0,0,.658-7.811l-1.468-4.514H61.755A5.251,5.251,0,0,0,67,45.642V9.033A5.25,5.25,0,0,0,61.756,3.789ZM42.829,59.278a1.313,1.313,0,0,1-1.311,1.311H25.483a1.311,1.311,0,1,1,0-2.622H41.518A1.313,1.313,0,0,1,42.829,59.278ZM39.4,55.345H27.6l1.449-4.458h8.9Zm24.978-9.7a2.625,2.625,0,0,1-2.622,2.622H5.245a2.625,2.625,0,0,1-2.622-2.622V9.033A2.625,2.625,0,0,1,5.245,6.411H61.756a2.625,2.625,0,0,1,2.622,2.622V45.642Z"/><path d="M57.743,9.768H9.257A3.282,3.282,0,0,0,5.98,13.046V41.629a3.282,3.282,0,0,0,3.278,3.278H27.623a1.311,1.311,0,1,0,0-2.622H9.257a.656.656,0,0,1-.656-.656V13.046a.656.656,0,0,1,.656-.656H57.743a.656.656,0,0,1,.656.656V41.629a.656.656,0,0,1-.656.656H39.377a1.311,1.311,0,1,0,0,2.622H57.743a3.282,3.282,0,0,0,3.278-3.278V13.046a3.282,3.282,0,0,0-3.278-3.278Z"/><path d="M25.9,22.609V18.261a3.282,3.282,0,0,0-3.278-3.278H15.574A3.282,3.282,0,0,0,12.3,18.261v4.348a3.282,3.282,0,0,0,3.278,3.278h7.052A3.282,3.282,0,0,0,25.9,22.609Zm-2.622,0a.656.656,0,0,1-.656.656H15.574a.656.656,0,0,1-.656-.656V18.261a.656.656,0,0,1,.656-.656h7.052a.656.656,0,0,1,.656.656Z"/><path d="M53.873,28.578a1.311,1.311,0,0,0-.927-.927L43.32,25.072a1.311,1.311,0,0,0-1.606,1.606L44.294,36.3a1.311,1.311,0,0,0,2.194.588l.742-.742,3.5,3.5a1.311,1.311,0,0,0,1.854,0l3.709-3.709a1.311,1.311,0,0,0,0-1.854l-3.5-3.5.742-.742a1.311,1.311,0,0,0,.339-1.267Zm-.363,6.434-1.854,1.854-3.5-3.5a1.311,1.311,0,0,0-1.854,0l-.063.063-1.4-5.238,5.238,1.4-.063.063a1.311,1.311,0,0,0,0,1.854Z"/><path d="M29.067,19.124h8.087a1.311,1.311,0,0,0,0-2.622H29.067a1.311,1.311,0,1,0,0,2.622Z"/><path d="M29.067,24.368h8.087a1.311,1.311,0,0,0,0-2.622H29.067a1.311,1.311,0,0,0,0,2.622Z"/><path d="M29.067,31.877h8.087a1.311,1.311,0,0,0,0-2.622H29.067a1.311,1.311,0,0,0,0,2.622Z"/><path d="M38.466,35.81A1.311,1.311,0,0,0,37.155,34.5H29.067a1.311,1.311,0,1,0,0,2.622h8.087A1.311,1.311,0,0,0,38.466,35.81Z"/><path d="M13.648,33.317A5.452,5.452,0,1,0,19.1,27.865a5.458,5.458,0,0,0-5.452,5.452Zm8.282,0a2.83,2.83,0,1,1-2.83-2.83,2.833,2.833,0,0,1,2.83,2.83Z"/></g></g></g></svg>