<svg xmlns="http://www.w3.org/2000/svg" xmlns:xlink="http://www.w3.org/1999/xlink" width="85" height="85" viewBox="0 0 85 85"><defs><clipPath id="a"><rect width="55" height="55" transform="translate(195 6554)" fill="#26d19e"/></clipPath></defs><g transform="translate(-180 -6539)"><rect width="85" height="85" transform="translate(180 6539)" fill="#fff"/><g clip-path="url(#a)"><g transform="translate(193.167 6552.167)"><path d="M53.167,20.167a2.744,2.744,0,0,1,2.75,2.75v30.25a2.744,2.744,0,0,1-2.75,2.75H5.958a3.243,3.243,0,0,1-3.186-2.979c0-11.972-.021-20.854-.021-32.771" fill="#e4eff8"/><path d="M55.917,53.167a2.744,2.744,0,0,1-2.75,2.75H5.959a3.351,3.351,0,0,1-3-2.073,3.053,3.053,0,0,0,1.162.24H51.333a2.744,2.744,0,0,0,2.75-2.75V21.07a2.727,2.727,0,0,0-.127-.789,2.735,2.735,0,0,1,1.96,2.623Z" fill="#c4dcf0"/><path d="M2.75,17.417a3.667,3.667,0,0,1,7.333,0V46.75a2.744,2.744,0,0,1-2.75,2.75H5.958A3.2,3.2,0,0,0,2.75,52.708Z" fill="#549ad4"/><path d="M10.083,46.75a2.744,2.744,0,0,1-2.75,2.75H5.958A3.2,3.2,0,0,0,2.75,52.709V47.984a3.193,3.193,0,0,1,1.375-.317H5.5a2.744,2.744,0,0,0,2.75-2.75V15.576a3.657,3.657,0,0,0-.328-1.506,3.653,3.653,0,0,1,2.161,3.339Z" fill="#3588cb"/><path d="M37.583,38.5a1.833,1.833,0,1,1-1.833-1.833A1.833,1.833,0,0,1,37.583,38.5Z" fill="#ff5151"/><path d="M35.75,13.75a11,11,0,1,1-11-11,11,11,0,0,1,11,11Z" fill="#ffca28"/><path d="M24.75,2.75a11,11,0,0,0-8.61,4.173A10.99,10.99,0,0,1,31.527,22.41,11,11,0,0,0,24.75,2.75Z" fill="#ecb200"/><path d="M26.583,31.167a1.833,1.833,0,1,1-1.833-1.833A1.833,1.833,0,0,1,26.583,31.167Z" fill="#ff5151"/><path d="M44.917,25.667h3.667a.915.915,0,0,1,.917.917v2.75a.915.915,0,0,1-.917.917H44.917A.915.915,0,0,1,44,29.333v-2.75A.915.915,0,0,1,44.917,25.667Z" fill="#549ad4"/><path d="M44.917,25.667a.915.915,0,0,0-.917.917v2.75a.915.915,0,0,0,.917.917h3.667a.915.915,0,0,0,.917-.917v-.917H46.75a.915.915,0,0,1-.917-.917V25.667Z" fill="#3588cb"/><path d="M46.75,9.07l9.167,4.583L46.75,17.32" fill="#ff5151"/><path d="M46.75,9.07v8.25l1.833-.734v-6.6Z" fill="#ff2929"/><path d="M35.156,36.774a1.829,1.829,0,1,0,2.392,2.077,1.821,1.821,0,0,1-2.392-2.077Z" fill="#ff2929"/><path d="M24.156,29.441a1.829,1.829,0,1,0,2.392,2.077,1.821,1.821,0,0,1-2.392-2.077Z" fill="#ff2929"/><path d="M12.833,13.75a11.827,11.827,0,0,0,1.348,5.5H11V17.419a4.585,4.585,0,0,0-9.17,0V52.707a4.118,4.118,0,0,0,4.129,4.127h47.2a3.665,3.665,0,0,0,3.667-3.667V22.918a3.658,3.658,0,0,0-3.667-3.667h-5.5V17.939L56.259,14.5a.917.917,0,0,0,.068-1.665L47.665,8.5V8.248a.917.917,0,1,0-1.833,0v11H35.313a11.914,11.914,0,1,0-22.48-5.5Zm33.9-11.917a.917.917,0,0,0-.906.927v.92a.917.917,0,0,0,1.833,0v-.92a.916.916,0,0,0-.927-.927ZM24.754,3.669A10.082,10.082,0,1,1,14.667,13.75,10.085,10.085,0,0,1,24.754,3.669ZM41.785,5.541l.648.65a.918.918,0,0,0,1.3-1.3l-.65-.65a.873.873,0,0,0-.64-.267A.916.916,0,0,0,41.785,5.541Zm8.64-1.3-.65.65a.918.918,0,0,0,1.3,1.3l.65-.65a.918.918,0,0,0-.68-1.565.88.88,0,0,0-.619.267ZM23.832,7.335V13.75a.917.917,0,0,0,.272.65l2.746,2.746a.917.917,0,0,0,1.3-1.293l-2.483-2.483V7.335a.917.917,0,0,0-1.835,0Zm23.833,3.221,6.016,3-6.016,2.406ZM6.415,14.663a2.752,2.752,0,0,1,2.754,2.755V46.752a1.835,1.835,0,0,1-1.833,1.833H5.962a4.12,4.12,0,0,0-2.293.686V17.419a2.746,2.746,0,0,1,2.746-2.755ZM11,21.085h4.354a11.92,11.92,0,0,0,18.786,0H45.832v3.668h-.913a1.828,1.828,0,0,0-1.835,1.833v2.746a.919.919,0,1,0,0,1.835h1.783l-7.244,5.319a2.744,2.744,0,0,0-3.7-.041l-6.49-4.682a2.689,2.689,0,0,0,.07-.6,2.751,2.751,0,1,0-5.5,0,2.665,2.665,0,0,0,.1.68l-8.909,6.843a.917.917,0,1,0,1.124,1.448l8.8-6.764a2.757,2.757,0,0,0,3.341-.05l6.58,4.743A3,3,0,0,0,33,38.5a2.751,2.751,0,0,0,5.5,0,2.572,2.572,0,0,0-.028-.367l9.487-6.968h2.455a.918.918,0,0,0,0-1.835V26.587a1.836,1.836,0,0,0-1.833-1.833h-.92V21.085h5.5A1.823,1.823,0,0,1,55,22.918V53.167A1.827,1.827,0,0,1,53.167,55H5.962a2.291,2.291,0,1,1,0-4.582H7.336A3.667,3.667,0,0,0,11,46.752ZM33.915,26.58a.921.921,0,0,0-.65,1.57l.729.725-.729.729a.917.917,0,0,0,1.3,1.293l.725-.725.729.725A.914.914,0,1,0,37.311,29.6l-.725-.729.725-.725a.916.916,0,0,0-.655-1.57.926.926,0,0,0-.637.27l-.729.729-.725-.729a.894.894,0,0,0-.65-.27Zm11,.007h3.667v2.746H44.919Zm-20.165,3.66a.92.92,0,0,1,.913.922.91.91,0,0,1-.913.913.918.918,0,1,1,0-1.835Zm22.918,5.5a.915.915,0,0,0-.657,1.563l.729.729-.729.727a.919.919,0,1,0,1.3,1.3l.725-.729.729.729a.917.917,0,0,0,1.293-1.3l-.72-.727.727-.729a.916.916,0,0,0-.677-1.563.892.892,0,0,0-.623.27l-.729.727-.725-.727a.878.878,0,0,0-.643-.27ZM35.748,37.582a.918.918,0,1,1-.913.922A.92.92,0,0,1,35.748,37.582ZM18.325,41.243a.916.916,0,0,0-.5.156l-2.746,1.833a.918.918,0,1,0,1.015,1.531l2.24-1.5,2.247,1.5a.917.917,0,0,0,1.013,0l2.24-1.5,2.242,1.5a.917.917,0,0,0,1.021,0l2.24-1.5,2.24,1.5a.918.918,0,1,0,1.015-1.531L29.842,41.4a.917.917,0,0,0-1.015,0l-2.24,1.495L24.34,41.4a.917.917,0,0,0-1.015,0l-2.24,1.495L18.838,41.4a.917.917,0,0,0-.514-.156ZM41.25,44.917a.917.917,0,1,0,0,1.833h.917a.917.917,0,1,0,0-1.833Zm4.583,0a.917.917,0,1,0,0,1.833h.917a.917.917,0,1,0,0-1.833Zm4.583,0a.917.917,0,1,0,0,1.833h.917a.917.917,0,1,0,0-1.833Zm-32.092.915a.916.916,0,0,0-.5.156l-2.746,1.826a.918.918,0,1,0,1.015,1.529l2.24-1.495,2.247,1.495a.917.917,0,0,0,1.013,0l2.24-1.495,2.242,1.495a.917.917,0,0,0,1.021,0l2.24-1.495,2.24,1.495a.918.918,0,1,0,1.015-1.529l-2.746-1.826a.917.917,0,0,0-1.015,0l-2.24,1.488L24.34,45.987a.917.917,0,0,0-1.015,0l-2.24,1.488-2.247-1.488a.917.917,0,0,0-.514-.156Z"/></g></g></g></svg>