<svg xmlns="http://www.w3.org/2000/svg" xmlns:xlink="http://www.w3.org/1999/xlink" width="85" height="85" viewBox="0 0 85 85"><defs><clipPath id="a"><rect width="67" height="67" transform="translate(189 4865)" fill="#ffd41c"/></clipPath></defs><g transform="translate(-1125 -7937.338)"><rect width="85" height="85" transform="translate(1125 7937.338)" fill="#764cf0"/><g transform="translate(945 3081.338)" clip-path="url(#a)"><g transform="translate(189 4865)"><path d="M25.177,64.734a48.235,48.235,0,0,1,16.645,0Q37.017,59.2,39.156,53.668H27.844Q29.985,59.2,25.177,64.734Z" fill="#738b95"/><path d="M27.844,53.668a9.513,9.513,0,0,1,.645,2.932H38.511a9.51,9.51,0,0,1,.645-2.932Z" fill="#617881"/><path d="M61.074,16.316l-42.332-1.2H8.9a1.027,1.027,0,0,0-.274.037L4.484,16.292l-3.5,3.517V52.278a1.391,1.391,0,0,0,1.391,1.391H64.628a1.391,1.391,0,0,0,1.391-1.391V19.809Z" fill="#f9f6f9"/><path d="M61.074,16.316h-3.6l4.945,3.493V52.278a1.391,1.391,0,0,1-1.391,1.391h3.6a1.391,1.391,0,0,0,1.391-1.391V19.809Z" fill="#dddaec"/><path d="M.981,14.166v5.643h6.1a1.031,1.031,0,0,0,.951-.634l.455-1.09a1.031,1.031,0,0,1,.951-.634h8.613a1.031,1.031,0,0,1,.951.634l.455,1.09a1.031,1.031,0,0,0,.951.634H66.019V14.166a1.391,1.391,0,0,0-1.391-1.391H2.372A1.391,1.391,0,0,0,.981,14.166Z" fill="#738b95"/><path d="M64.628,12.775h-3.6a1.391,1.391,0,0,1,1.391,1.391v5.643h3.6V14.166A1.391,1.391,0,0,0,64.628,12.775Z" fill="#617881"/><path d="M43.275,47.743H17.989A.988.988,0,0,1,17,46.755V1.97a.988.988,0,0,1,.988-.988H47.131L44.264,4.446V46.755A.988.988,0,0,1,43.275,47.743Z" fill="#dddaec"/><path d="M43.967.982,42.632,2.594A6.672,6.672,0,0,0,41.1,6.849V46.755a.988.988,0,0,1-.988.988h3.164a.988.988,0,0,0,.988-.988V4.446L47.131.982Z" fill="#d0cee7"/><path d="M49.011,7.909H44.264V3.85A2.868,2.868,0,1,1,50,3.85V6.921A.988.988,0,0,1,49.011,7.909Z" fill="#d3ced5"/><path d="M59.3,47.987H49.184a.576.576,0,0,1-.576-.576V43.258a.576.576,0,0,1,.576-.576H59.3a.576.576,0,0,1,.576.576v4.154a.576.576,0,0,1-.576.576Z" fill="#b3e59f"/><path d="M59.3,42.682H56.975a.576.576,0,0,1,.576.576v4.154a.576.576,0,0,1-.576.576H59.3a.576.576,0,0,0,.576-.576V43.258A.576.576,0,0,0,59.3,42.682Z" fill="#95d6a4"/><path d="M50.139,15.311h-1.2a.981.981,0,0,0,0,1.963h1.2a.981.981,0,0,0,0-1.963Z"/><path d="M54.711,15.311h-1.2a.981.981,0,0,0,0,1.963h1.2a.981.981,0,0,0,0-1.963Z"/><path d="M59.282,15.311h-1.2a.981.981,0,0,0,0,1.963h1.2a.981.981,0,0,0,0-1.963Z"/><path d="M34.481,59.766v-.949a.981.981,0,0,0-1.963,0v.949a.981.981,0,0,0,1.963,0Z"/><path d="M64.628,11.794H45.245v-2.9h3.765a1.972,1.972,0,0,0,1.97-1.97V3.85A3.853,3.853,0,0,0,47.131,0H17.99a1.972,1.972,0,0,0-1.97,1.97v9.823H11.88a.981.981,0,0,0,0,1.963H16.02V16.47H9.44a2.007,2.007,0,0,0-1.857,1.237L7.128,18.8a.049.049,0,0,1-.046.03H1.963V14.166a.41.41,0,0,1,.409-.409H7.956a.981.981,0,0,0,0-1.963H2.372A2.375,2.375,0,0,0,0,14.166V52.277A2.375,2.375,0,0,0,2.372,54.65H27.146a8.094,8.094,0,0,1,.293,3.553.981.981,0,1,0,1.943.279,9.954,9.954,0,0,0-.2-3.832h8.634a10.751,10.751,0,0,0,1.764,8.758,49.38,49.38,0,0,0-12.161,0q.212-.322.4-.643a.981.981,0,1,0-1.691-1,15.455,15.455,0,0,1-1.471,2.062,52.455,52.455,0,0,0-5.3,1.244A.981.981,0,0,0,19.9,66.96a48.129,48.129,0,0,1,27.194,0,.981.981,0,0,0,.546-1.885,52.477,52.477,0,0,0-5.3-1.244c-2.613-3.117-3.431-6.13-2.489-9.181H64.628A2.375,2.375,0,0,0,67,52.277V43.642a.981.981,0,0,0-1.963,0v8.636a.41.41,0,0,1-.409.409H2.372a.41.41,0,0,1-.409-.409V20.79h5.12a2.007,2.007,0,0,0,1.857-1.237l.455-1.09a.049.049,0,0,1,.046-.03h6.58V46.755a1.972,1.972,0,0,0,1.97,1.97H43.275a1.972,1.972,0,0,0,1.97-1.97V20.79H65.037V39.718a.981.981,0,0,0,1.963,0V14.166a2.375,2.375,0,0,0-2.372-2.372ZM49.018,3.85l0,3.078H45.245V3.85a1.886,1.886,0,0,1,3.772,0ZM17.983,46.755l.007-44.791H43.777a3.825,3.825,0,0,0-.495,1.886c0,2.394-.007,40.919-.007,42.912ZM45.245,18.828V13.756H64.628a.41.41,0,0,1,.409.409v4.662Z"/><path d="M22.608,12.206h.742c.03.445-.048.677-.519,1.311l-.612.769a.981.981,0,0,0,.759,1.592l4.814.043H27.8a.981.981,0,0,0,.009-1.963L24.9,13.933a3.1,3.1,0,0,0,.408-1.727h.678a.981.981,0,0,0,0-1.963H24.821c-.365-.609-.762-1.493-.14-1.844a1.646,1.646,0,0,1,1.46-.017A1.318,1.318,0,0,1,26.72,9a.981.981,0,1,0,1.888-.536,3.178,3.178,0,0,0-1.448-1.764,3.6,3.6,0,0,0-3.445-.015,2.689,2.689,0,0,0-1.068,3.553h-.039a.982.982,0,0,0,0,1.963Z"/><path d="M38.679,7.959H31.664a.981.981,0,0,0,0,1.963h7.015a.981.981,0,0,0,0-1.963Z"/><path d="M38.679,12.027H31.664a.981.981,0,0,0,0,1.963h7.015a.981.981,0,0,0,0-1.963Z"/><path d="M38.679,16.1H31.664a.981.981,0,0,0,0,1.963h7.015a.981.981,0,0,0,0-1.963Z"/><path d="M38.679,20.164H22.608a.981.981,0,0,0,0,1.963H38.679a.981.981,0,1,0,0-1.963Z"/><path d="M38.679,24.232H22.608a.981.981,0,0,0,0,1.963H38.679a.981.981,0,1,0,0-1.963Z"/><path d="M38.679,28.3H22.608a.981.981,0,0,0,0,1.963H38.679a.981.981,0,1,0,0-1.963Z"/><path d="M38.679,32.368H22.608a.981.981,0,0,0,0,1.963H38.679a.981.981,0,1,0,0-1.963Z"/><path d="M38.679,36.436H22.608a.981.981,0,0,0,0,1.963H38.679a.981.981,0,1,0,0-1.963Z"/><path d="M38.679,40.5H22.608a.981.981,0,0,0,0,1.963H38.679a.981.981,0,1,0,0-1.963Z"/><path d="M49.184,41.7a1.559,1.559,0,0,0-1.557,1.557v4.154a1.559,1.559,0,0,0,1.557,1.557H59.3a1.559,1.559,0,0,0,1.557-1.557V43.258A1.559,1.559,0,0,0,59.3,41.7Zm9.708,5.305h-9.3V43.664h9.3Z"/></g></g></g></svg>