<svg xmlns="http://www.w3.org/2000/svg" xmlns:xlink="http://www.w3.org/1999/xlink" width="85" height="85" viewBox="0 0 85 85"><defs><clipPath id="a"><rect width="67" height="67" transform="translate(189 4864.662)" fill="#ffd41c"/></clipPath></defs><g transform="translate(-1125 -10037.338)"><rect width="85" height="85" transform="translate(1125 10037.338)" fill="#8d6af2"/><g transform="translate(945 5181.338)" clip-path="url(#a)"><g transform="translate(189 4864.662)"><circle cx="14.272" cy="14.272" r="14.272" transform="translate(0.981 4.967)" fill="#ffe17d"/><path d="M4.914,19.239A14.275,14.275,0,0,1,17.219,5.1a14.273,14.273,0,1,0-1.966,28.409,14.4,14.4,0,0,0,1.966-.134A14.275,14.275,0,0,1,4.914,19.239Z" fill="#ffd164"/><path d="M9.525,46.581a2.052,2.052,0,0,0,2.9.181l.663-.585v3.605A6.122,6.122,0,0,0,19.2,55.9H31.407a2.051,2.051,0,0,0,0-4.1H19.2a2.014,2.014,0,0,1-2.012-2.012V46.177l.663.585a2.052,2.052,0,0,0,2.715-3.076l-4.072-3.594a2.081,2.081,0,0,0-2.715,0L9.706,43.686a2.051,2.051,0,0,0-.181,2.9Z" fill="#5b66ad"/><path d="M59.414,24.468a2.052,2.052,0,0,0-2.9-.181l-.663.585V21.267a6.122,6.122,0,0,0-6.115-6.115H39.566a2.051,2.051,0,1,0,0,4.1H49.74a2.014,2.014,0,0,1,2.012,2.012v3.605l-.663-.585a2.052,2.052,0,1,0-2.715,3.076l4.072,3.594a2.081,2.081,0,0,0,2.715,0l4.072-3.594a2.051,2.051,0,0,0,.181-2.9Z" fill="#9cf8d2"/><path d="M41.587,37.6H66.018V62.033H41.587Z" fill="#e5b28c"/><path d="M41.587,37.6H45.52V62.033H41.587Z" fill="#d39c72"/><path d="M56.856,37.6H50.75v8.142L53.8,43.709l3.052,2.036Z" fill="#fe5694"/><path d="M66.019,63.014H52.893a.981.981,0,0,1,0-1.963H65.037V47.888a.981.981,0,0,1,1.963,0V62.033A.981.981,0,0,1,66.019,63.014Z"/><path d="M66.019,36.62H41.586a.981.981,0,0,0-.981.981V62.033a.981.981,0,0,0,.981.981h7.021a.981.981,0,1,0,0-1.963h-6.04V38.583h7.2v7.162q.274,1.322,1.526.817L53.8,44.889l2.508,1.673a.991.991,0,0,0,1.526-.816V38.583h7.2V43.6A.981.981,0,0,0,67,43.6v-6a.981.981,0,0,0-.981-.981ZM55.874,43.911l-1.526-1.018a.981.981,0,0,0-1.089,0l-1.528,1.018V38.585h4.143Z"/><path d="M50.75,50.872H45.659a.981.981,0,0,0,0,1.963H50.75a.981.981,0,0,0,0-1.963Z"/><path d="M50.75,54.944H45.659a.981.981,0,0,0,0,1.963H50.75a.981.981,0,0,0,0-1.963Z"/><path d="M50.771,21.267v1.707c-2.964-1.081-5.566,2.9-3.046,5.125l4.069,3.591a3.07,3.07,0,0,0,4.016,0L59.882,28.1a3.054,3.054,0,0,0-3.046-5.123V21.267a7.1,7.1,0,0,0-7.1-7.1H39.566a3.033,3.033,0,0,0,0,6.066H49.74a1.032,1.032,0,0,1,1.031,1.031ZM38.5,17.2a1.071,1.071,0,0,1,1.07-1.07H49.74a5.14,5.14,0,0,1,5.134,5.134v3.605a.925.925,0,0,0,1.631.736l.663-.585a1.07,1.07,0,1,1,1.416,1.6l-4.072,3.594a1.1,1.1,0,0,1-1.416,0l-4.072-3.594c-.993-.877.4-2.5,1.416-1.6l.663.585c.772.651,1.612.3,1.631-.736V21.267a3,3,0,0,0-2.994-2.994H39.566A1.071,1.071,0,0,1,38.5,17.2Z"/><path d="M31.407,50.813H19.2a1.032,1.032,0,0,1-1.031-1.031V48.075a3.024,3.024,0,0,0,3.046-5.125l-4.069-3.591a3.07,3.07,0,0,0-4.017,0L9.056,42.949A3.037,3.037,0,0,0,12.1,48.073v1.709a7.1,7.1,0,0,0,7.1,7.1H31.407a3.033,3.033,0,0,0,0-6.066Zm0,4.1H19.2a5.14,5.14,0,0,1-5.134-5.134V46.177a.986.986,0,0,0-1.631-.736l-.663.585a1.07,1.07,0,1,1-1.416-1.6l4.072-3.594a1.1,1.1,0,0,1,1.417,0l4.072,3.594a1.071,1.071,0,0,1-1.416,1.6l-.663-.585q-1.291-.685-1.631.736v3.605A3,3,0,0,0,19.2,52.775H31.407a1.07,1.07,0,0,1,0,2.14Z"/><path d="M30.311,21.677a1.019,1.019,0,0,0-.813-1.125.982.982,0,0,0-1.125.813,13.291,13.291,0,1,1,.039-3.993.982.982,0,1,0,1.944-.273,15.254,15.254,0,1,0-15.1,17.393c9.178,0,14.714-7.273,15.058-12.815Z"/><path d="M15.792,18.4H14.674a1.055,1.055,0,0,1,0-2.109h1a.853.853,0,0,1,.822.612.981.981,0,1,0,1.88-.564,2.8,2.8,0,0,0-2.16-1.959V13.159a.981.981,0,0,0-1.963,0v1.195a3.018,3.018,0,0,0,.422,6.005h1.118a1.055,1.055,0,0,1,0,2.109H14.531a.853.853,0,0,1-.822-.612.981.981,0,0,0-1.88.564,2.8,2.8,0,0,0,2.423,2V25.6a.981.981,0,1,0,1.963,0V24.4a3.017,3.017,0,0,0-.422-6.005Z"/><path d="M15.233,8.086A11.161,11.161,0,1,0,26.394,19.247,11.174,11.174,0,0,0,15.233,8.086Zm0,20.36a9.2,9.2,0,1,1,9.2-9.2,9.209,9.209,0,0,1-9.2,9.2Z"/></g></g></g></svg>