<svg xmlns="http://www.w3.org/2000/svg" xmlns:xlink="http://www.w3.org/1999/xlink" width="85" height="85" viewBox="0 0 85 85"><defs><clipPath id="a"><rect width="55" height="55" transform="translate(195 6554)" fill="#26d19e"/></clipPath></defs><g transform="translate(-180 -8975)"><g transform="translate(0 2436)"><rect width="85" height="85" transform="translate(180 6539)" fill="#fff"/><g clip-path="url(#a)"><g transform="translate(194.113 6553.113)"><path d="M55,21.29v7.789a20.835,20.835,0,0,1-17.742,20.6V55H19.516V49.677a20.825,20.825,0,0,1-17.742-20.6V21.29H7.1v4.435A16.864,16.864,0,0,0,23.065,42.563v.018l.887,4.435,4.435-2.661,4.435,2.661.887-4.435v-.018A16.864,16.864,0,0,0,49.677,25.726V21.29Z" fill="#ff826e"/><path d="M32.823,42.581c.293,0,.594-.009.887-.018v.018l-.887,4.435-4.435-2.661,3.548-1.774Z" fill="#fc6e51"/><path d="M24.839,42.581l3.548,1.774-4.435,2.661-.887-4.435v-.018c.293.009.594.018.887.018Z" fill="#fc6e51"/><path d="M54.21,9.359l-7.9-3.939a1.6,1.6,0,0,0-.186-.071V15.941a1.6,1.6,0,0,0,.186-.071l7.9-3.939a1.443,1.443,0,0,0,0-2.573Z" fill="#aab2bd"/><path d="M8.871,5.323V15.968H5.323a3.542,3.542,0,0,1-3.548-3.548V8.871A3.547,3.547,0,0,1,5.323,5.323Z" fill="#aab2bd"/><path d="M30.161,18.549a1.47,1.47,0,0,1,.931-1.34.031.031,0,0,1,.018-.009,1.469,1.469,0,0,1,1.615.293l.683.683,2.209-2.209h1.7A9.149,9.149,0,0,1,40.762,21.1a1.8,1.8,0,0,1,.044.381,1.583,1.583,0,0,1-1.579,1.579H28.387a3.544,3.544,0,0,0-3.548,3.548h-.594a2.907,2.907,0,0,0-2.085.869,2.954,2.954,0,0,0-.639.931,9.482,9.482,0,0,0-3.779-2.688V21.29a8.805,8.805,0,0,1,1.774-5.323h1.641l2.209,2.209.683-.683a1.469,1.469,0,0,1,1.615-.293.031.031,0,0,1,.018.009,1.47,1.47,0,0,1,.931,1.34v.967h3.548Z" fill="#b27946"/><path d="M46.129,10.645v5.3a.875.875,0,0,1-.213.027h-10.3l.3-.3-.683-.683a1.458,1.458,0,0,1-.346-1.473c.018-.035.08-.2.089-.222a1.459,1.459,0,0,1,1.313-.869h.967V10.645Z" fill="#b4dd7f"/><path d="M20.856,15.666l.3.3H12.419V10.645h7.1v1.774h.967a1.47,1.47,0,0,1,1.34.931.031.031,0,0,1,.009.018,1.469,1.469,0,0,1-.293,1.615Z" fill="#b4dd7f"/><path d="M46.129,5.349v5.3H37.258V8.871h-.967a1.47,1.47,0,0,1-1.34-.931.031.031,0,0,1-.009-.018,1.469,1.469,0,0,1,.293-1.615l.683-.683-.3-.3h10.3a.875.875,0,0,1,.213.027Z" fill="#ff826e"/><path d="M21.539,6.307a1.469,1.469,0,0,1,.293,1.615.031.031,0,0,1-.009.018,1.47,1.47,0,0,1-1.34.931h-.967v1.774h-7.1V5.323h8.738l-.3.3Z" fill="#ff826e"/><path d="M12.419,10.645v5.323H8.871V5.323h3.548Z" fill="#ffeaa7"/><path d="M35.617,5.323l.3.3-.683.683a1.469,1.469,0,0,0-.293,1.615.031.031,0,0,0,.009.018,1.47,1.47,0,0,0,1.34.931h.967v3.548h-.967a1.459,1.459,0,0,0-1.313.869c-.009.018-.071.186-.089.222a1.458,1.458,0,0,0,.346,1.473l.683.683-.3.3-2.209,2.209-.683-.683A1.469,1.469,0,0,0,31.11,17.2a.031.031,0,0,0-.018.009,1.47,1.47,0,0,0-.931,1.34v.967H26.613v-.967a1.47,1.47,0,0,0-.931-1.34.031.031,0,0,0-.018-.009,1.469,1.469,0,0,0-1.615.293l-.683.683-2.209-2.209-.3-.3.683-.683a1.469,1.469,0,0,0,.293-1.615.031.031,0,0,0-.009-.018,1.47,1.47,0,0,0-1.34-.931h-.967V8.871h.967a1.47,1.47,0,0,0,1.34-.931.031.031,0,0,0,.009-.018,1.469,1.469,0,0,0-.293-1.615l-.683-.683.3-.3,2.209-2.209.683.683a1.469,1.469,0,0,0,1.615.293.031.031,0,0,0,.018-.009,1.47,1.47,0,0,0,.931-1.34V1.774h3.548v.967a1.47,1.47,0,0,0,.931,1.34.031.031,0,0,0,.018.009A1.469,1.469,0,0,0,32.725,3.8l.683-.683L35.555,5.26Z" fill="#fcd770"/><path d="M8.392,15.968a3.451,3.451,0,0,1,.479,1.774A4.284,4.284,0,0,1,7.62,20.767L7.1,21.29H1.774V17.742a3.54,3.54,0,0,1,1.2-2.661,3.571,3.571,0,0,0,2.351.887Z" fill="#f0d0b4"/><path d="M55,17.742V21.29H49.677l-.523-.523A4.289,4.289,0,0,1,47.9,17.733a3.525,3.525,0,0,1,3.531-3.54h.018A3.547,3.547,0,0,1,55,17.742Z" fill="#f0d0b4"/><path d="M38.713,27.9l-1.153-1.73a1.743,1.743,0,0,1-.3-.985v-2.12H28.387a3.544,3.544,0,0,0-3.548,3.548h-.594a2.907,2.907,0,0,0-2.085.869,2.952,2.952,0,0,0,.31,4.453l2.369,1.774v8.871l3.548,1.774,3.548-1.774V38.74l.3.1a3.735,3.735,0,0,0,1.206.2,3.824,3.824,0,0,0,3.806-3.548l.009-3.885a.89.89,0,0,1,.488-.8l.222-.106a1.921,1.921,0,0,0,1.065-1.721A2,2,0,0,0,38.713,27.9Z" fill="#f0d0b4"/><path d="M37.258,31.935v3.282c0,.089,0,.177-.009.266H35.484a3.547,3.547,0,0,1-3.548-3.548Z" fill="#ff826e"/><path d="M52.908,13.57l1.7-.847a2.323,2.323,0,0,0,0-4.155L46.713,4.623a1.782,1.782,0,0,0-.793-.187H37.625L39.659,2.4,38.405,1.147,35.55,4,33.408,1.859,32.094,3.172a.59.59,0,0,1-.664.089.574.574,0,0,1-.381-.522V.887H25.726V2.739a.585.585,0,0,1-.4.53.576.576,0,0,1-.644-.1L23.365,1.859,20.79,4.435H5.323A4.441,4.441,0,0,0,.887,8.871v3.548a4.392,4.392,0,0,0,.9,2.649,4.436,4.436,0,0,0-.9,2.674V29.075A21.579,21.579,0,0,0,18.629,50.428v5.459H38.145V50.429A21.579,21.579,0,0,0,55.887,29.076V17.742a4.377,4.377,0,0,0-2.979-4.172Zm1.2,4.172V20.4H50.045l-.261-.261a3.394,3.394,0,0,1-.994-2.414,2.653,2.653,0,0,1,2.661-2.647h0a2.661,2.661,0,0,1,2.66,2.66ZM48.53,21.4l.261.261v4.068A15.986,15.986,0,0,1,32.823,41.694V39.87a4.65,4.65,0,0,0,.619.05,4.708,4.708,0,0,0,4.7-4.7V31.6l.22-.109a2.814,2.814,0,0,0,1.082-4.078l-1.152-1.729a.882.882,0,0,1-.149-.491V23.952h1.081a2.47,2.47,0,0,0,2.467-2.467,2.5,2.5,0,0,0-.074-.6,10.025,10.025,0,0,0-2.076-4.031h6.376a1.782,1.782,0,0,0,.793-.187l.529-.264a4.349,4.349,0,0,0-.226,1.325A5.154,5.154,0,0,0,48.53,21.4ZM6.99,20.142l-.262.262H2.661V17.742a2.662,2.662,0,0,1,.467-1.491,4.385,4.385,0,0,0,2.194.6H7.812a2.658,2.658,0,0,1,.172.887A3.371,3.371,0,0,1,6.99,20.142Zm13.925-13.2A.589.589,0,0,1,21,7.6a.576.576,0,0,1-.522.381H18.629V9.758H13.306V6.21h6.88ZM31.048,20.4V18.551a.645.645,0,0,1,1.047-.433l1.314,1.314,2.575-2.577h1.021a8.25,8.25,0,0,1,2.893,4.46.692.692,0,0,1-.672.862H28.387a4.443,4.443,0,0,0-4.348,3.554A3.826,3.826,0,0,0,21.4,27.006a10.864,10.864,0,0,0-2.767-1.874V21.29a7.909,7.909,0,0,1,1.351-4.435h.809l2.576,2.576,1.314-1.314a.587.587,0,0,1,.664-.089.575.575,0,0,1,.381.522V20.4Zm4.811-6.051a.564.564,0,0,1-.123-.569c.015-.04.045-.117.046-.121a.573.573,0,0,1,.511-.357h1.852V11.532h7.1v3.548H36.587Zm0-7.414.727-.728h8.655V9.758h-7.1V7.984H36.293a.585.585,0,0,1-.53-.4.576.576,0,0,1,.1-.643Zm11.156,7.594V6.758l3.548,1.774v4.226Zm-10.2,12.133,1.152,1.728a1.04,1.04,0,0,1-.4,1.507l-.219.109a1.755,1.755,0,0,0-.888,1.039H31.048v.887a4.441,4.441,0,0,0,4.435,4.435h.648A2.928,2.928,0,0,1,32.516,38L27.78,36.417,27.219,38.1l3.83,1.277v2.657l-2.661,1.331-2.661-1.331V33.266L23,31.224A2.069,2.069,0,0,1,24.247,27.5h1.479v-.887a2.665,2.665,0,0,1,2.661-2.661h7.984v1.238A2.652,2.652,0,0,0,36.818,26.665ZM36.371,34.6h-.887a2.666,2.666,0,0,1-2.51-1.774h3.4ZM20.915,14.352l-.728.728h-6.88V11.532h5.323v1.774h1.852a.585.585,0,0,1,.53.4A.577.577,0,0,1,20.915,14.352Zm-9.383.728H9.758V6.21h1.774ZM7.984,21.658l.262-.262a5.135,5.135,0,0,0,1.512-3.654,4.434,4.434,0,0,0-.1-.887h8.262a9.678,9.678,0,0,0-1.066,4.435l0,5.072.6.2a8.832,8.832,0,0,1,3.069,2.082,3.765,3.765,0,0,0,1.412,3.995l2.012,1.51v7.54A15.986,15.986,0,0,1,7.984,25.726Zm16.645,21.81,1.915.958-1.97,1.182-.428-2.14Zm7.515,0h.483l-.428,2.14-1.97-1.182ZM54.113,10.645a.546.546,0,0,1-.3.491l-1.471.735V9.419l1.472.735A.546.546,0,0,1,54.113,10.645ZM22.169,5.684l-.059-.059,1.256-1.256.059.059A2.414,2.414,0,0,0,27.5,2.739V2.661h1.774v.078a2.355,2.355,0,0,0,1.494,2.168,2.352,2.352,0,0,0,2.581-.48l.059-.059.888.888-6.8,6.8-2.034-2.034-1.254,1.254L27.5,14.561l6.543-6.543a2.4,2.4,0,0,0,.089.263,2.347,2.347,0,0,0,2.161,1.478h.078v1.774h-.078a2.329,2.329,0,0,0-2.124,1.392c-.013.028-.107.267-.126.327a2.341,2.341,0,0,0,.562,2.356l.059.059-1.256,1.256-.059-.059a2.414,2.414,0,0,0-4.074,1.687v.078H27.5v-.078a2.414,2.414,0,0,0-4.074-1.687l-.059.059L22.11,15.667l.059-.059a2.415,2.415,0,0,0-1.688-4.075H20.4V9.758h.078a2.414,2.414,0,0,0,1.688-4.074ZM2.661,8.871A2.665,2.665,0,0,1,5.323,6.21H7.984v8.871H5.323a2.665,2.665,0,0,1-2.661-2.661ZM37.127,48.8l-.756.114v5.2H20.4v-5.2l-.756-.114A19.824,19.824,0,0,1,2.661,29.075v-6.9H6.21v3.548A17.76,17.76,0,0,0,22.321,43.385l1.008,5.04,5.058-3.036,5.058,3.036,1.008-5.04A17.76,17.76,0,0,0,50.565,25.726V22.177h3.548v6.9A19.824,19.824,0,0,1,37.127,48.8Z"/><path d="M32.823,26.613a.887.887,0,0,1-1.774,0v-.887H29.274v.887a2.661,2.661,0,0,0,5.323,0v-.887H32.823Z"/></g></g></g></g></svg>