<svg xmlns="http://www.w3.org/2000/svg" xmlns:xlink="http://www.w3.org/1999/xlink" width="85" height="85" viewBox="0 0 85 85"><defs><clipPath id="a"><rect width="67" height="67" transform="translate(189 4864.662)" fill="#ffd41c"/></clipPath></defs><g transform="translate(-180 -10037.338)"><rect width="85" height="85" transform="translate(180 10037.338)" fill="#8d6af2"/><g transform="translate(0 5181.338)" clip-path="url(#a)"><g transform="translate(189 4864.662)"><path d="M65.353,37.344l-4.393,4.393L48.844,50.492,46.7,48.35l.044-.055a6.041,6.041,0,1,0-6.635-6.557l-.011.011-3.854-3.855L51.074,23.065Z" fill="#03aa6f"/><path d="M65.353,46.131,42.287,65.9H35.7L14.828,58.213H.549V46.131H14.828l.769-.33,4.723-2.021,2.2-.945H40.09v6.59H26.91l14.279,6.59,7.656-5.525,12.115-8.754Z" fill="#f5d0c7"/><path d="M52.173,42.287a6.033,6.033,0,0,1-5.426,6.008l-.044.055L40.64,42.287l-.538-.538.011-.011a6.041,6.041,0,0,1,12.06.549Z" fill="#79dca0"/><path d="M48.844,50.491l-7.656,5.525L26.91,49.426H40.09v-6.59l.549-.549L46.7,48.35Z" fill="#03aa6f"/><path d="M36.8,20.32a3.643,3.643,0,0,0,2.329-.8,2.543,2.543,0,0,0,.967-1.944,1.647,1.647,0,0,0-1.219-1.5L36.8,15.377V10.434a3.643,3.643,0,0,0-2.329.8A2.543,2.543,0,0,0,33.5,13.18a1.647,1.647,0,0,0,1.219,1.5l2.076.692Zm0-14.828a9.885,9.885,0,1,1-9.885,9.885A9.885,9.885,0,0,1,36.8,5.492Z" fill="#ffdb6f"/><path d="M40.64,42.287l-.549.549H33.412a6.59,6.59,0,0,0-13.093.945L15.6,45.8,6.041,36.246,20.32,21.967,36.246,37.893,40.1,41.749Z" fill="#03aa6f"/><path d="M40.09,17.574a2.543,2.543,0,0,1-.967,1.944,3.643,3.643,0,0,1-2.329.8V15.377l2.076.692A1.647,1.647,0,0,1,40.09,17.574Z" fill="#ffdb6f"/><path d="M36.8,10.434v4.943l-2.076-.692a1.647,1.647,0,0,1-1.219-1.5,2.543,2.543,0,0,1,.967-1.944A3.646,3.646,0,0,1,36.8,10.434Z" fill="#ffdb6f"/><path d="M33.412,42.836h-10.9l-2.2.945a6.59,6.59,0,0,1,13.093-.945Z" fill="#79dca0"/><path d="M43.89,4.273a13.362,13.362,0,0,0-14.189,0L28.513,2.426a15.352,15.352,0,0,1,16.566,0Z" fill="#ffdb6f"/><path d="M22.6,21.29a15.349,15.349,0,0,1-1.182-5.914h2.2a13.126,13.126,0,0,0,1.015,5.07Z" fill="#ffdb6f"/><path d="M36.8,30.754v-2.2a13.126,13.126,0,0,0,5.07-1.015l.844,2.03A15.347,15.347,0,0,1,36.8,30.754Z" fill="#ffdb6f"/><path d="M50.991,21.29l-2.03-.844a13.128,13.128,0,0,0,1.015-5.07h2.2A15.351,15.351,0,0,1,50.991,21.29Z" fill="#ffdb6f"/><path d="M36.8,26.361A10.984,10.984,0,1,1,47.779,15.377,10.983,10.983,0,0,1,36.8,26.361Zm0-19.771a8.787,8.787,0,1,0,8.787,8.787A8.787,8.787,0,0,0,36.8,6.59Z" fill="#ff8030"/><path d="M36.8,21.418a4.731,4.731,0,0,1-3.033-1.057A3.65,3.65,0,0,1,32.4,17.574h2.2a1.445,1.445,0,0,0,.571,1.1,2.786,2.786,0,0,0,3.25,0,1.445,1.445,0,0,0,.572-1.1c0-.154-.159-.361-.464-.461l-4.156-1.386A2.745,2.745,0,0,1,32.4,13.18a3.65,3.65,0,0,1,1.362-2.788A4.727,4.727,0,0,1,36.8,9.336a4.151,4.151,0,0,1,4.393,3.844h-2.2c0-.893-1.006-1.648-2.2-1.648a2.56,2.56,0,0,0-1.624.549,1.445,1.445,0,0,0-.572,1.1c0,.154.159.361.464.461l4.156,1.386a2.745,2.745,0,0,1,1.97,2.546,3.65,3.65,0,0,1-1.362,2.788A4.726,4.726,0,0,1,36.8,21.418Z" fill="#ff8030"/><rect width="2.197" height="13.18" transform="translate(35.697 8.787)" fill="#ff8030"/><path d="M29.7,4.275a13.365,13.365,0,0,1,14.188,0l1.186-1.85a15.352,15.352,0,0,0-16.56,0Z"/><path d="M21.418,15.377A15.275,15.275,0,0,0,22.6,21.3l2.028-.848a13.093,13.093,0,0,1-1.015-5.071h-2.2Z"/><path d="M36.8,30.754a15.237,15.237,0,0,0,5.916-1.183l-.85-2.028A13.039,13.039,0,0,1,36.8,28.557v2.2Z"/><path d="M50.99,21.293a15.259,15.259,0,0,0,1.183-5.916h-2.2a13.053,13.053,0,0,1-1.014,5.068Z"/><path d="M47.779,15.377A10.984,10.984,0,1,0,36.8,26.36,10.983,10.983,0,0,0,47.779,15.377ZM36.8,24.164a8.787,8.787,0,1,1,8.787-8.787A8.787,8.787,0,0,1,36.8,24.164Z"/><path d="M38.992,13.18h2.2a3.976,3.976,0,0,0-3.3-3.708V8.787H35.7v.685a3.976,3.976,0,0,0-3.3,3.708,2.76,2.76,0,0,0,1.977,2.547l1.318.439v2.816a1.647,1.647,0,0,1-1.1-1.409H32.4a3.976,3.976,0,0,0,3.3,3.708v.685h2.2v-.685a3.976,3.976,0,0,0,3.3-3.708,2.76,2.76,0,0,0-1.977-2.547l-1.318-.439V11.769A1.647,1.647,0,0,1,38.992,13.18Zm-.472,3.929c.278.093.472.284.472.465a1.647,1.647,0,0,1-1.1,1.411V16.9Zm-3.449-3.464c-.278-.093-.472-.284-.472-.465a1.647,1.647,0,0,1,1.1-1.411v2.087Z"/><path d="M51.851,22.289a1.1,1.1,0,0,0-1.553,0L36.246,36.34,21.1,21.191a1.1,1.1,0,0,0-1.553,0L5.265,35.469a1.1,1.1,0,0,0,0,1.553l8.01,8.01H.549v2.2H14.828a1.083,1.083,0,0,0,.433-.089l7.481-3.206h16.25v4.393H26.91a1.1,1.1,0,0,0-.46,2.1l14.279,6.59a1.1,1.1,0,0,0,1.1-.11L60.85,43.176l2.892,2.892L41.881,64.8H35.894l-20.686-7.62a1.1,1.1,0,0,0-.38-.068H.549v2.2H14.631l20.686,7.62A1.1,1.1,0,0,0,35.7,67h6.59A1.091,1.091,0,0,0,43,66.735L66.067,46.965a1.1,1.1,0,0,0,.12-1.549c-.019-.021-.037-.042-.057-.062l-3.617-3.617,3.617-3.617a1.1,1.1,0,0,0,0-1.553ZM20.32,23.52,38.537,41.738H34.275a7.656,7.656,0,0,0-7.365-5.492,7.737,7.737,0,0,0-7.633,6.784l-3.43,1.47L7.594,36.246ZM47.032,47.126l-5.74-5.74a4.93,4.93,0,1,1,5.74,5.74Zm3.066,1.1-1.141.824-.142-.142a7.1,7.1,0,0,0,1.283-.68v0ZM22.517,41.738a1.083,1.083,0,0,0-.433.089l-.267.11a5.461,5.461,0,0,1,10.11-.2ZM41.067,54.75l-9.156-4.225h8.18a1.1,1.1,0,0,0,1.1-1.1V44.389l5.964,5.964ZM60.247,40.9l-9.679,6.991a7.139,7.139,0,1,0-11.058-8.283L37.8,37.893,51.074,24.619,63.8,37.344Z"/></g></g></g></svg>