<svg xmlns="http://www.w3.org/2000/svg" xmlns:xlink="http://www.w3.org/1999/xlink" width="85" height="85" viewBox="0 0 85 85"><defs><clipPath id="a"><rect width="67" height="67" transform="translate(609 4865.348)" fill="#fff"/></clipPath></defs><g transform="translate(-809.999 -10619.652)"><rect width="85" height="85" transform="translate(809.999 10619.652)" fill="#26d19e"/><g transform="translate(209.999 5763.652)" clip-path="url(#a)"><g transform="translate(609 4865.348)"><path d="M53.473,17.957A2.356,2.356,0,0,0,51.118,15.6H19.187a1.047,1.047,0,0,1-.873-.47l-1.7-2.573A2.354,2.354,0,0,0,14.647,11.5H3.337A2.356,2.356,0,0,0,.981,13.859V51.344a3.766,3.766,0,0,0,3.767,3.767H9.862l43.611-2.595Z" fill="#ffd15b"/><path d="M51.922,6.534H14.313A2.355,2.355,0,0,0,11.957,8.89V21l21.16.823L54.277,21V8.89a2.355,2.355,0,0,0-2.355-2.355Z" fill="#f2fbff"/><path d="M54.278,8.89V21l-3.176.1-.1-12.209a2.356,2.356,0,0,0-2.355-2.355h3.271A2.356,2.356,0,0,1,54.278,8.89Z" fill="#dff6fd"/><path d="M10.861,21a2.355,2.355,0,0,0-2.355,2.355V51.286a3.807,3.807,0,0,1-3.757,3.825H55.373a2.355,2.355,0,0,0,2.355-2.355v-29.4A2.355,2.355,0,0,0,55.373,21Z" fill="#fef056"/><path d="M57.729,23.359v29.4a2.356,2.356,0,0,1-2.355,2.355H52.1a2.356,2.356,0,0,0,2.355-2.355v-29.4A2.356,2.356,0,0,0,52.1,21h3.271a2.356,2.356,0,0,1,2.355,2.355Z" fill="#ffd15b"/><path d="M26.183,50.531H14.406A1.309,1.309,0,0,1,13.1,49.223V45.66a1.309,1.309,0,0,1,1.309-1.309H26.183a1.309,1.309,0,0,1,1.309,1.309v3.563A1.309,1.309,0,0,1,26.183,50.531Z" fill="#f2fbff"/><path d="M27.491,45.66v3.562a1.308,1.308,0,0,1-1.309,1.309H22.911a1.308,1.308,0,0,0,1.309-1.309V45.66a1.308,1.308,0,0,0-1.309-1.309h3.271A1.308,1.308,0,0,1,27.491,45.66Z" fill="#dff6fd"/><path d="M37.767,46.366A14.126,14.126,0,1,1,51.893,60.492,14.126,14.126,0,0,1,37.767,46.366Z" fill="#97da7b"/><path d="M51.892,32.24a13.779,13.779,0,0,0-1.636.1,14.126,14.126,0,0,1,0,28.062,13.779,13.779,0,0,0,1.636.1,14.126,14.126,0,1,0,0-28.253Z" fill="#0ed290"/><path d="M31.835,10.318l-.01-.027a1.129,1.129,0,0,0-2.09,0l-.009.022-2.451,6.436a.981.981,0,0,0,1.834.7l.37-.971h2.584l.365.968a.981.981,0,1,0,1.836-.693Zm-1.609,4.2.55-1.445.545,1.445Z"/><path d="M25.5,11.505a.981.981,0,0,0,0-1.963H22.873a.981.981,0,0,0-.981.981V17a.981.981,0,0,0,1.963,0v-2.32h1.436a.981.981,0,0,0,0-1.963H23.854V11.505Z"/><path d="M43.706,15.9a4.246,4.246,0,1,0-1.377,1.4l.338.338a.981.981,0,0,0,1.388-1.388Zm-3.633.089a2.283,2.283,0,1,1,2.163-1.559l-.268-.268a.981.981,0,0,0-1.388,1.388l.292.292a2.267,2.267,0,0,1-.8.147Z"/><path d="M58.71,32.887V23.36a3.341,3.341,0,0,0-3.337-3.337h-.114V8.89a3.341,3.341,0,0,0-3.337-3.337H14.312A3.341,3.341,0,0,0,10.975,8.89v1.633H3.337A3.341,3.341,0,0,0,0,13.86V43.815a.981.981,0,0,0,1.963,0V13.86a1.376,1.376,0,0,1,1.374-1.374h7.638v7.538h-.114A3.341,3.341,0,0,0,7.524,23.36V51.287a2.781,2.781,0,1,1-5.562.058v-2.95a.981.981,0,0,0-1.963,0v2.95a4.748,4.748,0,0,0,4.749,4.749H40.343C49.249,66.764,67,60.434,67,46.366a15.124,15.124,0,0,0-8.29-13.479Zm-45.772-24a1.376,1.376,0,0,1,1.374-1.374h37.61A1.376,1.376,0,0,1,53.3,8.89V20.023H12.938ZM51.892,59.511C39.367,59.5,33.97,43.415,43.968,35.88a.982.982,0,0,0-1.184-1.565A15.178,15.178,0,0,0,38.938,54.13H8.567a4.827,4.827,0,0,0,.92-2.844V23.36a1.376,1.376,0,0,1,1.374-1.374H55.373a1.376,1.376,0,0,1,1.374,1.374v8.7a15.207,15.207,0,0,0-9.629-.03.981.981,0,1,0,.62,1.862c8.29-2.9,17.449,3.669,17.3,12.476A13.159,13.159,0,0,1,51.892,59.511Z"/><path d="M26.183,43.37H14.406a2.293,2.293,0,0,0-2.29,2.29v3.563a2.293,2.293,0,0,0,2.29,2.29H26.183a2.293,2.293,0,0,0,2.29-2.29V45.66A2.293,2.293,0,0,0,26.183,43.37Zm.327,5.853a.328.328,0,0,1-.327.327H14.406a.328.328,0,0,1-.327-.327V45.66a.328.328,0,0,1,.327-.327H26.183a.328.328,0,0,1,.327.327Z"/><path d="M13.1,26.649h6.887a.981.981,0,0,0,0-1.963H13.1a.981.981,0,0,0,0,1.963Z"/><path d="M13.1,31.229H23.461a.981.981,0,0,0,0-1.963H13.1A.981.981,0,0,0,13.1,31.229Z"/><path d="M51.893,53.862a.992.992,0,1,0,.992.992.992.992,0,0,0-.992-.992Z"/><path d="M52,37.215a5.15,5.15,0,0,0-5.26,5.153.981.981,0,0,0,1.963,0,3.191,3.191,0,1,1,5.505,2.2,3.162,3.162,0,0,1-2.314.995.981.981,0,0,0-.981.981V50.9a.981.981,0,0,0,1.963,0V47.429a5.161,5.161,0,0,0,4.166-5.334A5.169,5.169,0,0,0,52,37.215Z"/></g></g></g></svg>