<svg xmlns="http://www.w3.org/2000/svg" xmlns:xlink="http://www.w3.org/1999/xlink" width="85" height="85" viewBox="0 0 85 85"><defs><clipPath id="a"><rect width="67" height="67" transform="translate(189 4864.662)" fill="#ffd41c"/></clipPath></defs><g transform="translate(-810 -10152.338)"><rect width="85" height="85" transform="translate(810 10152.338)" fill="#8d6af2"/><g transform="translate(630 5296.338)" clip-path="url(#a)"><g transform="translate(186.772 4862.43)"><path d="M32.171,60.92a25.455,25.455,0,0,1-19.24-36.488l2.162,1.636.05-11.165L4.411,17.981l2.909,2.2a32.383,32.383,0,0,0,49.46,40.15l-5.171-4.725A25.369,25.369,0,0,1,32.171,60.92Z" fill="#c6dc3a"/><path d="M53.788,53.788l-2.425-2.425V36.847A15.638,15.638,0,0,0,39.915,21.783l3.632-6.15H27.915l3.633,6.15A15.638,15.638,0,0,0,20.1,36.847V51.363l-2.425,2.425a3.158,3.158,0,0,0-.925,2.233h0a3.158,3.158,0,0,0,3.158,3.158H51.555a3.158,3.158,0,0,0,3.158-3.158h0a3.158,3.158,0,0,0-.925-2.233Z" fill="#86b63b"/><path d="M35.359,52.48H26.8a3.35,3.35,0,0,0-3.35,3.35h0a3.35,3.35,0,0,0,3.35,3.35H24.565l-12.7-5.816a3.649,3.649,0,0,0-3.524.268h0A3.649,3.649,0,0,0,6.7,56.681v.243a3.649,3.649,0,0,0,2.017,3.264L21.736,66.7a13.4,13.4,0,0,0,5.992,1.415H51.363V52.48h0a16.123,16.123,0,0,0-15.719-.156Z" fill="#fdc8a2"/><rect width="13.399" height="15.632" transform="translate(51.363 52.48)" fill="#375e8d"/><path d="M40.26,3.671A32.263,32.263,0,0,0,17.3,9.107l3.727,5.86A25.448,25.448,0,0,1,58.523,47.043l-2.187-1.656-.05,11.165,10.732-3.078L64.133,51.29A32.4,32.4,0,0,0,40.26,3.671Z" fill="#c6dc3a"/><path d="M16.259,14.907l-.05,11.166a1.117,1.117,0,0,1-1.791.885l-1.054-.8a24.359,24.359,0,0,0,2.391,23.45l-1.834,1.275a26.588,26.588,0,0,1-1.99-26.949,1.117,1.117,0,0,1,1.675-.394l.38.288.033-7.443L6.865,18.438l1.128.853A1.117,1.117,0,0,1,8.3,20.718a31.142,31.142,0,0,0-1.92,4.231l-2.1-.768A33.39,33.39,0,0,1,5.888,20.5L3.737,18.872A1.117,1.117,0,0,1,4.1,16.908l10.732-3.079a1.117,1.117,0,0,1,1.424,1.078ZM5.788,50.748l2-1a31.075,31.075,0,0,1-3.008-18.39,31.716,31.716,0,0,1,.77-3.773L3.389,27a33.93,33.93,0,0,0-.823,4.04A33.3,33.3,0,0,0,5.788,50.748Zm24.59-24.954a12.322,12.322,0,0,0-2.018,1.234L29.7,28.812a10.081,10.081,0,0,1,1.651-1.01Zm-6.929,12.17h2.233V36.847a10.021,10.021,0,0,1,2.6-6.735l-1.656-1.5a12.25,12.25,0,0,0-3.175,8.233Zm42.43,30.148V58.063H63.646V67H52.48V53.6H53.6V51.363H51.65a17.226,17.226,0,0,0-16.537-.02l-.038.02H26.8A4.472,4.472,0,0,0,22.485,57l-4.349-1.993a2.043,2.043,0,0,1,.327-.429l2.424-2.424a1.117,1.117,0,0,0,.327-.789V36.847a14.555,14.555,0,0,1,10.631-13.99,1.117,1.117,0,0,0,.663-1.644l-2.638-4.465H41.59l-2.638,4.465a1.117,1.117,0,0,0,.663,1.644,14.555,14.555,0,0,1,10.631,13.99V49.13H52.48V36.847a16.8,16.8,0,0,0-10.9-15.7L44.508,16.2a1.117,1.117,0,0,0-.961-1.685H27.915a1.117,1.117,0,0,0-.961,1.685l2.925,4.951a16.8,16.8,0,0,0-10.9,15.7V50.9l-2.1,2.1a4.263,4.263,0,0,0-.783,1.076l-3.768-1.726a4.819,4.819,0,0,0-6.178,2.07,5.013,5.013,0,0,0,2.062,6.769l13.02,6.51a14.6,14.6,0,0,0,6.491,1.531H43.547V67H27.728a12.351,12.351,0,0,1-5.492-1.3L9.216,59.19a2.82,2.82,0,0,1-1.095-3.713,2.558,2.558,0,0,1,3.282-1.1l12.7,5.816a1.117,1.117,0,0,0,.465.1H36.847V58.063H26.8a2.233,2.233,0,0,1,0-4.466h8.56a1.117,1.117,0,0,0,.532-.135l.289-.156a15,15,0,0,1,14.068-.161V67H45.78v2.233H64.762A1.117,1.117,0,0,0,65.879,68.112Zm-6.7-5.583a2.233,2.233,0,1,0-2.233,2.233A2.233,2.233,0,0,0,59.179,62.529ZM36.847,32.381v4.466a4.466,4.466,0,0,1,0,8.933v2.233H34.614V45.78a4.471,4.471,0,0,1-4.466-4.466h2.233a2.236,2.236,0,0,0,2.233,2.233V39.081a4.466,4.466,0,1,1,0-8.933V27.915h2.233v2.233a4.471,4.471,0,0,1,4.466,4.466H39.081A2.236,2.236,0,0,0,36.847,32.381Zm-2.233,0a2.233,2.233,0,1,0,0,4.466Zm2.233,6.7v4.466a2.233,2.233,0,0,0,0-4.466ZM40.1,4.776A31.276,31.276,0,0,1,66.532,30.34l2.2-.384A33.5,33.5,0,0,0,16.667,8.189a1.117,1.117,0,0,0-.306,1.517l3.727,5.86a1.117,1.117,0,0,0,1.588.312A24.332,24.332,0,0,1,58.091,45.316L57.01,44.5a1.117,1.117,0,0,0-1.79.885l-.05,11.165a1.117,1.117,0,0,0,1.425,1.078l10.732-3.078a1.117,1.117,0,0,0,.366-1.964l-2.128-1.611a33.714,33.714,0,0,0,3.587-17.551l-2.228.152a31.484,31.484,0,0,1-.24,6.53,31.146,31.146,0,0,1-3.53,10.649,1.117,1.117,0,0,0,.305,1.427l1.1.836-7.154,2.052.033-7.443.407.307a1.117,1.117,0,0,0,1.674-.394A26.561,26.561,0,0,0,21.356,13.4l-2.525-3.97A31.159,31.159,0,0,1,40.1,4.776Z"/></g></g></g></svg>