<svg xmlns="http://www.w3.org/2000/svg" xmlns:xlink="http://www.w3.org/1999/xlink" width="85" height="85" viewBox="0 0 85 85"><defs><clipPath id="a"><rect width="67" height="67" transform="translate(189 4864.662)" fill="#ffd41c"/></clipPath></defs><g transform="translate(-1125 -10152.338)"><rect width="85" height="85" transform="translate(1125 10152.338)" fill="#8d6af2"/><g transform="translate(945 5296.338)" clip-path="url(#a)"><g transform="translate(187.919 4863.582)"><path d="M12.968,49.71,6.484,56.194,2.161,51.871V67H17.29l-4.323-4.323,6.484-6.484L56.194,19.452l6.484-6.484L67,17.29V2.161H51.871l4.323,4.323L49.71,12.968Z" fill="#ccd1d9"/><path d="M36,13.043A6.144,6.144,0,0,0,37.682,22.3l1.362.778a6.156,6.156,0,0,1,3.1,5.338,3.989,3.989,0,0,0,4,4,13.29,13.29,0,0,0,9.218-3.728h.011a21.433,21.433,0,0,1-.638,13.649,20.623,20.623,0,0,0-2.594-3.166,8.309,8.309,0,0,0-9.585-1.556l-.821.411a8.321,8.321,0,0,1-3.717.875H37.39A7.193,7.193,0,0,0,30.2,46.035a7.165,7.165,0,0,1-1.891,4.8L25.33,54.1l-.011.022A21.664,21.664,0,0,1,14.772,43.226h7.381a3.786,3.786,0,0,0,3.782-3.782,3.786,3.786,0,0,1,3.782-3.782H33.5a4.323,4.323,0,1,0,0-8.645,3.238,3.238,0,0,1-3.242-3.242V22.337a4.7,4.7,0,0,0-2.583-4.182l-4.193-2.1a21.483,21.483,0,0,1,11.1-3.091c.475,0,.951.011,1.416.054Z" fill="#69d6f4"/><path d="M54.735,42.34a21.506,21.506,0,0,1-1.751,3.534,10.83,10.83,0,0,0-7.111,7.111A21.575,21.575,0,0,1,25.32,54.119l.011-.022,2.983-3.264a7.165,7.165,0,0,0,1.891-4.8A7.193,7.193,0,0,1,37.39,38.9h.627a8.321,8.321,0,0,0,3.717-.875l.821-.411a8.309,8.309,0,0,1,9.585,1.556A20.623,20.623,0,0,1,54.735,42.34Z" fill="#b4dd7f"/><path d="M55.372,28.691h-.011a13.29,13.29,0,0,1-9.218,3.728,3.989,3.989,0,0,1-4-4,6.156,6.156,0,0,0-3.1-5.338L37.682,22.3A6.144,6.144,0,0,1,36,13.043v-.022A21.578,21.578,0,0,1,55.372,28.691Z" fill="#b4dd7f"/><path d="M33.5,27.016a4.323,4.323,0,1,1,0,8.645H29.718a3.786,3.786,0,0,0-3.782,3.782,3.786,3.786,0,0,1-3.782,3.782H14.772a21.53,21.53,0,0,1,1.4-19.938,10.83,10.83,0,0,0,7.111-7.111c.065-.043.13-.076.195-.119l4.193,2.1a4.7,4.7,0,0,1,2.583,4.182v1.437A3.238,3.238,0,0,0,33.5,27.016Z" fill="#b4dd7f"/><path d="M56.194,45.387a10.8,10.8,0,1,1-3.21.486A10.81,10.81,0,0,1,56.194,45.387Z" fill="#fcd770"/><path d="M23.774,12.968A10.806,10.806,0,1,1,12.968,2.161,10.832,10.832,0,0,1,23.774,12.968Z" fill="#fcd770"/><path d="M56.194,52.952a1.081,1.081,0,0,1,1.081,1.081h2.161a3.238,3.238,0,0,0-2.161-3.043v-2.36H55.113v2.36a3.234,3.234,0,0,0,1.081,6.285,1.081,1.081,0,1,1-1.081,1.081H52.952A3.238,3.238,0,0,0,55.113,61.4v2.36h2.161V61.4a3.234,3.234,0,0,0-1.081-6.285,1.081,1.081,0,1,1,0-2.161Z"/><path d="M56.194,44.306c-.4,0-.787.022-1.172.059A22.634,22.634,0,0,0,24.8,14.14c.038-.386.059-.777.059-1.172A11.887,11.887,0,1,0,12.968,24.855c.4,0,.787-.022,1.172-.059A22.634,22.634,0,0,0,44.366,55.021c-.038.386-.059.777-.059,1.172A11.887,11.887,0,1,0,56.194,44.306ZM54.133,28.33a12.13,12.13,0,0,1-7.995,3.009,2.916,2.916,0,0,1-2.912-2.912,7.25,7.25,0,0,0-3.645-6.281l-1.364-.779a5.037,5.037,0,0,1-1.681-7.22A20.577,20.577,0,0,1,54.133,28.33ZM3.242,12.968a9.726,9.726,0,1,1,9.726,9.726A9.736,9.736,0,0,1,3.242,12.968Zm13.68,11.2a11.938,11.938,0,0,0,7.029-6.658l3.24,1.621a3.569,3.569,0,0,1,1.987,3.214v1.433A4.327,4.327,0,0,0,33.5,28.1a3.242,3.242,0,0,1,0,6.484H29.718a4.869,4.869,0,0,0-4.863,4.863,2.7,2.7,0,0,1-2.7,2.7H15.511a20.309,20.309,0,0,1,1.411-17.981ZM16.5,44.306h5.649a4.869,4.869,0,0,0,4.863-4.863,2.7,2.7,0,0,1,2.7-2.7H33.5a5.4,5.4,0,1,0,0-10.806,2.163,2.163,0,0,1-2.161-2.161V22.341a5.724,5.724,0,0,0-3.181-5.148L25.84,16.035a20.4,20.4,0,0,1,8.294-1.97,7.15,7.15,0,0,0,3.011,9.177l1.364.779a5.085,5.085,0,0,1,2.556,4.406A5.079,5.079,0,0,0,46.138,33.5a14.265,14.265,0,0,0,8.585-2.87,20.52,20.52,0,0,1,.39,3.951,20.311,20.311,0,0,1-.748,5.443c-.461-.563-.949-1.1-1.458-1.612a9.324,9.324,0,0,0-6.639-2.75,9.445,9.445,0,0,0-4.2.991l-.815.407a7.262,7.262,0,0,1-3.231.763h-.629a8.294,8.294,0,0,0-8.271,8.208,6.1,6.1,0,0,1-1.6,4.078l-2.435,2.658A20.659,20.659,0,0,1,16.5,44.306ZM34.581,55.113a20.4,20.4,0,0,1-7.423-1.41l1.955-2.134a8.256,8.256,0,0,0,2.171-5.521,6.127,6.127,0,0,1,6.11-6.062h.629a9.445,9.445,0,0,0,4.2-.991l.815-.407a7.222,7.222,0,0,1,8.341,1.353A20.194,20.194,0,0,1,53.5,42.483,20.562,20.562,0,0,1,52.238,45,11.925,11.925,0,0,0,45,52.239,20.45,20.45,0,0,1,34.581,55.113ZM56.194,65.919a9.726,9.726,0,1,1,9.726-9.726A9.736,9.736,0,0,1,56.194,65.919Z"/><path d="M12.968,9.726a1.081,1.081,0,0,1,1.081,1.081H16.21a3.238,3.238,0,0,0-2.161-3.043V5.4H11.887v2.36a3.234,3.234,0,0,0,1.081,6.285,1.081,1.081,0,1,1-1.081,1.081H9.726a3.238,3.238,0,0,0,2.161,3.043v2.36h2.161v-2.36a3.234,3.234,0,0,0-1.081-6.285,1.081,1.081,0,1,1,0-2.161Z"/><path d="M49.262,1.081l5.4,5.4-2.3,2.3a31.249,31.249,0,0,0-5.74-3.149l-.832,1.995a29.127,29.127,0,0,1,5.019,2.708L48.946,12.2l1.528,1.528,7.248-7.248L54.48,3.242h11.44v11.44L62.677,11.44,55.43,18.688l1.528,1.528,1.862-1.862a29.127,29.127,0,0,1,2.708,5.019l1.995-.832a31.278,31.278,0,0,0-3.149-5.74l2.3-2.3,5.4,5.4V1.081Z"/><rect width="3.056" height="2.161" transform="translate(52.187 15.446) rotate(-45)"/><rect width="3.056" height="2.161" transform="translate(56.51 11.123) rotate(-45)"/><rect width="2.161" height="2.161" transform="translate(24.855 29.177)"/><rect width="2.161" height="2.161" transform="translate(17.29 33.5)"/><rect width="2.161" height="2.161" transform="translate(20.532 24.855)"/><rect width="2.161" height="2.161" transform="translate(44.306 39.984)"/><rect width="2.161" height="2.161" transform="translate(36.742 43.226)"/><rect width="2.161" height="2.161" transform="translate(39.984 48.629)"/><path d="M64.3,24.625l-2.049.688c.244.726.461,1.473.646,2.22l2.1-.519C64.8,26.21,64.566,25.407,64.3,24.625Z"/><path d="M44.537,4.856c-.782-.262-1.585-.5-2.388-.695l-.519,2.1c.746.185,1.493.4,2.22.646Z"/><path d="M20.216,56.958,18.688,55.43,11.44,62.677l3.242,3.242H3.242V54.48l3.242,3.242,7.248-7.248L12.2,48.946l-1.862,1.862a29.127,29.127,0,0,1-2.708-5.019l-1.995.832a31.278,31.278,0,0,0,3.149,5.74l-2.3,2.3-5.4-5.4V68.081H19.9l-5.4-5.4,2.3-2.3a31.249,31.249,0,0,0,5.74,3.149l.832-1.995a29.127,29.127,0,0,1-5.019-2.708Z"/><rect width="3.056" height="2.161" transform="translate(13.284 54.348) rotate(-45)"/><rect width="3.056" height="2.161" transform="translate(8.961 58.671) rotate(-45)"/><path d="M24.625,64.3c.782.262,1.585.5,2.388.695l.519-2.1c-.746-.185-1.493-.4-2.22-.646Z"/><path d="M6.26,41.629l-2.1.519c.2.8.432,1.606.695,2.388l2.049-.688C6.662,43.122,6.445,42.375,6.26,41.629Z"/></g></g></g></svg>