<svg xmlns="http://www.w3.org/2000/svg" xmlns:xlink="http://www.w3.org/1999/xlink" width="85" height="85" viewBox="0 0 85 85"><defs><clipPath id="a"><rect width="67" height="67" transform="translate(189 4864.729)" fill="#fff"/></clipPath></defs><g transform="translate(-809.999 -10501.271)"><rect width="85" height="85" transform="translate(809.999 10501.271)" fill="#26d19e"/><g transform="translate(629.999 5645.271)" clip-path="url(#a)"><g transform="translate(189 4864.729)"><path d="M37.256,47.4a12.493,12.493,0,0,1-1.088-5.1l-.031-5.659A14.7,14.7,0,0,0,16.207,22.925L6.766,36.647l-.031,5.659a12.491,12.491,0,0,1-1.088,5.1,2.08,2.08,0,0,0,1.083,2.745l14.721,6.429,14.721-6.429A2.08,2.08,0,0,0,37.256,47.4Z" fill="#785353"/><path d="M16.207,22.925A14.7,14.7,0,0,0,6.766,36.647l-.031,5.659a12.491,12.491,0,0,1-1.088,5.1,2.08,2.08,0,0,0,1.083,2.745l9.476,4.138V22.925Z" fill="#6e4848"/><path d="M35.745,58.606l-7.234-3.288a3.147,3.147,0,0,1-1.845-2.865V46.088H16.176v6.365a3.147,3.147,0,0,1-1.845,2.865L7.1,58.606a4.2,4.2,0,0,0-2.46,3.82v.445H38.2v-.445A4.2,4.2,0,0,0,35.745,58.606Z" fill="#d19a6e"/><path d="M16.176,52.371a13.643,13.643,0,0,0,10.49.022V46.088H16.177v6.283Z" fill="#c38c66"/><path d="M30.752,35.765c-7.691.93-12.023-2.16-14.087-4.383a1.051,1.051,0,0,0-1.508-.01l-3.3,3.3a3.147,3.147,0,0,0-.922,2.225v2.533a10.729,10.729,0,0,0,9.792,10.826A10.491,10.491,0,0,0,31.911,39.794V36.816a1.05,1.05,0,0,0-1.16-1.052Z" fill="#e2a975"/><circle cx="9.441" cy="9.441" r="9.441" transform="translate(43.48 0.981)" fill="#faf5dc"/><circle cx="11.539" cy="11.539" r="11.539" transform="translate(17.225 7.275)" fill="#faf5dc"/><path d="M38.205,66.018V62.426a4.2,4.2,0,0,0-2.46-3.82L30.782,56.35l-8.017,3.786a3.147,3.147,0,0,1-2.688,0L12.06,56.35,7.1,58.606a4.2,4.2,0,0,0-2.46,3.82v3.592Z" fill="#f5ebcd"/><path d="M31.911,38.745V36.816a1.049,1.049,0,0,0-1.16-1.052c-7.692.93-12.023-2.16-14.087-4.383a1.051,1.051,0,0,0-1.508-.01l-3.3,3.3a3.147,3.147,0,0,0-.922,2.225v2.533a11,11,0,0,0,5.276,9.409V38.869A2.089,2.089,0,0,1,19.248,37a18.388,18.388,0,0,0,8.782,2.069,25.642,25.642,0,0,0,3.88-.32Z" fill="#d19a6e"/><path d="M30.877,28.24A11.524,11.524,0,0,1,21.739,9.675,11.529,11.529,0,1,0,37.9,25.84a11.474,11.474,0,0,1-7.026,2.4Z" fill="#f5ebcd"/><path d="M55.019,17.765A9.429,9.429,0,0,1,47.384,2.787,9.433,9.433,0,1,0,60.556,15.959a9.385,9.385,0,0,1-5.537,1.806Z" fill="#f5ebcd"/><path d="M36.151,57.713l-6.657-3.026,6.833-3.417a3.53,3.53,0,0,0,1.655-4.516,11.452,11.452,0,0,1-.895-4.449V37.061a16.361,16.361,0,0,0-.445-3.79.981.981,0,0,0-1.909.455,14.392,14.392,0,0,1,.392,3.334v5.244a13.4,13.4,0,0,0,1.047,5.208,1.543,1.543,0,0,1-.723,2l-7.618,3.809a2.157,2.157,0,0,1-.185-.871V49.423a11.471,11.471,0,0,0,5.245-9.63V36.812a2.046,2.046,0,0,0-.689-1.531,2,2,0,0,0-1.566-.492c-4.549.551-8.39-.276-11.417-2.457A11.083,11.083,0,0,1,16,28.862a.981.981,0,0,0-1.754.881,12.76,12.76,0,0,0,3.728,4.114c2.374,1.74,6.538,3.652,12.9,2.882,0,0,.013,0,.028.012a.082.082,0,0,1,.028.062v2.981a9.508,9.508,0,0,1-19.017,0V36.9a2.151,2.151,0,0,1,.634-1.531l1.176-1.176a.981.981,0,0,0-1.388-1.388l-1.176,1.176A4.1,4.1,0,0,0,9.95,36.9v2.893a11.471,11.471,0,0,0,5.245,9.63v3.029a2.157,2.157,0,0,1-.185.871L7.392,49.515a1.543,1.543,0,0,1-.723-2,13.4,13.4,0,0,0,1.047-5.208V36.647A13.757,13.757,0,0,1,14.57,24.775a.981.981,0,1,0-.983-1.7A15.726,15.726,0,0,0,5.754,36.647v5.659a11.451,11.451,0,0,1-.895,4.449,3.53,3.53,0,0,0,1.655,4.516l6.833,3.417L6.691,57.713a5.188,5.188,0,0,0-3.035,4.713v3.592a.981.981,0,1,0,1.963,0V62.426A3.221,3.221,0,0,1,7.5,59.5l4.549-2.068,7.617,3.6a4.089,4.089,0,0,0,3.5,0l7.617-3.6L35.339,59.5a3.221,3.221,0,0,1,1.884,2.926v3.592a.981.981,0,0,0,1.963,0V62.426a5.188,5.188,0,0,0-3.035-4.714ZM22.335,59.254a2.133,2.133,0,0,1-1.828,0l-6.112-2.886.343-.156a4.137,4.137,0,0,0,2.42-3.758v-2.01a11.467,11.467,0,0,0,8.527,0v2.01a4.137,4.137,0,0,0,2.42,3.758l.343.156Z"/><path d="M52.921,0A10.422,10.422,0,1,0,63.344,10.422,10.434,10.434,0,0,0,52.921,0Zm0,18.882a8.459,8.459,0,1,1,8.459-8.459,8.469,8.469,0,0,1-8.459,8.459Z"/><path d="M28.764,6.294a12.52,12.52,0,1,0,12.52,12.52,12.534,12.534,0,0,0-12.52-12.52Zm0,23.078A10.557,10.557,0,1,1,39.322,18.814,10.569,10.569,0,0,1,28.764,29.372Z"/><path d="M28.8,12.355a3.639,3.639,0,0,0-3.673,3.127,3.684,3.684,0,0,0-.035.506.981.981,0,1,0,1.963,0,1.7,1.7,0,0,1,.016-.234,1.67,1.67,0,1,1,1.654,1.9.981.981,0,0,0-.981.981v2.773a.981.981,0,1,0,1.963,0V19.484a3.651,3.651,0,0,0,1.653-1A3.6,3.6,0,0,0,32.35,15.8,3.644,3.644,0,0,0,28.8,12.355Z"/><path d="M53.021,4.472a3.376,3.376,0,0,0-3.409,2.9,3.416,3.416,0,0,0-.032.469.981.981,0,0,0,1.963,0,1.439,1.439,0,0,1,.014-.2,1.409,1.409,0,1,1,1.4,1.607.981.981,0,0,0-.981.981v2.5a.981.981,0,0,0,1.963,0V11.069a3.387,3.387,0,0,0,1.464-.9,3.345,3.345,0,0,0,.922-2.5,3.382,3.382,0,0,0-3.3-3.194Z"/><path d="M47.368,24.39a4.115,4.115,0,0,0-4.16,3.542,4.158,4.158,0,0,0-.04.573.981.981,0,1,0,1.963,0,2.2,2.2,0,0,1,.021-.3,2.152,2.152,0,1,1,2.132,2.454.981.981,0,0,0-.981.981v3.277a.981.981,0,1,0,1.963,0V32.5a4.135,4.135,0,0,0,2-1.163,4.082,4.082,0,0,0,1.125-3.051,4.128,4.128,0,0,0-4.025-3.9Z"/><circle cx="0.981" cy="0.981" r="0.981" transform="translate(27.734 23.89)"/><circle cx="0.981" cy="0.981" r="0.981" transform="translate(51.971 14.873)"/><circle cx="0.981" cy="0.981" r="0.981" transform="translate(46.302 38.025)"/></g></g></g></svg>