<svg xmlns="http://www.w3.org/2000/svg" xmlns:xlink="http://www.w3.org/1999/xlink" width="35" height="35" viewBox="0 0 35 35"><defs><clipPath id="a"><rect width="35" height="35" transform="translate(-6668 4961)" fill="#fff" stroke="#707070" stroke-width="1"/></clipPath></defs><g transform="translate(6668 -4961)" clip-path="url(#a)"><g transform="translate(-6668 4961)"><path d="M13.079,6.3,16.045.77a.488.488,0,0,1,.86,0L19.871,6.3a.488.488,0,0,1-.43.719H13.509a.488.488,0,0,1-.43-.719Z" fill="#8795de"/><path d="M19.87,6.3,16.9.77a.488.488,0,0,0-.86,0l-.6,1.111L17.82,6.3a.488.488,0,0,1-.43.719h2.051A.488.488,0,0,0,19.87,6.3Z" fill="#6c7fd8"/><path d="M9.619,15.24l2.654-4.95a.488.488,0,0,1,.43-.257h7.545a.488.488,0,0,1,.43.257l2.654,4.95a.488.488,0,0,1-.43.719H10.048a.488.488,0,0,1-.43-.719Z" fill="#fee97d"/><path d="M5.132,24.469l2.654-4.95a.488.488,0,0,1,.43-.257H24.733a.488.488,0,0,1,.43.257l2.654,4.95a.488.488,0,0,1-.43.719H5.562a.488.488,0,0,1-.43-.719Z" fill="#f58a97"/><path d="M29.649,28.679l2.729,5.089a.488.488,0,0,1-.43.719H1a.488.488,0,0,1-.43-.719L3.3,28.679a.488.488,0,0,1,.43-.257H29.219a.488.488,0,0,1,.43.257Z" fill="#c9f6b0"/><path d="M23.331,15.24,22.45,13.6,20.677,10.29a.488.488,0,0,0-.43-.257H18.2a.488.488,0,0,1,.43.257l1.543,2.877a1.026,1.026,0,0,1-.445,1.4,11.611,11.611,0,0,0-2.137,1.391H22.9a.488.488,0,0,0,.43-.718Z" fill="#f4da6e"/><path d="M25.163,19.519a.488.488,0,0,0-.43-.257h-9.92a11.532,11.532,0,0,0-1.484,5.671c0,.085,0,.17,0,.254H27.387a.488.488,0,0,0,.43-.719Z" fill="#f07281"/><path d="M32.378,33.768l-2.729-5.089a.488.488,0,0,0-.43-.257H13.866a11.653,11.653,0,0,0,4.489,6.065H31.948a.488.488,0,0,0,.43-.719Z" fill="#9be69d"/><circle cx="9.553" cy="9.553" r="9.553" transform="translate(15.38 15.38)" fill="#f9f7f8"/><path d="M24.934,15.38a9.659,9.659,0,0,0-1.025.055,9.554,9.554,0,0,1,0,19,9.659,9.659,0,0,0,1.025.055,9.553,9.553,0,0,0,0-19.107Z" fill="#e2dee2"/><path d="M29.694,30.355h-9.52a.778.778,0,0,1-.778-.778V25.7H30.471v3.881a.778.778,0,0,1-.778.778Z" fill="#ecbba3"/><path d="M28.421,25.7v3.881a.778.778,0,0,1-.778.778h2.051a.778.778,0,0,0,.778-.778V25.7Z" fill="#e8ad8c"/><path d="M30.569,21.03H19.3a.778.778,0,0,0-.778.778v3.111a.778.778,0,0,0,.778.778H30.569a.778.778,0,0,0,.778-.778V21.808a.778.778,0,0,0-.778-.778Z" fill="#e19974"/><path d="M30.569,21.03H28.518a.778.778,0,0,1,.778.778v3.111a.778.778,0,0,1-.778.778h2.051a.778.778,0,0,0,.778-.778V21.808A.778.778,0,0,0,30.569,21.03Z" fill="#dc8758"/><path d="M26.6,26.78H23.267a.337.337,0,0,1-.337-.337V24.951a.337.337,0,0,1,.337-.337H26.6a.337.337,0,0,1,.337.337v1.492A.337.337,0,0,1,26.6,26.78Z" fill="#7a6d79"/><path d="M26.6,24.614H24.55a.337.337,0,0,1,.337.337v1.492a.337.337,0,0,1-.337.337H26.6a.337.337,0,0,0,.337-.337V24.951A.337.337,0,0,0,26.6,24.614Z" fill="#685e68"/><path d="M13.509,7.533h5.932a1,1,0,0,0,.882-1.474L17.356.528a1,1,0,0,0-1.763,0L12.627,6.059a1,1,0,0,0,.882,1.474Zm2.966-6.479L19.4,6.507H13.55Zm8.459,13.814a10.11,10.11,0,0,0-1.183.07l-2.622-4.889a1,1,0,0,0-.882-.529H12.7a1,1,0,0,0-.882.528L9.167,15a1,1,0,0,0,.882,1.473h2.227a.513.513,0,0,0,0-1.025H10.09l2.628-4.9h7.514l2.454,4.576a9.983,9.983,0,0,0-1.114.325h-6.9a.513.513,0,0,0,0,1.025h4.82A10.148,10.148,0,0,0,17,18.75H8.216a1,1,0,0,0-.882.527l-2.654,4.95A1,1,0,0,0,5.562,25.7H14.9a10,10,0,0,0,.42,2.208H3.731a1,1,0,0,0-.882.528L.12,33.526A1,1,0,0,0,1,35H31.948a1,1,0,0,0,.881-1.473l-.788-1.469a10.033,10.033,0,0,0,2.049-2.937.513.513,0,1,0-.932-.427,9.011,9.011,0,1,1,.674-2.152.513.513,0,1,0,1.009.181,10.075,10.075,0,0,0-9.908-11.855Zm6.322,17.894.65,1.213H29.348A10.147,10.147,0,0,0,31.256,32.761ZM20.511,33.974H1.043l2.7-5.04H15.7A10.129,10.129,0,0,0,20.511,33.974Zm-5.64-9.3H5.6l2.627-4.9h8.062A10,10,0,0,0,14.871,24.676Zm5.3,6.192h9.52a1.292,1.292,0,0,0,1.29-1.29V26.139a1.292,1.292,0,0,0,.875-1.221V21.808a1.292,1.292,0,0,0-1.291-1.291H28.356V19.349a1.292,1.292,0,0,0-1.29-1.29H22.8a1.292,1.292,0,0,0-1.29,1.29v1.168H19.3a1.292,1.292,0,0,0-1.291,1.291v3.111a1.292,1.292,0,0,0,.875,1.221v3.438a1.292,1.292,0,0,0,1.29,1.29Zm9.785-1.29a.265.265,0,0,1-.265.265h-9.52a.265.265,0,0,1-.265-.265V26.209h2.509v.233a.851.851,0,0,0,.85.85H26.6a.851.851,0,0,0,.85-.85v-.233h2.509Zm-6.516-4.451h2.982v1.141H23.443Zm-.906-5.778a.265.265,0,0,1,.265-.265h4.262a.265.265,0,0,1,.265.265v1.168H22.537Zm-3.5,2.459a.265.265,0,0,1,.265-.265H30.568a.265.265,0,0,1,.265.265v3.111a.265.265,0,0,1-.265.265H27.45v-.234a.851.851,0,0,0-.85-.85H23.267a.851.851,0,0,0-.85.85v.234H19.3a.265.265,0,0,1-.265-.265V21.808Z"/></g></g></svg>