<svg xmlns="http://www.w3.org/2000/svg" width="505" height="392.032" viewBox="0 0 505 392.032"><g transform="translate(-810 -15858.902)"><g transform="translate(366.604 15721.926)"><g transform="translate(786.291 175.483)"><path d="M1617.623,275.781l3.905-6.153c.431-.679-.647-1.306-1.077-.629l-3.905,6.153c-.431.68.647,1.306,1.077.629Z" transform="translate(-1616.446 -268.707)" fill="#fff"/><path d="M1634.566,305.537l6.216-2.365a.641.641,0,0,0,.435-.767.628.628,0,0,0-.767-.436l-6.216,2.365a.641.641,0,0,0-.436.767.629.629,0,0,0,.767.436Z" transform="translate(-1628.71 -292.225)" fill="#fff"/><path d="M1644.143,333.855q4.621-1.128,9.326-1.851a.628.628,0,0,0,.436-.767.639.639,0,0,0-.767-.436q-4.7.722-9.326,1.851c-.78.19-.449,1.393.331,1.2Z" transform="translate(-1635.498 -312.643)" fill="#fff"/><path d="M1644.469,364.615l5.752,1.338c.781.182,1.114-1.02.331-1.2l-5.752-1.339c-.781-.182-1.114,1.02-.332,1.2Z" transform="translate(-1635.962 -335.716)" fill="#fff"/><path d="M1639.066,392.254a92.245,92.245,0,0,0,8.954,4.19.628.628,0,0,0,.767-.436.639.639,0,0,0-.436-.767,89.238,89.238,0,0,1-8.656-4.064c-.707-.379-1.338.7-.629,1.077Z" transform="translate(-1632.234 -355.322)" fill="#fff"/></g><path d="M722.76,398.857a1.109,1.109,0,0,1-.81.231c-9.807,0-19.613-.2-29.42-.177q-7.182.014-14.361.268c-4.528.163-9.448,1.059-13.887-.139-1.471-.4,1.548-3.526,2.07-3.949A6.011,6.011,0,0,1,671,393.753a11.827,11.827,0,0,1,5.492-6.678,5.781,5.781,0,0,1,3.02-.856,6.783,6.783,0,0,1,3.082,1.165,10.567,10.567,0,0,1,3.451,2.985,17.911,17.911,0,0,1,3.9-3.932,7.4,7.4,0,0,1,5.263-1.6,11.891,11.891,0,0,1,6.441,1.9,7.117,7.117,0,0,1,3.184,5.717c1.179-2.122,3.877-3.129,6.3-3.165a5.991,5.991,0,0,1,3.538.912c1.585,1.109,2.193,3.154,2.465,5.069a3.346,3.346,0,0,1,3.466.177C721.267,395.907,723.469,398.129,722.76,398.857Z" transform="translate(-156.035 -175.401)" fill="#fff8d9"/><path d="M982.538,392.595c1.284,15.3-11.691,39.6-16.912,54.475-6.559,18.692-13.717,37.255-22.858,54.857-2.9-1.555-25.581-29.493-25.5-29.558l-68.246,54.295-53.107,42.251c-6.642,5.284-12.709,11.248-19.129,16.793-6.58,5.682-14.124,10.292-21.268,15.219-4.517,3.115-6.244-1.458-8.778-4.545q-3.156-3.844-6.3-7.7-6.495-7.967-12.94-15.975-12.69-15.75-25.308-31.559c-1.194-1.491-20.815-25.1-20.406-25.51L618.224,568.29l-45.472,37.666c-5.164,4.277-10.181,8.939-15.585,12.91-14.386,10.573-31.506-20.454-37.884-29.307-4.866-6.781,136.749-117.8,152.048-130.477,3.659-3.031,8.219-8.537,12.589-10.428,2.114-.915,2.763-3.54,5.5-3.168,10.7,1.488,23.735,25.931,29.329,33.57,9.772,13.345,23.938,30.756,34.416,43.587,8.567,10.491,5.165,11.32,15.466,3.8,14.779-10.788,28.767-22.886,43.085-34.277,4.874-3.877,73.66-58.844,73.779-58.7-7.993-9.783-19.35-20.155-24.679-31.314C872.3,397.775,982.29,389.727,982.538,392.595Z" transform="translate(-53.617 -180.471)" fill="#ffd41c"/><g transform="translate(523.96 136.976)"><path d="M1238.444,455.65s.513.076,1.44.255a89.887,89.887,0,0,1,23.419,8.18c12.742,6.64,17.779,8.213,22.125,9.375.625.167,12.347-36.5,14.369-40.235.947-1.751,12.1-.011,12.178.564s-9.51,59.95-14.832,63.751-33.771-5.013-33.771-5.013" transform="translate(-1062.898 -320.84)" fill="#21155c"/><g transform="translate(147.763 64.843)"><path d="M1238.267,783.777s-10.935,133.611-10.142,133.5,16.1,0,16.1,0l14.287-124.048Z" transform="translate(-1204.215 -604.285)" fill="#150c40"/><path d="M1203.332,580.954s-29.951-69.814-7.349-80.54c36.312-17.233,42.556,71.346,42.556,71.346Z" transform="translate(-1178.989 -426.581)" fill="#fff"/><g transform="translate(0 17.913)"><path d="M1200.232,430.845c-2.191-10.956-5.723-19.764-7.571-26.806-3.247-12.375.049-23.962,7.362-25.88s15.873,6.557,19.12,18.932a38.646,38.646,0,0,1,1.029,5.5,14.582,14.582,0,0,1-10.816,15.694l3.112,9.023Z" transform="translate(-1181.396 -369.637)" fill="#ffe1c2"/><path d="M1165.7,380.008c-3.809-8.7,7.11-19.588,8.067-18.235s-.636,4.208-.259,4.069,8.6-10.226,12.343-9.587-1.653,3.367-.877,3.428,9.624-4.786,12.234-3.379-2.78,3.191-2.78,3.191,8.532-1.212,10.531,3.206c.929,2.055-5.644,7.038-10.819,8.555a39.945,39.945,0,0,0-6.183,1.971s1,17.885-3.282,22.2-5.5,4.359-5.5,4.359S1168.361,386.082,1165.7,380.008Z" transform="translate(-1164.898 -356.047)" fill="#26d19e"/><path d="M1210.51,432.157c1,1.934,3.044,2.863,4.572,2.075s1.96-2.995.964-4.928-3.044-2.863-4.573-2.075S1209.513,430.223,1210.51,432.157Z" transform="translate(-1192.946 -400.165)" fill="#ffe1c2"/><path d="M1243.274,414.85A1.793,1.793,0,1,0,1244,412.1,2.042,2.042,0,0,0,1243.274,414.85Z" transform="translate(-1213.527 -390.861)" fill="#2f5481"/><path d="M1252.171,448.737a5.72,5.72,0,0,1-4.026-1.559.605.605,0,0,1,.837-.874,4.793,4.793,0,0,0,4.264,1.111.6.6,0,0,1,.306,1.171A5.855,5.855,0,0,1,1252.171,448.737Z" transform="translate(-1216.581 -412.105)" fill="#2f5481"/><path d="M1258.352,410.934s5.373,6.457,5.132,7.741-3.329,1.149-3.329,1.149Z" transform="translate(-1223.049 -390.2)" fill="#fff"/><path d="M1236.934,405.913a.645.645,0,0,1-.567-.95,5.164,5.164,0,0,1,4.152-2.93.645.645,0,0,1,.035,1.289,3.909,3.909,0,0,0-3.052,2.252A.645.645,0,0,1,1236.934,405.913Z" transform="translate(-1209.321 -384.661)" fill="#2f5481"/></g><g transform="translate(42.788)"><path d="M1375.069,383.67l-22.246,4.3-7.75,1.5c-.771.149-3.177,1.055-3.859.747-.7-.316-.773-2.58-.931-3.4l-3.1-16.009a3.011,3.011,0,0,1-.176-.907c.252-1.078,4.332-1.327,5.416-1.536l6.426-1.244,14.216-2.751,7.969-1.542Z" transform="translate(-1314.775 -342.358)" fill="#2f5481"/><path d="M1303.672,403.386l-20.93,4.05c-.563.109-1.559.522-1.934.118-.092-.1-.07-.455-.111-.587a18.074,18.074,0,0,1-.37-1.913l-1.045-5.4q-.558-2.885-1.117-5.77c.183-.386,3.268-.635,3.7-.718l4.795-.927,14.1-2.728.224-.043Z" transform="translate(-1278.165 -358.929)" fill="#254768"/><path d="M1462.25,364.6l-17.954,3.474-9.5,1.839-4.751.919c-.833.161-1.615.629-2-.1a9.579,9.579,0,0,1-.46-2.377q-.373-1.928-.746-3.857-1.757-9.082-3.515-18.163a8.682,8.682,0,0,1-.387-2c.065-.8.37-.647,1.223-.811q12.919-2.486,25.833-5l6.956-1.346Z" transform="translate(-1368.242 -326.394)" fill="#2f5481"/><path d="M1551.732,344.333c-.489.649-1.852.593-2.789.775l-26.261,5.082-3.106.6c-1.406.273-1.545.565-1.914-.8-.569-2.11-.842-4.351-1.257-6.5q-1.284-6.639-2.57-13.279-.992-5.128-1.985-10.256-.324-1.679-.65-3.358a3.177,3.177,0,0,1-.189-.98c.356-1.333,5.673-1.609,7-1.866l8.221-1.591q7.019-1.358,14.04-2.713c1.122-.219,2.242-.463,3.368-.659,1.089-.19,1.116-.375,1.53.453a6.86,6.86,0,0,1,.308,1.592q1.187,6.133,2.373,12.265,1.608,8.313,3.217,16.626c.218,1.124,1.037,3.13.822,4.238A.887.887,0,0,1,1551.732,344.333Z" transform="translate(-1423.044 -308.628)" fill="#2f5481"/><rect width="2.856" height="21.222" transform="matrix(0.982, -0.19, 0.19, 0.982, 52.417, 21.221)" fill="#254768"/><rect width="2.856" height="27.926" transform="translate(85.898 11.328) rotate(-10.951)" fill="#254768"/></g><path d="M1395.916,421.225s-6.633-6.046-6.174-7.34,2.128-.625,2.5-.375,4.78,3.545,5.19,3.466,8.578-2.13,8.662-1.755-.578,5.962-1.332,6.528C1404.765,421.748,1397.048,421.189,1395.916,421.225Z" transform="translate(-1304.791 -373.643)" fill="#ffe1c2"/><path d="M1256.288,692.943s5.212,14.514,5.212,27.36c0,5.914-2.606,140.454-2.606,140.454h-16.984l-7.917-124.56s-17.437-20.8-17.881-32.761Z" transform="translate(-1196.766 -547.764)" fill="#21155c"/><g transform="translate(6.26 72.627)"><path d="M1207.89,524.837c10.691,25.307,21.658,62.171,20.708,65.309-4.488,14.822-38.294,14.589-41.164,14.821s-.353-36.16-.817-41.726-6.065-32.212-5.016-43.9c1.041-11.6,8.608-17.445,11.13-18.254,0-.017,0-.041,0-.041l.5-.105c.14-.038.223-.057.223-.057S1200.5,506.22,1207.89,524.837Z" transform="translate(-1181.47 -500.884)" fill="#21155c"/></g><path d="M1261.03,698.669s3.7,11.576,2.214,16.279-15.793,11.316-24.8,11.659l2.679,3.985s16.222-2.566,23.125-10.027a10.433,10.433,0,0,0,2.677-6.048,17.709,17.709,0,0,0-.112-4.707c-.657-3.863-4.109-11.507-4.109-11.507Z" transform="translate(-1210.661 -551.1)" fill="#150c40"/><path d="M1310.356,603.192l.009,0s-6.435-34-15.993-51.634l-2.234.669s8.754,21.553,11.482,52.726l-.025.015,4.7,19.821s3.922-3.1,4.508-4.762C1313.262,618.725,1311.251,607.853,1310.356,603.192Z" transform="translate(-1244.073 -459.787)" fill="#21155c"/><path d="M1302.187,1137.176v6.32c0,.234,15.128,6.395,15.363,7.408s-28.073.078-28.073,0,2.573-13.728,2.573-13.728Z" transform="translate(-1242.416 -824.184)" fill="#254768"/><path d="M1240.795,1136.586v6.32c0,.234,15.128,6.394,15.362,7.408s-28.073.078-28.073,0,2.573-13.728,2.573-13.728Z" transform="translate(-1204.215 -823.816)" fill="#254768"/><path d="M1233.7,498.693s8.456,6.227,15.32,19.755,9.577,24.23,9.58,24.954-.1,8.478-.721,9.1-8.375-9.2-8.582-10.236-14.9-41.134-19.7-43.571C1229.6,498.693,1232.14,497.917,1233.7,498.693Z" transform="translate(-1202.233 -422.679)" fill="#764cf0"/></g><path d="M1043.989,419.778s-52.536-2.869-54.074-3.177-32.9-45.5-36.28-46.119-12.3,7.072-11.991,9.224,36.588,59.032,40.892,60.877,58.11,10.146,59.34,8.917S1043.989,419.778,1043.989,419.778Z" transform="translate(-878.213 -282.251)" fill="#21155c"/><path d="M1182.442,578.061s12.429.585,12.707,1.5-11.229,7.867-10.792,12.077C1184.356,591.642,1182.19,581.939,1182.442,578.061Z" transform="translate(-1028.039 -411.437)" fill="#150c40"/><g transform="translate(0)"><path d="M841.177,344.251a1.935,1.935,0,0,1-1.758-2.738c33.268-72.772,60.753-200.252,61.027-201.531a1.934,1.934,0,0,1,3.782.809c-.275,1.283-27.847,129.171-61.291,202.33A1.934,1.934,0,0,1,841.177,344.251Z" transform="translate(-814.5 -137.895)" fill="#254768"/><path d="M861.58,138.639l-11.464,48.5s-67.559-44.733-75.553-46.863S818.636,135.011,861.58,138.639Z" transform="translate(-773.743 -136.976)" fill="#764cf0"/></g><path d="M949.616,357.73s-.75-6.252-1.394-7.126-9.385-1.426-10.029-.506.184,3.313,1.748,3.772,4.692,1.473,4.692,1.473-1.583,5.974-1.39,6.368S948.249,358.231,949.616,357.73Z" transform="translate(-875.935 -269.293)" fill="#ffe1c2"/><path d="M930.866,358.026s3.606,1.753,3.694,2.884-.648,2.72-1.847,2.72c0,0,.919,1.987.3,2.826a2.648,2.648,0,0,1-1.378,1.015s1.114,3-1.138,3.223-4.194-.574-4.812-2.031S926.819,358.029,930.866,358.026Z" transform="translate(-868.213 -274.522)" fill="#ffe1c2"/></g><path d="M1702.591,661.636a4.4,4.4,0,0,0,1.379,1.045c1.979.978,7.009,0,9.2,0h32.192c31.026,0,62.471,1.267,93.391-.026.058-9.291-6.514-21.981-17.014-21.981-14.914,0-19.905,4.28-19.9,4.272,6.358-5.563-.616-13.32-5.243-17.215-10.75-9.05-24.987-7.376-36.776-1.15-4.9,2.589-15.571,8.866-11.718,15.928,0,0-7.341-13.455-17.126-8.563-9.755,4.878-14.04,20.087-14.067,20.183.344-1.225-7.313-3.641-8.195-3.576C1703.123,650.962,1699.632,658.251,1702.591,661.636Z" transform="translate(-890.356 -342.84)" fill="#fff8d9"/><path d="M558.135,790.5a7.378,7.378,0,0,1-5.181,2.081c-22.391-.588-44.212.356-66.6-.232-9.29-.244-17.392.519-27.026,0-2.762-.15-17.487.337-15.795-3.294a4.853,4.853,0,0,1,.336-2.676,28.271,28.271,0,0,1,7.31-11.508,9.256,9.256,0,0,1,15.447,6.716c1.7-7.664,7.766-13.7,14.536-17.678a25.669,25.669,0,0,1,10.084-3.724,19.01,19.01,0,0,1,14.878,5.279,23.131,23.131,0,0,1,6.784,14.439A37.185,37.185,0,0,1,525.2,769.254a13.959,13.959,0,0,1,6.19-1.956,11.266,11.266,0,0,1,7.778,3.382,16.215,16.215,0,0,1,4.845,13.363,21.461,21.461,0,0,1,6.63-4.386c2.511-.9,5.53-.811,7.6.866C561.864,783.454,560.909,787.905,558.135,790.5Z" transform="translate(0 -440.97)" fill="#fff8d9"/></g></g></svg>