<svg xmlns="http://www.w3.org/2000/svg" xmlns:xlink="http://www.w3.org/1999/xlink" width="35" height="35" viewBox="0 0 35 35"><defs><clipPath id="a"><rect width="35" height="35" transform="translate(-6464 4961)" fill="#fff" stroke="#707070" stroke-width="1"/></clipPath></defs><g transform="translate(-615 -17101.563)"><g transform="translate(7079 12140.563)" clip-path="url(#a)"><g transform="translate(-6464 4961)"><path d="M26.937,7.216H29.2v4.713H26.937Z" fill="#f1cb86"/><path d="M30.335,13.312H25.8v-2.06a.547.547,0,0,1,.547-.547h3.436a.547.547,0,0,1,.547.547Z" fill="#ffe07d"/><path d="M31.467,5.043a3.4,3.4,0,0,1-3.456,3.4,3.434,3.434,0,0,1-3.339-3.453V1.079a.566.566,0,0,1,.566-.566H30.9a.566.566,0,0,1,.566.566V5.043Z" fill="#ffe07d"/><path d="M29.788,10.705H28.216a.547.547,0,0,1,.547.547v2.06h1.572v-2.06A.547.547,0,0,0,29.788,10.705Z" fill="#f1cb86"/><path d="M30.9.513H29.329a.566.566,0,0,1,.566.566V5.043a3.4,3.4,0,0,1-2.607,3.3,3.335,3.335,0,0,0,.724.092,3.4,3.4,0,0,0,3.456-3.4V1.079A.566.566,0,0,0,30.9.513Z" fill="#f1cb86"/><path d="M31.467,15.577H24.672v-2.06a.547.547,0,0,1,.547-.547h5.7a.547.547,0,0,1,.547.547Z" fill="#817d84"/><path d="M30.921,12.97H29.348a.547.547,0,0,1,.547.547v2.06h1.572v-2.06A.547.547,0,0,0,30.921,12.97Z" fill="#756e79"/><path d="M10.317,26.56H12.5v2.265H10.317Z" fill="#edf6ff"/><path d="M20.8,20.9h2.188v2.265H20.8Z" fill="#edf6ff"/><path d="M22.785,17.158v5.116a.547.547,0,0,1-.547.547H12.215v5.116a.547.547,0,0,1-.547.547H1.645v5.438a.566.566,0,0,0,.566.566H32.789a.566.566,0,0,0,.566-.566V17.158Z" fill="#817d84"/><path d="M31.783,17.158V33.921a.566.566,0,0,1-.566.566h1.572a.566.566,0,0,0,.566-.566V17.158Z" fill="#756e79"/><path d="M33.94,17.5H22.2a.547.547,0,0,1-.547-.547V15.782a.547.547,0,0,1,.547-.547H33.94a.547.547,0,0,1,.547.547v1.171A.547.547,0,0,1,33.94,17.5Z" fill="#edf6ff"/><path d="M11.668,28.825H1.06a.547.547,0,0,1-.547-.547V27.107a.547.547,0,0,1,.547-.547H12.215v1.718A.547.547,0,0,1,11.668,28.825Z" fill="#edf6ff"/><path d="M22.238,23.162H11.629a.547.547,0,0,1-.547-.547V21.444a.547.547,0,0,1,.547-.547H22.785v1.718A.547.547,0,0,1,22.238,23.162Z" fill="#edf6ff"/><path d="M33.94,15.235H32.368a.547.547,0,0,1,.547.547v1.171a.547.547,0,0,1-.547.547H33.94a.547.547,0,0,0,.547-.547V15.782A.547.547,0,0,0,33.94,15.235Z" fill="#d8e2f3"/><path d="M21.213,20.9v1.718a.547.547,0,0,1-.547.547h1.572a.547.547,0,0,0,.547-.547V20.9Z" fill="#d8e2f3"/><path d="M10.643,26.56v1.718a.547.547,0,0,1-.547.547h1.572a.547.547,0,0,0,.547-.547V26.56Z" fill="#d8e2f3"/><path d="M17.5,5.043H15.267a1.153,1.153,0,0,0-1.164,1.1,1.126,1.126,0,0,0,.29.785.572.572,0,0,1-.025.774L4.311,17.763a.566.566,0,0,0,0,.8l.8.8a.566.566,0,0,0,.8,0L15.97,9.307a.563.563,0,0,1,.774-.025,1.126,1.126,0,0,0,.795.29,1.153,1.153,0,0,0,1.094-1.164V6.175A1.132,1.132,0,0,0,17.5,5.043Z" fill="#c1e3a0"/><path d="M33.94,14.722H31.98V13.517a1.061,1.061,0,0,0-1.06-1.06h-.073V11.252a1.061,1.061,0,0,0-1.06-1.06h-.073v-1.6a3.921,3.921,0,0,0,2.231-3.037H32.6A1.647,1.647,0,0,0,34.245,3.91V1.645A1.08,1.08,0,0,0,33.166.566H31.85A1.08,1.08,0,0,0,30.9,0H25.239a1.08,1.08,0,0,0-.949.566H22.974a1.08,1.08,0,0,0-1.079,1.079V3.91A1.647,1.647,0,0,0,23.54,5.555H24.2A3.992,3.992,0,0,0,26.425,8.58v1.612h-.073a1.061,1.061,0,0,0-1.06,1.06v1.205h-.073a1.061,1.061,0,0,0-1.06,1.06v1.205H22.2a1.061,1.061,0,0,0-1.06,1.06v1.171a1.061,1.061,0,0,0,1.06,1.06h.073v2.372H15.918a.513.513,0,1,0,0,1.025h6.355v1.24H11.63a.034.034,0,0,1-.034-.034V21.444a.034.034,0,0,1,.034-.034h2.237a.513.513,0,1,0,0-1.025H11.63a1.061,1.061,0,0,0-1.06,1.06v1.171a1.061,1.061,0,0,0,1.06,1.06H11.7v2.372H1.06A1.061,1.061,0,0,0,0,27.107v1.171a1.061,1.061,0,0,0,1.06,1.06h.073v4.584A1.08,1.08,0,0,0,2.211,35H3.963a.513.513,0,0,0,0-1.025H2.211a.054.054,0,0,1-.054-.054V32.735H32.842v1.186a.054.054,0,0,1-.054.054H6.014a.513.513,0,0,0,0,1.025H32.789a1.08,1.08,0,0,0,1.079-1.079V18.013h.073A1.061,1.061,0,0,0,35,16.953V15.782a1.061,1.061,0,0,0-1.06-1.06ZM33.22,1.645V3.91a.62.62,0,0,1-.62.62h-.62V1.592h1.186a.054.054,0,0,1,.054.054ZM22.92,3.91V1.645a.054.054,0,0,1,.054-.054H24.16V4.53h-.62a.62.62,0,0,1-.62-.62Zm2.265,1.077V1.079a.054.054,0,0,1,.054-.054H30.9a.054.054,0,0,1,.054.054V5.043A2.885,2.885,0,0,1,28.02,7.927a2.926,2.926,0,0,1-2.835-2.94ZM27.45,8.9a3.806,3.806,0,0,0,.553.05h.067A3.957,3.957,0,0,0,28.69,8.9v1.289H27.45Zm-1.133,2.35a.034.034,0,0,1,.034-.034h3.436a.034.034,0,0,1,.034.034v1.205h-3.5Zm-1.133,2.265a.034.034,0,0,1,.034-.034h5.7a.034.034,0,0,1,.034.034v1.205h-5.77ZM1.025,28.278V27.107a.034.034,0,0,1,.034-.034H11.7v1.24H1.06a.034.034,0,0,1-.034-.034ZM32.842,31.71H2.158V29.338H12.215a.513.513,0,0,0,.513-.513v-5.15H22.785a.513.513,0,0,0,.513-.513v-5.15h9.544v13.7Zm1.132-14.757a.034.034,0,0,1-.034.034H22.2a.034.034,0,0,1-.034-.034V15.782a.034.034,0,0,1,.034-.034H33.94a.034.034,0,0,1,.034.034Z"/><path d="M29.715,2.778a.513.513,0,0,0-.513-.513H26.937a.513.513,0,1,0,0,1.025H29.2A.513.513,0,0,0,29.715,2.778Z"/><path d="M4.749,19.727a1.079,1.079,0,0,0,1.526,0L16.333,9.669a.051.051,0,0,1,.068-.007,1.637,1.637,0,0,0,1.155.422,1.675,1.675,0,0,0,1.59-1.676V6.175A1.647,1.647,0,0,0,17.5,4.53H15.267a1.672,1.672,0,0,0-1.677,1.6,1.636,1.636,0,0,0,.422,1.141.065.065,0,0,1-.007.068L3.948,17.4a1.08,1.08,0,0,0,0,1.526Zm-.076-1.6L14.731,8.068a1.088,1.088,0,0,0,.043-1.48.615.615,0,0,1-.158-.429.64.64,0,0,1,.652-.6H17.5a.62.62,0,0,1,.62.62V8.408a.642.642,0,0,1-.6.651.613.613,0,0,1-.434-.158,1.074,1.074,0,0,0-1.48.043L5.55,19a.054.054,0,0,1-.076,0l-.8-.8a.054.054,0,0,1,0-.076Z"/></g></g></g></svg>