<svg xmlns="http://www.w3.org/2000/svg" xmlns:xlink="http://www.w3.org/1999/xlink" width="102" height="102" viewBox="0 0 102 102"><defs><clipPath id="a"><rect width="80" height="80" transform="translate(1180 1690)" fill="#fff"/></clipPath></defs><g transform="translate(-1169 -1679)"><circle cx="51" cy="51" r="51" transform="translate(1169 1679)" fill="#a488f5"/><g clip-path="url(#a)"><g transform="translate(1180 1690)"><path d="M42.667,32v1.333a2.667,2.667,0,0,1-5.333,0V32Zm0,0" fill="#f95925"/><path d="M34.853,26.667H45.16l-.374.2A1.334,1.334,0,0,0,44,28.08V32H36V28.067a1.334,1.334,0,0,0-.773-1.2Zm0,0" fill="#49bceb"/><path d="M50.667,17.333a10.667,10.667,0,0,1-5.507,9.333H34.853a10.667,10.667,0,1,1,15.813-9.333Zm0,0" fill="#fce013"/><path d="M22.667,16h2.667v2.667H22.667Zm0,0" fill="#f95925"/><path d="M54.667,16h2.667v2.667H54.667Zm0,0" fill="#f95925"/><path d="M24.33,24.84l2.31-1.333,1.333,2.309-2.31,1.333Zm0,0" fill="#f95925"/><path d="M52.036,8.853l2.309-1.333L55.679,9.83l-2.31,1.333Zm0,0" fill="#f95925"/><path d="M46.174,3.958l1.333-2.309,2.309,1.333-1.333,2.31Zm0,0" fill="#f95925"/><path d="M38.667,0h2.667V2.667H38.667Zm0,0" fill="#f95925"/><path d="M30.181,3,32.49,1.662l1.333,2.309L31.514,5.3Zm0,0" fill="#f95925"/><path d="M52.028,25.825l1.333-2.31,2.31,1.333-1.333,2.309Zm0,0" fill="#f95925"/><path d="M24.321,9.811,25.654,7.5l2.309,1.333-1.333,2.309Zm0,0" fill="#f95925"/><path d="M73.333,32.693A3.162,3.162,0,0,1,74.987,32a3.334,3.334,0,0,1,3.68,3.333V54.667L70.666,68V78.666H53.333V69.333l-4-12V48.667a3.333,3.333,0,0,1,6.667,0v6l5.333-8V31.52A3.466,3.466,0,0,1,64.32,28a3.333,3.333,0,0,1,2.587.854A3.306,3.306,0,0,1,73.333,30Zm0,0" fill="#f7bab4"/><path d="M24,54.667v-6a3.333,3.333,0,1,1,6.667,0v8.667l-4,12v9.333H9.333V68l-8-13.333V35.333A3.334,3.334,0,0,1,5.014,32a3.162,3.162,0,0,1,1.653.693V30.027a3.307,3.307,0,0,1,6.426-1.133A3.335,3.335,0,0,1,15.68,28a3.466,3.466,0,0,1,2.986,3.52V46.667Zm0,0" fill="#f7bab4"/><path d="M27.333,44A4.641,4.641,0,0,0,24,45.333a4.7,4.7,0,0,0-1.333,3.307v1.6L20,46.24V31.52a4.813,4.813,0,0,0-4.2-4.854,4.783,4.783,0,0,0-2.253.374,4.613,4.613,0,0,0-3.067-1.707A4.761,4.761,0,0,0,6.867,26.52,4.679,4.679,0,0,0,5.333,30v.667H5.146a4.761,4.761,0,0,0-3.613,1.187A4.679,4.679,0,0,0,0,35.333V54.667a1.33,1.33,0,0,0,.187.68L8,68.374V78.666h2.667V68a1.33,1.33,0,0,0-.187-.68L2.667,54.293V35.333A2.039,2.039,0,0,1,3.32,33.84a2.118,2.118,0,0,1,1.546-.507,2.4,2.4,0,0,1,.467.12V48H8V30a2,2,0,0,1,2.214-2,1.944,1.944,0,0,1,1.266.734,4.655,4.655,0,0,0-.813,2.6v18h2.667v-18a2.04,2.04,0,0,1,2.214-2,2.147,2.147,0,0,1,1.786,2.187V46.667a1.334,1.334,0,0,0,.227.734l5.107,7.667V56h2.667V48.666a1.974,1.974,0,0,1,.587-1.413,2,2,0,0,1,3.413,1.413V57.12L25.4,68.907a1.605,1.605,0,0,0-.066.426v9.333H28v-9.12L32,57.76a1.564,1.564,0,0,0,0-.427V48.666A4.666,4.666,0,0,0,27.333,44Zm0,0" fill="#e3928a"/><path d="M78.467,31.866a4.709,4.709,0,0,0-3.627-1.2h-.173V30a4.653,4.653,0,0,0-5.146-4.667,4.587,4.587,0,0,0-3.067,1.68,5.007,5.007,0,0,0-2.266-.36A4.813,4.813,0,0,0,60,31.52V46.267l-2.667,4v-1.6A4.667,4.667,0,1,0,48,48.64v8.693a1.617,1.617,0,0,0,0,.427l4,11.786v9.12h2.667V69.333a1.559,1.559,0,0,0,0-.426l-4-11.787V48.667a2,2,0,0,1,3.413-1.413,1.974,1.974,0,0,1,.587,1.413V56h2.667v-.933L62.44,47.4a1.334,1.334,0,0,0,.227-.734V31.52a2.12,2.12,0,0,1,1.773-2.187,2.014,2.014,0,0,1,2.227,2v18h2.667v-18a4.655,4.655,0,0,0-.813-2.6A1.946,1.946,0,0,1,69.853,28a2.069,2.069,0,0,1,1.56.507A2.04,2.04,0,0,1,72,30V48h2.667V33.453a2.6,2.6,0,0,1,.453-.12,2.109,2.109,0,0,1,1.561.507,2.041,2.041,0,0,1,.653,1.493v18.96L69.52,67.32a1.33,1.33,0,0,0-.187.68V78.666H72V68.374l7.813-13.027a1.33,1.33,0,0,0,.187-.68V35.333a4.68,4.68,0,0,0-1.533-3.467Zm0,0" fill="#e3928a"/><path d="M52,17.333A12,12,0,1,0,34.667,28.067V32A1.333,1.333,0,0,0,36,33.333a4,4,0,0,0,8,0A1.333,1.333,0,0,0,45.333,32V28A12,12,0,0,0,52,17.333Zm-7.813,8.333a2.668,2.668,0,0,0-1.52,2.413v2.587A1.333,1.333,0,0,0,41.333,32v1.333a1.333,1.333,0,1,1-2.667,0H40V30.667H37.333v-2.56L40,28a1.333,1.333,0,1,0,0-2.667H35.253A9.333,9.333,0,0,1,38.907,8.067a9.185,9.185,0,0,1,7.307,2.307,9.333,9.333,0,0,1-2.027,15.293Zm0,0"/><path d="M22.667,16h2.667v2.667H22.667Zm0,0"/><path d="M54.667,16h2.667v2.667H54.667Zm0,0"/><path d="M24.33,24.84l2.31-1.333,1.333,2.309-2.31,1.333Zm0,0"/><path d="M52.036,8.853l2.309-1.333L55.679,9.83l-2.31,1.333Zm0,0"/><path d="M46.174,3.958l1.333-2.309,2.309,1.333-1.333,2.31Zm0,0"/><path d="M38.667,0h2.667V2.667H38.667Zm0,0"/><path d="M30.183,2.988l2.31-1.333,1.333,2.31L31.516,5.3Zm0,0"/><path d="M52.028,25.825l1.333-2.31,2.31,1.333-1.333,2.309Zm0,0"/><path d="M24.321,9.811,25.654,7.5l2.309,1.333-1.333,2.309Zm0,0"/><path d="M27.333,44A4.641,4.641,0,0,0,24,45.333a4.7,4.7,0,0,0-1.333,3.307v1.6L20,46.24V31.52a4.814,4.814,0,0,0-4.187-4.854,4.659,4.659,0,0,0-2.266.347,4.654,4.654,0,0,0-3.067-1.68A4.761,4.761,0,0,0,6.867,26.52,4.679,4.679,0,0,0,5.333,30v.667H5.146a4.761,4.761,0,0,0-3.613,1.187A4.679,4.679,0,0,0,0,35.333V54.667a1.33,1.33,0,0,0,.187.68L8,68.374V78.666A1.333,1.333,0,0,0,9.333,80H26.667A1.333,1.333,0,0,0,28,78.666v-9.12L32,57.76a1.564,1.564,0,0,0,0-.427V48.667A4.666,4.666,0,0,0,27.333,44Zm2,13.12L25.4,68.907a1.605,1.605,0,0,0-.066.426v8H10.667V68a1.33,1.33,0,0,0-.187-.68L2.667,54.293V35.333A2.039,2.039,0,0,1,3.32,33.84a2.118,2.118,0,0,1,1.546-.507,2.4,2.4,0,0,1,.467.12V48H8V30a2,2,0,0,1,2.214-2,1.944,1.944,0,0,1,1.266.734,4.613,4.613,0,0,0-.813,2.6v18h2.667v-18a2.012,2.012,0,0,1,.654-1.48,1.959,1.959,0,0,1,1.56-.52,2.12,2.12,0,0,1,1.786,2.187V46.667a1.334,1.334,0,0,0,.227.734l5.107,7.667V56h2.667V48.667a1.974,1.974,0,0,1,.587-1.413,2,2,0,0,1,3.413,1.413Zm0,0"/><path d="M74.84,30.667h-.173V30a4.653,4.653,0,0,0-5.146-4.667,4.548,4.548,0,0,0-3.067,1.693,4.685,4.685,0,0,0-2.266-.36A4.814,4.814,0,0,0,60,31.52V46.267l-2.667,4v-1.6A4.667,4.667,0,1,0,48,48.64v8.693a1.617,1.617,0,0,0,0,.427l4,11.786v9.12A1.333,1.333,0,0,0,53.333,80H70.666A1.333,1.333,0,0,0,72,78.666V68.374l7.813-13.027a1.33,1.33,0,0,0,.187-.68V35.333a4.654,4.654,0,0,0-5.16-4.667Zm2.493,23.627L69.52,67.32a1.33,1.33,0,0,0-.187.68v9.333H54.667v-8a1.559,1.559,0,0,0,0-.426l-4-11.787V48.667a2,2,0,0,1,3.413-1.413,1.974,1.974,0,0,1,.587,1.413V56h2.667v-.933L62.44,47.4a1.334,1.334,0,0,0,.227-.734V31.52a2.121,2.121,0,0,1,1.786-2.187,2,2,0,0,1,2.214,2v18h2.667v-18a4.613,4.613,0,0,0-.813-2.6A1.946,1.946,0,0,1,69.853,28a2.069,2.069,0,0,1,1.56.507A2.04,2.04,0,0,1,72,30V48h2.667V33.453a2.6,2.6,0,0,1,.453-.12,2.109,2.109,0,0,1,1.561.507,2.041,2.041,0,0,1,.653,1.493Zm0,0"/></g></g></g></svg>