<svg xmlns="http://www.w3.org/2000/svg" width="109.466" height="116.634" viewBox="0 0 109.466 116.634">
  <g id="medios-de-comunicacion-social" transform="translate(-15.731)">
    <path id="Trazado_120645" data-name="Trazado 120645" d="M221.737,67.079a11.074,11.074,0,0,0,6.508,2.1h20.8V79.263l13.183-10.084h5.687a11.084,11.084,0,0,0,11.1-11.067V18.567A11.084,11.084,0,0,0,267.912,7.5H228.246a11.084,11.084,0,0,0-11.1,11.067V67.079Z" transform="translate(-155.525 -5.791)" fill="#f7f3f1"/>
    <path id="Trazado_120646" data-name="Trazado 120646" d="M376.018,7.5H366.51a11.084,11.084,0,0,1,11.1,11.067V58.112a11.084,11.084,0,0,1-11.1,11.067h-5.687l-3.675,2.811v7.273l13.183-10.084h5.687a11.084,11.084,0,0,0,11.1-11.067V18.567A11.084,11.084,0,0,0,376.018,7.5Z" transform="translate(-263.631 -5.791)" fill="#ebe1dc"/>
    <path id="Trazado_120647" data-name="Trazado 120647" d="M307.335,95.374l1.144.926a10.19,10.19,0,0,0,6.411,2.27h16.243a2.709,2.709,0,0,0,2.706-2.84c-.069-1.457,0-14.728,0-16.224a2.709,2.709,0,0,0-2.709-2.709l-11.014-.033,1.349-3.194a11.556,11.556,0,0,0-.613-10.229,1.8,1.8,0,0,0-3.368.894,11.755,11.755,0,0,1-2.941,7.777l-7.023,7.947h-2.56V95.374h2.373Z" transform="translate(-223.335 -48.207)" fill="#ffd36c"/>
    <path id="Trazado_120648" data-name="Trazado 120648" d="M282.422,147.663h-7.416a.888.888,0,0,1-.888-.888v-18.9a.888.888,0,0,1,.888-.888h7.416a.888.888,0,0,1,.888.888v18.9A.888.888,0,0,1,282.422,147.663Z" transform="translate(-199.519 -98.053)" fill="#8ee6f3"/>
    <path id="Trazado_120649" data-name="Trazado 120649" d="M72.019,191.139V151.227a8.741,8.741,0,0,0-8.754-8.727H31.984a8.741,8.741,0,0,0-8.754,8.727v31.185a8.741,8.741,0,0,0,8.754,8.727H49.168v8.027l10.4-8.027Z" transform="translate(-5.79 -110.034)" fill="#4ed5ea"/>
    <path id="Trazado_120650" data-name="Trazado 120650" d="M156.937,142.5h-12.4a8.741,8.741,0,0,1,8.754,8.727v39.912h12.4V151.227A8.741,8.741,0,0,0,156.937,142.5Z" transform="translate(-99.463 -110.034)" fill="#62a6fd"/>
    <path id="Trazado_120651" data-name="Trazado 120651" d="M215.409,328h-22.2A6.2,6.2,0,0,0,187,334.191v22.13a6.2,6.2,0,0,0,6.212,6.193h12.195v5.7l7.377-5.7h2.626a6.2,6.2,0,0,0,6.212-6.193v-22.13A6.2,6.2,0,0,0,215.409,328Z" transform="translate(-132.247 -253.269)" fill="#fa9084"/>
    <path id="Trazado_120652" data-name="Trazado 120652" d="M277.793,328h-9.569a6.2,6.2,0,0,1,6.212,6.193v22.131a6.2,6.2,0,0,1-6.212,6.193h-.434v5.7l7.377-5.7h2.626a6.2,6.2,0,0,0,6.212-6.193V334.191A6.2,6.2,0,0,0,277.793,328Z" transform="translate(-194.632 -253.269)" fill="#ff6cb5"/>
    <path id="Trazado_120653" data-name="Trazado 120653" d="M235.5,389.814c5.342-2.832,8.109-5.241,8.109-8.974,0-5.149-6.307-6.436-8.109-2.574-2.06-3.99-8.109-2.574-8.109,2.574C227.387,384.573,230.155,386.982,235.5,389.814Z" transform="translate(-163.434 -290.308)" fill="#f7f3f1"/>
    <path id="Trazado_120654" data-name="Trazado 120654" d="M112.387,0h-5.015a1.71,1.71,0,0,0,0,3.417h5.015a9.386,9.386,0,0,1,9.392,9.358V52.321a9.386,9.386,0,0,1-9.392,9.358H106.7a1.709,1.709,0,0,0-1.038.352L95.226,70.014V63.388a1.709,1.709,0,0,0-1.709-1.709H72.72a9.345,9.345,0,0,1-4.783-1.3V41.193a10.426,10.426,0,0,0-4.609-8.645V12.776A9.386,9.386,0,0,1,72.72,3.417H96.665a1.71,1.71,0,0,0,0-3.417H72.72a12.807,12.807,0,0,0-12.81,12.776V31.046a10.476,10.476,0,0,0-2.436-.289H26.194A10.461,10.461,0,0,0,15.731,41.193v3.69a1.71,1.71,0,0,0,3.417,0v-3.69a7.04,7.04,0,0,1,7.045-7.018H57.474a7.04,7.04,0,0,1,7.045,7.018V61.055a1.709,1.709,0,0,0,0,.452v10.87c0,.215-.013.429-.032.642H60.963a7.927,7.927,0,0,0-7.791,6.486,1.713,1.713,0,0,0-.443.247l-7.643,5.9V81.105A1.709,1.709,0,0,0,43.378,79.4H26.194a7.04,7.04,0,0,1-7.045-7.018V55.136a1.71,1.71,0,0,0-3.417,0V72.378A10.461,10.461,0,0,0,26.194,82.814H41.669v6.318a1.735,1.735,0,0,0,2.753,1.353l8.62-6.656v19.223a7.92,7.92,0,0,0,7.921,7.9H71.45v3.987a1.735,1.735,0,0,0,2.753,1.353l6.916-5.34h2.043a7.921,7.921,0,0,0,7.921-7.9v-3.034a1.71,1.71,0,0,0-3.417,0v3.034a4.5,4.5,0,0,1-4.5,4.484H80.536a1.709,1.709,0,0,0-1.044.356l-4.625,3.57v-2.218a1.709,1.709,0,0,0-1.709-1.709H60.963a4.5,4.5,0,0,1-4.5-4.484V80.922a4.5,4.5,0,0,1,4.5-4.484h22.2a4.5,4.5,0,0,1,4.5,4.484v8.389a1.71,1.71,0,0,0,3.417,0V80.922a7.92,7.92,0,0,0-7.921-7.9H67.918c.013-.213.02-8.844.02-8.844a12.789,12.789,0,0,0,4.783.921H91.808v8.375a1.735,1.735,0,0,0,2.747,1.357L107.279,65.1h5.109A12.807,12.807,0,0,0,125.2,52.321V12.776A12.807,12.807,0,0,0,112.387,0Z"/>
    <path id="Trazado_120655" data-name="Trazado 120655" d="M290.551,54.73a3.561,3.561,0,0,0-4.381,3.4,10.039,10.039,0,0,1-2.512,6.646l-4.708,5.327a1.706,1.706,0,0,0-1.431-.777h-9.191a1.709,1.709,0,0,0-1.709,1.709V91.716a1.709,1.709,0,0,0,1.709,1.709h9.191a1.708,1.708,0,0,0,1.553-1,11.939,11.939,0,0,0,6.211,1.752h16.243a4.472,4.472,0,0,0,4.413-4.629c-.052-1.1,0-15.817,0-16.144a4.422,4.422,0,0,0-4.413-4.418l-8.446-.025.35-.828a13.342,13.342,0,0,0-.7-11.741,3.482,3.482,0,0,0-2.18-1.66ZM275.81,90.008h-5.773V72.746h5.773Zm25.716-17.6a1,1,0,0,1,1,1c0,.325,0,1.208-.008,2.4-.025,6.605-.042,12.861.007,13.9a1,1,0,0,1-1,1.051H285.283a8.508,8.508,0,0,1-5.336-1.889l-.719-.582V74.953l6.992-7.912a13.454,13.454,0,0,0,3.368-8.908.1.1,0,0,1,.176-.046,9.9,9.9,0,0,1,.522,8.716L288.937,70a1.709,1.709,0,0,0,1.569,2.374Z" transform="translate(-193.727 -42.106)"/>
    <path id="Trazado_120656" data-name="Trazado 120656" d="M74.16,208.763a1.709,1.709,0,0,0,0,3.417H79.2l-.941,5.691a1.709,1.709,0,1,0,3.372.557l1.033-6.248h4.122l-.941,5.691a1.709,1.709,0,1,0,3.372.557l1.033-6.248H97.1a1.709,1.709,0,1,0,0-3.417H90.811L91.5,204.6h5.6a1.709,1.709,0,1,0,0-3.417H92.066l.941-5.691a1.709,1.709,0,1,0-3.372-.558L88.6,201.178H84.48l.941-5.691a1.709,1.709,0,0,0-3.372-.558l-1.033,6.248H74.16a1.709,1.709,0,0,0,0,3.417h6.291l-.689,4.168Zm9.755-4.168h4.122l-.689,4.168H83.226Z" transform="translate(-43.797 -149.413)"/>
    <path id="Trazado_120657" data-name="Trazado 120657" d="M229.685,369.764a5.746,5.746,0,0,0-5.057-1.136,6.357,6.357,0,0,0-4.741,6.415,8.389,8.389,0,0,0,2.525,6.005,25.068,25.068,0,0,0,6.493,4.479,1.708,1.708,0,0,0,1.6,0c5.413-2.87,9.018-5.75,9.018-10.484a6.316,6.316,0,0,0-4.909-6.381A5.73,5.73,0,0,0,229.685,369.764Zm6.421,5.278c0,2.553-1.693,4.441-6.4,7.032-4.707-2.591-6.4-4.479-6.4-7.032a2.923,2.923,0,0,1,2.13-3.094,2.562,2.562,0,0,1,.6-.072,2.358,2.358,0,0,1,2.151,1.375,1.709,1.709,0,0,0,3.067-.061,2.221,2.221,0,0,1,2.62-1.193A2.89,2.89,0,0,1,236.106,375.043Z" transform="translate(-157.643 -284.51)"/>
  </g>
</svg>
