<svg xmlns="http://www.w3.org/2000/svg" xmlns:xlink="http://www.w3.org/1999/xlink" width="295" height="284" viewBox="0 0 295 284">
  <defs>
    <clipPath id="clip-path">
      <rect id="Rect치ngulo_34645" data-name="Rect치ngulo 34645" width="125" height="125" transform="translate(580 9299)" fill="#fff" stroke="#707070" stroke-width="1"/>
    </clipPath>
  </defs>
  <g id="Grupo_93656" data-name="Grupo 93656" transform="translate(-495 -9231)">
    <rect id="Rect치ngulo_34637" data-name="Rect치ngulo 34637" width="295" height="284" transform="translate(495 9231)" fill="#764cf0"/>
    <path id="Trazado_122983" data-name="Trazado 122983" d="M-70.422-4.342V0h-3.085V-12.8H-68.4a5.948,5.948,0,0,1,2.6.541,4.074,4.074,0,0,1,1.749,1.538,4.2,4.2,0,0,1,.62,2.263,3.7,3.7,0,0,1-1.34,2.993,5.561,5.561,0,0,1-3.678,1.121Zm0-2.382H-68.4a1.906,1.906,0,0,0,1.367-.448,1.665,1.665,0,0,0,.47-1.266,2.059,2.059,0,0,0-.483-1.433,1.712,1.712,0,0,0-1.318-.545h-2.057Zm14.247-.105-.976-.07a1.752,1.752,0,0,0-1.793.879V0h-2.962V-9.51h2.777l.1,1.222a2.294,2.294,0,0,1,2.083-1.4,2.888,2.888,0,0,1,.826.105Zm.378,1.986a5.613,5.613,0,0,1,.554-2.536,3.96,3.96,0,0,1,1.591-1.709,4.791,4.791,0,0,1,2.435-.6,4.373,4.373,0,0,1,3.366,1.323,5.076,5.076,0,0,1,1.23,3.6v.105a4.925,4.925,0,0,1-1.235,3.529A4.384,4.384,0,0,1-51.2.176a4.434,4.434,0,0,1-3.261-1.217,4.761,4.761,0,0,1-1.327-3.3Zm2.962.185a3.538,3.538,0,0,0,.413,1.934,1.376,1.376,0,0,0,1.222.615q1.582,0,1.617-2.435v-.3q0-2.558-1.635-2.558-1.485,0-1.608,2.206Zm7.146-.167a5.809,5.809,0,0,1,.976-3.56,3.211,3.211,0,0,1,2.725-1.3,2.731,2.731,0,0,1,2.145,1V-13.5h2.971V0h-2.663l-.149-1.02a2.8,2.8,0,0,1-2.32,1.2,3.205,3.205,0,0,1-2.689-1.3A5.993,5.993,0,0,1-45.69-4.825Zm2.962.185q0,2.531,1.477,2.531a1.458,1.458,0,0,0,1.406-.826V-6.557A1.419,1.419,0,0,0-41.234-7.4q-1.371,0-1.485,2.215Zm13.2,3.612a3.054,3.054,0,0,1-2.54,1.2,3,3,0,0,1-2.369-.91,3.826,3.826,0,0,1-.8-2.615V-9.51h2.962v6.179a1.065,1.065,0,0,0,1.187,1.222,1.548,1.548,0,0,0,1.45-.729V-9.51h2.979V0h-2.777Zm8.508-1.081a1.317,1.317,0,0,0,.967-.338,1.241,1.241,0,0,0,.334-.945h2.777A3.288,3.288,0,0,1-18.062-.826a4.168,4.168,0,0,1-2.887,1,4.22,4.22,0,0,1-3.27-1.3,5.125,5.125,0,0,1-1.2-3.6v-.123A5.792,5.792,0,0,1-24.882-7.4a3.872,3.872,0,0,1,1.534-1.7,4.573,4.573,0,0,1,2.373-.593,4.116,4.116,0,0,1,2.944,1.028,3.647,3.647,0,0,1,1.09,2.786h-2.777A1.626,1.626,0,0,0-20.079-7a1.244,1.244,0,0,0-.967-.4q-1.151,0-1.345,1.468a10.357,10.357,0,0,0-.062,1.283,4.068,4.068,0,0,0,.343,1.986A1.187,1.187,0,0,0-21.019-2.109Zm8.78-9.765V-9.51h1.564v2.057h-1.564V-3.1a1.111,1.111,0,0,0,.193.747,1.037,1.037,0,0,0,.765.211,4.345,4.345,0,0,0,.738-.053V-.079a5.466,5.466,0,0,1-1.67.255,3.1,3.1,0,0,1-2.259-.721A2.954,2.954,0,0,1-15.2-2.733v-4.72h-1.213V-9.51H-15.2v-2.364Zm2.092,7.031a5.613,5.613,0,0,1,.554-2.536A3.96,3.96,0,0,1-8-9.088a4.791,4.791,0,0,1,2.435-.6A4.373,4.373,0,0,1-2.2-8.363a5.076,5.076,0,0,1,1.23,3.6v.105A4.925,4.925,0,0,1-2.206-1.129,4.384,4.384,0,0,1-5.55.176,4.434,4.434,0,0,1-8.811-1.042a4.761,4.761,0,0,1-1.327-3.3Zm2.962.185a3.538,3.538,0,0,0,.413,1.934,1.376,1.376,0,0,0,1.222.615q1.582,0,1.617-2.435v-.3q0-2.558-1.635-2.558-1.485,0-1.608,2.206Zm12.5,1.986a.684.684,0,0,0-.4-.606,6.016,6.016,0,0,0-1.5-.475A6.853,6.853,0,0,1,1.586-4.4a3.062,3.062,0,0,1-1.1-.971A2.319,2.319,0,0,1,.11-6.68,2.628,2.628,0,0,1,1.191-8.837a4.453,4.453,0,0,1,2.83-.848,4.934,4.934,0,0,1,3.023.853A2.666,2.666,0,0,1,8.187-6.592H5.216q0-1.143-1.2-1.143a1.194,1.194,0,0,0-.782.259.8.8,0,0,0-.316.646.737.737,0,0,0,.387.642,3.654,3.654,0,0,0,1.235.4,10.671,10.671,0,0,1,1.49.378A2.706,2.706,0,0,1,8.169-2.76,2.491,2.491,0,0,1,7.014-.642,5.068,5.068,0,0,1,4.021.176a5.172,5.172,0,0,1-2.18-.439,3.645,3.645,0,0,1-1.494-1.2A2.707,2.707,0,0,1-.189-3.05H2.58a1.145,1.145,0,0,0,.439.962,1.808,1.808,0,0,0,1.081.3,1.422,1.422,0,0,0,.91-.246A.787.787,0,0,0,5.313-2.672ZM18.637.176A4.889,4.889,0,0,1,15.1-1.129a4.507,4.507,0,0,1-1.354-3.4v-.246a5.84,5.84,0,0,1,.541-2.575A3.955,3.955,0,0,1,15.86-9.075a4.763,4.763,0,0,1,2.461-.611,4.117,4.117,0,0,1,3.164,1.244,4.887,4.887,0,0,1,1.16,3.467v1.151H16.756a2.135,2.135,0,0,0,.694,1.257,2.066,2.066,0,0,0,1.389.457,2.662,2.662,0,0,0,2.2-.984l1.354,1.6A3.784,3.784,0,0,1,20.821-.277,5.3,5.3,0,0,1,18.637.176ZM18.3-7.4q-1.3,0-1.547,1.723h2.988v-.229a1.467,1.467,0,0,0-.36-1.1A1.434,1.434,0,0,0,18.3-7.4ZM28.815-2.672a.684.684,0,0,0-.4-.606,6.016,6.016,0,0,0-1.5-.475A6.853,6.853,0,0,1,25.088-4.4a3.062,3.062,0,0,1-1.1-.971,2.319,2.319,0,0,1-.378-1.31,2.628,2.628,0,0,1,1.081-2.158,4.453,4.453,0,0,1,2.83-.848,4.934,4.934,0,0,1,3.023.853,2.666,2.666,0,0,1,1.143,2.241H28.718q0-1.143-1.2-1.143a1.194,1.194,0,0,0-.782.259.8.8,0,0,0-.316.646.737.737,0,0,0,.387.642,3.654,3.654,0,0,0,1.235.4,10.671,10.671,0,0,1,1.49.378A2.706,2.706,0,0,1,31.671-2.76,2.491,2.491,0,0,1,30.516-.642a5.068,5.068,0,0,1-2.993.817,5.172,5.172,0,0,1-2.18-.439,3.645,3.645,0,0,1-1.494-1.2,2.707,2.707,0,0,1-.536-1.591h2.769a1.145,1.145,0,0,0,.439.962,1.808,1.808,0,0,0,1.081.3,1.422,1.422,0,0,0,.91-.246A.787.787,0,0,0,28.815-2.672Zm7.69-9.2V-9.51H38.07v2.057H36.505V-3.1a1.111,1.111,0,0,0,.193.747,1.037,1.037,0,0,0,.765.211A4.345,4.345,0,0,0,38.2-2.2V-.079a5.466,5.466,0,0,1-1.67.255,3.1,3.1,0,0,1-2.259-.721,2.954,2.954,0,0,1-.729-2.188v-4.72H32.331V-9.51h1.213v-2.364Zm8.481,5.045-.976-.07a1.752,1.752,0,0,0-1.793.879V0H39.256V-9.51h2.777l.1,1.222a2.294,2.294,0,0,1,2.083-1.4,2.888,2.888,0,0,1,.826.105Zm5.669,7a4.889,4.889,0,0,1-3.542-1.305,4.507,4.507,0,0,1-1.354-3.4v-.246A5.84,5.84,0,0,1,46.3-7.348a3.955,3.955,0,0,1,1.578-1.727,4.763,4.763,0,0,1,2.461-.611A4.117,4.117,0,0,1,53.5-8.442a4.887,4.887,0,0,1,1.16,3.467v1.151H48.775a2.135,2.135,0,0,0,.694,1.257,2.066,2.066,0,0,0,1.389.457,2.662,2.662,0,0,0,2.2-.984l1.354,1.6A3.784,3.784,0,0,1,52.84-.277,5.3,5.3,0,0,1,50.656.176ZM50.322-7.4q-1.3,0-1.547,1.723h2.988v-.229a1.467,1.467,0,0,0-.36-1.1A1.434,1.434,0,0,0,50.322-7.4ZM58.979,0H56.008V-13.5h2.971Zm4.948,0H60.957V-13.5h2.971Zm7.181,0a3.344,3.344,0,0,1-.281-.853A2.754,2.754,0,0,1,68.542.176a3.374,3.374,0,0,1-2.285-.813,2.588,2.588,0,0,1-.94-2.043,2.66,2.66,0,0,1,1.143-2.338,5.821,5.821,0,0,1,3.322-.791h.914v-.5q0-1.316-1.134-1.316a.927.927,0,0,0-1.055,1.042H65.544a2.655,2.655,0,0,1,1.173-2.239,4.931,4.931,0,0,1,2.993-.86,4.323,4.323,0,0,1,2.874.888,3.086,3.086,0,0,1,1.081,2.435v4.21a4.311,4.311,0,0,0,.4,2V0ZM69.253-1.934a1.652,1.652,0,0,0,.918-.237,1.487,1.487,0,0,0,.523-.536V-4.228h-.861q-1.547,0-1.547,1.389a.848.848,0,0,0,.272.655A.986.986,0,0,0,69.253-1.934Z" transform="translate(643 9466.5)" fill="#fff"/>
    <g id="Enmascarar_grupo_212" data-name="Enmascarar grupo 212" clip-path="url(#clip-path)">
      <g id="estrella" transform="translate(580 9299)">
        <path id="Trazado_120462" data-name="Trazado 120462" d="M120.3,46.446,81,42.8,65.392,6.551a3.149,3.149,0,0,0-5.785,0L44,42.8,4.7,46.445a3.149,3.149,0,0,0-1.788,5.5L32.562,78l-8.678,38.5a3.149,3.149,0,0,0,4.68,3.4L62.5,99.747,96.436,119.9a3.149,3.149,0,0,0,4.68-3.4L92.438,78l29.651-26.048A3.149,3.149,0,0,0,120.3,46.446Z" fill="#ffdc64"/>
        <path id="Trazado_120463" data-name="Trazado 120463" d="M65.392,6.551a3.149,3.149,0,0,0-5.785,0L44,42.8,4.7,46.445a3.149,3.149,0,0,0-1.788,5.5L32.562,78l-8.678,38.5a3.149,3.149,0,0,0,4.68,3.4l7.574-4.5c1.048-43.153,21.1-73.541,36.973-90.926Z" fill="#ffc850"/>
        <path id="Trazado_120464" data-name="Trazado 120464" d="M124.748,48.042a4.914,4.914,0,0,0-4.277-3.42L82.254,41.078,74.679,23.487a1.831,1.831,0,0,0-3.363,1.448l8.006,18.59a1.831,1.831,0,0,0,1.513,1.1l39.3,3.645a1.318,1.318,0,0,1,.749,2.3L91.23,76.62a1.83,1.83,0,0,0-.578,1.778l8.678,38.5a1.319,1.319,0,0,1-1.959,1.424L63.435,98.173a1.832,1.832,0,0,0-1.869,0L27.629,118.323a1.319,1.319,0,0,1-1.959-1.423l4.479-19.875a1.831,1.831,0,0,0-3.572-.805L22.1,116.1a4.98,4.98,0,0,0,7.4,5.377l33-19.6,33,19.6a4.913,4.913,0,0,0,5.469-.253,4.913,4.913,0,0,0,1.931-5.124L94.463,78.653,123.3,53.323A4.913,4.913,0,0,0,124.748,48.042Z"/>
        <path id="Trazado_120465" data-name="Trazado 120465" d="M28.341,88.393a1.831,1.831,0,1,0,3.572.805l2.434-10.8a1.83,1.83,0,0,0-.578-1.778L4.119,50.572a1.318,1.318,0,0,1,.749-2.3l39.3-3.645a1.831,1.831,0,0,0,1.513-1.1L61.289,7.276a1.318,1.318,0,0,1,2.422,0l4.24,9.845a1.831,1.831,0,0,0,3.363-1.448l-4.24-9.846a4.98,4.98,0,0,0-9.148,0L42.745,41.078,4.529,44.622a4.98,4.98,0,0,0-2.827,8.7L30.536,78.654Z"/>
      </g>
    </g>
  </g>
</svg>
