<svg xmlns="http://www.w3.org/2000/svg" xmlns:xlink="http://www.w3.org/1999/xlink" width="295" height="284" viewBox="0 0 295 284">
  <defs>
    <clipPath id="clip-path">
      <rect id="Rect치ngulo_34648" data-name="Rect치ngulo 34648" width="125" height="125" transform="translate(580 9615)" fill="#fff" stroke="#707070" stroke-width="1"/>
    </clipPath>
  </defs>
  <g id="Grupo_93659" data-name="Grupo 93659" transform="translate(-495 -9535)">
    <rect id="Rect치ngulo_34640" data-name="Rect치ngulo 34640" width="295" height="284" transform="translate(495 9535)" fill="#ffd41c"/>
    <path id="Trazado_122985" data-name="Trazado 122985" d="M-90.927-4.342V0h-3.085V-12.8h5.106a5.948,5.948,0,0,1,2.6.541,4.074,4.074,0,0,1,1.749,1.538,4.2,4.2,0,0,1,.62,2.263,3.7,3.7,0,0,1-1.34,2.993,5.561,5.561,0,0,1-3.678,1.121Zm0-2.382h2.021a1.906,1.906,0,0,0,1.367-.448,1.665,1.665,0,0,0,.47-1.266,2.059,2.059,0,0,0-.483-1.433,1.712,1.712,0,0,0-1.318-.545h-2.057Zm14.247-.105-.976-.07a1.752,1.752,0,0,0-1.793.879V0h-2.962V-9.51h2.777l.1,1.222a2.294,2.294,0,0,1,2.083-1.4,2.888,2.888,0,0,1,.826.105Zm.378,1.986a5.613,5.613,0,0,1,.554-2.536,3.96,3.96,0,0,1,1.591-1.709,4.791,4.791,0,0,1,2.435-.6,4.373,4.373,0,0,1,3.366,1.323,5.076,5.076,0,0,1,1.23,3.6v.105a4.925,4.925,0,0,1-1.235,3.529A4.384,4.384,0,0,1-71.706.176a4.434,4.434,0,0,1-3.261-1.217,4.761,4.761,0,0,1-1.327-3.3Zm2.962.185a3.538,3.538,0,0,0,.413,1.934,1.376,1.376,0,0,0,1.222.615q1.582,0,1.617-2.435v-.3q0-2.558-1.635-2.558-1.485,0-1.608,2.206Zm7.146-.167a5.809,5.809,0,0,1,.976-3.56,3.211,3.211,0,0,1,2.725-1.3,2.731,2.731,0,0,1,2.145,1V-13.5h2.971V0h-2.663l-.149-1.02a2.8,2.8,0,0,1-2.32,1.2,3.205,3.205,0,0,1-2.689-1.3A5.993,5.993,0,0,1-66.195-4.825Zm2.962.185q0,2.531,1.477,2.531a1.458,1.458,0,0,0,1.406-.826V-6.557A1.419,1.419,0,0,0-61.739-7.4q-1.371,0-1.485,2.215Zm13.2,3.612a3.054,3.054,0,0,1-2.54,1.2,3,3,0,0,1-2.369-.91,3.826,3.826,0,0,1-.8-2.615V-9.51h2.962v6.179A1.065,1.065,0,0,0-51.6-2.109a1.548,1.548,0,0,0,1.45-.729V-9.51h2.979V0h-2.777Zm8.508-1.081a1.317,1.317,0,0,0,.967-.338,1.241,1.241,0,0,0,.334-.945h2.777A3.288,3.288,0,0,1-38.566-.826a4.168,4.168,0,0,1-2.887,1,4.22,4.22,0,0,1-3.27-1.3,5.125,5.125,0,0,1-1.2-3.6v-.123A5.792,5.792,0,0,1-45.387-7.4a3.872,3.872,0,0,1,1.534-1.7,4.573,4.573,0,0,1,2.373-.593,4.116,4.116,0,0,1,2.944,1.028,3.647,3.647,0,0,1,1.09,2.786h-2.777A1.626,1.626,0,0,0-40.583-7a1.244,1.244,0,0,0-.967-.4Q-42.7-7.4-42.9-5.933a10.357,10.357,0,0,0-.062,1.283,4.068,4.068,0,0,0,.343,1.986A1.187,1.187,0,0,0-41.524-2.109Zm8.78-9.765V-9.51h1.564v2.057h-1.564V-3.1a1.111,1.111,0,0,0,.193.747,1.037,1.037,0,0,0,.765.211,4.345,4.345,0,0,0,.738-.053V-.079a5.466,5.466,0,0,1-1.67.255,3.1,3.1,0,0,1-2.259-.721,2.954,2.954,0,0,1-.729-2.188v-4.72h-1.213V-9.51h1.213v-2.364Zm2.092,7.031A5.613,5.613,0,0,1-30.1-7.378a3.96,3.96,0,0,1,1.591-1.709,4.791,4.791,0,0,1,2.435-.6,4.373,4.373,0,0,1,3.366,1.323,5.076,5.076,0,0,1,1.23,3.6v.105a4.925,4.925,0,0,1-1.235,3.529A4.384,4.384,0,0,1-26.055.176a4.434,4.434,0,0,1-3.261-1.217,4.761,4.761,0,0,1-1.327-3.3Zm2.962.185a3.538,3.538,0,0,0,.413,1.934,1.376,1.376,0,0,0,1.222.615q1.582,0,1.617-2.435v-.3q0-2.558-1.635-2.558-1.485,0-1.608,2.206Zm12.5,1.986a.684.684,0,0,0-.4-.606,6.016,6.016,0,0,0-1.5-.475A6.853,6.853,0,0,1-18.918-4.4a3.062,3.062,0,0,1-1.1-.971A2.319,2.319,0,0,1-20.4-6.68a2.628,2.628,0,0,1,1.081-2.158,4.453,4.453,0,0,1,2.83-.848,4.934,4.934,0,0,1,3.023.853,2.666,2.666,0,0,1,1.143,2.241h-2.971q0-1.143-1.2-1.143a1.194,1.194,0,0,0-.782.259.8.8,0,0,0-.316.646.737.737,0,0,0,.387.642,3.654,3.654,0,0,0,1.235.4,10.671,10.671,0,0,1,1.49.378A2.706,2.706,0,0,1-12.335-2.76,2.491,2.491,0,0,1-13.491-.642a5.068,5.068,0,0,1-2.993.817,5.172,5.172,0,0,1-2.18-.439,3.645,3.645,0,0,1-1.494-1.2,2.707,2.707,0,0,1-.536-1.591h2.769a1.145,1.145,0,0,0,.439.962,1.808,1.808,0,0,0,1.081.3,1.422,1.422,0,0,0,.91-.246A.787.787,0,0,0-15.192-2.672Zm12.516-.853,1.5-5.985h3.12L-1.156,0H-4.179l-3.1-9.51h3.129ZM8.055,0a3.344,3.344,0,0,1-.281-.853A2.754,2.754,0,0,1,5.489.176,3.374,3.374,0,0,1,3.2-.637a2.588,2.588,0,0,1-.94-2.043A2.66,2.66,0,0,1,3.406-5.019,5.821,5.821,0,0,1,6.728-5.81h.914v-.5q0-1.316-1.134-1.316A.927.927,0,0,0,5.454-6.587H2.492A2.655,2.655,0,0,1,3.665-8.825a4.931,4.931,0,0,1,2.993-.86A4.323,4.323,0,0,1,9.532-8.8a3.086,3.086,0,0,1,1.081,2.435v4.21a4.311,4.311,0,0,0,.4,2V0ZM6.2-1.934a1.652,1.652,0,0,0,.918-.237,1.487,1.487,0,0,0,.523-.536V-4.228H6.781q-1.547,0-1.547,1.389a.848.848,0,0,0,.272.655A.986.986,0,0,0,6.2-1.934Zm10.072-.176a1.317,1.317,0,0,0,.967-.338,1.241,1.241,0,0,0,.334-.945h2.777A3.288,3.288,0,0,1,19.23-.826a4.168,4.168,0,0,1-2.887,1,4.22,4.22,0,0,1-3.27-1.3,5.125,5.125,0,0,1-1.2-3.6v-.123A5.792,5.792,0,0,1,12.41-7.4a3.872,3.872,0,0,1,1.534-1.7,4.573,4.573,0,0,1,2.373-.593,4.116,4.116,0,0,1,2.944,1.028,3.647,3.647,0,0,1,1.09,2.786H17.574A1.626,1.626,0,0,0,17.213-7a1.244,1.244,0,0,0-.967-.4Q15.1-7.4,14.9-5.933a10.357,10.357,0,0,0-.062,1.283,4.068,4.068,0,0,0,.343,1.986A1.187,1.187,0,0,0,16.273-2.109ZM26.96,0a3.344,3.344,0,0,1-.281-.853A2.754,2.754,0,0,1,24.394.176a3.374,3.374,0,0,1-2.285-.813,2.588,2.588,0,0,1-.94-2.043,2.66,2.66,0,0,1,1.143-2.338,5.821,5.821,0,0,1,3.322-.791h.914v-.5q0-1.316-1.134-1.316a.927.927,0,0,0-1.055,1.042H21.4A2.655,2.655,0,0,1,22.57-8.825a4.931,4.931,0,0,1,2.993-.86,4.323,4.323,0,0,1,2.874.888,3.086,3.086,0,0,1,1.081,2.435v4.21a4.311,4.311,0,0,0,.4,2V0ZM25.106-1.934a1.652,1.652,0,0,0,.918-.237,1.487,1.487,0,0,0,.523-.536V-4.228h-.861q-1.547,0-1.547,1.389a.848.848,0,0,0,.272.655A.986.986,0,0,0,25.106-1.934ZM38.764,0H35.793V-13.5h2.971Zm6.425.176a4.889,4.889,0,0,1-3.542-1.305,4.507,4.507,0,0,1-1.354-3.4v-.246a5.84,5.84,0,0,1,.541-2.575,3.955,3.955,0,0,1,1.578-1.727,4.763,4.763,0,0,1,2.461-.611,4.117,4.117,0,0,1,3.164,1.244A4.887,4.887,0,0,1,49.2-4.975v1.151H43.308A2.135,2.135,0,0,0,44-2.566a2.066,2.066,0,0,0,1.389.457,2.662,2.662,0,0,0,2.2-.984l1.354,1.6A3.784,3.784,0,0,1,47.373-.277,5.3,5.3,0,0,1,45.189.176ZM44.855-7.4q-1.3,0-1.547,1.723H46.3v-.229a1.467,1.467,0,0,0-.36-1.1A1.434,1.434,0,0,0,44.855-7.4Zm9.554,5.291a1.317,1.317,0,0,0,.967-.338,1.241,1.241,0,0,0,.334-.945h2.777A3.288,3.288,0,0,1,57.366-.826a4.168,4.168,0,0,1-2.887,1,4.22,4.22,0,0,1-3.27-1.3,5.125,5.125,0,0,1-1.2-3.6v-.123A5.792,5.792,0,0,1,50.546-7.4a3.872,3.872,0,0,1,1.534-1.7,4.573,4.573,0,0,1,2.373-.593A4.116,4.116,0,0,1,57.4-8.657a3.647,3.647,0,0,1,1.09,2.786H55.709A1.626,1.626,0,0,0,55.349-7a1.244,1.244,0,0,0-.967-.4q-1.151,0-1.345,1.468a10.357,10.357,0,0,0-.062,1.283,4.068,4.068,0,0,0,.343,1.986A1.187,1.187,0,0,0,54.409-2.109ZM62.635-8.49a2.964,2.964,0,0,1,2.426-1.2,2.956,2.956,0,0,1,2.373.932A4.186,4.186,0,0,1,68.251-6V0H65.281V-5.933a1.674,1.674,0,0,0-.308-1.112A1.322,1.322,0,0,0,63.927-7.4a1.424,1.424,0,0,0-1.292.58V0H59.673V-13.5h2.962ZM74.5.176a4.889,4.889,0,0,1-3.542-1.305,4.507,4.507,0,0,1-1.354-3.4v-.246a5.84,5.84,0,0,1,.541-2.575,3.955,3.955,0,0,1,1.578-1.727,4.763,4.763,0,0,1,2.461-.611,4.117,4.117,0,0,1,3.164,1.244,4.887,4.887,0,0,1,1.16,3.467v1.151H72.62a2.135,2.135,0,0,0,.694,1.257,2.066,2.066,0,0,0,1.389.457,2.662,2.662,0,0,0,2.2-.984l1.354,1.6A3.784,3.784,0,0,1,76.685-.277,5.3,5.3,0,0,1,74.5.176ZM74.167-7.4q-1.3,0-1.547,1.723h2.988v-.229a1.467,1.467,0,0,0-.36-1.1A1.434,1.434,0,0,0,74.167-7.4Zm11.285.571-.976-.07a1.752,1.752,0,0,0-1.793.879V0H79.721V-9.51H82.5l.1,1.222a2.294,2.294,0,0,1,2.083-1.4,2.888,2.888,0,0,1,.826.105ZM91.613,0a3.344,3.344,0,0,1-.281-.853A2.754,2.754,0,0,1,89.046.176a3.374,3.374,0,0,1-2.285-.813,2.588,2.588,0,0,1-.94-2.043,2.66,2.66,0,0,1,1.143-2.338,5.821,5.821,0,0,1,3.322-.791H91.2v-.5q0-1.316-1.134-1.316a.927.927,0,0,0-1.055,1.042H86.049a2.655,2.655,0,0,1,1.173-2.239,4.931,4.931,0,0,1,2.993-.86,4.323,4.323,0,0,1,2.874.888A3.086,3.086,0,0,1,94.17-6.363v4.21a4.311,4.311,0,0,0,.4,2V0ZM89.758-1.934a1.652,1.652,0,0,0,.918-.237,1.487,1.487,0,0,0,.523-.536V-4.228h-.861q-1.547,0-1.547,1.389a.848.848,0,0,0,.272.655A.986.986,0,0,0,89.758-1.934Z" transform="translate(643 9780.5)" fill="#21155c"/>
    <g id="Enmascarar_grupo_214" data-name="Enmascarar grupo 214" clip-path="url(#clip-path)">
      <g id="vaca" transform="translate(580 9615)">
        <g id="Grupo_93599" data-name="Grupo 93599">
          <path id="Trazado_120485" data-name="Trazado 120485" d="M103.523,33.21,92.805,14.151c7.326-2.763,15.571-5.52,23.531-5.044a8.6,8.6,0,0,1,5.135,1.933c2.75,2.527,1.463,6.413-.5,8.977a38.673,38.673,0,0,1-9.378,8.159c-.612.413-7.9,5.34-8.069,5.034Z" fill="#c6c6c6"/>
        </g>
        <g id="Grupo_93600" data-name="Grupo 93600">
          <path id="Trazado_120486" data-name="Trazado 120486" d="M116.337,16.257a8.6,8.6,0,0,1,5.135,1.933,5.255,5.255,0,0,1,.417.431c1.365-2.439,1.87-5.479-.417-7.581a8.6,8.6,0,0,0-5.135-1.933c-7.96-.476-16.206,2.281-23.531,5.044l3.333,5.926c6.444-2.289,13.424-4.225,20.2-3.82Z" fill="#b7b7b7"/>
        </g>
        <g id="Grupo_93601" data-name="Grupo 93601">
          <path id="Trazado_120487" data-name="Trazado 120487" d="M21.477,33.21,32.195,14.151c-7.326-2.763-15.571-5.52-23.531-5.044a8.6,8.6,0,0,0-5.135,1.933c-2.75,2.527-1.463,6.414.5,8.977a38.673,38.673,0,0,0,9.378,8.159c.612.413,7.9,5.34,8.069,5.034Z" fill="#c6c6c6"/>
        </g>
        <g id="Grupo_93602" data-name="Grupo 93602">
          <path id="Trazado_120488" data-name="Trazado 120488" d="M5.316,17.882a8.6,8.6,0,0,1,5.135-1.933c6.3-.377,12.786,1.274,18.85,3.35l2.894-5.146c-7.326-2.763-15.571-5.52-23.531-5.044a8.6,8.6,0,0,0-5.135,1.933c-2.724,2.5-1.487,6.338.446,8.9a4.75,4.75,0,0,1,1.342-2.061Z" fill="#b7b7b7"/>
        </g>
        <g id="Grupo_93603" data-name="Grupo 93603">
          <ellipse id="Elipse_5437" data-name="Elipse 5437" cx="52.041" cy="56.855" rx="52.041" ry="56.855" transform="translate(10.312 1.831)" fill="#fff8e6"/>
        </g>
        <g id="Grupo_93604" data-name="Grupo 93604">
          <path id="Trazado_120489" data-name="Trazado 120489" d="M32.195,60.136c0-28.485,19.174-52.076,44.191-56.212A47.964,47.964,0,0,0,62.354,1.831c-28.741,0-52.041,25.455-52.041,56.855s23.3,56.855,52.041,56.855a48.112,48.112,0,0,0,7.85-.644c-21.925-6.691-38.009-28.673-38.009-54.762Z" fill="#fff1cf"/>
        </g>
        <g id="Grupo_93605" data-name="Grupo 93605">
          <path id="Trazado_120490" data-name="Trazado 120490" d="M105.214,26.437C95.827,11.574,80.133,1.831,62.354,1.831c-.7,0-1.386.02-2.075.049a26.143,26.143,0,0,0,44.935,24.557Z" fill="#575757"/>
        </g>
        <g id="Grupo_93606" data-name="Grupo 93606">
          <path id="Trazado_120491" data-name="Trazado 120491" d="M60.279,1.88a26.1,26.1,0,0,0-1.143,7.661c0,.259,0,.517.012.774A48.791,48.791,0,0,1,76.386,3.925a48.026,48.026,0,0,0-6.852-1.555l-.057-.008q-.391-.059-.783-.11l-.16-.021q-.341-.044-.684-.083l-.224-.025q-.312-.034-.625-.065l-.265-.025q-.295-.027-.59-.05l-.29-.023c-.191-.014-.382-.026-.573-.038L64.977,1.9c-.189-.01-.379-.019-.568-.027L64.1,1.864c-.2-.007-.4-.012-.606-.017l-.267-.007q-.437-.008-.875-.008c-.363,0-.724.007-1.085.015q-.5.012-.99.034Z" fill="#454545"/>
        </g>
        <g id="Grupo_93607" data-name="Grupo 93607">
          <path id="Trazado_120492" data-name="Trazado 120492" d="M18.653,37.777a26.812,26.812,0,0,0-4.864.446,61.374,61.374,0,0,0-3.476,20.464,60.266,60.266,0,0,0,9.361,32.535c.083-.031.167-.062.25-.094a26.69,26.69,0,0,0-1.271-53.35Z" fill="#575757"/>
        </g>
        <g id="Grupo_93608" data-name="Grupo 93608">
          <path id="Trazado_120493" data-name="Trazado 120493" d="M32.195,60.136a61.679,61.679,0,0,1,2.393-17.082,26.709,26.709,0,0,0-20.8-4.832,61.374,61.374,0,0,0-3.476,20.464,60.266,60.266,0,0,0,9.361,32.535c.083-.031.167-.062.25-.094A26.594,26.594,0,0,0,36.947,83.9a61.071,61.071,0,0,1-4.752-23.763Z" fill="#454545"/>
        </g>
        <g id="Grupo_93609" data-name="Grupo 93609">
          <path id="Trazado_120494" data-name="Trazado 120494" d="M35.864,3.569a4.914,4.914,0,0,0-3.047-.743c-2.113.306-2.758,2.555-2.657,4.4a22.1,22.1,0,0,0,1.8,6.874c.156.392,2.006,5.067,2.185,4.977a11.956,11.956,0,0,0,11.2-5.539c-2.567-3.666-5.569-7.626-9.48-9.968Z" fill="#ffd3bc"/>
        </g>
        <g id="Grupo_93610" data-name="Grupo 93610">
          <path id="Trazado_120495" data-name="Trazado 120495" d="M37.558,14.1a22.106,22.106,0,0,1-1.8-6.874,5.284,5.284,0,0,1,.773-3.23c-.221-.147-.444-.289-.671-.425a4.914,4.914,0,0,0-3.047-.743c-2.113.306-2.758,2.555-2.657,4.4a22.1,22.1,0,0,0,1.8,6.874c.156.392,2.006,5.067,2.185,4.977a11.1,11.1,0,0,0,5.2-.694C38.739,17.083,37.674,14.392,37.558,14.1Z" fill="#ffbe9c"/>
        </g>
        <g id="Grupo_93611" data-name="Grupo 93611">
          <ellipse id="Elipse_5438" data-name="Elipse 5438" cx="57.143" cy="35.964" rx="57.143" ry="35.964" transform="translate(5.211 51.24)" fill="#ffd3bc"/>
        </g>
        <g id="Grupo_93612" data-name="Grupo 93612">
          <path id="Trazado_120496" data-name="Trazado 120496" d="M88.844,3.569a4.914,4.914,0,0,1,3.047-.743c2.113.306,2.758,2.555,2.657,4.4a22.1,22.1,0,0,1-1.8,6.874c-.156.392-2.006,5.067-2.185,4.977a11.956,11.956,0,0,1-11.2-5.539c2.567-3.666,5.569-7.626,9.48-9.968Z" fill="#ffd3bc"/>
        </g>
        <g id="Grupo_93613" data-name="Grupo 93613">
          <path id="Trazado_120497" data-name="Trazado 120497" d="M86.661,117C55.1,117,29.518,100.9,29.518,81.04c0-12.143,9.563-22.88,24.207-29.392C26.26,54.266,5.211,69.188,5.211,87.2c0,19.863,25.584,35.964,57.143,35.964A81.762,81.762,0,0,0,95.289,116.6c-2.814.268-5.7.408-8.628.408Z" fill="#ffbe9c"/>
        </g>
        <g id="Grupo_93614" data-name="Grupo 93614">
          <path id="Trazado_120498" data-name="Trazado 120498" d="M92.5,7.347a5.55,5.55,0,0,1,2.052-.735c-.062-1.7-.778-3.514-2.661-3.786a4.915,4.915,0,0,0-3.047.743c-3.91,2.342-6.913,6.3-9.48,9.968a13.35,13.35,0,0,0,3.719,3.689c2.553-3.641,5.538-7.555,9.417-9.879Z" fill="#ffbe9c"/>
        </g>
        <g id="Grupo_93615" data-name="Grupo 93615">
          <path id="Trazado_120499" data-name="Trazado 120499" d="M45.636,68.53A4.224,4.224,0,1,1,41.417,64.1,4.331,4.331,0,0,1,45.636,68.53Z" fill="#ffa1ac"/>
        </g>
        <g id="Grupo_93616" data-name="Grupo 93616">
          <path id="Trazado_120500" data-name="Trazado 120500" d="M88,68.53A4.224,4.224,0,1,1,83.777,64.1,4.331,4.331,0,0,1,88,68.53Z" fill="#ffa1ac"/>
        </g>
        <g id="Grupo_93617" data-name="Grupo 93617">
          <path id="Trazado_120501" data-name="Trazado 120501" d="M112.617,29.693a40.559,40.559,0,0,0,9.807-8.562c2.62-3.418,3.725-8.28.287-11.439a10.516,10.516,0,0,0-6.264-2.412c-7.11-.425-14.255,1.577-20.459,3.759a17.733,17.733,0,0,0,.635-3.713c.185-3.382-1.513-5.918-4.224-6.311A6.8,6.8,0,0,0,88.147,2h0a22.48,22.48,0,0,0-3.931,3.041,49.946,49.946,0,0,0-43.4-.156A22.278,22.278,0,0,0,37.048,2h0a6.666,6.666,0,0,0-4.25-.984c-2.711.393-4.408,2.928-4.223,6.311a17.824,17.824,0,0,0,.655,3.789C22.954,8.9,15.723,6.851,8.555,7.279A10.519,10.519,0,0,0,2.289,9.692c-3.437,3.159-2.332,8.021.287,11.439a40.561,40.561,0,0,0,9.807,8.563l.054.036c.79.533,1.555,1.045,2.283,1.528-.108.222-.22.443-.325.667A62.3,62.3,0,0,0,8.482,58.686a64.247,64.247,0,0,0,1.054,11.6A27.343,27.343,0,0,0,3.38,87.2c0,8.663,4.4,16.8,12.735,23.521a1.831,1.831,0,0,0,2.3-2.85C10.975,101.87,7.042,94.722,7.042,87.2c0-8.954,5.64-17.436,15.881-23.881,10.5-6.611,24.508-10.252,39.43-10.252a81.749,81.749,0,0,1,29.332,5.223,1.831,1.831,0,1,0,1.327-3.413,85.449,85.449,0,0,0-30.659-5.472,90.355,90.355,0,0,0-18.414,1.86A28.651,28.651,0,0,0,18.653,35.946c-.671,0-1.344.031-2.017.078A54.924,54.924,0,0,1,30.906,15.8c.245.607.478,1.176.687,1.677,1.005,2.4,1.275,2.985,2.122,3.31a1.842,1.842,0,0,0,.465.111,9.964,9.964,0,0,0,1.3.076,13.911,13.911,0,0,0,11.617-6.4,1.831,1.831,0,0,0-.009-2.088c-1.1-1.568-2.291-3.217-3.623-4.793a46.041,46.041,0,0,1,14.42-3.815,27.97,27.97,0,0,0,47.04,25.557,58.616,58.616,0,0,1,7.638,29.25,60.871,60.871,0,0,1-.539,8.074,50.384,50.384,0,0,0-12.3-8.837,1.831,1.831,0,1,0-1.7,3.244C110.508,67.7,117.665,77.193,117.665,87.2c0,8.954-5.64,17.435-15.881,23.881-10.5,6.611-24.508,10.252-39.431,10.252-13.9,0-27.2-3.22-37.455-9.069a1.831,1.831,0,0,0-1.815,3.181c10.8,6.158,24.742,9.55,39.27,9.55,15.6,0,30.3-3.841,41.382-10.815,11.345-7.14,17.593-16.722,17.593-26.98a27.424,27.424,0,0,0-6.16-16.892,64.26,64.26,0,0,0,1.058-11.626A62.329,62.329,0,0,0,110.393,32.1c-.109-.233-.224-.462-.335-.693.677-.448,1.525-1.013,2.517-1.683ZM90.028,5.14a3.163,3.163,0,0,1,1.844-.5c1.2.174,1.1,2.392,1.092,2.487a20.145,20.145,0,0,1-1.669,6.3l-.011.029c-.722,1.821-1.266,3.119-1.6,3.864A10.156,10.156,0,0,1,81.877,13.5C84.111,10.381,86.748,7.1,90.028,5.14ZM18.653,39.608A24.98,24.98,0,0,1,40.238,52.133a68.109,68.109,0,0,0-19.266,8.091,47.811,47.811,0,0,0-8.291,6.52,60.886,60.886,0,0,1-.537-8.058A59.536,59.536,0,0,1,15.2,39.852a25.037,25.037,0,0,1,3.45-.244ZM16.432,28q-.939-.624-1.946-1.3l-.054-.036c-3.74-2.526-6.694-4.811-8.949-7.755-.33-.431-3.155-4.273-.717-6.514a6.777,6.777,0,0,1,4.006-1.455c6.22-.373,12.665,1.359,18.38,3.333A58.368,58.368,0,0,0,16.432,28ZM33.569,17.437a1.79,1.79,0,0,1,.563-.174A1.825,1.825,0,0,0,33.569,17.437Zm1.941-.119c-.332-.745-.876-2.043-1.6-3.865l-.011-.028a20.139,20.139,0,0,1-1.669-6.3c-.005-.094-.112-2.312,1.091-2.487a1.438,1.438,0,0,1,.205-.014,3.462,3.462,0,0,1,1.639.515h0c3.281,1.965,5.917,5.242,8.152,8.36a10.156,10.156,0,0,1-7.808,3.817ZM85.278,33.835A24.3,24.3,0,0,1,61.686,3.672c.223,0,.445-.01.668-.01A46.04,46.04,0,0,1,81.6,7.853c-1.277,1.528-2.428,3.118-3.489,4.633a1.831,1.831,0,0,0-.009,2.088,13.91,13.91,0,0,0,11.617,6.4,9.962,9.962,0,0,0,1.3-.076,1.836,1.836,0,0,0,.466-.111c.847-.325,1.117-.9,2.122-3.31.173-.413.361-.872.559-1.359a53.636,53.636,0,0,1,8.778,10.117,24.283,24.283,0,0,1-17.66,7.6Zm25.247-7.148c-.833.562-1.559,1.048-2.17,1.453q-.729-1.3-1.52-2.553a1.828,1.828,0,0,0-.144-.229,58.051,58.051,0,0,0-9.059-11.017c5.75-2,12.278-3.783,18.595-3.407a6.776,6.776,0,0,1,4,1.454c2.439,2.242-.386,6.084-.716,6.515-2.256,2.944-5.209,5.229-8.949,7.755Z"/>
          <path id="Trazado_120502" data-name="Trazado 120502" d="M45.411,41.259v2.9a1.831,1.831,0,0,0,3.662,0v-2.9a1.831,1.831,0,0,0-3.662,0Z"/>
          <path id="Trazado_120503" data-name="Trazado 120503" d="M75.634,41.259v2.9a1.831,1.831,0,0,0,3.662,0v-2.9a1.831,1.831,0,0,0-3.662,0Z"/>
          <path id="Trazado_120504" data-name="Trazado 120504" d="M47.468,69.018a6.054,6.054,0,1,0-6.05,6.266A6.168,6.168,0,0,0,47.468,69.018Zm-8.438,0a2.4,2.4,0,1,1,2.388,2.6A2.505,2.505,0,0,1,39.03,69.018Z"/>
          <path id="Trazado_120505" data-name="Trazado 120505" d="M89.827,69.018a6.054,6.054,0,1,0-6.05,6.266A6.167,6.167,0,0,0,89.827,69.018Zm-8.438,0a2.4,2.4,0,1,1,2.388,2.6A2.505,2.505,0,0,1,81.389,69.018Z"/>
          <path id="Trazado_120506" data-name="Trazado 120506" d="M62.475,82.945A7.116,7.116,0,0,0,67.84,80.5,1.831,1.831,0,1,0,65.08,78.1a3.45,3.45,0,0,1-5.208,0A1.831,1.831,0,0,0,57.111,80.5a7.115,7.115,0,0,0,5.364,2.443Z"/>
        </g>
      </g>
    </g>
  </g>
</svg>
