<svg xmlns="http://www.w3.org/2000/svg" width="250.908" height="271.432" viewBox="0 0 250.908 271.432">
  <g id="Grupo_95191" data-name="Grupo 95191" transform="translate(-285 -10667.007)">
    <g id="portafolio_1_" data-name="portafolio (1)" transform="translate(280 10664.507)">
      <path id="Trazado_120927" data-name="Trazado 120927" d="M85.844,8.251v70.4A3.251,3.251,0,0,1,82.593,81.9H64.86a1.59,1.59,0,0,1,.445-.862l13.77-13.77a2.926,2.926,0,0,0,.855-2.061l.094-11.887a2.653,2.653,0,0,0-5.306,0l-.094,8.616a2.276,2.276,0,0,1-.65,1.626l-8.281,8.281a2.751,2.751,0,0,1-3.788.091,2.66,2.66,0,0,1-.033-3.791l3.359-3.359a2.445,2.445,0,0,0,.078-3.407,2.419,2.419,0,0,0-3.459-.042l-7.1,7.1a10.008,10.008,0,0,0-2.9,7.351v6.132H41.482V75.773a9.933,9.933,0,0,0-2.9-7.351l-7.108-7.1a2.419,2.419,0,0,0-3.459.042,2.445,2.445,0,0,0,.078,3.407l3.359,3.359a2.66,2.66,0,0,1-.033,3.791,2.751,2.751,0,0,1-3.788-.091l-8.294-8.281a2.276,2.276,0,0,1-.65-1.626L18.6,53.309a2.653,2.653,0,0,0-5.306,0L13.384,65.2a2.926,2.926,0,0,0,.855,2.061l13.77,13.77a1.626,1.626,0,0,1,.436.878H10.711A3.251,3.251,0,0,1,7.46,78.653V8.251A3.251,3.251,0,0,1,10.711,5H82.593a3.251,3.251,0,0,1,3.251,3.251Z" transform="translate(-1.66 -1.687)" fill="#efefef"/>
      <path id="Trazado_120928" data-name="Trazado 120928" d="M169.7,143.372l-.094,11.907a5.163,5.163,0,0,1-1.515,3.645l-13.028,13.028h-2.8a1.59,1.59,0,0,1,.445-.862l13.77-13.77a2.926,2.926,0,0,0,.855-2.061l.094-11.887a2.653,2.653,0,1,0-5.306,0l-.094,8.616a2.276,2.276,0,0,1-.65,1.626l-8.281,8.281a2.751,2.751,0,0,1-3.788.091,2.66,2.66,0,0,1-.033-3.791l3.359-3.359a2.445,2.445,0,0,0,.078-3.407,2.419,2.419,0,0,0-3.459-.042l-7.1,7.1a10.008,10.008,0,0,0-2.9,7.351v6.132H136.97v-6.174a12.222,12.222,0,0,1,3.577-8.935l7.1-7.1a4.692,4.692,0,1,1,6.565,6.669l-3.359,3.359a.384.384,0,0,0,0,.546.5.5,0,0,0,.6-.068l8.288-8.278.094-8.642a4.929,4.929,0,0,1,9.858.026Z" transform="translate(-89.062 -91.734)" fill="#afafaf"/>
      <path id="Trazado_120929" data-name="Trazado 120929" d="M51.162,165.867V172H48.886v-6.132a9.933,9.933,0,0,0-2.9-7.351l-7.107-7.1a2.419,2.419,0,0,0-3.459.042,2.445,2.445,0,0,0,.078,3.407l3.359,3.359a2.66,2.66,0,0,1-.033,3.791,2.751,2.751,0,0,1-3.788-.091l-8.294-8.281a2.276,2.276,0,0,1-.65-1.626L26,143.4a2.653,2.653,0,1,0-5.306,0l.094,11.887a2.926,2.926,0,0,0,.855,2.061l13.77,13.77a1.626,1.626,0,0,1,.436.878h-2.8L20.046,158.977a5.179,5.179,0,0,1-1.522-3.671l-.094-11.868a4.929,4.929,0,0,1,9.858-.02l.081,8.59,8.278,8.307a.5.5,0,0,0,.6.065.384.384,0,0,0,0-.549L33.9,156.477a4.691,4.691,0,1,1,6.6-6.672l7.1,7.1A12.251,12.251,0,0,1,51.162,165.867Z" transform="translate(-9.063 -91.781)" fill="#afafaf"/>
      <g id="Grupo_93840" data-name="Grupo 93840" transform="translate(8.238 16.715)">
        <path id="Trazado_120930" data-name="Trazado 120930" d="M23.859,230.626H15.773a.813.813,0,1,1,0-1.626h8.086a.813.813,0,1,1,0,1.626Z" transform="translate(-14.96 -169.571)" fill="#fff"/>
        <path id="Trazado_120931" data-name="Trazado 120931" d="M219.063,213.565h-8.571a.813.813,0,1,1,0-1.626h7.745v-7.407a.813.813,0,0,1,1.626,0v8.229a.813.813,0,0,1-.8.8Z" transform="translate(-146.369 -152.511)" fill="#fff"/>
        <path id="Trazado_120932" data-name="Trazado 120932" d="M236.853,75.863a.813.813,0,0,1-.813-.813V47.033a.813.813,0,1,1,1.626,0V75.05A.813.813,0,0,1,236.853,75.863Z" transform="translate(-164.159 -46.22)" fill="#fff"/>
      </g>
      <path id="Trazado_120933" data-name="Trazado 120933" d="M121.789,5H65.54l3.577,8.662a3.251,3.251,0,0,0,3.008,2.013H125.04V8.251A3.251,3.251,0,0,0,121.789,5Z" transform="translate(-40.856 -1.687)" fill="#72c2e9"/>
      <circle id="Elipse_5538" data-name="Elipse 5538" cx="1.863" cy="1.863" r="1.863" transform="translate(75.298 6.802)" fill="#fc5d3d"/>
      <circle id="Elipse_5539" data-name="Elipse 5539" cx="1.863" cy="1.863" r="1.863" transform="translate(66.038 6.802)" fill="#f0c020"/>
      <circle id="Elipse_5540" data-name="Elipse 5540" cx="1.863" cy="1.863" r="1.863" transform="translate(56.778 6.802)" fill="#13bf6d"/>
      <path id="Trazado_120934" data-name="Trazado 120934" d="M172.08,148.089l-.094,11.887a2.926,2.926,0,0,1-.855,2.061l-13.77,13.77c-.6.6-.475,1.04-.475,3.928H143.881v-9.2a10.008,10.008,0,0,1,2.9-7.351l7.1-7.1a2.419,2.419,0,0,1,3.459.042,2.445,2.445,0,0,1-.078,3.407l-3.359,3.359a2.66,2.66,0,0,0,.033,3.791,2.751,2.751,0,0,0,3.788-.091l8.3-8.281a2.276,2.276,0,0,0,.65-1.626l.094-8.616a2.653,2.653,0,1,1,5.306,0Z" transform="translate(-93.722 -96.451)" fill="#ffb69f"/>
      <path id="Trazado_120935" data-name="Trazado 120935" d="M53.576,170.571v9.211H40.57c0-2.874,0-2.825-.026-3.066a1.626,1.626,0,0,0-.449-.862L26.329,162.071a2.926,2.926,0,0,1-.855-2.061l-.094-11.887a2.653,2.653,0,0,1,5.306,0l.094,8.616a2.276,2.276,0,0,0,.65,1.626l8.281,8.281a2.751,2.751,0,0,0,3.788.091,2.66,2.66,0,0,0,.033-3.791l-3.342-3.375a2.445,2.445,0,0,1-.078-3.407,2.419,2.419,0,0,1,3.459-.042l7.1,7.1a9.933,9.933,0,0,1,2.9,7.351Z" transform="translate(-13.754 -96.485)" fill="#ffb69f"/>
      <rect id="Rect치ngulo_34760" data-name="Rect치ngulo 34760" width="40.723" height="24.954" rx="5" transform="translate(24.632 28.348)" fill="#f0c020"/>
      <path id="Trazado_120936" data-name="Trazado 120936" d="M107.914,109.577H77.92a.813.813,0,1,1,0-1.626H107.1V90.313a.813.813,0,0,1,1.626,0v18.452A.813.813,0,0,1,107.914,109.577Zm-33.245,0h-.975a.813.813,0,0,1,0-1.626h.975a.813.813,0,1,1,0,1.626Z" transform="translate(-45.81 -58.713)" fill="#f8e5b0"/>
      <path id="Trazado_120937" data-name="Trazado 120937" d="M118.246,65.972h-3.251V61.5H103.361v4.471H100.11V61.5a3.251,3.251,0,0,1,3.251-3.251h11.633a3.251,3.251,0,0,1,3.251,3.251Z" transform="translate(-64.186 -37.624)" fill="#878787"/>
      <path id="Trazado_120938" data-name="Trazado 120938" d="M110.558,113.508l-2.455-2.455a1.788,1.788,0,1,1,2.53-2.526l1.19,1.19,4.451-4.451a1.788,1.788,0,1,1,2.526,2.53l-5.716,5.713a1.785,1.785,0,0,1-2.526,0Z" transform="translate(-69.227 -69)" fill="#13bf6c"/>
      <path id="Trazado_120939" data-name="Trazado 120939" d="M28.093,22.33a.813.813,0,1,0,0,1.626H34.83a.813.813,0,1,0,0-1.626Z" transform="translate(-15.036 -13.383)"/>
      <path id="Trazado_120940" data-name="Trazado 120940" d="M224.062,15.9a2.676,2.676,0,1,0-2.676,2.673A2.676,2.676,0,0,0,224.062,15.9Zm-3.726,0a1.05,1.05,0,1,1,1.05,1.047,1.05,1.05,0,0,1-1.05-1.047Z" transform="translate(-144.225 -7.235)"/>
      <path id="Trazado_120941" data-name="Trazado 120941" d="M195.572,15.9a2.676,2.676,0,1,0-2.673,2.673A2.676,2.676,0,0,0,195.572,15.9Zm-3.723,0a1.05,1.05,0,1,1,1.05,1.047,1.05,1.05,0,0,1-1.05-1.047Z" transform="translate(-124.998 -7.235)"/>
      <path id="Trazado_120942" data-name="Trazado 120942" d="M167.092,15.9a2.676,2.676,0,1,0-2.666,2.673A2.676,2.676,0,0,0,167.092,15.9Zm-3.723,0a1.05,1.05,0,1,1,.311.743A1.05,1.05,0,0,1,163.369,15.9Z" transform="translate(-105.778 -7.234)"/>
      <circle id="Elipse_5541" data-name="Elipse 5541" cx="0.813" cy="0.813" r="0.813" transform="translate(41.103 13.187)"/>
      <path id="Trazado_120943" data-name="Trazado 120943" d="M84.984,6.564A4.071,4.071,0,0,0,80.92,2.5H9.051A4.071,4.071,0,0,0,5,6.564v70.4a4.071,4.071,0,0,0,4.051,4.054H26.007V83.3a.813.813,0,1,0,1.626,0,23.8,23.8,0,0,0-.039-3.2,2.416,2.416,0,0,0-.676-1.3L13.148,65.011a2.1,2.1,0,0,1-.615-1.486l-.094-11.89a1.84,1.84,0,0,1,3.681,0l.094,8.626a3.076,3.076,0,0,0,.9,2.172l1.928,1.928a.829.829,0,0,0,1.151,0,.813.813,0,0,0,0-1.148l-1.928-1.928a1.46,1.46,0,0,1-.429-1.034l-.094-8.623a3.466,3.466,0,1,0-6.932,0l.094,11.894A3.749,3.749,0,0,0,12,66.149L25.246,79.395H9.051a2.439,2.439,0,0,1-2.439-2.439V6.564A2.439,2.439,0,0,1,9.051,4.126H24.144L27.506,12.3a4.048,4.048,0,0,0,3.759,2.517h7.4a.813.813,0,1,0,0-1.626h-7.4a2.435,2.435,0,0,1-2.256-1.509L25.9,4.139H80.933a2.439,2.439,0,0,1,2.426,2.426v6.623H45.167a.813.813,0,0,0,0,1.626H83.358V76.966A2.439,2.439,0,0,1,80.92,79.4H64.737l8.1-8.1a.81.81,0,0,0,0-1.148.826.826,0,0,0-1.148,0L63.066,78.78a2.416,2.416,0,0,0-.715,1.726V83.3a.813.813,0,1,0,1.626,0V81.021H80.936A4.071,4.071,0,0,0,85,76.956Z"/>
      <path id="Trazado_120944" data-name="Trazado 120944" d="M216.694,203.024a.813.813,0,1,0,1.148,0A.832.832,0,0,0,216.694,203.024Z" transform="translate(-142.703 -135.171)"/>
      <path id="Trazado_120945" data-name="Trazado 120945" d="M61.85,163.8l1.756,1.752a3.576,3.576,0,0,0,4.929.107,3.479,3.479,0,0,0,.033-4.952l-3.349-3.359a1.626,1.626,0,0,1-.065-2.276,1.6,1.6,0,0,1,2.3-.029l7.1,7.1a9.146,9.146,0,0,1,2.66,6.756v9.218a.813.813,0,0,0,1.626,0v-2.26h8.714v2.276a.813.813,0,0,0,1.626,0v-9.1a9.208,9.208,0,0,1,2.666-6.877l7.107-7.1a1.606,1.606,0,0,1,2.3.026,1.626,1.626,0,0,1-.065,2.276l-3.349,3.359a3.476,3.476,0,0,0,.042,4.949,3.576,3.576,0,0,0,4.929-.1l8.281-8.281a3.079,3.079,0,0,0,.9-2.172l.091-8.616a1.844,1.844,0,0,1,3.684,0l-.094,11.881a2.091,2.091,0,0,1-.618,1.492l-.543.543a.813.813,0,0,0,0,1.151.836.836,0,0,0,1.151,0l.54-.543a3.7,3.7,0,0,0,1.092-2.634l.091-11.881a3.466,3.466,0,0,0-6.932,0l-.091,8.613a1.453,1.453,0,0,1-.429,1.034l-8.281,8.281a1.951,1.951,0,0,1-2.647.085,1.85,1.85,0,0,1-.023-2.634l3.355-3.355a3.228,3.228,0,1,0-4.526-4.6l-7.1,7.094a10.778,10.778,0,0,0-3.141,7.927v5.3h-8.72v-5.309A10.776,10.776,0,0,0,75.7,161l-7.1-7.1a3.23,3.23,0,1,0-4.529,4.607l3.359,3.355A1.85,1.85,0,0,1,67.4,164.5a1.951,1.951,0,0,1-2.65-.085L63,162.655a.836.836,0,0,0-1.151,0A.816.816,0,0,0,61.85,163.8Z" transform="translate(-38.207 -94.838)"/>
      <path id="Trazado_120946" data-name="Trazado 120946" d="M54.784,195.831a.813.813,0,1,0,1.148,0A.829.829,0,0,0,54.784,195.831Z" transform="translate(-33.436 -130.316)"/>
      <path id="Trazado_120947" data-name="Trazado 120947" d="M74.172,59.814v3.658H65.319a2.439,2.439,0,0,0-2.439,2.439v21.7a2.439,2.439,0,0,0,2.439,2.439h37.472a2.442,2.442,0,0,0,2.439-2.439v-21.7a2.442,2.442,0,0,0-2.439-2.439H93.934V59.814A4.071,4.071,0,0,0,89.87,55.75H78.236A4.071,4.071,0,0,0,74.172,59.814ZM102.784,65.1a.816.816,0,0,1,.813.813v21.7a.816.816,0,0,1-.813.813H65.319a.813.813,0,0,1-.813-.813v-21.7a.813.813,0,0,1,.813-.813ZM79.049,63.472V60.627H89.057v2.845Zm13.259-3.658v3.658H90.682V59.814A.813.813,0,0,0,89.87,59H78.236a.813.813,0,0,0-.813.813v3.658H75.8V59.814a2.442,2.442,0,0,1,2.439-2.439H89.87A2.442,2.442,0,0,1,92.308,59.814Z" transform="translate(-39.061 -35.936)"/>
      <path id="Trazado_120948" data-name="Trazado 120948" d="M114.106,103.1l-3.876,3.876-.618-.615a2.6,2.6,0,0,0-3.677,3.677l2.455,2.455a2.6,2.6,0,0,0,3.677,0l5.716-5.716a2.6,2.6,0,0,0-3.677-3.677Zm2.53,2.526-5.716,5.716a.975.975,0,0,1-1.382,0l-2.439-2.455a.975.975,0,1,1,1.379-1.379l1.19,1.19a.81.81,0,0,0,1.148,0l4.451-4.451a.976.976,0,0,1,1.382,1.379Z" transform="translate(-67.635 -67.405)"/>
    </g>
    <g id="Grupo_95190" data-name="Grupo 95190" transform="translate(0 7193.203)">
      <rect id="Rect치ngulo_34099" data-name="Rect치ngulo 34099" width="36.647" height="36.647" rx="8" transform="matrix(0.985, 0.174, -0.174, 0.985, 323.364, 3597.547)" fill="#ffd41c"/>
      <circle id="Elipse_5081" data-name="Elipse 5081" cx="8.012" cy="8.012" r="8.012" transform="translate(478.975 3659.211)" fill="#764cf0"/>
      <path id="Trazado_114565" data-name="Trazado 114565" d="M662.568-58.417c-5.557-2.619-11.14-5.157-16.69-7.675C618.1-78.694,589.386-91.729,568-114.334a117.188,117.188,0,0,1-30.469-63.449,111.446,111.446,0,0,1,.778-37.081h-4.135a115.525,115.525,0,0,0-.663,37.657,121.313,121.313,0,0,0,31.538,65.662C586.984-88.365,616.072-75.161,644.2-62.4c6.112,2.775,12.263,5.563,18.368,8.48Z" transform="translate(-10.934 4058.07) rotate(-30)" fill="#764cf0"/>
    </g>
  </g>
</svg>
