<svg xmlns="http://www.w3.org/2000/svg" xmlns:xlink="http://www.w3.org/1999/xlink" width="60" height="60" viewBox="0 0 60 60">
  <defs>
    <clipPath id="clip-path">
      <rect id="Rectángulo_34727" data-name="Rectángulo 34727" width="60" height="60" transform="translate(306 15429)" fill="#ffd41c" stroke="#707070" stroke-width="1"/>
    </clipPath>
    <linearGradient id="linear-gradient" x1="0.136" y1="1.062" x2="0.864" y2="0.062" gradientUnits="objectBoundingBox">
      <stop offset="0.011" stop-color="#f8c73f"/>
      <stop offset="1" stop-color="#fada7f"/>
    </linearGradient>
  </defs>
  <g id="Enmascarar_grupo_234" data-name="Enmascarar grupo 234" transform="translate(-306 -15429)" clip-path="url(#clip-path)">
    <g id="_18-brand_champion" data-name="18-brand champion" transform="translate(305.427 15428.283)">
      <g id="linear_color" data-name="linear color">
        <path id="Trazado_120721" data-name="Trazado 120721" d="M51.63,52.351l-6.3,1.189L42.5,59.291,28.624,41.04l9.125-6.94Z" fill="#26d19e"/>
        <path id="Trazado_120722" data-name="Trazado 120722" d="M9.516,52.351l6.3,1.189,2.828,5.752L32.522,41.04,23.4,34.1Z" fill="#26d19e"/>
        <path id="Trazado_120723" data-name="Trazado 120723" d="M30.573,2.15l4.691,2.259H40.47l3.246,4.071,4.691,2.259,1.159,5.076,3.246,4.071L51.653,24.96l1.158,5.076-3.246,4.071-1.159,5.076-4.691,2.259L40.47,45.511H35.264L30.573,47.77l-4.691-2.259H20.676L17.43,41.441l-4.691-2.259-1.159-5.076L8.335,30.036,9.493,24.96,8.335,19.884l3.246-4.071,1.159-5.076L17.43,8.479l3.246-4.071h5.206Z" fill="#baa6f7"/>
        <circle id="Elipse_5470" data-name="Elipse 5470" cx="16.003" cy="16.003" r="16.003" transform="translate(14.57 9.076)" fill="#d1c3fa"/>
        <path id="Trazado_120724" data-name="Trazado 120724" d="M36.709,32.484H24.437L23.073,24.3l4.176,2.727,3.324-5.455L33.9,27.029,38.073,24.3Z" fill="url(#linear-gradient)"/>
        <path id="Trazado_120725" data-name="Trazado 120725" d="M53.123,24.96,54.209,20.2a1.433,1.433,0,0,0-.277-1.212L50.89,15.176,49.8,10.419a1.433,1.433,0,0,0-.775-.972l-4.4-2.117L41.59,3.515a1.433,1.433,0,0,0-1.12-.54H35.591L31.195.858a1.434,1.434,0,0,0-1.244,0l-4.4,2.117H20.676a1.433,1.433,0,0,0-1.12.539L16.513,7.33l-4.4,2.117a1.433,1.433,0,0,0-.775.972l-1.086,4.757L7.214,18.991A1.433,1.433,0,0,0,6.937,20.2L8.023,24.96,6.937,29.717a1.433,1.433,0,0,0,.277,1.212l3.042,3.815L11.342,39.5a1.433,1.433,0,0,0,.775.972l3.39,1.632L8.375,51.483a1.443,1.443,0,0,0,.875,2.276l5.593,1.056,2.512,5.109a1.443,1.443,0,0,0,2.427.235l8.9-11.707,1.266.609a1.434,1.434,0,0,0,1.244,0l1.266-.609,8.9,11.707a1.443,1.443,0,0,0,2.427-.235L46.3,54.815,51.9,53.758a1.443,1.443,0,0,0,.875-2.276L45.64,42.106l3.388-1.632A1.433,1.433,0,0,0,49.8,39.5l1.086-4.757,3.042-3.815a1.433,1.433,0,0,0,.277-1.212ZM18.9,56.578l-1.8-3.671a1.433,1.433,0,0,0-1.02-.776l-4.019-.759,5.593-7.353,1.9,2.386a1.433,1.433,0,0,0,1.12.54h4.879l.495.239Zm26.163-4.447a1.433,1.433,0,0,0-1.02.776l-1.8,3.671-7.146-9.4.495-.239H40.47a1.433,1.433,0,0,0,1.12-.54l1.9-2.386,5.593,7.353Zm5.189-26.853,1,4.4-2.816,3.53a1.433,1.433,0,0,0-.277.575l-1,4.4-4.069,1.96a1.433,1.433,0,0,0-.5.4L39.78,44.078H35.264a1.434,1.434,0,0,0-.622.142l-4.069,1.96L26.5,44.22a1.433,1.433,0,0,0-.622-.142H21.366L18.55,40.547a1.433,1.433,0,0,0-.5-.4l-4.069-1.96-1-4.4a1.433,1.433,0,0,0-.277-.575L9.885,29.682l1-4.4a1.433,1.433,0,0,0,0-.638l-1-4.4,2.816-3.53a1.433,1.433,0,0,0,.277-.575l1-4.4,4.069-1.96a1.433,1.433,0,0,0,.5-.4l2.816-3.531h4.516A1.433,1.433,0,0,0,26.5,5.7l4.069-1.96L34.642,5.7a1.434,1.434,0,0,0,.622.142H39.78L42.6,9.373a1.433,1.433,0,0,0,.5.4l4.069,1.96,1,4.4a1.433,1.433,0,0,0,.277.575l2.816,3.531-1,4.4a1.43,1.43,0,0,0,0,.638Z" fill="#21155c"/>
        <path id="Trazado_120726" data-name="Trazado 120726" d="M30.573,7.643A17.436,17.436,0,1,0,48.009,25.079,17.457,17.457,0,0,0,30.573,7.643Zm0,32.006a14.57,14.57,0,1,1,14.57-14.57,14.57,14.57,0,0,1-14.57,14.57Z" fill="#21155c"/>
        <path id="Trazado_120727" data-name="Trazado 120727" d="M38.857,23.1a1.433,1.433,0,0,0-1.567,0l-2.938,1.919L31.8,20.829a1.433,1.433,0,0,0-2.448,0l-2.555,4.192L23.857,23.1a1.433,1.433,0,0,0-2.2,1.435l1.364,8.182a1.433,1.433,0,0,0,1.413,1.2H36.709a1.433,1.433,0,0,0,1.414-1.2l1.364-8.182a1.433,1.433,0,0,0-.63-1.435ZM35.5,31.051H25.65l-.627-3.763,1.442.942a1.433,1.433,0,0,0,2.007-.454l2.1-3.447,2.1,3.446a1.433,1.433,0,0,0,2.007.454l1.442-.942Z" fill="#21155c"/>
        <circle id="Elipse_5471" data-name="Elipse 5471" cx="1.433" cy="1.433" r="1.433" transform="translate(29.14 16.281)" fill="#21155c"/>
        <circle id="Elipse_5472" data-name="Elipse 5472" cx="1.433" cy="1.433" r="1.433" transform="translate(39.172 20.064)" fill="#21155c"/>
        <circle id="Elipse_5473" data-name="Elipse 5473" cx="1.433" cy="1.433" r="1.433" transform="translate(19.108 20.064)" fill="#21155c"/>
      </g>
    </g>
  </g>
</svg>
