<svg xmlns="http://www.w3.org/2000/svg" xmlns:xlink="http://www.w3.org/1999/xlink" width="67" height="67" viewBox="0 0 67 67">
  <defs>
    <clipPath id="clip-path">
      <rect id="Rectángulo_34711" data-name="Rectángulo 34711" width="67" height="67" transform="translate(942 13743)" fill="#ffd41c" stroke="#707070" stroke-width="1"/>
    </clipPath>
  </defs>
  <g id="Enmascarar_grupo_230" data-name="Enmascarar grupo 230" transform="translate(-942 -13743)" clip-path="url(#clip-path)">
    <g id="warranty-period" transform="translate(942 13743)">
      <path id="Trazado_120627" data-name="Trazado 120627" d="M32.64,50.431a15.914,15.914,0,0,1,20.9-15.112,33.368,33.368,0,0,0,.576-6.2V13.848a1.686,1.686,0,0,0-1.531-1.679A36.948,36.948,0,0,1,29.533,1.164a1.686,1.686,0,0,0-2.415,0A36.949,36.949,0,0,1,4.062,12.169a1.686,1.686,0,0,0-1.531,1.679v15.27a32.65,32.65,0,0,0,15.7,27.975L26.793,62.5a2.883,2.883,0,0,0,3.064,0l5.361-3.388a15.839,15.839,0,0,1-2.579-8.682Z" fill="#f9d87a"/>
      <path id="Trazado_120628" data-name="Trazado 120628" d="M32.64,50.431A15.915,15.915,0,0,1,48.555,34.516a16.114,16.114,0,0,1,1.688.09,29.869,29.869,0,0,0,.505-5.488V15.356A40.332,40.332,0,0,1,28.325,4.7,40.332,40.332,0,0,1,5.9,15.356V29.118A29.339,29.339,0,0,0,20.036,54.243l8.289,5.238L33.681,56.1a15.875,15.875,0,0,1-1.041-5.665Z" fill="#facb35"/>
      <path id="Trazado_120629" data-name="Trazado 120629" d="M39.729,23.687a1.91,1.91,0,0,0-2.7,0L26.392,34.327,21.366,29.3a1.907,1.907,0,1,0-2.7,2.7l6.375,6.375a1.908,1.908,0,0,0,2.7,0L39.729,26.384a1.909,1.909,0,0,0,0-2.7Z" fill="#edf4fc"/>
      <circle id="Elipse_5452" data-name="Elipse 5452" cx="15.915" cy="15.915" r="15.915" transform="translate(32.64 34.517)" fill="#fc3850"/>
      <circle id="Elipse_5453" data-name="Elipse 5453" cx="12.732" cy="12.732" r="12.732" transform="translate(35.823 37.867)" fill="#edf4fc"/>
      <path id="Trazado_120630" data-name="Trazado 120630" d="M48.555,67A16.569,16.569,0,1,1,65.123,50.431,16.588,16.588,0,0,1,48.555,67Zm0-31.829a15.26,15.26,0,1,0,15.26,15.26,15.278,15.278,0,0,0-15.26-15.26Z"/>
      <path id="Trazado_120631" data-name="Trazado 120631" d="M48.555,63.985A13.386,13.386,0,1,1,61.94,50.6,13.4,13.4,0,0,1,48.555,63.985Zm0-25.464A12.077,12.077,0,1,0,60.632,50.6,12.091,12.091,0,0,0,48.555,38.521Z"/>
      <path id="Trazado_120632" data-name="Trazado 120632" d="M40.928,43.459a.653.653,0,0,1-.463-.192l-1.209-1.209a.654.654,0,0,1,.925-.925l1.209,1.209a.654.654,0,0,1-.463,1.117Z"/>
      <path id="Trazado_120633" data-name="Trazado 120633" d="M57.433,59.964a.652.652,0,0,1-.463-.192l-.917-.917a.654.654,0,1,1,.925-.925l.917.917a.654.654,0,0,1-.462,1.117Z"/>
      <path id="Trazado_120634" data-name="Trazado 120634" d="M37.7,51.253H35.99a.654.654,0,0,1,0-1.309H37.7a.654.654,0,0,1,0,1.309Z"/>
      <path id="Trazado_120635" data-name="Trazado 120635" d="M61.119,51.253H59.745a.654.654,0,0,1,0-1.309h1.374a.654.654,0,0,1,0,1.309Z"/>
      <path id="Trazado_120636" data-name="Trazado 120636" d="M48.555,63.817a.654.654,0,0,1-.654-.654v-1.71a.654.654,0,0,1,1.309,0v1.71A.654.654,0,0,1,48.555,63.817Z"/>
      <path id="Trazado_120637" data-name="Trazado 120637" d="M48.555,40.063a.654.654,0,0,1-.654-.654V38.034a.654.654,0,0,1,1.309,0v1.374A.654.654,0,0,1,48.555,40.063Z"/>
      <path id="Trazado_120638" data-name="Trazado 120638" d="M39.67,60.137a.654.654,0,0,1-.463-1.117l1.209-1.209a.654.654,0,0,1,.925.925l-1.209,1.209a.652.652,0,0,1-.463.192Z"/>
      <path id="Trazado_120639" data-name="Trazado 120639" d="M56.467,43.341A.654.654,0,0,1,56,42.224l.972-.972a.654.654,0,1,1,.925.925l-.972.972a.653.653,0,0,1-.463.192Z"/>
      <path id="Trazado_120640" data-name="Trazado 120640" d="M53.523,51.253H47.871a.654.654,0,0,1,0-1.309h5.652a.654.654,0,0,1,0,1.309Z"/>
      <path id="Trazado_120641" data-name="Trazado 120641" d="M48.592,52.045a.654.654,0,0,1-.654-.654V42.747a.654.654,0,0,1,1.309,0v8.644A.654.654,0,0,1,48.592,52.045Z"/>
      <path id="Trazado_120642" data-name="Trazado 120642" d="M28.326,63.6a3.528,3.528,0,0,1-1.881-.54l-8.559-5.409A33.291,33.291,0,0,1,1.876,29.118V13.848A2.329,2.329,0,0,1,4,11.518,36.294,36.294,0,0,0,26.648.707,2.341,2.341,0,0,1,30,.707,36.3,36.3,0,0,0,52.648,11.518a2.329,2.329,0,0,1,2.125,2.33v15.27a34.121,34.121,0,0,1-.588,6.322.655.655,0,0,1-.848.5A15.258,15.258,0,0,0,35.767,58.755a.654.654,0,0,1-.2.911l-5.361,3.388a3.517,3.517,0,0,1-1.882.542Zm0-62.287a1.024,1.024,0,0,0-.739.311,37.6,37.6,0,0,1-23.464,11.2,1.027,1.027,0,0,0-.937,1.027v15.27a32.007,32.007,0,0,0,15.4,27.422l8.558,5.408a2.227,2.227,0,0,0,2.365,0l4.812-3.04a16.567,16.567,0,0,1,18.708-24.43,32.934,32.934,0,0,0,.438-5.359V13.848a1.027,1.027,0,0,0-.937-1.027A37.6,37.6,0,0,1,29.064,1.62a1.025,1.025,0,0,0-.739-.311Z"/>
      <path id="Trazado_120643" data-name="Trazado 120643" d="M28.325,60.135a.652.652,0,0,1-.349-.1L19.687,54.8A29.981,29.981,0,0,1,5.248,29.118V15.356a.655.655,0,0,1,.569-.649A39.411,39.411,0,0,0,27.876,4.229a.655.655,0,0,1,.9,0A39.411,39.411,0,0,0,50.833,14.707a.654.654,0,0,1,.569.649V29.118a30.621,30.621,0,0,1-.517,5.608.658.658,0,0,1-.712.531,15.489,15.489,0,0,0-1.619-.086A15.262,15.262,0,0,0,34.293,55.863a.655.655,0,0,1-.262.786l-5.357,3.385a.657.657,0,0,1-.35.1ZM6.557,15.926V29.118A28.7,28.7,0,0,0,20.386,53.69l7.939,5.017,4.562-2.883A16.571,16.571,0,0,1,48.555,33.862c.378,0,.762.014,1.147.04a29.385,29.385,0,0,0,.392-4.784V15.926A40.686,40.686,0,0,1,28.325,5.6,40.686,40.686,0,0,1,6.557,15.926Z"/>
      <path id="Trazado_120644" data-name="Trazado 120644" d="M26.393,39.585a2.547,2.547,0,0,1-1.811-.75L18.206,32.46a2.562,2.562,0,0,1,3.623-3.623L26.393,33.4,36.568,23.225a2.562,2.562,0,1,1,3.623,3.622L28.2,38.835a2.543,2.543,0,0,1-1.811.75ZM20.018,29.4a1.252,1.252,0,0,0-.886,2.137l6.375,6.375a1.254,1.254,0,0,0,1.772,0L39.266,25.922a1.253,1.253,0,0,0-1.772-1.772L26.855,34.789a.674.674,0,0,1-.925,0L20.9,29.763a1.243,1.243,0,0,0-.886-.365Z"/>
    </g>
  </g>
</svg>
