<svg xmlns="http://www.w3.org/2000/svg" xmlns:xlink="http://www.w3.org/1999/xlink" width="133" height="133" viewBox="0 0 133 133">
  <defs>
    <clipPath id="clip-path">
      <rect id="Rect치ngulo_35043" data-name="Rect치ngulo 35043" width="101" height="101" transform="translate(-4645 4463)" fill="#fff" stroke="#707070" stroke-width="1"/>
    </clipPath>
  </defs>
  <g id="Grupo_94722" data-name="Grupo 94722" transform="translate(4661 -4447)">
    <g id="_240_F_327287600_TyhZPz7Qge3YOTv4dab7M9xRDBiZxF9G" data-name="240_F_327287600_TyhZPz7Qge3YOTv4dab7M9xRDBiZxF9G" transform="translate(-4661 4447)" fill="#ccfff0" stroke="#21155c" stroke-width="3">
      <circle cx="66.5" cy="66.5" r="66.5" stroke="none"/>
      <circle cx="66.5" cy="66.5" r="65" fill="none"/>
    </g>
    <g id="Enmascarar_grupo_307" data-name="Enmascarar grupo 307" clip-path="url(#clip-path)">
      <g id="XMLID_2112_" transform="translate(-4645 4463)">
        <path id="XMLID_3003_" d="M45.807,66.53l5.209,3.431a13.11,13.11,0,0,0,10.28,1.8L88.565,99.027l10.461-27.65-16.87-16.87a38.736,38.736,0,0,0-1.109-9.2Z" fill="#ffbf9e"/>
        <path id="XMLID_1432_" d="M85.576,34.083a4.731,4.731,0,0,0-6.691,0,4.731,4.731,0,1,0-6.691-6.691A4.731,4.731,0,1,0,65.5,20.7a4.731,4.731,0,1,0-6.691-6.691l-8.195,8.195L25.6,50.946,2.021,74.524l9.351,24.4,30.5-30.5a9.139,9.139,0,0,1,6.462-2.677,29.613,29.613,0,0,0,20.939-8.673l16.3-16.3a4.731,4.731,0,0,0,0-6.691Z" fill="#ffd4be"/>
        <path id="XMLID_1429_" d="M18.454,58.091,35.331,74.968l6.539-6.539c.2-.2.416-.4.636-.578L25.6,50.946Z" fill="#91def5"/>
        <path id="XMLID_1427_" d="M64.252,64.08H91.2v10.1H64.252Z" transform="translate(-26.123 75.219) rotate(-45)" fill="#f6838d"/>
        <g id="XMLID_2973_">
          <path id="XMLID_2976_" d="M32.291,44.255l-7.1-7.1a4.731,4.731,0,0,1,6.691-6.691l7.1,7.1a4.731,4.731,0,0,1-6.691,6.691Z" fill="#ffbf9e"/>
          <path id="XMLID_2975_" d="M38.981,37.564l-7.1-7.1a4.731,4.731,0,0,1,6.691-6.691l7.1,7.1a4.731,4.731,0,0,1-6.691,6.691Z" fill="#ffbf9e"/>
          <path id="XMLID_2974_" d="M45.672,30.873l-7.1-7.1a4.731,4.731,0,0,1,6.691-6.691l7.1,7.1a4.731,4.731,0,0,1-6.691,6.691Z" fill="#ffbf9e"/>
        </g>
        <g id="XMLID_1425_">
          <path id="XMLID_2972_" d="M25.6,50.946l-4.187-4.187A4.731,4.731,0,0,1,28.1,40.068l4.187,4.187A4.731,4.731,0,0,1,25.6,50.946Z" fill="#ffbf9e"/>
        </g>
        <g id="XMLID_428_">
          <path id="XMLID_760_" d="M85.807,55.368a21.7,21.7,0,0,0-2.322-9.712l3.486-3.486a6.7,6.7,0,0,0-4.728-11.441,6.7,6.7,0,0,0-6.694-6.691,6.7,6.7,0,0,0-6.688-6.694,6.7,6.7,0,0,0-11.444-4.728L50.5,19.531l-3.848-3.848A6.7,6.7,0,0,0,35.21,20.414,6.7,6.7,0,0,0,28.519,27.1a6.7,6.7,0,0,0-5.854,9.945,6.7,6.7,0,0,0-2.648,11.107l2.792,2.792L.626,73.129a1.973,1.973,0,1,0,2.79,2.79L18.454,60.881,32.541,74.968,9.977,97.532a1.973,1.973,0,1,0,2.79,2.79l30.5-30.5a7.174,7.174,0,0,1,1.893-1.36l4.773,3.144A15.14,15.14,0,0,0,60.647,73.9L87.17,100.422a1.973,1.973,0,0,0,2.79-2.79L74.571,82.243l1.86-1.86a1.973,1.973,0,0,0-2.79-2.79l-1.86,1.86L67.425,75.1,83.691,58.832l4.356,4.356L86.19,65.044a1.973,1.973,0,1,0,2.79,2.79l1.856-1.856,6.795,6.795a1.973,1.973,0,0,0,2.79-2.79Zm-25.6-39.963a2.759,2.759,0,0,1,3.9,3.9l-4.335,4.335a1.973,1.973,0,0,0,2.79,2.79L66.9,22.1A2.759,2.759,0,0,1,70.8,26L64.18,32.617a1.973,1.973,0,1,0,2.79,2.79l6.619-6.619a2.759,2.759,0,1,1,3.9,3.9l-6.619,6.619a1.973,1.973,0,1,0,2.79,2.79l6.619-6.619a2.759,2.759,0,0,1,3.9,3.9l-16.3,16.3a27.458,27.458,0,0,1-19.544,8.1,11.045,11.045,0,0,0-5.6,1.51L31.316,53.873a6.711,6.711,0,0,0,4.332-6.263,6.692,6.692,0,0,0,6.688-6.688,6.7,6.7,0,0,0,6.691-6.691,6.7,6.7,0,0,0,4.731-11.444l-.467-.467ZM39.963,18.473a2.758,2.758,0,0,1,3.9,0l7.1,7.1a2.759,2.759,0,0,1-3.9,3.9h0l-7.1-7.1a2.758,2.758,0,0,1,0-3.9Zm-6.691,6.691a2.762,2.762,0,0,1,3.9,0l7.1,7.1a2.759,2.759,0,0,1-3.9,3.9h0l-7.1-7.1a2.759,2.759,0,0,1,0-3.9Zm-6.691,6.691a2.759,2.759,0,0,1,3.9,0l7.1,7.1a2.759,2.759,0,0,1-3.9,3.9l-7.1-7.1a2.762,2.762,0,0,1,0-3.9Zm-3.774,9.608a2.762,2.762,0,0,1,3.9,0L30.9,45.65a2.759,2.759,0,0,1-3.9,3.9h0l-4.187-4.187a2.762,2.762,0,0,1,0-3.9ZM21.244,58.091,25.6,53.735,39.687,67.822l-4.356,4.356ZM62.691,70.363a1.97,1.97,0,0,0-1.857-.523A11.176,11.176,0,0,1,52.1,68.314l-1.068-.7a31.346,31.346,0,0,0,19.633-9.136L80.51,48.63a17.756,17.756,0,0,1,1.346,6.458L64.636,72.308Z"/>
          <path id="XMLID_805_" d="M79.914,71.321a1.972,1.972,0,1,0,1.395-.578A1.984,1.984,0,0,0,79.914,71.321Z"/>
          <path id="XMLID_809_" d="M13.328,16.116a1.973,1.973,0,1,0,2.79-2.79L6.832,4.041a1.973,1.973,0,0,0-2.79,2.79Z"/>
          <path id="XMLID_858_" d="M24.067,10.754a1.973,1.973,0,0,0,1.973-1.973V1.973a1.973,1.973,0,0,0-3.945,0V8.781a1.973,1.973,0,0,0,1.973,1.973Z"/>
          <path id="XMLID_1014_" d="M1.974,26.038H8.782a1.973,1.973,0,1,0,0-3.945H1.974a1.973,1.973,0,1,0,0,3.945Z"/>
          <path id="XMLID_1020_" d="M86.277,16.694a1.966,1.966,0,0,0,1.395-.578l9.285-9.285a1.973,1.973,0,1,0-2.79-2.79l-9.285,9.285a1.973,1.973,0,0,0,1.4,3.368Z"/>
          <path id="XMLID_1029_" d="M76.933,10.754a1.973,1.973,0,0,0,1.973-1.973V1.973a1.973,1.973,0,0,0-3.945,0V8.781A1.973,1.973,0,0,0,76.933,10.754Z"/>
          <path id="XMLID_1030_" d="M90.245,24.066a1.973,1.973,0,0,0,1.973,1.973h6.809a1.973,1.973,0,1,0,0-3.945H92.218A1.973,1.973,0,0,0,90.245,24.066Z"/>
        </g>
      </g>
    </g>
    <rect id="Rect치ngulo_34751" data-name="Rect치ngulo 34751" width="18.053" height="18.053" rx="2" transform="matrix(0.945, 0.327, -0.327, 0.945, -4558.675, 4552.129)" fill="#764cf0"/>
  </g>
</svg>
