<svg xmlns="http://www.w3.org/2000/svg" xmlns:xlink="http://www.w3.org/1999/xlink" width="67" height="67" viewBox="0 0 67 67">
  <defs>
    <clipPath id="clip-path">
      <rect id="Rectángulo_34709" data-name="Rectángulo 34709" width="67" height="67" transform="translate(440 13743)" fill="#ffd41c" stroke="#707070" stroke-width="1"/>
    </clipPath>
  </defs>
  <g id="Enmascarar_grupo_228" data-name="Enmascarar grupo 228" transform="translate(-440 -13743)" clip-path="url(#clip-path)">
    <g id="reanudar" transform="translate(436.215 13739.213)">
      <path id="Trazado_120602" data-name="Trazado 120602" d="M64.667,19.052a.874.874,0,0,0-1.3.4,10.244,10.244,0,0,1-5.9,5.824.873.873,0,0,0-.565.817V63.6a2.932,2.932,0,0,1-2.93,2.93H25.681A.874.874,0,0,0,24.86,67.7a4.682,4.682,0,0,0,4.4,3.083H62.049a4.681,4.681,0,0,0,4.678-4.678V22.93A4.675,4.675,0,0,0,64.667,19.052Z" fill="#91aaea" fill-rule="evenodd"/>
      <path id="Trazado_120603" data-name="Trazado 120603" d="M49.492,24.952a.874.874,0,0,0-1.249.789V59.82a2.932,2.932,0,0,1-2.93,2.93H17.374a.874.874,0,0,0-.874.879,4.681,4.681,0,0,0,4.678,4.651H53.969A4.681,4.681,0,0,0,58.647,63.6V26.1a.874.874,0,0,0-1.183-.817,10.22,10.22,0,0,1-7.973-.329Z" fill="#acc9f2" fill-rule="evenodd"/>
      <path id="Trazado_120604" data-name="Trazado 120604" d="M44.018,13.065a.874.874,0,0,0-.844-1.1H12.521a4.681,4.681,0,0,0-4.678,4.678V59.82A4.681,4.681,0,0,0,12.521,64.5H45.312A4.681,4.681,0,0,0,49.99,59.82V25.741a.874.874,0,0,0-.5-.789,10.213,10.213,0,0,1-5.474-11.887Z" fill="#bddef5" fill-rule="evenodd"/>
      <circle id="Elipse_5450" data-name="Elipse 5450" cx="11.948" cy="11.948" r="11.948" transform="translate(41.916 3.787)" fill="#ef5451"/>
      <path id="Trazado_120605" data-name="Trazado 120605" d="M25.75,27.823a.874.874,0,0,0-.935-.406l-2.248.485a5.182,5.182,0,0,0-4.007,5.98l.792,4.418a5.182,5.182,0,0,0,5.1,4.267h8.929a5.182,5.182,0,0,0,5.1-4.267c.249-1.386.535-2.984.792-4.418a5.182,5.182,0,0,0-4.007-5.98l-2.248-.485a.874.874,0,0,0-.935.406c-.793,1.329-1.886,2.445-3.167,2.445s-2.374-1.116-3.167-2.445Z" fill="#087ce6" fill-rule="evenodd"/>
      <path id="Trazado_120606" data-name="Trazado 120606" d="M28.917,17.734a6.134,6.134,0,0,0-6.132,6.132,10.336,10.336,0,0,0,2.361,6.117,5.1,5.1,0,0,0,3.771,2.034,5.1,5.1,0,0,0,3.771-2.034,10.336,10.336,0,0,0,2.361-6.117,6.135,6.135,0,0,0-6.132-6.132Z" fill="#3596ed" fill-rule="evenodd"/>
      <g id="Grupo_93693" data-name="Grupo 93693">
        <path id="Trazado_120607" data-name="Trazado 120607" d="M53.246,15.117l-3.711,3.711a.874.874,0,0,0,1.236,1.236l3.711-3.711a.874.874,0,0,0-1.236-1.236Zm3.711-3.711-1.868,1.868a.874.874,0,1,0,1.236,1.236l1.868-1.868a.874.874,0,0,0-1.236-1.236Z" fill="#0e1331" fill-rule="evenodd"/>
        <path id="Trazado_120608" data-name="Trazado 120608" d="M49.535,12.642l7.422,7.422a.874.874,0,0,0,1.236-1.236l-7.422-7.422a.874.874,0,0,0-1.236,1.236Z" fill="#0e1331" fill-rule="evenodd"/>
        <path id="Trazado_120609" data-name="Trazado 120609" d="M53.864,3.787A11.948,11.948,0,1,0,65.812,15.735,11.954,11.954,0,0,0,53.864,3.787Zm0,1.748a10.2,10.2,0,1,1-10.2,10.2A10.2,10.2,0,0,1,53.864,5.535Z" fill="#0e1331" fill-rule="evenodd"/>
        <path id="Trazado_120610" data-name="Trazado 120610" d="M28.917,17.734a6.134,6.134,0,0,0-6.132,6.132,10.336,10.336,0,0,0,2.361,6.117,5.1,5.1,0,0,0,3.771,2.034,5.1,5.1,0,0,0,3.771-2.034,10.336,10.336,0,0,0,2.361-6.117,6.135,6.135,0,0,0-6.132-6.132Zm0,1.748A4.386,4.386,0,0,1,33.3,23.865a8.444,8.444,0,0,1-1.946,4.986,3.377,3.377,0,0,1-2.438,1.417,3.377,3.377,0,0,1-2.438-1.417,8.444,8.444,0,0,1-1.946-4.986A4.386,4.386,0,0,1,28.917,19.481Z" fill="#0e1331" fill-rule="evenodd"/>
        <path id="Trazado_120611" data-name="Trazado 120611" d="M25.75,27.823a.874.874,0,0,0-.935-.406l-2.248.485a5.182,5.182,0,0,0-4.007,5.98l.792,4.418a5.182,5.182,0,0,0,5.1,4.267h8.929a5.182,5.182,0,0,0,5.1-4.267c.249-1.386.535-2.984.792-4.418a5.182,5.182,0,0,0-4.007-5.98l-2.248-.485a.874.874,0,0,0-.935.406c-.793,1.329-1.886,2.445-3.167,2.445s-2.374-1.116-3.167-2.445Zm-1.158,1.429a5.6,5.6,0,0,0,4.325,2.764,5.6,5.6,0,0,0,4.325-2.763l1.656.358a3.434,3.434,0,0,1,2.656,3.963l-.793,4.418a3.434,3.434,0,0,1-3.38,2.828H24.452a3.434,3.434,0,0,1-3.38-2.828l-.792-4.418a3.434,3.434,0,0,1,2.656-3.963Z" fill="#0e1331" fill-rule="evenodd"/>
        <path id="Trazado_120612" data-name="Trazado 120612" d="M31.609,36.311h3.426a.874.874,0,1,0,0-1.748H31.609a.874.874,0,1,0,0,1.748Z" fill="#0e1331" fill-rule="evenodd"/>
        <path id="Trazado_120613" data-name="Trazado 120613" d="M16.8,50.467h24.24a.874.874,0,1,0,0-1.748H16.8a.874.874,0,0,0,0,1.748Z" fill="#0e1331" fill-rule="evenodd"/>
        <path id="Trazado_120614" data-name="Trazado 120614" d="M16.8,57.572h12.12a.874.874,0,0,0,0-1.748H16.8a.874.874,0,1,0,0,1.748Z" fill="#0e1331" fill-rule="evenodd"/>
        <path id="Trazado_120615" data-name="Trazado 120615" d="M32.456,57.572h8.581a.874.874,0,1,0,0-1.748H32.456a.874.874,0,1,0,0,1.748Z" fill="#0e1331" fill-rule="evenodd"/>
        <path id="Trazado_120616" data-name="Trazado 120616" d="M44.018,13.065a.874.874,0,0,0-.844-1.1H12.521a4.681,4.681,0,0,0-4.678,4.678V59.82A4.681,4.681,0,0,0,12.521,64.5H45.312A4.681,4.681,0,0,0,49.99,59.82V25.741a.874.874,0,0,0-.5-.789,10.213,10.213,0,0,1-5.474-11.887Zm-1.93.645a11.964,11.964,0,0,0,6.155,12.569s0,33.541,0,33.541a2.932,2.932,0,0,1-2.93,2.93H12.521a2.932,2.932,0,0,1-2.93-2.93V16.641a2.932,2.932,0,0,1,2.93-2.93Z" fill="#0e1331" fill-rule="evenodd"/>
        <path id="Trazado_120617" data-name="Trazado 120617" d="M49.492,24.952a.874.874,0,0,0-1.249.789V59.82a2.932,2.932,0,0,1-2.93,2.93H17.374a.874.874,0,0,0-.874.879,4.681,4.681,0,0,0,4.678,4.651H53.969A4.681,4.681,0,0,0,58.647,63.6V26.1a.874.874,0,0,0-1.183-.817,10.22,10.22,0,0,1-7.973-.329Zm.5,2.088a11.994,11.994,0,0,0,6.909.254s0,36.308,0,36.308a2.932,2.932,0,0,1-2.93,2.93H21.178A2.933,2.933,0,0,1,18.388,64.5H45.312A4.681,4.681,0,0,0,49.99,59.82V27.04Z" fill="#0e1331" fill-rule="evenodd"/>
        <path id="Trazado_120618" data-name="Trazado 120618" d="M64.667,19.052a.874.874,0,0,0-1.3.4,10.244,10.244,0,0,1-5.9,5.824.873.873,0,0,0-.565.817V63.6a2.932,2.932,0,0,1-2.93,2.93H25.681A.874.874,0,0,0,24.86,67.7a4.682,4.682,0,0,0,4.4,3.083H62.049a4.681,4.681,0,0,0,4.678-4.678V22.93A4.675,4.675,0,0,0,64.667,19.052Zm-.209,2.209a2.916,2.916,0,0,1,.521,1.668V66.109a2.932,2.932,0,0,1-2.93,2.93H29.258a2.92,2.92,0,0,1-1.968-.76H53.969A4.681,4.681,0,0,0,58.647,63.6V26.686a12.005,12.005,0,0,0,5.81-5.423Z" fill="#0e1331" fill-rule="evenodd"/>
      </g>
    </g>
  </g>
</svg>
