<svg xmlns="http://www.w3.org/2000/svg" xmlns:xlink="http://www.w3.org/1999/xlink" width="133" height="133" viewBox="0 0 133 133">
  <defs>
    <clipPath id="clip-path">
      <rect id="Rect치ngulo_35032" data-name="Rect치ngulo 35032" width="101" height="101" transform="translate(401 16163)" fill="#fff" stroke="#707070" stroke-width="1"/>
    </clipPath>
  </defs>
  <g id="Grupo_94724" data-name="Grupo 94724" transform="translate(-383 -16147)">
    <g id="_240_F_327287600_TyhZPz7Qge3YOTv4dab7M9xRDBiZxF9G" data-name="240_F_327287600_TyhZPz7Qge3YOTv4dab7M9xRDBiZxF9G" transform="translate(383 16147)" fill="#ccfff0" stroke="#21155c" stroke-width="3">
      <circle cx="66.5" cy="66.5" r="66.5" stroke="none"/>
      <circle cx="66.5" cy="66.5" r="65" fill="none"/>
    </g>
    <g id="Enmascarar_grupo_302" data-name="Enmascarar grupo 302" clip-path="url(#clip-path)">
      <g id="paraguas" transform="translate(401 16163)">
        <g id="Grupo_94622" data-name="Grupo 94622">
          <path id="Trazado_122017" data-name="Trazado 122017" d="M53.769,4.748a3.268,3.268,0,1,0-6.536,0v81.7a13.072,13.072,0,0,0,26.144,0V83.18a3.268,3.268,0,0,0-6.536,0v3.268a6.536,6.536,0,0,1-13.072,0Z" fill="#dad8db"/>
          <g id="Grupo_94621" data-name="Grupo 94621">
            <path id="Trazado_122018" data-name="Trazado 122018" d="M49.226,4.748v81.7a6.535,6.535,0,0,0,8.808,6.128,6.547,6.547,0,0,1-4.265-6.128V4.748A3.266,3.266,0,0,0,48.229,2.4a3.256,3.256,0,0,1,1,2.347Z" fill="#b6b1b7"/>
            <path id="Trazado_122019" data-name="Trazado 122019" d="M70.109,79.912a3.256,3.256,0,0,0-2.272.921,3.256,3.256,0,0,1,1,2.347v3.268a13.09,13.09,0,0,1-10.8,12.87A13.058,13.058,0,0,0,73.377,86.448V83.18A3.268,3.268,0,0,0,70.109,79.912Z" fill="#b6b1b7"/>
          </g>
          <path id="Trazado_122020" data-name="Trazado 122020" d="M66.845,57.036a.806.806,0,0,0,.659-.347,18.8,18.8,0,0,1,15.685-7.823A18.027,18.027,0,0,1,98.547,56.8a.532.532,0,0,0,.972-.3A49.021,49.021,0,0,0,50.5,8.015h0A49.021,49.021,0,0,0,1.481,56.5a.532.532,0,0,0,.972.3,18.026,18.026,0,0,1,15.358-7.938A18.8,18.8,0,0,1,33.5,56.689a.806.806,0,0,0,.659.347L50.5,35.311Z" fill="#ff8086"/>
          <path id="Trazado_122021" data-name="Trazado 122021" d="M34.16,57.036a.806.806,0,0,0,.653-.347A18.8,18.8,0,0,1,50.5,48.866h0a18.8,18.8,0,0,1,15.685,7.823.807.807,0,0,0,.655.347c0-27.073-7.316-49.02-16.34-49.02S34.16,29.963,34.16,57.036Z" fill="#ffe07d"/>
          <path id="Trazado_122022" data-name="Trazado 122022" d="M50.5,8.015h0c-.76,0-1.516.02-2.268.054A49.026,49.026,0,0,1,94.8,52.763,18.686,18.686,0,0,1,98.546,56.8a.532.532,0,0,0,.972-.3A49.02,49.02,0,0,0,50.5,8.015Z" fill="#e5646e"/>
          <path id="Trazado_122023" data-name="Trazado 122023" d="M50.5,8.015a5.864,5.864,0,0,0-2.269.472c7.473,3.115,13.329,21.39,14.005,44.141a17.933,17.933,0,0,1,3.949,4.06.807.807,0,0,0,.655.347c0-27.073-7.316-49.02-16.34-49.02Z" fill="#ffd064"/>
        </g>
        <path id="Trazado_122024" data-name="Trazado 122024" d="M86.028,21.146A50.145,50.145,0,0,0,55.248,6.758V4.748a4.747,4.747,0,1,0-9.495,0V6.757A50.031,50.031,0,0,0,20.74,16.232a1.479,1.479,0,1,0,1.745,2.389A47.091,47.091,0,0,1,43.853,9.954c-2.39,2.6-4.537,6.633-6.31,11.952-2.85,8.551-4.536,19.641-4.819,31.541a20.536,20.536,0,0,0-14.913-6.06A19.574,19.574,0,0,0,3.075,53.654,47.08,47.08,0,0,1,18.043,22.3a1.48,1.48,0,0,0-2.021-2.162A50.362,50.362,0,0,0,0,56.483a2.012,2.012,0,0,0,3.67,1.159,16.653,16.653,0,0,1,14.138-7.3,17.331,17.331,0,0,1,14.475,7.193,2.29,2.29,0,0,0,1.869.977h0a2.29,2.29,0,0,0,1.87-.977,16.772,16.772,0,0,1,9.728-6.612V62.78a1.479,1.479,0,0,0,2.959,0V50.426c.588-.053,1.184-.081,1.788-.081s1.2.028,1.789.081V75.165H48.712V68.7a1.479,1.479,0,0,0-2.959,0V86.448a14.552,14.552,0,0,0,29.1,0V83.18a4.747,4.747,0,0,0-9.495,0v3.268a5.057,5.057,0,0,1-10.113,0V50.927a16.774,16.774,0,0,1,9.727,6.613,2.29,2.29,0,0,0,1.869.976h0a2.29,2.29,0,0,0,1.869-.977,17.33,17.33,0,0,1,14.475-7.193,16.653,16.653,0,0,1,14.138,7.3A2.012,2.012,0,0,0,101,56.483a50.187,50.187,0,0,0-14.97-35.337ZM60.3,94.464a8.025,8.025,0,0,0,8.015-8.015V83.18a1.789,1.789,0,0,1,3.577,0v3.268a11.593,11.593,0,0,1-23.185,0V78.124h3.577v8.325A8.025,8.025,0,0,0,60.3,94.464ZM48.712,4.748a1.788,1.788,0,1,1,3.577,0V6.571c-.594-.021-1.19-.035-1.788-.035h0c-.6,0-1.193.012-1.787.033ZM50.5,47.387a20.554,20.554,0,0,0-14.813,5.955C35.973,41.8,37.6,31.08,40.35,22.841,43.177,14.36,46.877,9.495,50.5,9.495s7.323,4.865,10.151,13.346c2.746,8.239,4.377,18.958,4.664,30.5A20.555,20.555,0,0,0,50.5,47.387Zm32.69,0a20.536,20.536,0,0,0-14.912,6.058c-.283-11.9-1.969-22.989-4.819-31.539-1.77-5.31-3.913-9.34-6.3-11.939A47.76,47.76,0,0,1,97.922,53.651,19.572,19.572,0,0,0,83.189,47.387Z"/>
      </g>
    </g>
    <rect id="Rect치ngulo_34074" data-name="Rect치ngulo 34074" width="18.053" height="18.053" rx="2" transform="matrix(0.945, 0.327, -0.327, 0.945, 485.325, 16252.129)" fill="#764cf0"/>
  </g>
</svg>
