<svg xmlns="http://www.w3.org/2000/svg" xmlns:xlink="http://www.w3.org/1999/xlink" width="67" height="67" viewBox="0 0 67 67">
  <defs>
    <clipPath id="clip-path">
      <rect id="Rectángulo_34712" data-name="Rectángulo 34712" width="67" height="67" transform="translate(1194 13759)" fill="#ffd41c" stroke="#707070" stroke-width="1"/>
    </clipPath>
  </defs>
  <g id="Enmascarar_grupo_231" data-name="Enmascarar grupo 231" transform="translate(-1194 -13759)" clip-path="url(#clip-path)">
    <g id="inversion" transform="translate(1194 13759)">
      <g id="Grupo_93703" data-name="Grupo 93703">
        <path id="Trazado_120659" data-name="Trazado 120659" d="M63.877,32.847A25.2,25.2,0,1,1,26.309,10.883L38.675,32.847Z" fill="#df75a5"/>
        <path id="Trazado_120660" data-name="Trazado 120660" d="M42.106,57.818a25.206,25.206,0,0,1-15.8-46.934l2.007,3.564a25.2,25.2,0,0,0,13.79,43.37Z" fill="#dd5790"/>
        <path id="Trazado_120661" data-name="Trazado 120661" d="M66.019,28.332h-25.2L28.45,6.369A25.209,25.209,0,0,1,66.019,28.332Z" fill="#b3e59f"/>
        <path id="Trazado_120662" data-name="Trazado 120662" d="M40.816,3.131a25.311,25.311,0,0,1,3.431.232,25.128,25.128,0,0,0-13.79,6.57L28.45,6.369A25.086,25.086,0,0,1,40.816,3.131Z" fill="#95d6a4"/>
        <path id="Trazado_120663" data-name="Trazado 120663" d="M49.9,37.221,39.523,41.184a2.034,2.034,0,0,0-.557,3.479l1.994,1.621-7.622,9.582L18.484,44.185a3.334,3.334,0,0,0-4.46.306L3.557,55.346a3.333,3.333,0,1,0,4.8,4.628l8.375-8.685L31.823,63.156a3.333,3.333,0,0,0,4.669-.545l9.642-12.121,1.456,1.183a2.034,2.034,0,0,0,3.292-1.257l1.757-10.972A2.034,2.034,0,0,0,49.9,37.221Z" fill="#80b4fb"/>
        <g id="Grupo_93702" data-name="Grupo 93702">
          <circle id="Elipse_5454" data-name="Elipse 5454" cx="11.401" cy="11.401" r="11.401" transform="translate(0.981 13.876)" fill="#ffe07d"/>
          <path id="Trazado_120664" data-name="Trazado 120664" d="M14.238,36.526a11.4,11.4,0,1,1,0-22.5,11.4,11.4,0,0,0,0,22.5Z" fill="#ffc250"/>
        </g>
      </g>
      <g id="Grupo_93704" data-name="Grupo 93704">
        <path id="Trazado_120665" data-name="Trazado 120665" d="M63.877,31.866H39.248L27.164,10.4a.982.982,0,0,0-1.338-.373,26.174,26.174,0,0,0-6.4,5.072,12.38,12.38,0,1,0-7.045,22.559c.184,0,.367,0,.549-.013a25.934,25.934,0,0,0,1.577,5.291,4.33,4.33,0,0,0-1.19.873L2.85,54.664a4.315,4.315,0,1,0,6.212,5.991l1.98-2.053A.981.981,0,1,0,9.629,57.24l-1.98,2.053a2.352,2.352,0,0,1-3.385-3.266L14.731,45.173a2.345,2.345,0,0,1,3.146-.216L32.731,56.638a.981.981,0,0,0,1.375-.16L41.728,46.9a.981.981,0,0,0-.149-1.373L39.585,43.9a1.053,1.053,0,0,1,.289-1.8l10.381-3.963a1.052,1.052,0,0,1,1.414,1.15L49.913,50.261a1.053,1.053,0,0,1-1.7.65l-1.455-1.183a.981.981,0,0,0-1.387.15L35.725,62a2.354,2.354,0,0,1-3.3.384L17.338,50.517a.981.981,0,0,0-1.313.09l-3.714,3.851a.981.981,0,1,0,1.413,1.363l3.1-3.213L31.216,63.927a4.317,4.317,0,0,0,6.045-.705l3.393-4.266a26.2,26.2,0,0,0,24.2-26.109.981.981,0,0,0-.981-.981ZM1.963,25.277A10.419,10.419,0,1,1,12.382,35.7,10.431,10.431,0,0,1,1.963,25.277Zm40.417,31.51,3.905-4.91.686.557a3.016,3.016,0,0,0,4.881-1.863L53.607,39.6A3.015,3.015,0,0,0,49.554,36.3L39.173,40.267a3.016,3.016,0,0,0-.827,5.158l1.241,1.009-6.41,8.058L19.09,43.414a4.307,4.307,0,0,0-2.64-.926,23.979,23.979,0,0,1-1.567-5.083,12.377,12.377,0,0,0,6.065-21.061,24.218,24.218,0,0,1,5-4.107L37.819,33.328a.981.981,0,0,0,.855.5h24.2a24.24,24.24,0,0,1-20.5,22.958Z"/>
        <path id="Trazado_120666" data-name="Trazado 120666" d="M63.328,14.955a.981.981,0,1,0-1.686,1,24.165,24.165,0,0,1,3.375,11.391H41.39L29.8,6.759a24.239,24.239,0,0,1,29.67,6.118.981.981,0,1,0,1.511-1.253,26.2,26.2,0,0,0-33.009-6.11.982.982,0,0,0-.373,1.336L39.961,28.814a.981.981,0,0,0,.855.5h25.2A.981.981,0,0,0,67,28.332a26.144,26.144,0,0,0-3.672-13.377Z"/>
        <path id="Trazado_120667" data-name="Trazado 120667" d="M13.825,24.289A10.882,10.882,0,0,1,11.047,23a1.035,1.035,0,0,1-.259-1,1.384,1.384,0,0,1,.919-1.093,2.357,2.357,0,0,1,2.161.347.981.981,0,1,0,1.255-1.509A4.229,4.229,0,0,0,13.3,18.9v-.555a.981.981,0,0,0-1.963,0v.624c-.063.016-.127.034-.191.053a3.327,3.327,0,0,0-2.282,2.609,2.955,2.955,0,0,0,.976,2.91,11.635,11.635,0,0,0,3.336,1.6,1.555,1.555,0,0,1,1.122,1.825,2,2,0,0,1-1.986,1.688A3.246,3.246,0,0,1,10,29.046a.981.981,0,0,0-1.075,1.643,4.786,4.786,0,0,0,2.407.9v.623a.981.981,0,0,0,1.963,0v-.717a4.019,4.019,0,0,0,2.934-3.2,3.5,3.5,0,0,0-2.4-4Z"/>
      </g>
    </g>
  </g>
</svg>
