<svg xmlns="http://www.w3.org/2000/svg" xmlns:xlink="http://www.w3.org/1999/xlink" width="133" height="133" viewBox="0 0 133 133">
  <defs>
    <clipPath id="clip-path">
      <rect id="Rect치ngulo_35034" data-name="Rect치ngulo 35034" width="101" height="101" transform="translate(1101 16163)" fill="#fff" stroke="#707070" stroke-width="1"/>
    </clipPath>
  </defs>
  <g id="Grupo_94728" data-name="Grupo 94728" transform="translate(-1085 -16147)">
    <g id="_240_F_517612944_l74ePXoDwwkjqreI81fnXg55EVVMX5lO" data-name="240_F_517612944_l74ePXoDwwkjqreI81fnXg55EVVMX5lO" transform="translate(1085 16147)" fill="#ccfff0" stroke="#21155c" stroke-width="3">
      <circle cx="66.5" cy="66.5" r="66.5" stroke="none"/>
      <circle cx="66.5" cy="66.5" r="65" fill="none"/>
    </g>
    <g id="Enmascarar_grupo_304" data-name="Enmascarar grupo 304" clip-path="url(#clip-path)">
      <g id="Fill_Outline" data-name="Fill Outline" transform="translate(1097.645 16159.644)">
        <g id="Color">
          <path id="Trazado_122040" data-name="Trazado 122040" d="M100.7,69.754l-47.6-47.606-32.133-1.19,1.19,32.133,47.606,47.6a6.732,6.732,0,0,0,9.52,0L100.7,79.273A6.732,6.732,0,0,0,100.7,69.754ZM35.24,35.24a5.049,5.049,0,1,1,0-7.141A5.049,5.049,0,0,1,35.24,35.24Z" fill="#ff7373"/>
          <path id="Trazado_122041" data-name="Trazado 122041" d="M100.7,69.747,98.73,67.778l-.118.118a26.929,26.929,0,0,1-38.088,0L49.937,57.309A82.025,82.025,0,0,1,34.5,35.85a5.049,5.049,0,1,1-3.854-9.139c-.64-1.8-1.212-3.619-1.734-5.453l-7.961-.3,1.195,32.13,47.6,47.614a6.746,6.746,0,0,0,9.526,0L100.7,79.273a6.746,6.746,0,0,0,0-9.526Z" fill="#ef5350"/>
          <path id="Trazado_122042" data-name="Trazado 122042" d="M82.471,5.049,88.712,17.7l13.956,2.026-10.1,9.844,2.383,13.9L82.471,36.9,69.989,43.466l2.383-13.9-10.1-9.844L76.23,17.7Z" fill="#fffa48"/>
          <path id="Trazado_122043" data-name="Trazado 122043" d="M102.668,19.722,88.712,17.7,82.471,5.049V24.258Z" fill="#fffa48"/>
          <path id="Trazado_122044" data-name="Trazado 122044" d="M102.668,19.722l-10.1,9.844,2.383,13.9L82.471,24.258Z" fill="#fcea42"/>
          <path id="Trazado_122045" data-name="Trazado 122045" d="M62.274,19.722,76.23,17.7,82.471,5.049V24.258Z" fill="#fcea42"/>
          <path id="Trazado_122046" data-name="Trazado 122046" d="M62.274,19.722l10.1,9.844-2.383,13.9L82.471,24.258Z" fill="#fdc741"/>
          <path id="Trazado_122047" data-name="Trazado 122047" d="M94.953,43.466,82.471,36.9,69.989,43.466,82.471,24.258Z" fill="#efad1b"/>
          <path id="Trazado_122048" data-name="Trazado 122048" d="M31.137,53.046,39.2,69.38,57.225,72,44.181,84.715l3.078,17.953L31.137,94.192l-16.124,8.476,3.08-17.953L5.049,72,23.075,69.38Z" fill="#fffa48"/>
          <path id="Trazado_122049" data-name="Trazado 122049" d="M57.225,72,39.2,69.38,31.137,53.046V77.858Z" fill="#fffa48"/>
          <path id="Trazado_122050" data-name="Trazado 122050" d="M57.225,72,44.181,84.715l3.078,17.953L31.137,77.858Z" fill="#fcea42"/>
          <path id="Trazado_122051" data-name="Trazado 122051" d="M5.049,72,23.075,69.38l8.062-16.334V77.858Z" fill="#fcea42"/>
          <path id="Trazado_122052" data-name="Trazado 122052" d="M5.049,72,18.093,84.715l-3.08,17.953,16.124-24.81Z" fill="#fdc741"/>
          <path id="Trazado_122053" data-name="Trazado 122053" d="M47.259,102.668,31.137,94.192l-16.124,8.476,16.124-24.81Z" fill="#efad1b"/>
        </g>
        <g id="Outline_copy" data-name="Outline copy">
          <path id="Trazado_122054" data-name="Trazado 122054" d="M45.379,23.546l6.983.261L68.838,40.259l-.5,2.922a1.683,1.683,0,0,0,2.442,1.774l1.806-.949L85.96,57.393a1.683,1.683,0,1,0,2.38-2.38L75.7,42.372l6.773-3.566,11.7,6.15a1.683,1.683,0,0,0,2.439-1.774L94.376,30.154l9.471-9.225a1.683,1.683,0,0,0-.932-2.871l-13.956-2.02a1.683,1.683,0,1,0-.485,3.331l4.935.717-9.254,2.069V12.261l.473.958a1.683,1.683,0,1,0,3.018-1.49L83.986,4.305a1.752,1.752,0,0,0-3.018,0L75.113,16.158l-13.081,1.9a1.683,1.683,0,0,0-.932,2.871l9.464,9.225L69.527,36.2,54.274,20.959a1.683,1.683,0,0,0-1.126-.491l-7.641-.286A1.663,1.663,0,0,0,43.76,21.8a1.683,1.683,0,0,0,1.619,1.745ZM81.688,35.414l-6.774,3.561,7.557-11.628,7.557,11.628-6.774-3.561a1.683,1.683,0,0,0-1.565,0ZM90.91,29.86l1.01,5.849L85.208,25.378l12.034-2.7-5.85,5.685a1.683,1.683,0,0,0-.481,1.49Zm-14.439-10.5a1.683,1.683,0,0,0,1.269-.921l3.048-6.172v9.891l-9.257-2.077Zm-8.766,3.307,12.036,2.7L73.029,35.7l1.01-5.849a1.683,1.683,0,0,0-.485-1.49Z" fill="#323232"/>
          <path id="Trazado_122055" data-name="Trazado 122055" d="M93.1,59.771a1.685,1.685,0,0,0-2.385,2.38L99.5,70.934a5.073,5.073,0,0,1,0,7.15L78.075,99.509a5.069,5.069,0,0,1-7.146,0l-19.5-19.524L58.4,73.214a1.683,1.683,0,0,0-.932-2.871L40.32,67.85,32.652,52.3a1.752,1.752,0,0,0-3.019,0l-1.944,3.937-3.871-3.871-.655-17.624a15.56,15.56,0,0,0,2.843.539,6.738,6.738,0,1,0-1.049-3.558,15.264,15.264,0,0,1-1.925-.55l-.315-8.468,15.961.589a1.648,1.648,0,0,0,1.744-1.619A1.683,1.683,0,0,0,38.8,19.931l-5.372-.2a30.415,30.415,0,0,0-6.022-8.415,28.434,28.434,0,0,0-11.61-7.3C11.516,2.759,7.9,3.322,5.61,5.61S2.748,11.514,4.018,15.8a28.434,28.434,0,0,0,7.3,11.6,30.482,30.482,0,0,0,8.415,6.025l.734,19.726a1.671,1.671,0,0,0,.491,1.128l5.152,5.152-4.154,8.415L4.807,70.334a1.683,1.683,0,0,0-.936,2.88l9.053,8.826a1.686,1.686,0,1,0,2.356-2.412l-4.8-4.684,17.927,4.024L18.053,94.9l1.7-9.9a1.684,1.684,0,1,0-3.319-.569l-3.078,17.953a1.683,1.683,0,0,0,2.442,1.774l15.34-8.064,15.34,8.064a1.683,1.683,0,0,0,2.442-1.774L45.99,85.3l3.03-2.959L68.56,101.894a8.446,8.446,0,0,0,11.9,0l21.426-21.426a8.446,8.446,0,0,0,0-11.906ZM34.049,34.049a3.366,3.366,0,0,1-3.639.741,7.145,7.145,0,0,0,4.376-4.376,3.366,3.366,0,0,1-.737,3.635Zm-4.763-4.763a3.354,3.354,0,0,1,2.38-.985c.067,0,.133.015.2.02a4.011,4.011,0,0,1-3.545,3.548A3.344,3.344,0,0,1,29.286,29.286ZM13.7,25.016A25.039,25.039,0,0,1,7.247,14.848c-.884-3-.613-5.5.742-6.859s3.856-1.626,6.859-.742A25.039,25.039,0,0,1,25.016,13.7a28.766,28.766,0,0,1,4.544,5.891l-8.548-.315a1.654,1.654,0,0,0-1.252.491,1.683,1.683,0,0,0-.491,1.252l.318,8.55A28.747,28.747,0,0,1,13.7,25.016ZM38.957,71.046l9.006,1.308-15.148,3.4v-15.5l4.869,9.866A1.683,1.683,0,0,0,38.957,71.046Zm-24.65,1.309,9.006-1.309a1.683,1.683,0,0,0,1.267-.921l4.874-9.871v15.5ZM30.349,92.7,19.934,98.178l11.2-17.231,11.2,17.231L31.92,92.7a1.673,1.673,0,0,0-1.565,0ZM42.521,85l1.7,9.9L33.867,78.965l17.927-4.024-8.787,8.565A1.683,1.683,0,0,0,42.521,85Z" fill="#323232"/>
          <path id="Trazado_122056" data-name="Trazado 122056" d="M46.212,46.212a5.036,5.036,0,0,0,3.309-8.592L47.14,35.24a1.732,1.732,0,0,0-2.38,0l-9.521,9.52a1.683,1.683,0,0,0,0,2.38l2.382,2.382a5.027,5.027,0,0,0,8.592-3.309Zm-.263-7.406L47.142,40a1.683,1.683,0,1,1-2.382,2.38l-1.19-1.19Zm-3.57,8.331a1.683,1.683,0,0,1-2.38,0l-1.19-1.192,2.38-2.38,1.19,1.19a1.683,1.683,0,0,1,0,2.385Z" fill="#323232"/>
          <path id="Trazado_122057" data-name="Trazado 122057" d="M49.521,59.043a1.683,1.683,0,1,0,2.38,2.38l2.381-2.38a5.017,5.017,0,0,0,1.451-3.309,5.036,5.036,0,0,0,3.309-8.584l-2.382-2.382a1.683,1.683,0,0,0-2.38,0L44.76,54.291a1.683,1.683,0,1,0,2.38,2.38L50.711,53.1l1.19,1.192a1.683,1.683,0,0,1,0,2.38Zm5.95-10.711,1.19,1.19a1.683,1.683,0,1,1-2.38,2.38l-1.19-1.19Z" fill="#323232"/>
          <path id="Trazado_122058" data-name="Trazado 122058" d="M59.043,68.564a1.683,1.683,0,1,0,2.38,2.38L68.562,63.8a5.049,5.049,0,0,0,0-7.14,5.169,5.169,0,0,0-7.141,0L54.279,63.8a1.683,1.683,0,1,0,2.38,2.38l3.573-3.572,2.378,2.382Zm3.57-8.331,1.192-1.19a1.72,1.72,0,0,1,2.378,0,1.683,1.683,0,0,1,0,2.38l-1.19,1.19Z" fill="#323232"/>
          <path id="Trazado_122059" data-name="Trazado 122059" d="M68.868,80.706a1.683,1.683,0,0,0,2.075-.241l9.521-9.521a1.683,1.683,0,1,0-2.38-2.38L73.6,73.046l2.506-7.517a1.683,1.683,0,0,0-2.787-1.723L63.8,73.327a1.683,1.683,0,1,0,2.38,2.38l4.48-4.481-2.506,7.518a1.683,1.683,0,0,0,.712,1.961Z" fill="#323232"/>
          <path id="Trazado_122060" data-name="Trazado 122060" d="M75.7,87.6a5.049,5.049,0,0,0,7.141,0l4.76-4.76a5.049,5.049,0,0,0,0-7.14l-2.38-2.382a1.683,1.683,0,0,0-2.38,0l-9.521,9.521a1.683,1.683,0,0,0,0,2.38Zm8.331-10.711,1.19,1.192a1.683,1.683,0,0,1,0,2.38l-4.76,4.76a1.683,1.683,0,0,1-2.38,0l-1.192-1.19Z" fill="#323232"/>
        </g>
      </g>
    </g>
    <rect id="Rect치ngulo_34072" data-name="Rect치ngulo 34072" width="18.053" height="18.053" rx="2" transform="matrix(0.945, 0.327, -0.327, 0.945, 1187.325, 16252.129)" fill="#764cf0"/>
  </g>
</svg>
