<svg xmlns="http://www.w3.org/2000/svg" xmlns:xlink="http://www.w3.org/1999/xlink" width="67" height="67" viewBox="0 0 67 67">
  <defs>
    <clipPath id="clip-path">
      <rect id="Rectángulo_34757" data-name="Rectángulo 34757" width="67" height="67" transform="translate(189 4865.199)" fill="#ffd41c"/>
    </clipPath>
  </defs>
  <g id="Enmascarar_grupo_259" data-name="Enmascarar grupo 259" transform="translate(-189 -4865.199)" clip-path="url(#clip-path)">
    <g id="la-lealtad-del-cliente" transform="translate(189 4865.199)">
      <g id="Grupo_93810" data-name="Grupo 93810">
        <path id="Trazado_120880" data-name="Trazado 120880" d="M55.035,28.041l-.558,8.785a2.985,2.985,0,0,1,4.093,2.095l.949-14.914a2.853,2.853,0,0,0-4.372,2.233Z" fill="#ffbc85" fill-rule="evenodd"/>
      </g>
      <g id="Grupo_93811" data-name="Grupo 93811">
        <path id="Trazado_120881" data-name="Trazado 120881" d="M43.277,50.821l-.5,6.657,5.862,2.673L54.9,57.479c5.008-4.618,8.863-10.345,9.392-18.62l.934-14.736a2.854,2.854,0,1,0-5.7-.361l-.015.246L58.57,38.921a2.984,2.984,0,0,0-4.093-2.095,4.147,4.147,0,0,0-1.127.621l-3.025,2.527-3.81,3.182c-2.761,2.3-2.977,4.231-3.237,7.665Z" fill="#ffe5c1" fill-rule="evenodd"/>
      </g>
      <g id="Grupo_93812" data-name="Grupo 93812">
        <path id="Trazado_120882" data-name="Trazado 120882" d="M20.49,43.156l-3.81-3.182-3.025-2.527a4.2,4.2,0,0,0-1.127-.621,2.983,2.983,0,0,0-4.093,2.095L7.485,24.007l-.015-.246a2.856,2.856,0,0,0-5.7.361l.938,14.736c.525,8.276,4.38,14,9.388,18.62l5.7,1.6,6.432-1.6-.5-6.657c-.26-3.435-.48-5.362-3.237-7.665Z" fill="#ffe5c1" fill-rule="evenodd"/>
      </g>
      <g id="Grupo_93813" data-name="Grupo 93813">
        <path id="Trazado_120883" data-name="Trazado 120883" d="M12.527,36.827l-.558-8.785-.115-1.8a2.863,2.863,0,0,0-3.029-2.668,2.829,2.829,0,0,0-1.34.435l.949,14.914a2.983,2.983,0,0,1,4.093-2.095Z" fill="#ffbc85" fill-rule="evenodd"/>
      </g>
      <g id="Grupo_93814" data-name="Grupo 93814">
        <path id="Trazado_120884" data-name="Trazado 120884" d="M15.139,41.973l3.81,3.182c2.028,1.7,2.009,3.055,2.27,6.49l.413,5.835h2.6l-.5-6.657c-.26-3.435-.48-5.362-3.237-7.665l-3.81-3.182-3.025-2.527a4.2,4.2,0,0,0-1.127-.621,3.043,3.043,0,0,0-3.933,1.537c1.418-.532,2.78.573,4.141,1.6Z" fill="#fed1a3" fill-rule="evenodd"/>
      </g>
      <g id="Grupo_93815" data-name="Grupo 93815">
        <path id="Trazado_120885" data-name="Trazado 120885" d="M24.229,57.479H9.085a1.231,1.231,0,0,0-1.224,1.228v6.088a1.227,1.227,0,0,0,1.224,1.224H26.209a1.227,1.227,0,0,0,1.224-1.224V58.707a1.231,1.231,0,0,0-1.224-1.228Z" fill="#eb5468" fill-rule="evenodd"/>
      </g>
      <g id="Grupo_93816" data-name="Grupo 93816">
        <path id="Trazado_120886" data-name="Trazado 120886" d="M40.795,57.479a1.231,1.231,0,0,0-1.224,1.228v6.088a1.227,1.227,0,0,0,1.224,1.224H57.919a1.227,1.227,0,0,0,1.224-1.224V58.707a1.231,1.231,0,0,0-1.224-1.228H40.795Z" fill="#eb5468" fill-rule="evenodd"/>
      </g>
      <g id="Grupo_93817" data-name="Grupo 93817">
        <path id="Trazado_120887" data-name="Trazado 120887" d="M42.518,36.86a12.753,12.753,0,1,0-18.036,0,12.17,12.17,0,0,0,1.094.971H41.428A13.3,13.3,0,0,0,42.518,36.86Z" fill="#9fd4fe" fill-rule="evenodd"/>
      </g>
      <g id="Grupo_93818" data-name="Grupo 93818">
        <path id="Trazado_120888" data-name="Trazado 120888" d="M36.754,30.609c-1.343-1.768-4.067-1.8-6.5,0a7.951,7.951,0,0,0-4.674,7.223,12.749,12.749,0,0,0,15.851,0A7.952,7.952,0,0,0,36.754,30.609Z" fill="#eb5468" fill-rule="evenodd"/>
      </g>
      <g id="Grupo_93819" data-name="Grupo 93819">
        <path id="Trazado_120889" data-name="Trazado 120889" d="M21.874,14.991l.071-3.371,1.924-2.772L20.683,7.739,18.644,5.052,16.6,7.739,13.42,8.848l1.924,2.772.071,3.371,3.23-.975Z" fill="#ffd772" fill-rule="evenodd"/>
      </g>
      <g id="Grupo_93820" data-name="Grupo 93820">
        <path id="Trazado_120890" data-name="Trazado 120890" d="M30.2,7.545l.071,3.371,3.23-.971,3.23.971L36.8,7.545l1.924-2.769L35.541,3.664,33.5.981,31.459,3.664,28.278,4.777Z" fill="#ffd772" fill-rule="evenodd"/>
      </g>
      <g id="Grupo_93821" data-name="Grupo 93821">
        <path id="Trazado_120891" data-name="Trazado 120891" d="M43.135,8.848l1.92,2.772.074,3.371,3.23-.975,3.226.975.074-3.371,1.924-2.772L50.4,7.739,48.36,5.052,46.317,7.739Z" fill="#ffd772" fill-rule="evenodd"/>
      </g>
      <g id="Grupo_93822" data-name="Grupo 93822">
        <path id="Trazado_120892" data-name="Trazado 120892" d="M8.434,38.922,7.47,23.762a2.855,2.855,0,0,0-5.649-.383c3.635-1.109,3.349.744,3.475,2.75L5.844,37.4c.13,2.713.662,4.465,1.488,5.291,1.273,1.269,4.714,5.049,5.861,6.14s3.3.718,1.92-1.221c-1.146-1.09-4.186-4.324-5.459-5.593A3.956,3.956,0,0,1,8.434,38.922Z" fill="#fed1a3" fill-rule="evenodd"/>
      </g>
      <g id="Grupo_93823" data-name="Grupo 93823">
        <path id="Trazado_120893" data-name="Trazado 120893" d="M22.856,58.707v6.088a1.227,1.227,0,0,1-1.224,1.224h4.577a1.227,1.227,0,0,0,1.224-1.224V58.707a1.231,1.231,0,0,0-1.224-1.228H21.632A1.231,1.231,0,0,1,22.856,58.707Z" fill="#e5384f" fill-rule="evenodd"/>
      </g>
      <g id="Grupo_93824" data-name="Grupo 93824">
        <path id="Trazado_120894" data-name="Trazado 120894" d="M51.645,57.479H54.9c5.008-4.618,8.863-10.345,9.392-18.62l.934-14.736a2.865,2.865,0,0,0-2.2-2.958c-.1,2.047-1.265,17.095-1.477,18.46a29.006,29.006,0,0,1-1.533,6.6,33.439,33.439,0,0,1-8.38,11.252Z" fill="#fed1a3" fill-rule="evenodd"/>
      </g>
      <g id="Grupo_93825" data-name="Grupo 93825">
        <path id="Trazado_120895" data-name="Trazado 120895" d="M38.477,18.575A12.758,12.758,0,0,1,40.46,34.051a7.833,7.833,0,0,1,.967,3.781,13.275,13.275,0,0,0,1.09-.971A12.754,12.754,0,0,0,32.266,15.147,12.683,12.683,0,0,1,38.477,18.575Z" fill="#85beef" fill-rule="evenodd"/>
      </g>
      <g id="Grupo_93826" data-name="Grupo 93826">
        <path id="Trazado_120896" data-name="Trazado 120896" d="M21.944,11.62l1.924-2.772L20.683,7.739,18.644,5.052l-.733.967a14.361,14.361,0,0,1,.272,8.138l.461-.141,3.23.975Z" fill="#fbba58" fill-rule="evenodd"/>
      </g>
      <g id="Grupo_93827" data-name="Grupo 93827">
        <path id="Trazado_120897" data-name="Trazado 120897" d="M33.193,1.387a14.364,14.364,0,0,1-.067,8.67l.376-.112,3.23.971L36.8,7.545l1.924-2.768L35.541,3.664,33.5.981Z" fill="#fbba58" fill-rule="evenodd"/>
      </g>
      <g id="Grupo_93828" data-name="Grupo 93828">
        <path id="Trazado_120898" data-name="Trazado 120898" d="M47.742,5.864a14.353,14.353,0,0,1-.007,8.343l.625-.19,3.226.975.074-3.371,1.924-2.772L50.4,7.739,48.36,5.052Z" fill="#fbba58" fill-rule="evenodd"/>
      </g>
      <g id="Grupo_93829" data-name="Grupo 93829">
        <path id="Trazado_120899" data-name="Trazado 120899" d="M35.277,31.442a11.847,11.847,0,0,1,3.535,8,12.66,12.66,0,0,0,2.616-1.607,7.951,7.951,0,0,0-4.674-7.223A5.2,5.2,0,0,1,35.277,31.442Z" fill="#e5384f" fill-rule="evenodd"/>
      </g>
      <g id="Grupo_93830" data-name="Grupo 93830">
        <path id="Trazado_120900" data-name="Trazado 120900" d="M36.754,30.609A5.187,5.187,0,1,0,33.5,31.755a5.175,5.175,0,0,0,3.252-1.146Z" fill="#ffe5c1" fill-rule="evenodd"/>
      </g>
      <g id="Grupo_93831" data-name="Grupo 93831">
        <path id="Trazado_120901" data-name="Trazado 120901" d="M35.827,26.028a5.193,5.193,0,0,1-4.681,5.165,5.209,5.209,0,0,0,2.355.562,5.187,5.187,0,0,0,0-10.374c-.171,0-.342.011-.506.026a5.187,5.187,0,0,1,2.832,4.621Z" fill="#fed1a3" fill-rule="evenodd"/>
      </g>
      <g id="Grupo_93832" data-name="Grupo 93832">
        <path id="Trazado_120902" data-name="Trazado 120902" d="M54.008,64.794a1.227,1.227,0,0,1-1.224,1.224h5.135a1.227,1.227,0,0,0,1.224-1.224V58.707a1.231,1.231,0,0,0-1.224-1.228H52.784a1.231,1.231,0,0,1,1.224,1.228Z" fill="#e5384f" fill-rule="evenodd"/>
      </g>
      <g id="Grupo_93833" data-name="Grupo 93833">
        <path id="Trazado_120903" data-name="Trazado 120903" d="M54.7,41.217l-4.759,5.009c-1.09,1.146-.041,3.2,1.95,1.381,1.146-1.09,4.186-4.324,5.455-5.593a3.543,3.543,0,0,0,1.224-3.092,2.669,2.669,0,0,0-.071-.3A3.005,3.005,0,0,0,54.54,36.8c2.794,1.407,1.3,3.271.16,4.413Z" fill="#fed1a3" fill-rule="evenodd"/>
      </g>
      <g id="Grupo_93834" data-name="Grupo 93834">
        <path id="Trazado_120904" data-name="Trazado 120904" d="M14.368,11.936l.065,3.075a.981.981,0,0,0,1.265.919l2.946-.889,2.946.889a.981.981,0,0,0,1.265-.919l.065-3.075,1.755-2.529a.982.982,0,0,0-.484-1.486L21.286,6.91l-1.86-2.451a.981.981,0,0,0-1.564,0L16,6.909,13.1,7.921a.982.982,0,0,0-.484,1.486Zm2.559-3.271a.98.98,0,0,0,.459-.334l1.257-1.657L19.9,8.332a.982.982,0,0,0,.459.334l1.965.684-1.187,1.711a.98.98,0,0,0-.175.539l-.044,2.079-1.992-.6a.978.978,0,0,0-.567,0l-1.992.6L16.325,11.6a.979.979,0,0,0-.175-.539L14.963,9.35Z"/>
        <path id="Trazado_120905" data-name="Trazado 120905" d="M29.226,7.862l.065,3.075a.981.981,0,0,0,1.264.919L33.5,10.97l2.947.886a.982.982,0,0,0,1.264-.919l.065-3.075,1.755-2.525A.981.981,0,0,0,39.05,3.85L36.143,2.835,34.283.388A.981.981,0,0,0,33.5,0h0a.981.981,0,0,0-.781.387L30.857,2.835l-2.9,1.015a.981.981,0,0,0-.482,1.486Zm2.557-3.272a.979.979,0,0,0,.457-.332L33.5,2.6,34.76,4.258a.98.98,0,0,0,.458.333l1.966.687L36,6.986a.98.98,0,0,0-.175.539l-.044,2.08-1.993-.6a.984.984,0,0,0-.565,0l-1.993.6-.044-2.08a.979.979,0,0,0-.175-.539L29.82,5.277Z"/>
        <path id="Trazado_120906" data-name="Trazado 120906" d="M44.081,11.936l.068,3.076a.981.981,0,0,0,1.265.918l2.946-.889,2.942.889a.982.982,0,0,0,1.265-.918l.068-3.076,1.755-2.53a.982.982,0,0,0-.484-1.487L51,6.909l-1.86-2.451a.981.981,0,0,0-.781-.388h0a.982.982,0,0,0-.781.387L45.715,6.909l-2.9,1.012a.982.982,0,0,0-.484,1.486ZM46.64,8.666a.981.981,0,0,0,.458-.333l1.261-1.658,1.258,1.658a.981.981,0,0,0,.459.334l1.965.684-1.187,1.71a.982.982,0,0,0-.175.538l-.046,2.08-1.989-.6a.978.978,0,0,0-.568,0l-1.994.6-.046-2.08a.982.982,0,0,0-.174-.537L44.677,9.35Z"/>
        <path id="Trazado_120907" data-name="Trazado 120907" d="M47.236,27.841a13.724,13.724,0,1,0-4.024,9.713,13.638,13.638,0,0,0,4.024-9.713Zm-22.06-8.322a11.771,11.771,0,0,1,17,16.283,8.958,8.958,0,0,0-3.818-5.431,6.168,6.168,0,1,0-9.7,0A8.957,8.957,0,0,0,24.832,35.8a11.788,11.788,0,0,1,.344-16.285Zm4.12,7.049A4.206,4.206,0,1,1,33.5,30.773,4.21,4.21,0,0,1,29.3,26.568ZM26.574,37.36a6.974,6.974,0,0,1,3.588-5.61,6.147,6.147,0,0,0,6.678,0,6.975,6.975,0,0,1,3.588,5.608A11.8,11.8,0,0,1,26.574,37.36Z"/>
        <path id="Trazado_120908" data-name="Trazado 120908" d="M65.26,21.41a3.838,3.838,0,0,0-6.493,1.255,3.926,3.926,0,0,0-.524-.072,3.847,3.847,0,0,0-4.075,3.587l-.112,1.8-.521,8.194a5.472,5.472,0,0,0-.777.492l-.037.03L45.885,42.4c-3.007,2.509-3.31,4.7-3.587,8.345l-.434,5.75H40.795a2.21,2.21,0,0,0-2.206,2.209v6.088A2.208,2.208,0,0,0,40.795,67h6.292a.981.981,0,0,0,0-1.963H40.795a.246.246,0,0,1-.243-.243V58.707a.248.248,0,0,1,.243-.247H57.919a.248.248,0,0,1,.243.247v6.088a.246.246,0,0,1-.243.243H51.63a.981.981,0,0,0,0,1.963h6.288a2.208,2.208,0,0,0,2.206-2.206V58.707A2.21,2.21,0,0,0,57.919,56.5H57.31a26.787,26.787,0,0,0,7.966-17.577l.934-14.735a3.806,3.806,0,0,0-.95-2.776ZM56.015,28.1l.112-1.8a1.884,1.884,0,0,1,1.986-1.751,1.939,1.939,0,0,1,.383.068L57.759,36.2a3.982,3.982,0,0,0-.792-.364,4.127,4.127,0,0,0-1.431-.2Zm8.236-4.041L63.317,38.8c-.437,6.84-3.237,12.474-8.8,17.7H43.833l.423-5.6c.257-3.388.472-4.971,2.888-6.986l6.816-5.692A2.559,2.559,0,0,1,56.35,37.7a1.831,1.831,0,0,1,1.207,1.2,2.5,2.5,0,0,1-.906,2.42c-.532.532-1.361,1.395-2.239,2.308-1.191,1.239-2.542,2.644-3.2,3.268a.982.982,0,1,0,1.353,1.422c.688-.654,2-2.014,3.26-3.329.871-.906,1.694-1.762,2.211-2.279a4.583,4.583,0,0,0,1.517-3.82l.957-15.064a1.873,1.873,0,0,1,3.738.236Z"/>
        <path id="Trazado_120909" data-name="Trazado 120909" d="M26.209,56.5H25.139l-.434-5.75c-.277-3.647-.579-5.832-3.587-8.344l-6.835-5.708-.037-.03a5.655,5.655,0,0,0-.777-.494l-.636-9.993a3.843,3.843,0,0,0-4.074-3.584,3.965,3.965,0,0,0-.521.071A3.837,3.837,0,0,0,.79,24.185L1.727,38.92A26.769,26.769,0,0,0,9.69,56.5H9.085a2.21,2.21,0,0,0-2.206,2.209v6.088A2.208,2.208,0,0,0,9.085,67h6.288a.981.981,0,0,0,0-1.963H9.085a.246.246,0,0,1-.243-.243V58.707a.248.248,0,0,1,.243-.247H26.209a.248.248,0,0,1,.243.247v6.088a.246.246,0,0,1-.243.243H19.92a.981.981,0,0,0,0,1.963h6.288a2.208,2.208,0,0,0,2.206-2.206V58.707A2.21,2.21,0,0,0,26.209,56.5ZM8.887,24.552A1.881,1.881,0,0,1,10.874,26.3l.593,9.325a4.085,4.085,0,0,0-2.223.575L8.508,24.619A1.911,1.911,0,0,1,8.887,24.552ZM3.686,38.8,2.749,24.06a1.874,1.874,0,0,1,3.742-.236l.015.235q0,.016,0,.032l.94,14.782a4.514,4.514,0,0,0,1.514,3.836c.53.528,1.373,1.4,2.265,2.332,1.245,1.294,2.532,2.631,3.21,3.277A.982.982,0,0,0,15.789,46.9c-.647-.615-1.919-1.937-3.148-3.215-.9-.935-1.75-1.819-2.293-2.36-1.266-1.266-1.117-2.407-.555-3.052a2.353,2.353,0,0,1,3.251-.05l6.816,5.692c2.416,2.018,2.631,3.6,2.888,6.986l.423,5.6H12.483c-5.564-5.228-8.363-10.862-8.8-17.7Z"/>
      </g>
    </g>
  </g>
</svg>
