<svg xmlns="http://www.w3.org/2000/svg" xmlns:xlink="http://www.w3.org/1999/xlink" width="80" height="80" viewBox="0 0 80 80">
  <defs>
    <clipPath id="clip-path">
      <rect id="Rectángulo_34754" data-name="Rectángulo 34754" width="80" height="80" transform="translate(760 17122)" fill="#ffd41c"/>
    </clipPath>
  </defs>
  <g id="Enmascarar_grupo_255" data-name="Enmascarar grupo 255" transform="translate(-760 -17122)" clip-path="url(#clip-path)">
    <g id="Page-1" transform="translate(760.005 17121.988)">
      <g id="_033---Bullet" data-name="033---Bullet" transform="translate(-1.333)">
        <g id="Icons" transform="translate(2.667 1.333)">
          <path id="Shape" d="M75.831,6.279C77.4,9.843,79,17.347,73.663,29.361L72.012,26.07,69.033,38l-.009.009L66.357,48.7l-3.771-5.658L51.269,71.328l-4.715-6.6L28,77.339,26.754,65.671,0,77.339,11.668,50.585,0,49.337,12.61,30.785l-6.6-4.715L34.3,14.756l-5.658-3.771L39.323,8.318l.009-.009L51.269,5.334,47.978,3.678C59.99-1.656,67.5-.056,71.06,1.508a9.211,9.211,0,0,1,4.771,4.771Z" fill="#ffdc00"/>
          <path id="Shape-2" data-name="Shape" d="M43.723,56.244,21.095,33.616C51,3.707,65.245,7.694,67.845,8.827a1.255,1.255,0,0,1,.667.667c1.133,2.6,5.12,16.841-24.788,46.75Z" fill="#afafaf"/>
          <path id="Shape-3" data-name="Shape" d="M68.512,9.494a1.255,1.255,0,0,0-.667-.667,13.669,13.669,0,0,0-6.791-.7,10.186,10.186,0,0,1,2.791.7,1.255,1.255,0,0,1,.667.667c1.108,2.54,4.92,16.205-22.8,44.731l2.013,2.019c29.909-29.909,25.922-44.15,24.788-46.75Z" fill="#636363"/>
          <path id="Shape-4" data-name="Shape" d="M43.723,60.018a2.656,2.656,0,0,1-3.774,0L17.321,37.389a2.668,2.668,0,0,1,3.774-3.774L43.723,56.244a2.667,2.667,0,0,1,0,3.774Z" fill="#9e9e9e"/>
        </g>
        <g id="Icons_copy">
          <path id="Shape-5" data-name="Shape" d="M2.526,52l9.867,1.056L1.444,78.139A1.333,1.333,0,0,0,3.2,79.9L28.287,68.953l1.056,9.867a1.333,1.333,0,0,0,2.075.961L48.893,67.9l3.958,5.539a1.333,1.333,0,0,0,2.323-.279L65.546,47.231l2.366,3.548a1.333,1.333,0,0,0,2.4-.417L72.952,39.8a1.339,1.339,0,0,0,.039-.133L75.1,31.22l.037.072a1.279,1.279,0,0,0,1.223.736,1.333,1.333,0,0,0,1.188-.792c5.59-12.584,3.76-20.535,2.171-24.155A10.521,10.521,0,0,0,74.26,1.621C70.644.031,62.69-1.8,50.1,3.791A1.333,1.333,0,0,0,50.048,6.2l.072.037L41.675,8.346a1,1,0,0,0-.123.039l-10.569,2.64a1.333,1.333,0,0,0-.417,2.4l3.548,2.366L8.182,26.166A1.333,1.333,0,0,0,7.9,28.489l5.539,3.958L1.564,49.921A1.333,1.333,0,0,0,2.526,52ZM16.381,32.868a1.333,1.333,0,0,0-.328-1.835l-4.616-3.3,26.022-10.4a1.333,1.333,0,0,0,.244-2.348l-3.148-2.105,7.758-1.937c.041-.011.083-.024.123-.039L54.259,7.954a1.333,1.333,0,0,0,.279-2.487l-.679-.34C63.942,1.3,70.232,2.76,73.193,4.06a7.867,7.867,0,0,1,4.08,4.08c1.3,2.963,2.76,9.254-1.067,19.335l-.335-.673a1.333,1.333,0,0,0-2.486.275L70.436,38.9a1.241,1.241,0,0,0-.039.133l-1.939,7.755-2.1-3.148a1.333,1.333,0,0,0-2.348.244L53.6,69.9l-3.3-4.616a1.333,1.333,0,0,0-1.835-.328L31.758,76.319l-1.012-9.455a1.333,1.333,0,0,0-1.325-1.192,1.351,1.351,0,0,0-.533.111L5.247,76.092l10.31-23.64a1.333,1.333,0,0,0-1.081-1.859L5.02,49.581Z"/>
          <path id="Shape-6" data-name="Shape" d="M41.678,62.291A3.991,3.991,0,0,0,48.1,57.737c28.973-29.275,25.939-43.7,24.3-47.446a2.624,2.624,0,0,0-1.349-1.349C67.3,7.3,52.877,4.267,23.6,33.24a3.99,3.99,0,0,0-4.55,6.422ZM69.954,11.362c.641,1.467,5.334,15.014-23.571,44.319L25.658,34.956C54.963,6.043,68.516,10.741,69.954,11.362ZM20.935,35.891a1.333,1.333,0,0,1,1.885,0L45.449,58.52A1.333,1.333,0,1,1,43.563,60.4L20.935,37.776a1.333,1.333,0,0,1,0-1.885Z"/>
        </g>
        <g id="Layer_12" transform="translate(41.336 13.334)">
          <path id="Shape-7" data-name="Shape" d="M1.333,13.334a1.333,1.333,0,0,1-.8-2.4c10.591-8,17.809-10.279,22-10.777a1.333,1.333,0,1,1,.313,2.648c-3.867.459-10.591,2.61-20.705,10.255a1.324,1.324,0,0,1-.809.273Z" fill="#fff"/>
        </g>
      </g>
    </g>
  </g>
</svg>
