<svg xmlns="http://www.w3.org/2000/svg" xmlns:xlink="http://www.w3.org/1999/xlink" width="80" height="80" viewBox="0 0 80 80">
  <defs>
    <clipPath id="clip-path">
      <rect id="Rectángulo_34755" data-name="Rectángulo 34755" width="80" height="80" transform="translate(760 17284)" fill="#ffd41c"/>
    </clipPath>
  </defs>
  <g id="Enmascarar_grupo_256" data-name="Enmascarar grupo 256" transform="translate(-760 -17284)" clip-path="url(#clip-path)">
    <g id="vaca_1_" data-name="vaca (1)" transform="translate(760.496 17284)">
      <path id="Trazado_120823" data-name="Trazado 120823" d="M23.684,29.424s-10.415-5.136-9.131-19.31A21.125,21.125,0,0,1,16.675,2.66l.535-1.08a.871.871,0,0,1,1.631.191C19.932,6.514,23.361,16.309,33.2,17.417l2.468.35Zm0,0" fill="#bc7d53"/>
      <path id="Trazado_120824" data-name="Trazado 120824" d="M26.821,26.37l-3.138,3.053s-10.414-5.136-9.131-19.31a21.086,21.086,0,0,1,2.123-7.453l.536-1.082a.789.789,0,0,1,.082-.134,24.527,24.527,0,0,0-.4,2.673c-1.269,14.031,7.2,20.538,9.923,22.253Zm0,0" fill="#af663e"/>
      <path id="Trazado_120825" data-name="Trazado 120825" d="M19.581,29.445S14.09,23.122,2.3,25.593a1.505,1.505,0,0,0-1.164,1.826C2,30.948,5.323,39.619,17.2,40.732Zm0,0" fill="#ffc1b8"/>
      <path id="Trazado_120826" data-name="Trazado 120826" d="M17.846,37.655l-.65,3.077C5.323,39.62,2,30.948,1.137,27.419A1.508,1.508,0,0,1,2.3,25.593c.217-.046.431-.088.643-.126,1.188,3.842,4.73,10.875,14.9,12.189Zm0,0" fill="#ffb3a8"/>
      <path id="Trazado_120827" data-name="Trazado 120827" d="M55.323,29.424s10.416-5.136,9.131-19.31A21.112,21.112,0,0,0,62.332,2.66L61.8,1.58a.871.871,0,0,0-1.631.191c-1.091,4.744-4.519,14.539-14.355,15.646l-2.468.35Zm0,0" fill="#bc7d53"/>
      <path id="Trazado_120828" data-name="Trazado 120828" d="M52.186,26.37l3.138,3.053s10.414-5.136,9.132-19.31a21.1,21.1,0,0,0-2.123-7.453L61.8,1.579a.789.789,0,0,0-.082-.134,24.527,24.527,0,0,1,.4,2.673c1.269,14.031-7.2,20.538-9.923,22.253Zm0,0" fill="#af663e"/>
      <path id="Trazado_120829" data-name="Trazado 120829" d="M59.427,29.445s5.491-6.323,17.28-3.853a1.5,1.5,0,0,1,1.164,1.826c-.865,3.529-4.186,12.2-16.06,13.313Zm0,0" fill="#ffc1b8"/>
      <path id="Trazado_120830" data-name="Trazado 120830" d="M61.162,37.655l.649,3.077c11.873-1.112,15.194-9.785,16.06-13.313a1.508,1.508,0,0,0-1.165-1.827c-.217-.046-.431-.088-.643-.126-1.188,3.842-4.73,10.875-14.9,12.189Zm0,0" fill="#ffb3a8"/>
      <path id="Trazado_120831" data-name="Trazado 120831" d="M40.242,13.907c-6.649-.161-13.361,2.149-17.922,6.807C15.58,27.595,15.48,37.49,17.2,46.081c.135.674.308,1.34.508,2,.771,2.546,2.91,9.947,2.91,13.658,0,4.918.731,10.015,5.107,13.489a14.735,14.735,0,0,0,5.952,2.728,22.66,22.66,0,0,0,4.275.508c5.621.168,12.063.539,16.808-2.806a13.743,13.743,0,0,0,5.369-8.7,25.673,25.673,0,0,0,.311-5.214c0-3.71,2.137-11.105,2.91-13.655a22.716,22.716,0,0,0,.558-2.263C63.874,35.641,62.941,23.857,52.7,17.5a24.811,24.811,0,0,0-12.457-3.588Zm0,0" fill="#e7e7e7"/>
      <path id="Trazado_120832" data-name="Trazado 120832" d="M61.909,45.82a22.911,22.911,0,0,1-.557,2.263c-.773,2.549-2.91,9.946-2.91,13.655a25.712,25.712,0,0,1-.311,5.214,13.74,13.74,0,0,1-5.37,8.7c-3.963,2.793-9.108,3-13.971,2.889,3.824-.112,7.621-.717,10.7-2.889a13.737,13.737,0,0,0,5.37-8.7,25.712,25.712,0,0,0,.311-5.214c0-3.709,2.137-11.105,2.908-13.655a22.253,22.253,0,0,0,.559-2.263C60.6,35.641,59.672,23.857,49.431,17.5A24.624,24.624,0,0,0,37.952,13.95q1.143-.07,2.29-.043A24.812,24.812,0,0,1,52.7,17.5c10.242,6.361,11.174,18.145,9.21,28.323Zm0,0" fill="#cecece"/>
      <path id="Trazado_120833" data-name="Trazado 120833" d="M55.272,56.946A18.894,18.894,0,0,0,48.28,53.6a32.445,32.445,0,0,0-17.552,0,18.889,18.889,0,0,0-6.992,3.348,13.412,13.412,0,0,0-3.8,14.362c2.2,5.823,7.358,7.485,12.6,7.554,4.668.06,9.268.061,13.938,0,5.237-.068,10.393-1.73,12.6-7.554a13.413,13.413,0,0,0-3.8-14.362Zm0,0" fill="#ffc1b8"/>
      <path id="Trazado_120834" data-name="Trazado 120834" d="M59.069,71.308c-2.2,5.822-7.358,7.485-12.6,7.553-2.828.037-5.63.051-8.436.042,1.829,0,3.659-.018,5.5-.042,5.237-.068,10.394-1.731,12.6-7.553a13.414,13.414,0,0,0-3.8-14.363A18.881,18.881,0,0,0,45.347,53.6a33.1,33.1,0,0,0-7.309-1.174A32.641,32.641,0,0,1,48.281,53.6a18.888,18.888,0,0,1,6.992,3.347,13.416,13.416,0,0,1,3.8,14.363Zm0,0" fill="#ffb3a8"/>
      <path id="Trazado_120835" data-name="Trazado 120835" d="M38.891,29.539c-2.072,1.708-5.2.925-7.742,1.8-2.156.742-3.711,2.623-4.927,4.55s-2.242,4.02-3.87,5.617a8.34,8.34,0,0,1-5.6,1.989c-1.184-7.935-.5-16.58,5.569-22.777A24.3,24.3,0,0,1,40,13.9q-.048.174-.089.341a14.741,14.741,0,0,0,.2,7.8c.646,2.6.835,5.793-1.229,7.494Zm0,0" fill="#5a5c5e"/>
      <path id="Trazado_120836" data-name="Trazado 120836" d="M78.608,25.688a2.626,2.626,0,0,0-1.678-1.166,27.145,27.145,0,0,0-5.258-.6h-.457a1.093,1.093,0,0,0,.01,2.186h.43a24.929,24.929,0,0,1,4.825.548.428.428,0,0,1,.276.19.391.391,0,0,1,.05.306A15.927,15.927,0,0,1,63.8,39.35a32.291,32.291,0,0,0-.854-9.391q-.2-.785-.44-1.536a15.486,15.486,0,0,1,3.85-1.644,1.093,1.093,0,0,0-.587-2.106,17.831,17.831,0,0,0-4.04,1.669c-.111-.26-.228-.516-.348-.77,2.315-2.973,4.847-8.038,4.166-15.557a22.121,22.121,0,0,0-2.232-7.839l-.535-1.081a1.965,1.965,0,0,0-3.676.432,25.769,25.769,0,0,1-3.729,8.8,14.3,14.3,0,0,1-5.143,4.642,25.859,25.859,0,0,0-5.576-1.7,26.2,26.2,0,0,0-9.224-.168,30.275,30.275,0,0,0-6.521,1.935,14.257,14.257,0,0,1-5.272-4.709,25.781,25.781,0,0,1-3.729-8.8,1.965,1.965,0,0,0-3.676-.432L15.7,2.175a22.125,22.125,0,0,0-2.232,7.839c-.676,7.466,1.817,12.515,4.119,15.5a7.341,7.341,0,0,0-.388.768c-2.932-1.65-7.91-3.267-15.117-1.756A2.63,2.63,0,0,0,.4,25.688a2.562,2.562,0,0,0-.323,1.992A19.356,19.356,0,0,0,4.219,35.7a18.316,18.316,0,0,0,11.187,5.9c.044.418.092.837.148,1.254A34.853,34.853,0,0,0,16.664,48.4c.6,1.967,2.523,8.562,2.823,12.426a14.487,14.487,0,0,0-.571,10.873c1.7,4.493,5.189,7.184,10.369,8a1.093,1.093,0,1,0,.339-2.16c-4.409-.693-7.242-2.855-8.664-6.613a12.385,12.385,0,0,1,3.464-13.126,17.733,17.733,0,0,1,6.592-3.142,31.546,31.546,0,0,1,16.971,0,17.723,17.723,0,0,1,6.592,3.142A12.385,12.385,0,0,1,58.046,70.92c-1.713,4.528-5.5,6.768-11.588,6.848-3.936.051-7.765.059-11.707.024h-.01a1.093,1.093,0,0,0-.01,2.186c1.613.014,3.206.021,4.8.021,2.313,0,4.617-.015,6.959-.046,6.988-.092,11.565-2.87,13.6-8.26a14.484,14.484,0,0,0-.563-10.856,1.125,1.125,0,0,0,.069-.292A76.618,76.618,0,0,1,62.4,48.4a23.877,23.877,0,0,0,.586-2.373q.438-2.271.651-4.428A18.305,18.305,0,0,0,74.789,35.7a19.363,19.363,0,0,0,4.143-8.025,2.561,2.561,0,0,0-.324-1.991Zm-21.444-14.1a27.566,27.566,0,0,0,3.925-8.972l.264.532a19.94,19.94,0,0,1,2.014,7.067,19.441,19.441,0,0,1-3.141,13.239,21.2,21.2,0,0,0-6.949-6.884c-.234-.145-.471-.285-.71-.421a17.069,17.069,0,0,0,4.6-4.562ZM15.642,10.212a19.935,19.935,0,0,1,2.014-7.067l.264-.533a27.563,27.563,0,0,0,3.924,8.972,17.007,17.007,0,0,0,4.691,4.622,21.307,21.307,0,0,0-7.608,7l-.129.2-.011.02a19.478,19.478,0,0,1-3.145-13.218ZM2.2,27.159a.39.39,0,0,1,.05-.306.428.428,0,0,1,.276-.19,24.475,24.475,0,0,1,5.028-.544A18,18,0,0,1,14.8,27.54a14.656,14.656,0,0,1,1.656.852c-.071.247-.141.489-.208.72a26.951,26.951,0,0,0-.88,4.474,34.261,34.261,0,0,0-.181,4.935c.009.278.024.555.038.832A15.929,15.929,0,0,1,2.2,27.159ZM17.691,42.312a32.345,32.345,0,0,1,.365-11.422,19.964,19.964,0,0,1,6.89-10.94,21.83,21.83,0,0,1,5.788-3.339,22.9,22.9,0,0,1,7.788-1.6l.112,0a16.189,16.189,0,0,0,.426,7.3c.968,3.893.065,5.622-.864,6.387-.98.808-2.409.918-3.922,1.034a13.825,13.825,0,0,0-3.48.572c-2.678.921-4.42,3.294-5.5,5-.306.485-.6.982-.888,1.463a18.969,18.969,0,0,1-2.823,3.958,6.461,6.461,0,0,1-3.9,1.6s0,0,0-.005Zm43.146,3.3a21.625,21.625,0,0,1-.531,2.154A97.447,97.447,0,0,0,57.76,57.926a11.89,11.89,0,0,0-1.8-1.829,19.831,19.831,0,0,0-7.391-3.553,33.713,33.713,0,0,0-18.132,0A19.827,19.827,0,0,0,23.047,56.1a11.855,11.855,0,0,0-1.755,1.774,98.026,98.026,0,0,0-2.536-10.11c-.2-.669-.361-1.289-.482-1.9-.093-.468-.178-.93-.257-1.388a8.506,8.506,0,0,0,5.1-2.2,20.865,20.865,0,0,0,3.171-4.4c.278-.468.566-.953.858-1.413,1.431-2.266,2.816-3.568,4.357-4.1a12.018,12.018,0,0,1,2.936-.46c1.785-.137,3.632-.279,5.146-1.528,2.027-1.671,2.579-4.645,1.6-8.6a13.838,13.838,0,0,1-.322-6.755,23.5,23.5,0,0,1,11.262,3.4,19.266,19.266,0,0,1,8.7,12.07,34.911,34.911,0,0,1,.014,15.117Zm0,0"/>
      <g id="Grupo_93752" data-name="Grupo 93752">
        <path id="Trazado_120837" data-name="Trazado 120837" d="M31.805,44.932a1.725,1.725,0,1,1-1.724-1.725A1.724,1.724,0,0,1,31.805,44.932Zm0,0" fill="#111"/>
        <path id="Trazado_120838" data-name="Trazado 120838" d="M50.651,44.932a1.725,1.725,0,1,1-1.725-1.725A1.725,1.725,0,0,1,50.651,44.932Zm0,0" fill="#111"/>
        <path id="Trazado_120839" data-name="Trazado 120839" d="M36.162,66.48c0-1.34-.635-2.426-1.42-2.426s-1.42,1.086-1.42,2.426.635,2.426,1.42,2.426S36.162,67.819,36.162,66.48Zm0,0" fill="#111"/>
        <path id="Trazado_120840" data-name="Trazado 120840" d="M45.685,66.48c0-1.34-.635-2.426-1.42-2.426s-1.42,1.086-1.42,2.426.636,2.426,1.42,2.426S45.685,67.819,45.685,66.48Zm0,0" fill="#111"/>
      </g>
    </g>
  </g>
</svg>
