<svg xmlns="http://www.w3.org/2000/svg" xmlns:xlink="http://www.w3.org/1999/xlink" width="67" height="67" viewBox="0 0 67 67">
  <defs>
    <clipPath id="clip-path">
      <rect id="Rectángulo_34759" data-name="Rectángulo 34759" width="67" height="67" transform="translate(189 4865.199)" fill="#ffd41c"/>
    </clipPath>
  </defs>
  <g id="Enmascarar_grupo_260" data-name="Enmascarar grupo 260" transform="translate(-189 -4865.199)" clip-path="url(#clip-path)">
    <g id="apreton-de-manos-de-asociacion" transform="translate(188.999 4865.199)">
      <g id="Grupo_93838" data-name="Grupo 93838">
        <g id="Grupo_93836" data-name="Grupo 93836">
          <path id="Trazado_120910" data-name="Trazado 120910" d="M50.129,57.191a2.953,2.953,0,0,1-4.177,0,2.953,2.953,0,1,1-4.177,4.177l-1.92-1.92a2.953,2.953,0,0,1-4.175,4.178h0C29,68.632,14.553,51.694,10.656,46.874l-1.47-6.7,8.862-10.366a35.691,35.691,0,0,1,12.343-.526L41.3,36.148l8.827,16.866a2.954,2.954,0,0,1,0,4.177Z" fill="#ffcbbe"/>
          <path id="Trazado_120911" data-name="Trazado 120911" d="M35.68,63.624C29,68.632,14.553,51.694,10.656,46.875l1.58-3.648c5.675,8.23,13.888,16.985,18.728,15.68Z" fill="#eaac9d"/>
          <path id="Trazado_120912" data-name="Trazado 120912" d="M56.167,45.715a4.825,4.825,0,0,0-.119,3.645h0a16.473,16.473,0,0,1-5.15,4.989,2.94,2.94,0,0,0-.768-1.336L34.835,37.72a15.982,15.982,0,0,0-5.369,3.758,3.726,3.726,0,0,1-4.823.334c-.05-.037-.1-.075-.147-.114l0,0a3.72,3.72,0,0,1-.97-4.544A20.839,20.839,0,0,1,33.582,27.5a2.316,2.316,0,0,1,1-.187,17.5,17.5,0,0,1,4.616.84A32.293,32.293,0,0,1,49.3,33.828c.86,2.255,7.086,3.373,8.031,5.591.792,1.857-.462,4.136-1.169,6.3Z" fill="#a55e4d"/>
          <path id="Trazado_120913" data-name="Trazado 120913" d="M56.048,49.36h0a16.473,16.473,0,0,1-5.15,4.989,2.94,2.94,0,0,0-.768-1.336l-9.277-9.277C44.117,47,51.179,48.4,54.445,45.994a2.229,2.229,0,0,1,1.722-.279A4.825,4.825,0,0,0,56.048,49.36Z" fill="#904f40"/>
          <path id="Trazado_120914" data-name="Trazado 120914" d="M24.493,41.694a3.72,3.72,0,0,1-.97-4.544A20.839,20.839,0,0,1,33.582,27.5a2.316,2.316,0,0,1,1-.187,17.5,17.5,0,0,1,4.616.84c-6.955,0-16.746,11.538-14.7,13.544Z" fill="#904f40"/>
          <g id="Grupo_93835" data-name="Grupo 93835">
            <path id="Trazado_120915" data-name="Trazado 120915" d="M50.639,56.509a2.954,2.954,0,0,1-4.686.682L36.2,47.434a1.323,1.323,0,0,1,2.091-.292L47.144,56a2.954,2.954,0,0,0,3.495.509Z" fill="#eaac9d"/>
            <path id="Trazado_120916" data-name="Trazado 120916" d="M40.414,62.853a2.954,2.954,0,0,1-4.733.771l-7.93-7.932a2.4,2.4,0,0,1,2.981.327L37.01,62.3a2.955,2.955,0,0,0,3.4.556Z" fill="#eaac9d"/>
            <path id="Trazado_120917" data-name="Trazado 120917" d="M46.44,60.722a2.9,2.9,0,0,1-.488.645,2.953,2.953,0,0,1-4.177,0l-8.921-8.923a1.74,1.74,0,0,1,2.358.095l5.776,5.776,1.919,1.92a2.952,2.952,0,0,0,3.534.487Z" fill="#eaac9d"/>
          </g>
          <path id="Trazado_120918" data-name="Trazado 120918" d="M56.632,50.837a187.937,187.937,0,0,1-8.108-18.714l-.034-.093.08-.058A23.311,23.311,0,0,1,57.9,27.931l.1-.019.044.089a187.872,187.872,0,0,1,8.108,18.714l.034.093-.08.058a23.31,23.31,0,0,1-9.328,4.041l-.1.019Z" fill="#9dc6fb"/>
          <path id="Trazado_120919" data-name="Trazado 120919" d="M57.948,28.3a22.762,22.762,0,0,0-9.3,3.779,186.9,186.9,0,0,0,8.1,18.7,23.073,23.073,0,0,0,9.276-4.019A182.721,182.721,0,0,0,57.948,28.3Z" fill="#9dc6fb"/>
          <path id="Trazado_120920" data-name="Trazado 120920" d="M66.026,46.76a23.043,23.043,0,0,1-9.276,4.019q-1.187-2.379-2.3-4.785a24.528,24.528,0,0,0,9.68-4.158Q65.11,44.284,66.026,46.76Z" fill="#80b4fb"/>
          <path id="Trazado_120921" data-name="Trazado 120921" d="M10.227,47.822A23.307,23.307,0,0,1,.9,43.78l-.08-.058.034-.093A187.871,187.871,0,0,1,8.96,24.915L9,24.827l.1.019a23.308,23.308,0,0,1,9.328,4.041l.08.058-.034.093a187.907,187.907,0,0,1-8.108,18.714l-.044.089Z" fill="#80cb8e"/>
          <path id="Trazado_120922" data-name="Trazado 120922" d="M8.867,25.184a23.594,23.594,0,0,1,9.486,3.809,186.9,186.9,0,0,1-8.1,18.7A23.073,23.073,0,0,1,.975,43.675a181.827,181.827,0,0,1,7.892-18.49Z" fill="#80cb8e"/>
          <path id="Trazado_120923" data-name="Trazado 120923" d="M.975,43.675a23.043,23.043,0,0,0,9.276,4.019q1.187-2.379,2.3-4.785a24.528,24.528,0,0,1-9.68-4.158Q1.891,41.2.975,43.675Z" fill="#6ec17d"/>
        </g>
        <g id="Grupo_93837" data-name="Grupo 93837">
          <path id="Trazado_120924" data-name="Trazado 120924" d="M33.5,30.593C16.648,24.407,14.673,11.256,17.779,5.952c2.144-3.66,7.091-4.52,11.142-2.216l.015.009.113.065.016.01A11.365,11.365,0,0,1,33.5,8.787c3.028-6.321,9.806-7.761,13.764-4.967a6.8,6.8,0,0,1,1.957,2.132c3.106,5.3,1.131,18.455-15.722,24.641Z" fill="#dd636e"/>
          <path id="Trazado_120925" data-name="Trazado 120925" d="M33.5,30.593C16.648,24.407,14.673,11.256,17.779,5.952c2.144-3.66,7.091-4.52,11.142-2.216-4.264-2.344-10.828,7.143-5.66,14.86A87.788,87.788,0,0,0,33.5,30.593Z" fill="#da4a54"/>
        </g>
      </g>
      <path id="Trazado_120926" data-name="Trazado 120926" d="M66.94,46.417c-.391-1.057-.79-2.105-1.186-3.115a.981.981,0,0,0-1.828.716c.3.772.607,1.567.908,2.371a22.149,22.149,0,0,1-7.548,3.271c-2.633-5.325-5.029-10.82-7.138-16.369l.016-.019-.035-.031c-.1-.265-.2-.53-.3-.795a22.142,22.142,0,0,1,7.548-3.27c1.825,3.69,3.536,7.46,5.091,11.216a.981.981,0,0,0,1.814-.751c-1.669-4.029-3.514-8.073-5.486-12.02a.981.981,0,0,0-1.064-.525,24.138,24.138,0,0,0-9.664,4.186.976.976,0,0,0-.208.207,33.121,33.121,0,0,0-6.634-3.654,27.211,27.211,0,0,0,3.749-2.972,21.085,21.085,0,0,0,5.43-8.137c1.466-4.086,1.335-8.4-.342-11.265a8.285,8.285,0,0,0-7.693-3.969,11.311,11.311,0,0,0-8.87,5.3,11.418,11.418,0,0,0-7.43-5.137,8.9,8.9,0,0,0-7.738,2.048.981.981,0,0,0,1.342,1.432,6.934,6.934,0,0,1,6.033-1.551,9.779,9.779,0,0,1,6.9,5.629.981.981,0,0,0,1.77,0,9.593,9.593,0,0,1,8.068-5.762,6.356,6.356,0,0,1,5.917,3c1.09,1.861,1.712,5.363.188,9.61C45.768,23.842,38.073,27.815,33.5,29.546,28.984,27.84,23.059,24.624,19.746,18.87c-2.068-3.591-2.737-7.639-1.79-10.827a.981.981,0,1,0-1.882-.559c-1.1,3.694-.36,8.316,1.971,12.365A24.227,24.227,0,0,0,26.024,28a36.055,36.055,0,0,0-6.787.564.979.979,0,0,0-.3-.362,24.148,24.148,0,0,0-9.664-4.187.981.981,0,0,0-1.064.525A188.653,188.653,0,0,0,.062,43.332a.981.981,0,0,0,.345,1.135,24.149,24.149,0,0,0,9.664,4.187.976.976,0,0,0,.685-.12A96.741,96.741,0,0,0,21.49,59.677c4.556,3.889,8.35,5.84,11.337,5.84a5.665,5.665,0,0,0,2.79-.693,3.932,3.932,0,0,0,5.967-2.344,3.931,3.931,0,0,0,6.2-3.457c.084.005.168.009.252.009A3.934,3.934,0,0,0,51.973,55.1c0-.086,0-.171-.009-.256a17.887,17.887,0,0,0,3.909-3.617.979.979,0,0,0,1.058.515A24.143,24.143,0,0,0,66.6,47.552a.983.983,0,0,0,.344-1.135ZM2.166,43.3A186.824,186.824,0,0,1,9.623,26.092a22.152,22.152,0,0,1,7.549,3.27A186.863,186.863,0,0,1,9.715,46.574,22.152,22.152,0,0,1,2.166,43.3ZM49.432,56.492a1.971,1.971,0,0,1-2.784,0l0,0L36.89,46.738A.981.981,0,1,0,35.5,48.126l9.754,9.754,0,0a1.971,1.971,0,0,1-2.791,2.784l-8.921-8.921a.981.981,0,1,0-1.388,1.388l7,7a1.971,1.971,0,0,1-2.788,2.788l-7.93-7.93a.981.981,0,1,0-1.388,1.388l6.987,6.987c-3.109.976-7.75-2.172-11.279-5.185A96.39,96.39,0,0,1,11.82,46.74c2.562-5.237,4.9-10.635,6.963-16.087a34.387,34.387,0,0,1,9.067-.633,21.994,21.994,0,0,0-5.2,6.687,4.709,4.709,0,0,0,7.506,5.47,16.406,16.406,0,0,1,4.439-3.31L49.432,53.7a1.971,1.971,0,0,1,0,2.788Zm1.874-3.587a3.984,3.984,0,0,0-.486-.589L35.53,37.026a.982.982,0,0,0-1-.237,16.173,16.173,0,0,0-5.745,3.986,2.732,2.732,0,0,1-3.553.245,2.759,2.759,0,0,1-1.116-2.21,2.69,2.69,0,0,1,.29-1.221,20.1,20.1,0,0,1,6.085-7.169c.842.381,1.731.747,2.674,1.093a.982.982,0,0,0,.676,0,37.463,37.463,0,0,0,5.232-2.373,31.581,31.581,0,0,1,9.409,5.279c1.923,5.021,4.078,10,6.428,14.842A16.939,16.939,0,0,1,51.306,52.905Z"/>
    </g>
  </g>
</svg>
