<svg xmlns="http://www.w3.org/2000/svg" xmlns:xlink="http://www.w3.org/1999/xlink" width="133" height="133" viewBox="0 0 133 133"><defs><clipPath id="a"><rect width="85" height="85" transform="translate(913 951)" fill="#fff" stroke="#707070" stroke-width="1"/></clipPath></defs><g transform="translate(-889 -927.46)"><g transform="translate(889 927.46)" fill="#fff8d9" stroke="#21155c" stroke-width="3"><circle cx="66.5" cy="66.5" r="66.5" stroke="none"/><circle cx="66.5" cy="66.5" r="65" fill="none"/></g><rect width="18.053" height="18.053" rx="2" transform="matrix(0.945, 0.327, -0.327, 0.945, 1000.325, 1032.589)" fill="#21155c"/><g clip-path="url(#a)"><g transform="translate(913 951)"><path d="M62.3,59.892a6.414,6.414,0,0,1-3.251-7.869l.53-1.433a1.282,1.282,0,0,0-.3-1.352l-2.467-2.467a1.282,1.282,0,0,0-1.35-.3l-1.33.489A6.414,6.414,0,0,1,46.275,43.7l-.639-1.388a1.282,1.282,0,0,0-1.165-.746H40.983a1.283,1.283,0,0,0-1.164.745l-.594,1.286a6.414,6.414,0,0,1-7.869,3.251l-1.433-.53a1.282,1.282,0,0,0-1.352.3L26.1,49.078a1.282,1.282,0,0,0-.3,1.35l.489,1.33a6.414,6.414,0,0,1-3.265,7.863l-1.388.639a1.282,1.282,0,0,0-.746,1.165v3.488a1.283,1.283,0,0,0,.745,1.164l1.286.594a6.414,6.414,0,0,1,3.251,7.869l-.53,1.433a1.282,1.282,0,0,0,.3,1.352l2.467,2.467a1.282,1.282,0,0,0,1.35.3l1.33-.489a6.414,6.414,0,0,1,7.863,3.265l.639,1.388A1.282,1.282,0,0,0,40.757,85h3.488a1.283,1.283,0,0,0,1.164-.745L46,82.969a6.414,6.414,0,0,1,7.869-3.251l1.433.53a1.282,1.282,0,0,0,1.352-.3l2.467-2.467a1.282,1.282,0,0,0,.3-1.35l-.489-1.33A6.414,6.414,0,0,1,62.2,66.943l1.388-.639a1.282,1.282,0,0,0,.746-1.165V61.651a1.283,1.283,0,0,0-.745-1.164Z" fill="#a3d1ff"/><circle cx="12.74" cy="12.74" r="12.74" transform="translate(29.873 50.541)" fill="#fff5de"/><path d="M79.866,68.094V40.113H69.605V68.094a5.13,5.13,0,0,0,10.261,0Z" fill="#aa6f51"/><path d="M5.134,68.094V40.113H15.395V68.094a5.13,5.13,0,0,1-10.261,0Z" fill="#aa6f51"/><path d="M29.174,20.521l.5-17.956L39.935,5.13V20.521Z" fill="#aa6f51"/><path d="M34.3,25.213,10.282,45.674l-.018,27.5a5.2,5.2,0,0,1-4.986,5.235A5.13,5.13,0,0,1,0,73.278V40.86a10.262,10.262,0,0,1,.979-4.374L10.9,15.449a11.813,11.813,0,0,0-.12-10.319V2.565H34.8V20.521a22.323,22.323,0,0,1-.5,4.691Z" fill="#b88567"/><path d="M34.8,5.13,32.24,2.565,34.8,0h3.848a1.283,1.283,0,0,1,1.283,1.283V5.13Z" fill="#ffe7ad"/><path d="M7.858,4.421,6.576,1.856A1.283,1.283,0,0,1,7.723,0H34.8V5.13H9.005a1.282,1.282,0,0,1-1.147-.709Z" fill="#fff5de"/><path d="M34.676,33.218,19.1,48.8a5.125,5.125,0,0,1-3.708,1.576L34.8,13.265a7.7,7.7,0,0,1,5.13,7.256,17.955,17.955,0,0,1-5.259,12.7Z" fill="#b88567"/><path d="M30.622,33.218,18.235,48.8a3.756,3.756,0,0,1-2.845,1.576c-.166,0-.334-.006-.5-.022a5.131,5.131,0,0,1-3.12-8.734L22.29,31.093a7.7,7.7,0,0,0,2.254-5.442v-5.13A7.7,7.7,0,0,1,34.8,13.266v7.256A20.534,20.534,0,0,1,30.622,33.218Z" fill="#c69b7d"/><path d="M79.722,78.407a5,5,0,0,1-2.408-.693V45.244L67.846,10.42h5.13A11.821,11.821,0,0,0,74.1,15.449l9.914,21.036A10.265,10.265,0,0,1,85,40.86V73.278a5.131,5.131,0,0,1-5.274,5.129Z" fill="#aa6f51"/><path d="M79.866,73.278V40.86a16.923,16.923,0,0,0-.561-4.374L73.622,15.449a19.583,19.583,0,0,1-.646-5.041A11.833,11.833,0,0,1,74.223,5.13V2.565H47.631L45.065,5.13V20.521L74.718,45.674l.018,27.5a5.285,5.285,0,0,0,2.579,4.542,5.143,5.143,0,0,0,2.551-4.436Z" fill="#b88567"/><path d="M76,5.13H71.658L67.846,2.493,74.222,0h3.055a1.283,1.283,0,0,1,1.147,1.856L77.142,4.421A1.282,1.282,0,0,1,76,5.13Z" fill="#ffe7ad"/><path d="M45.065,5.13V1.283A1.283,1.283,0,0,1,46.348,0H74.222L71.658,5.13Z" fill="#fff5de"/><path d="M50.324,33.218,65.9,48.8a5.131,5.131,0,1,0,7.331-7.18L62.71,31.093a7.7,7.7,0,0,1-2.254-5.442v-5.13a7.7,7.7,0,0,0-15.391,0,17.956,17.956,0,0,0,5.259,12.7Z" fill="#c69b7d"/><path d="M45.757,57.567a4.036,4.036,0,0,0-1.74.392l-1.4,12.7a1.276,1.276,0,0,0,.706-.213c1.813-1.2,6.491-4.709,6.492-8.823A4.056,4.056,0,0,0,45.757,57.567Z" fill="#f33"/><path d="M42.817,70.446a23.357,23.357,0,0,0,1.865-8.823,8.119,8.119,0,0,0-.665-3.664,4.071,4.071,0,0,0-1.4,1.1,4.055,4.055,0,0,0-7.2,2.563c0,4.114,4.679,7.619,6.492,8.823a1.276,1.276,0,0,0,.706.213c-.071,0-.141-.071-.2-.213.062.142.132.213.2.213S42.755,70.588,42.817,70.446Z" fill="#ff5f43"/></g></g></g></svg>