<svg xmlns="http://www.w3.org/2000/svg" xmlns:xlink="http://www.w3.org/1999/xlink" width="70" height="70" viewBox="0 0 70 70">
  <defs>
    <clipPath id="clip-path">
      <rect id="Rectángulo_34779" data-name="Rectángulo 34779" width="70" height="70" transform="translate(845 19246)" fill="#fff" stroke="#707070" stroke-width="1"/>
    </clipPath>
  </defs>
  <g id="Enmascarar_grupo_266" data-name="Enmascarar grupo 266" transform="translate(-845 -19246)" clip-path="url(#clip-path)">
    <g id="papeleria" transform="translate(845 19246)">
      <g id="Grupo_93885" data-name="Grupo 93885">
        <path id="Trazado_121048" data-name="Trazado 121048" d="M43.314,13.675h1.462V5.4a.711.711,0,0,0-.711-.711H1.736a.711.711,0,0,0-.711.711V64.6a.711.711,0,0,0,.711.711H44.065a.711.711,0,0,0,.711-.711V59.453H25.622a.711.711,0,0,1-.711-.711V52.91H13.9a.575.575,0,0,1-.574-.574V32.663a.575.575,0,0,1,.574-.574H44.776v-3.7H43.314a.711.711,0,0,1-.711-.711V14.386a.711.711,0,0,1,.711-.711Z" fill="#eaf6ff"/>
      </g>
      <path id="Trazado_121049" data-name="Trazado 121049" d="M6.7,5.4a.711.711,0,0,1,.711-.711H1.736a.711.711,0,0,0-.711.711V53.586L6.7,59.26Z" fill="#d8ecfe"/>
      <g id="Grupo_93888" data-name="Grupo 93888">
        <g id="Grupo_93886" data-name="Grupo 93886">
          <circle id="Elipse_5559" data-name="Elipse 5559" cx="4.041" cy="4.041" r="4.041" transform="translate(7.383 10.187)" fill="#0593fc"/>
        </g>
        <g id="Grupo_93887" data-name="Grupo 93887">
          <path id="Trazado_121050" data-name="Trazado 121050" d="M10.922,14.228a4.041,4.041,0,0,1,2.271-3.634,4.041,4.041,0,1,0,0,7.267,4.041,4.041,0,0,1-2.271-3.634Z" fill="#0182fc"/>
        </g>
      </g>
      <path id="Trazado_121051" data-name="Trazado 121051" d="M68.264,38.359H57.256V52.335a.711.711,0,0,1-.711.711H24.912v5.7a.711.711,0,0,0,.711.711H68.264a.711.711,0,0,0,.711-.711V39.069A.711.711,0,0,0,68.264,38.359Z" fill="#0593fc"/>
      <g id="Grupo_93889" data-name="Grupo 93889">
        <path id="Trazado_121052" data-name="Trazado 121052" d="M30.625,58.742v-5.7H24.912v5.7a.711.711,0,0,0,.711.711h5.713A.711.711,0,0,1,30.625,58.742Z" fill="#0182fc"/>
      </g>
      <path id="Trazado_121053" data-name="Trazado 121053" d="M57.256,45.423l11.453-6.9a.7.7,0,0,0-.445-.16H57.256Z" fill="#c4e2ff"/>
      <g id="Grupo_93890" data-name="Grupo 93890">
        <path id="Trazado_121054" data-name="Trazado 121054" d="M56.545,53.046H13.9a.711.711,0,0,1-.711-.711V32.663a.711.711,0,0,1,.711-.711H56.545a.711.711,0,0,1,.711.711V52.336A.711.711,0,0,1,56.545,53.046Z" fill="#fed402"/>
      </g>
      <g id="Grupo_93891" data-name="Grupo 93891">
        <path id="Trazado_121055" data-name="Trazado 121055" d="M18.867,52.335V32.663a.711.711,0,0,1,.711-.711H13.9a.711.711,0,0,0-.711.711V52.336a.711.711,0,0,0,.711.711h5.674A.711.711,0,0,1,18.867,52.335Z" fill="#fac600"/>
      </g>
      <g id="Grupo_93892" data-name="Grupo 93892">
        <circle id="Elipse_5560" data-name="Elipse 5560" cx="2.623" cy="2.623" r="2.623" transform="translate(18.44 36.351)" fill="#0593fc"/>
      </g>
      <g id="Grupo_93896" data-name="Grupo 93896">
        <g id="Grupo_93893" data-name="Grupo 93893">
          <path id="Trazado_121056" data-name="Trazado 121056" d="M68.264,28.387H43.314a.711.711,0,0,1-.711-.711V14.386a.711.711,0,0,1,.711-.711h24.95a.711.711,0,0,1,.711.711V27.677a.711.711,0,0,1-.711.711Z" fill="#fed402"/>
        </g>
        <g id="Grupo_93894" data-name="Grupo 93894">
          <path id="Trazado_121057" data-name="Trazado 121057" d="M48.277,27.677V14.386a.711.711,0,0,1,.711-.711H43.314a.711.711,0,0,0-.711.711V27.677a.711.711,0,0,0,.711.711h5.674A.711.711,0,0,1,48.277,27.677Z" fill="#fac600"/>
        </g>
        <g id="Grupo_93895" data-name="Grupo 93895">
          <circle id="Elipse_5561" data-name="Elipse 5561" cx="2.063" cy="2.063" r="2.063" transform="translate(47.602 18.744)" fill="#0593fc"/>
        </g>
      </g>
      <g id="Grupo_93897" data-name="Grupo 93897">
        <path id="Trazado_121058" data-name="Trazado 121058" d="M1.025,53.586V64.6a.711.711,0,0,0,.711.711H12.752Z" fill="#fac600"/>
      </g>
      <g id="Grupo_93898" data-name="Grupo 93898">
        <path id="Trazado_121059" data-name="Trazado 121059" d="M38.419,9.587H26.934a1.025,1.025,0,0,0,0,2.051H38.419a1.025,1.025,0,1,0,0-2.051Z"/>
        <path id="Trazado_121060" data-name="Trazado 121060" d="M38.419,12.99H32.605a1.025,1.025,0,1,0,0,2.051h5.813a1.025,1.025,0,0,0,0-2.051Z"/>
        <path id="Trazado_121061" data-name="Trazado 121061" d="M38.419,16.393H32.605a1.025,1.025,0,1,0,0,2.051h5.813a1.025,1.025,0,0,0,0-2.051Z"/>
        <path id="Trazado_121062" data-name="Trazado 121062" d="M6.357,14.228a5.066,5.066,0,1,0,5.066-5.066A5.072,5.072,0,0,0,6.357,14.228Zm5.066-3.015a3.016,3.016,0,1,1-3.016,3.015A3.019,3.019,0,0,1,11.424,11.212Z"/>
        <path id="Trazado_121063" data-name="Trazado 121063" d="M17.415,38.974a3.649,3.649,0,1,0,3.649-3.649A3.653,3.653,0,0,0,17.415,38.974Zm5.246,0a1.6,1.6,0,1,1-1.6-1.6A1.6,1.6,0,0,1,22.661,38.974Z"/>
        <path id="Trazado_121064" data-name="Trazado 121064" d="M50.626,41.913a1.025,1.025,0,0,0,0-2.051H46.072a1.025,1.025,0,0,0,0,2.051Z"/>
        <path id="Trazado_121065" data-name="Trazado 121065" d="M39.534,43.866a1.025,1.025,0,0,0,1.025,1.025H50.626a1.025,1.025,0,0,0,0-2.051H40.559A1.025,1.025,0,0,0,39.534,43.866Z"/>
        <path id="Trazado_121066" data-name="Trazado 121066" d="M68.264,29.413A1.738,1.738,0,0,0,70,27.677V14.386a1.738,1.738,0,0,0-1.736-1.736H45.8V5.4a1.738,1.738,0,0,0-1.736-1.736H13.125a1.025,1.025,0,0,0,0,2.051H43.75V12.65h-.437a1.738,1.738,0,0,0-1.736,1.736V27.677a1.738,1.738,0,0,0,1.736,1.736h.437v1.514H31.992a1.025,1.025,0,1,0,0,2.051H56.23V52.021H14.218V32.978H27.207a1.025,1.025,0,1,0,0-2.051H13.9a1.738,1.738,0,0,0-1.736,1.736V52.336A1.738,1.738,0,0,0,13.9,54.072h9.983v4.67a1.738,1.738,0,0,0,1.736,1.736H43.75v3.809H13.177L2.051,53.161V5.713H8.34a1.025,1.025,0,0,0,0-2.051h-6.6A1.738,1.738,0,0,0,0,5.4V64.6a1.738,1.738,0,0,0,1.736,1.736H44.065A1.738,1.738,0,0,0,45.8,64.6V60.478H59.609a1.025,1.025,0,0,0,0-2.051H25.937V54.072H56.545a1.738,1.738,0,0,0,1.736-1.736V46l9.668-5.828V58.427H64.395a1.025,1.025,0,0,0,0,2.051h3.869A1.738,1.738,0,0,0,70,58.742V39.07a1.738,1.738,0,0,0-1.736-1.736H58.281v-4.67a1.738,1.738,0,0,0-1.736-1.736H45.8V29.413H68.264ZM10.277,64.287H2.051V56.062Zm48-24.9h7.006l-7.006,4.224ZM43.628,14.7H67.949V27.362H43.628Z"/>
        <path id="Trazado_121067" data-name="Trazado 121067" d="M49.665,17.719a3.088,3.088,0,1,0,3.088,3.088A3.092,3.092,0,0,0,49.665,17.719Zm0,4.126A1.038,1.038,0,1,1,50.7,20.807,1.039,1.039,0,0,1,49.665,21.845Z"/>
        <path id="Trazado_121068" data-name="Trazado 121068" d="M64.271,18.214H61.135a1.025,1.025,0,0,0,0,2.051h3.136a1.025,1.025,0,0,0,0-2.051Z"/>
        <path id="Trazado_121069" data-name="Trazado 121069" d="M64.271,21.68H57.339a1.025,1.025,0,0,0,0,2.051h6.932a1.025,1.025,0,0,0,0-2.051Z"/>
      </g>
    </g>
  </g>
</svg>
