<svg xmlns="http://www.w3.org/2000/svg" xmlns:xlink="http://www.w3.org/1999/xlink" width="86" height="86" viewBox="0 0 86 86">
  <defs>
    <clipPath id="clip-path">
      <rect id="Rectángulo_34786" data-name="Rectángulo 34786" width="86" height="86" transform="translate(1061 20728)" fill="#764cf0"/>
    </clipPath>
  </defs>
  <g id="Enmascarar_grupo_269" data-name="Enmascarar grupo 269" transform="translate(-1061 -20728)" clip-path="url(#clip-path)">
    <g id="softdrinks" transform="translate(1058.134 20725.133)">
      <path id="Trazado_121091" data-name="Trazado 121091" d="M65.933,10.033H51.6V7.167A2.867,2.867,0,0,1,54.466,4.3h8.6a2.867,2.867,0,0,1,2.867,2.867Z" fill="#d13330"/>
      <path id="Trazado_121092" data-name="Trazado 121092" d="M44.433,30.1H73.1V50.166H44.433Z" fill="#d13330"/>
      <path id="Trazado_121093" data-name="Trazado 121093" d="M73.1,26.174V30.1H44.433V26.174a5.733,5.733,0,0,1,1.036-3.288l9-12.853h8.6l9,12.853A5.733,5.733,0,0,1,73.1,26.174Z" fill="#452d23"/>
      <path id="Trazado_121094" data-name="Trazado 121094" d="M64.5,83.133c0,2.375-2.567,4.3-5.733,4.3s-5.733-1.925-5.733-4.3a4.3,4.3,0,0,1-8.6,0L45.866,60.2,44.433,50.166H73.1L71.666,60.2,73.1,83.133a4.3,4.3,0,0,1-8.6,0Z" fill="#452d23"/>
      <path id="Trazado_121095" data-name="Trazado 121095" d="M44.433,47.3V41.566H21.5V47.3l-2.867,5.733V81.7L21.5,87.433H44.433L47.3,81.7V53.033Z" fill="#dadcde"/>
      <path id="Trazado_121096" data-name="Trazado 121096" d="M18.633,53.033H47.3V81.7H18.633Z" fill="#d13330"/>
      <path id="Trazado_121097" data-name="Trazado 121097" d="M36.657,81.7c2.52-4.443,4.909-8.6,4.909-15.767,0-4.5-1.539-8.789-3.162-12.9H32.671c1.623,4.111,3.162,8.4,3.162,12.9,0,7.167-2.39,11.323-4.909,15.767Z" fill="#e9eef2"/>
      <path id="Trazado_121098" data-name="Trazado 121098" d="M43,26.174V40.133H21.5a1.433,1.433,0,0,0-1.433,1.433v5.395l-2.715,5.431a1.432,1.432,0,0,0-.151.641V81.7a1.432,1.432,0,0,0,.151.641l2.867,5.733a1.433,1.433,0,0,0,1.282.792H44.433a1.433,1.433,0,0,0,1.282-.792l.027-.054a5.723,5.723,0,0,0,7.451-1.288,8.347,8.347,0,0,0,11.148,0,5.731,5.731,0,0,0,10.193-3.6c0-.03,0-.06,0-.09L73.106,60.257l1.412-9.888a1.427,1.427,0,0,0,.013-.2h0V26.174a7.131,7.131,0,0,0-1.3-4.11l-7.418-10.6h.114a1.433,1.433,0,0,0,1.433-1.433V7.167a4.3,4.3,0,0,0-4.3-4.3h-8.6a4.3,4.3,0,0,0-4.3,4.3v2.867A1.433,1.433,0,0,0,51.6,11.467h.114L44.3,22.064a7.131,7.131,0,0,0-1.3,4.11ZM20.067,80.266v-25.8H31.692C33.11,58.127,34.4,62,34.4,65.933c0,6.414-1.962,10.177-4.312,14.333Zm14.693-25.8h2.666c1.417,3.66,2.707,7.532,2.707,11.467,0,6.414-1.962,10.177-4.312,14.333H33.37a27.5,27.5,0,0,0,3.9-14.333A32.806,32.806,0,0,0,34.76,54.466ZM43.547,86H22.386l-1.433-2.867H44.981ZM68.8,86a2.87,2.87,0,0,1-2.867-2.867,1.433,1.433,0,0,0-2.867,0c0,1.554-1.969,2.867-4.3,2.867s-4.3-1.313-4.3-2.867a1.433,1.433,0,1,0-2.867,0,2.865,2.865,0,0,1-4.567,2.306l1.549-3.1a1.432,1.432,0,0,0,.151-.64V53.033a1.432,1.432,0,0,0-.151-.641l-.4-.792H71.447l-1.2,8.4a1.41,1.41,0,0,0-.012.292l1.43,22.884A2.87,2.87,0,0,1,68.8,86ZM53.033,7.167a1.435,1.435,0,0,1,1.433-1.433h8.6A1.435,1.435,0,0,1,64.5,7.167V8.6H53.033ZM45.866,26.174a4.279,4.279,0,0,1,.777-2.466l8.569-12.241H62.32l8.569,12.241a4.279,4.279,0,0,1,.777,2.466v2.493h-25.8Zm0,15.393V31.533h25.8v17.2H46.752l-.886-1.772Zm0,38.7H39.1A27.5,27.5,0,0,0,43,65.933a32.806,32.806,0,0,0-2.507-11.467h5.373ZM20.952,51.6l1.433-2.867H35.833a1.433,1.433,0,1,0,0-2.867h-12.9V43H43v2.867H41.566a1.433,1.433,0,1,0,0,2.867h1.981L44.981,51.6Z"/>
    </g>
  </g>
</svg>
