<svg xmlns="http://www.w3.org/2000/svg" xmlns:xlink="http://www.w3.org/1999/xlink" width="190" height="134" viewBox="0 0 190 134">
  <defs>
    <clipPath id="clip-path">
      <rect id="Rect치ngulo_35041" data-name="Rect치ngulo 35041" width="94" height="101" transform="translate(224 433)" fill="#ffd41c" stroke="#707070" stroke-width="1"/>
    </clipPath>
  </defs>
  <g id="Grupo_93900" data-name="Grupo 93900" transform="translate(-180 -417)">
    <rect id="Rect치ngulo_33975" data-name="Rect치ngulo 33975" width="190" height="134" transform="translate(180 417)" fill="#fff"/>
    <g id="Enmascarar_grupo_305" data-name="Enmascarar grupo 305" clip-path="url(#clip-path)">
      <g id="estrategia_1_" data-name="estrategia (1)" transform="translate(224 436.031)">
        <g id="Grupo_94701" data-name="Grupo 94701">
          <g id="Grupo_94683" data-name="Grupo 94683">
            <path id="Trazado_122108" data-name="Trazado 122108" d="M55.125,81.157H53.594a3.062,3.062,0,0,0-3.063,3.063V75.032h6.125V65.844A13.782,13.782,0,0,0,42.875,52.063H41.344l6.125-6.125,13.3,2.85a16.086,16.086,0,0,1,11.41,9.389l9.785,22.833a8.894,8.894,0,0,1-8.173,12.4H55.125a4.6,4.6,0,0,0,4.594-4.594V85.75A4.6,4.6,0,0,0,55.125,81.157Zm16.844,0L62.782,64.313V81.157Z" fill="#b4dd7f"/>
          </g>
          <g id="Grupo_94684" data-name="Grupo 94684">
            <path id="Trazado_122109" data-name="Trazado 122109" d="M41.344,52.063H36.691A7.25,7.25,0,0,0,29.9,61.842l.553.877-4.42,6.188.609,1.826a4.047,4.047,0,0,0,6.7,1.583l1.878-1.878h2.092a4.067,4.067,0,0,0,.944-.111l.027.111v6.125a5.537,5.537,0,0,0-3.063,4.956v5.763a3.062,3.062,0,0,0-3.063,3.063v3.063H10.719a6.123,6.123,0,0,0,6.125-6.125V80.894a4.594,4.594,0,0,0,0-8.663V50.824a16.069,16.069,0,0,1,5.07-2.037l13.3-2.85Z" fill="#b4dd7f"/>
          </g>
          <g id="Grupo_94685" data-name="Grupo 94685">
            <path id="Trazado_122110" data-name="Trazado 122110" d="M41.344,52.063h1.531A13.782,13.782,0,0,1,56.656,65.844v9.188H50.531V66.77a10.318,10.318,0,0,0-4.594-8.583l-.417-1.669a5.882,5.882,0,0,0-5.708-4.456Z" fill="#b27946"/>
          </g>
          <g id="Grupo_94686" data-name="Grupo 94686">
            <path id="Trazado_122111" data-name="Trazado 122111" d="M39.813,52.063l-1.531,6.125H37.037a6.506,6.506,0,0,0-5.3,2.726l-1.29,1.8-.553-.877a7.248,7.248,0,0,1,6.793-9.779Z" fill="#b27946"/>
          </g>
          <g id="Grupo_94687" data-name="Grupo 94687">
            <path id="Trazado_122112" data-name="Trazado 122112" d="M53.594,93.407H32.156V90.344a3.062,3.062,0,0,1,3.063-3.063H50.531v3.063A3.062,3.062,0,0,0,53.594,93.407Z" fill="#d3a06c"/>
          </g>
          <g id="Grupo_94688" data-name="Grupo 94688">
            <path id="Trazado_122113" data-name="Trazado 122113" d="M38.255,70.327a4.066,4.066,0,0,1-.944.111H35.219l-1.878,1.878a4.048,4.048,0,0,1-6.7-1.583l-.609-1.826,4.42-6.188,1.29-1.8a6.506,6.506,0,0,1,5.3-2.726h1.244l1.531-6.125a5.882,5.882,0,0,1,5.708,4.456l.417,1.669a10.318,10.318,0,0,1,4.594,8.583V87.282H35.219V81.518a5.537,5.537,0,0,1,3.063-4.956V70.438Z" fill="#cf9e76"/>
          </g>
          <g id="Grupo_94689" data-name="Grupo 94689">
            <path id="Trazado_122114" data-name="Trazado 122114" d="M12.788,36.653l4.056,10.816H4.594L8.65,36.653a2.21,2.21,0,0,1,4.138,0Z" fill="#ccd1d9"/>
          </g>
          <g id="Grupo_94690" data-name="Grupo 94690">
            <path id="Trazado_122115" data-name="Trazado 122115" d="M16.844,80.894v6.387a6.125,6.125,0,0,1-12.25,0V83.957a4.562,4.562,0,0,0,1.531.262H7.656a3.062,3.062,0,0,0,3.063-3.063V78.094a3.062,3.062,0,0,0,3.063,3.063h1.531A4.562,4.562,0,0,0,16.844,80.894Z" fill="#ccd1d9"/>
          </g>
          <g id="Grupo_94691" data-name="Grupo 94691">
            <path id="Trazado_122116" data-name="Trazado 122116" d="M16.844,50.824V72.231a4.562,4.562,0,0,0-1.531-.262H13.781a3.062,3.062,0,0,0-3.063,3.063V47.469h6.125Z" fill="#fcd770"/>
          </g>
          <g id="Grupo_94692" data-name="Grupo 94692">
            <path id="Trazado_122117" data-name="Trazado 122117" d="M10.719,47.469V75.032a3.062,3.062,0,0,0-3.063-3.063H6.125a4.562,4.562,0,0,0-1.531.262V47.469Z" fill="#ff826e"/>
          </g>
          <g id="Grupo_94693" data-name="Grupo 94693">
            <path id="Trazado_122118" data-name="Trazado 122118" d="M91.875,12.25H76.563L73.5,21.438l3.063,9.188H91.875l-3.063-9.188Z" fill="#cf9e76"/>
          </g>
          <g id="Grupo_94694" data-name="Grupo 94694">
            <path id="Trazado_122119" data-name="Trazado 122119" d="M59.719,85.75v3.063a4.6,4.6,0,0,1-4.594,4.594H53.594a3.062,3.062,0,0,1-3.063-3.063V84.219a3.062,3.062,0,0,1,3.063-3.063h1.531A4.6,4.6,0,0,1,59.719,85.75Z" fill="#f0d0b4"/>
          </g>
          <g id="Grupo_94695" data-name="Grupo 94695">
            <path id="Trazado_122120" data-name="Trazado 122120" d="M16.844,72.231a4.594,4.594,0,0,1-1.531,8.925H13.781a3.062,3.062,0,0,1-3.063-3.063V75.032a3.062,3.062,0,0,1,3.063-3.063h1.531A4.562,4.562,0,0,1,16.844,72.231Z" fill="#f0d0b4"/>
          </g>
          <g id="Grupo_94696" data-name="Grupo 94696">
            <path id="Trazado_122121" data-name="Trazado 122121" d="M10.719,78.094v3.063a3.062,3.062,0,0,1-3.063,3.063H6.125a4.592,4.592,0,0,1-4.594-4.594V76.563a4.592,4.592,0,0,1,4.594-4.594H7.656a3.062,3.062,0,0,1,3.063,3.063v3.063Z" fill="#f0d0b4"/>
          </g>
          <g id="Grupo_94697" data-name="Grupo 94697">
            <path id="Trazado_122122" data-name="Trazado 122122" d="M47.469,40.425v5.513l-6.125,6.125-6.125-6.125V40.383a20,20,0,0,0,12.237,0Z" fill="#f0d0b4"/>
          </g>
          <g id="Grupo_94698" data-name="Grupo 94698">
            <path id="Trazado_122123" data-name="Trazado 122123" d="M61.25,21.438A19.906,19.906,0,1,1,41.344,1.531,19.911,19.911,0,0,1,61.25,21.438Z" fill="#e6e9ed"/>
          </g>
          <g id="Grupo_94699" data-name="Grupo 94699">
            <path id="Trazado_122124" data-name="Trazado 122124" d="M52.063,21.438A10.719,10.719,0,1,1,41.344,10.719,10.718,10.718,0,0,1,52.063,21.438Z" fill="#ff826e"/>
          </g>
          <g id="Grupo_94700" data-name="Grupo 94700">
            <circle id="Elipse_5616" data-name="Elipse 5616" cx="4.594" cy="4.594" r="4.594" transform="translate(36.75 16.844)" fill="#fc6e51"/>
          </g>
        </g>
        <g id="Grupo_94702" data-name="Grupo 94702">
          <path id="Trazado_122125" data-name="Trazado 122125" d="M62.726,22.969H72.4l3.063,9.188H94L90.427,21.438,94,10.719H75.459L72.4,19.906H62.726A21.437,21.437,0,1,0,33.688,41.461V44.7L21.593,47.292a17.58,17.58,0,0,0-3.218,1.024V47.191L14.222,36.115a3.741,3.741,0,0,0-7.005,0L3.063,47.191V71.262A6.127,6.127,0,0,0,0,76.563v3.063a6.127,6.127,0,0,0,3.063,5.3v2.355a7.665,7.665,0,0,0,7.656,7.656H73.795a10.425,10.425,0,0,0,9.582-14.531L73.59,57.573a17.635,17.635,0,0,0-12.5-10.282L49,44.7V41.461A21.484,21.484,0,0,0,62.726,22.969Zm14.94,6.125-2.042-6.125H87.709l2.042,6.125Zm0-15.313H89.751l-2.042,6.125H75.625Zm-54.7,7.656a18.375,18.375,0,0,1,36.686-1.531h-6.16a12.25,12.25,0,1,0,0,3.063h6.16a18.375,18.375,0,0,1-36.686-1.531Zm24.306-1.531a6.125,6.125,0,1,0,0,3.063H50.4a9.188,9.188,0,1,1,0-3.063Zm-2.869,1.531a3.063,3.063,0,1,1-3.063-3.063A3.066,3.066,0,0,1,44.406,21.438ZM22.235,50.286l12.49-2.676,2.922,2.922H36.69a8.78,8.78,0,0,0-8.228,11.846l.056.149.089.14-4.275,5.984.855,2.566A5.579,5.579,0,0,0,34.424,73.4l1.428-1.428h.9v3.722a7.027,7.027,0,0,0-3.063,5.827v4.5a4.6,4.6,0,0,0-3.063,4.33v1.531H16.84a7.617,7.617,0,0,0,1.535-4.594V81.864a6.119,6.119,0,0,0,0-10.6V51.711a14.5,14.5,0,0,1,3.86-1.425ZM38.966,77.932l.846-.423v-6.13A5.556,5.556,0,0,0,42.3,68.885l.412-.825-2.739-1.369-.412.825a2.5,2.5,0,0,1-2.251,1.391H34.585l-2.325,2.325a2.516,2.516,0,0,1-4.166-.983l-.362-1.086L32.987,61.8a4.986,4.986,0,0,1,4.05-2.084h2.44l1.492-5.97a4.346,4.346,0,0,1,3.066,3.141l.561,2.243.492.328A8.768,8.768,0,0,1,49,66.771V85.75H36.75V81.518a3.987,3.987,0,0,1,2.216-3.586ZM32.647,55.269a5.679,5.679,0,0,1,4.043-1.675h1.161l-.766,3.063h-.049a8.055,8.055,0,0,0-6.059,2.761A5.73,5.73,0,0,1,32.647,55.269Zm2.572,33.544H49v1.531a4.572,4.572,0,0,0,.263,1.531H33.688V90.344A1.533,1.533,0,0,1,35.219,88.813ZM52.063,70.438h3.063V73.5H52.063Zm0-3.063v-.6a11.9,11.9,0,0,0-.192-2.124l3.075-.879a12.279,12.279,0,0,1,.179,2.075v1.531ZM50.935,61.73a11.8,11.8,0,0,0-1.242-2.07l2.15-2.15a12.288,12.288,0,0,1,2.209,3.329Zm-3.385-4.257c-.088-.069-.174-.141-.264-.208l-.279-1.117a7.424,7.424,0,0,0-.9-2.117,12.2,12.2,0,0,1,3.374,1.507ZM13.781,70.438a4.572,4.572,0,0,0-1.531.263V49h3.063V70.438ZM12.25,75.032A1.533,1.533,0,0,1,13.781,73.5h1.531a3.063,3.063,0,1,1,0,6.125H13.781a1.533,1.533,0,0,1-1.531-1.531ZM10.084,37.19a.678.678,0,0,1,1.27,0l3.28,8.747H6.8ZM6.125,49H9.187V70.7a4.572,4.572,0,0,0-1.531-.263H6.125ZM3.063,76.563A3.066,3.066,0,0,1,6.125,73.5H7.656a1.533,1.533,0,0,1,1.531,1.531v6.125a1.533,1.533,0,0,1-1.531,1.531H6.125a3.066,3.066,0,0,1-3.063-3.063ZM6.125,87.282V85.75H7.656a4.6,4.6,0,0,0,4.432-3.387,4.566,4.566,0,0,0,1.693.325h1.531v4.594a4.594,4.594,0,1,1-9.188,0Zm47.469,4.594a1.533,1.533,0,0,1-1.531-1.531V84.219a1.533,1.533,0,0,1,1.531-1.531h1.531a3.066,3.066,0,0,1,3.063,3.063v3.063a3.066,3.066,0,0,1-3.063,3.063Zm6.859-41.589A14.568,14.568,0,0,1,70.775,58.78l9.786,22.834a7.362,7.362,0,0,1-6.767,10.262H60.426a6.085,6.085,0,0,0,.824-3.063V85.75a6.085,6.085,0,0,0-.824-3.063H71.15L73.758,86.6l2.548-1.7-3.024-4.536L64.313,63.922v-4.2H61.25V79.625H53.594a4.573,4.573,0,0,0-1.531.263V76.563h6.125V65.844A15.332,15.332,0,0,0,44.9,50.67l3.06-3.06Zm3.86,20.032,5.077,9.307H64.313ZM45.938,45.3,41.344,49.9,36.75,45.3V42.378a21.475,21.475,0,0,0,9.188,0Z"/>
          <path id="Trazado_122126" data-name="Trazado 122126" d="M9.188,30.625H12.25V27.563h3.063V24.5H12.25V21.438H9.188V24.5H6.125v3.063H9.188Z"/>
          <path id="Trazado_122127" data-name="Trazado 122127" d="M9.188,18.375H12.25V15.313h3.063V12.25H12.25V9.188H9.188V12.25H6.125v3.063H9.188Z"/>
        </g>
      </g>
    </g>
  </g>
</svg>
