<svg xmlns="http://www.w3.org/2000/svg" xmlns:xlink="http://www.w3.org/1999/xlink" width="70" height="70" viewBox="0 0 70 70">
  <defs>
    <clipPath id="clip-path">
      <rect id="Rectángulo_34778" data-name="Rectángulo 34778" width="70" height="70" transform="translate(215 19246)" fill="#fff" stroke="#707070" stroke-width="1"/>
    </clipPath>
  </defs>
  <g id="Enmascarar_grupo_265" data-name="Enmascarar grupo 265" transform="translate(-215 -19246)" clip-path="url(#clip-path)">
    <g id="productos" transform="translate(215 19246.771)">
      <path id="Trazado_121017" data-name="Trazado 121017" d="M35.717,6.9h9.153v4.729H35.717Zm0,0" fill="#a2f9f9"/>
      <path id="Trazado_121018" data-name="Trazado 121018" d="M33.8,6.214a.686.686,0,0,0,.684.684H46.1a.686.686,0,0,0,.684-.684v-4.5a.686.686,0,0,0-.684-.684H34.485a.686.686,0,0,0-.684.684Zm0,0" fill="#0481bf"/>
      <path id="Trazado_121019" data-name="Trazado 121019" d="M48.208,11.991c0-.122,0-.244.009-.365H32.339a3.417,3.417,0,0,0-3.408,3.417V25.781a3.411,3.411,0,0,0,2.089,3.151,1.627,1.627,0,0,1,.994,1.5v5.275a1.626,1.626,0,0,1-1.047,1.521,3.436,3.436,0,0,0-2.2,3.2v6.446h7.6a.715.715,0,0,1,.712.714v4.855a.715.715,0,0,1-.712.714h-1.68V66.718a.715.715,0,0,1-.712.714H51.491a.686.686,0,0,1-.684-.684v-6.02L47.278,27.1a.837.837,0,0,1,.848-.943h3.506a3.423,3.423,0,0,0,.023-.379V19.263a9.374,9.374,0,0,1-3.447-7.272Zm0,0" fill="#c7fffd"/>
      <path id="Trazado_121020" data-name="Trazado 121020" d="M47.279,27.1a.837.837,0,0,1,.848-.943h3.506a3.423,3.423,0,0,0,.023-.379V22.772H28.931v3.009a3.41,3.41,0,0,0,2.09,3.151,1.628,1.628,0,0,1,.994,1.5v5.275a1.626,1.626,0,0,1-1.047,1.521,3.436,3.436,0,0,0-2.2,3.2v3.391H49.033Zm0,0" fill="#0481bf"/>
      <path id="Trazado_121021" data-name="Trazado 121021" d="M31.021,28.932a3.41,3.41,0,0,1-1.658-1.484h12.9a.837.837,0,0,1,.833.835V37.8a.837.837,0,0,1-.833.835H29.278a3.417,3.417,0,0,1,1.69-1.409,1.626,1.626,0,0,0,1.047-1.521V30.432a1.628,1.628,0,0,0-.994-1.5Zm0,0" fill="#75eae7"/>
      <path id="Trazado_121022" data-name="Trazado 121022" d="M50.808,66.748a.686.686,0,0,0,.684.684H62.729a.686.686,0,0,0,.684-.684V60.727h-12.6Zm0,0" fill="#89c947"/>
      <path id="Trazado_121023" data-name="Trazado 121023" d="M47.528,29.478l3.279,31.248h12.6l3.28-31.248Zm0,0" fill="#d5e962"/>
      <path id="Trazado_121024" data-name="Trazado 121024" d="M66.094,26.159H48.127a.837.837,0,0,0-.848.943l.249,2.376H66.693l.249-2.376a.838.838,0,0,0-.848-.943Zm0,0" fill="#89c947"/>
      <path id="Trazado_121025" data-name="Trazado 121025" d="M59.85,49.754a.686.686,0,0,1-.684.684H55.054a.686.686,0,0,1-.684-.684V39.5a.686.686,0,0,1,.684-.684h4.112a.686.686,0,0,1,.684.684Zm0,0" fill="#fff"/>
      <path id="Trazado_121026" data-name="Trazado 121026" d="M6.784,53.152V66.717a.716.716,0,0,0,.713.714H33.973a.715.715,0,0,0,.712-.714V53.152Zm0,0" fill="#ffb98a"/>
      <path id="Trazado_121027" data-name="Trazado 121027" d="M34.685,56.722H24.4a.715.715,0,0,0-.712.714v4.855A.715.715,0,0,0,24.4,63H34.685Zm0,0" fill="#fff"/>
      <path id="Trazado_121028" data-name="Trazado 121028" d="M36.365,46.869H5.1a.715.715,0,0,0-.712.714v4.855a.715.715,0,0,0,.712.714h31.26a.715.715,0,0,0,.712-.714V47.583A.715.715,0,0,0,36.365,46.869Zm0,0" fill="#fb8276"/>
      <path id="Trazado_121029" data-name="Trazado 121029" d="M15.535,19.84a.509.509,0,0,1,.841,0l2.5,3.2a1.34,1.34,0,0,0,1.1.454l4.043-.5a.507.507,0,0,1,.593.593L24.1,27.611a1.33,1.33,0,0,0,.455,1.1L27.774,31.2a.5.5,0,0,1,0,.837L24.56,34.529a1.33,1.33,0,0,0-.455,1.1l.505,4.025a.507.507,0,0,1-.593.594l-4.043-.5a1.34,1.34,0,0,0-1.1.454l-2.5,3.2a.509.509,0,0,1-.841,0l-2.5-3.2a1.34,1.34,0,0,0-1.1-.454l-4.043.5a.507.507,0,0,1-.593-.594l.505-4.024a1.331,1.331,0,0,0-.455-1.1L4.136,32.037a.5.5,0,0,1,0-.837l3.215-2.491a1.332,1.332,0,0,0,.455-1.1L7.3,23.587a.507.507,0,0,1,.593-.594l4.043.5a1.34,1.34,0,0,0,1.1-.454Zm0,0" fill="#ffc502"/>
      <path id="Trazado_121030" data-name="Trazado 121030" d="M21.367,34.1a1.9,1.9,0,0,1-1.674,2.067A1.9,1.9,0,0,1,18.02,34.1a1.9,1.9,0,0,1,1.673-2.066A1.9,1.9,0,0,1,21.367,34.1Zm0,0" fill="#fff"/>
      <path id="Trazado_121031" data-name="Trazado 121031" d="M13.89,29.139a1.9,1.9,0,0,0-1.673-2.066,1.9,1.9,0,0,0-1.674,2.066,1.9,1.9,0,0,0,1.674,2.067,1.9,1.9,0,0,0,1.673-2.067Zm0,0" fill="#fff"/>
      <path id="Trazado_121032" data-name="Trazado 121032" d="M66.947,11.991a9.369,9.369,0,1,1-9.369-9.386,9.377,9.377,0,0,1,9.369,9.386Zm0,0" fill="#ffc502"/>
      <path id="Trazado_121033" data-name="Trazado 121033" d="M64.207,11.991a6.629,6.629,0,1,0-6.629,6.641A6.636,6.636,0,0,0,64.207,11.991Zm0,0" fill="#fcdb67"/>
      <path id="Trazado_121034" data-name="Trazado 121034" d="M68.975,66.406H64.438V60.781L66.6,40.214A1.025,1.025,0,0,0,64.557,40L62.489,59.7H51.731L48.667,30.5H65.553l-.509,4.848a1.025,1.025,0,0,0,2.04.214l.877-8.356a1.863,1.863,0,0,0-1.868-2.076H52.681V21.171a10.413,10.413,0,1,0-5.4-10.571H45.895V7.923H46.1A1.711,1.711,0,0,0,47.81,6.214v-4.5A1.711,1.711,0,0,0,46.1,0H34.485a1.711,1.711,0,0,0-1.709,1.709v4.5a1.711,1.711,0,0,0,1.709,1.709h.207V10.6H32.339a4.443,4.443,0,0,0-4.434,4.442V25.781a4.433,4.433,0,0,0,2.717,4.1.6.6,0,0,1,.367.555v5.275a.6.6,0,0,1-.386.563,4.467,4.467,0,0,0-2.86,4.153v5.42H14.219a1.025,1.025,0,0,0,0,2.051H36.052v4.232H5.418V47.895H9.3a1.025,1.025,0,0,0,0-2.051H5.1a1.741,1.741,0,0,0-1.738,1.739v4.855A1.741,1.741,0,0,0,5.1,54.177h.654V66.406H1.025a1.025,1.025,0,1,0,0,2.051H68.975a1.025,1.025,0,0,0,0-2.051ZM65.9,27.185l-.134,1.268H48.451l-.133-1.268ZM57.578,3.631a8.36,8.36,0,1,1-8.344,8.361,8.362,8.362,0,0,1,8.344-8.361ZM34.826,2.051H45.759V5.872H34.826Zm9.018,5.872V10.6h-7.1V7.923Zm-14.05,32.5a2.374,2.374,0,0,1,.127-.761H42.265a1.861,1.861,0,0,0,1.859-1.86v-9.52a1.861,1.861,0,0,0-1.859-1.86H30.045a2.394,2.394,0,0,1-.089-.642V23.8H43.34a1.025,1.025,0,0,0,0-2.051H29.956v-6.7a2.39,2.39,0,0,1,2.383-2.392H47.206a10.393,10.393,0,0,0,3.424,7.076v2.019H48.262a1.025,1.025,0,0,0,0,2.051H50.63v1.336h-2.5a1.863,1.863,0,0,0-1.868,2.076l1.635,15.58h-18.1Zm2.382-11.951h9.9v9.139H32.229a2.665,2.665,0,0,0,.811-1.9V30.432a2.649,2.649,0,0,0-.864-1.959Zm1.483,33.506H24.712V57.747h8.948Zm0-6.283H24.4a1.74,1.74,0,0,0-1.738,1.739v4.855A1.741,1.741,0,0,0,24.4,64.03h9.261v2.375H7.81V54.178h25.85ZM49.782,66.406H35.71V54.178h.655a1.725,1.725,0,0,0,.892-.249v9.261a1.025,1.025,0,0,0,2.051,0V50.329A1.025,1.025,0,0,0,38.282,49.3a1.043,1.043,0,0,0-.179.017V47.584a1.741,1.741,0,0,0-1.738-1.739H29.794v-1H48.109l1.673,15.943Zm12.6,0H51.833V61.752H62.387Zm0,0"/>
      <path id="Trazado_121035" data-name="Trazado 121035" d="M46.324,49.3A1.026,1.026,0,0,0,45.3,50.328V63.189a1.025,1.025,0,1,0,2.051,0V50.328A1.025,1.025,0,0,0,46.324,49.3Zm0,0"/>
      <path id="Trazado_121036" data-name="Trazado 121036" d="M42.3,49.3a1.026,1.026,0,0,0-1.025,1.025V63.189a1.025,1.025,0,1,0,2.051,0V50.328A1.025,1.025,0,0,0,42.3,49.3Zm0,0"/>
      <path id="Trazado_121037" data-name="Trazado 121037" d="M53.345,39.5V49.754a1.711,1.711,0,0,0,1.709,1.709h4.112a1.711,1.711,0,0,0,1.709-1.709V39.5a1.711,1.711,0,0,0-1.709-1.709H55.054A1.711,1.711,0,0,0,53.345,39.5Zm2.051.342h3.429v9.572H55.4Zm0,0"/>
      <path id="Trazado_121038" data-name="Trazado 121038" d="M58.73,36.09a1.025,1.025,0,0,0,0-2.051H55.49a1.025,1.025,0,1,0,0,2.051Zm0,0"/>
      <path id="Trazado_121039" data-name="Trazado 121039" d="M10.3,59.175h1.282a1.025,1.025,0,0,0,0-2.051H10.3a1.025,1.025,0,0,0,0,2.051Zm0,0"/>
      <path id="Trazado_121040" data-name="Trazado 121040" d="M10.3,62.317h7.076a1.025,1.025,0,0,0,0-2.051H10.3a1.025,1.025,0,1,0,0,2.051Zm0,0"/>
      <path id="Trazado_121041" data-name="Trazado 121041" d="M14.284,59.175h3.086a1.025,1.025,0,0,0,0-2.051H14.284a1.025,1.025,0,1,0,0,2.051Zm0,0"/>
      <path id="Trazado_121042" data-name="Trazado 121042" d="M3.508,32.848l3.2,2.483a.423.423,0,0,1,.074.179l-.5,4.011A1.53,1.53,0,0,0,8.02,41.26l4.03-.5a.425.425,0,0,1,.184.076l2.491,3.193a1.532,1.532,0,0,0,2.458,0l2.492-3.193a.423.423,0,0,1,.184-.076l4.031.5a1.53,1.53,0,0,0,1.737-1.739l-.5-4.012a.417.417,0,0,1,.074-.179l3.2-2.483a1.529,1.529,0,0,0,0-2.459l-3.2-2.483a.416.416,0,0,1-.074-.179l.5-4.011a1.53,1.53,0,0,0-1.737-1.739l-4.03.5a.426.426,0,0,1-.184-.076l-2.492-3.193a1.532,1.532,0,0,0-2.458,0L12.235,22.4a.431.431,0,0,1-.184.076l-4.031-.5a1.531,1.531,0,0,0-1.737,1.739l.5,4.012a.417.417,0,0,1-.074.179l-3.2,2.484a1.529,1.529,0,0,0,0,2.459Zm4.471-3.329a2.36,2.36,0,0,0,.844-2.035L8.4,24.089l3.413.426a1.915,1.915,0,0,0,.237.014,2.382,2.382,0,0,0,1.8-.856l2.111-2.706,2.112,2.706a2.382,2.382,0,0,0,1.8.856,1.915,1.915,0,0,0,.237-.014l3.413-.425-.426,3.394a2.361,2.361,0,0,0,.844,2.035l2.709,2.1-2.709,2.1a2.36,2.36,0,0,0-.844,2.035l.426,3.394L20.1,38.722a1.915,1.915,0,0,0-.237-.014,2.382,2.382,0,0,0-1.8.856l-2.112,2.706-2.111-2.706a2.383,2.383,0,0,0-1.8-.856,1.912,1.912,0,0,0-.236.014L8.4,39.147l.426-3.394a2.359,2.359,0,0,0-.844-2.035l-2.709-2.1Zm0,0"/>
      <path id="Trazado_121043" data-name="Trazado 121043" d="M16.995,34.1a2.919,2.919,0,0,0,2.7,3.092,2.919,2.919,0,0,0,2.7-3.092,2.919,2.919,0,0,0-2.7-3.091A2.918,2.918,0,0,0,16.995,34.1Zm2.7-1.04c.306,0,.648.445.648,1.04s-.342,1.041-.648,1.041-.647-.445-.647-1.041.342-1.04.647-1.04Zm0,0"/>
      <path id="Trazado_121044" data-name="Trazado 121044" d="M12.217,32.231a2.919,2.919,0,0,0,2.7-3.092,2.919,2.919,0,0,0-2.7-3.092,2.919,2.919,0,0,0-2.7,3.092,2.919,2.919,0,0,0,2.7,3.092Zm0-4.133c.306,0,.648.445.648,1.041s-.342,1.041-.648,1.041-.648-.445-.648-1.041S11.911,28.1,12.217,28.1Zm0,0"/>
      <path id="Trazado_121045" data-name="Trazado 121045" d="M13.529,36.874a1.025,1.025,0,0,0,1.366-.486l4.113-8.659a1.025,1.025,0,1,0-1.853-.88l-4.113,8.658a1.025,1.025,0,0,0,.486,1.366Zm0,0"/>
      <path id="Trazado_121046" data-name="Trazado 121046" d="M57.578,19.658a7.666,7.666,0,1,0-7.655-7.666A7.669,7.669,0,0,0,57.578,19.658Zm0-13.282a5.615,5.615,0,1,1-5.6,5.616,5.616,5.616,0,0,1,5.6-5.616Zm0,0"/>
      <path id="Trazado_121047" data-name="Trazado 121047" d="M56.576,12.948h2a.344.344,0,0,1,0,.688H55.547a1.025,1.025,0,0,0,0,2.051h1.006v.032a1.025,1.025,0,0,0,2.051,0v-.034a2.394,2.394,0,0,0-.025-4.788h-2a.344.344,0,0,1,0-.687h2.561a1.025,1.025,0,1,0,0-2.051H58.6V7.85a1.025,1.025,0,0,0-2.051,0v.31a2.394,2.394,0,0,0,.024,4.788Zm0,0"/>
    </g>
  </g>
</svg>
