<svg xmlns="http://www.w3.org/2000/svg" xmlns:xlink="http://www.w3.org/1999/xlink" width="133" height="133" viewBox="0 0 133 133"><defs><clipPath id="a"><rect width="85" height="85" transform="translate(448 1271)" fill="#fff" stroke="#707070" stroke-width="1"/></clipPath></defs><g transform="translate(-424 -1247.014)"><g transform="translate(424 1247.014)" fill="#fff8d9" stroke="#21155c" stroke-width="3"><circle cx="66.5" cy="66.5" r="66.5" stroke="none"/><circle cx="66.5" cy="66.5" r="65" fill="none"/></g><rect width="18.053" height="18.053" rx="2" transform="matrix(0.945, 0.327, -0.327, 0.945, 535.325, 1352.143)" fill="#21155c"/><g clip-path="url(#a)"><g transform="translate(446.444 1270.133)"><path d="M70.293,42.491a24.544,24.544,0,0,1-7.226,17.214,19.934,19.934,0,0,0-6.114,17.216v.1H30.827a20.59,20.59,0,0,0-6-17.426A24.088,24.088,0,0,1,17.71,42.07c.222-13.2,12.005-24.4,25.9-24.609C58.286,17.251,70.293,28.55,70.293,42.491Z" fill="#00acea"/><path d="M60.146,33.477c1.745,2.545.358,6.789-3.177,11.119A35.426,35.426,0,0,0,52.5,40.077a33.09,33.09,0,0,0-1.864-8.217C55.047,30.794,58.625,31.259,60.146,33.477Z" fill="#00acea"/><path d="M55.56,77.037v8.83H32.551v-8.84H55.56Z" fill="#fedb41"/><path d="M50.638,31.86A33.09,33.09,0,0,1,52.5,40.077a43.268,43.268,0,0,0-3.6-2.748,42.475,42.475,0,0,0-4.98-2.945,31.736,31.736,0,0,1,6.712-2.525Z" fill="#00acea"/><path d="M43.925,24.929c2.69,0,5.1,2.69,6.713,6.93a31.736,31.736,0,0,0-6.712,2.525,31.76,31.76,0,0,0-6.715-2.525,19.764,19.764,0,0,1,1.265-2.719l.014-.015a3,3,0,0,0,4.373-4.053,4.028,4.028,0,0,1,1.062-.143Z" fill="#00acea"/><path d="M43.927,34.384a42.116,42.116,0,0,0-4.982,2.944,43.553,43.553,0,0,0-3.6,2.748,33.151,33.151,0,0,1,1.862-8.217,31.76,31.76,0,0,1,6.715,2.525Z" fill="#00acea"/><path d="M38.945,51.862a42.5,42.5,0,0,0,4.98,2.946,31.8,31.8,0,0,1-6.712,2.525,33,33,0,0,1-1.864-8.217,43.251,43.251,0,0,0,3.6,2.747Z" fill="#00acea"/><path d="M37.212,31.86a33.151,33.151,0,0,0-1.862,8.217A35.333,35.333,0,0,0,30.88,44.6c-3.535-4.33-4.92-8.574-3.175-11.119C29.225,31.259,32.8,30.794,37.212,31.86Z" fill="#00acea"/><path d="M35.35,49.115a33,33,0,0,0,1.864,8.217c-4.409,1.065-7.989.6-9.508-1.618a5.089,5.089,0,0,1-.638-3.862v0A3,3,0,0,0,29.531,46.4q.609-.893,1.349-1.8a35.557,35.557,0,0,0,4.469,4.519Z" fill="#00acea"/><path d="M35.35,40.077a43.746,43.746,0,0,0,0,9.038A35.557,35.557,0,0,1,30.88,44.6a35.333,35.333,0,0,1,4.469-4.519Z" fill="#00acea"/><path d="M60.064,78.4H28.048a1.377,1.377,0,1,1,0-2.753H60.064a1.377,1.377,0,0,1,0,2.753Z" fill="#f4b844"/><path d="M43.388,10.529a1.377,1.377,0,0,1-1.377-1.377V2.244a1.377,1.377,0,0,1,2.753,0V9.152A1.377,1.377,0,0,1,43.388,10.529Z" fill="#fedb41"/><path d="M70.182,23.484a1.377,1.377,0,0,1-.9-2.416l6.283-5.461a1.377,1.377,0,0,1,1.807,2.078l-6.284,5.461a1.372,1.372,0,0,1-.9.337Z" fill="#fedb41"/><path d="M17.6,22.534a1.372,1.372,0,0,1-.95-.38L10.7,16.481a1.377,1.377,0,1,1,1.9-1.993l5.949,5.672a1.377,1.377,0,0,1-.95,2.373Z" fill="#fedb41"/><path d="M59.439,52.159a3.715,3.715,0,0,1-.428,2.778c-.961,1.4-3.362,1.883-6.559,1.361a35.942,35.942,0,0,0,1.36-6.5,38.074,38.074,0,0,0,3.095-3.024q.181.252.349.5l0,0,.04.066,1.1-.821-.093.048.654-.335.669-.327-.006-.013h0a1.41,1.41,0,0,0-.083-.14l-.007-.011c-.254-.377-.529-.759-.819-1.143,3.585-4.736,4.525-9.035,2.562-11.9-1.667-2.431-5.207-3.292-9.808-2.426-1.889-4.287-4.6-6.72-7.549-6.72a5.415,5.415,0,0,0-1.423.191l.723,2.657a2.664,2.664,0,0,1,.7-.094c1.7,0,3.456,1.708,4.833,4.642a34.123,34.123,0,0,0-4.831,1.906,34.207,34.207,0,0,0-4.834-1.906c.187-.4.38-.774.581-1.126L37.28,28.46a19.664,19.664,0,0,0-.905,1.813c-4.6-.866-8.14,0-9.805,2.427-1.963,2.863-1.024,7.163,2.561,11.9-.26.344-.507.686-.737,1.023l.016.011-.112.152,1.228.617.955.993.02-.019h0a1.392,1.392,0,0,0,.169-.205c.089-.13.181-.261.275-.393a38.133,38.133,0,0,0,3.1,3.025A35.992,35.992,0,0,0,35.4,56.3c-3.2.523-5.6.041-6.558-1.362a3.755,3.755,0,0,1-.418-2.843l-2.711-.479a6.469,6.469,0,0,0,.858,4.88c1.244,1.815,3.53,2.756,6.524,2.756a17.827,17.827,0,0,0,3.284-.329c1.888,4.285,4.6,6.718,7.547,6.718s5.66-2.432,7.547-6.717a18.011,18.011,0,0,0,3.357.344c2.968,0,5.2-.939,6.453-2.772a6.433,6.433,0,0,0,.872-4.79ZM47,54.7q1.354-.794,2.681-1.7.473-.325.937-.66a30,30,0,0,1-.86,3.333A28.88,28.88,0,0,1,47,54.7Zm-8.916.97a30.116,30.116,0,0,1-.86-3.333q.463.335.937.661,1.323.906,2.68,1.7A28.888,28.888,0,0,1,38.089,55.67Zm0-22.147a28.878,28.878,0,0,1,2.757.97q-1.352.793-2.679,1.7-.472.324-.936.66a30.24,30.24,0,0,1,.857-3.331Zm-4.335,12.22q-.555-.569-1.064-1.146.51-.577,1.064-1.147-.014.573-.015,1.147T33.754,45.742Zm5.97,4.984c-1.071-.735-2.094-1.51-3.055-2.306-.114-1.252-.176-2.534-.176-3.824s.061-2.572.176-3.824c.973-.806,2-1.582,3.055-2.308a41.26,41.26,0,0,1,4.2-2.534,41.5,41.5,0,0,1,4.2,2.534c1.066.731,2.089,1.507,3.055,2.308.114,1.251.176,2.534.176,3.824s-.061,2.571-.176,3.823c-.966.8-1.99,1.577-3.055,2.307a41.452,41.452,0,0,1-4.2,2.535,41.58,41.58,0,0,1-4.2-2.535ZM54.1,43.451q.554.568,1.063,1.145-.509.576-1.063,1.145.014-.571.015-1.144T54.1,43.451Zm-3.476-6.6q-.463-.335-.936-.66c-.879-.6-1.775-1.17-2.679-1.7a28.816,28.816,0,0,1,2.756-.97,30.123,30.123,0,0,1,.858,3.33Zm8.389-2.6c1.137,1.658.305,4.768-2.107,8.158A38,38,0,0,0,53.81,39.39a36.147,36.147,0,0,0-1.358-6.5C55.648,32.372,58.049,32.853,59.011,34.256Zm-30.17,0c.96-1.4,3.36-1.883,6.557-1.36a36.174,36.174,0,0,0-1.356,6.5,37.856,37.856,0,0,0-3.1,3.024c-2.411-3.39-3.242-6.5-2.1-8.159ZM43.925,62.884c-1.7,0-3.455-1.708-4.832-4.64a34.174,34.174,0,0,0,4.832-1.906,34.154,34.154,0,0,0,4.832,1.906C47.381,61.176,45.626,62.884,43.925,62.884Z" fill="#fedb41"/><path d="M43.925,40.218A4.378,4.378,0,1,0,48.3,44.6a4.378,4.378,0,0,0-4.378-4.378Z" fill="#00efd1"/><path d="M43.971,24.255a4.378,4.378,0,1,0,.852,2.6,4.378,4.378,0,0,0-.852-2.6Z" fill="#00efd1"/><path d="M30.193,45.189l0,0a4.271,4.271,0,1,0,1.788,5.771A4.271,4.271,0,0,0,30.189,45.187Z" fill="#00efd1"/><path d="M60.017,44.655a4.351,4.351,0,1,0,3.1,1.274,4.377,4.377,0,0,0-3.1-1.274Z" fill="#00efd1"/></g></g></g></svg>