<svg xmlns="http://www.w3.org/2000/svg" xmlns:xlink="http://www.w3.org/1999/xlink" width="133" height="133" viewBox="0 0 133 133"><defs><clipPath id="a"><rect width="85" height="85" transform="translate(758 1271)" fill="#fff" stroke="#707070" stroke-width="1"/></clipPath></defs><g transform="translate(-734 -1247.014)"><g transform="translate(734 1247.014)" fill="#fff8d9" stroke="#21155c" stroke-width="3"><circle cx="66.5" cy="66.5" r="66.5" stroke="none"/><circle cx="66.5" cy="66.5" r="65" fill="none"/></g><rect width="18.053" height="18.053" rx="2" transform="matrix(0.945, 0.327, -0.327, 0.945, 845.325, 1352.143)" fill="#21155c"/><g clip-path="url(#a)"><g transform="translate(755.167 1268.167)"><path d="M87.833,87.833,75.933,68h-61.2L2.833,87.833Z" fill="#f06423"/><path d="M45.333,17l-17,28.333h34Z" fill="#4182c3"/><path d="M28.333,45.333,14.733,68h61.2l-13.6-22.667Z" fill="#a5c3dc"/><path d="M45.333,17l-17,28.333H54.4Z" fill="#23aae6"/><path d="M28.333,45.333,14.733,68h46.92L54.4,45.333Z" fill="#d7e6f0"/><path d="M14.733,68,2.833,87.833H68L61.653,68Z" fill="#faa019"/><circle cx="17" cy="17" r="17" transform="translate(28.333 4.25)" fill="#f06423"/><path d="M29.75,22.667a1.417,1.417,0,0,1-1.417-1.417,17.019,17.019,0,0,1,17-17,1.417,1.417,0,1,1,0,2.833A14.183,14.183,0,0,0,31.167,21.25,1.417,1.417,0,0,1,29.75,22.667Z" fill="#faa019"/><circle cx="14.167" cy="14.167" r="14.167" transform="translate(31.167 7.083)" fill="#d7e6f0"/><path d="M48.167,26.917H42.5a4.25,4.25,0,0,1-4.25-4.25v-8.5a4.25,4.25,0,0,1,4.25-4.25h5.667a4.25,4.25,0,0,1,4.25,4.25v8.5A4.25,4.25,0,0,1,48.167,26.917Z" fill="#fab991"/><path d="M42.5,26.917h5.667V29.75H42.5Z" fill="#f0915a"/><path d="M39.667,29.75a8.462,8.462,0,0,0-4.547,1.317,14.166,14.166,0,0,0,20.427,0A8.462,8.462,0,0,0,51,29.75Z" fill="#faa019"/><path d="M48.167,9.917H42.5a4.25,4.25,0,0,0-4.25,4.25v4.25A1.417,1.417,0,0,0,39.667,17V15.583a1.417,1.417,0,0,1,1.417-1.417h8.5A1.417,1.417,0,0,1,51,15.583V17a1.417,1.417,0,0,0,1.417,1.417v-4.25A4.25,4.25,0,0,0,48.167,9.917Z" fill="#463c4b"/><path d="M52.417,21.25V17a1.417,1.417,0,0,1,1.417,1.417v1.417A1.417,1.417,0,0,1,52.417,21.25Z" fill="#f0915a"/><path d="M38.25,21.25V17a1.417,1.417,0,0,0-1.417,1.417v1.417A1.417,1.417,0,0,0,38.25,21.25Z" fill="#f0915a"/><path d="M73.667,24.083H68a2.833,2.833,0,1,1,0-5.667h5.667a2.833,2.833,0,1,1,0,5.667Z" fill="#faa019"/><path d="M66.583,12.75a2.833,2.833,0,0,1-2-4.837l4.25-4.25A2.833,2.833,0,0,1,72.837,7.67l-4.25,4.25a2.824,2.824,0,0,1-2,.83Z" fill="#faa019"/><path d="M70.833,39.667a2.824,2.824,0,0,1-2-.83l-4.25-4.25a2.833,2.833,0,1,1,4.007-4.007l4.25,4.25a2.833,2.833,0,0,1-2,4.837Z" fill="#faa019"/><path d="M22.667,24.083H17a2.833,2.833,0,1,1,0-5.667h5.667a2.833,2.833,0,1,1,0,5.667Z" fill="#faa019"/><path d="M24.083,12.75a2.824,2.824,0,0,1-2-.83L17.83,7.67a2.833,2.833,0,1,1,4.007-4.007l4.25,4.25a2.833,2.833,0,0,1-2,4.837Z" fill="#faa019"/><path d="M19.833,39.667a2.833,2.833,0,0,1-2-4.837l4.25-4.25a2.833,2.833,0,0,1,4.007,4.007l-4.25,4.25A2.824,2.824,0,0,1,19.833,39.667Z" fill="#faa019"/></g></g></g></svg>