<svg xmlns="http://www.w3.org/2000/svg" xmlns:xlink="http://www.w3.org/1999/xlink" width="133" height="133" viewBox="0 0 133 133"><defs><clipPath id="a"><rect width="85" height="85" transform="translate(1068 1271)" fill="#fff" stroke="#707070" stroke-width="1"/></clipPath></defs><g transform="translate(-1044 -1247.014)"><g transform="translate(1044 1247.014)" fill="#fff8d9" stroke="#21155c" stroke-width="3"><circle cx="66.5" cy="66.5" r="66.5" stroke="none"/><circle cx="66.5" cy="66.5" r="65" fill="none"/></g><rect width="18.053" height="18.053" rx="2" transform="matrix(0.945, 0.327, -0.327, 0.945, 1155.325, 1352.143)" fill="#21155c"/><g clip-path="url(#a)"><g transform="translate(1068 1271)"><path d="M66.152,26.477A23.655,23.655,0,1,1,42.5,2.825,23.678,23.678,0,0,1,66.152,26.477Z" fill="#ffe85f"/><path d="M66.152,26.477A23.655,23.655,0,0,1,40.01,50a23.652,23.652,0,0,0,0-47.041A23.655,23.655,0,0,1,66.152,26.477Z" fill="#ffcf48"/><path d="M51.445,19.2a9.064,9.064,0,0,0-18.11.574,2.49,2.49,0,1,0,4.98,0,4.084,4.084,0,0,1,4.349-4.075,4.127,4.127,0,0,1,3.81,3.81,4.061,4.061,0,0,1-2.7,4.113,5.767,5.767,0,0,0-3.863,5.389,2.49,2.49,0,0,0,4.98,0,.772.772,0,0,1,.557-.7,9.115,9.115,0,0,0,6-9.112Z" fill="#616270"/><circle cx="2.491" cy="2.491" r="2.491" transform="translate(39.908 36.387)" fill="#616270"/><path d="M39.464,75.579a1.244,1.244,0,0,1-.579,1.053,35.857,35.857,0,0,1-37.639.41.035.035,0,0,1-.01-.007c-.221-.131-.438-.266-.656-.4A1.248,1.248,0,0,1,0,75.579a8.917,8.917,0,0,1,8.9-8.91H30.56a8.917,8.917,0,0,1,8.9,8.91Z" fill="#f35"/><path d="M39.464,75.579a1.244,1.244,0,0,1-.579,1.053,35.857,35.857,0,0,1-37.639.41c3.687,1.967,12.547,2.643,18.487,2.643a33.258,33.258,0,0,0,17.206-4.776c-.337-3.226-2.905-8.239-7.854-8.239H30.56A8.917,8.917,0,0,1,39.464,75.579Z" fill="#e52870"/><path d="M23.382,64.524a13.167,13.167,0,0,0,.035,3.39A3.685,3.685,0,0,1,19.733,71.6a3.638,3.638,0,0,1-1.328-.247,3.686,3.686,0,0,1-2.357-3.442,13.179,13.179,0,0,0,.035-3.392c-3.671-2.972-5.532-5.591-5.532-7.783,0-.232.008-.467.028-.689.095-.965.116-4.155.065-7.006l9.089-6.969,6.4,4.911,2.683,2.057c-.051,2.85-.03,6.038.065,7,.02.227.028.462.028.694C28.913,58.931,27.052,61.549,23.382,64.524Z" fill="#ffdcc5"/><path d="M23.382,64.524a13.167,13.167,0,0,0,.035,3.39A3.685,3.685,0,0,1,19.733,71.6a3.638,3.638,0,0,1-1.328-.247,3.686,3.686,0,0,0,2.356-3.442,13.167,13.167,0,0,1-.035-3.39c3.671-2.975,5.532-5.593,5.532-7.784,0-.232-.008-.467-.028-.694-.063-.644-.093-5.229-.091-9.059l2.683,2.057c-.051,2.85-.03,6.038.065,7,.02.227.028.462.028.694C28.913,58.931,27.052,61.549,23.382,64.524Z" fill="#ffc6bb"/><path d="M33.08,44.1a5.169,5.169,0,0,1-5.165,5.171H27.9a5.168,5.168,0,0,1-4.806-3.312,5.586,5.586,0,0,1-6.725,0A5.166,5.166,0,1,1,8.943,39.64a3.581,3.581,0,0,1,4.137-5.769,3.845,3.845,0,0,1,6.641-.305h.022A3.855,3.855,0,0,1,22.977,31.8a3.85,3.85,0,0,1,3.714,2.842,3.022,3.022,0,0,1,3.446,4.788A5.173,5.173,0,0,1,33.08,44.1Z" fill="#9e5c47"/><path d="M33.08,44.1a5.169,5.169,0,0,1-5.165,5.171H27.9a5.175,5.175,0,0,0-.586-9.01,3.021,3.021,0,0,0-3.446-4.788,3.852,3.852,0,0,0-3.305-2.821,3.847,3.847,0,0,1,6.128,1.991,3.022,3.022,0,0,1,3.446,4.788A5.173,5.173,0,0,1,33.08,44.1Z" fill="#893636"/><path d="M81,69.815H49.536c1.7-3.194,2.337-25.923,2.337-25.923v-.075c0-7.137,5.482-10.2,11.9-10.6q.74-.047,1.494-.046c7.062,0,13.437,2.983,13.4,10.725,0,0,.641,22.729,2.337,25.923Z" fill="#ff8150"/><path d="M81,69.815H78.012c-1.7-3.194-2.338-25.923-2.338-25.923.038-7.19-5.459-10.276-11.9-10.678q.74-.047,1.494-.046c7.062,0,13.437,2.983,13.4,10.725C78.663,43.892,79.3,66.621,81,69.815Z" fill="#f55"/><path d="M85,75.579a1.244,1.244,0,0,1-.579,1.053,35.857,35.857,0,0,1-37.639.41.035.035,0,0,1-.01-.007c-.221-.131-.438-.266-.656-.4a1.248,1.248,0,0,1-.579-1.053,8.917,8.917,0,0,1,8.9-8.91H76.1a8.917,8.917,0,0,1,8.9,8.91Z" fill="#33cfff"/><path d="M85,75.579a1.244,1.244,0,0,1-.579,1.053,35.857,35.857,0,0,1-37.639.41c3.687,1.967,12.547,2.643,18.487,2.643a33.258,33.258,0,0,0,17.206-4.776c-.337-3.226-2.905-8.239-7.854-8.239H76.1a8.917,8.917,0,0,1,8.9,8.91Z" fill="#33a8ff"/><path d="M68.918,64.524a13.167,13.167,0,0,0,.035,3.39A3.685,3.685,0,0,1,65.267,71.6a3.62,3.62,0,0,1-1.325-.247h0a3.685,3.685,0,0,1-2.357-3.442,13.179,13.179,0,0,0,.035-3.392c-3.671-2.972-5.532-5.591-5.532-7.783,0-.232.008-.467.028-.689.095-.965.116-4.155.065-7.006h8.84a3.726,3.726,0,0,0,3.724-3.729,3.727,3.727,0,0,0,2.932,3.642,3.678,3.678,0,0,0,.794.086l1.888,0c-.051,2.85-.03,6.038.065,7,.02.227.028.462.028.694,0,2.191-1.861,4.809-5.532,7.784Z" fill="#ffdcc5"/><path d="M68.918,64.524a13.167,13.167,0,0,0,.035,3.39A3.685,3.685,0,0,1,65.267,71.6a3.62,3.62,0,0,1-1.325-.247A3.689,3.689,0,0,0,66.3,67.914a13.167,13.167,0,0,1-.035-3.39c3.671-2.975,5.532-5.593,5.532-7.784,0-.232-.008-.467-.028-.694-.053-.536-.081-3.8-.09-7.087a3.678,3.678,0,0,0,.794.086l1.888,0c-.051,2.85-.03,6.038.065,7,.02.227.028.462.028.694,0,2.191-1.861,4.809-5.532,7.784Z" fill="#ffc6bb"/></g></g></g></svg>