<svg xmlns="http://www.w3.org/2000/svg" xmlns:xlink="http://www.w3.org/1999/xlink" width="100.945" height="100.947" viewBox="0 0 100.945 100.947"><defs><radialGradient id="a" cx="0.787" cy="0.248" r="0.928" gradientTransform="matrix(0.897, 0.442, -0.442, 0.897, 2.206, -0.122)" gradientUnits="objectBoundingBox"><stop offset="0.204" stop-color="#ff4053"/><stop offset="1" stop-color="#860709"/></radialGradient><radialGradient id="b" cx="0.998" cy="0.156" r="1.5" gradientTransform="matrix(0.834, 0.442, -0.412, 0.897, 4.137, -0.013)" gradientUnits="objectBoundingBox"><stop offset="0.204" stop-color="#fff"/><stop offset="1" stop-color="#ffa6b9"/></radialGradient><radialGradient id="c" cx="0.5" cy="0.5" r="0.346" gradientTransform="matrix(-1.341, 0.308, -0.635, -1.39, 63.958, -15.28)" gradientUnits="objectBoundingBox"><stop offset="0" stop-color="#fff"/><stop offset="0.103" stop-color="#fff" stop-opacity="0.847"/><stop offset="0.29" stop-color="#fff" stop-opacity="0.596"/><stop offset="0.469" stop-color="#fff" stop-opacity="0.38"/><stop offset="0.635" stop-color="#fff" stop-opacity="0.216"/><stop offset="0.783" stop-color="#fff" stop-opacity="0.098"/><stop offset="0.91" stop-color="#fff" stop-opacity="0.027"/><stop offset="1" stop-color="#fff" stop-opacity="0"/></radialGradient><radialGradient id="d" cx="0.5" cy="0.5" r="0.511" gradientTransform="matrix(0.436, -0.973, -0.875, -0.109, 32.987, 55.655)" xlink:href="#c"/><linearGradient id="e" x1="2.742" y1="11.983" x2="1.697" y2="11.314" gradientUnits="objectBoundingBox"><stop offset="0" stop-color="#fff"/><stop offset="0.248" stop-color="#fff" stop-opacity="0.702"/><stop offset="0.519" stop-color="#fff" stop-opacity="0.404"/><stop offset="0.744" stop-color="#fff" stop-opacity="0.184"/><stop offset="0.91" stop-color="#fff" stop-opacity="0.051"/><stop offset="1" stop-color="#fff" stop-opacity="0"/></linearGradient></defs><g transform="translate(-262.527 -378.085)"><path d="M358.254,450.882a50.462,50.462,0,1,1-22.932-67.58A50.463,50.463,0,0,1,358.254,450.882Z" fill="url(#a)"/><path d="M333.691,417.522c-10.9-5.377-16.563,2.668-16.563,2.668s2.936-9.39-7.965-14.767c-10.483-5.171-18.778,3.936-20.3,10.243-4.025,16.67,11.944,37.617,11.944,37.617s26.339-.078,37.116-13.416c4.077-5.048,6.255-17.174-4.229-22.345" fill-rule="evenodd" fill="url(#b)"/><path d="M319.306,429.733c-4.505-16.566.889-32.967,12.048-36.642s23.861,6.774,28.366,23.335-.89,32.969-12.047,36.642S323.812,446.3,319.306,429.733Z" opacity="0.5" fill="url(#c)" style="mix-blend-mode:overlay;isolation:isolate"/><path d="M271.814,420.2c-5.568-1.284-7.832,7.194-5.058,18.937s9.535,22.3,15.1,23.585,7.833-7.2,5.058-18.935S277.379,421.482,271.814,420.2Z" opacity="0.4" fill="url(#d)" style="mix-blend-mode:overlay;isolation:isolate"/><path d="M355.192,424.022c-5.54,4.975-17.309.9-26.289-9.1s-11.761-22.139-6.218-27.113,17.313-.9,26.29,9.1S360.735,419.046,355.192,424.022Z" opacity="0.4" fill="url(#e)" style="mix-blend-mode:overlay;isolation:isolate"/></g></svg>