<svg xmlns="http://www.w3.org/2000/svg" xmlns:xlink="http://www.w3.org/1999/xlink" width="97.181" height="94.195" viewBox="0 0 97.181 94.195"><defs><linearGradient id="a" x1="-0.235" y1="-0.065" x2="0.995" y2="1.168" gradientUnits="objectBoundingBox"><stop offset="0.113" stop-color="#1377d4"/><stop offset="1" stop-color="#08225e"/></linearGradient><linearGradient id="b" x1="0.429" y1="0.326" x2="1.252" y2="2.337" xlink:href="#a"/><linearGradient id="c" x1="0.388" y1="0.261" x2="1.207" y2="2.613" gradientUnits="objectBoundingBox"><stop offset="0" stop-color="#37aeff"/><stop offset="0.05" stop-color="#37aeff"/><stop offset="1" stop-color="#1861f7"/></linearGradient><linearGradient id="d" x1="0.5" y1="0.189" x2="0.5" y2="2.273" xlink:href="#c"/></defs><g transform="translate(-543.328 -63.453)"><path d="M633.879,135.42q-2.5,3.483-5,6.962a35.368,35.368,0,0,1-14.278,11.575c-21.321,9.683-49.868-.344-63.782-22.4-9.985-15.83-9.711-33.557-.869-45.88h0l2.5-3.48,2.5-3.482c-8.842,12.323-9.117,30.049.869,45.879,13.914,22.058,42.462,32.084,63.783,22.4A35.383,35.383,0,0,0,633.879,135.42Z" fill="url(#a)"/><path d="M569.228,67.14c21.313-9.678,49.875.354,63.783,22.4s7.9,47.776-13.408,57.454-49.869-.345-63.783-22.4S547.907,76.821,569.228,67.14Z" fill="url(#b)"/><path d="M619.6,147c-21.321,9.681-49.869-.345-63.783-22.4-9.1-14.419-9.653-30.4-3-42.448-7.012,12.115-6.577,28.4,2.675,43.065,13.914,22.057,42.461,32.084,63.782,22.4a35.636,35.636,0,0,0,12.806-9.683l1.8-2.509A35.383,35.383,0,0,1,619.6,147Z" fill="url(#c)"/><path d="M619.116,117.228l-11.949,5.426c-4.337,1.969-8.376,1.687-9.837-.629l-8.223-13.034c-3.959-6.279-.883-14.526-3.633-18.885L581.582,84.9a3.217,3.217,0,0,1-.618-1.5,2.415,2.415,0,0,1,.434-.942l-2.573,3.515a2.431,2.431,0,0,0-.434.942,3.186,3.186,0,0,0,.619,1.5l3.889,5.208c2.751,4.36-.325,12.607,3.636,18.884l8.222,13.035c1.461,2.316,5.5,2.6,9.836.629l10.811-4.917a7.129,7.129,0,0,0,2.9-1.93l2.573-3.516C620.423,116.444,620.69,116.513,619.116,117.228Z" fill="#0d4b98"/><path d="M619.28,116.269l-11.948,5.425c-4.338,1.97-8.377,1.688-9.838-.629l-8.223-13.033c-3.959-6.28-.883-14.526-3.633-18.885l-3.892-5.209a3.208,3.208,0,0,1-.617-1.5,2.431,2.431,0,0,1,.433-.942l-2.572,3.515a2.4,2.4,0,0,0-.434.943,3.173,3.173,0,0,0,.618,1.5l3.889,5.207c2.752,4.361-.325,12.607,3.636,18.885l8.223,13.035c1.461,2.316,5.5,2.6,9.836.628l11.95-5.426a7.1,7.1,0,0,0,2.9-1.932l2.573-3.514A7.116,7.116,0,0,1,619.28,116.269Z" fill="#dbdbdb"/><path d="M583.269,80.154a5.071,5.071,0,0,1,2.743-.431c3.44.252,6.352,3.525,8.163,6.4.879,1.392,1.672,6.354,2.33,7.9a35.784,35.784,0,0,1,7.6-4.756l.2-.09c4.546-2.063,8.11-2.381,10.18.9a7.883,7.883,0,0,1,.754,4.015c1.172.282,2.269.584,3.645,2.766s.949,3.538.254,4.643a5.74,5.74,0,0,1,2.151,2.6,4.621,4.621,0,0,1-.728,4.851,3.9,3.9,0,0,1,2.046,3.129c.158,1.881-.192,2.766-3.326,4.19l-11.948,5.425c-4.338,1.97-8.377,1.688-9.838-.629l-8.223-13.033c-3.959-6.28-.883-14.526-3.633-18.885l-3.892-5.209a3.208,3.208,0,0,1-.617-1.5A3.521,3.521,0,0,1,583.269,80.154Z" fill="#fbfbfb"/><path d="M596.533,129.173l-6.425,2.954a4.364,4.364,0,0,1-5.255-1.845l-11.371-18.028a3.36,3.36,0,0,1-.075-3.778l-2.572,3.515a3.354,3.354,0,0,0,.073,3.778L582.279,133.8a4.366,4.366,0,0,0,5.257,1.846l6.423-2.953a2.924,2.924,0,0,0,1.176-.953l2.572-3.515A2.885,2.885,0,0,1,596.533,129.173Z" fill="#0d4b98"/><path d="M597.66,127.814l-7.387,3.353a4.362,4.362,0,0,1-5.254-1.845l-11.373-18.027a3.362,3.362,0,0,1-.074-3.779L571,111.032a3.358,3.358,0,0,0,.073,3.778l11.372,18.027a4.366,4.366,0,0,0,5.256,1.846l7.386-3.353a2.933,2.933,0,0,0,1.176-.953l2.572-3.516A2.919,2.919,0,0,1,597.66,127.814Z" fill="#117ed1"/><path d="M582.139,103.208a4.373,4.373,0,0,1,5.255,1.845l1.877,2.979,8.223,13.033,1.272,2.015a3.148,3.148,0,0,1-1.106,4.734l-7.387,3.353a4.362,4.362,0,0,1-5.254-1.845l-11.373-18.027c-1.148-1.82-.654-3.935,1.106-4.734Z" fill="url(#d)"/><path d="M597.66,127.814l-7.387,3.353a4.362,4.362,0,0,1-5.254-1.845l-11.373-18.027a3.605,3.605,0,0,1-.525-2.762,3.5,3.5,0,0,0,.388,3.175l11.372,18.026a4.366,4.366,0,0,0,5.255,1.846l7.386-3.355a3.051,3.051,0,0,0,.558-.333l.754-1.031A2.919,2.919,0,0,1,597.66,127.814Z" fill="#fbfbfb" opacity="0.4" style="mix-blend-mode:overlay;isolation:isolate"/></g></svg>