<svg xmlns="http://www.w3.org/2000/svg" xmlns:xlink="http://www.w3.org/1999/xlink" width="149.28" height="146.292" viewBox="0 0 149.28 146.292">
  <defs>
    <linearGradient id="linear-gradient" x1="-0.235" y1="-0.065" x2="0.995" y2="1.168" gradientUnits="objectBoundingBox">
      <stop offset="0.113" stop-color="#1377d4"/>
      <stop offset="1" stop-color="#08225e"/>
    </linearGradient>
    <linearGradient id="linear-gradient-2" x1="0.429" y1="0.326" x2="1.252" y2="2.337" xlink:href="#linear-gradient"/>
    <linearGradient id="linear-gradient-3" x1="0.388" y1="0.261" x2="1.207" y2="2.613" gradientUnits="objectBoundingBox">
      <stop offset="0" stop-color="#37aeff"/>
      <stop offset="0.05" stop-color="#37aeff"/>
      <stop offset="1" stop-color="#1861f7"/>
    </linearGradient>
    <linearGradient id="linear-gradient-4" x1="0.5" y1="0.189" x2="0.5" y2="2.273" xlink:href="#linear-gradient-3"/>
    <radialGradient id="radial-gradient" cx="0.697" cy="0.171" r="0.8" gradientTransform="translate(0)" gradientUnits="objectBoundingBox">
      <stop offset="0" stop-color="#fff1bf"/>
      <stop offset="0.204" stop-color="#ffd640"/>
      <stop offset="0.866" stop-color="#e07612"/>
      <stop offset="1" stop-color="#ffa322"/>
    </radialGradient>
    <linearGradient id="linear-gradient-5" x1="0.408" y1="0.174" x2="0.643" y2="1.141" gradientUnits="objectBoundingBox">
      <stop offset="0" stop-color="#ff1212"/>
      <stop offset="1" stop-color="#a41f3c"/>
    </linearGradient>
  </defs>
  <g id="Grupo_95188" data-name="Grupo 95188" transform="translate(-1157.902 -412.004)">
    <g id="Grupo_80222" data-name="Grupo 80222" transform="translate(666.673 348.551)">
      <g id="Grupo_80218" data-name="Grupo 80218">
        <path id="Trazado_113549" data-name="Trazado 113549" d="M633.879,135.42q-2.5,3.483-5,6.962a35.368,35.368,0,0,1-14.278,11.575c-21.321,9.683-49.868-.344-63.782-22.4-9.985-15.83-9.711-33.557-.869-45.88h0l2.5-3.48,2.5-3.482c-8.842,12.323-9.117,30.049.869,45.879,13.914,22.058,42.462,32.084,63.783,22.4A35.383,35.383,0,0,0,633.879,135.42Z" fill="url(#linear-gradient)"/>
        <path id="Trazado_113550" data-name="Trazado 113550" d="M569.228,67.14c21.313-9.678,49.875.354,63.783,22.4s7.9,47.776-13.408,57.454-49.869-.345-63.783-22.4S547.907,76.821,569.228,67.14Z" fill="url(#linear-gradient-2)"/>
        <path id="Trazado_113551" data-name="Trazado 113551" d="M619.6,147c-21.321,9.681-49.869-.345-63.783-22.4-9.1-14.419-9.653-30.4-3-42.448-7.012,12.115-6.577,28.4,2.675,43.065,13.914,22.057,42.461,32.084,63.782,22.4a35.636,35.636,0,0,0,12.806-9.683l1.8-2.509A35.383,35.383,0,0,1,619.6,147Z" fill="url(#linear-gradient-3)"/>
      </g>
      <g id="Grupo_80221" data-name="Grupo 80221">
        <g id="Grupo_80219" data-name="Grupo 80219">
          <path id="Trazado_113552" data-name="Trazado 113552" d="M619.116,117.228l-11.949,5.426c-4.337,1.969-8.376,1.687-9.837-.629l-8.223-13.034c-3.959-6.279-.883-14.526-3.633-18.885L581.582,84.9a3.217,3.217,0,0,1-.618-1.5,2.415,2.415,0,0,1,.434-.942l-2.573,3.515a2.431,2.431,0,0,0-.434.942,3.186,3.186,0,0,0,.619,1.5l3.889,5.208c2.751,4.36-.325,12.607,3.636,18.884l8.222,13.035c1.461,2.316,5.5,2.6,9.836.629l10.811-4.917a7.129,7.129,0,0,0,2.9-1.93l2.573-3.516C620.423,116.444,620.69,116.513,619.116,117.228Z" fill="#0d4b98"/>
          <path id="Trazado_113553" data-name="Trazado 113553" d="M619.28,116.269l-11.948,5.425c-4.338,1.97-8.377,1.688-9.838-.629l-8.223-13.033c-3.959-6.28-.883-14.526-3.633-18.885l-3.892-5.209a3.208,3.208,0,0,1-.617-1.5,2.431,2.431,0,0,1,.433-.942l-2.572,3.515a2.4,2.4,0,0,0-.434.943,3.173,3.173,0,0,0,.618,1.5l3.889,5.207c2.752,4.361-.325,12.607,3.636,18.885l8.223,13.035c1.461,2.316,5.5,2.6,9.836.628l11.95-5.426a7.1,7.1,0,0,0,2.9-1.932l2.573-3.514A7.116,7.116,0,0,1,619.28,116.269Z" fill="#dbdbdb"/>
          <path id="Trazado_113554" data-name="Trazado 113554" d="M583.269,80.154a5.071,5.071,0,0,1,2.743-.431c3.44.252,6.352,3.525,8.163,6.4.879,1.392,1.672,6.354,2.33,7.9a35.784,35.784,0,0,1,7.6-4.756l.2-.09c4.546-2.063,8.11-2.381,10.18.9a7.883,7.883,0,0,1,.754,4.015c1.172.282,2.269.584,3.645,2.766s.949,3.538.254,4.643a5.74,5.74,0,0,1,2.151,2.6,4.621,4.621,0,0,1-.728,4.851,3.9,3.9,0,0,1,2.046,3.129c.158,1.881-.192,2.766-3.326,4.19l-11.948,5.425c-4.338,1.97-8.377,1.688-9.838-.629l-8.223-13.033c-3.959-6.28-.883-14.526-3.633-18.885l-3.892-5.209a3.208,3.208,0,0,1-.617-1.5A3.521,3.521,0,0,1,583.269,80.154Z" fill="#fbfbfb"/>
        </g>
        <g id="Grupo_80220" data-name="Grupo 80220">
          <path id="Trazado_113555" data-name="Trazado 113555" d="M596.533,129.173l-6.425,2.954a4.364,4.364,0,0,1-5.255-1.845l-11.371-18.028a3.36,3.36,0,0,1-.075-3.778l-2.572,3.515a3.354,3.354,0,0,0,.073,3.778L582.279,133.8a4.366,4.366,0,0,0,5.257,1.846l6.423-2.953a2.924,2.924,0,0,0,1.176-.953l2.572-3.515A2.885,2.885,0,0,1,596.533,129.173Z" fill="#0d4b98"/>
          <path id="Trazado_113556" data-name="Trazado 113556" d="M597.66,127.814l-7.387,3.353a4.362,4.362,0,0,1-5.254-1.845l-11.373-18.027a3.362,3.362,0,0,1-.074-3.779L571,111.032a3.358,3.358,0,0,0,.073,3.778l11.372,18.027a4.366,4.366,0,0,0,5.256,1.846l7.386-3.353a2.933,2.933,0,0,0,1.176-.953l2.572-3.516A2.919,2.919,0,0,1,597.66,127.814Z" fill="#117ed1"/>
          <path id="Trazado_113557" data-name="Trazado 113557" d="M582.139,103.208a4.373,4.373,0,0,1,5.255,1.845l1.877,2.979,8.223,13.033,1.272,2.015a3.148,3.148,0,0,1-1.106,4.734l-7.387,3.353a4.362,4.362,0,0,1-5.254-1.845l-11.373-18.027c-1.148-1.82-.654-3.935,1.106-4.734Z" fill="url(#linear-gradient-4)"/>
          <path id="Trazado_113558" data-name="Trazado 113558" d="M597.66,127.814l-7.387,3.353a4.362,4.362,0,0,1-5.254-1.845l-11.373-18.027a3.605,3.605,0,0,1-.525-2.762,3.5,3.5,0,0,0,.388,3.175l11.372,18.026a4.366,4.366,0,0,0,5.255,1.846l7.386-3.355a3.051,3.051,0,0,0,.558-.333l.754-1.031A2.919,2.919,0,0,1,597.66,127.814Z" fill="#fbfbfb" opacity="0.4" style="mix-blend-mode: overlay;isolation: isolate"/>
        </g>
      </g>
    </g>
    <g id="Grupo_80229" data-name="Grupo 80229" transform="translate(850.664 68.365)">
      <path id="Trazado_113573" data-name="Trazado 113573" d="M385.668,463.882a26.049,26.049,0,1,1-26.049-26.049A26.049,26.049,0,0,1,385.668,463.882Z" transform="translate(-26.332)" fill="url(#radial-gradient)"/>
      <g id="Grupo_80228" data-name="Grupo 80228" transform="translate(311.58 443.751)" style="isolation: isolate">
        <path id="Trazado_113574" data-name="Trazado 113574" d="M370.9,489.773c-7.921,6.9-17.374,6.4-22.987-1.215,2.013-4.639,5.677-6.92,11.2-6.976a14.805,14.805,0,0,1,12.476,7.47c-.207.215-.471.515-.69.72" transform="translate(-345.581 -467.15)" fill="url(#linear-gradient-5)"/>
        <path id="Trazado_113575" data-name="Trazado 113575" d="M356.051,452.844a2.785,2.785,0,0,1-1.009.944,34.327,34.327,0,0,0-4.582,2.968c-.817.61-1.246.3-1.123-.351.214-1.136,1.191-1.772,3.332-3.163-.3-.187-.7-.436-1-.63-.351-.445.93-1.739,1.851-2.046.157-.04.157-.04,2.487,1.226.412.293.206.784.046,1.052" transform="translate(-346.333 -450.555)" fill="#252c37"/>
        <path id="Trazado_113576" data-name="Trazado 113576" d="M399.2,453.223c-.137.358-.137.358-3.046,1.052.69.49,1.611,1.142,2.29,1.648,1.221,1.1.524,2.288-.547,2.305a1.741,1.741,0,0,1-.918-.259c-.05-.033-.116-.077-.163-.113-1.848-1.378-2.288-1.705-4.508-3.178-.8-.592-.787-1.381.021-1.877a47.868,47.868,0,0,1,4.992-1.2,1.519,1.519,0,0,1,.629.014c1.1.307,1.433,1.128,1.25,1.6" transform="translate(-369.009 -451.103)" fill="#252c37"/>
        <path id="Trazado_113577" data-name="Trazado 113577" d="M373.616,476.516a18.792,18.792,0,0,1-4.7,6.981c-3.151-4.836-6.65-6.93-12.479-7.466-4.961.22-8.56,1.455-11.174,6.919-2.639-4.152-3.165-9.311-1.043-10.222a37.089,37.089,0,0,1,11.935-1.524,70.356,70.356,0,0,1,16.421,2.183c1.936.614,1.541,1.723,1.043,3.129" transform="translate(-342.904 -461.598)" fill="#252c37"/>
      </g>
    </g>
  </g>
</svg>
