<svg xmlns="http://www.w3.org/2000/svg" xmlns:xlink="http://www.w3.org/1999/xlink" width="74.895" height="81.161" viewBox="0 0 74.895 81.161">
  <defs>
    <linearGradient id="linear-gradient" x1="6.552" y1="15.079" x2="8.413" y2="16.077" gradientUnits="objectBoundingBox">
      <stop offset="0.113" stop-color="#1377d4"/>
      <stop offset="1" stop-color="#08225e"/>
    </linearGradient>
    <linearGradient id="linear-gradient-2" x1="5.459" y1="15.439" x2="6.38" y2="17.257" xlink:href="#linear-gradient"/>
    <linearGradient id="linear-gradient-3" x1="8.51" y1="15.779" x2="9.858" y2="17.493" gradientUnits="objectBoundingBox">
      <stop offset="0" stop-color="#37aeff"/>
      <stop offset="0.05" stop-color="#37aeff"/>
      <stop offset="1" stop-color="#1861f7"/>
    </linearGradient>
    <linearGradient id="linear-gradient-4" x1="23.63" y1="46.868" x2="23.63" y2="48.763" xlink:href="#linear-gradient-3"/>
  </defs>
  <g id="Grupo_80217" data-name="Grupo 80217" transform="translate(-369.66 14.239)">
    <g id="Grupo_80213" data-name="Grupo 80213">
      <path id="Trazado_113539" data-name="Trazado 113539" d="M419.072,64.771q-3.454.756-6.909,1.506a29.173,29.173,0,0,1-15.144-.8c-18.417-5.851-30.364-27.772-26.7-48.976,2.632-15.217,12.6-25.926,24.824-28.589h0q1.728-.376,3.455-.753t3.455-.752C389.825-10.93,379.86-.221,377.229,15c-3.665,21.2,8.285,43.125,26.7,48.978A29.176,29.176,0,0,0,419.072,64.771Z" fill="url(#linear-gradient)"/>
      <path id="Trazado_113540" data-name="Trazado 113540" d="M417.2-12.793c18.407,5.849,30.363,27.782,26.7,48.976s-21.563,33.64-39.967,27.792S373.564,36.2,377.229,15,398.786-18.646,417.2-12.793Z" fill="url(#linear-gradient-2)"/>
      <path id="Trazado_113541" data-name="Trazado 113541" d="M403.927,63.975C385.514,58.122,373.564,36.2,377.229,15c2.395-13.862,10.887-23.961,21.622-27.667C387.858-9.122,379.123,1.1,376.688,15.192c-3.665,21.206,8.283,43.127,26.7,48.977a29.358,29.358,0,0,0,13.2,1.145q1.244-.27,2.49-.543A29.176,29.176,0,0,1,403.927,63.975Z" fill="url(#linear-gradient-3)"/>
    </g>
    <g id="Grupo_80216" data-name="Grupo 80216">
      <g id="Grupo_80214" data-name="Grupo 80214">
        <path id="Trazado_113542" data-name="Trazado 113542" d="M420.08,45.467l-10.318-3.28c-3.746-1.191-6.067-3.6-5.68-5.823l2.165-12.529c1.044-6.034,7.488-9.389,8.21-13.579l.5-5.342a2.674,2.674,0,0,1,.447-1.259,2,2,0,0,1,.787-.337l-3.517.731a1.987,1.987,0,0,0-.786.337,2.6,2.6,0,0,0-.449,1.26l-.5,5.341c-.723,4.191-7.167,7.544-8.21,13.579L400.562,37.1c-.384,2.228,1.934,4.633,5.677,5.822l9.343,2.963a5.882,5.882,0,0,0,2.846.423l3.519-.733C421.316,45.708,421.439,45.9,420.08,45.467Z" fill="#0d4b98"/>
        <path id="Trazado_113543" data-name="Trazado 113543" d="M420.711,44.97l-10.318-3.28c-3.745-1.191-6.066-3.6-5.68-5.823l2.164-12.53c1.046-6.034,7.487-9.386,8.213-13.578l.494-5.342a2.668,2.668,0,0,1,.449-1.26,2.024,2.024,0,0,1,.785-.336l-3.517.732a1.933,1.933,0,0,0-.785.337,2.594,2.594,0,0,0-.453,1.259l-.494,5.34c-.724,4.194-7.167,7.546-8.209,13.581L401.191,36.6c-.382,2.226,1.936,4.631,5.682,5.82L417.192,45.7a5.859,5.859,0,0,0,2.847.42l3.519-.731A5.852,5.852,0,0,1,420.711,44.97Z" fill="#dbdbdb"/>
        <path id="Trazado_113544" data-name="Trazado 113544" d="M418.608,2.94a4.194,4.194,0,0,1,1.918,1.252c1.969,2.056,1.944,5.672,1.466,8.431-.228,1.338-2.485,4.817-2.935,6.125a29.592,29.592,0,0,1,7.287,1.289l.169.053c3.926,1.248,6.286,3.024,5.737,6.18a6.494,6.494,0,0,1-1.754,2.875,4.191,4.191,0,0,1,.7,3.71c-.364,2.1-1.373,2.692-2.41,2.984a4.724,4.724,0,0,1-.121,2.784,3.815,3.815,0,0,1-3.126,2.57,3.226,3.226,0,0,1-.478,3.049c-.943,1.239-1.644,1.588-4.353.728l-10.318-3.28c-3.745-1.191-6.066-3.6-5.68-5.823l2.164-12.53c1.046-6.034,7.487-9.386,8.213-13.578l.494-5.342a2.668,2.668,0,0,1,.449-1.26A2.906,2.906,0,0,1,418.608,2.94Z" fill="#fbfbfb"/>
      </g>
      <g id="Grupo_80215" data-name="Grupo 80215">
        <path id="Trazado_113545" data-name="Trazado 113545" d="M399.644,40.3l-5.572-1.74a3.605,3.605,0,0,1-2.2-4.036l3-17.329a2.774,2.774,0,0,1,2.041-2.357l-3.518.733a2.762,2.762,0,0,0-2.042,2.353l-3,17.331a3.6,3.6,0,0,0,2.2,4.036l5.567,1.741a2.4,2.4,0,0,0,1.249.065l3.516-.732A2.344,2.344,0,0,1,399.644,40.3Z" fill="#0d4b98"/>
        <path id="Trazado_113546" data-name="Trazado 113546" d="M401.084,40.1,394.7,38.066a3.6,3.6,0,0,1-2.2-4.034l3-17.33a2.773,2.773,0,0,1,2.044-2.357l-3.52.733a2.773,2.773,0,0,0-2.045,2.354l-3,17.331a3.6,3.6,0,0,0,2.2,4.035l6.379,2.027a2.421,2.421,0,0,0,1.246.068l3.52-.733A2.431,2.431,0,0,1,401.084,40.1Z" fill="#117ed1"/>
        <path id="Trazado_113547" data-name="Trazado 113547" d="M405.176,16.44a3.606,3.606,0,0,1,2.2,4.036l-.5,2.861-2.164,12.53-.334,1.937a2.6,2.6,0,0,1-3.295,2.291L394.7,38.066a3.6,3.6,0,0,1-2.2-4.034l3-17.33a2.592,2.592,0,0,1,3.294-2.29Z" fill="url(#linear-gradient-4)"/>
        <path id="Trazado_113548" data-name="Trazado 113548" d="M401.084,40.1,394.7,38.066a3.6,3.6,0,0,1-2.2-4.034l3-17.33a2.976,2.976,0,0,1,1.2-1.983,2.885,2.885,0,0,0-1.515,2.159l-3,17.33a3.6,3.6,0,0,0,2.2,4.035l6.378,2.027a2.467,2.467,0,0,0,.528.1l1.03-.214A2.431,2.431,0,0,1,401.084,40.1Z" fill="#fbfbfb" opacity="0.4" style="mix-blend-mode: overlay;isolation: isolate"/>
      </g>
    </g>
  </g>
</svg>
