<svg xmlns="http://www.w3.org/2000/svg" xmlns:xlink="http://www.w3.org/1999/xlink" width="33" height="33" viewBox="0 0 33 33"><defs><clipPath id="a"><rect width="33" height="33" transform="translate(265 18839)" fill="#26d19e"/></clipPath></defs><g transform="translate(-265 -21191.902)"><g transform="translate(0 2352.902)" clip-path="url(#a)"><g transform="translate(266.042 18839)"><path d="M.529,15.434a14.947,14.947,0,0,0,14.495,14.94.44.44,0,0,0,.452-.441V.488A14.946,14.946,0,0,0,.529,15.434Zm0,0" fill="#feca57"/><path d="M2.437,15.434A14.949,14.949,0,0,1,15.476.609V.488a14.946,14.946,0,0,0-.452,29.886.434.434,0,0,0,.325-.131A14.949,14.949,0,0,1,2.437,15.435Zm0,0" fill="#f4b537"/><path d="M15.476.488V15.434l11.831,8.384a.44.44,0,0,0,.62-.113A14.948,14.948,0,0,0,15.476.488Zm0,0" fill="#54a0ff"/><path d="M17.969,14.99a1.289,1.289,0,0,1-.544-1.052V.615A15.087,15.087,0,0,0,15.476.488V15.434l11.831,8.384a.44.44,0,0,0,.62-.113q.375-.564.7-1.162Zm0,0" fill="#338def"/><path d="M27.782,26.861l-9.4-6.662a.44.44,0,0,0-.7.359V32.08a.439.439,0,0,0,.452.44,12.8,12.8,0,0,0,9.738-5.031.442.442,0,0,0-.094-.629Zm0,0" fill="#ff6b6b"/><path d="M19.62,32.08v-11L18.381,20.2a.44.44,0,0,0-.695.359V32.08a.439.439,0,0,0,.452.44,12.9,12.9,0,0,0,1.587-.154.442.442,0,0,1-.1-.286Zm0,0" fill="#ee5253"/><path d="M17.686,24.285l2.679-2.679-.8-.567-1.879,1.879Zm0,0" fill="#ee5253"/><path d="M18.141,33a13.262,13.262,0,0,0,10.1-5.22.925.925,0,0,0-.2-1.317l-9.4-6.662a.924.924,0,0,0-1.458.754V32.076a.924.924,0,0,0,.952.923Zm.015-9.2,1.849-1.849.919.651-2.768,2.768V23.8Zm0,2.938,3.569-3.569.919.651-4.488,4.488Zm6.207-1.7-6.207,6.207V29.673l5.288-5.288Zm1.719,1.219-5.421,5.421a12.331,12.331,0,0,1-1.887.316L25.163,25.6Zm-3.329,4.7,4.13-4.13.57.4a12.342,12.342,0,0,1-4.7,3.726ZM19.2,21.381,18.156,22.43V20.638Zm0,0"/><path d="M29.819,13.678a.483.483,0,1,0,.96-.116A15.43,15.43,0,1,0,15,30.853h.028a.913.913,0,0,0,.641-.261.93.93,0,0,0,.281-.664V24.212a.483.483,0,0,0-.967,0v5.673a14.463,14.463,0,0,1,0-28.91V21.956a.483.483,0,0,0,.967,0V16.365l11.068,7.843a.923.923,0,0,0,1.3-.24,15.379,15.379,0,0,0,2.569-8.078.483.483,0,1,0-.967-.028,14.41,14.41,0,0,1-2.381,7.532L15.946,15.18V.975a14.463,14.463,0,0,1,13.874,12.7Zm0,0"/></g></g></g></svg>