<svg xmlns="http://www.w3.org/2000/svg" xmlns:xlink="http://www.w3.org/1999/xlink" width="1030" height="317" viewBox="0 0 1030 317">
  <defs>
    <clipPath id="clip-path">
      <rect id="Rectángulo_34879" data-name="Rectángulo 34879" width="85" height="85" transform="translate(391 14543)" fill="#21155c" stroke="#707070" stroke-width="1"/>
    </clipPath>
    <clipPath id="clip-path-2">
      <rect id="Rectángulo_34880" data-name="Rectángulo 34880" width="85" height="85" transform="translate(575 14543)" fill="#fff" stroke="#707070" stroke-width="1"/>
    </clipPath>
    <clipPath id="clip-path-3">
      <rect id="Rectángulo_34881" data-name="Rectángulo 34881" width="85" height="85" transform="translate(758 14543)" fill="#21155c" stroke="#707070" stroke-width="1"/>
    </clipPath>
    <clipPath id="clip-path-4">
      <rect id="Rectángulo_34882" data-name="Rectángulo 34882" width="85" height="85" transform="translate(942 14543)" fill="#fff" stroke="#707070" stroke-width="1"/>
    </clipPath>
    <clipPath id="clip-path-5">
      <rect id="Rectángulo_34883" data-name="Rectángulo 34883" width="85" height="85" transform="translate(1125 14543)" fill="#fff" stroke="#707070" stroke-width="1"/>
    </clipPath>
  </defs>
  <g id="Grupo_94130" data-name="Grupo 94130" transform="translate(-285 -14435)">
    <rect id="Rectángulo_34889" data-name="Rectángulo 34889" width="1030" height="317" rx="10" transform="translate(285 14435)" fill="#e8e1fc"/>
    <g id="Grupo_94129" data-name="Grupo 94129" transform="translate(0 21)">
      <rect id="Rectángulo_34884" data-name="Rectángulo 34884" width="69.013" height="69.013" rx="5" transform="translate(415.233 14535.194) rotate(30)" fill="#ffd41c"/>
      <rect id="Rectángulo_34885" data-name="Rectángulo 34885" width="69.013" height="69.013" rx="5" transform="translate(600.233 14535.194) rotate(30)" fill="#ffd41c"/>
      <rect id="Rectángulo_34886" data-name="Rectángulo 34886" width="69.013" height="69.013" rx="5" transform="translate(783.233 14535.194) rotate(30)" fill="#ffd41c"/>
      <rect id="Rectángulo_34887" data-name="Rectángulo 34887" width="69.013" height="69.013" rx="5" transform="translate(968.233 14535.194) rotate(30)" fill="#ffd41c"/>
      <rect id="Rectángulo_34888" data-name="Rectángulo 34888" width="69.013" height="69.013" rx="5" transform="translate(1150.233 14535.194) rotate(30)" fill="#ffd41c"/>
      <g id="Enmascarar_grupo_289" data-name="Enmascarar grupo 289" clip-path="url(#clip-path)">
        <g id="outline" transform="translate(390.223 14540.026)">
          <path id="Trazado_121466" data-name="Trazado 121466" d="M28.508,27.908h0a4.254,4.254,0,0,0,.924-7.427,4.964,4.964,0,1,0-8.7-4.685,4.963,4.963,0,1,0-3.22,9.344,4.254,4.254,0,0,0,7.962,2.787,4.229,4.229,0,0,0,3.038-.019ZM24.521,15.755A2.128,2.128,0,1,1,26.07,19.72l-1.982.775-.775-1.982a2.131,2.131,0,0,1,1.208-2.757Zm-7.816,5.34a2.128,2.128,0,1,1,3.965-1.549l.775,1.982-1.322.516-.661.258A2.131,2.131,0,0,1,16.705,21.095Zm5.483,6.236a1.419,1.419,0,1,1-1.033-2.643l1.322-.516.517,1.322a1.421,1.421,0,0,1-.805,1.838Zm4.2-2.088a1.408,1.408,0,0,1-.752-.783l-.516-1.321L26,22.794l.441-.172a1.419,1.419,0,1,1-.053,2.621Z" fill="#21155c"/>
          <path id="Trazado_121467" data-name="Trazado 121467" d="M65.329,7.777A4.966,4.966,0,0,0,56.379,9.8c0,.018,0,.035-.008.053a4.964,4.964,0,1,0-.886,9.846h0a4.259,4.259,0,0,0,3.532,4.036,4.3,4.3,0,0,0,.731.063,4.227,4.227,0,0,0,2.448-.781h0a4.222,4.222,0,0,0,1.688-2.527,4.254,4.254,0,0,0,2.064-8.179,5.029,5.029,0,0,0,.217-.827,4.933,4.933,0,0,0-.839-3.709Zm-6.155,2.5a2.13,2.13,0,0,1,2.094-1.768,2.158,2.158,0,0,1,.365.031A2.128,2.128,0,0,1,62.5,12.38l-1.738,1.228L59.535,11.87a2.115,2.115,0,0,1-.36-1.588ZM53.74,15.963a2.128,2.128,0,1,1,3.476-2.456l1.228,1.738-1.738,1.228A2.131,2.131,0,0,1,53.74,15.963Zm7.4,3.819a1.409,1.409,0,0,1-.58.918h0a1.419,1.419,0,1,1-1.639-2.316l1.161-.82.819,1.159a1.409,1.409,0,0,1,.239,1.06ZM65.2,17.426a1.421,1.421,0,0,1-1.978-.34L62.4,15.927l1.159-.819A1.419,1.419,0,1,1,65.2,17.427Z" fill="#21155c"/>
          <path id="Trazado_121468" data-name="Trazado 121468" d="M10.134,57.748h0a4.235,4.235,0,0,0,2.632.913c.089,0,.178,0,.268-.009a4.255,4.255,0,0,0,8.43-.349c.089,0,.176.011.264.011a5.045,5.045,0,0,0,.592-.035A4.965,4.965,0,1,0,21.1,48.424c0-.018,0-.035,0-.053a4.965,4.965,0,1,0-9.688,2,4.258,4.258,0,0,0-1.277,7.377ZM18.341,58.8a1.419,1.419,0,0,1-2.228-1.758l.879-1.114,1.115.879a1.421,1.421,0,0,1,.234,1.992Zm4.715-7.124a2.128,2.128,0,1,1-2.636,3.342l-.555-.438h0L18.75,53.7l1.318-1.671a2.128,2.128,0,0,1,2.989-.353ZM14.5,47.635a2.115,2.115,0,0,1,1.421-.8,2.151,2.151,0,0,1,.254-.015,2.128,2.128,0,0,1,1.667,3.447l-1.318,1.671L14.85,50.625a2.128,2.128,0,0,1-.353-2.989Zm-2.84,5.892a1.419,1.419,0,0,1,1.993-.235l1.114.879-.879,1.114a1.419,1.419,0,1,1-2.228-1.758Z" fill="#21155c"/>
          <path id="Trazado_121469" data-name="Trazado 121469" d="M49.663,51.081V39.73a4.257,4.257,0,0,0-8.514,0V51.081a4.257,4.257,0,0,0,8.514,0Zm-5.676,0V39.73a1.419,1.419,0,1,1,2.838,0V51.081a1.419,1.419,0,1,1-2.838,0Z" fill="#21155c"/>
          <path id="Trazado_121470" data-name="Trazado 121470" d="M64.269,33.4,48.947,30.453A9.928,9.928,0,0,0,35.473,39.73V51.081a9.945,9.945,0,0,0,5.676,8.972v26.5a1.419,1.419,0,0,0,1.419,1.419h5.676a1.419,1.419,0,0,0,1.419-1.419V60.222l16.8-3.231h0L75.6,55.235a10.008,10.008,0,0,0,0-19.656L64.276,33.4Zm6.421,4.125-1.951,4.388-1.994-4.488.27-.607ZM67.014,53.995l-.27-.607L68.739,48.9l1.951,4.388ZM58.667,55.6l2.978-6.7,1.994,4.488-.611,1.374Zm-4.98.958a9.873,9.873,0,0,0,1.652-5.476V39.73a9.873,9.873,0,0,0-1.651-5.476l1.584.3,4.821,10.847L55.271,56.253ZM63.2,45.406l1.994-4.487,1.994,4.487-1.994,4.487Zm7.095,0,1.995-4.487,1.994,4.487-1.994,4.487Zm-6.653-7.981-1.995,4.487-2.978-6.7,4.362.839ZM38.311,51.081V39.73a7.095,7.095,0,0,1,14.189,0V51.081a7.095,7.095,0,0,1-14.189,0Zm7.095,9.933a9.958,9.958,0,0,0,1.419-.1v1.522H43.987V60.911a9.958,9.958,0,0,0,1.419.1Zm1.419,24.122H43.987V65.271h2.838ZM75.063,52.447l-.881.169L75.834,48.9l1.257,2.827A7.139,7.139,0,0,1,75.063,52.447Zm5.816-7.041a7.152,7.152,0,0,1-1.528,4.417l-1.964-4.417,1.964-4.418a7.152,7.152,0,0,1,1.529,4.418Zm-3.788-6.321-1.257,2.827L74.182,38.2l.881.169A7.139,7.139,0,0,1,77.091,39.085Z" fill="#21155c"/>
          <path id="Trazado_121471" data-name="Trazado 121471" d="M56.757,63.852a1.419,1.419,0,1,0,0,2.838h1.419a1.419,1.419,0,1,0,0-2.838Z" fill="#21155c"/>
          <path id="Trazado_121472" data-name="Trazado 121472" d="M63.852,63.852a1.419,1.419,0,1,0,0,2.838h5.676a1.419,1.419,0,1,0,0-2.838Z" fill="#21155c"/>
          <path id="Trazado_121473" data-name="Trazado 121473" d="M9.933,42.568a1.421,1.421,0,0,1,1.419-1.419,1.419,1.419,0,0,0,0-2.838,4.262,4.262,0,0,0-4.257,4.257,1.419,1.419,0,1,0,2.838,0Z" fill="#21155c"/>
          <path id="Trazado_121474" data-name="Trazado 121474" d="M4.257,41.149A1.419,1.419,0,0,0,5.676,39.73a1.421,1.421,0,0,1,1.419-1.419,1.419,1.419,0,0,0,0-2.838A4.262,4.262,0,0,0,2.838,39.73,1.419,1.419,0,0,0,4.257,41.149Z" fill="#21155c"/>
          <path id="Trazado_121475" data-name="Trazado 121475" d="M32.192,12.725A1.419,1.419,0,0,0,33.211,11a4.262,4.262,0,0,0-5.187-3.055,1.419,1.419,0,1,0,.709,2.748,1.419,1.419,0,0,1,1.73,1.017,1.417,1.417,0,0,0,1.729,1.018Z" fill="#21155c"/>
          <path id="Trazado_121476" data-name="Trazado 121476" d="M33.873,7.893a1.419,1.419,0,0,0,1.018-1.729A4.262,4.262,0,0,0,29.7,3.109a1.419,1.419,0,1,0,.711,2.748,1.419,1.419,0,0,1,1.729,1.018,1.418,1.418,0,0,0,1.729,1.018Z" fill="#21155c"/>
          <path id="Trazado_121477" data-name="Trazado 121477" d="M71.487,18.277a1.419,1.419,0,0,0,2.006.061,4.262,4.262,0,0,0,.183-6.017,1.419,1.419,0,1,0-2.067,1.945,1.42,1.42,0,0,1-.061,2.006A1.419,1.419,0,0,0,71.487,18.277Z" fill="#21155c"/>
          <path id="Trazado_121478" data-name="Trazado 121478" d="M77.534,18a1.419,1.419,0,0,0,2.006.061,4.257,4.257,0,0,0,.183-6.017,1.419,1.419,0,1,0-2.067,1.945,1.419,1.419,0,0,1-.061,2.006A1.419,1.419,0,0,0,77.534,18Z" fill="#21155c"/>
        </g>
      </g>
      <g id="Enmascarar_grupo_293" data-name="Enmascarar grupo 293" clip-path="url(#clip-path-2)">
        <g id="win" transform="translate(575 14543)">
          <g id="Grupo_94118" data-name="Grupo 94118">
            <g id="Grupo_94117" data-name="Grupo 94117">
              <path id="Trazado_121482" data-name="Trazado 121482" d="M17.315,74.441a1.66,1.66,0,0,0-1.66,1.66v7.225a1.66,1.66,0,0,0,3.32,0V76.1A1.66,1.66,0,0,0,17.315,74.441Z"/>
            </g>
          </g>
          <g id="Grupo_94120" data-name="Grupo 94120">
            <g id="Grupo_94119" data-name="Grupo 94119">
              <path id="Trazado_121483" data-name="Trazado 121483" d="M77.062,43.05H73.987a7.612,7.612,0,0,0,1.355-4.342v-1.09a7.657,7.657,0,0,0-15.313,0v1.09a7.608,7.608,0,0,0,1.2,4.109A13.27,13.27,0,0,1,50.438,29.8v-.785a4.8,4.8,0,0,0-6.278-4.565V16.065L61.327,9.848a1.66,1.66,0,0,0,0-3.122L43.065.113A1.66,1.66,0,0,0,40.84,1.674V24.449a4.8,4.8,0,0,0-6.278,4.565V29.8A13.27,13.27,0,0,1,23.77,42.818a7.608,7.608,0,0,0,1.2-4.109v-1.09a7.657,7.657,0,0,0-15.313,0v1.09a7.612,7.612,0,0,0,1.355,4.342H7.938A7.947,7.947,0,0,0,0,50.988V69.877a5.237,5.237,0,0,0,5.231,5.231,1.66,1.66,0,0,0,0-3.32,1.913,1.913,0,0,1-1.91-1.91V50.988A4.623,4.623,0,0,1,7.938,46.37H21.311A16.59,16.59,0,0,0,37.882,29.8v-.785a1.466,1.466,0,0,1,.452-1.064,1.482,1.482,0,0,1,1.082-.413A1.531,1.531,0,0,1,40.84,29.09v.71A19.558,19.558,0,0,1,26.345,48.671a1.66,1.66,0,0,0-1.232,1.6V65.892H9.6V51.782a1.66,1.66,0,0,0-3.32,0v15.77a1.66,1.66,0,0,0,1.66,1.66h.2V83.326a1.66,1.66,0,0,0,3.32,0V69.212H23.2V83.326a1.66,1.66,0,0,0,3.32,0V69.212h.251a1.66,1.66,0,0,0,1.66-1.66V51.512A22.863,22.863,0,0,0,40.84,41.644V59.16a1.66,1.66,0,0,0,3.32,0V41.644a22.862,22.862,0,0,0,12.407,9.868v16.04a1.66,1.66,0,0,0,1.66,1.66h.251V83.326a1.66,1.66,0,0,0,3.32,0V69.212H73.546V83.326a1.66,1.66,0,0,0,3.32,0V69.212h.2a1.66,1.66,0,0,0,1.66-1.66V51.782a1.66,1.66,0,1,0-3.32,0v14.11H59.887V50.275a1.66,1.66,0,0,0-1.232-1.6A19.558,19.558,0,0,1,44.16,29.8v-.71a1.531,1.531,0,0,1,1.424-1.553,1.479,1.479,0,0,1,1.534,1.478V29.8A16.59,16.59,0,0,0,63.689,46.37H77.062a4.623,4.623,0,0,1,4.618,4.618v2.843a1.66,1.66,0,1,0,3.32,0V50.988A7.947,7.947,0,0,0,77.062,43.05ZM44.16,7.291V4.04L55.886,8.287,44.16,12.534ZM21.651,38.708a4.336,4.336,0,0,1-8.673,0v-1.09a4.336,4.336,0,0,1,8.673,0Zm50.37,0a4.336,4.336,0,0,1-8.673,0v-1.09a4.336,4.336,0,0,1,8.673,0Z"/>
            </g>
          </g>
          <g id="Grupo_94122" data-name="Grupo 94122">
            <g id="Grupo_94121" data-name="Grupo 94121">
              <path id="Trazado_121484" data-name="Trazado 121484" d="M84.514,59.3A1.659,1.659,0,1,0,85,60.47,1.673,1.673,0,0,0,84.514,59.3Z"/>
            </g>
          </g>
          <g id="Grupo_94124" data-name="Grupo 94124">
            <g id="Grupo_94123" data-name="Grupo 94123">
              <path id="Trazado_121485" data-name="Trazado 121485" d="M83.34,65.231a1.66,1.66,0,0,0-1.66,1.66v2.986a1.912,1.912,0,0,1-1.91,1.91,1.66,1.66,0,0,0,0,3.32A5.237,5.237,0,0,0,85,69.877V66.891A1.66,1.66,0,0,0,83.34,65.231Z"/>
            </g>
          </g>
          <g id="Grupo_94126" data-name="Grupo 94126">
            <g id="Grupo_94125" data-name="Grupo 94125">
              <path id="Trazado_121486" data-name="Trazado 121486" d="M67.685,74.441a1.66,1.66,0,0,0-1.66,1.66v7.225a1.66,1.66,0,0,0,3.32,0V76.1A1.66,1.66,0,0,0,67.685,74.441Z"/>
            </g>
          </g>
          <g id="Grupo_94128" data-name="Grupo 94128">
            <g id="Grupo_94127" data-name="Grupo 94127">
              <path id="Trazado_121487" data-name="Trazado 121487" d="M43.674,64a1.659,1.659,0,1,0,.486,1.174A1.672,1.672,0,0,0,43.674,64Z"/>
            </g>
          </g>
        </g>
      </g>
      <g id="Enmascarar_grupo_290" data-name="Enmascarar grupo 290" clip-path="url(#clip-path-3)">
        <path id="equipo" d="M85,35.645H81.919l-4.592,2.416a6.816,6.816,0,0,0-1.634-.672l-5.776-1.445v-.657a9.628,9.628,0,0,0,4.114-7.868v-2.4a9.85,9.85,0,0,0-9.3-9.938c-.26-.007-.517,0-.775.015l1.5-3.506-7.26-7.258-4.28,2.785a23.19,23.19,0,0,0-5.132-2.129L47.725,0H37.276L36.219,4.995a23.163,23.163,0,0,0-5.132,2.129l-4.28-2.785-7.254,7.254L21.026,15.1c-.056,0-.11-.013-.166-.014a9.6,9.6,0,0,0-9.893,9.591v2.742a9.624,9.624,0,0,0,4.113,7.866v.658l-3.767.942L4.484,32.9H0V61.311l13.487,4.5h2.627l.328-1.149,4.134,2.482a4.268,4.268,0,0,0,4.116,4.136,4.268,4.268,0,0,0,4.113,4.113A4.268,4.268,0,0,0,32.919,79.5a4.264,4.264,0,0,0,6.667,3.385L40.8,83.958A4.174,4.174,0,0,0,43.558,85h.254a4.174,4.174,0,0,0,4.166-4.118,4.17,4.17,0,0,0,4.113-4.113A4.17,4.17,0,0,0,56.2,72.652a4.216,4.216,0,0,0,4.118-4.207,4.014,4.014,0,0,0-.021-.411L85,55.686ZM71.29,25.023v2.4a6.881,6.881,0,0,1-3.431,5.932l-.685.4.005,4.338L74.028,39.8,58.952,47.733V44.04a6.821,6.821,0,0,0-1.963-4.778l4.705-1.175V33.745l-.684-.4a6.874,6.874,0,0,1-3.429-5.93V24.677a6.855,6.855,0,0,1,7.067-6.851,7.088,7.088,0,0,1,6.643,7.2ZM44.567,46.655l-6.206-1.983a16.93,16.93,0,0,0-8.785-.4l-.786.174V44.04a4.11,4.11,0,0,1,3.115-3.991l7.853-1.962V33.745l-.684-.4a6.874,6.874,0,0,1-3.429-5.93V24.677a6.855,6.855,0,0,1,7.067-6.851,7.088,7.088,0,0,1,6.643,7.2v2.4a6.881,6.881,0,0,1-3.431,5.932l-.685.4.005,4.338,7.852,1.962A4.11,4.11,0,0,1,56.21,44.04v5.137l-.339.178h-.84L46.6,46.946a8.642,8.642,0,0,0-2.035-.291ZM29.1,20.519a15.07,15.07,0,0,1,26.749-.11,9.535,9.535,0,0,0-1.007,4.269v2.742a9.624,9.624,0,0,0,4.113,7.866v.658l-5.484,1.373-5.485-1.373v-.657A9.628,9.628,0,0,0,52.1,27.419v-2.4a9.85,9.85,0,0,0-9.3-9.938A9.6,9.6,0,0,0,32.9,24.677v2.742a9.624,9.624,0,0,0,4.113,7.866v.658l-5.484,1.373-5.485-1.373v-.657a9.628,9.628,0,0,0,4.114-7.868v-2.4a10.1,10.1,0,0,0-1.064-4.5Zm-6.305-8.291,4.38-4.38,3.855,2.509.738-.453A20.458,20.458,0,0,1,37.7,7.442l.843-.2.954-4.5h6l.951,4.5.843.2A20.478,20.478,0,0,1,53.233,9.9l.738.453,3.855-2.509L62.2,12.222l-1.555,3.641a9.583,9.583,0,0,0-2.894,1.924c-.056.055-.1.114-.159.17a17.8,17.8,0,0,0-30.238.082A9.67,9.67,0,0,0,24.331,15.9Zm-4.97,25.859V33.745l-.684-.4a6.874,6.874,0,0,1-3.429-5.93V24.677a6.855,6.855,0,0,1,7.067-6.851,7.088,7.088,0,0,1,6.643,7.2v2.4a6.881,6.881,0,0,1-3.431,5.932l-.685.4.005,4.338,4.7,1.175a6.821,6.821,0,0,0-1.963,4.778v1.016l-4.276.951.111-.388.052-2.534L14.7,38.866ZM2.742,35.645h1L13.6,41.4,8.626,61.3,2.742,59.334Zm11.19,27.419-2.7-.9,4.833-19.331,3.127,1.823v.392L14.047,63.064Zm9.375,3.947a1.548,1.548,0,0,1,.45-1.087l2.41-2.41a1.537,1.537,0,0,1,2.174,2.174L25.93,68.1a1.537,1.537,0,0,1-2.624-1.087Zm4.113,4.113a1.548,1.548,0,0,1,.45-1.087l2.41-2.41A1.537,1.537,0,0,1,32.453,69.8l-2.41,2.41a1.537,1.537,0,0,1-2.624-1.087Zm4.113,4.113a1.547,1.547,0,0,1,.45-1.087l2.41-2.41a1.537,1.537,0,0,1,2.174,2.174l-2.41,2.41a1.537,1.537,0,0,1-2.624-1.087Zm5.65,5.65a1.537,1.537,0,0,1-1.087-2.624l2.41-2.41a1.537,1.537,0,0,1,2.174,2.174l-2.41,2.41A1.548,1.548,0,0,1,37.182,80.887Zm6.63,1.371h-.254a1.421,1.421,0,0,1-.945-.358L41.588,81l1.03-1.03a4.263,4.263,0,0,0,.864-1.274l1.246,1.038a1.43,1.43,0,0,1-.916,2.528ZM56.106,69.919h-.237a1.471,1.471,0,0,1-.943-.343l-7.435-6.2-1.757,2.107,7.22,6.015a1.431,1.431,0,0,1-.917,2.528h-.3a1.43,1.43,0,0,1-.914-.332l-7.447-6.2L41.621,69.6l7.22,6.016a1.429,1.429,0,0,1-.916,2.526,2.264,2.264,0,0,1-1.443-.522l-3.06-2.55a4.265,4.265,0,0,0-3.681-2.4,4.268,4.268,0,0,0-4.113-4.113,4.268,4.268,0,0,0-4.113-4.113,4.269,4.269,0,0,0-7.288-2.875l-2.41,2.41a4.226,4.226,0,0,0-.384.469l-4.211-2.527,3.692-12.921,9.255-2.058a14.123,14.123,0,0,1,7.356.333l2.02.646L32.7,51.351a4.57,4.57,0,0,0-2.536,4.108v.271a4.591,4.591,0,0,0,6.955,3.938l5.1-3.061a2.83,2.83,0,0,1,3.288.317L57.093,67.347a1.476,1.476,0,0,1-.986,2.572ZM82.258,53.991l-23.1,11.549c-.075-.08-.153-.155-.236-.229L47.344,54.887a5.517,5.517,0,0,0-6.534-.632L35.7,57.317a1.849,1.849,0,0,1-2.8-1.588v-.271A1.839,1.839,0,0,1,33.926,53.8l7.647-3.824a5.959,5.959,0,0,1,4.273-.4l8.615,2.461,2.087.052,25.71-13.532Zm0,0" transform="translate(758 14543)" fill="#21155c"/>
      </g>
      <g id="Enmascarar_grupo_291" data-name="Enmascarar grupo 291" clip-path="url(#clip-path-4)">
        <g id="cooperacion" transform="translate(942 14543)">
          <g id="Grupo_94116" data-name="Grupo 94116">
            <path id="Trazado_121479" data-name="Trazado 121479" d="M80.982,28.781,58.648,42.094A3.906,3.906,0,0,0,57,46.835a4.175,4.175,0,0,1-3.131.043l-2.889-1.135a5.852,5.852,0,0,0-3.6-.228l-4.427,1.12q-.257.065-.5.152c-2.7-1.544-4.315-2.005-7.169-.9l-2.562.99a4.186,4.186,0,0,1-3.665-.306l-.856-.5a3.906,3.906,0,0,0-1.851-3.971L4.018,28.781A2.657,2.657,0,0,0,0,31.064V55.995a4.935,4.935,0,0,0,2.4,4.22l9.751,5.813a3.9,3.9,0,0,0,5.275-1.242l.417.246-1.264,1.761A4.381,4.381,0,0,0,20.9,73.661,4.378,4.378,0,0,0,26,77.317a4.38,4.38,0,0,0,6.14,3.338,4.383,4.383,0,0,0,7.527,1.258l3.275,1.94a4.382,4.382,0,0,0,6.6-3.383l.128.076A4.386,4.386,0,0,0,56.276,77a4.389,4.389,0,0,0,5.542-3.88,4.382,4.382,0,0,0,4.991-6.937l1.284-.75a3.9,3.9,0,0,0,4.76.6l2.357-1.405a1.245,1.245,0,0,0-1.275-2.139l-2.357,1.405a1.407,1.407,0,0,1-1.669-.169c-.008-.07-10.475-17.561-10.475-17.561a1.409,1.409,0,0,1,.49-1.925L82.257,30.92a.166.166,0,0,1,.253.143V55.995a2.434,2.434,0,0,1-1.182,2.081l-2.354,1.4a1.245,1.245,0,1,0,1.275,2.139l2.354-1.4a4.935,4.935,0,0,0,2.4-4.22V31.064a2.657,2.657,0,0,0-4.018-2.283ZM48,47.929a3.38,3.38,0,0,1,2.077.131l2.9,1.138a6.654,6.654,0,0,0,5.262-.183l8.49,14.33-1.376.8a6.668,6.668,0,0,0-.718.491L46.47,53.888a1.245,1.245,0,0,0-1.879,1.071v.25a3.314,3.314,0,0,1-3.314,3.315.278.278,0,0,1-.271-.271V52.344a3.4,3.4,0,0,1,1.824-3.012,1.246,1.246,0,0,0,.16-.078,3.423,3.423,0,0,1,.581-.2ZM14.491,64.043a1.4,1.4,0,0,1-1.067-.155L3.672,58.075A2.433,2.433,0,0,1,2.49,55.995V31.064a.153.153,0,0,1,.085-.145.169.169,0,0,1,.084-.024.159.159,0,0,1,.084.026L25.077,44.233a1.409,1.409,0,0,1,.49,1.925L15.354,63.4a1.4,1.4,0,0,1-.863.646Zm5.95,7.17A1.891,1.891,0,0,1,18.6,68.245l1.776-2.474a1.893,1.893,0,0,1,.139-.171,1.251,1.251,0,0,0,.105-.107,1.891,1.891,0,0,1,2.829,2.483l0,0-1.774,2.47a1.878,1.878,0,0,1-1.23.763Zm3.686,3.328a1.891,1.891,0,0,1-.433-2.639l1.776-2.474h0l1.96-2.731a1.879,1.879,0,0,1,1.23-.763,1.906,1.906,0,0,1,.31-.025A1.892,1.892,0,0,1,30.5,68.9l-3.737,5.205A1.894,1.894,0,0,1,24.127,74.541Zm6.5,3.988a1.891,1.891,0,0,1-1.842-2.969l0,0,3.734-5.2A1.891,1.891,0,1,1,35.6,72.56l-3.737,5.205a1.879,1.879,0,0,1-1.23.763Zm4.52,2.167a1.891,1.891,0,0,1-.433-2.639l0-.005,1.24-1.728a1.891,1.891,0,0,1,3.071,2.208l-.711.99-.022.031-.51.711a1.893,1.893,0,0,1-2.639.433Zm30-10.653a1.894,1.894,0,0,1-2.592.663L59.68,69l0,0-8.915-5.282a1.245,1.245,0,1,0-1.269,2.142l8.919,5.284h0a1.892,1.892,0,0,1-1.93,3.254l-2.346-1.39-.006,0,0,0-6.568-3.891a1.245,1.245,0,1,0-1.269,2.142l6.568,3.891,0,0A1.892,1.892,0,0,1,50.933,78.4l-3.521-2.086-.007,0-2.575-1.526A1.245,1.245,0,1,0,43.56,76.93l2.575,1.526,0,0a1.892,1.892,0,0,1-1.932,3.254l-3.082-1.826a4.38,4.38,0,0,0-3-6.791A4.38,4.38,0,0,0,33.3,67.146,4.38,4.38,0,0,0,25.772,64.8a4.38,4.38,0,0,0-6.194-1.637l-.883-.521,8.471-14.3.626.369a6.662,6.662,0,0,0,5.83.485l2.562-.99a4.032,4.032,0,0,1,3.9.132,5.88,5.88,0,0,0-1.569,4v5.909a2.763,2.763,0,0,0,2.757,2.761h0a5.815,5.815,0,0,0,5.531-4.033L64.15,67.251a1.235,1.235,0,0,0,.177.087,1.26,1.26,0,0,0,.161.113A1.894,1.894,0,0,1,65.15,70.043Z"/>
            <path id="Trazado_121480" data-name="Trazado 121480" d="M28.227,32.979H56.773a4.692,4.692,0,0,0,4.687-4.687V11.308a4.692,4.692,0,0,0-4.687-4.687H49.9V4.648A4.117,4.117,0,0,0,45.789.536H39.21A4.117,4.117,0,0,0,35.1,4.648V6.621H28.227a4.692,4.692,0,0,0-4.687,4.687v9.356a1.245,1.245,0,0,0,2.49,0V18.35a7.452,7.452,0,0,0,4.992,1.913H32v1.37a1.245,1.245,0,1,0,2.49,0v-1.37H50.513v1.37a1.245,1.245,0,1,0,2.49,0v-1.37h.974a7.452,7.452,0,0,0,4.992-1.913v9.942a2.2,2.2,0,0,1-2.2,2.2H28.227a2.2,2.2,0,0,1-2.2-2.2V26.485a1.245,1.245,0,1,0-2.49,0v1.807a4.692,4.692,0,0,0,4.687,4.687ZM37.589,4.648a1.624,1.624,0,0,1,1.621-1.622H45.79a1.624,1.624,0,0,1,1.621,1.622V6.621H37.589V4.648ZM53.978,17.773H53V16.4a1.245,1.245,0,1,0-2.49,0v1.37H34.487V16.4a1.245,1.245,0,1,0-2.49,0v1.37h-.975a5,5,0,0,1-4.992-4.992V11.308a2.2,2.2,0,0,1,2.2-2.2H56.773a2.2,2.2,0,0,1,2.2,2.2v1.473a5,5,0,0,1-4.992,4.992Z"/>
          </g>
        </g>
      </g>
      <g id="Enmascarar_grupo_292" data-name="Enmascarar grupo 292" clip-path="url(#clip-path-5)">
        <g id="guante-de-beisbol" transform="translate(1125 14543)">
          <path id="Trazado_121481" data-name="Trazado 121481" d="M75.9,9.319a5.9,5.9,0,0,0-9.809-2.932,5.98,5.98,0,0,0-5.939-3.355,6.079,6.079,0,0,0-3.473,1.553A5.986,5.986,0,0,0,50.77,1.3a6.068,6.068,0,0,0-3.554,1.614,6.02,6.02,0,0,0-5.7-2.892,5.854,5.854,0,0,0-5.163,4.553c-8.814.455-14.685,2.574-17.824,4.082a6.049,6.049,0,0,0-5.634-1.509A6.19,6.19,0,0,0,8.227,13.9C8.872,22.95,11.5,45.72,21.943,61.58a32.593,32.593,0,0,1,5.3,15.762,6.6,6.6,0,0,0,4.406,5.7c6.741,2.348,18.421,3.295,27.969-1.3a6.543,6.543,0,0,0,3.585-4.56c.88-4.126,1.271-7.343,3.268-11.05a80.054,80.054,0,0,0,4.617-10.27A1.245,1.245,0,0,0,68.749,55a77.54,77.54,0,0,1-4.472,9.95,24.628,24.628,0,0,0-2.062,5.137A39.7,39.7,0,0,1,47.79,73.677a1.245,1.245,0,1,0,.112,2.487A41.616,41.616,0,0,0,61.528,73.1l-.762,3.569a4.069,4.069,0,0,1-2.23,2.836c-8.98,4.321-20.006,3.3-26.071,1.192a4.108,4.108,0,0,1-2.743-3.55,39.634,39.634,0,0,0-.953-6.08A36.448,36.448,0,0,0,41.858,75.9a1.245,1.245,0,0,0,.356-2.464,35.8,35.8,0,0,1-14.556-6.026,34.886,34.886,0,0,0-3.635-7.2C13.9,44.841,11.342,22.578,10.711,13.72a3.731,3.731,0,0,1,2.73-4.139,3.54,3.54,0,0,1,4.438,3.2c.913,9.29,3.266,21.262,8.448,28.988a5.214,5.214,0,0,0,2.9,2.11c-.027.4-.042.857-.042,1.2a17.265,17.265,0,1,0,33.705-5.3,1.243,1.243,0,0,0,1.689-.842c1.786-7.075,2.256-15.806,2.337-21.857l.5.381a1.245,1.245,0,1,0,1.5-1.986L67.769,14.6l1.157-.874a1.245,1.245,0,1,0-1.5-1.986l-.517.391c-.021-1.089-.049-1.842-.062-2.163a3.352,3.352,0,0,1,3.034-2.711A3.409,3.409,0,0,1,73.445,9.75a98.484,98.484,0,0,1-2.9,39.805,1.245,1.245,0,1,0,2.39.7A101.424,101.424,0,0,0,76.79,21.7,81.936,81.936,0,0,0,75.9,9.319ZM48.671,13.053l.259.2a1.245,1.245,0,0,0,1.5-1.986l-1.157-.874,1.157-.874a1.245,1.245,0,0,0-1.5-1.986L48.31,8c-.1-.942-.187-1.624-.239-1.988A3.569,3.569,0,0,1,51,3.782a3.406,3.406,0,0,1,3.606,2.437c.1.533.2,1.1.3,1.672.012.191.051.85.089,1.881l-.39-.295a1.245,1.245,0,1,0-1.5,1.986l1.157.874-1.157.874a1.245,1.245,0,1,0,1.5,1.986l.47-.356a118.262,118.262,0,0,1-.939,14.787,17.13,17.13,0,0,0-6.217-1.746,78.014,78.014,0,0,0,.745-14.829ZM41.748,2.5a3.408,3.408,0,0,1,3.606,2.437,26.1,26.1,0,0,1,.418,2.8l-.284-.214a1.245,1.245,0,1,0-1.5,1.986l1.157.874-1.157.874a1.245,1.245,0,1,0,1.5,1.986l.664-.5a75.907,75.907,0,0,1-.743,15.1A17.189,17.189,0,0,0,39.021,29.5c1.055-7.41.641-15.681-.282-23.138A3.364,3.364,0,0,1,41.748,2.5ZM37.079,16.238q-1.065.068-2.073.166l-1.265-1.786q1.538-.191,3.239-.309.059.977.1,1.93Zm-16.387-.717c-.393-3.118-.3-3.589-.767-4.768A44.648,44.648,0,0,1,36.318,7.074c.179,1.463.351,3.13.485,4.749-1.672.113-3.232.286-4.682.5l-.218-.308a1.245,1.245,0,0,0-2.261.737c-1.629.322-3.092.695-4.392,1.085L25,13.485a1.244,1.244,0,0,0-2.177,1.167C22.025,14.948,21.314,15.242,20.692,15.521ZM32.2,16.746c-1.559.229-2.993.509-4.31.821l-1.117-1.578c1.255-.349,2.659-.677,4.215-.955ZM21.051,18.1a31.644,31.644,0,0,1,3.224-1.327l1.048,1.48A37.855,37.855,0,0,0,21.306,19.7q-.137-.816-.255-1.6Zm1.762,8.768c-.366-1.419-.725-3-1.049-4.648a36.01,36.01,0,0,1,5.089-1.805l.311.439a1.244,1.244,0,0,0,2.213-1.06c1.347-.291,2.828-.55,4.447-.752l.528.746a1.244,1.244,0,0,0,2.223-1.02c.189-.014.378-.028.571-.041.023,1.659,0,3.267-.074,4.805-1.849.162-3.554.4-5.118.68l-.248-.35a1.245,1.245,0,0,0-2.252.868c-1.271.3-2.429.624-3.477.962l-.19-.268a1.245,1.245,0,0,0-2.193,1.122c-.27.108-.531.214-.78.321Zm14.095-.82q-.088,1.015-.206,1.988-.965.107-1.873.239L33.55,26.468C34.606,26.3,35.724,26.16,36.908,26.048Zm-4.8,2.692c-1.229.244-2.364.516-3.406.8l-1.213-1.714c1.019-.306,2.139-.6,3.365-.862Zm-8.046,2.385q-.3-.912-.577-1.835c.471-.207.985-.418,1.542-.629L26.2,30.316c-.785.27-1.5.542-2.137.808Zm5.525,10.248a3.073,3.073,0,0,1-1.455-1.4q.989-.351,2.04-.659A17.07,17.07,0,0,0,29.587,41.373Zm-2.732-3.584A40.537,40.537,0,0,1,24.9,33.471c.8-.338,1.737-.689,2.8-1.032l.535.756a1.245,1.245,0,1,0,2-1.483c1.057-.268,2.207-.517,3.454-.735l.464.656a1.241,1.241,0,0,0,.867.517,17.334,17.334,0,0,0-3.482,4.221,42.5,42.5,0,0,0-4.686,1.418Zm9.224,15.679.107.062a14.891,14.891,0,0,1-.923,1.19,14.75,14.75,0,0,1,0-19.272,14.882,14.882,0,0,1,.923,1.19l-.107.062a1.245,1.245,0,1,0,1.245,2.156l.114-.066q.295.625.528,1.275l-.127.034a1.245,1.245,0,1,0,.644,2.405l.125-.034q.12.676.176,1.368h-.125a1.245,1.245,0,0,0,0,2.49h.125q-.057.691-.176,1.368l-.125-.034a1.245,1.245,0,1,0-.645,2.405l.127.034q-.234.65-.528,1.275l-.114-.066a1.245,1.245,0,1,0-1.244,2.156Zm10.375,6.391a14.707,14.707,0,0,1-9.41-3.393,17.356,17.356,0,0,0,1.309-1.685l.191.11a1.245,1.245,0,1,0,1.245-2.156l-.187-.108a17,17,0,0,0,.778-1.878l.208.056a1.245,1.245,0,0,0,.644-2.405l-.212-.057a17.36,17.36,0,0,0,.261-2.014h.223a1.245,1.245,0,1,0,0-2.49h-.223a17.366,17.366,0,0,0-.261-2.014l.212-.057a1.245,1.245,0,1,0-.645-2.405l-.208.056A17,17,0,0,0,39.6,37.54l.187-.108a1.245,1.245,0,1,0-1.245-2.156l-.191.11A17.358,17.358,0,0,0,37.044,33.7a14.741,14.741,0,0,1,18.82,0,17.356,17.356,0,0,0-1.309,1.685l-.191-.11a1.245,1.245,0,0,0-1.245,2.156l.187.108a17,17,0,0,0-.778,1.878l-.208-.056a1.245,1.245,0,1,0-.645,2.405l.212.057a17.36,17.36,0,0,0-.261,2.014H51.4a1.245,1.245,0,0,0,0,2.49h.223a17.365,17.365,0,0,0,.261,2.014l-.212.057a1.245,1.245,0,1,0,.644,2.405l.208-.056a17,17,0,0,0,.778,1.878l-.187.108a1.245,1.245,0,1,0,1.245,2.156l.191-.11a17.377,17.377,0,0,0,1.309,1.685,14.706,14.706,0,0,1-9.41,3.393ZM57.645,54.72a14.85,14.85,0,0,1-.923-1.19l.107-.062a1.245,1.245,0,0,0-1.245-2.156l-.114.066q-.295-.624-.528-1.275l.127-.034a1.245,1.245,0,0,0-.645-2.405L54.3,47.7q-.12-.676-.176-1.368h.125a1.245,1.245,0,1,0,0-2.49h-.125q.057-.691.176-1.368l.125.034a1.245,1.245,0,0,0,.644-2.405l-.127-.034q.234-.65.528-1.275l.114.066A1.245,1.245,0,0,0,56.829,36.7l-.107-.062a14.883,14.883,0,0,1,.923-1.19,14.747,14.747,0,0,1,0,19.272Zm4.591-16.66a17.292,17.292,0,0,0-5.773-7.036,118.926,118.926,0,0,0,1.107-16.19l.481.364a1.245,1.245,0,1,0,1.5-1.986L58.4,12.337l1.157-.874a1.245,1.245,0,1,0-1.5-1.986L57.5,9.9c-.034-.992-.072-1.689-.091-2.019a3.523,3.523,0,0,1,2.978-2.365A3.408,3.408,0,0,1,63.99,7.948c.127.653.249,1.344.364,2.055.009.222.036.951.056,2.063l-.427-.323a1.245,1.245,0,0,0-1.5,1.986l1.157.874-1.157.874a1.245,1.245,0,1,0,1.5,1.986l.434-.328C64.331,23,63.881,31.365,62.236,38.06Z"/>
        </g>
      </g>
      <path id="Trazado_122981" data-name="Trazado 122981" d="M28.906,15.117h4.977V17h-7.32V5.625h2.344Zm10.063,2.039a4.15,4.15,0,0,1-3.027-1.141,4.054,4.054,0,0,1-1.168-3.039v-.219a5.106,5.106,0,0,1,.492-2.277A3.612,3.612,0,0,1,36.66,8.934a3.914,3.914,0,0,1,2.059-.543,3.508,3.508,0,0,1,2.73,1.094,4.444,4.444,0,0,1,1,3.1v.922H37.063a2.1,2.1,0,0,0,.66,1.328,2,2,0,0,0,1.395.5,2.437,2.437,0,0,0,2.039-.945l1.109,1.242a3.389,3.389,0,0,1-1.375,1.121A4.511,4.511,0,0,1,38.969,17.156Zm-.258-6.945a1.411,1.411,0,0,0-1.09.455,2.357,2.357,0,0,0-.535,1.3h3.141v-.181a1.681,1.681,0,0,0-.406-1.165A1.456,1.456,0,0,0,38.711,10.211ZM48.625,17a2.507,2.507,0,0,1-.227-.758,2.732,2.732,0,0,1-2.133.914,3,3,0,0,1-2.059-.719,2.312,2.312,0,0,1-.816-1.812,2.389,2.389,0,0,1,1-2.062,4.915,4.915,0,0,1,2.879-.727H48.3v-.484a1.393,1.393,0,0,0-.3-.937,1.183,1.183,0,0,0-.949-.352,1.345,1.345,0,0,0-.895.273.929.929,0,0,0-.324.75H43.578a2.268,2.268,0,0,1,.453-1.359,3,3,0,0,1,1.281-.98,4.669,4.669,0,0,1,1.859-.355,3.689,3.689,0,0,1,2.48.785,2.747,2.747,0,0,1,.918,2.207v3.664a4.041,4.041,0,0,0,.336,1.82V17Zm-1.867-1.57a1.945,1.945,0,0,0,.922-.223,1.462,1.462,0,0,0,.625-.6V13.156h-.844q-1.7,0-1.8,1.172l-.008.133a.9.9,0,0,0,.3.7A1.153,1.153,0,0,0,46.758,15.43Zm5.2-2.719a5.094,5.094,0,0,1,.887-3.148,2.877,2.877,0,0,1,2.426-1.172,2.589,2.589,0,0,1,2.039.922V5H59.57V17H57.531l-.109-.9a2.657,2.657,0,0,1-2.172,1.055,2.869,2.869,0,0,1-2.395-1.176A5.258,5.258,0,0,1,51.953,12.711Zm2.258.168a3.337,3.337,0,0,0,.414,1.823,1.349,1.349,0,0,0,1.2.634,1.511,1.511,0,0,0,1.477-.884V11.111a1.489,1.489,0,0,0-1.461-.884Q54.211,10.227,54.211,12.879ZM11.117,35.336a1.481,1.481,0,0,0,1.016-.344,1.2,1.2,0,0,0,.406-.914h2.117a2.9,2.9,0,0,1-.469,1.574,3.093,3.093,0,0,1-1.262,1.109,3.949,3.949,0,0,1-1.77.395A3.67,3.67,0,0,1,8.3,36,4.56,4.56,0,0,1,7.25,32.82v-.148a4.508,4.508,0,0,1,1.039-3.117,3.627,3.627,0,0,1,2.852-1.164,3.555,3.555,0,0,1,2.543.9,3.2,3.2,0,0,1,.973,2.4H12.539a1.551,1.551,0,0,0-.406-1.072,1.354,1.354,0,0,0-1.031-.412,1.36,1.36,0,0,0-1.191.575,3.333,3.333,0,0,0-.4,1.866v.235a3.375,3.375,0,0,0,.4,1.878A1.377,1.377,0,0,0,11.117,35.336ZM20.844,37a2.507,2.507,0,0,1-.227-.758,2.732,2.732,0,0,1-2.133.914,3,3,0,0,1-2.059-.719,2.312,2.312,0,0,1-.816-1.812,2.389,2.389,0,0,1,1-2.062,4.915,4.915,0,0,1,2.879-.727h1.039v-.484a1.393,1.393,0,0,0-.3-.937,1.183,1.183,0,0,0-.949-.352,1.345,1.345,0,0,0-.895.273.929.929,0,0,0-.324.75H15.8a2.268,2.268,0,0,1,.453-1.359,3,3,0,0,1,1.281-.98,4.669,4.669,0,0,1,1.859-.355,3.689,3.689,0,0,1,2.48.785,2.747,2.747,0,0,1,.918,2.207v3.664a4.041,4.041,0,0,0,.336,1.82V37Zm-1.867-1.57a1.945,1.945,0,0,0,.922-.223,1.462,1.462,0,0,0,.625-.6V33.156H19.68q-1.7,0-1.8,1.172l-.008.133a.9.9,0,0,0,.3.7A1.153,1.153,0,0,0,18.977,35.43Zm13.156-2.578a5.07,5.07,0,0,1-.887,3.129,2.843,2.843,0,0,1-2.395,1.176,2.633,2.633,0,0,1-2.07-.891V40.25H24.523v-11.7h2.094l.078.828a2.654,2.654,0,0,1,2.141-.984,2.862,2.862,0,0,1,2.43,1.156,5.207,5.207,0,0,1,.867,3.188Zm-2.258-.164a3.327,3.327,0,0,0-.418-1.82,1.361,1.361,0,0,0-1.215-.641,1.478,1.478,0,0,0-1.461.813V34.5a1.5,1.5,0,0,0,1.477.836Q29.875,35.336,29.875,32.688Zm6.359-6.219v2.078H37.68V30.2H36.234v4.219a1.007,1.007,0,0,0,.18.672.9.9,0,0,0,.688.2,3.6,3.6,0,0,0,.664-.055v1.711a4.648,4.648,0,0,1-1.367.2,2.156,2.156,0,0,1-2.422-2.4V30.2H32.742V28.547h1.234V26.469ZM44,36.141a2.831,2.831,0,0,1-2.312,1.016,2.67,2.67,0,0,1-2.074-.781,3.335,3.335,0,0,1-.73-2.289V28.547h2.258v5.467q0,1.322,1.2,1.322a1.63,1.63,0,0,0,1.578-.8V28.547h2.266V37H44.063Zm8.641-5.477a6.134,6.134,0,0,0-.812-.062,1.654,1.654,0,0,0-1.68.867V37H47.891V28.547h2.133l.063,1.008a2.092,2.092,0,0,1,1.883-1.164,2.366,2.366,0,0,1,.7.1ZM58.391,37a2.507,2.507,0,0,1-.227-.758,2.732,2.732,0,0,1-2.133.914,3,3,0,0,1-2.059-.719,2.312,2.312,0,0,1-.816-1.812,2.389,2.389,0,0,1,1-2.062,4.915,4.915,0,0,1,2.879-.727H58.07v-.484a1.393,1.393,0,0,0-.3-.937,1.183,1.183,0,0,0-.949-.352,1.345,1.345,0,0,0-.895.273.929.929,0,0,0-.324.75H53.344a2.268,2.268,0,0,1,.453-1.359,3,3,0,0,1,1.281-.98,4.669,4.669,0,0,1,1.859-.355,3.689,3.689,0,0,1,2.48.785,2.747,2.747,0,0,1,.918,2.207v3.664a4.041,4.041,0,0,0,.336,1.82V37Zm-1.867-1.57a1.945,1.945,0,0,0,.922-.223,1.462,1.462,0,0,0,.625-.6V33.156h-.844q-1.7,0-1.8,1.172l-.008.133a.9.9,0,0,0,.3.7A1.153,1.153,0,0,0,56.523,35.43Zm5.2-2.719a5.094,5.094,0,0,1,.887-3.148,2.877,2.877,0,0,1,2.426-1.172,2.589,2.589,0,0,1,2.039.922V25h2.266V37H67.3l-.109-.9a2.657,2.657,0,0,1-2.172,1.055,2.869,2.869,0,0,1-2.395-1.176A5.258,5.258,0,0,1,61.719,32.711Zm2.258.168a3.337,3.337,0,0,0,.414,1.823,1.349,1.349,0,0,0,1.2.634,1.511,1.511,0,0,0,1.477-.884V31.111a1.489,1.489,0,0,0-1.461-.884Q63.977,30.227,63.977,32.879Zm6.758-.184a5.013,5.013,0,0,1,.484-2.242,3.546,3.546,0,0,1,1.395-1.523,4.069,4.069,0,0,1,2.113-.539,3.849,3.849,0,0,1,2.793,1.047,4.2,4.2,0,0,1,1.207,2.844l.016.578a4.418,4.418,0,0,1-1.086,3.121,4.209,4.209,0,0,1-5.832,0,4.5,4.5,0,0,1-1.09-3.187Zm2.258.16a3.16,3.16,0,0,0,.453,1.843,1.628,1.628,0,0,0,2.578.008,3.457,3.457,0,0,0,.461-2.015,3.128,3.128,0,0,0-.461-1.831,1.5,1.5,0,0,0-1.3-.649,1.474,1.474,0,0,0-1.281.646A3.516,3.516,0,0,0,72.992,32.856Z" transform="translate(390 14641)" fill="#12263f"/>
      <path id="Trazado_122982" data-name="Trazado 122982" d="M28.906,15.117h4.977V17h-7.32V5.625h2.344Zm10.063,2.039a4.15,4.15,0,0,1-3.027-1.141,4.054,4.054,0,0,1-1.168-3.039v-.219a5.106,5.106,0,0,1,.492-2.277A3.612,3.612,0,0,1,36.66,8.934a3.914,3.914,0,0,1,2.059-.543,3.508,3.508,0,0,1,2.73,1.094,4.444,4.444,0,0,1,1,3.1v.922H37.063a2.1,2.1,0,0,0,.66,1.328,2,2,0,0,0,1.395.5,2.437,2.437,0,0,0,2.039-.945l1.109,1.242a3.389,3.389,0,0,1-1.375,1.121A4.511,4.511,0,0,1,38.969,17.156Zm-.258-6.945a1.411,1.411,0,0,0-1.09.455,2.357,2.357,0,0,0-.535,1.3h3.141v-.181a1.681,1.681,0,0,0-.406-1.165A1.456,1.456,0,0,0,38.711,10.211ZM48.625,17a2.507,2.507,0,0,1-.227-.758,2.732,2.732,0,0,1-2.133.914,3,3,0,0,1-2.059-.719,2.312,2.312,0,0,1-.816-1.812,2.389,2.389,0,0,1,1-2.062,4.915,4.915,0,0,1,2.879-.727H48.3v-.484a1.393,1.393,0,0,0-.3-.937,1.183,1.183,0,0,0-.949-.352,1.345,1.345,0,0,0-.895.273.929.929,0,0,0-.324.75H43.578a2.268,2.268,0,0,1,.453-1.359,3,3,0,0,1,1.281-.98,4.669,4.669,0,0,1,1.859-.355,3.689,3.689,0,0,1,2.48.785,2.747,2.747,0,0,1,.918,2.207v3.664a4.041,4.041,0,0,0,.336,1.82V17Zm-1.867-1.57a1.945,1.945,0,0,0,.922-.223,1.462,1.462,0,0,0,.625-.6V13.156h-.844q-1.7,0-1.8,1.172l-.008.133a.9.9,0,0,0,.3.7A1.153,1.153,0,0,0,46.758,15.43Zm5.2-2.719a5.094,5.094,0,0,1,.887-3.148,2.877,2.877,0,0,1,2.426-1.172,2.589,2.589,0,0,1,2.039.922V5H59.57V17H57.531l-.109-.9a2.657,2.657,0,0,1-2.172,1.055,2.869,2.869,0,0,1-2.395-1.176A5.258,5.258,0,0,1,51.953,12.711Zm2.258.168a3.337,3.337,0,0,0,.414,1.823,1.349,1.349,0,0,0,1.2.634,1.511,1.511,0,0,0,1.477-.884V11.111a1.489,1.489,0,0,0-1.461-.884Q54.211,10.227,54.211,12.879ZM12.32,35.336a1.481,1.481,0,0,0,1.016-.344,1.2,1.2,0,0,0,.406-.914h2.117a2.9,2.9,0,0,1-.469,1.574,3.093,3.093,0,0,1-1.262,1.109,3.949,3.949,0,0,1-1.77.395A3.67,3.67,0,0,1,9.5,36,4.56,4.56,0,0,1,8.453,32.82v-.148a4.508,4.508,0,0,1,1.039-3.117,3.627,3.627,0,0,1,2.852-1.164,3.555,3.555,0,0,1,2.543.9,3.2,3.2,0,0,1,.973,2.4H13.742a1.551,1.551,0,0,0-.406-1.072,1.354,1.354,0,0,0-1.031-.412,1.36,1.36,0,0,0-1.191.575,3.333,3.333,0,0,0-.4,1.866v.235a3.375,3.375,0,0,0,.4,1.878A1.377,1.377,0,0,0,12.32,35.336ZM22.047,37a2.507,2.507,0,0,1-.227-.758,2.732,2.732,0,0,1-2.133.914,3,3,0,0,1-2.059-.719,2.312,2.312,0,0,1-.816-1.812,2.389,2.389,0,0,1,1-2.062,4.915,4.915,0,0,1,2.879-.727h1.039v-.484a1.393,1.393,0,0,0-.3-.937,1.183,1.183,0,0,0-.949-.352,1.345,1.345,0,0,0-.895.273.929.929,0,0,0-.324.75H17a2.268,2.268,0,0,1,.453-1.359,3,3,0,0,1,1.281-.98,4.669,4.669,0,0,1,1.859-.355,3.689,3.689,0,0,1,2.48.785,2.747,2.747,0,0,1,.918,2.207v3.664a4.041,4.041,0,0,0,.336,1.82V37ZM20.18,35.43a1.945,1.945,0,0,0,.922-.223,1.462,1.462,0,0,0,.625-.6V33.156h-.844q-1.7,0-1.8,1.172l-.008.133a.9.9,0,0,0,.3.7A1.153,1.153,0,0,0,20.18,35.43ZM28.109,37H25.844V25h2.266Zm4.242,0H30.086V28.547h2.266Zm-2.4-10.641a1.112,1.112,0,0,1,.34-.836,1.465,1.465,0,0,1,1.848,0,1.193,1.193,0,0,1,0,1.68,1.448,1.448,0,0,1-1.836,0A1.108,1.108,0,0,1,29.953,26.359ZM34.758,37V30.2H33.5V28.547h1.258v-.391a3.17,3.17,0,0,1,.98-2.457,3.945,3.945,0,0,1,2.723-.863,9.031,9.031,0,0,1,2.563.461L40.7,27.164a10,10,0,0,0-1.187-.293A5.834,5.834,0,0,0,38.6,26.8q-1.578,0-1.578,1.4v.344h1.664V30.2H37.023V37Zm7.32,0H39.813V28.547h2.266Zm5.383-1.664a1.481,1.481,0,0,0,1.016-.344,1.2,1.2,0,0,0,.406-.914H51a2.9,2.9,0,0,1-.469,1.574,3.093,3.093,0,0,1-1.262,1.109,3.949,3.949,0,0,1-1.77.395A3.67,3.67,0,0,1,44.641,36a4.56,4.56,0,0,1-1.047-3.184v-.148a4.508,4.508,0,0,1,1.039-3.117,3.627,3.627,0,0,1,2.852-1.164,3.555,3.555,0,0,1,2.543.9A3.2,3.2,0,0,1,51,31.7H48.883a1.551,1.551,0,0,0-.406-1.072,1.51,1.51,0,0,0-2.223.163,3.333,3.333,0,0,0-.4,1.866v.235a3.375,3.375,0,0,0,.4,1.878A1.377,1.377,0,0,0,47.461,35.336ZM57.188,37a2.507,2.507,0,0,1-.227-.758,2.732,2.732,0,0,1-2.133.914,3,3,0,0,1-2.059-.719,2.312,2.312,0,0,1-.816-1.812,2.389,2.389,0,0,1,1-2.062,4.915,4.915,0,0,1,2.879-.727h1.039v-.484a1.393,1.393,0,0,0-.3-.937,1.183,1.183,0,0,0-.949-.352,1.345,1.345,0,0,0-.895.273.929.929,0,0,0-.324.75H52.141a2.268,2.268,0,0,1,.453-1.359,3,3,0,0,1,1.281-.98,4.669,4.669,0,0,1,1.859-.355,3.689,3.689,0,0,1,2.48.785,2.747,2.747,0,0,1,.918,2.207v3.664a4.041,4.041,0,0,0,.336,1.82V37ZM55.32,35.43a1.945,1.945,0,0,0,.922-.223,1.462,1.462,0,0,0,.625-.6V33.156h-.844q-1.7,0-1.8,1.172l-.008.133a.9.9,0,0,0,.3.7A1.153,1.153,0,0,0,55.32,35.43Zm5.2-2.719a5.094,5.094,0,0,1,.887-3.148,2.877,2.877,0,0,1,2.426-1.172,2.589,2.589,0,0,1,2.039.922V25h2.266V37H66.094l-.109-.9a2.657,2.657,0,0,1-2.172,1.055,2.869,2.869,0,0,1-2.395-1.176A5.258,5.258,0,0,1,60.516,32.711Zm2.258.168a3.337,3.337,0,0,0,.414,1.823,1.349,1.349,0,0,0,1.2.634,1.511,1.511,0,0,0,1.477-.884V31.111a1.489,1.489,0,0,0-1.461-.884Q62.773,30.227,62.773,32.879Zm6.758-.184a5.013,5.013,0,0,1,.484-2.242A3.546,3.546,0,0,1,71.41,28.93a4.069,4.069,0,0,1,2.113-.539,3.849,3.849,0,0,1,2.793,1.047,4.2,4.2,0,0,1,1.207,2.844l.016.578a4.418,4.418,0,0,1-1.086,3.121,4.209,4.209,0,0,1-5.832,0,4.5,4.5,0,0,1-1.09-3.187Zm2.258.16a3.16,3.16,0,0,0,.453,1.843,1.628,1.628,0,0,0,2.578.008,3.457,3.457,0,0,0,.461-2.015,3.128,3.128,0,0,0-.461-1.831,1.5,1.5,0,0,0-1.3-.649,1.474,1.474,0,0,0-1.281.646A3.516,3.516,0,0,0,71.789,32.856Z" transform="translate(574 14641)" fill="#12263f"/>
      <path id="Trazado_122983" data-name="Trazado 122983" d="M7.227,15.117H12.2V17H4.883V5.625H7.227Zm10.063,2.039a4.15,4.15,0,0,1-3.027-1.141,4.054,4.054,0,0,1-1.168-3.039v-.219a5.106,5.106,0,0,1,.492-2.277A3.612,3.612,0,0,1,14.98,8.934a3.914,3.914,0,0,1,2.059-.543,3.508,3.508,0,0,1,2.73,1.094,4.444,4.444,0,0,1,1,3.1v.922H15.383a2.1,2.1,0,0,0,.66,1.328,2,2,0,0,0,1.395.5,2.437,2.437,0,0,0,2.039-.945l1.109,1.242a3.389,3.389,0,0,1-1.375,1.121A4.511,4.511,0,0,1,17.289,17.156Zm-.258-6.945a1.411,1.411,0,0,0-1.09.455,2.357,2.357,0,0,0-.535,1.3h3.141v-.181a1.681,1.681,0,0,0-.406-1.165A1.456,1.456,0,0,0,17.031,10.211ZM26.945,17a2.507,2.507,0,0,1-.227-.758,2.732,2.732,0,0,1-2.133.914,3,3,0,0,1-2.059-.719,2.312,2.312,0,0,1-.816-1.812,2.389,2.389,0,0,1,1-2.062,4.915,4.915,0,0,1,2.879-.727h1.039v-.484a1.393,1.393,0,0,0-.3-.937,1.183,1.183,0,0,0-.949-.352,1.345,1.345,0,0,0-.895.273.929.929,0,0,0-.324.75H21.9a2.268,2.268,0,0,1,.453-1.359,3,3,0,0,1,1.281-.98,4.669,4.669,0,0,1,1.859-.355,3.689,3.689,0,0,1,2.48.785,2.747,2.747,0,0,1,.918,2.207v3.664a4.041,4.041,0,0,0,.336,1.82V17Zm-1.867-1.57A1.945,1.945,0,0,0,26,15.207a1.462,1.462,0,0,0,.625-.6V13.156h-.844q-1.7,0-1.8,1.172l-.008.133a.9.9,0,0,0,.3.7A1.153,1.153,0,0,0,25.078,15.43Zm5.2-2.719a5.094,5.094,0,0,1,.887-3.148,2.877,2.877,0,0,1,2.426-1.172,2.589,2.589,0,0,1,2.039.922V5h2.266V17H35.852l-.109-.9a2.657,2.657,0,0,1-2.172,1.055,2.869,2.869,0,0,1-2.395-1.176A5.258,5.258,0,0,1,30.273,12.711Zm2.258.168a3.337,3.337,0,0,0,.414,1.823,1.349,1.349,0,0,0,1.2.634,1.511,1.511,0,0,0,1.477-.884V11.111a1.489,1.489,0,0,0-1.461-.884Q32.531,10.227,32.531,12.879ZM48.523,17a2.507,2.507,0,0,1-.227-.758,2.732,2.732,0,0,1-2.133.914,3,3,0,0,1-2.059-.719,2.312,2.312,0,0,1-.816-1.812,2.389,2.389,0,0,1,1-2.062,4.915,4.915,0,0,1,2.879-.727H48.2v-.484a1.393,1.393,0,0,0-.3-.937,1.183,1.183,0,0,0-.949-.352,1.345,1.345,0,0,0-.895.273.929.929,0,0,0-.324.75H43.477a2.268,2.268,0,0,1,.453-1.359,3,3,0,0,1,1.281-.98,4.669,4.669,0,0,1,1.859-.355,3.689,3.689,0,0,1,2.48.785,2.747,2.747,0,0,1,.918,2.207v3.664a4.041,4.041,0,0,0,.336,1.82V17Zm-1.867-1.57a1.945,1.945,0,0,0,.922-.223,1.462,1.462,0,0,0,.625-.6V13.156h-.844q-1.7,0-1.8,1.172l-.008.133a.9.9,0,0,0,.3.7A1.153,1.153,0,0,0,46.656,15.43Zm9.063-.094a1.481,1.481,0,0,0,1.016-.344,1.2,1.2,0,0,0,.406-.914h2.117a2.9,2.9,0,0,1-.469,1.574,3.093,3.093,0,0,1-1.262,1.109,3.949,3.949,0,0,1-1.77.395A3.67,3.67,0,0,1,52.9,16a4.56,4.56,0,0,1-1.047-3.184v-.148a4.508,4.508,0,0,1,1.039-3.117,3.627,3.627,0,0,1,2.852-1.164,3.555,3.555,0,0,1,2.543.9,3.2,3.2,0,0,1,.973,2.4H57.141a1.551,1.551,0,0,0-.406-1.072,1.51,1.51,0,0,0-2.223.163,3.333,3.333,0,0,0-.4,1.866v.235a3.375,3.375,0,0,0,.4,1.878A1.377,1.377,0,0,0,55.719,15.336Zm8.719,1.82a4.15,4.15,0,0,1-3.027-1.141,4.054,4.054,0,0,1-1.168-3.039v-.219a5.106,5.106,0,0,1,.492-2.277,3.612,3.612,0,0,1,1.395-1.547,3.914,3.914,0,0,1,2.059-.543,3.508,3.508,0,0,1,2.73,1.094,4.444,4.444,0,0,1,1,3.1v.922H62.531a2.1,2.1,0,0,0,.66,1.328,2,2,0,0,0,1.395.5,2.437,2.437,0,0,0,2.039-.945l1.109,1.242a3.389,3.389,0,0,1-1.375,1.121A4.511,4.511,0,0,1,64.438,17.156Zm-.258-6.945a1.411,1.411,0,0,0-1.09.455,2.357,2.357,0,0,0-.535,1.3H65.7v-.181a1.681,1.681,0,0,0-.406-1.165A1.456,1.456,0,0,0,64.18,10.211ZM76.8,12.852a5.07,5.07,0,0,1-.887,3.129,2.843,2.843,0,0,1-2.395,1.176,2.633,2.633,0,0,1-2.07-.891V20.25H69.2V8.547h2.094l.078.828a2.654,2.654,0,0,1,2.141-.984,2.862,2.862,0,0,1,2.43,1.156,5.207,5.207,0,0,1,.867,3.188Zm-2.258-.164a3.327,3.327,0,0,0-.418-1.82,1.361,1.361,0,0,0-1.215-.641,1.478,1.478,0,0,0-1.461.813V14.5a1.5,1.5,0,0,0,1.477.836Q74.547,15.336,74.547,12.688Zm6.359-6.219V8.547h1.445V10.2H80.906v4.219a1.007,1.007,0,0,0,.18.672.9.9,0,0,0,.688.2,3.6,3.6,0,0,0,.664-.055v1.711a4.648,4.648,0,0,1-1.367.2,2.156,2.156,0,0,1-2.422-2.4V10.2H77.414V8.547h1.234V6.469ZM88.508,17a2.507,2.507,0,0,1-.227-.758,2.732,2.732,0,0,1-2.133.914,3,3,0,0,1-2.059-.719,2.312,2.312,0,0,1-.816-1.812,2.389,2.389,0,0,1,1-2.062,4.915,4.915,0,0,1,2.879-.727h1.039v-.484a1.393,1.393,0,0,0-.3-.937,1.183,1.183,0,0,0-.949-.352,1.345,1.345,0,0,0-.895.273.929.929,0,0,0-.324.75H83.461a2.268,2.268,0,0,1,.453-1.359,3,3,0,0,1,1.281-.98,4.669,4.669,0,0,1,1.859-.355,3.689,3.689,0,0,1,2.48.785,2.747,2.747,0,0,1,.918,2.207v3.664a4.041,4.041,0,0,0,.336,1.82V17Zm-1.867-1.57a1.945,1.945,0,0,0,.922-.223,1.462,1.462,0,0,0,.625-.6V13.156h-.844q-1.7,0-1.8,1.172l-.008.133a.9.9,0,0,0,.3.7A1.153,1.153,0,0,0,86.641,15.43Zm5.2-2.719a5.094,5.094,0,0,1,.887-3.148,2.877,2.877,0,0,1,2.426-1.172,2.589,2.589,0,0,1,2.039.922V5h2.266V17H97.414l-.109-.9a2.657,2.657,0,0,1-2.172,1.055,2.869,2.869,0,0,1-2.395-1.176A5.258,5.258,0,0,1,91.836,12.711Zm2.258.168a3.337,3.337,0,0,0,.414,1.823,1.349,1.349,0,0,0,1.2.634,1.511,1.511,0,0,0,1.477-.884V11.111a1.489,1.489,0,0,0-1.461-.884Q94.094,10.227,94.094,12.879Zm6.758-.184a5.013,5.013,0,0,1,.484-2.242A3.546,3.546,0,0,1,102.73,8.93a4.069,4.069,0,0,1,2.113-.539,3.849,3.849,0,0,1,2.793,1.047,4.2,4.2,0,0,1,1.207,2.844l.016.578a4.418,4.418,0,0,1-1.086,3.121,4.209,4.209,0,0,1-5.832,0,4.5,4.5,0,0,1-1.09-3.187Zm2.258.16a3.16,3.16,0,0,0,.453,1.843,1.628,1.628,0,0,0,2.578.008,3.457,3.457,0,0,0,.461-2.015,3.128,3.128,0,0,0-.461-1.831,1.5,1.5,0,0,0-1.3-.649,1.474,1.474,0,0,0-1.281.646A3.516,3.516,0,0,0,103.109,12.856Zm18.734,0a5.07,5.07,0,0,1-.887,3.129,2.843,2.843,0,0,1-2.395,1.176,2.633,2.633,0,0,1-2.07-.891V20.25h-2.258V8.547h2.094l.078.828a2.654,2.654,0,0,1,2.141-.984,2.862,2.862,0,0,1,2.43,1.156,5.207,5.207,0,0,1,.867,3.188Zm-2.258-.164a3.327,3.327,0,0,0-.418-1.82,1.361,1.361,0,0,0-1.215-.641,1.478,1.478,0,0,0-1.461.813V14.5a1.5,1.5,0,0,0,1.477.836Q119.586,15.336,119.586,12.688Zm3.3.008a5.013,5.013,0,0,1,.484-2.242A3.546,3.546,0,0,1,124.77,8.93a4.069,4.069,0,0,1,2.113-.539,3.849,3.849,0,0,1,2.793,1.047,4.2,4.2,0,0,1,1.207,2.844l.016.578a4.418,4.418,0,0,1-1.086,3.121,4.209,4.209,0,0,1-5.832,0,4.5,4.5,0,0,1-1.09-3.187Zm2.258.16A3.16,3.16,0,0,0,125.6,14.7a1.628,1.628,0,0,0,2.578.008,3.457,3.457,0,0,0,.461-2.015,3.128,3.128,0,0,0-.461-1.831,1.5,1.5,0,0,0-1.3-.649,1.474,1.474,0,0,0-1.281.646A3.516,3.516,0,0,0,125.148,12.856Zm11.891-2.192a6.134,6.134,0,0,0-.812-.062,1.654,1.654,0,0,0-1.68.867V17h-2.258V8.547h2.133l.063,1.008a2.092,2.092,0,0,1,1.883-1.164,2.366,2.366,0,0,1,.7.1ZM146,17.156a4.15,4.15,0,0,1-3.027-1.141,4.054,4.054,0,0,1-1.168-3.039v-.219a5.106,5.106,0,0,1,.492-2.277,3.612,3.612,0,0,1,1.395-1.547,3.914,3.914,0,0,1,2.059-.543,3.508,3.508,0,0,1,2.73,1.094,4.444,4.444,0,0,1,1,3.1v.922h-5.383a2.1,2.1,0,0,0,.66,1.328,2,2,0,0,0,1.395.5,2.437,2.437,0,0,0,2.039-.945l1.109,1.242a3.389,3.389,0,0,1-1.375,1.121A4.511,4.511,0,0,1,146,17.156Zm-.258-6.945a1.411,1.411,0,0,0-1.09.455,2.357,2.357,0,0,0-.535,1.3h3.141v-.181a1.681,1.681,0,0,0-.406-1.165A1.456,1.456,0,0,0,145.742,10.211Zm7.4,6.789h-2.266V5h2.266ZM22.52,37.156a4.15,4.15,0,0,1-3.027-1.141,4.054,4.054,0,0,1-1.168-3.039v-.219a5.106,5.106,0,0,1,.492-2.277,3.612,3.612,0,0,1,1.395-1.547,3.914,3.914,0,0,1,2.059-.543A3.508,3.508,0,0,1,25,29.484a4.444,4.444,0,0,1,1,3.1v.922H20.613a2.1,2.1,0,0,0,.66,1.328,2,2,0,0,0,1.395.5,2.437,2.437,0,0,0,2.039-.945l1.109,1.242a3.389,3.389,0,0,1-1.375,1.121A4.511,4.511,0,0,1,22.52,37.156Zm-.258-6.945a1.411,1.411,0,0,0-1.09.455,2.357,2.357,0,0,0-.535,1.3h3.141v-.181a1.681,1.681,0,0,0-.406-1.165A1.456,1.456,0,0,0,22.262,30.211ZM26.926,32.7a5.053,5.053,0,0,1,.887-3.148,2.9,2.9,0,0,1,2.434-1.156A2.6,2.6,0,0,1,32.41,29.43l.148-.883h1.984v11.7H32.277V36.273a2.6,2.6,0,0,1-2.047.883,2.878,2.878,0,0,1-2.406-1.172A5.3,5.3,0,0,1,26.926,32.7Zm2.258.16a3.315,3.315,0,0,0,.426,1.847,1.363,1.363,0,0,0,1.2.634,1.518,1.518,0,0,0,1.469-.829v-3.5a1.506,1.506,0,0,0-1.453-.8,1.38,1.38,0,0,0-1.211.634A3.661,3.661,0,0,0,29.184,32.856Zm12.2,3.285a2.831,2.831,0,0,1-2.312,1.016,2.67,2.67,0,0,1-2.074-.781,3.335,3.335,0,0,1-.73-2.289V28.547H38.52v5.467q0,1.322,1.2,1.322a1.63,1.63,0,0,0,1.578-.8V28.547h2.266V37H41.441ZM47.652,37H45.387V28.547h2.266Zm-2.4-10.641a1.112,1.112,0,0,1,.34-.836,1.465,1.465,0,0,1,1.848,0,1.193,1.193,0,0,1,0,1.68,1.448,1.448,0,0,1-1.836,0A1.108,1.108,0,0,1,45.254,26.359Zm11.867,6.492a5.07,5.07,0,0,1-.887,3.129,2.843,2.843,0,0,1-2.395,1.176,2.633,2.633,0,0,1-2.07-.891V40.25H49.512v-11.7h2.094l.078.828a2.654,2.654,0,0,1,2.141-.984,2.862,2.862,0,0,1,2.43,1.156,5.207,5.207,0,0,1,.867,3.188Zm-2.258-.164a3.327,3.327,0,0,0-.418-1.82,1.361,1.361,0,0,0-1.215-.641,1.478,1.478,0,0,0-1.461.813V34.5a1.5,1.5,0,0,0,1.477.836Q54.863,35.336,54.863,32.688Zm3.3.008a5.013,5.013,0,0,1,.484-2.242,3.546,3.546,0,0,1,1.395-1.523,4.069,4.069,0,0,1,2.113-.539,3.849,3.849,0,0,1,2.793,1.047,4.2,4.2,0,0,1,1.207,2.844l.016.578A4.418,4.418,0,0,1,65.09,35.98a4.209,4.209,0,0,1-5.832,0,4.5,4.5,0,0,1-1.09-3.187Zm2.258.16a3.16,3.16,0,0,0,.453,1.843,1.628,1.628,0,0,0,2.578.008,3.457,3.457,0,0,0,.461-2.015,3.128,3.128,0,0,0-.461-1.831,1.5,1.5,0,0,0-1.3-.649,1.474,1.474,0,0,0-1.281.646A3.516,3.516,0,0,0,60.426,32.856ZM71.2,32.711a5.094,5.094,0,0,1,.887-3.148,2.877,2.877,0,0,1,2.426-1.172,2.589,2.589,0,0,1,2.039.922V25h2.266V37H76.777l-.109-.9A2.657,2.657,0,0,1,74.5,37.156,2.869,2.869,0,0,1,72.1,35.98,5.258,5.258,0,0,1,71.2,32.711Zm2.258.168a3.337,3.337,0,0,0,.414,1.823,1.349,1.349,0,0,0,1.2.634,1.511,1.511,0,0,0,1.477-.884V31.111a1.489,1.489,0,0,0-1.461-.884Q73.457,30.227,73.457,32.879Zm11,4.277a4.15,4.15,0,0,1-3.027-1.141,4.054,4.054,0,0,1-1.168-3.039v-.219a5.106,5.106,0,0,1,.492-2.277,3.612,3.612,0,0,1,1.395-1.547,3.914,3.914,0,0,1,2.059-.543,3.508,3.508,0,0,1,2.73,1.094,4.444,4.444,0,0,1,1,3.1v.922H82.551a2.1,2.1,0,0,0,.66,1.328,2,2,0,0,0,1.395.5,2.437,2.437,0,0,0,2.039-.945l1.109,1.242a3.389,3.389,0,0,1-1.375,1.121A4.511,4.511,0,0,1,84.457,37.156ZM84.2,30.211a1.411,1.411,0,0,0-1.09.455,2.357,2.357,0,0,0-.535,1.3h3.141v-.181a1.681,1.681,0,0,0-.406-1.165A1.456,1.456,0,0,0,84.2,30.211Zm12.164,4.031,1.57-5.7h2.359L97.441,37H95.285l-2.852-8.453h2.359Zm8.813,2.914a4.15,4.15,0,0,1-3.027-1.141,4.054,4.054,0,0,1-1.168-3.039v-.219a5.106,5.106,0,0,1,.492-2.277,3.612,3.612,0,0,1,1.395-1.547,3.914,3.914,0,0,1,2.059-.543,3.508,3.508,0,0,1,2.73,1.094,4.444,4.444,0,0,1,1,3.1v.922H103.27a2.1,2.1,0,0,0,.66,1.328,2,2,0,0,0,1.395.5,2.437,2.437,0,0,0,2.039-.945l1.109,1.242a3.389,3.389,0,0,1-1.375,1.121A4.511,4.511,0,0,1,105.176,37.156Zm-.258-6.945a1.411,1.411,0,0,0-1.09.455,2.357,2.357,0,0,0-.535,1.3h3.141v-.181a1.681,1.681,0,0,0-.406-1.165A1.456,1.456,0,0,0,104.918,30.211Zm7.094-1.664.07.977a2.951,2.951,0,0,1,2.43-1.133,2.453,2.453,0,0,1,2,.789,3.682,3.682,0,0,1,.672,2.359V37h-2.258V31.594a1.465,1.465,0,0,0-.312-1.043,1.4,1.4,0,0,0-1.039-.324,1.553,1.553,0,0,0-1.43.813V37h-2.258V28.547Zm9.586-2.078v2.078h1.445V30.2H121.6v4.219a1.007,1.007,0,0,0,.18.672.9.9,0,0,0,.688.2,3.6,3.6,0,0,0,.664-.055v1.711a4.648,4.648,0,0,1-1.367.2,2.156,2.156,0,0,1-2.422-2.4V30.2h-1.234V28.547h1.234V26.469ZM129.2,37a2.507,2.507,0,0,1-.227-.758,2.732,2.732,0,0,1-2.133.914,3,3,0,0,1-2.059-.719,2.312,2.312,0,0,1-.816-1.812,2.389,2.389,0,0,1,1-2.062,4.915,4.915,0,0,1,2.879-.727h1.039v-.484a1.393,1.393,0,0,0-.3-.937,1.183,1.183,0,0,0-.949-.352,1.345,1.345,0,0,0-.895.273.929.929,0,0,0-.324.75h-2.258a2.268,2.268,0,0,1,.453-1.359,3,3,0,0,1,1.281-.98,4.669,4.669,0,0,1,1.859-.355,3.689,3.689,0,0,1,2.48.785,2.747,2.747,0,0,1,.918,2.207v3.664a4.041,4.041,0,0,0,.336,1.82V37Zm-1.867-1.57a1.945,1.945,0,0,0,.922-.223,1.462,1.462,0,0,0,.625-.6V33.156h-.844q-1.7,0-1.8,1.172l-.008.133a.9.9,0,0,0,.3.7A1.153,1.153,0,0,0,127.332,35.43Zm10.125-.766a.727.727,0,0,0-.41-.652,4.659,4.659,0,0,0-1.316-.426q-3.016-.633-3.016-2.562a2.323,2.323,0,0,1,.934-1.879,3.766,3.766,0,0,1,2.441-.754,4.053,4.053,0,0,1,2.574.758,2.388,2.388,0,0,1,.965,1.969h-2.258a1.092,1.092,0,0,0-.312-.8,1.322,1.322,0,0,0-.977-.316,1.351,1.351,0,0,0-.883.258.814.814,0,0,0-.312.656.7.7,0,0,0,.355.605,3.657,3.657,0,0,0,1.2.4,9.8,9.8,0,0,1,1.422.379,2.336,2.336,0,0,1,1.789,2.273,2.205,2.205,0,0,1-.992,1.871,4.28,4.28,0,0,1-2.562.715,4.47,4.47,0,0,1-1.887-.379,3.166,3.166,0,0,1-1.293-1.039,2.414,2.414,0,0,1-.469-1.426h2.141a1.179,1.179,0,0,0,.445.922,1.766,1.766,0,0,0,1.109.32,1.635,1.635,0,0,0,.98-.246A.766.766,0,0,0,137.457,34.664Z" transform="translate(721 14641)" fill="#12263f"/>
      <path id="Trazado_122980" data-name="Trazado 122980" d="M39.9,13.463a5.964,5.964,0,0,1-.268,2.026,3.026,3.026,0,0,1-.9,1.244l-.58.536a2.292,2.292,0,0,0-.817,1.635,1.221,1.221,0,0,0,.294.91,1.046,1.046,0,0,0,.76.286,1.161,1.161,0,0,0,.918-.374,1.615,1.615,0,0,0,.347-1.059h2.979a3.6,3.6,0,0,1-1.121,2.742,4.411,4.411,0,0,1-3.054.976,4.535,4.535,0,0,1-3.028-.91A3.192,3.192,0,0,1,34.366,18.9a2.953,2.953,0,0,1,.334-1.375,5.455,5.455,0,0,1,1.143-1.4l.747-.686a2.019,2.019,0,0,0,.756-1.345l.044-.633Zm-1.178-1.187a1.7,1.7,0,0,1-1.173-.417,1.448,1.448,0,0,1,0-2.136,1.7,1.7,0,0,1,1.173-.417,1.674,1.674,0,0,1,1.182.426,1.446,1.446,0,0,1,0,2.118A1.674,1.674,0,0,1,38.725,12.276Zm15.486,2.391a4.673,4.673,0,0,1-.721,2.36,4.35,4.35,0,0,1-1.85,1.586,6.3,6.3,0,0,1-2.72.563,5.025,5.025,0,0,1-3.973-1.644,6.786,6.786,0,0,1-1.45-4.641v-.633a7.746,7.746,0,0,1,.655-3.292,4.961,4.961,0,0,1,1.885-2.18,5.26,5.26,0,0,1,2.848-.769,5.516,5.516,0,0,1,3.744,1.226,4.844,4.844,0,0,1,1.608,3.379H51.162a2.292,2.292,0,0,0-.589-1.679,2.422,2.422,0,0,0-1.687-.51A1.843,1.843,0,0,0,47.2,9.3a5.536,5.536,0,0,0-.562,2.751v.905a6.126,6.126,0,0,0,.514,2.927,1.882,1.882,0,0,0,1.771.879,2.369,2.369,0,0,0,1.626-.5,2.126,2.126,0,0,0,.6-1.591Zm.949-.51a5.613,5.613,0,0,1,.554-2.536,3.96,3.96,0,0,1,1.591-1.709,4.791,4.791,0,0,1,2.435-.6,4.373,4.373,0,0,1,3.366,1.323,5.076,5.076,0,0,1,1.23,3.6v.105A4.925,4.925,0,0,1,63.1,17.871a4.384,4.384,0,0,1-3.344,1.305A4.434,4.434,0,0,1,56.5,17.958a4.761,4.761,0,0,1-1.327-3.3Zm2.962.185a3.538,3.538,0,0,0,.413,1.934,1.376,1.376,0,0,0,1.222.615q1.582,0,1.617-2.435v-.3q0-2.558-1.635-2.558-1.485,0-1.608,2.206ZM60.144,5.5h3.129L60.83,8.26l-2.417,0Zm8.3,3.99.1,1.116a3.27,3.27,0,0,1,2.716-1.292,2.407,2.407,0,0,1,2.435,1.433,3.165,3.165,0,0,1,2.795-1.433q2.892,0,2.971,3.5V19H76.483V13a1.813,1.813,0,0,0-.246-1.063,1.048,1.048,0,0,0-.9-.334,1.4,1.4,0,0,0-1.31.782l.009.123V19H71.069V13.015a1.906,1.906,0,0,0-.237-1.081,1.045,1.045,0,0,0-.905-.334,1.42,1.42,0,0,0-1.3.782V19H65.664V9.49Zm12.331,4.667a5.613,5.613,0,0,1,.554-2.536,3.96,3.96,0,0,1,1.591-1.709,4.791,4.791,0,0,1,2.435-.6,4.373,4.373,0,0,1,3.366,1.323,5.076,5.076,0,0,1,1.23,3.6v.105a4.925,4.925,0,0,1-1.235,3.529,4.384,4.384,0,0,1-3.344,1.305,4.434,4.434,0,0,1-3.261-1.217,4.761,4.761,0,0,1-1.327-3.3Zm2.962.185a3.538,3.538,0,0,0,.413,1.934,1.376,1.376,0,0,0,1.222.615q1.582,0,1.617-2.435v-.3q0-2.558-1.635-2.558-1.485,0-1.608,2.206Zm16.022,2.549a1.317,1.317,0,0,0,.967-.338,1.241,1.241,0,0,0,.334-.945h2.777a3.288,3.288,0,0,1-1.121,2.566,4.168,4.168,0,0,1-2.887,1,4.22,4.22,0,0,1-3.27-1.3,5.125,5.125,0,0,1-1.2-3.6v-.123a5.792,5.792,0,0,1,.532-2.544,3.872,3.872,0,0,1,1.534-1.7A4.573,4.573,0,0,1,99.8,9.314a4.116,4.116,0,0,1,2.944,1.028,3.647,3.647,0,0,1,1.09,2.786h-2.777A1.626,1.626,0,0,0,100.7,12a1.244,1.244,0,0,0-.967-.4q-1.151,0-1.345,1.468a10.357,10.357,0,0,0-.062,1.283,4.068,4.068,0,0,0,.343,1.986A1.187,1.187,0,0,0,99.756,16.891Zm4.957-2.733a5.613,5.613,0,0,1,.554-2.536,3.96,3.96,0,0,1,1.591-1.709,4.791,4.791,0,0,1,2.435-.6,4.373,4.373,0,0,1,3.366,1.323,5.076,5.076,0,0,1,1.23,3.6v.105a4.925,4.925,0,0,1-1.235,3.529,4.384,4.384,0,0,1-3.344,1.305,4.434,4.434,0,0,1-3.261-1.217,4.761,4.761,0,0,1-1.327-3.3Zm2.962.185a3.538,3.538,0,0,0,.413,1.934,1.376,1.376,0,0,0,1.222.615q1.582,0,1.617-2.435v-.3q0-2.558-1.635-2.558-1.485,0-1.608,2.206ZM117.915,9.49l.1,1.116a3.225,3.225,0,0,1,2.716-1.292,2.713,2.713,0,0,1,2.219.888,4.226,4.226,0,0,1,.76,2.672V19h-2.971V13a1.6,1.6,0,0,0-.29-1.059,1.342,1.342,0,0,0-1.055-.338,1.413,1.413,0,0,0-1.292.686V19h-2.962V9.49Zm11.224,5.985,1.5-5.985h3.12l-3.1,9.51h-3.023l-3.1-9.51h3.129Zm10.107,3.7a4.889,4.889,0,0,1-3.542-1.305,4.507,4.507,0,0,1-1.354-3.4v-.246a5.84,5.84,0,0,1,.541-2.575,3.955,3.955,0,0,1,1.578-1.727,4.763,4.763,0,0,1,2.461-.611,4.117,4.117,0,0,1,3.164,1.244,4.887,4.887,0,0,1,1.16,3.467v1.151h-5.889a2.135,2.135,0,0,0,.694,1.257,2.066,2.066,0,0,0,1.389.457,2.662,2.662,0,0,0,2.2-.984l1.354,1.6a3.784,3.784,0,0,1-1.569,1.217A5.3,5.3,0,0,1,139.246,19.176Zm-.334-7.576q-1.3,0-1.547,1.723h2.988v-.229a1.467,1.467,0,0,0-.36-1.1A1.434,1.434,0,0,0,138.912,11.6Zm11.285.571-.976-.07a1.752,1.752,0,0,0-1.793.879V19h-2.962V9.49h2.777l.1,1.222a2.294,2.294,0,0,1,2.083-1.4,2.888,2.888,0,0,1,.826.105Zm4.957-5.045V9.49h1.564v2.057h-1.564V15.9a1.111,1.111,0,0,0,.193.747,1.037,1.037,0,0,0,.765.211,4.345,4.345,0,0,0,.738-.053v2.118a5.466,5.466,0,0,1-1.67.255,3.1,3.1,0,0,1-2.259-.721,2.954,2.954,0,0,1-.729-2.188v-4.72h-1.213V9.49h1.213V7.126ZM161.007,19h-2.971V9.49h2.971ZM157.861,7.038A1.322,1.322,0,0,1,158.318,6a1.943,1.943,0,0,1,2.373,0,1.322,1.322,0,0,1,.457,1.037,1.322,1.322,0,0,1-.457,1.037,1.943,1.943,0,0,1-2.373,0A1.322,1.322,0,0,1,157.861,7.038Zm10.723,5.133-.976-.07a1.752,1.752,0,0,0-1.793.879V19h-2.962V9.49h2.777l.1,1.222a2.294,2.294,0,0,1,2.083-1.4,2.888,2.888,0,0,1,.826.105Zm14.379,2.145a5.735,5.735,0,0,1-1,3.538,3.2,3.2,0,0,1-2.694,1.323,2.742,2.742,0,0,1-2.153-.958v4.438h-2.962V9.49h2.769l.088.879a2.742,2.742,0,0,1,2.241-1.055,3.224,3.224,0,0,1,2.733,1.3,5.805,5.805,0,0,1,.976,3.564ZM180,14.131q0-2.531-1.477-2.531a1.394,1.394,0,0,0-1.406.756V16.1a1.439,1.439,0,0,0,1.424.791q1.415,0,1.459-2.443Zm10.02-1.96-.976-.07a1.752,1.752,0,0,0-1.793.879V19H184.29V9.49h2.777l.1,1.222a2.294,2.294,0,0,1,2.083-1.4,2.888,2.888,0,0,1,.826.105Zm.378,1.986a5.613,5.613,0,0,1,.554-2.536,3.96,3.96,0,0,1,1.591-1.709,4.791,4.791,0,0,1,2.435-.6,4.373,4.373,0,0,1,3.366,1.323,5.076,5.076,0,0,1,1.23,3.6v.105a4.925,4.925,0,0,1-1.235,3.529,4.384,4.384,0,0,1-3.344,1.305,4.434,4.434,0,0,1-3.261-1.217,4.761,4.761,0,0,1-1.327-3.3Zm2.962.185a3.538,3.538,0,0,0,.413,1.934,1.376,1.376,0,0,0,1.222.615q1.582,0,1.617-2.435v-.3q0-2.558-1.635-2.558-1.485,0-1.608,2.206Zm12.5,1.986a.684.684,0,0,0-.4-.606,6.016,6.016,0,0,0-1.5-.475,6.853,6.853,0,0,1-1.828-.646,3.062,3.062,0,0,1-1.1-.971,2.319,2.319,0,0,1-.378-1.31,2.628,2.628,0,0,1,1.081-2.158,4.453,4.453,0,0,1,2.83-.848,4.934,4.934,0,0,1,3.023.853,2.666,2.666,0,0,1,1.143,2.241h-2.971q0-1.143-1.2-1.143a1.194,1.194,0,0,0-.782.259.8.8,0,0,0-.316.646.737.737,0,0,0,.387.642,3.654,3.654,0,0,0,1.235.4,10.671,10.671,0,0,1,1.49.378,2.706,2.706,0,0,1,2.145,2.646,2.491,2.491,0,0,1-1.156,2.118,5.068,5.068,0,0,1-2.993.817,5.172,5.172,0,0,1-2.18-.439,3.645,3.645,0,0,1-1.494-1.2,2.707,2.707,0,0,1-.536-1.591h2.769a1.145,1.145,0,0,0,.439.962,1.808,1.808,0,0,0,1.081.3,1.422,1.422,0,0,0,.91-.246A.787.787,0,0,0,205.858,16.328Zm13.069-2.013a5.735,5.735,0,0,1-1,3.538,3.2,3.2,0,0,1-2.694,1.323,2.742,2.742,0,0,1-2.153-.958v4.438h-2.962V9.49h2.769l.088.879a2.742,2.742,0,0,1,2.241-1.055,3.224,3.224,0,0,1,2.733,1.3,5.805,5.805,0,0,1,.976,3.564Zm-2.962-.185q0-2.531-1.477-2.531a1.394,1.394,0,0,0-1.406.756V16.1a1.439,1.439,0,0,0,1.424.791q1.415,0,1.459-2.443Zm8.868,5.045a4.889,4.889,0,0,1-3.542-1.305,4.507,4.507,0,0,1-1.354-3.4v-.246a5.84,5.84,0,0,1,.541-2.575,3.955,3.955,0,0,1,1.578-1.727,4.763,4.763,0,0,1,2.461-.611,4.117,4.117,0,0,1,3.164,1.244,4.887,4.887,0,0,1,1.16,3.467v1.151h-5.889a2.135,2.135,0,0,0,.694,1.257,2.066,2.066,0,0,0,1.389.457,2.662,2.662,0,0,0,2.2-.984l1.354,1.6a3.784,3.784,0,0,1-1.569,1.217A5.3,5.3,0,0,1,224.833,19.176ZM224.5,11.6q-1.3,0-1.547,1.723h2.988v-.229a1.467,1.467,0,0,0-.36-1.1A1.434,1.434,0,0,0,224.5,11.6Zm9.554,5.291a1.317,1.317,0,0,0,.967-.338,1.241,1.241,0,0,0,.334-.945h2.777a3.288,3.288,0,0,1-1.121,2.566,4.168,4.168,0,0,1-2.887,1,4.22,4.22,0,0,1-3.27-1.3,5.125,5.125,0,0,1-1.2-3.6v-.123a5.792,5.792,0,0,1,.532-2.544,3.872,3.872,0,0,1,1.534-1.7,4.573,4.573,0,0,1,2.373-.593,4.116,4.116,0,0,1,2.944,1.028,3.647,3.647,0,0,1,1.09,2.786h-2.777a1.626,1.626,0,0,0-.36-1.134,1.244,1.244,0,0,0-.967-.4q-1.151,0-1.345,1.468a10.357,10.357,0,0,0-.062,1.283,4.068,4.068,0,0,0,.343,1.986A1.187,1.187,0,0,0,234.053,16.891Zm8.78-9.765V9.49H244.4v2.057h-1.564V15.9a1.111,1.111,0,0,0,.193.747,1.037,1.037,0,0,0,.765.211,4.345,4.345,0,0,0,.738-.053v2.118a5.466,5.466,0,0,1-1.67.255,3.1,3.1,0,0,1-2.259-.721,2.954,2.954,0,0,1-.729-2.188v-4.72h-1.213V9.49h1.213V7.126Zm2.092,7.031a5.613,5.613,0,0,1,.554-2.536,3.96,3.96,0,0,1,1.591-1.709,4.791,4.791,0,0,1,2.435-.6,4.373,4.373,0,0,1,3.366,1.323,5.076,5.076,0,0,1,1.23,3.6v.105a4.925,4.925,0,0,1-1.235,3.529,4.384,4.384,0,0,1-3.344,1.305,4.434,4.434,0,0,1-3.261-1.217,4.761,4.761,0,0,1-1.327-3.3Zm2.962.185a3.538,3.538,0,0,0,.413,1.934,1.376,1.376,0,0,0,1.222.615q1.582,0,1.617-2.435v-.3q0-2.558-1.635-2.558-1.485,0-1.608,2.206Zm12.5,1.986a.684.684,0,0,0-.4-.606,6.016,6.016,0,0,0-1.5-.475,6.853,6.853,0,0,1-1.828-.646,3.062,3.062,0,0,1-1.1-.971,2.319,2.319,0,0,1-.378-1.31,2.628,2.628,0,0,1,1.081-2.158,4.453,4.453,0,0,1,2.83-.848,4.934,4.934,0,0,1,3.023.853,2.666,2.666,0,0,1,1.143,2.241h-2.971q0-1.143-1.2-1.143a1.194,1.194,0,0,0-.782.259.8.8,0,0,0-.316.646.737.737,0,0,0,.387.642,3.654,3.654,0,0,0,1.235.4,10.671,10.671,0,0,1,1.49.378,2.706,2.706,0,0,1,2.145,2.646,2.491,2.491,0,0,1-1.156,2.118,5.068,5.068,0,0,1-2.993.817,5.172,5.172,0,0,1-2.18-.439,3.645,3.645,0,0,1-1.494-1.2,2.707,2.707,0,0,1-.536-1.591h2.769a1.145,1.145,0,0,0,.439.962,1.808,1.808,0,0,0,1.081.3,1.422,1.422,0,0,0,.91-.246A.787.787,0,0,0,260.385,16.328Zm13.324,2.848a4.889,4.889,0,0,1-3.542-1.305,4.507,4.507,0,0,1-1.354-3.4v-.246a5.84,5.84,0,0,1,.541-2.575,3.955,3.955,0,0,1,1.578-1.727,4.763,4.763,0,0,1,2.461-.611,4.117,4.117,0,0,1,3.164,1.244,4.887,4.887,0,0,1,1.16,3.467v1.151h-5.889a2.135,2.135,0,0,0,.694,1.257,2.066,2.066,0,0,0,1.389.457,2.662,2.662,0,0,0,2.2-.984l1.354,1.6a3.784,3.784,0,0,1-1.569,1.217A5.3,5.3,0,0,1,273.709,19.176Zm-.334-7.576q-1.3,0-1.547,1.723h2.988v-.229a1.467,1.467,0,0,0-.36-1.1A1.434,1.434,0,0,0,273.375,11.6Zm8.253-2.109.1,1.116a3.225,3.225,0,0,1,2.716-1.292,2.713,2.713,0,0,1,2.219.888,4.226,4.226,0,0,1,.76,2.672V19H284.45V13a1.6,1.6,0,0,0-.29-1.059A1.342,1.342,0,0,0,283.1,11.6a1.413,1.413,0,0,0-1.292.686V19h-2.962V9.49Zm15.935,7.4a1.317,1.317,0,0,0,.967-.338,1.241,1.241,0,0,0,.334-.945h2.777a3.288,3.288,0,0,1-1.121,2.566,4.168,4.168,0,0,1-2.887,1,4.22,4.22,0,0,1-3.27-1.3,5.125,5.125,0,0,1-1.2-3.6v-.123A5.792,5.792,0,0,1,293.7,11.6a3.872,3.872,0,0,1,1.534-1.7,4.573,4.573,0,0,1,2.373-.593,4.116,4.116,0,0,1,2.944,1.028,3.647,3.647,0,0,1,1.09,2.786h-2.777A1.626,1.626,0,0,0,298.5,12a1.244,1.244,0,0,0-.967-.4q-1.151,0-1.345,1.468a10.357,10.357,0,0,0-.062,1.283,4.068,4.068,0,0,0,.343,1.986A1.187,1.187,0,0,0,297.563,16.891ZM306.018,19h-2.971V5.5h2.971Zm4.948,0H308V9.49h2.971ZM307.82,7.038A1.322,1.322,0,0,1,308.277,6a1.943,1.943,0,0,1,2.373,0,1.322,1.322,0,0,1,.457,1.037,1.322,1.322,0,0,1-.457,1.037,1.943,1.943,0,0,1-2.373,0A1.322,1.322,0,0,1,307.82,7.038Zm9.571,12.138a4.889,4.889,0,0,1-3.542-1.305,4.507,4.507,0,0,1-1.354-3.4v-.246a5.84,5.84,0,0,1,.541-2.575,3.955,3.955,0,0,1,1.578-1.727,4.763,4.763,0,0,1,2.461-.611,4.117,4.117,0,0,1,3.164,1.244,4.887,4.887,0,0,1,1.16,3.467v1.151H315.51a2.135,2.135,0,0,0,.694,1.257,2.066,2.066,0,0,0,1.389.457,2.662,2.662,0,0,0,2.2-.984l1.354,1.6a3.784,3.784,0,0,1-1.569,1.217A5.3,5.3,0,0,1,317.391,19.176Zm-.334-7.576q-1.3,0-1.547,1.723H318.5v-.229a1.467,1.467,0,0,0-.36-1.1A1.434,1.434,0,0,0,317.057,11.6ZM325.31,9.49l.1,1.116a3.225,3.225,0,0,1,2.716-1.292,2.713,2.713,0,0,1,2.219.888,4.226,4.226,0,0,1,.76,2.672V19h-2.971V13a1.6,1.6,0,0,0-.29-1.059,1.342,1.342,0,0,0-1.055-.338,1.413,1.413,0,0,0-1.292.686V19h-2.962V9.49Zm10.881-2.364V9.49h1.564v2.057h-1.564V15.9a1.111,1.111,0,0,0,.193.747,1.037,1.037,0,0,0,.765.211,4.345,4.345,0,0,0,.738-.053v2.118a5.466,5.466,0,0,1-1.67.255,3.1,3.1,0,0,1-2.259-.721,2.954,2.954,0,0,1-.729-2.188v-4.72h-1.213V9.49h1.213V7.126Zm7.33,12.05a4.889,4.889,0,0,1-3.542-1.305,4.507,4.507,0,0,1-1.354-3.4v-.246a5.84,5.84,0,0,1,.541-2.575,3.955,3.955,0,0,1,1.578-1.727,4.763,4.763,0,0,1,2.461-.611,4.117,4.117,0,0,1,3.164,1.244,4.887,4.887,0,0,1,1.16,3.467v1.151H341.64a2.135,2.135,0,0,0,.694,1.257,2.066,2.066,0,0,0,1.389.457,2.662,2.662,0,0,0,2.2-.984l1.354,1.6a3.784,3.784,0,0,1-1.569,1.217A5.3,5.3,0,0,1,343.521,19.176Zm-.334-7.576q-1.3,0-1.547,1.723h2.988v-.229a1.467,1.467,0,0,0-.36-1.1A1.434,1.434,0,0,0,343.187,11.6ZM353.7,16.328a.684.684,0,0,0-.4-.606,6.016,6.016,0,0,0-1.5-.475,6.853,6.853,0,0,1-1.828-.646,3.062,3.062,0,0,1-1.1-.971,2.319,2.319,0,0,1-.378-1.31,2.628,2.628,0,0,1,1.081-2.158,4.453,4.453,0,0,1,2.83-.848,4.934,4.934,0,0,1,3.023.853,2.666,2.666,0,0,1,1.143,2.241H353.6q0-1.143-1.2-1.143a1.194,1.194,0,0,0-.782.259.8.8,0,0,0-.316.646.737.737,0,0,0,.387.642,3.654,3.654,0,0,0,1.235.4,10.671,10.671,0,0,1,1.49.378,2.706,2.706,0,0,1,2.145,2.646,2.491,2.491,0,0,1-1.156,2.118,5.068,5.068,0,0,1-2.993.817,5.172,5.172,0,0,1-2.18-.439,3.645,3.645,0,0,1-1.494-1.2,2.707,2.707,0,0,1-.536-1.591h2.769a1.145,1.145,0,0,0,.439.962,1.808,1.808,0,0,0,1.081.3,1.422,1.422,0,0,0,.91-.246A.787.787,0,0,0,353.7,16.328Zm6.434-1.38a5.721,5.721,0,0,1,.29-2.026,3.168,3.168,0,0,1,.94-1.288,6.252,6.252,0,0,0,.989-1,1.628,1.628,0,0,0,.338-1q0-1.327-1.143-1.327a1.06,1.06,0,0,0-.853.387,1.645,1.645,0,0,0-.343,1.046h-2.971a3.544,3.544,0,0,1,1.107-2.738,4.415,4.415,0,0,1,3.059-.98,4.587,4.587,0,0,1,3.037.905,3.177,3.177,0,0,1,1.077,2.575,3,3,0,0,1-.29,1.327,4.485,4.485,0,0,1-.932,1.222l-1.011.94a2.378,2.378,0,0,0-.6.848,3.361,3.361,0,0,0-.185,1.1Zm-.36,2.672a1.364,1.364,0,0,1,.47-1.068,1.858,1.858,0,0,1,2.347,0,1.448,1.448,0,0,1,0,2.136,1.858,1.858,0,0,1-2.347,0A1.364,1.364,0,0,1,359.772,17.62Z" transform="translate(600 14465)" fill="#12263f"/>
      <path id="Trazado_122984" data-name="Trazado 122984" d="M33.785,11.57a6.867,6.867,0,0,1-.594,2.945,4.472,4.472,0,0,1-1.7,1.953,5.021,5.021,0,0,1-5.059.008,4.515,4.515,0,0,1-1.719-1.941,6.67,6.67,0,0,1-.617-2.9V11.07A6.831,6.831,0,0,1,24.7,8.113a4.508,4.508,0,0,1,1.711-1.961,5.014,5.014,0,0,1,5.055,0A4.508,4.508,0,0,1,33.18,8.113a6.811,6.811,0,0,1,.605,2.949Zm-2.375-.516a4.787,4.787,0,0,0-.641-2.719,2.263,2.263,0,0,0-3.648-.012,4.732,4.732,0,0,0-.648,2.691v.555a4.847,4.847,0,0,0,.641,2.7,2.243,2.243,0,0,0,3.656.035,4.819,4.819,0,0,0,.641-2.7Zm11.539,1.8a5.07,5.07,0,0,1-.887,3.129,2.843,2.843,0,0,1-2.395,1.176,2.633,2.633,0,0,1-2.07-.891V20.25H35.34V8.547h2.094l.078.828a2.654,2.654,0,0,1,2.141-.984,2.862,2.862,0,0,1,2.43,1.156,5.207,5.207,0,0,1,.867,3.188Zm-2.258-.164a3.327,3.327,0,0,0-.418-1.82,1.361,1.361,0,0,0-1.215-.641,1.479,1.479,0,0,0-1.461.813V14.5a1.5,1.5,0,0,0,1.477.836Q40.691,15.336,40.691,12.688ZM44,12.7a5.013,5.013,0,0,1,.484-2.242A3.546,3.546,0,0,1,45.875,8.93a4.069,4.069,0,0,1,2.113-.539,3.849,3.849,0,0,1,2.793,1.047,4.2,4.2,0,0,1,1.207,2.844l.016.578a4.418,4.418,0,0,1-1.086,3.121,4.209,4.209,0,0,1-5.832,0A4.5,4.5,0,0,1,44,12.8Zm2.258.16a3.16,3.16,0,0,0,.453,1.843,1.628,1.628,0,0,0,2.578.008,3.457,3.457,0,0,0,.461-2.015,3.128,3.128,0,0,0-.461-1.831,1.5,1.5,0,0,0-1.3-.649,1.474,1.474,0,0,0-1.281.646A3.516,3.516,0,0,0,46.254,12.856Zm11.891-2.192a6.134,6.134,0,0,0-.812-.062,1.654,1.654,0,0,0-1.68.867V17H53.395V8.547h2.133l.063,1.008a2.092,2.092,0,0,1,1.883-1.164,2.366,2.366,0,0,1,.7.1Zm4.18-4.2V8.547H63.77V10.2H62.324v4.219a1.007,1.007,0,0,0,.18.672.9.9,0,0,0,.688.2,3.6,3.6,0,0,0,.664-.055v1.711a4.648,4.648,0,0,1-1.367.2,2.156,2.156,0,0,1-2.422-2.4V10.2H58.832V8.547h1.234V6.469Zm7.766,9.672a2.831,2.831,0,0,1-2.312,1.016,2.67,2.67,0,0,1-2.074-.781,3.335,3.335,0,0,1-.73-2.289V8.547H67.23v5.467q0,1.322,1.2,1.322a1.63,1.63,0,0,0,1.578-.8V8.547h2.266V17H70.152Zm5.969-7.594.07.977a2.951,2.951,0,0,1,2.43-1.133,2.453,2.453,0,0,1,2,.789,3.682,3.682,0,0,1,.672,2.359V17H78.973V11.594a1.465,1.465,0,0,0-.312-1.043,1.4,1.4,0,0,0-1.039-.324,1.553,1.553,0,0,0-1.43.813V17H73.934V8.547ZM85.324,17H83.059V8.547h2.266Zm-2.4-10.641a1.112,1.112,0,0,1,.34-.836,1.465,1.465,0,0,1,1.848,0,1.105,1.105,0,0,1,.344.836,1.108,1.108,0,0,1-.348.844,1.448,1.448,0,0,1-1.836,0A1.108,1.108,0,0,1,82.926,6.359Zm3.906,6.352a5.094,5.094,0,0,1,.887-3.148,2.877,2.877,0,0,1,2.426-1.172,2.589,2.589,0,0,1,2.039.922V5h2.266V17H92.41l-.109-.9a2.657,2.657,0,0,1-2.172,1.055,2.869,2.869,0,0,1-2.395-1.176A5.258,5.258,0,0,1,86.832,12.711Zm2.258.168A3.337,3.337,0,0,0,89.5,14.7a1.349,1.349,0,0,0,1.2.634,1.511,1.511,0,0,0,1.477-.884V11.111a1.489,1.489,0,0,0-1.461-.884Q89.09,10.227,89.09,12.879ZM101.1,17a2.507,2.507,0,0,1-.227-.758,2.732,2.732,0,0,1-2.133.914,3,3,0,0,1-2.059-.719,2.312,2.312,0,0,1-.816-1.812,2.389,2.389,0,0,1,1-2.062,4.915,4.915,0,0,1,2.879-.727h1.039v-.484a1.393,1.393,0,0,0-.3-.937,1.183,1.183,0,0,0-.949-.352,1.345,1.345,0,0,0-.895.273.929.929,0,0,0-.324.75H96.051A2.268,2.268,0,0,1,96.5,9.727a3,3,0,0,1,1.281-.98,4.669,4.669,0,0,1,1.859-.355,3.689,3.689,0,0,1,2.48.785,2.747,2.747,0,0,1,.918,2.207v3.664a4.041,4.041,0,0,0,.336,1.82V17ZM99.23,15.43a1.945,1.945,0,0,0,.922-.223,1.462,1.462,0,0,0,.625-.6V13.156h-.844q-1.7,0-1.8,1.172l-.008.133a.9.9,0,0,0,.3.7A1.153,1.153,0,0,0,99.23,15.43Zm5.2-2.719a5.094,5.094,0,0,1,.887-3.148,2.877,2.877,0,0,1,2.426-1.172,2.589,2.589,0,0,1,2.039.922V5h2.266V17H110l-.109-.9a2.657,2.657,0,0,1-2.172,1.055,2.869,2.869,0,0,1-2.395-1.176A5.258,5.258,0,0,1,104.426,12.711Zm2.258.168A3.337,3.337,0,0,0,107.1,14.7a1.349,1.349,0,0,0,1.2.634,1.511,1.511,0,0,0,1.477-.884V11.111a1.489,1.489,0,0,0-1.461-.884Q106.684,10.227,106.684,12.879Zm10.742-.168a5.094,5.094,0,0,1,.887-3.148,2.877,2.877,0,0,1,2.426-1.172,2.589,2.589,0,0,1,2.039.922V5h2.266V17H123l-.109-.9a2.657,2.657,0,0,1-2.172,1.055,2.869,2.869,0,0,1-2.395-1.176A5.258,5.258,0,0,1,117.426,12.711Zm2.258.168A3.337,3.337,0,0,0,120.1,14.7a1.349,1.349,0,0,0,1.2.634,1.511,1.511,0,0,0,1.477-.884V11.111a1.489,1.489,0,0,0-1.461-.884Q119.684,10.227,119.684,12.879Zm11,4.277a4.15,4.15,0,0,1-3.027-1.141,4.054,4.054,0,0,1-1.168-3.039v-.219a5.106,5.106,0,0,1,.492-2.277,3.612,3.612,0,0,1,1.395-1.547,3.914,3.914,0,0,1,2.059-.543,3.508,3.508,0,0,1,2.73,1.094,4.444,4.444,0,0,1,1,3.1v.922h-5.383a2.1,2.1,0,0,0,.66,1.328,2,2,0,0,0,1.395.5,2.437,2.437,0,0,0,2.039-.945l1.109,1.242a3.389,3.389,0,0,1-1.375,1.121A4.511,4.511,0,0,1,130.684,17.156Zm-.258-6.945a1.411,1.411,0,0,0-1.09.455,2.357,2.357,0,0,0-.535,1.3h3.141v-.181a1.681,1.681,0,0,0-.406-1.165A1.456,1.456,0,0,0,130.426,10.211ZM53.234,28.547l.07.977a2.951,2.951,0,0,1,2.43-1.133,2.453,2.453,0,0,1,2,.789,3.682,3.682,0,0,1,.672,2.359V37H56.148V31.594a1.465,1.465,0,0,0-.312-1.043,1.4,1.4,0,0,0-1.039-.324,1.553,1.553,0,0,0-1.43.813V37H51.109V28.547Zm10.773,8.609a4.15,4.15,0,0,1-3.027-1.141,4.054,4.054,0,0,1-1.168-3.039v-.219A5.106,5.106,0,0,1,60.3,30.48,3.612,3.612,0,0,1,61.7,28.934a3.914,3.914,0,0,1,2.059-.543,3.508,3.508,0,0,1,2.73,1.094,4.444,4.444,0,0,1,1,3.1v.922H62.1a2.1,2.1,0,0,0,.66,1.328,2,2,0,0,0,1.395.5,2.437,2.437,0,0,0,2.039-.945L67.3,35.633a3.389,3.389,0,0,1-1.375,1.121A4.511,4.511,0,0,1,64.008,37.156Zm-.258-6.945a1.411,1.411,0,0,0-1.09.455,2.357,2.357,0,0,0-.535,1.3h3.141v-.181a1.681,1.681,0,0,0-.406-1.165A1.456,1.456,0,0,0,63.75,30.211Zm4.688,2.5a4.954,4.954,0,0,1,.926-3.133,3,3,0,0,1,2.5-1.187,2.631,2.631,0,0,1,2.164.953l.094-.8h2.047v8.172a3.613,3.613,0,0,1-.5,1.93,3.236,3.236,0,0,1-1.418,1.25,4.985,4.985,0,0,1-2.141.43,4.635,4.635,0,0,1-1.812-.371A3.217,3.217,0,0,1,68.953,39l1-1.375A2.645,2.645,0,0,0,72,38.57a1.936,1.936,0,0,0,1.4-.48,1.8,1.8,0,0,0,.5-1.363v-.453a2.612,2.612,0,0,1-2.055.883,2.992,2.992,0,0,1-2.465-1.191,4.953,4.953,0,0,1-.941-3.16Zm2.258.168a3.085,3.085,0,0,0,.461,1.8,1.466,1.466,0,0,0,1.266.653,1.568,1.568,0,0,0,1.477-.775V31a1.564,1.564,0,0,0-1.461-.775,1.476,1.476,0,0,0-1.277.665A3.477,3.477,0,0,0,70.7,32.879Zm6.852-.184a5.013,5.013,0,0,1,.484-2.242,3.546,3.546,0,0,1,1.395-1.523,4.069,4.069,0,0,1,2.113-.539,3.849,3.849,0,0,1,2.793,1.047,4.2,4.2,0,0,1,1.207,2.844l.016.578a4.418,4.418,0,0,1-1.086,3.121,4.209,4.209,0,0,1-5.832,0,4.5,4.5,0,0,1-1.09-3.187Zm2.258.16a3.16,3.16,0,0,0,.453,1.843,1.628,1.628,0,0,0,2.578.008,3.457,3.457,0,0,0,.461-2.015,3.128,3.128,0,0,0-.461-1.831,1.5,1.5,0,0,0-1.3-.649,1.474,1.474,0,0,0-1.281.646A3.516,3.516,0,0,0,79.8,32.856Zm10.656,2.48a1.481,1.481,0,0,0,1.016-.344,1.2,1.2,0,0,0,.406-.914H94a2.9,2.9,0,0,1-.469,1.574,3.093,3.093,0,0,1-1.262,1.109,3.949,3.949,0,0,1-1.77.395A3.67,3.67,0,0,1,87.641,36a4.56,4.56,0,0,1-1.047-3.184v-.148a4.508,4.508,0,0,1,1.039-3.117,3.627,3.627,0,0,1,2.852-1.164,3.555,3.555,0,0,1,2.543.9A3.2,3.2,0,0,1,94,31.7H91.883a1.551,1.551,0,0,0-.406-1.072,1.51,1.51,0,0,0-2.223.163,3.333,3.333,0,0,0-.4,1.866v.235a3.375,3.375,0,0,0,.4,1.878A1.377,1.377,0,0,0,90.461,35.336ZM97.672,37H95.406V28.547h2.266Zm-2.4-10.641a1.112,1.112,0,0,1,.34-.836,1.465,1.465,0,0,1,1.848,0,1.193,1.193,0,0,1,0,1.68,1.448,1.448,0,0,1-1.836,0A1.108,1.108,0,0,1,95.273,26.359ZM99.18,32.7a5.013,5.013,0,0,1,.484-2.242,3.546,3.546,0,0,1,1.395-1.523,4.069,4.069,0,0,1,2.113-.539,3.849,3.849,0,0,1,2.793,1.047,4.2,4.2,0,0,1,1.207,2.844l.016.578A4.418,4.418,0,0,1,106.1,35.98a4.209,4.209,0,0,1-5.832,0A4.5,4.5,0,0,1,99.18,32.8Zm2.258.16a3.16,3.16,0,0,0,.453,1.843,1.628,1.628,0,0,0,2.578.008,3.457,3.457,0,0,0,.461-2.015,3.128,3.128,0,0,0-.461-1.831,1.5,1.5,0,0,0-1.3-.649,1.474,1.474,0,0,0-1.281.646A3.516,3.516,0,0,0,101.438,32.856Z" transform="translate(906 14641)" fill="#12263f"/>
      <path id="Trazado_122985" data-name="Trazado 122985" d="M-17.523-1.437A4.068,4.068,0,0,1-19.312-.262a7.492,7.492,0,0,1-2.562.418,5.076,5.076,0,0,1-2.59-.645,4.3,4.3,0,0,1-1.719-1.871A6.585,6.585,0,0,1-26.8-5.242v-.773a6.994,6.994,0,0,1,.574-2.949,4.248,4.248,0,0,1,1.656-1.906,4.771,4.771,0,0,1,2.535-.66,4.751,4.751,0,0,1,3.164.965,4.123,4.123,0,0,1,1.352,2.809H-19.8a2.268,2.268,0,0,0-.691-1.43,2.208,2.208,0,0,0-1.473-.453,2.078,2.078,0,0,0-1.82.9,4.724,4.724,0,0,0-.633,2.672v.727a4.5,4.5,0,0,0,.68,2.7,2.327,2.327,0,0,0,1.992.914,2.6,2.6,0,0,0,1.883-.562V-4.25H-22V-5.977h4.477ZM-10.875,0A2.507,2.507,0,0,1-11.1-.758a2.732,2.732,0,0,1-2.133.914,3,3,0,0,1-2.059-.719,2.312,2.312,0,0,1-.816-1.812,2.389,2.389,0,0,1,1-2.062,4.915,4.915,0,0,1,2.879-.727H-11.2v-.484a1.393,1.393,0,0,0-.3-.937,1.183,1.183,0,0,0-.949-.352,1.345,1.345,0,0,0-.895.273.929.929,0,0,0-.324.75h-2.258a2.268,2.268,0,0,1,.453-1.359,3,3,0,0,1,1.281-.98,4.669,4.669,0,0,1,1.859-.355,3.689,3.689,0,0,1,2.48.785A2.747,2.747,0,0,1-8.93-5.617v3.664a4.041,4.041,0,0,0,.336,1.82V0Zm-1.867-1.57a1.945,1.945,0,0,0,.922-.223,1.462,1.462,0,0,0,.625-.6V-3.844h-.844q-1.7,0-1.8,1.172l-.008.133a.9.9,0,0,0,.3.7A1.153,1.153,0,0,0-12.742-1.57Zm7.625-6.883.07.977a2.951,2.951,0,0,1,2.43-1.133,2.453,2.453,0,0,1,2,.789A3.682,3.682,0,0,1,.055-5.461V0H-2.2V-5.406a1.465,1.465,0,0,0-.312-1.043,1.4,1.4,0,0,0-1.039-.324,1.553,1.553,0,0,0-1.43.813V0H-7.242V-8.453ZM6.664,0a2.507,2.507,0,0,1-.227-.758A2.732,2.732,0,0,1,4.3.156,3,3,0,0,1,2.246-.562,2.312,2.312,0,0,1,1.43-2.375a2.389,2.389,0,0,1,1-2.062A4.915,4.915,0,0,1,5.3-5.164H6.344v-.484a1.393,1.393,0,0,0-.3-.937,1.183,1.183,0,0,0-.949-.352,1.345,1.345,0,0,0-.895.273.929.929,0,0,0-.324.75H1.617A2.268,2.268,0,0,1,2.07-7.273a3,3,0,0,1,1.281-.98,4.669,4.669,0,0,1,1.859-.355,3.689,3.689,0,0,1,2.48.785,2.747,2.747,0,0,1,.918,2.207v3.664a4.041,4.041,0,0,0,.336,1.82V0ZM4.8-1.57a1.945,1.945,0,0,0,.922-.223,1.462,1.462,0,0,0,.625-.6V-3.844H5.5q-1.7,0-1.8,1.172l-.008.133a.9.9,0,0,0,.3.7A1.153,1.153,0,0,0,4.8-1.57Zm5.2-2.719a5.094,5.094,0,0,1,.887-3.148A2.877,2.877,0,0,1,13.3-8.609a2.589,2.589,0,0,1,2.039.922V-12h2.266V0H15.57l-.109-.9A2.657,2.657,0,0,1,13.289.156,2.869,2.869,0,0,1,10.895-1.02,5.258,5.258,0,0,1,9.992-4.289Zm2.258.168A3.337,3.337,0,0,0,12.664-2.3a1.349,1.349,0,0,0,1.2.634,1.511,1.511,0,0,0,1.477-.884V-5.889a1.489,1.489,0,0,0-1.461-.884Q12.25-6.773,12.25-4.121ZM19.008-4.3a5.013,5.013,0,0,1,.484-2.242A3.546,3.546,0,0,1,20.887-8.07,4.069,4.069,0,0,1,23-8.609a3.849,3.849,0,0,1,2.793,1.047A4.2,4.2,0,0,1,27-4.719l.016.578A4.418,4.418,0,0,1,25.93-1.02,3.775,3.775,0,0,1,23.016.156,3.793,3.793,0,0,1,20.1-1.016,4.5,4.5,0,0,1,19.008-4.2Zm2.258.16A3.16,3.16,0,0,0,21.719-2.3a1.5,1.5,0,0,0,1.3.638,1.5,1.5,0,0,0,1.281-.63,3.457,3.457,0,0,0,.461-2.015A3.128,3.128,0,0,0,24.3-6.14,1.5,1.5,0,0,0,23-6.789a1.474,1.474,0,0,0-1.281.646A3.516,3.516,0,0,0,21.266-4.144Z" transform="translate(1168 14656)" fill="#12263f"/>
      <line id="Línea_187" data-name="Línea 187" x2="81" transform="translate(485 14586)" fill="none" stroke="#764cf0" stroke-width="3"/>
      <line id="Línea_188" data-name="Línea 188" x2="81" transform="translate(669 14586)" fill="none" stroke="#764cf0" stroke-width="3"/>
      <line id="Línea_189" data-name="Línea 189" x2="81" transform="translate(852 14586)" fill="none" stroke="#764cf0" stroke-width="3"/>
      <line id="Línea_190" data-name="Línea 190" x2="81" transform="translate(1036 14586)" fill="none" stroke="#764cf0" stroke-width="3"/>
    </g>
  </g>
</svg>
