<svg xmlns="http://www.w3.org/2000/svg" xmlns:xlink="http://www.w3.org/1999/xlink" width="60" height="60" viewBox="0 0 60 60"><defs><clipPath id="a"><rect width="60" height="60" transform="translate(1268 18596)" fill="#26d19e"/></clipPath></defs><g transform="translate(5628 -8186)"><g transform="translate(-6896 -10410)" clip-path="url(#a)"><g transform="translate(1268 18596)"><path d="M39.382,33.992H18.7a4.961,4.961,0,0,0-3.93,1.933l-6.08,7.89v-7.65H1.657V49.042a5.055,5.055,0,0,0,1.681,3.806,4.945,4.945,0,0,0,6.89-.352l6.222-6.409V58.535a.586.586,0,0,0,.586.586H38.319a.586.586,0,0,0,.586-.586V50.829h7.032V40.547a6.555,6.555,0,0,0-6.555-6.555Z" fill="#6bd9e7"/><path d="M26.073,33.871,24.158,50.429a.586.586,0,0,0,.184.5l2.937,2.725a.586.586,0,0,0,.8,0l2.937-2.725a.586.586,0,0,0,.184-.5L29.282,33.871Z" fill="#7a8c98"/><path d="M18.7,33.992a4.967,4.967,0,0,0-.778.063l4.874,4.506a1.135,1.135,0,0,0,1.658-.126l3.225-4.049L30.9,38.435a1.135,1.135,0,0,0,1.658.126L37.5,33.992H18.7Z" fill="#03bed7"/><path d="M23.691,24.491v9.5a7.144,7.144,0,0,0,7.973,0v-9.5Z" fill="#e8ad8c"/><path d="M39.471,5.6H37.895l-.65-1.254a6.425,6.425,0,0,0-5.7-3.469H19.592a6.432,6.432,0,0,0-6.369,7.336l1.605,11.316h25.7L42.076,8.6a2.632,2.632,0,0,0-2.606-3Z" fill="#7a8c98"/><path d="M39.471,5.6H37.895l-.65-1.254a6.425,6.425,0,0,0-5.7-3.469H29.2c3.61,0,4.6,2.744,5.7,4.875l.432.833a.779.779,0,0,0,.692.421h1.1a2.632,2.632,0,0,1,2.606,3l-1.55,9.522h2.344L42.076,8.6a2.631,2.631,0,0,0-2.605-3Z" fill="#596c76"/><path d="M14.727,17.657h25.9A1.846,1.846,0,0,1,42.474,19.5v1.852A1.846,1.846,0,0,1,40.628,23.2h-25.9a1.846,1.846,0,0,1-1.847-1.846V19.5A1.846,1.846,0,0,1,14.727,17.657Z" fill="#e8ad8c"/><path d="M37.306,12.872V24.1a4.712,4.712,0,0,1-4.712,4.713H22.76A4.712,4.712,0,0,1,18.048,24.1V14.051H29.867a3.176,3.176,0,0,0,3.178-3.176v-.291a.338.338,0,0,1,.338-.338h1.3a2.624,2.624,0,0,1,2.624,2.625Z" fill="#e8ad8c"/><path d="M8.9,27.394H6.134a.427.427,0,0,1-.427-.427V23.548a2.025,2.025,0,1,0-4.051,0v13.3H8.9a3.248,3.248,0,0,0,3.248-3.248V30.642A3.248,3.248,0,0,0,8.9,27.394Z" fill="#e8ad8c"/><path d="M35.984,32.257v23.1a.65.65,0,0,0,.65.65h21.06a.65.65,0,0,0,.649-.65v-23.1a.65.65,0,0,0-.649-.65H36.634a.65.65,0,0,0-.65.65Z" fill="#eaf6ff"/><path d="M57.694,31.607H55.35a.65.65,0,0,1,.65.65v23.1a.65.65,0,0,1-.65.65h2.344a.65.65,0,0,0,.649-.65v-23.1A.65.65,0,0,0,57.694,31.607Z" fill="#c4e2ff"/><path d="M49.533,54.412h-4.74a2.013,2.013,0,0,0-2.013,2.013v1.907a.789.789,0,0,0,.789.789h7.188a.789.789,0,0,0,.789-.789V56.425a2.013,2.013,0,0,0-2.013-2.013Z" fill="#e8ad8c"/><path d="M41.342,42.369c.31-.953,1.683-1.391,3.25-1.116a.436.436,0,0,0,.505-.367c.223-1.575,1.064-2.746,2.066-2.746s1.843,1.171,2.066,2.746a.436.436,0,0,0,.505.367c1.567-.274,2.94.163,3.25,1.116s-.544,2.114-1.973,2.813a.436.436,0,0,0-.193.594c.745,1.405.754,2.847-.058,3.436s-2.179.136-3.285-1.007a.436.436,0,0,0-.624,0c-1.106,1.143-2.474,1.6-3.285,1.007s-.8-2.03-.058-3.436a.436.436,0,0,0-.193-.594C41.886,44.483,41.032,43.322,41.342,42.369Z" fill="#fed402"/><path d="M24.57,18.7v-.932a.879.879,0,1,0-1.758,0V18.7a.879.879,0,0,0,1.758,0Z"/><path d="M31.664,19.575a.879.879,0,0,0,.879-.879v-.932a.879.879,0,1,0-1.758,0V18.7A.879.879,0,0,0,31.664,19.575Z"/><path d="M23.991,23.887a5.863,5.863,0,0,0,7.373,0,.879.879,0,1,0-1.1-1.372,4.115,4.115,0,0,1-5.175,0,.879.879,0,0,0-1.1,1.372Z"/><path d="M58.343,47.95a.879.879,0,0,0,.879-.879V32.257a1.531,1.531,0,0,0-1.528-1.529H36.634A1.531,1.531,0,0,0,35.1,32.257v.855H32.543V29.7h.051A5.6,5.6,0,0,0,38.185,24.1V24.08h2.443a2.728,2.728,0,0,0,2.725-2.725V19.5a2.727,2.727,0,0,0-1.584-2.473l1.178-8.3a3.512,3.512,0,0,0-3.475-4H38.43l-.4-.78A7.281,7.281,0,0,0,31.541,0H19.593a7.343,7.343,0,0,0-5.874,2.957,7.266,7.266,0,0,0-1.365,5.381l.232,1.641a.879.879,0,0,0,1.741-.246l-.232-1.641A5.519,5.519,0,0,1,15.131,4a5.577,5.577,0,0,1,4.462-2.246H31.541a5.529,5.529,0,0,1,4.924,2.994l.649,1.254a.879.879,0,0,0,.78.475h1.576a1.753,1.753,0,0,1,1.735,2l-1.177,8.3H38.185V12.872a3.508,3.508,0,0,0-3.5-3.5h-1.3a1.218,1.218,0,0,0-1.217,1.217v.291a2.3,2.3,0,0,1-2.3,2.3H18.048a.879.879,0,0,0-.879.879v2.726H15.326L14.9,13.744a.879.879,0,0,0-1.74.247l.431,3.037A2.728,2.728,0,0,0,12,19.5v1.853a2.728,2.728,0,0,0,2.726,2.725h2.443V24.1A5.6,5.6,0,0,0,22.76,29.7h.051v3.417H18.7a5.886,5.886,0,0,0-4.625,2.276L9.567,41.235V37.678a4.133,4.133,0,0,0,3.461-4.072V30.642A4.131,4.131,0,0,0,8.9,26.515H6.586V23.548a2.9,2.9,0,0,0-5.808,0V49.042a5.922,5.922,0,0,0,1.979,4.466,5.824,5.824,0,0,0,8.108-.406l4.705-4.847c0,1.868,0,9.768,0,10.28A1.466,1.466,0,0,0,17.036,60H38.319a1.466,1.466,0,0,0,1.465-1.465V56.883H41.9v1.449A1.669,1.669,0,0,0,43.569,60h7.188a1.67,1.67,0,0,0,1.668-1.668v-1.45h5.269a1.53,1.53,0,0,0,1.528-1.529V51.172a.879.879,0,0,0-1.758,0v3.953H52.116a2.894,2.894,0,0,0-2.582-1.592h-4.74a2.894,2.894,0,0,0-2.582,1.592H36.862V32.485h20.6V47.071a.879.879,0,0,0,.879.879ZM35.1,35.011l-3.142,2.905a.255.255,0,0,1-.373-.028l-1.7-2.131A9.479,9.479,0,0,0,31.9,34.87h3.2ZM23.451,34.87a9.477,9.477,0,0,0,2.012.886c-1.714,2.075-1.654,2.21-1.879,2.227a.252.252,0,0,1-.193-.068L20.1,34.87Zm3.124,2.311.872-1.095c.077,0,.154,0,.23,0s.154,0,.23,0l.872,1.095,1.527,13.2-2.629,2.439-2.629-2.439ZM40.628,18.536a.968.968,0,0,1,.967.967v1.853a.968.968,0,0,1-.967.967H38.185V18.536Zm-25.9,3.786a.968.968,0,0,1-.968-.967V19.5a.968.968,0,0,1,.968-.967H17.17v3.786H14.727Zm4.2,1.782V14.93h10.94a4.061,4.061,0,0,0,4.049-3.8h.766a1.748,1.748,0,0,1,1.745,1.746V24.1a3.838,3.838,0,0,1-3.833,3.834H22.76A3.838,3.838,0,0,1,18.927,24.1ZM30.785,29.7v3.788a6.143,6.143,0,0,1-6.216,0V29.7ZM2.536,23.548a1.146,1.146,0,0,1,2.293,0v3.419a1.307,1.307,0,0,0,1.305,1.306H8.9a2.372,2.372,0,0,1,2.186,1.456H6.9a.879.879,0,1,0,0,1.758H11.27v1.389H6.9a.879.879,0,1,0,0,1.758h4.13A2.37,2.37,0,0,1,8.9,35.974H2.536ZM44.793,55.291h4.74a1.135,1.135,0,0,1,1.134,1.134v1.817H43.659V56.425A1.135,1.135,0,0,1,44.793,55.291Zm-6.767,1.592v1.359h-20.7V44.1a.879.879,0,0,0-1.758,0v1.634L9.584,51.9a4.046,4.046,0,0,1-5.667.289,4.165,4.165,0,0,1-1.381-3.146V37.732H7.809v6.083s0,0,0,.007v2.727a.879.879,0,1,0,1.758,0V44.114l5.9-7.653a4.106,4.106,0,0,1,2.192-1.453L22.2,39.2a2.006,2.006,0,0,0,2.342.283L23.285,50.33a1.474,1.474,0,0,0,.459,1.241L26.681,54.3a1.472,1.472,0,0,0,1.992,0l2.938-2.726a1.473,1.473,0,0,0,.458-1.241l-1.254-10.84a2.009,2.009,0,0,0,2.341-.282l1.947-1.8V55.353a1.531,1.531,0,0,0,1.529,1.529h1.392Z"/><path d="M53.82,42.1c-.412-1.267-1.941-1.965-3.8-1.772-.391-1.825-1.526-3.065-2.859-3.065S44.695,38.5,44.3,40.325c-1.857-.193-3.386.5-3.8,1.772s.416,2.731,2.031,3.666c-.757,1.706-.567,3.376.512,4.16a2.269,2.269,0,0,0,1.357.421,4.288,4.288,0,0,0,2.758-1.22c1.389,1.247,3.036,1.582,4.114.8s1.269-2.453.512-4.16C53.4,44.828,54.232,43.365,53.82,42.1Zm-3.2,2.3a1.316,1.316,0,0,0-.583,1.795c.563,1.062.559,2.054.2,2.313s-1.3-.043-2.137-.907a1.316,1.316,0,0,0-1.887,0c-.836.864-1.78,1.167-2.137.907s-.361-1.251.2-2.313a1.315,1.315,0,0,0-.583-1.795c-1.08-.529-1.66-1.333-1.523-1.753s1.078-.73,2.262-.522a1.316,1.316,0,0,0,1.527-1.109c.169-1.191.755-1.99,1.2-1.99s1.027.8,1.2,1.99a1.316,1.316,0,0,0,1.527,1.109c1.184-.208,2.126.1,2.262.522s-.443,1.224-1.523,1.753Z"/></g></g></g></svg>