<svg xmlns="http://www.w3.org/2000/svg" xmlns:xlink="http://www.w3.org/1999/xlink" width="101" height="101" viewBox="0 0 101 101">
  <defs>
    <clipPath id="clip-path">
      <rect id="Rectángulo_34630" data-name="Rectángulo 34630" width="101" height="101" transform="translate(224 433)" fill="#ffd41c" stroke="#707070" stroke-width="1"/>
    </clipPath>
  </defs>
  <g id="Enmascarar_grupo_208" data-name="Enmascarar grupo 208" transform="translate(-224 -433)" clip-path="url(#clip-path)">
    <g id="foto" transform="translate(224 433)">
      <g id="Grupo_93556" data-name="Grupo 93556">
        <path id="Trazado_120411" data-name="Trazado 120411" d="M74.355,9.319c-.4-1.115-.973-2.156-2.155-2.156H49.184C48,7.164,47.432,8.2,47.029,9.319L44.936,15.1l16.22,1.86L76.448,15.1Z" fill="#7e707d" fill-rule="evenodd"/>
      </g>
      <g id="Grupo_93557" data-name="Grupo 93557">
        <path id="Trazado_120412" data-name="Trazado 120412" d="M76.448,15.1,74.355,9.319c-.4-1.115-.973-2.156-2.155-2.156H63.925c1.189,0,1.757,1.041,2.155,2.156L68.173,15.1Z" fill="#6a5c6b" fill-rule="evenodd"/>
      </g>
      <g id="Grupo_93558" data-name="Grupo 93558">
        <path id="Trazado_120413" data-name="Trazado 120413" d="M27.784,16.963V10.047A2.056,2.056,0,0,0,25.73,7.994H19.139a2.055,2.055,0,0,0-2.047,2.053v6.916Z" fill="#7e707d" fill-rule="evenodd"/>
      </g>
      <g id="Grupo_93559" data-name="Grupo 93559">
        <path id="Trazado_120414" data-name="Trazado 120414" d="M99.521,39.342V19.17A4.075,4.075,0,0,0,95.46,15.1H25.924V39.342Z" fill="#a6e0fa" fill-rule="evenodd"/>
      </g>
      <g id="Grupo_93560" data-name="Grupo 93560">
        <path id="Trazado_120415" data-name="Trazado 120415" d="M99.521,67.318V48h-73.6V71.384H95.46A4.075,4.075,0,0,0,99.521,67.318Z" fill="#a6e0fa" fill-rule="evenodd"/>
      </g>
      <g id="Grupo_93561" data-name="Grupo 93561">
        <path id="Trazado_120416" data-name="Trazado 120416" d="M83.142,37.483a21.365,21.365,0,1,0,.916,6.188A21.308,21.308,0,0,0,83.142,37.483Z" fill="#7e707d" fill-rule="evenodd"/>
      </g>
      <g id="Grupo_93562" data-name="Grupo 93562">
        <path id="Trazado_120417" data-name="Trazado 120417" d="M83.142,49.858A21.314,21.314,0,0,0,60.49,22.485,21.319,21.319,0,0,1,77.625,37.351a1.18,1.18,0,0,1,.04.131,21.373,21.373,0,0,1-.04,12.245,1.141,1.141,0,0,1-.04.131A21.315,21.315,0,0,1,59.5,64.724a21.963,21.963,0,0,0,3.253.245A21.3,21.3,0,0,0,83.142,49.858Z" fill="#6a5c6b" fill-rule="evenodd"/>
      </g>
      <g id="Grupo_93563" data-name="Grupo 93563">
        <path id="Trazado_120418" data-name="Trazado 120418" d="M99.521,19.17A4.075,4.075,0,0,0,95.46,15.1H88.607a4.08,4.08,0,0,1,4.066,4.066V37.483h6.847Z" fill="#75cef9" fill-rule="evenodd"/>
      </g>
      <g id="Grupo_93564" data-name="Grupo 93564">
        <path id="Trazado_120419" data-name="Trazado 120419" d="M99.521,67.318V49.858H92.673v17.46a4.083,4.083,0,0,1-4.06,4.066H95.46A4.075,4.075,0,0,0,99.521,67.318Z" fill="#75cef9" fill-rule="evenodd"/>
      </g>
      <g id="Grupo_93565" data-name="Grupo 93565">
        <path id="Trazado_120420" data-name="Trazado 120420" d="M76.283,43.67a13.517,13.517,0,1,0-1.5,6.188,13.472,13.472,0,0,0,1.5-6.188Z" fill="#eff6ff" fill-rule="evenodd"/>
      </g>
      <g id="Grupo_93566" data-name="Grupo 93566">
        <path id="Trazado_120421" data-name="Trazado 120421" d="M76.283,43.67A13.532,13.532,0,0,0,58.926,30.692a13.535,13.535,0,0,1,9.611,6.791c.068.119.131.245.2.364a13.606,13.606,0,0,1,.182,12.012c-.063.119-.119.245-.182.364a13.572,13.572,0,0,1-8.206,6.791,13.553,13.553,0,0,0,14.258-7.154,13.47,13.47,0,0,0,1.5-6.188Z" fill="#d9eeff" fill-rule="evenodd"/>
      </g>
      <g id="Grupo_93567" data-name="Grupo 93567">
        <path id="Trazado_120422" data-name="Trazado 120422" d="M42.371,49.858a21.365,21.365,0,0,1,0-12.376H27.784l-3.1,5.249,3.1,7.126Z" fill="#ffbc85" fill-rule="evenodd"/>
      </g>
      <g id="Grupo_93568" data-name="Grupo 93568">
        <path id="Trazado_120423" data-name="Trazado 120423" d="M99.521,49.858V37.483H83.142a21.365,21.365,0,0,1,0,12.376H99.521Z" fill="#ffbc85" fill-rule="evenodd"/>
      </g>
      <g id="Grupo_93569" data-name="Grupo 93569">
        <path id="Trazado_120424" data-name="Trazado 120424" d="M99.521,48V37.483H92.673V49.858h6.847Z" fill="#f5a96c" fill-rule="evenodd"/>
      </g>
      <g id="Grupo_93570" data-name="Grupo 93570">
        <path id="Trazado_120425" data-name="Trazado 120425" d="M27.784,37.483V15.1H17.092c-2.525,0-4.7,1.28-4.7,4.066V29.634l4.771,13.1c.216.6-3.97,11.937-4.771,13.484v11.1a4.075,4.075,0,0,0,4.06,4.066H27.784v-33.9Z" fill="#fde588" fill-rule="evenodd"/>
      </g>
      <g id="Grupo_93571" data-name="Grupo 93571">
        <path id="Trazado_120426" data-name="Trazado 120426" d="M19.816,55.119V30.732a1.1,1.1,0,0,0-1.1-1.1H12.394V56.217h6.324A1.1,1.1,0,0,0,19.816,55.119Z" fill="#7e707d" fill-rule="evenodd"/>
      </g>
      <g id="Grupo_93572" data-name="Grupo 93572">
        <path id="Trazado_120427" data-name="Trazado 120427" d="M27.784,37.483V15.1H23.029V71.384h4.754v-33.9Z" fill="#fdd76f" fill-rule="evenodd"/>
      </g>
      <g id="Grupo_93573" data-name="Grupo 93573">
        <path id="Trazado_120428" data-name="Trazado 120428" d="M27.784,10.047A2.056,2.056,0,0,0,25.73,7.994H20.982a2.055,2.055,0,0,1,2.047,2.053V15.1h4.754V10.047Z" fill="#6a5c6b" fill-rule="evenodd"/>
      </g>
      <g id="Grupo_93574" data-name="Grupo 93574">
        <path id="Trazado_120429" data-name="Trazado 120429" d="M51.539,82.412,44.89,48.146a3.736,3.736,0,0,0-4.362-2.952L4.495,52.184a3.733,3.733,0,0,0-2.946,4.368L8.191,90.823a3.742,3.742,0,0,0,4.368,2.946l36.034-6.99a3.733,3.733,0,0,0,2.946-4.368Z" fill="#eff6ff" fill-rule="evenodd"/>
      </g>
      <g id="Grupo_93575" data-name="Grupo 93575">
        <path id="Trazado_120430" data-name="Trazado 120430" d="M15.232,85.665l27.44-5.323c.677-.131,1.154-.654,1.052-1.16l-1.973-9.913-1.445-7.251-4.925.956c-4.129.8-6.375,1.854-8.019,3.014A18.929,18.929,0,0,0,25.5,67.5c-.654.586-1.291,1.177-2.053,1.769-2.082,1.609-5.1,3.179-11.869,4.391l1.45,7.246.79,4.078a1.136,1.136,0,0,0,1.411.682Z" fill="#a6e0fa" fill-rule="evenodd"/>
      </g>
      <g id="Grupo_93576" data-name="Grupo 93576">
        <path id="Trazado_120431" data-name="Trazado 120431" d="M23.871,71.384c.762-.591,1.4-1.189,2.053-1.774a20.623,20.623,0,0,1,1.86-1.513c1.644-1.155,3.9-2.207,8.025-3.008l4.919-.956L38.7,53.919a1.139,1.139,0,0,0-1.41-.683l-9.5,1.843-1.86.364L23.029,56,12.394,58.065l-2.554.495c-.677.131-1.149.654-1.052,1.16L12,75.775c6.773-1.217,9.788-2.787,11.869-4.391Z" fill="#fde588" fill-rule="evenodd"/>
      </g>
      <g id="Grupo_93577" data-name="Grupo 93577">
        <path id="Trazado_120432" data-name="Trazado 120432" d="M40.727,64.133,38.7,53.919a1.139,1.139,0,0,0-1.41-.683l-4.157.808a1.126,1.126,0,0,1,1.393.688l2.036,10.209Z" fill="#fdd76f" fill-rule="evenodd"/>
      </g>
      <g id="Grupo_93578" data-name="Grupo 93578">
        <path id="Trazado_120433" data-name="Trazado 120433" d="M42.172,71.384l-1.445-7.251-4.169.808,1.28,6.444.165.808,1.553,7.8c.1.506-.375,1.029-1.052,1.16l4.169-.808c.677-.131,1.154-.654,1.052-1.16Z" fill="#75cef9" fill-rule="evenodd"/>
      </g>
      <g id="Grupo_93579" data-name="Grupo 93579">
        <path id="Trazado_120434" data-name="Trazado 120434" d="M46.75,57.724l-1.86-9.577A1.137,1.137,0,0,0,44.862,48a3.748,3.748,0,0,0-3.355-2.861,3.792,3.792,0,0,0-.978.057L31.52,46.946a3.739,3.739,0,0,1,4.351,2.912c0,.011.006.023.006.034l.677,3.486.734-.142a1.139,1.139,0,0,1,1.41.683l2.03,10.214,1.445,7.251,1.553,7.8c.1.506-.375,1.029-1.052,1.16l-.859.165.711,3.657A3.741,3.741,0,0,1,39.6,88.526l9-1.746a3.733,3.733,0,0,0,2.946-4.368L49.4,71.384Z" fill="#d9eeff" fill-rule="evenodd"/>
      </g>
      <g id="Grupo_93580" data-name="Grupo 93580">
        <path id="Trazado_120435" data-name="Trazado 120435" d="M89.079,21.523H84.387a1.479,1.479,0,0,0,0,2.959h4.692a1.479,1.479,0,0,0,0-2.959Z"/>
        <path id="Trazado_120436" data-name="Trazado 120436" d="M62.753,28.661A15.007,15.007,0,1,0,77.763,43.67,15.023,15.023,0,0,0,62.753,28.661Zm0,27.054A12.048,12.048,0,1,1,74.8,43.67a12.059,12.059,0,0,1-12.05,12.045Z"/>
        <path id="Trazado_120437" data-name="Trazado 120437" d="M95.46,13.624H77.486l-1.74-4.809c-.281-.774-1.134-3.131-3.546-3.131H49.184c-2.412,0-3.266,2.357-3.547,3.132L43.9,13.624H29.263V10.047a3.536,3.536,0,0,0-3.532-3.532H19.139a3.534,3.534,0,0,0-3.527,3.532v3.641a5.553,5.553,0,0,0-4.7,5.482V49.432l-6.7,1.3A5.21,5.21,0,0,0,.1,56.834L6.74,91.107a5.212,5.212,0,0,0,6.1,4.114l14.451-2.8a1.479,1.479,0,1,0-.564-2.9l-14.448,2.8a2.254,2.254,0,0,1-2.636-1.774L3,56.269a2.248,2.248,0,0,1,1.775-2.632l36.032-6.989a2.257,2.257,0,0,1,2.63,1.781L50.086,82.7a2.248,2.248,0,0,1-1.775,2.632l-14.457,2.8a1.48,1.48,0,0,0,.563,2.905l14.458-2.8a5.21,5.21,0,0,0,4.115-6.1l-1.8-9.266H67.707a1.479,1.479,0,0,0,0-2.959H50.619L49.06,61.87A22.778,22.778,0,0,0,84.207,51.338H98.041v15.98a2.587,2.587,0,0,1-2.581,2.587H74.952a1.479,1.479,0,0,0,0,2.959H95.46A5.549,5.549,0,0,0,101,67.318V19.17a5.549,5.549,0,0,0-5.54-5.546Zm-47.04-3.8c.284-.783.541-1.18.764-1.18H72.2c.278,0,.569.642.764,1.179l1.376,3.8H47.044ZM39.976,43.67c0,.041,0,.083,0,.124L29.263,45.873V38.962h11.2a22.791,22.791,0,0,0-.49,4.708Zm-21.4-33.623a.578.578,0,0,1,.568-.573H25.73a.574.574,0,0,1,.573.573v3.577H18.571V10.047Zm-4.7,9.122a2.587,2.587,0,0,1,2.581-2.587H26.3V46.447l-5.009.972V30.732a2.58,2.58,0,0,0-2.577-2.577H13.874Zm0,11.944h4.463V47.992l-4.463.866ZM62.753,63.49a19.824,19.824,0,0,1-14.631-6.454l-1.779-9.169a5.162,5.162,0,0,0-2.2-3.323,5.262,5.262,0,0,0-1.206-.606c0-.089,0-.179,0-.268A19.821,19.821,0,1,1,62.753,63.49ZM98.041,48.379h-13a22.842,22.842,0,0,0,0-9.416H98.041Zm0-12.375H84.208a22.779,22.779,0,0,0-42.9,0H29.263V16.583h66.2a2.587,2.587,0,0,1,2.581,2.587Z"/>
        <path id="Trazado_120438" data-name="Trazado 120438" d="M44.82,80.6a2.254,2.254,0,0,0,.356-1.706L40.147,53.625a2.574,2.574,0,0,0-3.142-1.842L9.56,57.107a2.566,2.566,0,0,0-2.222,2.9l5.031,25.25a2.262,2.262,0,0,0,.973,1.448,2.819,2.819,0,0,0,1.58.467,3.119,3.119,0,0,0,.593-.057l27.439-5.323a2.9,2.9,0,0,0,1.866-1.2ZM13.167,74.046,10.347,59.968l27-5.237,1.638,8.233-3.462.672c-6.6,1.28-8.8,3.258-10.915,5.17-2.054,1.852-4.175,3.764-11.445,5.24Zm2,10.124-.689-3.555-.734-3.667C21.822,75.3,24.351,73.026,26.593,71c1.986-1.791,3.7-3.339,9.5-4.463l3.476-.675,2.6,13.067Z"/>
      </g>
    </g>
  </g>
</svg>
