<svg xmlns="http://www.w3.org/2000/svg" xmlns:xlink="http://www.w3.org/1999/xlink" width="85" height="103.473" viewBox="0 0 85 103.473"><defs><clipPath id="a"><rect width="67" height="67" transform="translate(189 4865.382)" fill="#ffd41c"/></clipPath></defs><g transform="translate(-1020 -13522)"><rect width="85" height="103.473" transform="translate(1020 13522)" fill="#26d19e"/><g transform="translate(840 8675.618)" clip-path="url(#a)"><g transform="translate(189 4865.382)"><path d="M23.718,53.857H43.282V66.019H23.718Z" fill="#a2f4c1"/><path d="M23.718,53.857H43.282V66.019H23.718Z" fill="#a2f4c1"/><path d="M40.109,53.857h3.173V66.019H40.109Z" fill="#78d0b1"/><path d="M39.052,49.627h4.23v4.23h-4.23Z" fill="#f1d0a5"/><path d="M23.718,49.627h4.23v4.23h-4.23Z" transform="translate(51.666 103.484) rotate(180)" fill="#f1d0a5"/><circle cx="4.891" cy="4.891" r="4.891" transform="translate(28.609 30.063)" fill="#f1d0a5"/><path d="M35.779,30.626a4.891,4.891,0,0,1-6.606,6.606,4.891,4.891,0,1,0,6.606-6.606Z" fill="#f1b986"/><path d="M37.994,39.845H29.006a5.288,5.288,0,0,0-5.288,5.288v4.494h4.23v4.23h11.1v-4.23h4.23V45.133a5.288,5.288,0,0,0-5.288-5.288Z" fill="#80b4fb"/><path d="M40.061,40.264a12.243,12.243,0,0,1-3.427,6.284,11.589,11.589,0,0,1-8.686,3.588v3.721h11.1v-4.23h4.23V45.133a5.289,5.289,0,0,0-3.221-4.868Z" fill="#61a2f9"/><path d="M4.154,59.145H23.718v6.874H4.154Z" fill="#e278b1"/><path d="M20.545,59.145h3.173v6.874H20.545Z" fill="#dd5ca2"/><path d="M19.488,54.915h4.23v4.23h-4.23Z" fill="#f1d0a5"/><path d="M4.154,54.915h4.23v4.23H4.154Z" transform="translate(12.538 114.059) rotate(180)" fill="#f1d0a5"/><circle cx="4.891" cy="4.891" r="4.891" transform="translate(9.045 35.351)" fill="#f1d0a5"/><path d="M16.215,35.914A4.891,4.891,0,0,1,9.608,42.52a4.891,4.891,0,1,0,6.606-6.606Z" fill="#f1b986"/><path d="M18.43,45.133H9.442A5.288,5.288,0,0,0,4.154,50.42v4.494h4.23v4.23h11.1v-4.23h4.23V50.42A5.287,5.287,0,0,0,18.43,45.133Z" fill="#80b4fb"/><path d="M20.5,45.552a12.243,12.243,0,0,1-3.427,6.284,11.589,11.589,0,0,1-8.686,3.588v3.721h11.1v-4.23h4.23V50.42A5.289,5.289,0,0,0,20.5,45.552Z" fill="#61a2f9"/><path d="M43.282,60.467H62.846v5.552H43.282Z" fill="#ffe07d"/><path d="M59.673,60.467h3.173v5.552H59.673Z" fill="#ffd064"/><path d="M58.616,56.237h4.23v4.23h-4.23Z" fill="#f1d0a5"/><path d="M43.282,56.237h4.23v4.23h-4.23Z" transform="translate(90.794 116.703) rotate(180)" fill="#f1d0a5"/><circle cx="4.891" cy="4.891" r="4.891" transform="translate(48.173 36.673)" fill="#f1d0a5"/><path d="M55.343,37.236a4.891,4.891,0,0,1-6.606,6.606,4.891,4.891,0,1,0,6.606-6.606Z" fill="#f1b986"/><path d="M57.558,46.455H48.57a5.288,5.288,0,0,0-5.288,5.288v4.494h4.23v4.23h11.1v-4.23h4.23V51.742A5.288,5.288,0,0,0,57.558,46.455Z" fill="#80b4fb"/><path d="M59.625,46.874A12.243,12.243,0,0,1,56.2,53.158a11.589,11.589,0,0,1-8.686,3.588v3.721h11.1v-4.23h4.23V51.742a5.289,5.289,0,0,0-3.221-4.868Z" fill="#61a2f9"/><path d="M42.753,7.327H33.5V.981h9.253L41.431,4.154Z" fill="#ffe07d"/><circle cx="2.115" cy="2.115" r="2.115" transform="translate(31.385 11.028)" fill="#e278b1"/><path d="M63.827,51.742a6.276,6.276,0,0,0-6.269-6.269h-.117a5.872,5.872,0,1,0-8.754,0H48.57a6.245,6.245,0,0,0-4.306,1.719V45.132A6.275,6.275,0,0,0,38,38.864h-.118a5.872,5.872,0,1,0-8.754,0H29a6.275,6.275,0,0,0-6.268,6.268v.739a6.245,6.245,0,0,0-4.306-1.719h-.117a5.872,5.872,0,1,0-8.754,0H9.441A6.276,6.276,0,0,0,3.173,50.42v15.6A.981.981,0,0,0,4.153,67h9.059a.981.981,0,0,0,0-1.963H5.135V60.126h17.6v4.911H17.793a.981.981,0,0,0,0,1.963H54.977a.981.981,0,0,0,0-1.963H44.263V61.448h17.6v3.589H59.557a.981.981,0,0,0,0,1.963h3.29a.981.981,0,0,0,.981-.981ZM33.5,31.044a3.91,3.91,0,1,1-3.91,3.91,3.914,3.914,0,0,1,3.91-3.91ZM49.154,41.564a3.91,3.91,0,1,1,3.91,3.91A3.914,3.914,0,0,1,49.154,41.564ZM42.3,52.876H40.034V50.609H42.3ZM24.7,45.132A4.31,4.31,0,0,1,29,40.827h8.99A4.31,4.31,0,0,1,42.3,45.132v3.514H40.033V46.983a.981.981,0,0,0-1.963,0v5.893h-.864a.981.981,0,0,0,0,1.963H42.3v10.2H24.7v-10.2h7.928a.981.981,0,0,0,0-1.963h-3.7V46.983a.981.981,0,0,0-1.963,0v1.662H24.7Zm2.266,7.744H24.7V50.609h2.267ZM10.026,40.242a3.91,3.91,0,1,1,3.91,3.91A3.914,3.914,0,0,1,10.026,40.242ZM5.135,55.9H7.4v2.267H5.135Zm4.23-3.625a.981.981,0,0,0-1.963,0v1.662H5.135V50.42a4.311,4.311,0,0,1,4.306-4.306H18.43a4.311,4.311,0,0,1,4.306,4.306v3.513H20.469V52.271a.981.981,0,0,0-1.963,0v5.892H9.365Zm11.1,5.892V55.9h2.267v2.267Zm23.794-.945h2.267v2.267H44.263Zm4.23-3.625a.981.981,0,0,0-1.963,0v1.662H44.263V51.742a4.311,4.311,0,0,1,4.306-4.306h8.989a4.311,4.311,0,0,1,4.306,4.306v3.513H59.6V53.593a.981.981,0,0,0-1.963,0v5.892H48.493V53.593Zm11.1,5.892V57.218h2.267v2.267Z"/><path d="M33.5,16.239a3.1,3.1,0,0,0,.981-6.033v-1.9h8.272a.982.982,0,0,0,.906-1.359l-1.165-2.8,1.165-2.8A.982.982,0,0,0,42.753,0H33.5a.981.981,0,0,0-.981.981v9.225a3.1,3.1,0,0,0,.981,6.033Zm.981-14.276h6.8l-.756,1.814a.981.981,0,0,0,0,.755l.756,1.814h-6.8ZM33.5,12.009a1.134,1.134,0,1,1-1.134,1.134A1.135,1.135,0,0,1,33.5,12.009Z"/><path d="M31.682,22.694l.836-.836v3.976a.981.981,0,0,0,1.963,0V21.857l.836.836a.982.982,0,1,0,1.388-1.388l-2.512-2.512a.982.982,0,0,0-1.388,0l-2.512,2.512a.981.981,0,0,0,1.388,1.388Z"/><path d="M39.525,16.315v3.552a.981.981,0,0,0,1.963,0V18.685l10.6,10.6v3.163a.981.981,0,1,0,1.963,0V28.874a.982.982,0,0,0-.287-.694L42.876,17.3h1.182a.981.981,0,0,0,0-1.963H40.506a.981.981,0,0,0-.981.981Z"/><path d="M13.936,33.424a.981.981,0,0,0,.981-.981V29.28l10.6-10.6v1.182a.981.981,0,0,0,1.963,0V16.315a.981.981,0,0,0-.981-.981H22.942a.981.981,0,0,0,0,1.963h1.182L13.242,28.179a.982.982,0,0,0-.287.694v3.569a.981.981,0,0,0,.981.982Z"/></g></g></g></svg>