<svg xmlns="http://www.w3.org/2000/svg" xmlns:xlink="http://www.w3.org/1999/xlink" width="33" height="33" viewBox="0 0 33 33"><defs><clipPath id="a"><rect width="33" height="33" transform="translate(265 18888)" fill="#26d19e"/></clipPath></defs><g transform="translate(-265 -21240.902)"><g transform="translate(0 2352.902)" clip-path="url(#a)"><g transform="translate(265 18888)"><path d="M28.215,12.272l-.142-1.418.142-.221-.237-2.544-.413-.256H24.778l-.338.256L24.2,10.633l.149.165L24.2,12.345l-.173.14-.621,6.656.306.228h5.027l.268-.228-.621-6.656Z" fill="#dbedff"/><path d="M25.984,12.484l.173-.14.149-1.547-.149-.165.237-2.544.338-.256H24.778l-.338.256L24.2,10.633l.149.165L24.2,12.345l-.173.14-.621,6.656.306.228h1.955l-.306-.228Z" fill="#b5dcff"/><path d="M30.861,19.14H21.2l-.5.488V30.757H31.073l.148-.132V19.5A.359.359,0,0,0,30.861,19.14Z" fill="#8479c2"/><path d="M23.408,19.5a.359.359,0,0,1,.359-.359H21.2l-.5.488V30.757h2.86l-.148-.132Z" fill="#6e60b8"/><path d="M28.171,6.238H24.246a.336.336,0,0,0-.336.336V7.753a.336.336,0,0,0,.336.336h3.925a.336.336,0,0,0,.336-.336V6.574A.336.336,0,0,0,28.171,6.238Z" fill="#b5dcff"/><path d="M25.8,7.753V6.574a.336.336,0,0,1,.336-.336H24.246a.336.336,0,0,0-.336.336V7.753a.336.336,0,0,0,.336.336h1.891A.336.336,0,0,1,25.8,7.753Z" fill="#8bcaff"/><path d="M25.632,1.672a.288.288,0,0,1-.318-.158A1.89,1.89,0,0,0,22.355.977a.286.286,0,0,1-.387,0,1.886,1.886,0,0,0-2.549,0,.286.286,0,0,1-.387,0,1.886,1.886,0,1,0,0,2.781.286.286,0,0,1,.387,0,1.886,1.886,0,0,0,2.549,0,.286.286,0,0,1,.387,0,1.887,1.887,0,0,0,2.347.163.29.29,0,0,1,.357.015,1.306,1.306,0,1,0,.572-2.261Z" fill="#dbedff"/><path d="M25.059,2.467a.29.29,0,0,0-.357-.015,1.887,1.887,0,0,1-2.347-.163.286.286,0,0,0-.387,0,1.886,1.886,0,0,1-2.549,0,.286.286,0,0,0-.387,0,1.9,1.9,0,0,1-3.019-.657,1.893,1.893,0,0,0,3.019,2.124.286.286,0,0,1,.387,0,1.886,1.886,0,0,0,2.549,0,.286.286,0,0,1,.387,0,1.887,1.887,0,0,0,2.347.163.29.29,0,0,1,.357.015,1.308,1.308,0,0,0,2.161-.986A1.29,1.29,0,0,0,27,2.218a1.318,1.318,0,0,1-1.938.25Z" fill="#b5dcff"/><path d="M24.029,12.484h4.359l-.173-1.851H24.2Z" fill="#f27182"/><path d="M24.2,10.633l-.173,1.851h1.955l.173-1.851Z" fill="#ed5469"/><path d="M23.322,28.771H29.1v1.938H23.322Z" fill="#00d2fc"/><path d="M23.322,28.771h2.716v1.938H23.322Z" fill="#00c2fb"/><path d="M23.322,25.231H29.1v1.938H23.322Z" fill="#00d2fc"/><path d="M23.322,25.231h2.716v1.938H23.322Z" fill="#00c2fb"/><path d="M20.627,15.927l-5.685,2.862a.393.393,0,0,0-.216.351l-.218.228V30.757h6.424l.265-.132V16.278a.393.393,0,0,0-.57-.351Z" fill="#ffc365"/><path d="M23.322,27.085H29.1v1.77H23.322Z" fill="#62ddfc"/><path d="M23.322,27.085h2.716v1.77H23.322Z" fill="#00d2fc"/><path d="M29.009,23.364h-5.6a.3.3,0,0,1-.086-.014v1.966H29.1V23.35A.3.3,0,0,1,29.009,23.364Z" fill="#62ddfc"/><path d="M26,23.364H23.362a.078.078,0,0,1-.041-.014v1.966h2.716V23.35A.077.077,0,0,1,26,23.364Z" fill="#00d2fc"/><path d="M29.009,21.707h-5.6a.336.336,0,0,0-.336.336v1.179a.336.336,0,0,0,.336.336h5.6a.336.336,0,0,0,.336-.336V22.043a.336.336,0,0,0-.336-.336Z" fill="#dbedff"/><path d="M25.7,23.222V22.043a.336.336,0,0,1,.336-.336h-2.63a.336.336,0,0,0-.336.336v1.179a.336.336,0,0,0,.336.336h2.63A.336.336,0,0,1,25.7,23.222Z" fill="#b5dcff"/><path d="M16.537,19.766a.393.393,0,0,1,.216-.351L21.2,17.178v-.9a.393.393,0,0,0-.569-.351l-5.685,2.862a.393.393,0,0,0-.216.351V30.624h1.811V19.766Z" fill="#ffa90f"/><path d="M14.157,15.927,8.472,18.789a.393.393,0,0,0-.216.351l-.279.228V30.928h6.252l.5-.3V16.278a.393.393,0,0,0-.569-.351Z" fill="#ffc365"/><path d="M10.067,19.766a.393.393,0,0,1,.216-.351l4.443-2.237v-.9a.393.393,0,0,0-.569-.351L8.472,18.789a.393.393,0,0,0-.216.351V30.624h1.811V19.766Z" fill="#ffa90f"/><path d="M7.687,15.927,2,18.789a.393.393,0,0,0-.216.351V30.624h6.47V16.278a.393.393,0,0,0-.569-.351Z" fill="#ffc365"/><path d="M3.6,19.766a.393.393,0,0,1,.216-.351l4.443-2.237v-.9a.393.393,0,0,0-.569-.351L2,18.789a.393.393,0,0,0-.216.351V30.624H3.6V19.766Z" fill="#ffa90f"/><path d="M32.052,30.56H.954a.467.467,0,0,0-.467.467v1.019a.467.467,0,0,0,.467.467h31.1a.467.467,0,0,0,.467-.467V31.027A.467.467,0,0,0,32.052,30.56Z" fill="#dbedff"/><path d="M32.052,31.537H.954a.467.467,0,0,1-.467-.467v.977a.467.467,0,0,0,.467.467h31.1a.467.467,0,0,0,.467-.467V31.07A.467.467,0,0,1,32.052,31.537Z" fill="#b5dcff"/><path d="M19.051,20.581H16.872a.4.4,0,0,0-.4.4v2.437a.4.4,0,0,0,.4.4h2.179a.4.4,0,0,0,.4-.4V20.98A.4.4,0,0,0,19.051,20.581Z" fill="#00d2fc"/><path d="M12.581,20.581H10.4a.4.4,0,0,0-.4.4v2.437a.4.4,0,0,0,.4.4h2.179a.4.4,0,0,0,.4-.4V20.98A.4.4,0,0,0,12.581,20.581Z" fill="#00d2fc"/><path d="M6.11,20.581H3.931a.4.4,0,0,0-.4.4v2.437a.4.4,0,0,0,.4.4H6.11a.4.4,0,0,0,.4-.4V20.98A.4.4,0,0,0,6.11,20.581Z" fill="#00d2fc"/><path d="M17.962,23.417V20.98a.4.4,0,0,1,.4-.4H16.872a.4.4,0,0,0-.4.4v2.437a.4.4,0,0,0,.4.4h1.489A.4.4,0,0,1,17.962,23.417Z" fill="#00c2fb"/><path d="M11.491,23.417V20.98a.4.4,0,0,1,.4-.4H10.4a.4.4,0,0,0-.4.4v2.437a.4.4,0,0,0,.4.4H11.89A.4.4,0,0,1,11.491,23.417Z" fill="#00c2fb"/><path d="M5.021,23.417V20.98a.4.4,0,0,1,.4-.4H3.931a.4.4,0,0,0-.4.4v2.437a.4.4,0,0,0,.4.4H5.42A.4.4,0,0,1,5.021,23.417Z" fill="#00c2fb"/><path d="M3.928,24.3H6.107a.884.884,0,0,0,.882-.883V20.983a.884.884,0,0,0-.882-.882H3.928a.884.884,0,0,0-.883.882V23.42A.884.884,0,0,0,3.928,24.3Zm.084-3.235H6.023v2.268H4.013Z"/><path d="M10.4,24.3h2.179a.884.884,0,0,0,.882-.883V20.983a.884.884,0,0,0-.882-.882H10.4a.884.884,0,0,0-.883.882V23.42A.884.884,0,0,0,10.4,24.3Zm.084-3.235h2.011v2.268H10.483Z"/><path d="M16.869,24.3h2.179a.884.884,0,0,0,.883-.883V20.983a.884.884,0,0,0-.883-.882H16.869a.884.884,0,0,0-.882.882V23.42A.883.883,0,0,0,16.869,24.3Zm.084-3.235h2.011v2.268H16.953Z"/><path d="M25.676,1.176A2.376,2.376,0,0,0,22.158.509a2.382,2.382,0,0,0-2.935,0A2.368,2.368,0,0,0,16.8.2a2.329,2.329,0,0,0-1.417,2.166A2.329,2.329,0,0,0,16.8,4.535a2.368,2.368,0,0,0,2.422-.3,2.382,2.382,0,0,0,2.936,0,2.386,2.386,0,0,0,2.7.167,1.789,1.789,0,1,0,.82-3.219Zm-.3,2.4a.771.771,0,0,0-.952-.05A1.409,1.409,0,0,1,22.68,3.4a.773.773,0,0,0-1.042,0,1.406,1.406,0,0,1-1.894,0,.772.772,0,0,0-1.045,0,1.383,1.383,0,0,1-1.513.242,1.358,1.358,0,0,1-.836-1.279,1.358,1.358,0,0,1,.836-1.279,1.38,1.38,0,0,1,1.512.242.772.772,0,0,0,1.045,0,1.406,1.406,0,0,1,1.894,0,.773.773,0,0,0,1.043,0,1.406,1.406,0,0,1,2.2.4.77.77,0,0,0,.857.413h0a.822.822,0,1,1-.359,1.427Z"/><path d="M32.049,30.144H31.7V19.5a.844.844,0,0,0-.843-.843H29.447l-.192-2.054a.483.483,0,1,0-.963.09l.183,1.964h-4.54l.531-5.689h3.478l.137,1.469a.483.483,0,0,0,.963-.09L28.5,8.5a.82.82,0,0,0,.489-.749V6.577a.821.821,0,0,0-.82-.82H24.243a.821.821,0,0,0-.82.82V7.756a.82.82,0,0,0,.489.749l-.948,10.155H21.677V16.281a.876.876,0,0,0-1.27-.783l-5.2,2.618V16.281a.876.876,0,0,0-1.27-.783l-5.2,2.618V16.281a.876.876,0,0,0-1.27-.783L1.781,18.36a.872.872,0,0,0-.482.783v11H.951A.952.952,0,0,0,0,31.094v.955A.952.952,0,0,0,.951,33H15.372a.483.483,0,1,0,0-.967H.967v-.923H32.033v.923H17.628a.483.483,0,1,0,0,.967H32.049A.952.952,0,0,0,33,32.049v-.955a.952.952,0,0,0-.951-.95ZM24.557,12l.083-.884h3.132l.083.884Zm.173-1.851.147-1.577h2.658l.147,1.577ZM24.39,6.724h3.631v.884H24.39ZM7.77,30.144h-5.5V19.2l5.5-2.771Zm6.47,0h-5.5V19.2l5.5-2.771Zm6.47,0h-5.5V19.2l5.5-2.771Zm7.9,0H23.8v-.8h4.807Zm0-1.77H23.8v-.8h4.807Zm0-1.77H23.8v-.8h4.807Zm0-1.77H23.8v-.79h4.807Zm.25-1.757H23.552v-.884h5.307Zm1.875,7.066H29.576V23.813a.817.817,0,0,0,.25-.588V22.046a.821.821,0,0,0-.82-.82h-5.6a.821.821,0,0,0-.82.82v1.179a.817.817,0,0,0,.25.588v6.331H21.677V19.626h9.057Z"/></g></g></g></svg>