<svg xmlns="http://www.w3.org/2000/svg" xmlns:xlink="http://www.w3.org/1999/xlink" width="85" height="141" viewBox="0 0 85 141"><defs><clipPath id="a"><rect width="67" height="67" transform="translate(189 4893)" fill="#26d19e"/></clipPath></defs><g transform="translate(-180 -19210.902)"><rect width="85" height="141" transform="translate(180 19210.902)" fill="#764cf0"/><g transform="translate(0 14354.902)" clip-path="url(#a)"><g transform="translate(186.767 4890.209)"><path d="M63.65,20.312V16.75H55.833V42.433H63.65L64.8,39.749a9.654,9.654,0,0,0,.545-5.925A61.624,61.624,0,0,1,63.65,20.312Z" fill="#8f4d2e"/><path d="M39.083,30.15h0a9.657,9.657,0,0,0-1.151,9.6l1.151,2.685H46.9V27.917L44.667,23.45Z" fill="#8f4d2e"/><path d="M68.117,69.233V45.783A5.583,5.583,0,0,0,62.533,40.2h-6.7V31.267H46.9V40.2H40.2a5.583,5.583,0,0,0-5.583,5.583v23.45" fill="#fec9a3"/><path d="M55.833,35.793V31.267H46.9v4.526a9.966,9.966,0,0,0,8.933,0Z" fill="#feb784"/><path d="M61.417,16.75v7.817a10.05,10.05,0,1,1-20.1,0V16.75A8.933,8.933,0,0,1,50.25,7.817h2.233A8.933,8.933,0,0,1,61.417,16.75Z" fill="#fec9a3"/><path d="M61.417,16.75v7.817a10.054,10.054,0,0,1-6.494,9.4,10,10,0,0,0,2.027-6.052V16.75a10.062,10.062,0,0,0-5.442-8.933h.976A8.933,8.933,0,0,1,61.417,16.75Z" fill="#fec093"/><path d="M63.65,15.633v2.233H61.417A13.139,13.139,0,0,1,55.095,11l-.378-.946-1.326.589-3.481,1.548a8.831,8.831,0,0,0-5.243,8.067A8.829,8.829,0,0,1,42.621,25.9L39.083,30.15V15.633A11.161,11.161,0,0,1,50.25,4.467h2.233A11.167,11.167,0,0,1,63.65,15.633Z" fill="#95573a"/><path d="M61.417,17.867h1.117a3.35,3.35,0,0,1,3.35,3.35h0a3.35,3.35,0,0,1-3.35,3.35H61.417Z" fill="#feb784"/><path d="M68.117,45.783v23.45h-33.5V45.783A5.583,5.583,0,0,1,40.2,40.2l.75,1.125a12.521,12.521,0,0,0,20.834,0l.75-1.125a5.585,5.585,0,0,1,5.583,5.583Z" fill="#f59898"/><path d="M68.117,45.783v23.45H38.444C47.644,63.8,59.425,55.248,67.713,43.7A5.529,5.529,0,0,1,68.117,45.783Z" fill="#ec8c8c"/><path d="M63.65,15.633v2.233H61.417A13.137,13.137,0,0,1,55.095,11l-.378-.946-1.117.5-.209.094a10.113,10.113,0,0,0-1.618-2.112,10.012,10.012,0,0,0-6.44-2.921A11.127,11.127,0,0,1,50.25,4.467h2.233q.565,0,1.117.054a11.046,11.046,0,0,1,2.233.458A11.169,11.169,0,0,1,63.65,15.633Z" fill="#8f4d2e"/><rect width="31.267" height="31.267" transform="translate(3.35 36.85)" fill="#f35244"/><path d="M34.617,39.083,5.583,68.117H34.617Z" fill="#ea4a3b"/><rect width="8.933" height="31.267" transform="translate(25.683 36.85)" fill="#de4132"/><path d="M16.75,55.833h-6.7V44.667l3.35-2.233,3.35,2.233Z" fill="#ffb531"/><path d="M56.392,22.333a1.675,1.675,0,1,0-1.675-1.675A1.675,1.675,0,0,0,56.392,22.333Z"/><path d="M54.717,25.683H52.483a1.117,1.117,0,0,1-2.233,0H48.017a3.35,3.35,0,0,0,6.7,0Z"/><path d="M61.572,54.168a7.659,7.659,0,0,1-1.01,8.764,1.117,1.117,0,0,0-.262.718v5.583h2.233V64.045a9.852,9.852,0,0,0,.962-11.012Z"/><path d="M41.162,54.168l-1.923-1.135A9.852,9.852,0,0,0,40.2,64.045v5.189h2.233V63.65a1.117,1.117,0,0,0-.262-.718A7.659,7.659,0,0,1,41.162,54.168Z"/><path d="M65.906,40a10.771,10.771,0,0,0,.53-6.422A68.411,68.411,0,0,1,65,24.939a4.462,4.462,0,0,0-.232-7.588V14.517a1.109,1.109,0,0,0-.1-.463A12.3,12.3,0,0,0,52.483,3.35H50.25A12.3,12.3,0,0,0,37.967,15.633V29.789A10.793,10.793,0,0,0,36.827,40a6.74,6.74,0,0,0-1.094.8V36.85a1.117,1.117,0,0,0-1.117-1.117h-6.7V33.5a6.695,6.695,0,0,0-10.05-5.8,6.695,6.695,0,0,0-10.05,5.8v2.233H3.35A1.117,1.117,0,0,0,2.233,36.85V68.117A1.117,1.117,0,0,0,3.35,69.233H35.733V45.783a4.472,4.472,0,0,1,3.894-4.429l.393.59a13.636,13.636,0,0,0,22.691,0l.393-.59A4.472,4.472,0,0,1,67,45.783v23.45h2.233V45.783A6.7,6.7,0,0,0,65.906,40ZM33.5,45.783V65.421l-2.233-2.233V37.967H33.5Zm-4.467,17.4L26.8,65.421V37.967h2.233Zm1.117,2.042L31.921,67H28.379ZM25.683,33.5v2.233H21.217V33.5a6.667,6.667,0,0,0-1.493-4.209A4.465,4.465,0,0,1,25.683,33.5ZM14.517,44.52l1.117.744v9.452H11.167V45.264l1.117-.744v1.264h2.233Zm3.35-13.969a4.447,4.447,0,0,1,1.117,2.95v2.233H16.75V33.5a4.447,4.447,0,0,1,1.117-2.95ZM10.05,33.5a4.465,4.465,0,0,1,5.959-4.209A6.668,6.668,0,0,0,14.517,33.5v2.233H10.05ZM4.467,37.967h3.35V40.2H10.05V37.967h2.233v3.869l-2.853,1.9a1.117,1.117,0,0,0-.5.929V55.833A1.117,1.117,0,0,0,10.05,56.95h6.7a1.117,1.117,0,0,0,1.117-1.117V44.667a1.117,1.117,0,0,0-.5-.929l-2.853-1.9V37.967h4.467V40.2h2.233V37.967h3.35V67H4.467Zm59.791-3.9a8.551,8.551,0,0,1-.441,5.141,6.7,6.7,0,0,0-1.283-.125H56.95v-4.85a11.083,11.083,0,0,0,5.528-8.55h.056c.1,0,.2,0,.293-.011a71.6,71.6,0,0,0,1.431,8.394Zm-16.863-1.5a8.9,8.9,0,0,1-4.524-5.206l.614-.74.008-.01a1.24,1.24,0,0,0,.1-.13A9.961,9.961,0,0,0,45.6,22.157a1.675,1.675,0,1,0,.282-3.107,7.719,7.719,0,0,1,4.484-5.843l3.748-1.666A14.234,14.234,0,0,0,60.3,18.537v6.03a8.929,8.929,0,0,1-12.906,8ZM62.533,18.983a2.233,2.233,0,1,1,0,4.467Zm0-3.35V16.75h-.847a12.006,12.006,0,0,1-5.554-6.168l-.3-.747V6.16A10.066,10.066,0,0,1,62.533,15.633Zm-22.333,0A10.061,10.061,0,0,1,50.25,5.583s2.983.023,3.35.064V9.324l-4.144,1.842a9.953,9.953,0,0,0-5.906,9.087,7.726,7.726,0,0,1-1.787,4.937l-.971,1.165-.015.018-.577.692Zm-.241,15.21L41.245,29.3a11.122,11.122,0,0,0,4.539,4.93v4.849H40.2a6.694,6.694,0,0,0-1.283.125,8.553,8.553,0,0,1,1.042-8.365Zm11.408,14.94a11.377,11.377,0,0,1-9.05-4.467H46.9A1.117,1.117,0,0,0,48.017,40.2V35.217a11.125,11.125,0,0,0,6.7,0V40.2a1.117,1.117,0,0,0,1.117,1.117h4.583A11.377,11.377,0,0,1,51.367,45.783Z"/></g></g></g></svg>