<svg xmlns="http://www.w3.org/2000/svg" xmlns:xlink="http://www.w3.org/1999/xlink" width="85" height="103.473" viewBox="0 0 85 103.473"><defs><clipPath id="a"><rect width="67" height="67" transform="translate(189 4864.764)" fill="#ffd41c"/></clipPath></defs><g transform="translate(-705 -13656)"><rect width="85" height="103.473" transform="translate(705 13656)" fill="#26d19e"/><g transform="translate(525 8809.236)" clip-path="url(#a)"><g transform="translate(189 4864.764)"><path d="M57.889,7.079h4.065v4.065H57.889Z" fill="#fe646f"/><path d="M51.813,3.014h6.076V7.079H51.813Z" fill="#fe646f"/><path d="M49.786,47.724H66.018V66.018H49.786Z" fill="#aee69c"/><path d="M49.785,47.724H52.4V66.019H49.785Z" fill="#89daa4"/><path d="M33.5,51.789H49.786v14.23H33.5Z" fill="#8ac9fe"/><path d="M33.5,51.789h2.617v14.23H33.5Z" fill="#60b7ff"/><path d="M17.241,55.853H33.5V66.018H17.241Z" fill="#ffe177"/><path d="M17.241,55.853h2.617V66.019H17.241Z" fill="#ffd15b"/><path d="M.982,59.945H17.241v6.073H.982Z" fill="#fe646f"/><path d="M.981,59.945H3.6v6.074H.981Z" fill="#fd4755"/><path d="M52.669,35.712l-6.975-4.247h-8.13V51.789H41.63V35.008l8.114,3.849v8.867h4.1V37.562a2.048,2.048,0,0,0-1.17-1.85Z" fill="#68748f"/><path d="M37.564,31.465h1.963V51.789H37.564Z" fill="#5d6980"/><path d="M51.706,38.857v8.867H49.743V38.857l-6.152-2.918v-.93Z" fill="#5d6980"/><path d="M24.216,43.841l-6.975-4.247H9.111V59.918h4.065V43.138l8.114,3.849v8.867h4.1V45.691a2.048,2.048,0,0,0-1.17-1.85Z" fill="#68748f"/><path d="M9.112,39.594h1.963V59.919H9.112Z" fill="#5d6980"/><path d="M23.252,46.987v8.866H21.289V46.987l-6.15-2.918v-.932Z" fill="#5d6980"/><path d="M41.63,17.238a3.049,3.049,0,0,1-3.049-3.049V12.157a3.049,3.049,0,0,1,6.1,0v2.032A3.049,3.049,0,0,1,41.63,17.238Z" fill="#ffcebf"/><path d="M42.937,16.943a3.049,3.049,0,0,1-4.356-2.753V12.156A3.049,3.049,0,0,1,42.937,9.4,3.048,3.048,0,0,0,41.2,12.156V14.19A3.048,3.048,0,0,0,42.937,16.943Z" fill="#ffb09e"/><path d="M13.176,25.367a3.049,3.049,0,0,1-3.049-3.049V20.286a3.049,3.049,0,1,1,6.1,0v2.032A3.049,3.049,0,0,1,13.176,25.367Z" fill="#ffcebf"/><path d="M14.485,25.074a3.05,3.05,0,0,1-4.358-2.755V20.287a3.05,3.05,0,0,1,4.358-2.755,3.047,3.047,0,0,0-1.74,2.755v2.032a3.047,3.047,0,0,0,1.74,2.755Z" fill="#ffb09e"/><path d="M27.09,23.234v4.58l-2.837,1.419a2.058,2.058,0,0,1-.916.216h-6.1V39.594H9.112v4.067H7.791a2.748,2.748,0,0,1-2.745-2.748V29.37a4,4,0,0,1,4-4l13.806-.016Z" fill="#aee69c"/><path d="M27.09,23.234v.981l-2.273,1.137-13.806.016a4,4,0,0,0-4,4V40.911a2.747,2.747,0,0,0,2.1,2.671v.079H7.791a2.748,2.748,0,0,1-2.745-2.748V29.37a4,4,0,0,1,4-4l13.806-.016Z" fill="#89daa4"/><path d="M53.839,13.171v5.384A2.748,2.748,0,0,1,51.091,21.3h-5.4V31.465h-8.13V21.318H36.38l-3.464,3.465a2.052,2.052,0,0,1-.533.383L27.09,27.814v-4.58l3.164-1.582,3.829-3.829a2.048,2.048,0,0,1,1.449-.6l14.253.016V13.171a2.027,2.027,0,1,1,4.054,0Z" fill="#8ac9fe"/><path d="M35.532,17.222l1.862,0a2.047,2.047,0,0,0-1.348.6l-3.829,3.829-3.164,1.582v3.6l-1.963.981v-4.58l3.164-1.582,3.829-3.829a2.048,2.048,0,0,1,1.449-.6Z" fill="#60b7ff"/><path d="M38.343,21.318h1.184V31.465H37.564V22.1Z" fill="#60b7ff"/><path d="M52.794,11.4a2.025,2.025,0,0,0-1.046,1.773v4.067l-1.963,0V13.171a2.027,2.027,0,0,1,2.027-2.027,2.007,2.007,0,0,1,.981.254Z" fill="#60b7ff"/><path d="M37.5,17.222l12.29.013v0l-12.37-.013c.026,0,.054,0,.08,0Z" fill="#60b7ff"/><path d="M66.018,46.743H62.06a.981.981,0,0,0,0,1.963h2.977V65.037H50.767V48.705h7.015a.981.981,0,0,0,0-1.963H54.821V37.562a3.044,3.044,0,0,0-1.681-2.713l-6.464-3.936V28.529a.981.981,0,1,0-1.963,0v1.954H38.546V21.318a.981.981,0,0,0-.981-.981H36.38a.982.982,0,0,0-.694.287l-3.464,3.465a1.063,1.063,0,0,1-.277.2l-3.873,1.937V23.84l2.622-1.311a.982.982,0,0,0,.255-.184l3.829-3.829a1.06,1.06,0,0,1,.753-.313l14.253.016a.981.981,0,0,0,.982-.981V13.17a1.046,1.046,0,0,1,2.091,0v5.384a1.782,1.782,0,0,1-1.767,1.767h-5.4a.981.981,0,0,0-.981.981v2.951a.981.981,0,1,0,1.963,0V22.284h4.415a3.854,3.854,0,0,0,3.729-3.729V13.17a3.013,3.013,0,0,0-2.027-2.843V8.06h4.113v3.083a.981.981,0,0,0,.981.981h4.065a.981.981,0,0,0,.981-.981V7.079a.981.981,0,0,0-.981-.981H58.87V3.014a.981.981,0,0,0-.981-.981H52.794V.981a.981.981,0,0,0-1.963,0v9.346A3.013,3.013,0,0,0,48.8,13.17v3.085l-3.714,0a4.005,4.005,0,0,0,.569-2.062V12.157a4.03,4.03,0,0,0-8.06,0v2.032a4,4,0,0,0,.565,2.054l-2.632,0a3.011,3.011,0,0,0-2.143.888l-3.716,3.716-7.051,3.526-5.984.007a4.005,4.005,0,0,0,.567-2.059V20.286a4.03,4.03,0,1,0-8.06,0v2.032a4,4,0,0,0,.572,2.067H9.049a4.989,4.989,0,0,0-4.984,4.983V40.911c0,2.353,1.919,3.667,4.065,3.73V58.963H.982A.981.981,0,0,0,0,59.945v6.073A.981.981,0,0,0,.982,67H66.018A.981.981,0,0,0,67,66.019V47.724a.981.981,0,0,0-.981-.981ZM60.972,10.162h-2.1V8.06h2.1ZM56.907,4V6.1H52.794V4ZM39.562,14.189V12.157a2.067,2.067,0,0,1,4.134,0v2.032C43.7,16.8,39.562,16.9,39.562,14.189ZM48.8,50.807H42.611V36.56l6.151,2.918ZM45.419,32.446s6.8,4.138,6.829,4.152a1.071,1.071,0,0,1,.61.964v9.181H50.725V38.857a.981.981,0,0,0-.561-.887L42.05,34.121c-.83-.364-1.408,0-1.4.887v15.8h-2.1V32.446ZM11.109,22.319V20.287a2.067,2.067,0,1,1,4.134,0v2.032c0,2.6-4.134,2.714-4.134,0ZM6.027,40.911V29.37a3.024,3.024,0,0,1,3.023-3.02l13.806-.016a.98.98,0,0,0,.438-.1l2.816-1.408v2.385l-2.293,1.147a1.081,1.081,0,0,1-.479.113h-6.1a.981.981,0,0,0-.981.981V32.3a.981.981,0,0,0,1.963,0V30.43h5.115a3.056,3.056,0,0,0,1.355-.32l8.13-4.066a3.023,3.023,0,0,0,.788-.567L36.583,22.5v28.3H33.5a.981.981,0,0,0-.981.981v3.083H26.367v-9.18a3.043,3.043,0,0,0-1.681-2.713l-6.464-3.936V36.579a.981.981,0,0,0-1.963,0v2.034H10.093V31.427a.981.981,0,0,0-1.963,0V42.679c-1.227-.006-2.107-.383-2.1-1.767ZM21.71,46.1,13.6,42.251c-.822-.331-1.394.061-1.4.887v15.8h-2.1V40.576h6.872s6.8,4.138,6.83,4.152a1.071,1.071,0,0,1,.609.964v9.18H22.271V46.986a.981.981,0,0,0-.561-.886Zm-7.553-1.41,6.151,2.918v7.265H17.241a.981.981,0,0,0-.981.981v3.11h-2.1V44.69ZM1.963,60.926h14.3v4.11H1.963Zm16.259-4.092h14.3v8.2h-14.3ZM34.481,52.77H48.8V65.037H34.481Z"/></g></g></g></svg>