<svg xmlns="http://www.w3.org/2000/svg" xmlns:xlink="http://www.w3.org/1999/xlink" width="33" height="33" viewBox="0 0 33 33"><defs><clipPath id="a"><rect width="33" height="33" transform="translate(-6631 7191)" fill="#fff" stroke="#707070" stroke-width="1"/></clipPath></defs><g transform="translate(6691 -9600)"><g transform="translate(-60 2409)" clip-path="url(#a)"><g transform="translate(-6631 7191)"><circle cx="16.017" cy="16.017" r="16.017" transform="translate(0.483 0.483)" fill="#cbe2ff"/><path d="M16.5.483a16.166,16.166,0,0,0-2.036.128,16.019,16.019,0,0,1,0,31.777A16.017,16.017,0,1,0,16.5.483Z" fill="#bed8fb"/><path d="M20.48,6.549A1.481,1.481,0,0,0,19,5.068H13.9a3.409,3.409,0,0,0-3.409,3.409v3.785H22.512V8.531a1.481,1.481,0,0,0-1.481-1.481h-.05a.5.5,0,0,1-.5-.5Z" fill="#365e7d"/><path d="M21.031,7.049h-.05a.5.5,0,0,1-.5-.5A1.481,1.481,0,0,0,19,5.068h-.56v7.194h4.072V8.531a1.481,1.481,0,0,0-1.481-1.481Z" fill="#2b4d66"/><path d="M28.135,26.313A3.559,3.559,0,0,0,25.65,22.92l-4.373-1.384L16.5,21.367l-4.779.168L7.35,22.92a3.559,3.559,0,0,0-2.485,3.393v1.195a15.971,15.971,0,0,0,11.607,5.009,17.132,17.132,0,0,0,1.929-.112,15.976,15.976,0,0,0,9.735-4.9V26.313Z" fill="#4a80aa"/><path d="M28.135,27.507V26.313a3.558,3.558,0,0,0-1.32-2.766,16.03,16.03,0,0,1-12.347,8.841,16.158,16.158,0,0,0,2,.129,17.132,17.132,0,0,0,1.929-.112,15.976,15.976,0,0,0,9.735-4.9Z" fill="#407093"/><path d="M19.636,21.478,16.5,20.258l-3.138,1.22c-.752,3.565,2.036,9.368,2.893,11.036l.215,0c.091,0,.181,0,.271,0,.858-1.669,3.644-7.47,2.893-11.035Z" fill="#e4f6ff"/><path d="M15.757,25.752l-1.268,4.986,1.594,1.775c.281.006.559,0,.84,0l1.592-1.758-1.271-5H15.757Z" fill="#e28086"/><path d="M16.081,32.511c.13,0,.26.006.39.006.151,0,.3,0,.452-.007l.807-.892a15.894,15.894,0,0,1-1.959.549Z" fill="#dd636e"/><path d="M19.176,21.016V18.2H13.822v2.82c0,1.479,2.677,3.094,2.677,3.094S19.176,22.495,19.176,21.016Z" fill="#ffddce"/><path d="M22.512,11.765H21.488a1.031,1.031,0,0,1-1.031-1.031V10.17a1.088,1.088,0,0,0-1.429-1.033,8.059,8.059,0,0,1-5.057,0h0A1.088,1.088,0,0,0,12.54,10.17v.564a1.031,1.031,0,0,1-1.031,1.031H10.486V13.45a.78.78,0,0,0,.78.78.256.256,0,0,1,.255.242,4.988,4.988,0,0,0,9.956,0,.256.256,0,0,1,.255-.242.78.78,0,0,0,.78-.78V11.765Z" fill="#ffddce"/><path d="M21.488,11.765a1.031,1.031,0,0,1-1.031-1.031V10.17a1.088,1.088,0,0,0-1.429-1.033q-.292.1-.589.169v5.566a4.987,4.987,0,0,1-2.485,4.239,4.983,4.983,0,0,0,5.523-4.64.256.256,0,0,1,.255-.242.78.78,0,0,0,.78-.78V11.765H21.488Z" fill="#ffcbbe"/><path d="M13.822,20.258l-2.1,1.706,2.2,2.722a.729.729,0,0,0,.976.037l1.656-1.383Z" fill="#f4fbff"/><path d="M19.177,20.258,16.556,23.34l1.556,1.331a.729.729,0,0,0,.979-.028l2.186-2.679Z" fill="#f4fbff"/><path d="M13.822,20.258,10.74,21.772a.467.467,0,0,0-.209.633l.6,1.171a.784.784,0,0,1-.143.914l-.376.375a.782.782,0,0,0-.192.8c.729,2.222,4.237,5.62,5.565,6.849l.268,0C15.3,30.643,11.883,23.528,13.822,20.258Z" fill="#365e7d"/><path d="M22.007,24.489a.784.784,0,0,1-.143-.914l.6-1.171a.467.467,0,0,0-.209-.633l-3.082-1.514c1.938,3.269-1.471,10.381-2.435,12.256l.271-.007c1.33-1.232,4.833-4.626,5.561-6.846a.782.782,0,0,0-.192-.8l-.376-.375Z" fill="#365e7d"/><path d="M16.556,23.34,14.926,24.7l.831,1.05h1.487l.831-1.112Z" fill="#dd636e"/><path d="M33,16.5A16.5,16.5,0,1,0,16.235,33c.155.007.492,0,.5,0h.017A16.5,16.5,0,0,0,33,16.5ZM16.5.967A15.534,15.534,0,0,1,28.617,26.221a4.026,4.026,0,0,0-2.82-3.762l-3.127-.99a28.406,28.406,0,0,0-3.009-1.513v-1.34a5.467,5.467,0,0,0,2.284-3.92A1.265,1.265,0,0,0,23,13.45V8.531a1.967,1.967,0,0,0-1.965-1.965h-.05a.017.017,0,0,1-.017-.017A1.967,1.967,0,0,0,19,4.585H13.9A3.9,3.9,0,0,0,10,8.477a.483.483,0,0,0,.967,0A2.929,2.929,0,0,1,13.9,5.551H19a1,1,0,0,1,1,1,.985.985,0,0,0,.984.984h.05a1,1,0,0,1,1,1v2.751h-.54a.548.548,0,0,1-.547-.547V10.17a1.57,1.57,0,0,0-2.064-1.492,7.628,7.628,0,0,1-4.755,0,1.57,1.57,0,0,0-2.064,1.492v.564a.548.548,0,0,1-.547.547h-.54v-.571a.483.483,0,0,0-.967,0V13.45A1.265,1.265,0,0,0,11.054,14.7a5.466,5.466,0,0,0,2.284,3.92v1.34a28.712,28.712,0,0,0-3.009,1.513l-3.126.99a4.026,4.026,0,0,0-2.82,3.762A15.534,15.534,0,0,1,16.5.967Zm-5.542,24.24.376-.375a1.263,1.263,0,0,0,.231-1.478l-.6-1.156,1.953-.96a8.059,8.059,0,0,0-.1,2.72v0a24.863,24.863,0,0,0,2.072,6.819c-1.5-1.509-3.5-3.73-4.01-5.269a.3.3,0,0,1,.074-.3Zm.012-12.958h.54a1.516,1.516,0,0,0,1.514-1.514V10.17a.6.6,0,0,1,.8-.573,8.6,8.6,0,0,0,5.36,0,.6.6,0,0,1,.794.574v.564a1.516,1.516,0,0,0,1.514,1.514h.54v1.2a.3.3,0,0,1-.3.3.742.742,0,0,0-.737.695,4.5,4.5,0,0,1-8.991,0,.742.742,0,0,0-.737-.695.3.3,0,0,1-.3-.3v-1.2ZM16.5,31.923c-.314-.629-.737-1.526-1.161-2.566l.794-3.122h.735l.793,3.121C17.236,30.4,16.812,31.3,16.5,31.923Zm-.635-8.634L14.59,24.352a.245.245,0,0,1-.313,0l-.511-.632a6.442,6.442,0,0,1,.189-2.586Zm-1.431,2.089a1.209,1.209,0,0,0,.365-.058l.431.545-.487,1.915a22.6,22.6,0,0,1-.715-2.473A1.209,1.209,0,0,0,14.433,25.377ZM17,25.268H15.99l-.393-.5.956-.8.864.739Zm1.425-.965-1.19-1.017,1.813-2.132a6.447,6.447,0,0,1,.185,2.549l-.494.605a.245.245,0,0,1-.314,0ZM16.5,19.626a5.438,5.438,0,0,0,2.194-.461v.916L16.548,22.6l-2.243-2.529v-.909A5.437,5.437,0,0,0,16.5,19.626Zm1.758,8.151-.488-1.921.439-.588a1.186,1.186,0,0,0,.773-.006A22.44,22.44,0,0,1,18.257,27.777ZM5.348,27.311v-1A3.064,3.064,0,0,1,7.5,23.381l2.577-.816c.026.06,0,0,.633,1.232a.3.3,0,0,1-.055.35l-.376.375a1.259,1.259,0,0,0-.31,1.29c.617,1.881,3.044,4.485,4.71,6.115a15.414,15.414,0,0,1-9.327-4.616Zm12.975,4.616A36.715,36.715,0,0,0,21.289,28.7a.483.483,0,1,0-.757-.6A33.637,33.637,0,0,1,18.1,30.784a24.817,24.817,0,0,0,2.076-6.84v0a8.042,8.042,0,0,0-.1-2.7l1.953.96-.6,1.156a1.263,1.263,0,0,0,.231,1.478l.376.375a.3.3,0,0,1,.074.3,4.818,4.818,0,0,1-.343.771.483.483,0,1,0,.851.459,5.77,5.77,0,0,0,.411-.929,1.259,1.259,0,0,0-.31-1.29l-.376-.375a.3.3,0,0,1-.055-.35c.629-1.221.607-1.173.633-1.232l2.578.816a3.064,3.064,0,0,1,2.147,2.932v1a15.413,15.413,0,0,1-9.328,4.616Z"/></g></g></g></svg>