<svg xmlns="http://www.w3.org/2000/svg" xmlns:xlink="http://www.w3.org/1999/xlink" width="105" height="105" viewBox="0 0 105 105">
  <defs>
    <clipPath id="clip-path">
      <rect id="Rectángulo_34636" data-name="Rectángulo 34636" width="105" height="105" transform="translate(1272 11080)" fill="#fff"/>
    </clipPath>
  </defs>
  <g id="Enmascarar_grupo_211" data-name="Enmascarar grupo 211" transform="translate(-1272 -11080)" clip-path="url(#clip-path)">
    <g id="la-satisfaccion-del-cliente" transform="translate(1270.307 11078.307)">
      <g id="Grupo_93596" data-name="Grupo 93596">
        <g id="Grupo_93585" data-name="Grupo 93585">
          <g id="Grupo_93583" data-name="Grupo 93583">
            <path id="Trazado_120441" data-name="Trazado 120441" d="M101.122,78.784a50.917,50.917,0,0,0-26.4-27.046L68.131,57.97l-1.609,1.507a40.674,40.674,0,0,1,14.531,8.248,9.339,9.339,0,0,1,5.318-1.677,7.857,7.857,0,0,1-1.88,5.1,40.678,40.678,0,0,1,10.348,27.08H105a50.291,50.291,0,0,0-3.878-19.442Z" fill="#fcd770"/>
          </g>
          <g id="Grupo_93584" data-name="Grupo 93584">
            <path id="Trazado_120442" data-name="Trazado 120442" d="M33.668,51.738a50.917,50.917,0,0,0-26.4,27.046A50.291,50.291,0,0,0,3.387,98.226H13.548a40.6,40.6,0,0,1,3.082-15.547h.017a40.074,40.074,0,0,1,8.806-13.193,40.529,40.529,0,0,1,16.41-10.009L40.256,57.97Z" fill="#fcd770"/>
          </g>
        </g>
        <g id="Grupo_93586" data-name="Grupo 93586">
          <path id="Trazado_120443" data-name="Trazado 120443" d="M94.839,98.226H63.779a10.249,10.249,0,0,0-.186-7.265l20.323-19.2a6.473,6.473,0,0,0,.576-.61,40.678,40.678,0,0,1,10.348,27.08Z" fill="#ffeaa7"/>
        </g>
        <g id="Grupo_93587" data-name="Grupo 93587">
          <path id="Trazado_120444" data-name="Trazado 120444" d="M81.053,67.725q-.33.229-.66.508l-21.135,17.8a10.059,10.059,0,0,0-5.064-1.355,10.174,10.174,0,0,0-9.585,13.548H13.548a40.6,40.6,0,0,1,3.082-15.547h.017a40.074,40.074,0,0,1,8.806-13.193,40.529,40.529,0,0,1,16.41-10.009L54.194,71.129,66.523,59.477A40.674,40.674,0,0,1,81.053,67.725Z" fill="#ffeaa7"/>
        </g>
        <g id="Grupo_93588" data-name="Grupo 93588">
          <path id="Trazado_120445" data-name="Trazado 120445" d="M63.593,90.96a10.166,10.166,0,1,1-9.4-6.283,10.059,10.059,0,0,1,5.064,1.355,10.252,10.252,0,0,1,4.335,4.928Zm-6.012,3.878a3.387,3.387,0,1,0-3.387,3.387A3.4,3.4,0,0,0,57.581,94.839Z" fill="#ff826e"/>
        </g>
        <g id="Grupo_93589" data-name="Grupo 93589">
          <path id="Trazado_120446" data-name="Trazado 120446" d="M86.371,66.048a7.857,7.857,0,0,1-1.88,5.1,6.473,6.473,0,0,1-.576.61L63.593,90.96a10.252,10.252,0,0,0-4.335-4.928l21.135-17.8q.33-.279.66-.508a9.339,9.339,0,0,1,5.318-1.677Z" fill="#e6e9ed"/>
        </g>
        <g id="Grupo_93590" data-name="Grupo 93590">
          <path id="Trazado_120447" data-name="Trazado 120447" d="M84.677,34.616A17.949,17.949,0,0,1,79.072,47.64l-4.352,4.1L68.131,57.97l-.051-.051a10.412,10.412,0,0,0-4.827-2.727l-3.98-1-.965-3.827v-.017a6.768,6.768,0,0,0,4.132-4.64l.051.017,1.2-1.152a12.935,12.935,0,0,0,4.048-9.433v-1.27a10.148,10.148,0,0,0-2.032-6.1,9.888,9.888,0,0,0-3.59-3,10.165,10.165,0,0,0-4.539-1.067H54.312V23.54a16.631,16.631,0,0,1,5.843-4.86,16.469,16.469,0,0,1,16.969,1.338l.051.034a17.838,17.838,0,0,1,7.5,14.565Z" fill="#ff826e"/>
        </g>
        <g id="Grupo_93591" data-name="Grupo 93591">
          <path id="Trazado_120448" data-name="Trazado 120448" d="M68.131,57.97l-1.609,1.507L54.194,71.129,41.865,59.477,40.256,57.97l.051-.051a10.412,10.412,0,0,1,4.827-2.727l3.98-1,5.081,5.081,5.081-5.081,3.98,1a10.412,10.412,0,0,1,4.827,2.727Z" fill="#b4dd7f"/>
        </g>
        <g id="Grupo_93592" data-name="Grupo 93592">
          <path id="Trazado_120449" data-name="Trazado 120449" d="M67.742,33.871v1.27a12.935,12.935,0,0,1-4.048,9.433l-1.2,1.152-.051-.017a6.157,6.157,0,0,0,.22-1.677V38.477a1.716,1.716,0,0,0-1.152-1.609l-.339-.1a52.22,52.22,0,0,1-6.977-2.9,52.22,52.22,0,0,1-6.977,2.9l-.339.1a1.716,1.716,0,0,0-1.152,1.609v5.555a6.157,6.157,0,0,0,.22,1.677l-.051.017-1.2-1.152a12.935,12.935,0,0,1-4.048-9.433v-1.27A10.161,10.161,0,0,1,50.806,23.71h6.774a10.165,10.165,0,0,1,4.539,1.067,9.888,9.888,0,0,1,3.59,3,10.148,10.148,0,0,1,2.032,6.1Z" fill="#656d78"/>
        </g>
        <g id="Grupo_93593" data-name="Grupo 93593">
          <path id="Trazado_120450" data-name="Trazado 120450" d="M62.661,38.477v5.555a6.157,6.157,0,0,1-.22,1.677,6.768,6.768,0,0,1-4.132,4.64,6.418,6.418,0,0,1-2.422.457H52.5a6.418,6.418,0,0,1-2.422-.457,6.768,6.768,0,0,1-4.132-4.64,6.157,6.157,0,0,1-.22-1.677V38.477a1.716,1.716,0,0,1,1.152-1.609l.339-.1a52.22,52.22,0,0,0,6.977-2.9,52.22,52.22,0,0,0,6.977,2.9l.339.1A1.716,1.716,0,0,1,62.661,38.477Z" fill="#f0d0b4"/>
        </g>
        <g id="Grupo_93594" data-name="Grupo 93594">
          <path id="Trazado_120451" data-name="Trazado 120451" d="M58.309,50.366l.965,3.827-5.081,5.081-5.081-5.081.965-3.827v-.017a6.418,6.418,0,0,0,2.422.457h3.387a6.418,6.418,0,0,0,2.422-.457Z" fill="#f0d0b4"/>
        </g>
        <g id="Grupo_93595" data-name="Grupo 93595">
          <path id="Trazado_120452" data-name="Trazado 120452" d="M54.075,23.54v.169H50.806A10.161,10.161,0,0,0,40.645,33.871v1.27a12.935,12.935,0,0,0,4.048,9.433l1.2,1.152.051-.017a6.768,6.768,0,0,0,4.132,4.64v.017l-.965,3.827-3.98,1a10.412,10.412,0,0,0-4.827,2.727l-.051.051-6.588-6.232-4.352-4.1a18.226,18.226,0,0,1-4.149-5.927,17.924,17.924,0,0,1,6.046-21.66l.051-.034a16.371,16.371,0,0,1,9.585-3.082,16.539,16.539,0,0,1,13.227,6.6Z" fill="#ff826e"/>
        </g>
      </g>
      <g id="Grupo_93597" data-name="Grupo 93597">
        <path id="Trazado_120453" data-name="Trazado 120453" d="M54.194,89.758a5.081,5.081,0,1,0,5.081,5.081A5.087,5.087,0,0,0,54.194,89.758Zm0,6.774a1.694,1.694,0,1,1,1.694-1.694A1.694,1.694,0,0,1,54.194,96.532Z"/>
        <path id="Trazado_120454" data-name="Trazado 120454" d="M106.694,98.226A52.536,52.536,0,0,0,77.666,51.291l2.562-2.42a19.6,19.6,0,0,0-2.115-30.237A18.1,18.1,0,0,0,67.53,15.242a18.3,18.3,0,0,0-13.337,5.817,18.2,18.2,0,0,0-23.967-2.391,19.6,19.6,0,0,0-2.068,30.2l2.562,2.42A52.54,52.54,0,0,0,1.694,98.226v1.694H43.5a11.829,11.829,0,0,0,21.39,0h41.805ZM86.622,71.066a9.6,9.6,0,0,0,1.4-4.278l2.056-2.056a49.232,49.232,0,0,1,8.781,13.159L92.6,80.484a42.148,42.148,0,0,0-5.982-9.418ZM62,85.936l19.488-16.41a7.592,7.592,0,0,1,2.871-1.509,6.2,6.2,0,0,1-1.607,2.513L64.021,88.215A12.02,12.02,0,0,0,62,85.936Zm25.695-23.6L85.6,64.423a10.943,10.943,0,0,0-4.369,1.24,41.959,41.959,0,0,0-11.545-6.839l5.35-5.052A49.022,49.022,0,0,1,87.69,62.334ZM46.678,35.156l-.327.108a3.383,3.383,0,0,0-2.318,3.214v2.606a11.18,11.18,0,0,1-1.694-5.941V33.871A8.468,8.468,0,0,1,50.806,25.4h6.774a8.47,8.47,0,0,1,8.468,8.468v1.274a11.18,11.18,0,0,1-1.694,5.941V38.479a3.38,3.38,0,0,0-2.313-3.211l-.332-.11a52.033,52.033,0,0,1-6.757-2.8l-.759-.381-.757.379a51.958,51.958,0,0,1-6.759,2.8Zm.743,3.323.329-.11a55.216,55.216,0,0,0,6.444-2.611,55.19,55.19,0,0,0,6.442,2.611l.332.11v5.553a5.087,5.087,0,0,1-5.081,5.081H52.5a5.087,5.087,0,0,1-5.081-5.081ZM52.5,52.5h3.387a8.366,8.366,0,0,0,1.189-.12l.323,1.294L54.194,56.88l-3.206-3.206.323-1.294a8.365,8.365,0,0,0,1.189.12Zm-3.907,3.568,5.6,5.6,5.6-5.6,3.05.764a8.687,8.687,0,0,1,2.722,1.228L54.194,68.8,42.821,58.06a8.631,8.631,0,0,1,2.722-1.228Zm27.6-34.645A16.217,16.217,0,0,1,77.9,46.408L68.086,55.68a12.081,12.081,0,0,0-4.42-2.134l-3-.749-.391-1.561a8.457,8.457,0,0,0,3.585-4.478l1-.957a14.732,14.732,0,0,0,4.569-10.658V33.871A11.825,11.825,0,0,0,58.077,22.047a14.8,14.8,0,0,1,18.116-.623ZM25.4,34.618a16.28,16.28,0,0,1,6.839-13.23,14.742,14.742,0,0,1,8.615-2.759,14.9,14.9,0,0,1,9.455,3.416,11.826,11.826,0,0,0-11.36,11.826v1.274A14.719,14.719,0,0,0,43.517,45.8l1,.957a8.451,8.451,0,0,0,3.585,4.478L47.716,52.8l-3,.749a12.081,12.081,0,0,0-4.42,2.134l-9.816-9.27A16.289,16.289,0,0,1,25.4,34.618ZM38.7,58.829a42.233,42.233,0,0,0-13.233,8.278L20.7,62.333A49.022,49.022,0,0,1,33.349,53.77ZM15.755,80.471,9.523,77.89A49.232,49.232,0,0,1,18.3,64.731L23.073,69.5a42.138,42.138,0,0,0-7.318,10.971Zm-7.53.549L14.463,83.6a42.427,42.427,0,0,0-2.54,12.93H5.111A48.971,48.971,0,0,1,8.226,81.019ZM15.31,96.532a38.759,38.759,0,0,1,26.15-35.1L54.194,73.458,66.919,61.44a38.56,38.56,0,0,1,11.433,6.295L59.013,84.02a11.731,11.731,0,0,0-4.82-1.036A11.766,11.766,0,0,0,42.474,96.532Zm38.884,6.774a8.468,8.468,0,1,1,8.468-8.468A8.477,8.477,0,0,1,54.194,103.306Zm11.35-11.873L84.368,73.657a38.817,38.817,0,0,1,8.7,22.876H65.913a11.369,11.369,0,0,0-.369-5.1Zm30.911,5.1a42.318,42.318,0,0,0-2.542-12.925l6.249-2.588a48.972,48.972,0,0,1,3.116,15.513Z"/>
        <path id="Trazado_120455" data-name="Trazado 120455" d="M52.5,1.694h3.387V8.468H52.5Z"/>
        <path id="Trazado_120456" data-name="Trazado 120456" d="M10.157,26.169h3.386v10.3H10.157Z" transform="translate(-20.998 37.873) rotate(-80.557)"/>
        <path id="Trazado_120457" data-name="Trazado 120457" d="M18.626,10.451h3.387V20.03H18.626Z" transform="translate(-4.825 18.834) rotate(-45)"/>
        <path id="Trazado_120458" data-name="Trazado 120458" d="M33.855,2.986H37.24v7.57H33.855Z" transform="translate(0.725 16.62) rotate(-26.565)"/>
        <path id="Trazado_120459" data-name="Trazado 120459" d="M91.341,29.624h10.3v3.386h-10.3Z" transform="translate(-3.838 16.297) rotate(-9.443)"/>
        <path id="Trazado_120460" data-name="Trazado 120460" d="M83.263,13.546h9.579v3.387H83.263Z" transform="translate(15.017 66.736) rotate(-45)"/>
        <path id="Trazado_120461" data-name="Trazado 120461" d="M69,5.078h7.57V8.464H69Z" transform="translate(34.196 68.88) rotate(-63.435)"/>
      </g>
    </g>
  </g>
</svg>
