<svg xmlns="http://www.w3.org/2000/svg" xmlns:xlink="http://www.w3.org/1999/xlink" width="60" height="60" viewBox="0 0 60 60"><defs><clipPath id="a"><rect width="60" height="60" transform="translate(769 18596)" fill="#26d19e"/></clipPath></defs><g transform="translate(6127 -7582)"><g transform="translate(-6896 -11014)" clip-path="url(#a)"><g transform="translate(769 18596.521)"><path d="M16.967,9.092H59.119L53.656,31.856l-31.086.088Z" fill="#eaeaea"/><path d="M22.05,29.824l.52,2.12,31.086-.088.506-2.107Z" fill="#cbcbcb"/><path d="M55.891,44.074H19.631a6.3,6.3,0,0,1-1.476-12.425L11.957,6.37a.3.3,0,0,0-.293-.23H2.99a2.109,2.109,0,1,1,0-4.218h8.674a4.509,4.509,0,0,1,4.389,3.443L22.57,31.944a3.026,3.026,0,0,1-2.939,3.747,2.082,2.082,0,0,0,0,4.164H55.891a2.109,2.109,0,0,1,0,4.218Z" fill="#dd636e"/><path d="M55.891,41.96H19.631a6.309,6.309,0,0,1-6.21-5.247,6.3,6.3,0,0,0,6.21,7.36H55.891a2.106,2.106,0,0,0,1.823-3.166,2.106,2.106,0,0,1-1.823,1.052Z" fill="#da4a54"/><path d="M11.664,4.614a.587.587,0,0,0-.587-.587H2.99A2.106,2.106,0,0,1,1.166,2.975,2.1,2.1,0,0,0,.887,4.2,2.149,2.149,0,0,0,3.049,6.141h8.616V4.614Z" fill="#da4a54"/><circle cx="7.002" cy="7.002" r="7.002" transform="translate(40.873 44.074)" fill="#8c808a"/><path d="M47.875,55.963a7,7,0,0,1-6.922-5.945,7,7,0,1,0,13.845,0,7,7,0,0,1-6.922,5.945Z" fill="#7b7179"/><circle cx="7.002" cy="7.002" r="7.002" transform="translate(18.829 44.074)" fill="#8c808a"/><path d="M25.83,55.963a7,7,0,0,1-6.922-5.945,7,7,0,1,0,13.845,0,7,7,0,0,1-6.922,5.945Z" fill="#7b7179"/><path fill="none"/><circle cx="3.391" cy="3.391" r="3.391" transform="translate(22.44 47.685)" fill="#f9ef63"/><path d="M25.83,52.352a3.391,3.391,0,0,1-3.222-2.334,3.391,3.391,0,1,0,6.443,0A3.391,3.391,0,0,1,25.83,52.352Z" fill="#f1d333"/><circle cx="3.391" cy="3.391" r="3.391" transform="translate(44.485 47.685)" fill="#f9ef63"/><path d="M47.875,52.352a3.391,3.391,0,0,1-3.222-2.334,3.391,3.391,0,1,0,6.443,0A3.391,3.391,0,0,1,47.875,52.352Z" fill="#f1d333"/><path d="M55.891,38.975H41.313a.881.881,0,1,0,0,1.761H55.891a1.228,1.228,0,0,1,0,2.457H19.631A5.42,5.42,0,0,1,18.361,32.5a.881.881,0,0,0,.649-1.066l-3.73-15.214a.881.881,0,0,0-1.711.419L17.1,31.051a7.182,7.182,0,0,0,2.529,13.9h1.241a7.883,7.883,0,0,0-2.54,8.555.881.881,0,0,0,1.675-.543,6.127,6.127,0,1,1,1.658,2.594.881.881,0,1,0-1.2,1.29,7.88,7.88,0,1,0,10.324-11.9H42.917a7.882,7.882,0,1,0,9.918,0h3.057a2.989,2.989,0,1,0,0-5.979ZM54,51.075a6.121,6.121,0,1,1-6.121-6.121A6.128,6.128,0,0,1,54,51.075Z"/><path d="M59.811,8.547a.881.881,0,0,0-.692-.335H17.658l-.749-3.055a5.388,5.388,0,0,0-5.244-4.114H2.99a2.99,2.99,0,0,0,0,5.979h8.22l1.576,6.429a.881.881,0,0,0,1.711-.419l-1.684-6.87a1.179,1.179,0,0,0-1.148-.9H2.99a1.228,1.228,0,0,1,0-2.457h8.674A3.63,3.63,0,0,1,15.2,5.576l6.517,26.578a2.146,2.146,0,0,1-2.084,2.657,2.963,2.963,0,1,0,0,5.925H37.79a.881.881,0,1,0,0-1.761H19.631a1.2,1.2,0,0,1,0-2.4,3.91,3.91,0,0,0,3.905-3.75l30.123-.086a.881.881,0,0,0,.854-.675L59.976,9.3A.881.881,0,0,0,59.811,8.547ZM54.783,23.388H49.43l1.14-5.827h5.611ZM49.12,15.8H43.6L44.1,9.973H50.26ZM42.275,31.008l.509-5.859h4.507L46.147,31Zm-12.25.035-1.153-5.894h4.507l.511,5.883Zm-6.765.019-1.45-5.913h5.267l1.154,5.9ZM34.335,15.8l-.506-5.827h8.5L41.828,15.8Zm7.34,1.761-.506,5.827H34.994l-.506-5.827Zm-8.449,5.827h-4.7l-1.14-5.827H32.72ZM32.568,15.8H27.043L25.9,9.973h6.158Zm-5.834,7.588H21.379L19.95,17.561h5.643Zm8.414,1.761h5.869l-.509,5.864-4.849.014Zm7.79-1.761.506-5.827h5.332l-1.14,5.827ZM24.109,9.973l1.14,5.827H19.518L18.09,9.973Zm28.852,21-5.019.014,1.143-5.843H54.36ZM56.6,15.8H50.915l1.14-5.827H58Z"/><path d="M25.83,55.346a4.271,4.271,0,1,0-4.271-4.271A4.276,4.276,0,0,0,25.83,55.346Zm0-6.781a2.51,2.51,0,1,1-2.51,2.51A2.513,2.513,0,0,1,25.83,48.565Z"/><path d="M47.875,55.346A4.271,4.271,0,1,0,43.6,51.075,4.276,4.276,0,0,0,47.875,55.346Zm0-6.781a2.51,2.51,0,1,1-2.51,2.51A2.513,2.513,0,0,1,47.875,48.565Z"/></g></g></g></svg>