<svg xmlns="http://www.w3.org/2000/svg" xmlns:xlink="http://www.w3.org/1999/xlink" width="33" height="33" viewBox="0 0 33 33"><defs><clipPath id="a"><rect width="33" height="33" transform="translate(-6631 7262)" fill="#fff" stroke="#707070" stroke-width="1"/></clipPath></defs><g transform="translate(6691 -9671)"><g transform="translate(-60 2409)" clip-path="url(#a)"><g transform="translate(-6631 7262)"><path d="M19.648,6.364c1.606,1.727,1.627,1.694,1.627,1.909h0v-2.1a.416.416,0,0,1,.416-.416h.737a.415.415,0,0,1,.391.278A6.131,6.131,0,0,0,16.712.445h-.468a6.131,6.131,0,0,0-6.107,5.591.415.415,0,0,1,.391-.278h.737a.416.416,0,0,1,.416.416V8.6a.439.439,0,0,1,.47-.437A11.523,11.523,0,0,0,19.087,6.3.439.439,0,0,1,19.648,6.364Z" fill="#576574"/><path d="M12,6.56A6.115,6.115,0,0,1,17.409.486a6.179,6.179,0,0,0-.7-.041h-.468a6.131,6.131,0,0,0-6.107,5.591.415.415,0,0,1,.391-.278h.737a.416.416,0,0,1,.416.416V8.6A.439.439,0,0,1,12,8.174V6.56Z" fill="#3e4b5a"/><path d="M16.492,16.818a4.97,4.97,0,0,1-2.7-.764v2.529l2.692,3.323,2.692-3.323v-2.6A4.706,4.706,0,0,1,16.492,16.818Z" fill="#ffbeab"/><path d="M15.512,16.728a4.822,4.822,0,0,1-1.724-.675v2.529l1.724,2.128V16.728Z" fill="#f7af9f"/><path d="M26.292,21.17,19.17,18.412l-2.692,3.323-2.692-3.323L6.671,21.17a4.513,4.513,0,0,0-2.634,4.086V31.92a.613.613,0,0,0,.613.613H28.319a.607.607,0,0,0,.607-.607v-6.67A4.513,4.513,0,0,0,26.292,21.17Z" fill="#54a0ff"/><path d="M5.763,31.92V24.48a4.407,4.407,0,0,1,2.018-3.74l-1.108.43a4.513,4.513,0,0,0-2.634,4.086V31.92a.613.613,0,0,0,.613.613H6.376A.613.613,0,0,1,5.763,31.92Z" fill="#338def"/><path d="M19.6,6.172a.439.439,0,0,0-.561-.068,11.536,11.536,0,0,1-6.943,1.865.439.439,0,0,0-.471.438v3.849a4.8,4.8,0,0,0,9.6,0V8.1C21.225,7.865,21.235,7.933,19.6,6.172Z" fill="#ffcdbf"/><path d="M13.345,12.255V7.978a10.045,10.045,0,0,1-1.254-.01.439.439,0,0,0-.471.438v3.849a4.857,4.857,0,0,0,5.664,4.665A4.74,4.74,0,0,1,13.345,12.255Z" fill="#ffbeab"/><path d="M19.731,23.442l2.013-4.035-2.572-1L16.48,21.735,19.1,23.6A.425.425,0,0,0,19.731,23.442Z" fill="#338def"/><path d="M13.233,23.442,11.22,19.408l2.572-1,2.692,3.323L13.859,23.6A.425.425,0,0,1,13.233,23.442Z" fill="#338def"/><path d="M16.483,21.737v0h0v0l-1.909,1.356.9,1.358H17.49l.9-1.358Z" fill="#ff6b6b"/><path d="M14.106,32.533h4.753L17.49,24.451H15.474Z" fill="#fc8686"/><path d="M17.437,22.414l-.954-.677v0h0v0l-1.909,1.356.9,1.358h1.911l-.741-1.115a.3.3,0,0,1,.076-.412Z" fill="#ee5253"/><path d="M15.474,24.451l-1.368,8.082h1.911l1.368-8.082Z" fill="#ff6b6b"/><path d="M25.309,8.769a2.481,2.481,0,0,0-2.5-2.466v4.931A2.481,2.481,0,0,0,25.309,8.769Z" fill="#e4eaf8"/><path d="M7.647,8.769A2.466,2.466,0,0,1,10.112,6.3v4.931A2.466,2.466,0,0,1,7.647,8.769Z" fill="#e4eaf8"/><path d="M24.107,6.66A2.507,2.507,0,0,0,22.813,6.3v4.931a2.509,2.509,0,0,0,1.294-.357Z" fill="#d8dce5"/><path d="M8.941,8.769a2.464,2.464,0,0,1,1.171-2.1V6.3a2.466,2.466,0,0,0,0,4.931v-.367A2.464,2.464,0,0,1,8.941,8.769Z" fill="#d8dce5"/><path d="M10.528,5.758h.737a.416.416,0,0,1,.416.416v5.191a.416.416,0,0,1-.416.416h-.737a.416.416,0,0,1-.416-.416V6.174A.416.416,0,0,1,10.528,5.758Z" fill="#d8dce5"/><path d="M11.228,11.365V6.174a.416.416,0,0,1,.226-.37.413.413,0,0,0-.19-.046h-.737a.416.416,0,0,0-.416.416v5.191a.416.416,0,0,0,.416.416h.737a.414.414,0,0,0,.19-.046A.416.416,0,0,1,11.228,11.365Z" fill="#c3c8d1"/><path d="M16.938,15.287h-.61a.789.789,0,1,1,0-1.578h.61a.789.789,0,1,1,0,1.578Z" fill="#576574"/><path d="M16.832,14.5a.788.788,0,0,1,.447-.71.784.784,0,0,0-.342-.079h-.61a.789.789,0,1,0,0,1.578h.61a.784.784,0,0,0,.342-.079A.788.788,0,0,1,16.832,14.5Z" fill="#3e4b5a"/><path d="M22.392,5.758h-.746a.419.419,0,0,0-.421.416v5.191a.418.418,0,0,0,.421.416h.746a.418.418,0,0,0,.421-.416V6.174A.419.419,0,0,0,22.392,5.758Z" fill="#d8dce5"/><path d="M22.341,11.365V6.174a.415.415,0,0,1,.236-.373.423.423,0,0,0-.185-.043h-.746a.419.419,0,0,0-.421.416v5.191a.418.418,0,0,0,.421.416h.746a.423.423,0,0,0,.185-.043A.415.415,0,0,1,22.341,11.365Z" fill="#c3c8d1"/><path d="M4.67,33H28.336a1.094,1.094,0,0,0,1.093-1.093V28.875a.485.485,0,0,0-.971,0v3.033a.122.122,0,0,1-.122.122h-3.39V26.27a.485.485,0,1,0-.971,0v5.759H19.284l-1.267-7.487.519-.781.3.216a.91.91,0,0,0,1.341-.336h0L22,20l4.131,1.6a4,4,0,0,1,2.331,3.635V26.61a.485.485,0,0,0,.971,0V25.238A4.963,4.963,0,0,0,26.494,20.7l-.009,0-6.811-2.638v-1.65A5.255,5.255,0,0,0,21,14.965a2.231,2.231,0,0,0,2.347-2.223V11.661A2.951,2.951,0,0,0,23.3,5.833,6.615,6.615,0,0,0,17.638,0a.485.485,0,0,0-.132.962,5.687,5.687,0,0,1,4.717,4.288h-.513a.9.9,0,0,0-.9.9h0v.508c-.277-.3-.5-.538-.787-.841h0a.922.922,0,0,0-1.181-.144,10.982,10.982,0,0,1-6.656,1.784V6.155h0a.9.9,0,0,0-.9-.9h-.515A5.625,5.625,0,0,1,15.382.982a.485.485,0,1,0-.15-.959,6.594,6.594,0,0,0-5.544,5.81,2.951,2.951,0,0,0,.019,5.837.9.9,0,0,0,.84.577h.668a5.169,5.169,0,0,0,2.1,4.162v1.654L6.515,20.7l-.009,0a4.964,4.964,0,0,0-2.935,4.534V31.9A1.1,1.1,0,0,0,4.67,33ZM14.7,32.029l1.2-7.11h1.2l1.2,7.11Zm-1.044-8.884-1.743-3.494,1.742-.675L15.8,21.623Zm3.594.8h-1.5l-.5-.749,1.246-.885,1.246.885Zm2.1-.8L17.2,21.622l2.144-2.646,1.745.676Zm2.145-9.2a5.188,5.188,0,0,0,.289-1.693h.6v.495A1.255,1.255,0,0,1,21.489,13.94Zm3.353-5.189a1.984,1.984,0,0,1-1.495,1.92V6.831A1.984,1.984,0,0,1,24.842,8.751ZM21.779,6.225h.6v5.052h-.6ZM8.15,8.751a1.984,1.984,0,0,1,1.495-1.92v3.84A1.984,1.984,0,0,1,8.15,8.751Zm2.466,2.465V6.225h.6v5.052h-.6Zm1.569,1.013V8.434a11.976,11.976,0,0,0,7.153-1.923c.877.943,1.343,1.425,1.47,1.589,0,4.438.1,4.832-.386,5.894H18.138a1.276,1.276,0,0,0-1.178-.789h-.61a1.274,1.274,0,0,0,0,2.548h.61a1.276,1.276,0,0,0,1.178-.789H19.8a4.238,4.238,0,0,1-3.238,1.507h0A4.269,4.269,0,0,1,12.184,12.229Zm5.079,2.251a.3.3,0,0,1-.3.3h-.61a.3.3,0,0,1,0-.607h.61A.3.3,0,0,1,17.264,14.48Zm-.7,2.963h0a5.209,5.209,0,0,0,2.137-.459v1.239l-2.2,2.721L14.29,18.219V16.973A5.627,5.627,0,0,0,16.563,17.443Zm-12.021,7.8A4,4,0,0,1,6.872,21.6L11,20l1.816,3.639h0a.91.91,0,0,0,1.341.335l.3-.216.519.781-1.267,7.487H9.025V26.27a.485.485,0,0,0-.971,0V32.03H4.67a.128.128,0,0,1-.127-.127Z"/></g></g></g></svg>