<svg xmlns="http://www.w3.org/2000/svg" xmlns:xlink="http://www.w3.org/1999/xlink" width="60" height="60" viewBox="0 0 60 60"><defs><clipPath id="a"><rect width="60" height="60" transform="translate(275 18596)" fill="#26d19e" stroke="#707070" stroke-width="1"/></clipPath></defs><g transform="translate(-275 -18596)" clip-path="url(#a)"><g transform="translate(275 18596)"><path d="M44.416,54.965A28.821,28.821,0,1,1,54.965,15.6,28.821,28.821,0,0,1,44.416,54.965Z" fill="#78d2fa"/><path d="M32.04,21.381a2.419,2.419,0,0,0-.783.29c-.217.174.122.4,0,.5-.214.171-.369.481-.827.452-.956-.061-2.426-1.3-3.3-1.766,1.409-1.45-.82-1.667-1.689-1.595-1.125.094-3.072-.007-4.089.565-.705.4-1.653,2.046-2.222,2.7a12.471,12.471,0,0,0-2.1,2.793,5.542,5.542,0,0,0,5.593,8.06c1.27-.149,2.6-.948,3.727.106.829.776.39,1.507.61,2.412.19.784,1.058,1.266,1.358,1.985.576,1.379.211,2.242-.2,3.514-.539,1.669.855,3.651,1.4,5.262.273.811,1.07,3.083,1.852,3.438,1.23.559,3.157-1.117,3.891-2.019.574-.7.387-1.421.772-2.081.417-.714.945-.929,1.238-1.85a4.3,4.3,0,0,1,1.308-1.964c1.071-1.166.905-1.847.477-3.23-.89-2.872,2.343-4.214,3.8-6.322,1.521-2.2-1.419-1.468-2.571-2.22-1.184-.774-1.7-2.245-2.273-3.465s-1.043-3.053-1.989-4.055C35.289,22.121,33.074,21.763,32.04,21.381Z" fill="#a5dc69"/><path d="M46.917,40.646l-1.378,4.646c-.321,1.083-1.457,4.624-3.05,2.356-.606-.862-.113-1.992.225-2.785.426-1-.15-1.5.147-2.452.341-1.086,1.743-1.123,2.406-1.887a11.346,11.346,0,0,0,1.086-2Z" fill="#a5dc69"/><path d="M54.965,15.6a28.791,28.791,0,0,0-22.9-14.339L28.3,5.984,20.22,8.816l-2.167,5.253L21.4,18.752l.355-.99a4.161,4.161,0,0,1,3.916-2.755h5.509l6.333,2.225,2.181,2.082v1.323l3.032,5.809.883-.326a14.055,14.055,0,0,0,5.076-3.249l-.732-1.1a.525.525,0,0,1,.437-.817h1.767a1.769,1.769,0,0,1,1.345.62l1.444,1.69a1.77,1.77,0,0,1,.317.544l1.593,4.381.758-.758a2.591,2.591,0,0,0,.731-1.806,1.949,1.949,0,0,1,.651-1.422l.581-.518a1.956,1.956,0,0,1,.482-.316A28.825,28.825,0,0,0,54.965,15.6Z" fill="#a5dc69"/><path d="M11.848,16.721l1.378-1.477a3.766,3.766,0,0,0,.729-4h0a4.2,4.2,0,0,0-3.335-2.567,28.822,28.822,0,0,0-9.166,17.4,23.684,23.684,0,0,1,2.2,2.037A33.016,33.016,0,0,0,7.683,27.6L5.6,24.546l2.99-2.138Z" fill="#a5dc69"/><path d="M14.651,45.438a2.474,2.474,0,0,0,1.588-3.117l-.371-1.142a2.473,2.473,0,0,1,0-1.535h0a2.474,2.474,0,0,0-1.876-3.2l-2.912-.569L5.762,31.83l-4.4,1.429a28.9,28.9,0,0,0,10.813,19.4l1.311-6.841Z" fill="#a5dc69"/><path d="M43.828,53.952l-.045.026A1.172,1.172,0,1,0,44.959,56L45,55.979a1.172,1.172,0,1,0-1.176-2.027Z"/><path d="M55.98,15.009A29.993,29.993,0,0,0,1.035,22.243a30,30,0,0,0,39.7,35.775,1.172,1.172,0,0,0-.841-2.187A27.471,27.471,0,0,1,13.458,52.2l1.05-5.48.506-.164a3.65,3.65,0,0,0,2.341-4.594l-.371-1.142a1.294,1.294,0,0,1,0-.808,3.646,3.646,0,0,0-2.765-4.714l-2.645-.517-5.1-3.88A1.172,1.172,0,0,0,5.4,30.716l-2.988.971a27.626,27.626,0,0,1,0-3.2c.118.11.195.184.242.233a1.228,1.228,0,0,0,1.145.587,17.021,17.021,0,0,0,2.1-.239c.989-.146,1.972-.311,1.982-.312a1.172,1.172,0,0,0,.774-1.816L7.214,24.833l2.058-1.472a1.173,1.173,0,0,0,.335-.371l3.19-5.569,1.286-1.378a4.95,4.95,0,0,0,.955-5.25A5.389,5.389,0,0,0,12.9,8.279,27.614,27.614,0,0,1,29.685,2.365L27.592,4.99l-7.76,2.72a1.171,1.171,0,0,0-.7.659L16.97,13.623A1.172,1.172,0,0,0,17.1,14.75l3.165,4.433a11.137,11.137,0,0,0-1.421,1.764c-.231.328-.449.638-.6.811-.131.151-.262.3-.392.445a10.966,10.966,0,0,0-1.885,2.616,6.983,6.983,0,0,0,.579,7.059,6.577,6.577,0,0,0,6.21,2.665,9.124,9.124,0,0,0,1.145-.231c1-.249,1.323-.273,1.645.028.157.147.171.175.168.672a4.555,4.555,0,0,0,.1,1.161,3.7,3.7,0,0,0,.99,1.618,2.626,2.626,0,0,1,.425.542,2.918,2.918,0,0,1-.142,2.424q-.045.136-.091.279c-.53,1.64.209,3.267.86,4.7.212.466.411.906.542,1.295,1.054,3.126,1.843,3.842,2.477,4.131a2.442,2.442,0,0,0,1.023.217c1.689,0,3.452-1.569,4.262-2.563a3.6,3.6,0,0,0,.725-1.706,1.868,1.868,0,0,1,.15-.524,3.07,3.07,0,0,1,.384-.494,4.066,4.066,0,0,0,.958-1.592,2.579,2.579,0,0,1,.8-1.248c.081-.086.167-.177.259-.278,1.561-1.7,1.159-3,.733-4.369-.358-1.156.268-1.9,1.783-3.306a12.662,12.662,0,0,0,1.861-2,2.53,2.53,0,0,0,.5-2.347c-.424-.983-1.5-1.148-2.367-1.281a3.883,3.883,0,0,1-1.023-.239,5.54,5.54,0,0,1-1.6-2.42c-.085-.19-.17-.378-.255-.561-.152-.326-.3-.719-.466-1.136a9.831,9.831,0,0,0-1.732-3.226,7.484,7.484,0,0,0-3.363-1.494c-.414-.112-.8-.218-1.061-.313a1.171,1.171,0,0,0-.673-.042,3.041,3.041,0,0,0-1.249.517,1.456,1.456,0,0,0-.417.561,13.4,13.4,0,0,1-1.382-.841l-.023-.015a1.661,1.661,0,0,0-.1-1.128c-.655-1.385-2.828-1.276-3.256-1.24-.244.02-.552.031-.878.043-.512.018-1.078.039-1.637.1l.029-.08a3,3,0,0,1,2.813-1.98h.666a1.172,1.172,0,1,0,0-2.344h-.666a5.349,5.349,0,0,0-4.536,2.53l-1.748-2.448L21.1,9.748,28.686,7.09a1.172,1.172,0,0,0,.529-.375l3.371-4.228A27.635,27.635,0,0,1,53.95,16.181a27.346,27.346,0,0,1,2.761,6.707l-.5.443a3.13,3.13,0,0,0-1.043,2.277c0,.009,0,.019,0,.028l-.809-2.226a2.926,2.926,0,0,0-.528-.905l-1.444-1.69a2.937,2.937,0,0,0-2.236-1.031H48.388a1.7,1.7,0,0,0-1.412,2.639l.179.268a12.987,12.987,0,0,1-3.869,2.3l-2.422-4.64V19.314a1.171,1.171,0,0,0-.363-.847l-2.181-2.082a1.173,1.173,0,0,0-.421-.258l-1.964-.69a1.172,1.172,0,1,0-.777,2.211l1.725.606,1.636,1.562v.821a1.172,1.172,0,0,0,.133.542l3.032,5.809a1.171,1.171,0,0,0,1.444.557l.883-.326a15.336,15.336,0,0,0,5.5-3.519,1.172,1.172,0,0,0,.146-1.479l-.062-.094h.56a.6.6,0,0,1,.454.209l1.444,1.69a.6.6,0,0,1,.107.184l1.593,4.381a1.172,1.172,0,0,0,1.93.428l.758-.758a3.658,3.658,0,0,0,.969-1.762,27.749,27.749,0,0,1-10.3,25.236,1.172,1.172,0,1,0,1.447,1.843,30,30,0,0,0,7.426-38.57ZM5.541,33.134l4.832,3.674a1.171,1.171,0,0,0,.485.217l2.912.569a1.3,1.3,0,0,1,.987,1.684,3.622,3.622,0,0,0,0,2.263l.371,1.142a1.3,1.3,0,0,1-.836,1.641l-1.164.378a1.172,1.172,0,0,0-.789.894L11.4,50.489A27.959,27.959,0,0,1,6.061,43.83a27.5,27.5,0,0,1-3.4-9.759Zm-3.06-4.953a1.192,1.192,0,0,0,.019.151A1.132,1.132,0,0,1,2.481,28.181ZM12.872,11.686a2.6,2.6,0,0,1-.5,2.758l-1.378,1.477a1.177,1.177,0,0,0-.16.217L7.7,21.6,4.919,23.593a1.172,1.172,0,0,0-.287,1.613l1.041,1.526c-.6.089-1.138.163-1.5.2-.069-.066-.141-.133-.215-.2-.279-.259-.666-.6-1.243-1.109A27.7,27.7,0,0,1,10.973,9.948,3.046,3.046,0,0,1,12.872,11.686Zm11.674,8.793c.355-.013.69-.024.99-.05a3.187,3.187,0,0,1,.5,0,1.172,1.172,0,0,0,.539,1.458c.22.118.526.322.85.538a6.753,6.753,0,0,0,2.929,1.365,1.944,1.944,0,0,0,1.592-.663c.017-.017.033-.034.05-.05a1.255,1.255,0,0,0,.314-.384c.187.054.384.107.586.162a7.8,7.8,0,0,1,2.271.84,8.318,8.318,0,0,1,1.251,2.462c.176.456.343.886.529,1.285.08.171.159.348.239.526a7.318,7.318,0,0,0,2.454,3.423,4.844,4.844,0,0,0,1.95.594l.255.04a11.331,11.331,0,0,1-1.487,1.56C38.905,34.939,37.1,36.62,37.931,39.3c.392,1.267.411,1.4-.22,2.09-.086.094-.166.179-.241.259a4.815,4.815,0,0,0-1.321,2.143,1.829,1.829,0,0,1-.477.745,5.238,5.238,0,0,0-.656.868,3.8,3.8,0,0,0-.424,1.245,1.436,1.436,0,0,1-.245.687,6.831,6.831,0,0,1-1.479,1.308,1.933,1.933,0,0,1-.982.391,8.358,8.358,0,0,1-1.262-2.752c-.169-.5-.4-1.017-.629-1.515-.5-1.1-1.015-2.236-.764-3.013l.088-.269a5.119,5.119,0,0,0,.078-4.057,4.226,4.226,0,0,0-.853-1.216,2.178,2.178,0,0,1-.448-.594,2.533,2.533,0,0,1-.038-.593,2.906,2.906,0,0,0-.91-2.4,3.775,3.775,0,0,0-3.81-.592,7.351,7.351,0,0,1-.855.178,4.21,4.21,0,0,1-4.034-1.705,4.639,4.639,0,0,1-.364-4.69,8.9,8.9,0,0,1,1.517-2.06c.136-.153.273-.308.411-.466.229-.263.48-.62.746-1a8.472,8.472,0,0,1,1.165-1.449A7.519,7.519,0,0,1,24.546,20.479Z"/><path d="M43.834,49.538c1.2-.2,2.094-1.439,2.828-3.913l1.378-4.646a1.172,1.172,0,0,0,.009-.634l-.564-2.125a1.172,1.172,0,0,0-2.163-.258c-.128.237-.244.487-.356.73a5.036,5.036,0,0,1-.585,1.063,2.587,2.587,0,0,1-.688.408,3.222,3.222,0,0,0-1.952,1.9,3.433,3.433,0,0,0-.078,1.653,1.067,1.067,0,0,1-.03.691l-.012.027c-.373.875-1.067,2.5-.094,3.89a2.441,2.441,0,0,0,1.992,1.243A1.9,1.9,0,0,0,43.834,49.538Zm-.387-2.564c-.224-.319.111-1.1.332-1.625l.012-.027a3.3,3.3,0,0,0,.192-1.952,1.229,1.229,0,0,1,0-.608c.046-.146.321-.288.734-.488.183-.089.385-.186.589-.3l-.887,2.989a7.108,7.108,0,0,1-.9,2.112C43.5,47.042,43.473,47.01,43.447,46.973Z"/><path d="M31.565,13.9a1.172,1.172,0,1,0-.776,2.211l.079.028a1.172,1.172,0,1,0,.776-2.211Z"/></g></g></svg>