<svg xmlns="http://www.w3.org/2000/svg" xmlns:xlink="http://www.w3.org/1999/xlink" width="85" height="103.473" viewBox="0 0 85 103.473"><defs><clipPath id="a"><rect width="67" height="67" transform="translate(189 4864.764)" fill="#ffd41c"/></clipPath></defs><g transform="translate(-285 -13656)"><rect width="85" height="103.473" transform="translate(285 13656)" fill="#26d19e"/><g transform="translate(105 8809.236)" clip-path="url(#a)"><g transform="translate(188.603 4864.466)"><path d="M66.735,36.54V65.212a1.325,1.325,0,0,1-1.324,1.324H2.383a1.325,1.325,0,0,1-1.324-1.324V36.54a1.325,1.325,0,0,1,1.324-1.324H65.411a1.325,1.325,0,0,1,1.324,1.324Z" fill="#efefef"/><path d="M43.964,60.544a1.589,1.589,0,0,1-1.589,1.589H7.415a1.589,1.589,0,0,1-1.589-1.589V43.7A1.589,1.589,0,1,1,9,43.7V58.955H42.375A1.589,1.589,0,0,1,43.964,60.544Z" fill="#72c3e9"/><path d="M28.79,58.955H23.14V48.009a1.324,1.324,0,0,1,1.324-1.324h3a1.324,1.324,0,0,1,1.324,1.324Z" fill="#f0c020"/><path d="M19.831,58.955H14.182V51.691a1.324,1.324,0,0,1,1.324-1.324h3a1.324,1.324,0,0,1,1.324,1.324Z" fill="#fc5d3d"/><path d="M37.748,58.955H32.1v-14a1.324,1.324,0,0,1,1.324-1.324h3a1.324,1.324,0,0,1,1.324,1.324Z" fill="#13bf6d"/><path d="M59.937,15.272V35.216H8.122V15.272H19.353v-9.8H48.441v9.8Z" fill="#72c2e9"/><path d="M59.937,16.861V15.272h-11.5V33.434H19.353V15.272H8.122v1.589h9.753V33.434H8.122v1.782H59.937V33.434H49.919V16.861Z" fill="#4ba5c8"/><path d="M50.626,2.383V4.15A1.324,1.324,0,0,1,49.3,5.474H18.493A1.324,1.324,0,0,1,17.168,4.15V2.383a1.324,1.324,0,0,1,1.324-1.324H49.3A1.324,1.324,0,0,1,50.626,2.383Z" fill="#f2e1d7"/><path d="M62.233,12.182v1.766a1.325,1.325,0,0,1-1.324,1.324H48.441V10.858H60.909A1.325,1.325,0,0,1,62.233,12.182Z" fill="#f2e1d7"/><path d="M19.353,10.858v4.415H6.885a1.325,1.325,0,0,1-1.324-1.324V12.182a1.325,1.325,0,0,1,1.324-1.324Z" fill="#f2e1d7"/><path d="M27.108,14.868H24.334a.794.794,0,0,1-.794-.794V11.3a.794.794,0,0,1,.794-.794h2.775a.794.794,0,0,1,.794.794v2.775A.794.794,0,0,1,27.108,14.868Z" fill="#f0c020"/><path d="M35.284,14.868H32.51a.794.794,0,0,1-.794-.794V11.3a.794.794,0,0,1,.794-.794h2.775a.794.794,0,0,1,.794.794v2.775A.794.794,0,0,1,35.284,14.868Z" fill="#f0c020"/><path d="M27.108,22.9H24.334a.794.794,0,0,1-.794-.794V19.332a.794.794,0,0,1,.794-.794h2.775a.794.794,0,0,1,.794.794v2.775A.794.794,0,0,1,27.108,22.9Z" fill="#f0c020"/><path d="M35.284,22.9H32.51a.794.794,0,0,1-.794-.794V19.332a.794.794,0,0,1,.794-.794h2.775a.794.794,0,0,1,.794.794v2.775A.794.794,0,0,1,35.284,22.9Z" fill="#f0c020"/><path d="M43.461,14.868H40.686a.794.794,0,0,1-.794-.794V11.3a.794.794,0,0,1,.794-.794h2.775a.794.794,0,0,1,.794.794v2.775A.794.794,0,0,1,43.461,14.868Z" fill="#f0c020"/><path d="M43.461,22.9H40.686a.794.794,0,0,1-.794-.794V19.332a.794.794,0,0,1,.794-.794h2.775a.794.794,0,0,1,.794.794v2.775A.794.794,0,0,1,43.461,22.9Z" fill="#f0c020"/><path d="M55.576,22.9H52.8a.794.794,0,0,1-.794-.794V19.332a.794.794,0,0,1,.794-.794h2.775a.794.794,0,0,1,.794.794v2.775A.794.794,0,0,1,55.576,22.9Z" fill="#f0c020"/><path d="M55.576,30.934H52.8a.794.794,0,0,1-.794-.794V27.365a.794.794,0,0,1,.794-.794h2.775a.794.794,0,0,1,.794.794v2.775A.794.794,0,0,1,55.576,30.934Z" fill="#f0c020"/><path d="M15.125,22.9H12.351a.794.794,0,0,1-.794-.794V19.332a.794.794,0,0,1,.794-.794h2.775a.794.794,0,0,1,.794.794v2.775a.8.8,0,0,1-.795.794Z" fill="#f0c020"/><path d="M15.125,30.934H12.351a.794.794,0,0,1-.794-.794V27.365a.794.794,0,0,1,.794-.794h2.775a.794.794,0,0,1,.794.794v2.775a.8.8,0,0,1-.795.794Z" fill="#f0c020"/><path d="M27.185,30.934H23.539v-2.54a1.823,1.823,0,1,1,3.646,0Z" fill="#f0c020"/><path d="M37.295,27.364v7.852H30.5V27.364a.8.8,0,0,1,.794-.794H36.5a.8.8,0,0,1,.794.794Z" fill="#f0c020"/><path d="M30.5,33.434h6.8v1.782H30.5Z" fill="#e8a51f"/><path d="M44.255,30.934H40.609v-2.54a1.823,1.823,0,0,1,3.646,0Z" fill="#f0c020"/><path d="M17.875,10.858h1.478v4.415H17.875Z" fill="#d6c0b3"/><path d="M48.441,10.858h1.478v4.415H48.441Z" fill="#d6c0b3"/><path d="M19.353,5.474H48.441V7.063H19.353Z" fill="#4ba5c8"/><path d="M22.189,42.644c-1.084-.358-2.2-.671-2.833-3.379-.579,2.494-1.507,2.941-2.833,3.379,2.163.714,2.489,1.9,2.833,3.379C19.95,43.469,20.93,43.06,22.189,42.644Z" fill="#f0c020"/><path d="M49.965,54.661c-1.084-.358-2.2-.671-2.833-3.379-.579,2.494-1.507,2.941-2.833,3.379,2.163.714,2.489,1.9,2.833,3.379C47.725,55.486,48.706,55.077,49.965,54.661Z" fill="#f0c020"/><path d="M64.352,64.815H63.138a.662.662,0,0,1,0-1.324h1.214a.662.662,0,0,1,0,1.324Zm-3.862,0H3.443a.662.662,0,0,1-.662-.662V40.43a.662.662,0,0,1,1.324,0V63.491H60.49a.662.662,0,1,1,0,1.324Z" fill="#fff"/><path d="M26.747,59.617a.662.662,0,0,1-.662-.662V52.3a.662.662,0,0,1,1.324,0v6.652A.662.662,0,0,1,26.747,59.617Zm0-9.3a.662.662,0,0,1-.662-.662v-.53a.662.662,0,1,1,1.324,0v.53A.662.662,0,0,1,26.747,50.316Z" fill="#f8e5b0"/><path d="M17.92,59.617a.662.662,0,0,1-.662-.662V56a.662.662,0,1,1,1.324,0v2.957A.662.662,0,0,1,17.92,59.617Zm0-5.605a.662.662,0,0,1-.662-.662v-.53a.662.662,0,1,1,1.324,0v.53A.662.662,0,0,1,17.92,54.012Z" fill="#ffcbc3"/><path d="M35.8,59.617a.662.662,0,0,1-.662-.662v-9.3a.662.662,0,1,1,1.324,0v9.3A.662.662,0,0,1,35.8,59.617Zm0-11.949a.662.662,0,0,1-.662-.662v-.53a.662.662,0,1,1,1.324,0v.53A.662.662,0,0,1,35.8,47.668Z" fill="#76ffbb"/><path d="M61.174,44.909H49.61a.663.663,0,0,0-.307.075l-7.93,4.149a.662.662,0,1,0,.614,1.173l7.785-4.073h11.4a.662.662,0,1,0,0-1.324Z"/><path d="M61.174,48.176H51.6a.662.662,0,1,0,0,1.324h9.578a.662.662,0,0,0,0-1.324Z"/><path d="M61.174,51.442H51.6a.662.662,0,0,0,0,1.324h9.578a.662.662,0,1,0,0-1.324Z"/><path d="M61.174,59.651H51.6a.662.662,0,0,0,0,1.324h9.578a.662.662,0,1,0,0-1.324Z"/><path d="M65.411,34.554H60.6V31.161a.662.662,0,0,0-1.324,0v3.4H49.1V15.934H59.275v9.931a.662.662,0,0,0,1.324,0V15.934h.31A1.988,1.988,0,0,0,62.9,13.948V12.182A1.988,1.988,0,0,0,60.909,10.2H49.1V6.136h.2A1.988,1.988,0,0,0,51.288,4.15V2.383A1.988,1.988,0,0,0,49.3.4H18.493a1.988,1.988,0,0,0-1.986,1.986V4.15a1.988,1.988,0,0,0,1.986,1.986h.2V10.2H15.325a.662.662,0,0,0,0,1.324h3.366v3.09H6.885a.662.662,0,0,1-.662-.662V12.182a.662.662,0,0,1,.662-.662h3.143a.662.662,0,1,0,0-1.324H6.885A1.99,1.99,0,0,0,4.9,12.182v1.766a1.99,1.99,0,0,0,1.986,1.986H7.46v18.62H2.383A1.99,1.99,0,0,0,.4,36.54V65.212A1.99,1.99,0,0,0,2.383,67.2H44.44a.662.662,0,0,0,0-1.324H2.383a.664.664,0,0,1-.662-.662V36.54a.664.664,0,0,1,.662-.662H65.411a.662.662,0,0,1,.662.662V65.212a.662.662,0,0,1-.662.662H49.736a.662.662,0,1,0,0,1.324H65.411A1.99,1.99,0,0,0,67.4,65.212V36.54A1.99,1.99,0,0,0,65.411,34.554Zm-28.778,0H31.159l0-7.19a.133.133,0,0,1,.132-.132H36.5a.133.133,0,0,1,.132.132ZM60.909,11.52a.663.663,0,0,1,.662.662v1.766a.663.663,0,0,1-.662.662H49.1V11.52ZM17.83,4.15V2.383a.663.663,0,0,1,.662-.662H49.3a.663.663,0,0,1,.662.662V4.15a.663.663,0,0,1-.662.662H18.493A.663.663,0,0,1,17.83,4.15ZM47.779,6.136V34.554H37.957v-7.19A1.459,1.459,0,0,0,36.5,25.908H31.294a1.457,1.457,0,0,0-1.457,1.457v7.19H20.015V6.136H47.779Zm-39,9.8h9.907v18.62H8.784Z"/><circle cx="0.662" cy="0.662" r="0.662" transform="translate(46.426 65.875)"/><path d="M7.415,41.445A2.254,2.254,0,0,0,5.164,43.7V60.544a2.254,2.254,0,0,0,2.251,2.251h34.96a2.251,2.251,0,1,0,0-4.5H38.41V44.954a1.988,1.988,0,0,0-1.986-1.986h-3a1.988,1.988,0,0,0-1.986,1.986V58.293H29.452V48.009a1.988,1.988,0,0,0-1.986-1.986h-3a1.988,1.988,0,0,0-1.986,1.986V58.293H20.493v-6.6A1.988,1.988,0,0,0,18.507,49.7h-3a1.988,1.988,0,0,0-1.986,1.986v6.6H9.666V43.7a2.254,2.254,0,0,0-2.251-2.251Zm25.346,3.509a.663.663,0,0,1,.662-.662h3a.663.663,0,0,1,.662.662V58.293H32.761ZM23.8,48.009a.663.663,0,0,1,.662-.662h3a.663.663,0,0,1,.662.662V58.293H23.8Zm-8.958,3.682a.663.663,0,0,1,.662-.662h3a.663.663,0,0,1,.662.662v6.6H14.844Zm27.532,7.926a.927.927,0,1,1,0,1.854H7.415a.928.928,0,0,1-.927-.927V43.7a.927.927,0,1,1,1.854,0V58.955A.662.662,0,0,0,9,59.617Z"/><circle cx="0.662" cy="0.662" r="0.662" transform="translate(59.275 27.851)"/><circle cx="0.662" cy="0.662" r="0.662" transform="translate(12.015 10.196)"/><path d="M24.335,15.529h2.773a1.456,1.456,0,0,0,1.457-1.457V11.3a1.457,1.457,0,0,0-1.457-1.457H24.335A1.459,1.459,0,0,0,22.878,11.3v2.773A1.457,1.457,0,0,0,24.335,15.529ZM24.2,11.3a.131.131,0,0,1,.132-.132h2.773a.131.131,0,0,1,.132.132v2.773a.131.131,0,0,1-.132.132H24.335a.131.131,0,0,1-.132-.132Z"/><path d="M32.51,15.529h2.775a1.459,1.459,0,0,0,1.457-1.457V11.3a1.459,1.459,0,0,0-1.457-1.457H32.51A1.459,1.459,0,0,0,31.053,11.3v2.773a1.459,1.459,0,0,0,1.457,1.457ZM32.377,11.3a.131.131,0,0,1,.132-.132h2.775a.133.133,0,0,1,.132.132v2.773a.133.133,0,0,1-.132.132H32.51a.133.133,0,0,1-.132-.132Z"/><path d="M24.335,23.564h2.773a1.459,1.459,0,0,0,1.457-1.457V19.332a1.457,1.457,0,0,0-1.457-1.457H24.335a1.459,1.459,0,0,0-1.457,1.457v2.775a1.46,1.46,0,0,0,1.457,1.457ZM24.2,19.332a.133.133,0,0,1,.132-.132h2.773a.133.133,0,0,1,.132.132v2.775a.133.133,0,0,1-.132.132H24.335a.133.133,0,0,1-.132-.132Z"/><path d="M32.51,23.564h2.775a1.459,1.459,0,0,0,1.457-1.457V19.332a1.459,1.459,0,0,0-1.457-1.457H32.51a1.459,1.459,0,0,0-1.457,1.457v2.775a1.459,1.459,0,0,0,1.457,1.457Zm-.132-4.232a.133.133,0,0,1,.132-.132h2.775a.133.133,0,0,1,.132.132v2.775a.134.134,0,0,1-.132.132H32.51a.134.134,0,0,1-.132-.132Z"/><path d="M40.687,15.529H43.46a1.459,1.459,0,0,0,1.457-1.457V11.3A1.457,1.457,0,0,0,43.46,9.843H40.687A1.457,1.457,0,0,0,39.231,11.3v2.773A1.459,1.459,0,0,0,40.687,15.529ZM40.552,11.3a.133.133,0,0,1,.135-.132H43.46a.131.131,0,0,1,.132.132v2.773a.131.131,0,0,1-.132.132H40.687a.133.133,0,0,1-.135-.132Z"/><path d="M40.687,23.564H43.46a1.459,1.459,0,0,0,1.457-1.457V19.332a1.459,1.459,0,0,0-1.457-1.457H40.687a1.459,1.459,0,0,0-1.457,1.457v2.775a1.459,1.459,0,0,0,1.457,1.457Zm-.135-4.232a.135.135,0,0,1,.135-.132H43.46a.133.133,0,0,1,.132.132v2.775a.133.133,0,0,1-.132.132H40.687a.135.135,0,0,1-.135-.132Z"/><path d="M57.032,19.332a1.457,1.457,0,0,0-1.457-1.457H52.8a1.459,1.459,0,0,0-1.457,1.457v2.775A1.461,1.461,0,0,0,52.8,23.564h2.773a1.459,1.459,0,0,0,1.457-1.457Zm-1.324,2.775a.133.133,0,0,1-.132.132H52.8a.133.133,0,0,1-.132-.132V19.332A.133.133,0,0,1,52.8,19.2h2.773a.133.133,0,0,1,.132.132Z"/><path d="M55.575,25.908H52.8a1.461,1.461,0,0,0-1.457,1.457v2.775A1.459,1.459,0,0,0,52.8,31.6h2.773a1.457,1.457,0,0,0,1.457-1.457V27.364A1.459,1.459,0,0,0,55.575,25.908Zm.132,4.232a.133.133,0,0,1-.132.132H52.8a.133.133,0,0,1-.132-.132V27.364a.133.133,0,0,1,.132-.132h2.773a.133.133,0,0,1,.132.132Z"/><path d="M15.124,17.875H12.351a1.457,1.457,0,0,0-1.457,1.457v2.775a1.459,1.459,0,0,0,1.457,1.457h2.773a1.459,1.459,0,0,0,1.457-1.457V19.332A1.459,1.459,0,0,0,15.124,17.875Zm.132,4.232a.133.133,0,0,1-.132.132H12.351a.133.133,0,0,1-.132-.132V19.332a.131.131,0,0,1,.132-.132h2.773a.131.131,0,0,1,.132.132v2.775Z"/><path d="M15.124,25.908H12.351a1.457,1.457,0,0,0-1.457,1.457v2.775A1.457,1.457,0,0,0,12.351,31.6h2.773a1.457,1.457,0,0,0,1.457-1.457V27.364A1.458,1.458,0,0,0,15.124,25.908Zm.132,4.232a.131.131,0,0,1-.132.132H12.351a.131.131,0,0,1-.132-.132V27.364a.133.133,0,0,1,.132-.132h2.773a.133.133,0,0,1,.132.132v2.775Z"/><path d="M23.54,31.6h3.647a.663.663,0,0,0,.662-.662v-2.54a2.485,2.485,0,1,0-4.971,0v2.54A.66.66,0,0,0,23.54,31.6Zm.659-3.2a1.161,1.161,0,1,1,2.322,0v1.878H24.2Z"/><path d="M42.432,25.908a2.486,2.486,0,0,0-2.484,2.487v2.54a.66.66,0,0,0,.659.662h3.647a.659.659,0,0,0,.662-.662v-2.54A2.488,2.488,0,0,0,42.432,25.908Zm1.16,4.364H41.27V28.394a1.161,1.161,0,1,1,2.322,0Z"/><path d="M18.712,46.173a.662.662,0,0,0,1.29,0c.53-2.284,1.312-2.542,2.4-2.9a.663.663,0,0,0,0-1.257c-1.037-.342-1.852-.561-2.4-2.9a.662.662,0,0,0-1.29,0c-.53,2.284-1.313,2.543-2.4,2.9a.663.663,0,0,0,0,1.257c1.865.617,2.076,1.525,2.4,2.9Zm.647-4.923a3.687,3.687,0,0,0,1.208,1.4A3.58,3.58,0,0,0,19.373,44a3.745,3.745,0,0,0-1.262-1.343,3.592,3.592,0,0,0,1.249-1.41Z"/><path d="M46.488,58.19a.662.662,0,0,0,1.29,0c.53-2.284,1.312-2.542,2.4-2.9a.663.663,0,0,0,0-1.257c-1.037-.342-1.852-.561-2.4-2.9a.662.662,0,0,0-1.29,0c-.53,2.284-1.313,2.543-2.4,2.9a.663.663,0,0,0,0,1.257c1.865.617,2.076,1.525,2.4,2.9Zm.647-4.923a3.687,3.687,0,0,0,1.208,1.4,3.58,3.58,0,0,0-1.195,1.352,3.745,3.745,0,0,0-1.262-1.343A3.588,3.588,0,0,0,47.135,53.267Z"/></g></g></g></svg>