<svg xmlns="http://www.w3.org/2000/svg" width="288.785" height="288.783" viewBox="0 0 288.785 288.783"><g transform="translate(-241.215 -19569.496)"><g transform="translate(-708.961 19488.348)"><path d="M1227.8,285.05l-29.521,14.741-14.339,7.17-25.2,12.578-4.326,2.163-2.89,1.445-3.546,1.769-.579.286-1.592.8-.224.116-14.293,7.147-5.431,2.712-2.318,1.159-.147.07-6.737,3.369h-.008l-9.9,4.945-.216.108-1.5.749-1.823.9-6.922,3.461-3.616,1.808-.541.27-11.9,5.941-1.453.726-16.665,8.321a19.839,19.839,0,0,1-10.476,2.071c-.116,0-.224-.015-.34-.023a20.226,20.226,0,0,1-11.813-5.215c-.348-.317-.688-.649-1.012-1a19.558,19.558,0,0,1-3.036-4.157c-.124-.224-.247-.448-.355-.68-.008-.015-.015-.023-.023-.039l-.008-.008-2.758-5.516-.348-.7-.3-.61-.834-1.684-.317-.618-.44-.9v-.015l-2.055-4.1-4.659-9.318-.425-.842-.224-.456-1.537-3.083-1.646-3.291-5.617-11.257-.355-.7-1.221-2.434-.6-1.205-.464-.943-.788-1.584c-.008,0-.008,0-.008-.008l-1.924-3.848-1.5-3.005-.07-.155-1.066-2.125a.96.96,0,0,0-.077-.155l-.765-1.514-2.472-4.96-.579-1.167-2.55-5.091-4.048-8.1-.016-.046-4.821-9.658-1.568-3.137-.1-.209-6.49-12.987-2.287-4.574-1.962-3.933-6.613-13.227-2.72-5.447-2.967-5.949L952.3,193.087a20.183,20.183,0,0,1,9.039-27.064l42.385-21.161,33.1-16.541c.008-.008.015-.008.039-.015l7.541-3.763h.008l2.279-1.143,4.188-2.086,3.685-1.839,4.357-2.186,7.6-3.809h.016l5.663-2.82h.016l54.8-27.373a20.162,20.162,0,0,1,27.064,9.024L1186.9,158l12.207,24.445,5.1,10.214.07.139,9.441,18.9v.008l.425.85,4.7,9.41,1.406,2.8,16.588,33.222A20.167,20.167,0,0,1,1227.8,285.05Z" transform="translate(0)" fill="#ffd41c"/><g transform="translate(965.855 193.074)"><g transform="translate(0 27.139)"><path d="M1157.122,278.938V386.962a23.67,23.67,0,0,1-3.677,12.725.163.163,0,0,1-.031.046c-.139.232-.294.456-.448.68a23.8,23.8,0,0,1-19.678,10.391h-77.036c-.116,0-.224-.015-.34-.023a20.226,20.226,0,0,1-11.813-5.215c-.348-.317-.688-.649-1.012-1a19.558,19.558,0,0,1-3.036-4.157c-.124-.224-.247-.448-.355-.68-.008-.015-.015-.023-.023-.039l-.008-.008-2.758-5.516-.348-.7h-.3v-.61l-.834-1.684-.317-.618-.44-.9v-.015l-2.055-4.1-4.659-9.318-.425-.842-.224-.456-1.537-3.083-1.646-3.291L1018.5,357.3l-.355-.7-1.221-2.434-.6-1.205-.464-.943-.788-1.584c-.008,0-.008,0-.008-.008l-1.924-3.848-1.5-3.005-.07-.155-1.066-2.125a.96.96,0,0,0-.077-.155l-.765-1.514-2.472-4.96-.579-1.167-2.55-5.091-4.048-8.1-.016-.046-4.821-9.657-1.568-3.137-.1-.209-6.49-12.987-2.287-4.574-1.962-3.933-6.613-13.227-2.72-5.447-2.967-5.949h168.859A17.792,17.792,0,0,1,1157.122,278.938Z" transform="translate(-970.47 -261.145)" fill="#263238"/><g transform="translate(69.225 138.589)"><path d="M1172.784,440.525v.68h-4.025a22.594,22.594,0,0,1-18.882,10.391H1078.9a18.718,18.718,0,0,1-2.943,0c-.111,0-.215-.015-.326-.023a19.044,19.044,0,0,1-11.335-5.215c-.334-.317-.66-.649-.971-1a19.544,19.544,0,0,1-2.913-4.157c-.119-.224-.237-.448-.341-.68Z" transform="translate(-1060.07 -440.525)" fill="#263238"/></g><g transform="translate(2.967 5.949)"><path d="M1151.289,280.712v102.64a11.873,11.873,0,0,1-11.875,11.875H1037.13v-.61l-.834-1.684-.317-.618-.44-.9V391.4l-2.055-4.1-4.659-9.318-.425-.842-.224-.456-1.537-3.083-1.646-3.291-5.617-11.257-.355-.7-1.221-2.434-.6-1.205-.464-.943-.788-1.584c-.008,0-.008,0-.008-.008l-1.924-3.848-1.5-3.005-.07-.155-1.066-2.125a.96.96,0,0,0-.077-.155l-.765-1.514-2.472-4.96-.579-1.167-2.55-5.091-4.048-8.1-.016-.046-4.821-9.657-1.568-3.137-.1-.209-6.49-12.987-2.287-4.574-1.962-3.933-6.613-13.227-2.72-5.447h165.1A11.872,11.872,0,0,1,1151.289,280.712Z" transform="translate(-974.31 -268.845)" fill="#fff"/></g><g transform="translate(69.225 138.589)"><path d="M1090.719,440.525l-.394.68-2.434,4.157h-24.429a19.562,19.562,0,0,1-3.036-4.157c-.124-.224-.247-.448-.355-.68Z" transform="translate(-1060.07 -440.525)" fill="#455a64"/></g><g transform="translate(69.194 138.542)"><path d="M1170.775,440.465v.726H1060.394c-.117-.224-.233-.448-.335-.68-.007-.015-.015-.023-.022-.039l-.007-.008Z" transform="translate(-1060.03 -440.465)" fill="#455a64"/></g></g><path d="M1049.93,355.295v58.98l-.834-1.684-.317-.618-.44-.9v-.016l-2.055-4.1-4.659-9.318-.425-.842-.224-.456-1.537-3.083-1.646-3.291-5.617-11.257-.355-.7-1.221-2.434V355.295Z" transform="translate(-984.144 -255.415)" fill="#ebebeb"/><rect width="19.327" height="88.564" transform="translate(111.1 70.905)" fill="#ebebeb"/><rect width="19.327" height="107.656" transform="translate(140.671 51.813)" fill="#ebebeb"/><g transform="translate(36.142)"><path d="M1093.575,351.932s-.495.317-1.368.865c-1.29.819-3.407,2.156-5.964,3.732-.981.6-2.032,1.244-3.121,1.908-.015,0-.023.008-.039.015-7.989,4.844-18.256,10.77-22.143,11.736-5.092,1.259-9.148,1.468-14.046,6.2a37.4,37.4,0,0,0-4.427,5.277c-.216.294-.433.6-.649.919l-5.416-3.871-1.646-3.291-5.617-11.257-.355-.7-1.221-2.434-.6-1.205-.463-.943-.788-1.584c-.008,0-.008,0-.008-.008l-1.924-3.847-1.5-3.005-.07-.155-1.066-2.125a.961.961,0,0,0-.077-.155l-.765-1.514-2.472-4.96-.579-1.167,1.846-2.658,9.248-13.32,24.916-19.431.108-.077.07-.054,1.229-.958,5.964-4.651.077-.062,10.021-7.811,6.559,17.4.124.317,3.492,9.279.054.139.8,2.1.046.131.015.046.131.34,3.06,8.1.479,1.283.008.008.95,2.526.046.124.054.147.046.116,4.226,11.2,1.391,3.7Z" transform="translate(-1017.25 -240.873)" fill="#ffbf9d"/><path d="M1120.409,278.5c.636-.033,8.394,5.566,4.024,10.126-4.644,4.847-21.213,18.994-21.213,18.994s-8.4-.785-6.589-5.623C1098.46,297.1,1120.409,278.5,1120.409,278.5Z" transform="translate(-1035.243 -237.951)" fill="#ffbf9d"/><g transform="translate(40.492 5.078)"><path d="M1120.955,350.92a49.018,49.018,0,0,1-12.042-.865,48.625,48.625,0,0,1-18.428-87.6l42.838-29.868,13.17,18.89-42.837,29.868a25.6,25.6,0,0,0,29.029,42.164l42.525-32.328,13.936,18.332L1146.2,342.165l-.208.144A48.254,48.254,0,0,1,1120.955,350.92Z" transform="translate(-1069.66 -232.59)" fill="#26d19e"/></g><path d="M1196.187,338.5l4.261,5.5,17.47-13.281-3.715-4.87Z" transform="translate(-1057.941 -248.721)" fill="#e0e0e0"/><path d="M1141.2,263.267l3.543,4.875,18.017-12.562-3.544-4.962Z" transform="translate(-1045.437 -231.612)" fill="#e0e0e0"/><g transform="translate(40.492 5.136)" opacity="0.3"><path d="M1121.008,351a49.03,49.03,0,0,1-12.043-.866,48.624,48.624,0,0,1-18.427-87.6l42.837-29.867,13.171,18.89-42.838,29.867a25.6,25.6,0,0,0,29.03,42.165l42.525-32.329,13.936,18.332-42.946,32.649-.208.144A48.26,48.26,0,0,1,1121.008,351Z" transform="translate(-1069.712 -232.665)"/></g><g transform="translate(36.913 0.17)"><path d="M1116.323,344.568a49.029,49.029,0,0,1-12.043-.866,48.625,48.625,0,0,1-18.427-87.6l42.837-29.867,13.17,18.89L1099.024,275a25.6,25.6,0,0,0,29.029,42.165l42.525-32.329,13.948,18.548-42.957,32.434-.208.144A48.261,48.261,0,0,1,1116.323,344.568Z" transform="translate(-1065.028 -226.238)" fill="#26d19e"/></g><path d="M1098.882,324.339l1.379-1.057c3.12-3.417,2.565-6.7-.628-8.828a4.2,4.2,0,0,0-2-.754c-3.478-.265-12.315,1.093-16.021,2.779s-5.461,5.953-2.994,8.954,5.657,2.387,10.78,1.819A29.3,29.3,0,0,0,1098.882,324.339Z" transform="translate(-1030.946 -245.949)" fill="#ffbf9d"/><path d="M1088.984,333.912s-5.151,3.7-3.046,7.868,4.6,3.836,9.12,3.1,11.483-7.509,11.483-7.509,2.815-4.223.54-7.187c-3.08-4.014-5.617-2.356-8.262-1.417S1088.984,333.912,1088.984,333.912Z" transform="translate(-1032.755 -249.123)" fill="#ffbf9d"/><path d="M1103.945,346.773s-3.7,6.739,1.116,9.072c4.279,2.07,8.079-2,10.382-5.259s4.34-6.027,1.072-8.533c-3.092-2.37-4.768-2.621-6.776-1.193A31.526,31.526,0,0,0,1103.945,346.773Z" transform="translate(-1036.655 -251.933)" fill="#ffbf9d"/><path d="M1019.038,334.611s9.413-25.693,12.486-32.154,21.716-21.352,21.716-21.352l19.482-8.9s7.273,8.543-1.586,14.783a164.3,164.3,0,0,1-16.894,10.407l-1.835,12.322s5.716,29.4-17.5,47.157Z" transform="translate(-1017.657 -236.521)" fill="#ffbf9d"/><g transform="translate(23.964 60.845)"><path d="M1061.491,304.771a.535.535,0,0,1-.039.141l-.142.4c-.136.35-.311.875-.528,1.553a34.1,34.1,0,0,0-1.229,5.895,63.7,63.7,0,0,0-.351,8.933c.061,3.369.294,7.075.279,10.975a43.318,43.318,0,0,1-1.245,10.912,25.077,25.077,0,0,1-3.763,8.128,17.84,17.84,0,0,1-4.282,4.26l-.8.515c-.234.144-.445.245-.61.335l-.379.2a.549.549,0,0,1-.134.058.606.606,0,0,1,.121-.083l.365-.221c.159-.1.365-.207.594-.357l.78-.534a18.4,18.4,0,0,0,4.184-4.286,25.256,25.256,0,0,0,3.675-8.079,43.771,43.771,0,0,0,1.214-10.847c.016-3.887-.21-7.592-.257-10.969a61.527,61.527,0,0,1,.412-8.962,32.01,32.01,0,0,1,1.322-5.9c.232-.676.426-1.2.579-1.541l.168-.393A.628.628,0,0,1,1061.491,304.771Z" transform="translate(-1048.268 -304.771)" fill="#ff9a6c"/></g><path d="M1123.591,239.1l13.6,18.577,18.017-12.649L1142.1,226.017Z" transform="translate(-1041.432 -226.017)" fill="#e0e0e0"/><path d="M1178.2,315.744l14.5,18.075,17.565-13.208-13.865-18.6Z" transform="translate(-1053.849 -243.3)" fill="#e0e0e0"/><g transform="translate(61.788 67.672)"><path d="M1099.966,313.685a3.456,3.456,0,0,1,.654-.06l.355-.017.424.027.491.036.546.1a5.85,5.85,0,0,1,4.458,4.054l0,.007v.014a5.8,5.8,0,0,1-.446,2.7,8.242,8.242,0,0,1-2.8,3.447,13.767,13.767,0,0,1-3.226,1.67c-.968.362-1.771.589-2.326.743a5.121,5.121,0,0,1-.871.2,5.816,5.816,0,0,1,.84-.308c.543-.186,1.335-.441,2.285-.824a14.319,14.319,0,0,0,3.145-1.694,8.135,8.135,0,0,0,2.7-3.346,5.616,5.616,0,0,0,.433-2.572l0,.02a5.742,5.742,0,0,0-1.835-2.768,5.887,5.887,0,0,0-2.4-1.179l-.529-.12-.48-.053-.416-.048-.351,0A3.494,3.494,0,0,1,1099.966,313.685Z" transform="translate(-1097.225 -313.608)" fill="#ff9a6c"/></g><g transform="translate(65.174 86.812)"><path d="M1111.061,338.383a1.689,1.689,0,0,1-.257.425c-.178.264-.453.634-.808,1.081a26.639,26.639,0,0,1-3.052,3.244,18.786,18.786,0,0,1-3.635,2.581,10.464,10.464,0,0,1-1.227.571,1.7,1.7,0,0,1-.474.15c-.019-.045.629-.321,1.6-.894a22.516,22.516,0,0,0,3.546-2.618,35.356,35.356,0,0,0,3.087-3.161A16.792,16.792,0,0,1,1111.061,338.383Z" transform="translate(-1101.608 -338.382)" fill="#ff9a6c"/></g><path d="M1053.23,410.96l-1.182,1.522-3.647,4.682-4.659-9.318-.425-.842-.224-.456-1.537-3.083-1.646-3.291,7.71,6.243,4.427,3.585Z" transform="translate(-1022.403 -265.621)" fill="#ff725e"/></g><g transform="translate(5.686 38.419)"><path d="M997.686,300.074l4-.981-.124-6.814-4.033-.834a16.565,16.565,0,0,0-1.769-4.079l2.14-3.515L993,279.114l-3.446,2.256a16.749,16.749,0,0,0-4.133-1.63l-.981-3.994-6.606.116,6.614,13.227a7.315,7.315,0,0,1,4.249,8.506l6.49,12.987.1.209,3.036-3.137-2.256-3.446A16.72,16.72,0,0,0,997.686,300.074Z" transform="translate(-977.83 -275.745)" fill="#e0e0e0"/></g><g transform="translate(32.465 40.498)"><path d="M1030.468,290.387l1.97-.479-.062-3.353-1.978-.409a8.193,8.193,0,0,0-.873-2l1.051-1.731-2.411-2.326-1.692,1.113a8.189,8.189,0,0,0-2.032-.8l-.479-1.962-3.345.062-.417,1.978a7.912,7.912,0,0,0-2,.873l-1.731-1.051-2.318,2.41,1.1,1.684a8.1,8.1,0,0,0-.8,2.032l-1.97.487.062,3.345,1.978.409a8.2,8.2,0,0,0,.873,2l-1.051,1.731,2.411,2.326,1.692-1.1a8.166,8.166,0,0,0,2.032.8l.479,1.962,3.345-.054.417-1.986a8.173,8.173,0,0,0,2-.865l1.731,1.051,2.318-2.411-1.1-1.692A7.992,7.992,0,0,0,1030.468,290.387Zm-5.316.4a3.59,3.59,0,1,1-.085-5.076A3.589,3.589,0,0,1,1025.153,290.789Z" transform="translate(-1012.49 -278.435)" fill="#ebebeb"/></g><rect width="19.327" height="27.001" transform="translate(78.226 132.468)" fill="#ebebeb"/></g><g transform="translate(1164.882 158.73)"><circle cx="19.189" cy="19.189" r="19.189" transform="matrix(0.892, -0.451, 0.451, 0.892, 0, 17.314)" fill="#fff"/><g transform="translate(17.59 14.542)"><path d="M1266.953,205.523a5.163,5.163,0,0,0-1.689-3.612,6.513,6.513,0,0,0-4.14-1.519,13.8,13.8,0,0,0-4.423.716,6.77,6.77,0,0,0-2.281,1.049,9.614,9.614,0,0,0-3.021,4.129,16.983,16.983,0,0,0-.355,5.537,2.786,2.786,0,0,0,.912,1.318,10.528,10.528,0,0,0,1.5,3.408l1.412-2.234Z" transform="translate(-1250.867 -200.387)" fill="#263238"/><path d="M1270.321,204.607l-2.278-.987c.57,3.4-.746,10.569-.774,14.02,1.177-1.066,4.126-4.462,4.381-6.029S1273.209,205.01,1270.321,204.607Z" transform="translate(-1254.58 -201.122)" fill="#263238"/><path d="M1254.092,207.208a4.174,4.174,0,0,1,3.939-3.022l5.808-.107c2.428.3,3.322,3.588,2.917,6a38.673,38.673,0,0,1-1.774,7.39c-1.554,3.817-4.71,3.613-4.71,3.613s-.445,1.884-.72,3.041l-2.248,4.912-6.46-4.993,3.222-16.792C1254.081,207.184,1254.064,207.3,1254.092,207.208Z" transform="translate(-1250.845 -201.227)" fill="#ffbf9d"/><path d="M1268.471,215.5a.522.522,0,0,1-.61.4.5.5,0,0,1-.417-.581.522.522,0,0,1,.61-.4A.5.5,0,0,1,1268.471,215.5Z" transform="translate(-1254.618 -203.69)" fill="#263238"/><path d="M1269.607,213.437c-.079.052-.4-.323-.945-.45s-1.012.054-1.056-.027c-.022-.036.07-.141.275-.227a1.43,1.43,0,0,1,.864-.06,1.37,1.37,0,0,1,.732.44C1269.616,213.282,1269.645,213.415,1269.607,213.437Z" transform="translate(-1254.656 -203.172)" fill="#263238"/><path d="M1262.145,213.815a.522.522,0,0,1-.609.4.5.5,0,0,1-.417-.58.522.522,0,0,1,.61-.4A.5.5,0,0,1,1262.145,213.815Z" transform="translate(-1253.179 -203.307)" fill="#263238"/><path d="M1262.886,211.853c-.079.052-.4-.323-.945-.449s-1.012.053-1.055-.027c-.022-.037.069-.141.274-.228a1.43,1.43,0,0,1,.864-.06,1.376,1.376,0,0,1,.733.44C1262.895,211.7,1262.924,211.831,1262.886,211.853Z" transform="translate(-1253.128 -202.812)" fill="#263238"/><path d="M1264.378,216.811a3.692,3.692,0,0,1,.926.047c.143.018.281.021.328-.069a.729.729,0,0,0,0-.436q-.079-.553-.165-1.16a18.791,18.791,0,0,1-.279-3,18.815,18.815,0,0,1,.519,2.969c.051.406.1.793.146,1.163a.824.824,0,0,1-.056.565.358.358,0,0,1-.277.151.935.935,0,0,1-.245-.022A3.684,3.684,0,0,1,1264.378,216.811Z" transform="translate(-1253.922 -203.072)" fill="#263238"/><path d="M1256.676,222.66s.648,3.025,4.7,3.58l.221-.932A10.259,10.259,0,0,1,1256.676,222.66Z" transform="translate(-1252.171 -205.452)" fill="#ff9a6c"/><path d="M1263.1,209.27c-.088.136-.618-.062-1.278-.134s-1.22-.019-1.274-.172c-.023-.073.1-.192.343-.287a2.232,2.232,0,0,1,1.944.233C1263.053,209.06,1263.144,209.2,1263.1,209.27Z" transform="translate(-1253.052 -202.244)" fill="#263238"/><path d="M1269.934,211.212c-.125.1-.472-.115-.924-.227-.447-.127-.856-.111-.914-.262-.024-.073.066-.182.26-.261a1.378,1.378,0,0,1,1.481.394C1269.968,211.021,1269.99,211.161,1269.934,211.212Z" transform="translate(-1254.767 -202.661)" fill="#263238"/><path d="M1267.037,205.615a1.791,1.791,0,0,0-1.307-1.35,3.483,3.483,0,0,0-1.953.1c-2.681.808-4.67,3.817-7.334,4.678-.655.212-1.327-.282-1.922.063a1.728,1.728,0,0,0-.96,1.682,5.682,5.682,0,0,1-.487-1.558,1.921,1.921,0,0,1,.43-1.529c.283-.3.7-.485.893-.854a5.5,5.5,0,0,0,.215-1.067,2.376,2.376,0,0,1,.6-.926,10.568,10.568,0,0,1,4.726-3.092,6.894,6.894,0,0,1,3.689-.08,5.271,5.271,0,0,1,3,2.093c.407.609.837,1.241.411,1.837" transform="translate(-1251.348 -200.634)" fill="#263238"/><g transform="translate(0.582 8.522)"><path d="M1254.13,211.875a1.42,1.42,0,0,0-2.452.834,1.648,1.648,0,0,0,1.741,2.156C1253.439,214.8,1254.13,211.875,1254.13,211.875Z" transform="translate(-1251.598 -211.418)" fill="#ffbf9d"/></g><g transform="translate(1.151 9.206)"><path d="M1253.128,214.1c-.007-.009-.043.017-.113.03a.383.383,0,0,1-.279-.063.946.946,0,0,1-.223-.928,1.263,1.263,0,0,1,.235-.505.44.44,0,0,1,.349-.216.194.194,0,0,1,.194.155c.014.066-.01.106,0,.112s.054-.024.059-.117a.244.244,0,0,0-.051-.154.289.289,0,0,0-.192-.1.536.536,0,0,0-.469.235,1.294,1.294,0,0,0-.274.562.99.99,0,0,0,.315,1.052.406.406,0,0,0,.353.027C1253.112,214.147,1253.135,214.1,1253.128,214.1Z" transform="translate(-1252.335 -212.303)" fill="#ff9a6c"/></g><path d="M1254.11,208.787a.932.932,0,0,0,.146-.042c.094-.032.236-.072.412-.143a7.55,7.55,0,0,0,1.4-.777,21.256,21.256,0,0,0,1.84-1.5,17.222,17.222,0,0,1,2.278-1.778,6.876,6.876,0,0,1,1.348-.63,5.677,5.677,0,0,1,1.358-.267,6.235,6.235,0,0,1,2.326.255,6.016,6.016,0,0,1,1.445.654c.162.094.278.184.36.24a.948.948,0,0,0,.128.083.788.788,0,0,0-.116-.1,3.648,3.648,0,0,0-.351-.257,5.708,5.708,0,0,0-1.445-.688,6.206,6.206,0,0,0-2.354-.28,5.72,5.72,0,0,0-1.381.267,6.916,6.916,0,0,0-1.37.638,16.747,16.747,0,0,0-2.287,1.794,22.626,22.626,0,0,1-1.82,1.51,8.1,8.1,0,0,1-1.374.8c-.172.076-.311.121-.4.16A.942.942,0,0,0,1254.11,208.787Z" transform="translate(-1251.587 -201.105)" fill="#fff"/><path d="M1254.547,210.577a3.375,3.375,0,0,0-.2,1.765,1.163,1.163,0,0,0,1.318.924c.469-.139.718-.64.9-1.094.523-1.311.939-2.664,1.473-3.97Z" transform="translate(-1251.63 -202.164)" fill="#263238"/><path d="M1267.095,205.254c0,.012-.18-.08-.519-.172a3.744,3.744,0,0,0-1.473-.075,4.722,4.722,0,0,0-.992.247,9.8,9.8,0,0,0-1.077.481,11.271,11.271,0,0,0-2.241,1.506c-.36.317-.693.651-1.038.953a5.58,5.58,0,0,1-1.082.76,9.769,9.769,0,0,1-2.088.781c-.614.16-1.118.255-1.466.32l-.4.07a.643.643,0,0,1-.141.016.6.6,0,0,1,.137-.04l.4-.092c.345-.08.845-.188,1.453-.358a10.058,10.058,0,0,0,2.057-.8,5.506,5.506,0,0,0,1.056-.751c.34-.3.672-.634,1.037-.954a11.049,11.049,0,0,1,2.271-1.514,9.542,9.542,0,0,1,1.095-.477,4.738,4.738,0,0,1,1.015-.237,3.629,3.629,0,0,1,1.5.115,2.611,2.611,0,0,1,.382.148A.589.589,0,0,1,1267.095,205.254Z" transform="translate(-1251.693 -201.412)" fill="#455a64"/><path d="M1254.284,208.675a.994.994,0,0,1-.219.083l-.615.19-.206.061a.573.573,0,0,1-.252.022.226.226,0,0,1-.137-.068.189.189,0,0,1-.046-.159.485.485,0,0,1,.165-.246l.864-.856.066.1a2.287,2.287,0,0,1-1.551.09.651.651,0,0,1-.186-.079.267.267,0,0,1-.131-.183.234.234,0,0,1,.086-.207.9.9,0,0,1,.153-.105,4.6,4.6,0,0,0,.943-.746,7.633,7.633,0,0,0,.694-.874,1.171,1.171,0,0,1-.135.272,4.126,4.126,0,0,1-.5.662,4.451,4.451,0,0,1-.947.783c-.1.056-.2.124-.182.2s.123.134.235.161a2.208,2.208,0,0,0,1.469-.085l.3-.127-.233.225-.875.846a.415.415,0,0,0-.14.187c-.011.061.032.109.1.12a1.123,1.123,0,0,0,.421-.068l.625-.155A.97.97,0,0,1,1254.284,208.675Z" transform="translate(-1251.115 -201.595)" fill="#fff"/><path d="M1261.359,218.722a.733.733,0,0,1,.865-.368.766.766,0,0,1,.477.543.941.941,0,0,1-.135.721l-.024.049a.833.833,0,0,1-.96-.021A.78.78,0,0,1,1261.359,218.722Z" transform="translate(-1253.22 -204.465)" fill="#ff9a6c"/><path d="M1263.044,219.642c.02-.083-.539-.187-.848-.739s-.138-1.136-.216-1.154c-.033-.015-.133.113-.186.363a1.423,1.423,0,0,0,.148.958,1.234,1.234,0,0,0,.718.583C1262.89,219.717,1263.04,219.68,1263.044,219.642Z" transform="translate(-1253.329 -204.335)" fill="#263238"/></g><g transform="translate(9.131 33.99)"><path d="M1263.327,232.04a11.374,11.374,0,0,0-2.384-2.145l-3.67-1.841a4.3,4.3,0,0,1-4.813,1.379,5.576,5.576,0,0,1-3.566-3.764s-5.2-.677-9,1.339a19.264,19.264,0,0,0,25.126,7.608A22.629,22.629,0,0,0,1263.327,232.04Z" transform="translate(-1239.896 -225.56)" fill="#455a64"/></g><g transform="translate(6.693 6.506)"><path d="M1237.373,214.121s.04.1.106.3.161.5.283.873l.2.644c.086.233.2.479.317.75a13.841,13.841,0,0,0,.878,1.83,18.394,18.394,0,0,0,3.327,4.434,19.273,19.273,0,0,0,14.777,5.57,17.885,17.885,0,0,0,2.419-.324c.4-.088.817-.151,1.223-.26l1.214-.375c.2-.066.411-.118.61-.2l.6-.252c.4-.173.8-.328,1.2-.52a20.28,20.28,0,0,0,2.293-1.354,20.066,20.066,0,0,0,2.153-1.678c.338-.312.651-.655.981-.984a9.762,9.762,0,0,0,.926-1.056,21.5,21.5,0,0,0,1.653-2.324,21.807,21.807,0,0,0,1.276-2.613,18.562,18.562,0,0,0,1.36-5.788,18.981,18.981,0,0,0-2.964-11.719l-.852-1.248q-.482-.578-.962-1.15a4.709,4.709,0,0,0-.506-.546l-.529-.521-.528-.517-.572-.464a21.69,21.69,0,0,0-2.365-1.693,21.385,21.385,0,0,0-2.56-1.258,9.769,9.769,0,0,0-1.316-.489c-.447-.132-.886-.285-1.332-.4a20.984,20.984,0,0,0-5.354-.552c-.437.019-.871.076-1.3.113l-.644.061c-.213.025-.421.08-.631.117l-1.246.247c-.408.1-.8.238-1.2.353a17.885,17.885,0,0,0-2.281.866,19.273,19.273,0,0,0-10.349,11.928,18.414,18.414,0,0,0-.817,5.482,14.09,14.09,0,0,0,.1,2.028c.03.292.043.565.078.81l.126.664c.072.389.127.688.166.9s.048.311.048.311-.03-.1-.076-.3-.11-.511-.194-.9l-.139-.663c-.04-.246-.059-.519-.093-.813a13.736,13.736,0,0,1-.124-2.037,18.277,18.277,0,0,1,.777-5.527,19.39,19.39,0,0,1,10.4-12.094,18,18,0,0,1,2.307-.884c.4-.118.8-.262,1.214-.361l1.262-.254c.212-.039.423-.093.639-.12l.652-.063c.436-.038.875-.1,1.318-.117a21.181,21.181,0,0,1,5.428.549c.453.114.9.268,1.351.4a9.973,9.973,0,0,1,1.335.494,17.758,17.758,0,0,1,5,2.987l.58.47.537.523.537.528a4.829,4.829,0,0,1,.514.553l.977,1.167.865,1.266a19.229,19.229,0,0,1,3.007,11.89,18.8,18.8,0,0,1-1.384,5.87,21.9,21.9,0,0,1-1.3,2.648,21.664,21.664,0,0,1-1.68,2.354,9.924,9.924,0,0,1-.939,1.069c-.335.333-.654.68-1,1a20.315,20.315,0,0,1-2.186,1.7,20.525,20.525,0,0,1-2.327,1.367c-.4.193-.814.349-1.215.524l-.6.254c-.2.08-.413.131-.619.2l-1.23.376c-.41.11-.83.173-1.239.26a18.047,18.047,0,0,1-2.45.32,19.393,19.393,0,0,1-14.9-5.691,18.308,18.308,0,0,1-3.313-4.493,13.713,13.713,0,0,1-.859-1.85c-.11-.274-.223-.523-.305-.759l-.193-.65c-.11-.381-.2-.674-.256-.882S1237.373,214.121,1237.373,214.121Z" transform="translate(-1236.741 -189.986)" fill="#263238"/></g></g><g transform="translate(1149.453 208.46)"><g transform="translate(0)"><circle cx="27.934" cy="27.934" r="27.934" transform="translate(0 39.504) rotate(-45)" fill="#fff"/><g transform="translate(22.551 20.985)"><g transform="translate(2.747)"><g transform="translate(16.487)"><path d="M1273.116,289.749c-.155-2.645.075-5.309-.213-7.942a10.962,10.962,0,0,0-3.155-7.1c-1.976-1.764-5.227-2.261-7.276-.579l-.283,2.281L1266.9,306.8a10.469,10.469,0,0,0,1.12,3.854,3.563,3.563,0,0,0,3.32,1.879c1.747-.232,2.772-2.091,3.2-3.8C1276.085,302.535,1273.49,296.126,1273.116,289.749Z" transform="translate(-1262.19 -273.094)" fill="#263238"/></g><g transform="translate(15.686 1.066)"><path d="M1265.555,276.809a7.369,7.369,0,0,0-1.473-1.726,2.525,2.525,0,0,0-2.129-.548,1.047,1.047,0,0,0-.782.661c-.094.345.189.776.543.722l.08.059q1.261.965,2.56,1.881a2.066,2.066,0,0,0,.7.369.717.717,0,0,0,.728-.209C1266.054,277.67,1265.8,277.172,1265.555,276.809Z" transform="translate(-1261.153 -274.473)" fill="#ff725e"/></g><g transform="translate(0 1.46)"><path d="M1262.615,279.415A13.366,13.366,0,0,0,1251.922,275a14.335,14.335,0,0,0-4.943,1.259,7.42,7.42,0,0,0-4.025,3.091,12.455,12.455,0,0,0-2.029,5.841,34.884,34.884,0,0,0,.147,6.41,11.7,11.7,0,0,0,2.417,5.861l5.484.559a34.171,34.171,0,0,0,8.906-1.115,11.513,11.513,0,0,0,6.969-5.322C1266.766,287.884,1265.477,282.447,1262.615,279.415Z" transform="translate(-1240.851 -274.983)" fill="#263238"/></g><g transform="translate(1.006 3.836)"><path d="M1249.928,308.342c-.1-1.9-.2-4.292-.2-4.283s-4.453-.175-6.073-5.75a61.264,61.264,0,0,1-1.488-11.253c-.215-3.44,2.381-8.33,6.626-8.645l1.871-.352,7.426,2.36a2.017,2.017,0,0,1,2.046,1.8l2.034,24.879-4.082,8.057-8.735-5.829Z" transform="translate(-1242.153 -278.059)" fill="#cc6760"/><g transform="translate(7.376 17.366)"><path d="M1254.223,301.5a1.207,1.207,0,0,0-.469-.714,1.235,1.235,0,0,0-1.5.02,1.654,1.654,0,0,0-.517,1.593h0a1.5,1.5,0,0,0,1.117.547,1.961,1.961,0,0,0,.2-.008,1.349,1.349,0,0,0,.882-.423A1.2,1.2,0,0,0,1254.223,301.5Z" transform="translate(-1251.7 -300.537)" fill="#9d4941"/></g><g transform="translate(1.425 6.574)"><g transform="translate(1.175 5.921)"><path d="M1245.521,294.987a.736.736,0,0,0,.8.648.7.7,0,0,0,.669-.753.735.735,0,0,0-.8-.647A.7.7,0,0,0,1245.521,294.987Z" transform="translate(-1245.518 -294.232)" fill="#263238"/></g><g transform="translate(0 3.279)"><path d="M1244.014,291.776c.1.083.6-.4,1.389-.492s1.41.223,1.484.116c.036-.048-.077-.208-.352-.358a2.014,2.014,0,0,0-1.2-.211,1.937,1.937,0,0,0-1.091.51C1244.024,291.556,1243.964,291.738,1244.014,291.776Z" transform="translate(-1243.998 -290.813)" fill="#263238"/></g><g transform="translate(3.441 3.479)"><path d="M1250.529,297.658a5.206,5.206,0,0,0-1.3-.07c-.2,0-.4-.012-.449-.144a1.024,1.024,0,0,1,.059-.611q.191-.764.4-1.6a26.438,26.438,0,0,0,.828-4.161,26.493,26.493,0,0,0-1.161,4.085q-.2.841-.374,1.607a1.17,1.17,0,0,0,0,.8.507.507,0,0,0,.366.252,1.347,1.347,0,0,0,.347,0A5.161,5.161,0,0,0,1250.529,297.658Z" transform="translate(-1248.451 -291.071)" fill="#263238"/></g><g transform="translate(6.149 16.432)"><path d="M1251.956,310.831a14.6,14.6,0,0,0,7.364-2.994s-1.533,4.2-7.295,4.385Z" transform="translate(-1251.956 -307.837)" fill="#9d4941"/></g><g transform="translate(5.659 10.317)"><path d="M1253.562,299.923c-.129.008-.023.861-.676,1.558s-1.572.718-1.564.837c-.006.056.222.141.607.1a2.14,2.14,0,0,0,1.312-.651,1.863,1.863,0,0,0,.512-1.3C1253.741,300.109,1253.619,299.91,1253.562,299.923Z" transform="translate(-1251.322 -299.922)" fill="#263238"/></g><g transform="translate(0.065 0.597)"><path d="M1244.106,288.206c.157.175.742-.029,1.452-.059.708-.053,1.315.082,1.448-.111.058-.093-.042-.27-.31-.433a2.252,2.252,0,0,0-2.336.137C1244.115,287.933,1244.037,288.121,1244.106,288.206Z" transform="translate(-1244.082 -287.341)" fill="#263238"/></g><g transform="translate(8.675 5.248)"><path d="M1256.685,293.963a.737.737,0,0,1-.641.8.7.7,0,0,1-.814-.594.736.736,0,0,1,.64-.8A.7.7,0,0,1,1256.685,293.963Z" transform="translate(-1255.225 -293.361)" fill="#263238"/></g><g transform="translate(7.763 2.531)"><path d="M1256.945,290.5c-.082.1-.674-.258-1.462-.186s-1.331.517-1.425.428c-.047-.039.032-.22.266-.426a2.022,2.022,0,0,1,1.131-.46,1.936,1.936,0,0,1,1.174.267C1256.888,290.284,1256.986,290.449,1256.945,290.5Z" transform="translate(-1254.046 -289.844)" fill="#263238"/></g><g transform="translate(6.99)"><path d="M1256.065,287.259c-.14.192-.764.06-1.5.116-.734.033-1.34.24-1.5.065-.071-.085.011-.273.266-.467a2.395,2.395,0,0,1,2.414-.146C1256.025,286.988,1256.125,287.165,1256.065,287.259Z" transform="translate(-1253.045 -286.568)" fill="#263238"/></g></g><g transform="translate(17.674 12.063)"><path d="M1265.034,295.441c-.052-.423.311-1.484.722-1.6,1.1-.315,3.121-.48,3.5,2.356.514,3.875-3.483,3.593-3.5,3.483C1265.732,299.592,1265.215,296.905,1265.034,295.441Z" transform="translate(-1265.029 -293.672)" fill="#cc6760"/><g transform="translate(1.503 1.278)"><path d="M1267.072,298.5c.016-.015.074.039.2.076a.682.682,0,0,0,.506-.056,1.687,1.687,0,0,0,.574-1.6,2.247,2.247,0,0,0-.318-.943.787.787,0,0,0-.577-.45.348.348,0,0,0-.374.238c-.037.115,0,.189-.022.2s-.092-.053-.082-.218a.434.434,0,0,1,.12-.263.52.52,0,0,1,.361-.148.959.959,0,0,1,.785.508,2.317,2.317,0,0,1,.378,1.049,1.768,1.768,0,0,1-.763,1.8.727.727,0,0,1-.631-.021C1267.092,298.589,1267.06,298.505,1267.072,298.5Z" transform="translate(-1266.975 -295.327)" fill="#9d4941"/></g></g></g><g transform="translate(5.507 3.166)"><path d="M1262.039,290.091l-.917,1.1c-4.56-3.786-13.632-13.432-13.122-12.855a12.461,12.461,0,0,1,6.056-1.094c3.214.316,9.351,1.48,9.523,5.232A19.593,19.593,0,0,1,1262.039,290.091Z" transform="translate(-1247.978 -277.191)" fill="#263238"/></g><g transform="translate(6.156 3.361)"><path d="M1267.826,288.888a1.082,1.082,0,0,0-.076-.221,3.968,3.968,0,0,0-.309-.595,5.682,5.682,0,0,0-1.756-1.715,10.67,10.67,0,0,0-3.387-1.344c-1.333-.332-2.824-.558-4.308-1.075a19.112,19.112,0,0,1-4-1.882,19.933,19.933,0,0,1-2.883-2.181,21.115,21.115,0,0,1-1.7-1.752l-.429-.509a1.024,1.024,0,0,0-.159-.17,1.038,1.038,0,0,0,.127.195c.09.123.219.308.4.535a18.015,18.015,0,0,0,1.666,1.806,19.037,19.037,0,0,0,2.881,2.234,18.715,18.715,0,0,0,4.032,1.916,42.931,42.931,0,0,0,4.329,1.064,10.826,10.826,0,0,1,3.355,1.284,5.86,5.86,0,0,1,1.767,1.639C1267.7,288.592,1267.805,288.9,1267.826,288.888Z" transform="translate(-1248.818 -277.444)" fill="#455a64"/></g><g transform="translate(6.39 4.181)"><path d="M1266.8,289.823a2.047,2.047,0,0,0-.211-.84,3.986,3.986,0,0,0-1.593-1.729,8.819,8.819,0,0,0-3.338-1.044,19.3,19.3,0,0,1-4.127-1,17.163,17.163,0,0,1-3.756-1.967A17.66,17.66,0,0,1,1251.14,281a18.569,18.569,0,0,1-1.509-1.794c-.15-.212-.272-.384-.369-.522a.985.985,0,0,0-.141-.175.942.942,0,0,0,.107.2l.338.545a15.788,15.788,0,0,0,1.47,1.846,16.826,16.826,0,0,0,6.427,4.308,18.83,18.83,0,0,0,4.169.99,8.907,8.907,0,0,1,3.293.983,4.028,4.028,0,0,1,1.6,1.642A4.678,4.678,0,0,1,1266.8,289.823Z" transform="translate(-1249.121 -278.506)" fill="#455a64"/></g><g transform="translate(19.055 3.715)"><path d="M1266.364,296.853c-.006-.026.325-.093.89-.284a5.588,5.588,0,0,0,2.093-1.372,7.855,7.855,0,0,0,1.8-3.24,13.662,13.662,0,0,0,.526-4.551,10.557,10.557,0,0,0-1.15-4.412,11.3,11.3,0,0,0-2.239-3,18.305,18.305,0,0,0-2.774-2.093.847.847,0,0,1,.223.1c.141.075.356.172.614.331a11.886,11.886,0,0,1,2.061,1.533,11.1,11.1,0,0,1,2.325,3.022,10.595,10.595,0,0,1,1.2,4.508,13.561,13.561,0,0,1-.557,4.633,7.865,7.865,0,0,1-1.9,3.3,5.42,5.42,0,0,1-2.19,1.339,4.9,4.9,0,0,1-.681.158A.885.885,0,0,1,1266.364,296.853Z" transform="translate(-1265.515 -277.902)" fill="#455a64"/></g></g><path d="M1272.1,316.579a12.275,12.275,0,0,0-4.924-1.1l-5.962-.409s-2.933,4.738-7.381,4.719-5.142-2.957-5.142-2.957-7.431,1.758-11.4,6.6a28.045,28.045,0,0,0,38.016-3.908A10.317,10.317,0,0,0,1272.1,316.579Z" transform="translate(-1237.295 -282.64)" fill="#ff725e"/></g></g><g transform="translate(11.45 11.468)"><path d="M1278.846,286.841s-.029-.151-.07-.448l-.174-1.317q-.057-.436-.125-.97c-.062-.355-.165-.736-.257-1.152s-.2-.864-.31-1.342a4.828,4.828,0,0,0-.211-.729q-.126-.372-.259-.766a26.631,26.631,0,0,0-3.6-7.181,27.78,27.78,0,0,0-7.617-7.382l-1.263-.81c-.441-.246-.9-.468-1.361-.708-.467-.223-.913-.5-1.409-.687l-1.49-.59c-.252-.1-.5-.2-.758-.3l-.79-.226-1.6-.459c-.543-.138-1.106-.212-1.666-.323a14.177,14.177,0,0,0-1.707-.262,25.855,25.855,0,0,0-3.536-.158c-.6.022-1.207.005-1.814.058l-1.829.224c-.306.043-.617.063-.922.126l-.915.207c-.61.146-1.233.263-1.845.435a29.469,29.469,0,0,0-3.622,1.346l-.9.4c-.149.069-.3.131-.448.206l-.43.246-1.731.991c-.563.359-1.1.769-1.654,1.153-.271.2-.563.378-.819.6l-.773.669a31.469,31.469,0,0,0-2.957,2.9l-1.3,1.653-.328.415-.288.444-.575.895-.577.9-.494.952-.492.958-.247.48c-.073.165-.135.335-.2.5l-.8,2.022-.607,2.106a27.539,27.539,0,0,0,1.235,17.5q.45,1,.9,2l1.081,1.89.271.468.313.441.623.879.623.873.7.808.7.805.348.4.382.365,1.52,1.453a31.263,31.263,0,0,0,3.335,2.451l.86.553c.284.186.6.32.9.481.6.3,1.192.633,1.8.909l1.853.738.461.183c.155.053.315.093.473.141l.944.272a29.476,29.476,0,0,0,3.776.824c.63.084,1.263.112,1.887.171l.936.076c.311.019.622-.005.931-.006l1.843-.035c.608-.034,1.207-.135,1.8-.2a25.752,25.752,0,0,0,3.48-.654,14.127,14.127,0,0,0,1.653-.5c.538-.188,1.085-.341,1.6-.554l1.521-.68.75-.335.708-.4,1.392-.793c.465-.253.868-.593,1.3-.879s.847-.586,1.249-.893l1.136-.98a27.751,27.751,0,0,0,6.5-8.38,26.606,26.606,0,0,0,2.558-7.616l.148-.794a4.849,4.849,0,0,0,.107-.752q.062-.734.117-1.372c.032-.425.08-.817.092-1.177q-.007-.539-.013-.978-.008-.868-.012-1.328c0-.3.005-.454.005-.454s.012.153.023.453.023.75.041,1.33l.026.98c-.007.36-.051.753-.079,1.181s-.068.886-.1,1.378a4.865,4.865,0,0,1-.1.756q-.069.387-.143.8a26.509,26.509,0,0,1-2.525,7.668,27.845,27.845,0,0,1-6.511,8.458l-1.142.99c-.4.311-.832.6-1.255.9s-.837.634-1.306.889l-1.4.8-.712.4-.755.34-1.532.688c-.522.216-1.073.372-1.616.562a14.354,14.354,0,0,1-1.665.508,26.006,26.006,0,0,1-3.508.668c-.6.065-1.205.168-1.819.2l-1.859.039c-.312,0-.626.026-.939.007l-.943-.076c-.63-.058-1.269-.085-1.905-.169a29.773,29.773,0,0,1-3.812-.825l-.953-.274c-.158-.047-.32-.088-.477-.141l-.464-.185-1.872-.742c-.614-.278-1.208-.61-1.818-.916-.3-.163-.617-.3-.9-.485l-.869-.558a31.514,31.514,0,0,1-3.369-2.472l-1.536-1.466-.386-.369-.351-.4-.7-.812-.705-.816-.63-.882-.629-.887-.316-.446-.273-.473-1.092-1.908-.908-2.021a27.794,27.794,0,0,1-1.248-17.673l.614-2.128.812-2.042c.069-.169.132-.34.205-.507l.25-.484.5-.967.5-.96.583-.907.581-.9.292-.448.331-.419,1.313-1.667a31.489,31.489,0,0,1,2.988-2.921l.781-.674c.259-.226.553-.4.828-.607.561-.388,1.1-.8,1.671-1.162l1.749-1,.433-.247c.149-.074.3-.138.453-.207l.9-.4a29.574,29.574,0,0,1,3.657-1.354c.617-.172,1.246-.29,1.862-.436l.924-.208c.308-.062.622-.082.93-.125l1.846-.223c.612-.052,1.225-.035,1.829-.055a26.038,26.038,0,0,1,3.566.167,14.275,14.275,0,0,1,1.72.268c.564.113,1.132.189,1.678.329l1.614.467.8.23c.257.094.509.2.763.3l1.5.6c.5.187.949.47,1.418.7.461.243.926.468,1.369.718l1.27.82a27.828,27.828,0,0,1,7.636,7.458,26.5,26.5,0,0,1,3.58,7.236l.253.77a4.768,4.768,0,0,1,.206.734q.16.721.3,1.349c.088.419.187.8.244,1.158q.063.537.112.974.1.865.147,1.323C1278.837,286.688,1278.846,286.841,1278.846,286.841Z" transform="translate(-1222.926 -260.775)" fill="#263238"/></g></g><g transform="translate(1123.012 179.091)"><circle cx="17.98" cy="17.98" r="17.98" transform="matrix(0.035, -0.999, 0.999, 0.035, 0, 35.938)" fill="#fff"/><g transform="translate(6.853 3.455)"><g transform="translate(3.822 2.26)"><path d="M1191.858,237.424c0-1.121,0-2.055-.006-2.17,0,0-3.789-.358-4.061-4.109-.131-1.813-.1-5.567-.029-8.964a7,7,0,0,1,6.585-6.844l.362-.022c3.919-.007,6.113,3.318,6.011,7.235l-.137,14.7-6.339,5.09-.459-.041Z" transform="translate(-1187.701 -215.316)" fill="#ffbf9d"/></g><g transform="translate(7.972 20.459)"><path d="M1193.073,240.61a9.078,9.078,0,0,0,4.8-1.738,4.7,4.7,0,0,1-4.792,2.7Z" transform="translate(-1193.073 -238.872)" fill="#ff9a6c"/></g><g transform="translate(10.259 10.095)"><path d="M1196.042,226.105c.073.076.51-.266,1.138-.275s1.093.305,1.16.226c.033-.036-.042-.175-.246-.321a1.567,1.567,0,0,0-.929-.277,1.512,1.512,0,0,0-.9.316C1196.069,225.928,1196.006,226.071,1196.042,226.105Z" transform="translate(-1196.032 -225.458)" fill="#263238"/></g><g transform="translate(10.732 11.97)"><path d="M1196.645,228.373a.507.507,0,0,0,.519.482.486.486,0,0,0,.5-.488.508.508,0,0,0-.519-.483A.486.486,0,0,0,1196.645,228.373Z" transform="translate(-1196.645 -227.884)" fill="#263238"/></g><g transform="translate(7.144 10.267)"><path d="M1193.5,230.5a3.809,3.809,0,0,0-.947-.113c-.148-.006-.289-.028-.32-.127a.744.744,0,0,1,.072-.442q.176-.547.368-1.148a19.347,19.347,0,0,0,.8-2.992,19.317,19.317,0,0,0-1.041,2.921c-.122.4-.239.786-.349,1.153a.851.851,0,0,0-.042.583.368.368,0,0,0,.255.2,1.006,1.006,0,0,0,.253.02A3.806,3.806,0,0,0,1193.5,230.5Z" transform="translate(-1192.001 -225.68)" fill="#263238"/></g><g transform="translate(10.577 8.273)"><path d="M1196.448,223.555c.059.14.563.042,1.164.08s1.094.178,1.165.045c.032-.063-.06-.193-.263-.32a1.972,1.972,0,0,0-1.775-.1C1196.526,223.369,1196.422,223.488,1196.448,223.555Z" transform="translate(-1196.444 -223.098)" fill="#263238"/></g><g transform="translate(4.688 8.615)"><path d="M1188.827,224.012c.064.114.556-.005,1.15-.016s1.085.072,1.149-.046c.029-.056-.068-.16-.274-.253a2.073,2.073,0,0,0-.876-.156,2.135,2.135,0,0,0-.875.2C1188.895,223.849,1188.8,223.957,1188.827,224.012Z" transform="translate(-1188.822 -223.541)" fill="#263238"/></g><g transform="translate(16.701 12.12)"><path d="M1204.371,228.25c.063-.032,2.533-.918,2.605,1.653a1.933,1.933,0,0,1-2.53,2.039C1204.44,231.869,1204.371,228.25,1204.371,228.25Z" transform="translate(-1204.371 -228.077)" fill="#ffbf9d"/></g><g transform="translate(17.532 12.942)"><path d="M1205.448,231.188c.012-.008.046.03.123.063a.446.446,0,0,0,.334,0,1.11,1.11,0,0,0,.485-1.009,1.482,1.482,0,0,0-.144-.637.516.516,0,0,0-.346-.334.228.228,0,0,0-.261.13c-.032.073-.015.124-.028.128s-.056-.041-.039-.148a.28.28,0,0,1,.1-.164.338.338,0,0,1,.246-.072.63.63,0,0,1,.479.385,1.527,1.527,0,0,1,.175.712,1.165,1.165,0,0,1-.622,1.129.481.481,0,0,1-.412-.056C1205.455,231.25,1205.44,231.193,1205.448,231.188Z" transform="translate(-1205.446 -229.141)" fill="#ff9a6c"/></g><g transform="translate(9.435 15.637)"><path d="M1194.968,234.267c-.027-.066.478-.209.838-.678a2.874,2.874,0,0,0,.364-.666c.078-.185.136-.3.164-.293s.018.134-.026.337a1.9,1.9,0,0,1-.34.747,1.539,1.539,0,0,1-.663.494C1195.107,234.286,1194.975,234.289,1194.968,234.267Z" transform="translate(-1194.967 -232.63)" fill="#263238"/></g><g transform="translate(1.851)"><path d="M1203.471,220.567a12.6,12.6,0,0,1-.914-3.011,3.4,3.4,0,0,0-1.816-2.436l-.022.009a2.705,2.705,0,0,0-2.722.219,3.517,3.517,0,0,0-2.62-2.769,8.711,8.711,0,0,0-4.649.305,9.546,9.546,0,0,0-3.067,2.318,12.611,12.611,0,0,0-1.332,1.572l-1.178,3.485.947,1.848c.056.125.115.251.186.375v-.008l.825,3.879c.069-1.054.04-4.724.109-5.778a5.879,5.879,0,0,0,4.217-1.882,6.9,6.9,0,0,1,1.823-1.8,4.258,4.258,0,0,1,3.222.271l-.044-.04a4.693,4.693,0,0,1,1.438,1.066,14.622,14.622,0,0,0,.553,6.2c.094.3.355.92.647,1.038.574.23.737-.355,1.089-.663a1.521,1.521,0,0,1,1.053-.245,23.169,23.169,0,0,0,.739-2.657,2.349,2.349,0,0,0,1.078.086q-.161-.4-.321-.8a1.224,1.224,0,0,0,.459.215.417.417,0,0,0,.44-.185C1203.71,220.987,1203.58,220.758,1203.471,220.567Z" transform="translate(-1185.15 -212.391)" fill="#263238"/></g><g transform="translate(13.512 3.374)"><path d="M1200.243,216.758a3.113,3.113,0,0,1,.372.348,2.682,2.682,0,0,1,.559,1.252,4.75,4.75,0,0,1,.083.953c0,.345-.036.715-.067,1.1a9.92,9.92,0,0,0-.044,1.228,4.3,4.3,0,0,0,.077.65,1.342,1.342,0,0,0,.256.632.563.563,0,0,0,.526.185.84.84,0,0,0,.479-.262,1.947,1.947,0,0,0,.374-.949l-.079.008a3.141,3.141,0,0,0,.446.791,1.115,1.115,0,0,0,.724.406.723.723,0,0,0,.387-.063.629.629,0,0,0,.266-.255.653.653,0,0,0,.084-.331.469.469,0,0,0-.117-.293l-.04.035a2.4,2.4,0,0,0,.8.614,2.217,2.217,0,0,0,.248.1.426.426,0,0,0,.089.023.463.463,0,0,0-.083-.037c-.056-.024-.138-.058-.241-.112a2.5,2.5,0,0,1-.769-.623l-.04.035a.481.481,0,0,1,.018.557.561.561,0,0,1-.24.226.655.655,0,0,1-.352.053,1.044,1.044,0,0,1-.671-.386,3.108,3.108,0,0,1-.43-.774l-.052-.121-.027.129a1.88,1.88,0,0,1-.355.906.757.757,0,0,1-.429.235.478.478,0,0,1-.448-.157,1.289,1.289,0,0,1-.236-.591,4.311,4.311,0,0,1-.076-.637,10.124,10.124,0,0,1,.039-1.218c.029-.389.059-.759.059-1.109a4.672,4.672,0,0,0-.1-.967,2.648,2.648,0,0,0-.594-1.262A1.522,1.522,0,0,0,1200.243,216.758Z" transform="translate(-1200.243 -216.758)" fill="#455a64"/></g><g transform="translate(1.872 1.243)"><path d="M1185.177,219.627s.009.01.029.026l.093.07a1.36,1.36,0,0,0,.157.1,1.989,1.989,0,0,0,.227.124,3.34,3.34,0,0,0,1.6.309,4.25,4.25,0,0,0,2.272-.806,7.352,7.352,0,0,0,1.972-2.215c.279-.45.507-.912.757-1.339a4.971,4.971,0,0,1,.852-1.13,2.562,2.562,0,0,1,1.089-.642,1.837,1.837,0,0,1,.57-.058,2.031,2.031,0,0,1,.52.107,2.175,2.175,0,0,1,1.191,1.035,2.663,2.663,0,0,1,.186.565.155.155,0,0,0,0-.039l-.016-.115a1.865,1.865,0,0,0-.137-.425,2.124,2.124,0,0,0-.412-.574,2.2,2.2,0,0,0-.789-.5,2.034,2.034,0,0,0-.536-.116,1.889,1.889,0,0,0-.594.055,2.629,2.629,0,0,0-1.126.654,5.018,5.018,0,0,0-.871,1.145c-.253.43-.481.891-.757,1.337a7.367,7.367,0,0,1-1.944,2.194,4.218,4.218,0,0,1-2.229.81,3.376,3.376,0,0,1-1.583-.278A5.131,5.131,0,0,1,1185.177,219.627Z" transform="translate(-1185.177 -213.999)" fill="#455a64"/></g><g transform="translate(4.534 10.258)"><path d="M1188.632,226.315c.073.077.51-.266,1.138-.274s1.092.305,1.16.225c.032-.036-.043-.175-.246-.321a1.572,1.572,0,0,0-.929-.277,1.523,1.523,0,0,0-.9.316C1188.659,226.139,1188.6,226.281,1188.632,226.315Z" transform="translate(-1188.622 -225.668)" fill="#263238"/></g><g transform="translate(5.502 12.046)"><path d="M1189.876,228.47a.508.508,0,0,0,.52.482.486.486,0,0,0,.5-.488.508.508,0,0,0-.519-.482A.486.486,0,0,0,1189.876,228.47Z" transform="translate(-1189.876 -227.982)" fill="#263238"/></g><g transform="translate(0 3.957)"><path d="M1186.1,217.512a1.605,1.605,0,0,1-1.335.749,3.969,3.969,0,0,1-.559-.165c-.183.111-.141.739-.014.912a3.29,3.29,0,0,0,.393.408,2.08,2.08,0,0,1-1.834-.073,3.225,3.225,0,0,0,1.912,2.584,1.13,1.13,0,0,0,1.035.02,1.3,1.3,0,0,0,.455-.807,14.1,14.1,0,0,0,.461-3.446Z" transform="translate(-1182.754 -217.512)" fill="#263238"/></g></g><g transform="translate(5.7 27.151)"><path d="M1206.49,245.131a8.564,8.564,0,0,0-3.3-1.224l-4.085-.846s-2.475,3-5.55,2.567-3.277-2.529-3.277-2.529-5.813.961-9.014,3.936a18.523,18.523,0,0,0,11.732,5.417c4.536.556,10.655-1.709,14.707-6.111C1207.7,246.341,1207.8,246.131,1206.49,245.131Z" transform="translate(-1181.262 -243.061)" fill="#455a64"/></g><g transform="translate(0.491 0.508)"><path d="M1210.57,227.836s-.008-.1-.01-.292,0-.488,0-.855c0-.189,0-.4,0-.629s-.042-.483-.066-.756a13.174,13.174,0,0,0-.254-1.874,17.157,17.157,0,0,0-1.681-4.884,17.961,17.961,0,0,0-11.5-9.172,16.615,16.615,0,0,0-2.237-.406c-.383-.038-.768-.1-1.158-.12l-1.184-.015c-.2,0-.4-.013-.6,0l-.6.053c-.4.04-.807.06-1.211.117a18.84,18.84,0,0,0-2.421.543,18.4,18.4,0,0,0-2.389.87c-.389.179-.766.394-1.153.59a9.167,9.167,0,0,0-1.123.671,16.35,16.35,0,0,0-4.01,3.536,17.3,17.3,0,0,0-2.864,4.739,17.686,17.686,0,0,0-.732,11.236,17.284,17.284,0,0,0,2.226,5.072,16.337,16.337,0,0,0,3.518,4.028,9.251,9.251,0,0,0,1.027.81c.358.245.7.506,1.066.735a18.476,18.476,0,0,0,2.256,1.173,18.727,18.727,0,0,0,2.33.852c.393.109.793.182,1.186.274l.589.13c.2.039.4.051.593.078l1.175.138c.39.032.78.019,1.165.031a16.709,16.709,0,0,0,2.271-.113,17.96,17.96,0,0,0,12.594-7.6,17.158,17.158,0,0,0,2.3-4.625,13.049,13.049,0,0,0,.5-1.826c.058-.268.124-.513.163-.741s.056-.437.08-.624q.072-.546.112-.848c.027-.191.048-.289.048-.289s0,.1-.019.291l-.084.852q-.03.283-.066.628c-.035.23-.1.477-.151.747a12.74,12.74,0,0,1-.474,1.842,17.021,17.021,0,0,1-2.273,4.68,18.076,18.076,0,0,1-12.7,7.747,16.882,16.882,0,0,1-2.3.122c-.39-.011-.785,0-1.18-.029l-1.192-.136c-.2-.027-.4-.039-.6-.077l-.6-.131c-.4-.092-.8-.165-1.2-.274a19.175,19.175,0,0,1-2.366-.858,18.957,18.957,0,0,1-2.292-1.186c-.368-.232-.719-.5-1.083-.744a9.343,9.343,0,0,1-1.043-.821,16.57,16.57,0,0,1-3.577-4.084,17.522,17.522,0,0,1-2.264-5.149,17.939,17.939,0,0,1,.744-11.411,17.519,17.519,0,0,1,2.912-4.811,16.577,16.577,0,0,1,4.076-3.584,9.212,9.212,0,0,1,1.14-.679c.393-.2.775-.416,1.171-.6a19.735,19.735,0,0,1,4.882-1.423c.41-.056.822-.076,1.229-.116l.608-.052c.2-.013.4,0,.606,0l1.2.019c.4.021.786.085,1.174.125a16.879,16.879,0,0,1,2.265.42,18.071,18.071,0,0,1,11.585,9.326,17.028,17.028,0,0,1,1.647,4.935,12.756,12.756,0,0,1,.231,1.888c.019.275.047.528.053.76s-.011.442-.016.632q-.016.55-.026.856C1210.582,227.737,1210.57,227.836,1210.57,227.836Z" transform="translate(-1174.52 -208.577)" fill="#263238"/></g></g><g transform="translate(974.742 147.737)"><circle cx="38.865" cy="38.865" r="38.865" transform="translate(0 9.938)" fill="#764cf0"/><circle cx="30.234" cy="30.234" r="30.234" transform="translate(8.631 18.569)" fill="#fff"/><circle cx="21.272" cy="21.272" r="21.272" transform="translate(8.781 48.803) rotate(-45)" fill="#764cf0"/><circle cx="11.224" cy="11.224" r="11.224" transform="translate(22.992 48.803) rotate(-45)" fill="#fff"/><path d="M1070.884,184.661l-1.056-8.292,8.44-9.033.607,8.948Z" transform="translate(-1001.951 -167.336)" fill="#455a64"/><path d="M1089.6,181.015l-8.563-.7-8.583,8.256,8.585.918Z" transform="translate(-1002.548 -170.288)" fill="#455a64"/><path d="M1032.277,223.149l31.906-22.849a43.32,43.32,0,0,0-4.051-5.008L1032.8,221.718Z" transform="translate(-993.412 -173.693)" opacity="0.3"/><g transform="translate(37.653 6.909)"><path d="M1071.246,176.589l-4,4.058-9.615,9.742-11.583,11.737-10.062,10.2c-1.629,1.65-3.332,3.254-4.9,4.964-.022.025-.047.047-.07.071-.946.959.531,2.438,1.479,1.478l4-4.057,9.615-9.743,11.582-11.736,10.062-10.2c1.629-1.65,3.331-3.253,4.9-4.964.022-.025.047-.047.07-.071.946-.958-.531-2.438-1.478-1.478Z" transform="translate(-1030.709 -176.278)" fill="#263238"/></g></g><g transform="translate(1049.264 87.609)"><g transform="translate(0)"><path d="M1123.727,146.815h0a30.4,30.4,0,0,1-41.3-11.988h0a30.407,30.407,0,0,1,11.988-41.3h0a30.407,30.407,0,0,1,41.3,11.988h0A30.406,30.406,0,0,1,1123.727,146.815Z" transform="translate(-1078.482 -89.567)" fill="#ffe268"/><path d="M1123.675,146.758s.136-.1.41-.277l1.22-.776.9-.568c.321-.223.651-.5,1.02-.781l1.183-.919a16.423,16.423,0,0,0,1.261-1.147,29.007,29.007,0,0,0,5.444-6.837,30.225,30.225,0,0,0,3.811-10.886q.111-.8.223-1.616c.043-.548.051-1.106.079-1.667.008-.562.08-1.13.036-1.7s-.065-1.153-.1-1.739q-.027-.439-.053-.883-.068-.438-.137-.882-.138-.887-.277-1.79c-.111-.6-.3-1.188-.441-1.791a15.263,15.263,0,0,0-.519-1.8,28.27,28.27,0,0,0-1.455-3.563c-.3-.582-.556-1.188-.884-1.763l-1.055-1.7c-.182-.283-.344-.581-.545-.853l-.621-.809c-.422-.535-.821-1.1-1.269-1.622a31.888,31.888,0,0,0-2.979-2.961,31.353,31.353,0,0,0-3.417-2.618c-.61-.392-1.259-.734-1.891-1.107-.322-.175-.63-.383-.967-.533l-1.012-.459a27.663,27.663,0,0,0-8.7-2.5l-1.149-.161-1.164-.054-1.17-.05a7.534,7.534,0,0,0-1.174,0l-2.361.128-2.356.36a29.939,29.939,0,0,0-16.7,9.186l-1.566,1.8-1.373,1.926-.339.481-.293.509-.584,1.014-.578,1.012-.48,1.058a27.607,27.607,0,0,0-2.543,8.689l-.155,1.1c-.054.365-.043.736-.067,1.1-.024.735-.082,1.465-.078,2.191a31.507,31.507,0,0,0,.382,4.289,32.041,32.041,0,0,0,.906,4.1c.2.661.464,1.3.691,1.942l.35.958c.123.315.288.611.43.916l.874,1.8c.31.585.682,1.13,1.016,1.69a28.057,28.057,0,0,0,2.231,3.137,15.326,15.326,0,0,0,1.245,1.4c.431.447.83.918,1.277,1.332l1.364,1.193.672.588.717.517,1.417,1.014c.461.345.98.587,1.459.882.49.277.964.569,1.45.827l1.485.677A30.208,30.208,0,0,0,1108,150.363a28.967,28.967,0,0,0,8.689-.936,16.392,16.392,0,0,0,1.644-.45l1.409-.507c.435-.161.844-.291,1.205-.443l.962-.457,1.309-.614c.3-.136.453-.2.453-.2s-.143.085-.433.234l-1.294.651-.956.476c-.359.158-.768.294-1.2.463l-1.409.526a16.25,16.25,0,0,1-1.646.471,28.832,28.832,0,0,1-8.736,1.01,30.291,30.291,0,0,1-11.342-2.574l-1.5-.677c-.491-.258-.972-.55-1.467-.828-.484-.3-1.01-.539-1.476-.885l-1.436-1.018-.725-.521-.681-.592-1.382-1.2c-.452-.417-.858-.892-1.294-1.341a15.478,15.478,0,0,1-1.263-1.416,28.407,28.407,0,0,1-2.264-3.165c-.339-.566-.717-1.116-1.032-1.707l-.888-1.822c-.144-.308-.311-.607-.437-.926l-.356-.968c-.231-.651-.5-1.3-.7-1.963a32.366,32.366,0,0,1-.925-4.15,31.762,31.762,0,0,1-.393-4.342c-.005-.735.052-1.474.076-2.218.024-.371.012-.746.066-1.116l.155-1.115a28,28,0,0,1,2.567-8.8l.486-1.071.584-1.026.591-1.028.3-.516.343-.488,1.39-1.952,1.586-1.821a30.3,30.3,0,0,1,16.926-9.307l2.387-.364,2.393-.128a7.635,7.635,0,0,1,1.189,0l1.185.051,1.179.056,1.164.163a27.987,27.987,0,0,1,8.808,2.546l1.024.466c.342.153.652.364.978.542.641.379,1.3.726,1.914,1.124a31.847,31.847,0,0,1,3.456,2.656,32.269,32.269,0,0,1,3.009,3c.453.532.856,1.1,1.282,1.644l.627.82c.2.277.365.578.549.865l1.062,1.725c.331.583.593,1.2.89,1.785a28.373,28.373,0,0,1,1.461,3.606,15.625,15.625,0,0,1,.52,1.825c.146.61.329,1.206.44,1.812q.138.913.274,1.81.067.447.135.892l.051.892q.047.887.091,1.757c.043.579-.032,1.153-.042,1.721-.03.567-.041,1.13-.086,1.683q-.118.824-.232,1.63a30.327,30.327,0,0,1-3.9,10.958,28.842,28.842,0,0,1-5.531,6.838,16.185,16.185,0,0,1-1.279,1.139l-1.2.909c-.375.277-.709.549-1.035.768l-.914.553-1.242.745C1123.824,146.682,1123.675,146.758,1123.675,146.758Z" transform="translate(-1078.43 -89.51)" fill="#ffe268"/></g><g transform="translate(20.052 16.84)"><path d="M1117.084,123.525a7.468,7.468,0,0,0,.569-8.2,7.019,7.019,0,1,0-12.306,6.695,7.458,7.458,0,0,0,7.272,3.96c-8.662,6.618-2.588,16.647-2.588,16.647l22.391-12.182S1127.224,119.789,1117.084,123.525Z" transform="translate(-1104.384 -111.307)" fill="#ffdb42"/></g></g><g transform="translate(1127.675 115.852)"><g transform="translate(0)"><path d="M1209.676,157.834h0a17.906,17.906,0,0,1-25.243-2.008h0a17.907,17.907,0,0,1,2.007-25.244h0a17.907,17.907,0,0,1,25.244,2.008h0A17.906,17.906,0,0,1,1209.676,157.834Z" transform="translate(-1179.972 -126.119)" fill="#ffe268"/><path d="M1209.623,157.78a1.635,1.635,0,0,1,.2-.215l.6-.6.449-.437c.157-.168.314-.367.492-.573a13.141,13.141,0,0,0,1.156-1.484,17.113,17.113,0,0,0,2.309-4.587,17.748,17.748,0,0,0-8.079-21.123,16.308,16.308,0,0,0-4.745-1.844,16.218,16.218,0,0,0-5.292-.407,17.135,17.135,0,0,0-5.354,1.24,17.55,17.55,0,0,0-8.5,7.249,17.162,17.162,0,0,0-2.072,5.092,20.156,20.156,0,0,0-.437,2.652,19.889,19.889,0,0,0,0,2.638,16.306,16.306,0,0,0,1.071,4.977,17.793,17.793,0,0,0,19.582,11.316,17.1,17.1,0,0,0,4.894-1.556,12.957,12.957,0,0,0,1.648-.907c.233-.143.454-.266.644-.395l.5-.374.687-.5a1.623,1.623,0,0,1,.243-.161,1.56,1.56,0,0,1-.217.192l-.664.536-.494.392c-.188.135-.407.263-.637.413a12.636,12.636,0,0,1-1.642.946,16.95,16.95,0,0,1-4.925,1.637,18.03,18.03,0,0,1-14.382-3.686,18.1,18.1,0,0,1-5.584-7.722,16.613,16.613,0,0,1-1.107-5.081A16.568,16.568,0,0,1,1180.4,140a17.505,17.505,0,0,1,2.113-5.209,17.913,17.913,0,0,1,8.7-7.413,17.517,17.517,0,0,1,5.476-1.262,16.544,16.544,0,0,1,5.407.426,16.632,16.632,0,0,1,4.841,1.9,18.1,18.1,0,0,1,6.742,6.734,18.032,18.032,0,0,1,1.367,14.783,16.934,16.934,0,0,1-2.4,4.605,12.82,12.82,0,0,1-1.194,1.473c-.185.2-.346.4-.509.564l-.465.425-.634.572A1.575,1.575,0,0,1,1209.623,157.78Z" transform="translate(-1179.919 -126.066)" fill="#ffe268"/></g><g transform="translate(11.109 10.518)"><path d="M1202.338,146.1a4.4,4.4,0,0,0-.646-4.8,4.133,4.133,0,1,0-6.3,5.323,4.392,4.392,0,0,0,4.665,1.42c-4.21,4.846.485,9.909.485,9.909l11.468-9.687S1207.743,142.742,1202.338,146.1Z" transform="translate(-1194.298 -139.68)" fill="#ffd41c"/></g></g><g transform="translate(1148.237 87.609)"><path d="M459.984,155.818v49.493H394.919V155.818a5.306,5.306,0,0,1,5.31-5.309h54.445A5.306,5.306,0,0,1,459.984,155.818Z" transform="translate(-394.919 -150.509)" fill="#faf0e3"/><path d="M459.984,155.818v4.756H394.919v-4.756a5.306,5.306,0,0,1,5.31-5.309h54.445A5.306,5.306,0,0,1,459.984,155.818Z" transform="translate(-394.919 -150.509)" fill="#26d19e"/><g transform="translate(46.163 3.74)"><circle cx="1.614" cy="1.614" r="1.614" fill="#f34919"/><circle cx="1.614" cy="1.614" r="1.614" transform="translate(5.164)" fill="#ffd387"/><circle cx="1.614" cy="1.614" r="1.614" transform="translate(10.513)" fill="#b7b8fb"/></g><g transform="translate(7.809 17.619)"><rect width="13.614" height="28.92" fill="#764cf0"/><rect width="13.614" height="24.659" transform="translate(16.839 4.261)" fill="#ffd41c"/><rect width="13.614" height="20.012" transform="translate(34.155 8.908)" fill="#26d19e"/></g><g transform="translate(4.84 37.566)"><path d="M401.063,209.887h52.03l4.519-10.458" transform="translate(-401.063 -198.461)" fill="none" stroke="#0b0a10" stroke-linecap="round" stroke-linejoin="round" stroke-width="0.963"/><path d="M469.411,201.4l3-3.2-.194,3.97" transform="translate(-415.574 -198.2)" fill="none" stroke="#0b0a10" stroke-linecap="round" stroke-linejoin="round" stroke-width="0.963"/></g></g><rect width="34.698" height="34.698" rx="8" transform="matrix(0.985, 0.174, -0.174, 0.985, 999.986, 111.76)" fill="#26d19e"/><circle cx="14.34" cy="14.34" r="14.34" transform="translate(1175.28 290.027)" fill="#764cf0"/></g></g></svg>