<svg xmlns="http://www.w3.org/2000/svg" xmlns:xlink="http://www.w3.org/1999/xlink" width="51" height="51" viewBox="0 0 51 51"><defs><clipPath id="a"><rect width="51" height="51" transform="translate(1112 17997)" fill="#26d19e"/></clipPath></defs><g transform="translate(-1112 -20357.902)"><g transform="translate(0 2360.902)" clip-path="url(#a)"><g transform="translate(1112 17997)"><path d="M36.141,39.017a5.09,5.09,0,1,1,4.049-9.34c2.579,1.118,9.494,6.6,8.376,9.179S38.72,40.136,36.141,39.017Z" fill="#ff9478"/><path d="M40.19,29.678A5.09,5.09,0,0,0,33.5,32.323a5.146,5.146,0,0,0-.209.579A8.062,8.062,0,0,0,39,35.287a8.162,8.162,0,0,0,1.075-.072A22.755,22.755,0,0,0,45.528,33.5,23.045,23.045,0,0,0,40.19,29.678Z" fill="#ff7956"/><path d="M39.678,32.253a5.09,5.09,0,0,1-1.347-10.09c2.786-.372,11.538.758,11.91,3.545S42.464,31.881,39.678,32.253Z" fill="#ff3f62"/><path d="M38.329,22.163a5.089,5.089,0,0,0-4.411,5.259,8.092,8.092,0,0,0,7.136-.117,24.655,24.655,0,0,0,5.38-4.232A24.237,24.237,0,0,0,38.329,22.163Z" fill="#d80027"/><path d="M39.694,24.645a5.09,5.09,0,1,1-4.64-9.06c2.5-1.281,11.129-3.139,12.41-.637S42.2,23.364,39.694,24.645Z" fill="#00ddc2"/><path d="M39.777,19.415A23.231,23.231,0,0,0,41.9,13.826a23.6,23.6,0,0,0-6.846,1.758,5.092,5.092,0,0,0-1.638,7.732A8.127,8.127,0,0,0,39.777,19.415Z" fill="#00ccb3"/><path d="M37.214,17.877a5.09,5.09,0,0,1-8.728-5.238c1.446-2.41,7.787-8.548,10.2-7.1S38.661,15.467,37.214,17.877Z" fill="#ffe477"/><path d="M32.827,14.72A23.9,23.9,0,0,1,39.7,8.241c-.028-1.278-.319-2.285-1.016-2.7-2.41-1.446-8.751,4.691-10.2,7.1a5.089,5.089,0,0,0,4.6,7.7A5.091,5.091,0,0,1,32.827,14.72Z" fill="#ffeb99"/><path d="M2.876,31.322,7,31.5,5.5,34.4a.757.757,0,0,1-1.37-.059Z" fill="#ff9478"/><path d="M8.851,31.572l4.129.176-1.506,2.9a.757.757,0,0,1-1.37-.059Z" fill="#ff9478"/><path d="M16.408,37.833l-3.989,1.078.56-3.219a.757.757,0,0,1,1.324-.358Z" fill="#ff9478"/><path d="M10.636,39.4,6.646,40.477l.56-3.219A.757.757,0,0,1,8.531,36.9Z" fill="#ff9478"/><path d="M14.827,31.822,18.956,32,17.45,34.9a.757.757,0,0,1-1.37-.059Z" fill="#ff9478"/><path d="M9.332,21.709l-6.019.755A2.931,2.931,0,0,0,.754,25.577l.362,5.161a2.48,2.48,0,0,0,2.364,2.3l20.55.911L3.977,39.441a2.48,2.48,0,0,0-1.812,2.652l.215,2.038a1.74,1.74,0,0,0,2.026,1.532l24.247-4.183s11.741-1.78,8.727-13.32c-.09.064-9.794-10.039-9.794-10.039Z" fill="#ffdaaa"/><path d="M37.841,30.854a15,15,0,0,0-.46-2.693c-.02.014-.522-.481-1.289-1.258L28.4,26.281S30.762,33.555,37.841,30.854Z" fill="#ffc477"/><path d="M1.117,30.738a2.48,2.48,0,0,0,2.364,2.3l5.639.25-1.1-11.419h0l-4.711.591A2.931,2.931,0,0,0,.754,25.577Z" fill="#ff3f62"/><path d="M3.282,27.094a2.007,2.007,0,0,0-2.094-1.906,2.3,2.3,0,0,0-.436.042,2.968,2.968,0,0,0,0,.347l.24,3.413c.064.005.128.009.194.009A2.006,2.006,0,0,0,3.282,27.094Z" fill="#57565c"/><path d="M26.4,31.589l-25.322-1.4.039.551a2.48,2.48,0,0,0,2.364,2.3l20.55.911L3.977,39.441a2.48,2.48,0,0,0-1.812,2.652l.1.914,23.346-6.516Z" fill="#ffc477"/><circle cx="6.144" cy="6.144" r="6.144" transform="translate(27.587 17.075)" fill="#a4e276"/><path d="M38.712,26a6.144,6.144,0,0,1-5.491-8.9,6.143,6.143,0,1,0,6,8.878C39.053,25.989,38.884,26,38.712,26Z" fill="#91dc5a"/><path d="M33.731,27.56a4.341,4.341,0,1,1,4.341-4.341A4.346,4.346,0,0,1,33.731,27.56Z" fill="#00ddc2"/><path d="M32.568,19.854a6.2,6.2,0,0,1,.058-.834,4.341,4.341,0,1,0,4.584,6.792A6.146,6.146,0,0,1,32.568,19.854Z" fill="#00ccb3"/><circle cx="1.961" cy="1.961" r="1.961" transform="translate(31.769 21.257)" fill="#ff3f62"/><path d="M32.792,21.5a1.962,1.962,0,1,0,2.187,3.236A6.149,6.149,0,0,1,32.792,21.5Z" fill="#d80027"/><circle cx="4.869" cy="4.869" r="4.869" transform="translate(15.406 19.263)" fill="#fff"/><path d="M25.143,24.131a4.869,4.869,0,1,0-9.633,1,50.163,50.163,0,0,0,6.417.462h0a28.952,28.952,0,0,0,3.033-.148A4.868,4.868,0,0,0,25.143,24.131Z" fill="#ddfffb"/><path d="M20.274,27.2a3.066,3.066,0,1,1,3.066-3.066A3.069,3.069,0,0,1,20.274,27.2Z" fill="#ff3f62"/><path d="M23.34,24.131a3.066,3.066,0,1,0-5.873,1.229c1.424.14,2.948.236,4.46.236h0c.358,0,.706-.006,1.047-.016A3.047,3.047,0,0,0,23.34,24.131Z" fill="#d80027"/><path d="M20.274,25.554a1.263,1.263,0,1,1,1.263-1.263A1.264,1.264,0,0,1,20.274,25.554Z" fill="#3e3d42"/><path d="M20.254,24.291a1.263,1.263,0,0,1,.641-1.1,1.263,1.263,0,1,0,0,2.2A1.263,1.263,0,0,1,20.254,24.291Z" fill="#2d2d30"/><circle cx="4.688" cy="4.688" r="4.688" transform="translate(21.713 13.434)" fill="#ff3f62"/><path d="M26.4,13.434a4.7,4.7,0,0,0-1.033.116,4.687,4.687,0,0,1,0,9.144,4.688,4.688,0,1,0,1.033-9.26Z" fill="#d80027"/><path d="M31.088,17.384s-8.124-1.1-21.756,4.325C9.332,21.916,33.166,27.433,31.088,17.384Z" fill="#ffe477"/><path d="M31.088,17.384a17.132,17.132,0,0,0-2.157-.09c-1.219,4.507-10.216,4.062-16.249,3.171q-1.615.557-3.35,1.244C9.332,21.916,33.166,27.433,31.088,17.384Z" fill="#ffda44"/><circle cx="3.761" cy="3.761" r="3.761" transform="translate(21.381 30.068)" fill="#00ddc2"/><path d="M25.143,36.5a2.673,2.673,0,1,1,2.673-2.673A2.676,2.676,0,0,1,25.143,36.5Z" fill="#00ccb3"/><circle cx="1.677" cy="1.677" r="1.677" transform="translate(23.465 32.152)" fill="#ffe477"/><path d="M24.919,33.064a1.667,1.667,0,0,1,.269-.91l-.046,0a1.677,1.677,0,1,0,1.407,2.587A1.676,1.676,0,0,1,24.919,33.064Z" fill="#ffda44"/><path d="M33.731,25.927a2.708,2.708,0,1,0-2.709-2.708A2.712,2.712,0,0,0,33.731,25.927Zm0-3.923a1.214,1.214,0,1,1-1.214,1.214A1.216,1.216,0,0,1,33.731,22Z"/><path d="M27.567,33.829a2.424,2.424,0,1,0-2.424,2.424A2.427,2.427,0,0,0,27.567,33.829Zm-3.354,0a.93.93,0,1,1,.93.93A.931.931,0,0,1,24.213,33.829Z"/><path d="M50.981,25.609c-.293-2.2-3.913-3.274-6.49-3.766.37-.359.726-.723,1.057-1.084,2.44-2.661,3.309-4.731,2.581-6.152-1.147-2.239-5.821-1.7-8.435-1.2a23.664,23.664,0,0,0,.693-3.724c.236-2.509-.208-4.12-1.32-4.787C37.7,4.076,35.612,4.85,32.756,7.06a19.293,19.293,0,0,0-5.2,5.752,5.428,5.428,0,0,0-6.539,4.6A67.923,67.923,0,0,0,9.146,20.98l-5.926.744A3.679,3.679,0,0,0,.009,25.63l.362,5.161a3.226,3.226,0,0,0,2.7,2.959l.364.876a1.49,1.49,0,0,0,1.325.926,1.544,1.544,0,0,0,1.4-.809l.423-.815,2.481.11.348.838a1.49,1.49,0,0,0,1.325.926,1.59,1.59,0,0,0,1.4-.809l.415-.8,2.5.111.342.823a1.526,1.526,0,0,0,.211.36l-.158.043-.569-.675a1.5,1.5,0,0,0-2.631.711l-.153.882-2.409.659L9.1,36.419a1.5,1.5,0,0,0-2.631.711l-.156.9-2.534.694a3.215,3.215,0,0,0-2.357,3.451l.215,2.038a2.56,2.56,0,0,0,2.9,2.19l24.24-4.181a14.281,14.281,0,0,0,6.353-2.887c3.528,2.327,10.806,1.689,11.549,1.525a3.343,3.343,0,0,0,2.575-1.7c1.05-2.422-2.717-5.894-4.857-7.612.724-.309,1.441-.647,2.1-1a14.581,14.581,0,0,0,3.159-2.15A3.342,3.342,0,0,0,50.981,25.609ZM33.69,8.226C35.311,7,37.434,5.66,38.3,6.179c1.11.666.78,4.8-.721,9.028a.747.747,0,0,0,.454.954.848.848,0,0,0,.954-.454c.082-.222.155-.448.229-.674,3.844-.853,7.068-.755,7.585.255.46.9-.979,2.965-2.352,4.461a26.987,26.987,0,0,1-3.826,3.422,6.89,6.89,0,0,0-8.988-6.516,5.446,5.446,0,0,0-2.674-3.322A19.622,19.622,0,0,1,33.69,8.226Zm.041,20.39a5.4,5.4,0,0,1-5.4-5.381c.105-.04.208-.082.309-.125a4.776,4.776,0,0,0,.444,2.191.73.73,0,0,0,.988.375.747.747,0,0,0,.375-.988,3.591,3.591,0,0,1-.144-2.561,4.466,4.466,0,0,0,1.343-1.835,3.56,3.56,0,0,1,2.081-.667,3.594,3.594,0,1,1-1.281,6.952.747.747,0,1,0-.535,1.4,5.088,5.088,0,1,0,.045-9.525q0-.16-.015-.323a5.4,5.4,0,1,1,1.786,10.491ZM26.4,14.181a3.957,3.957,0,0,1,3.617,2.376,37.392,37.392,0,0,0-7.43.569A3.948,3.948,0,0,1,26.4,14.181Zm4.042,3.9a3.076,3.076,0,0,1-1.053,2.866c-1.751,1.489-5.573,2.023-11.052,1.545a60.682,60.682,0,0,1-6.489-.938C21.9,17.916,28.559,17.968,30.443,18.08ZM20.274,28.252a4.126,4.126,0,0,1-4.122-4.122c0-.123.007-.246.018-.368.554.068,1.123.131,1.7.185l.418.037c-.051,1.777.876,2.316,1.985,2.316a1.884,1.884,0,0,0,2-2.147q1.121-.011,2.116-.1A3.846,3.846,0,0,1,20.274,28.252Zm.49-4.118a.5.5,0,0,1-.49.672.52.52,0,0,1-.476-.715Q20.291,24.119,20.764,24.135ZM1.685,28.17l-.154-2.194a1.206,1.206,0,0,1,1,1.119A1.177,1.177,0,0,1,1.685,28.17Zm.224,2.812,19.1,1.057a4.467,4.467,0,0,0-.3,1.019L3.514,32.3A1.732,1.732,0,0,1,1.909,30.982Zm20.22,2.847a3.014,3.014,0,1,1,3.014,3.014A3.017,3.017,0,0,1,22.129,33.829ZM4.175,40.162l16.807-4.6a4.516,4.516,0,0,0,.768,1.23L2.909,42.015A1.726,1.726,0,0,1,4.175,40.162Zm24.367.581-.015,0L4.28,44.928a.968.968,0,0,1-1.156-.874l-.052-.5,20.187-5.634A4.508,4.508,0,1,0,22,30.6L2.358,29.51a2.654,2.654,0,0,0,1.671-2.416,2.715,2.715,0,0,0-2.344-2.611,2.183,2.183,0,0,1,1.722-1.277l3.948-.5.472,4.921a.747.747,0,0,0,.743.676c.024,0,.827-.112.745-.819l-.476-4.965.4-.051a44.784,44.784,0,0,0,5.45,1.089,5.615,5.615,0,1,0,11.2.569c0-.087,0-.174-.006-.261q.507-.084.973-.191a6.884,6.884,0,0,0,10.027,5.664,9.174,9.174,0,0,1-1.056,7C33.461,39.946,28.59,40.735,28.542,40.742Zm17.941-5.186c1.122,1.312,1.645,2.435,1.4,3s-1.695,1.193-4.939,1.018c-2.6-.14-5.1-.43-6.692-1.335a9.555,9.555,0,0,0,.821-1.071,9.373,9.373,0,0,0,1.481-4.145,7.549,7.549,0,0,0,4.231-.851A23.757,23.757,0,0,1,46.483,35.556Zm-.689-6.33c-4.563,2.475-6.854,2.337-7.171,2.309a14.721,14.721,0,0,0-.4-3.093,6.9,6.9,0,0,0,2.129-3.3,19.7,19.7,0,0,0,2.74-2.017,20,20,0,0,1,4.35,1.083c1.241.5,1.993,1.082,2.062,1.6C49.583,26.432,48.649,27.677,45.793,29.226Z"/></g></g></g></svg>