<svg xmlns="http://www.w3.org/2000/svg" xmlns:xlink="http://www.w3.org/1999/xlink" width="60" height="60" viewBox="0 0 60 60"><defs><clipPath id="a"><rect width="60" height="60" transform="translate(519 18596)" fill="#26d19e"/></clipPath></defs><g transform="translate(6377 -6896)"><g transform="translate(-6896 -11700)" clip-path="url(#a)"><g transform="translate(518.032 18595.033)"><path d="M11.613,1.935v9.677H1.935V54.194H42.581V44.516a1.941,1.941,0,0,1,1.935-1.935h1.935V1.935Z" fill="#f0d0b4"/><path d="M11.613,1.935v9.677H1.935Z" fill="#e6e9ed"/><path d="M17.419,19.355V7.742H29.032V19.355Z" fill="#b4dd7f"/><path d="M5.806,23.226H17.419V34.839H5.806Z" fill="#b4dd7f"/><path d="M29.032,38.71V50.323H17.419V38.71Z" fill="#b4dd7f"/><path d="M48.387,42.581a1.941,1.941,0,0,1,1.935,1.935V56.129a3.871,3.871,0,1,1-7.742,0V44.516a1.941,1.941,0,0,1,1.935-1.935h3.871Z" fill="#969faa"/><path d="M49.355,38.4v2.245a1.941,1.941,0,0,1-1.935,1.935H45.484a1.941,1.941,0,0,1-1.935-1.935V38.4a13.764,13.764,0,0,0,5.806,0Z" fill="#ccd1d9"/><path d="M49.355,38.4a13.551,13.551,0,0,1-15.89-9.368A13.549,13.549,0,1,1,49.355,38.4Z" fill="#ffc729"/><circle cx="9.677" cy="9.677" r="9.677" transform="translate(36.774 15.484)" fill="#69d6f4"/><path d="M45.484,18.387v1.935a2.9,2.9,0,1,0,0,5.806h1.935a.968.968,0,1,1,0,1.935H45.484a.969.969,0,0,1-.968-.968H42.581a2.907,2.907,0,0,0,2.9,2.9v1.935h1.935V30a2.9,2.9,0,0,0,0-5.806H45.484a.968.968,0,1,1,0-1.935h1.935a.969.969,0,0,1,.968.968h1.935a2.907,2.907,0,0,0-2.9-2.9V18.387Z"/><path d="M35.806,25.161A10.645,10.645,0,1,0,46.452,14.516,10.658,10.658,0,0,0,35.806,25.161Zm19.355,0a8.71,8.71,0,1,1-8.71-8.71A8.72,8.72,0,0,1,55.161,25.161Z"/><path d="M50.323,39.137a14.5,14.5,0,0,0-2.9-28.443V.968H11.212L.968,11.212V55.161H41.613v.968a4.839,4.839,0,0,0,9.677,0V44.516a2.9,2.9,0,0,0-1.356-2.447,2.871,2.871,0,0,0,.388-1.424Zm-2.9,2.475H45.484a.969.969,0,0,1-.968-.968V39.533a13.062,13.062,0,0,0,3.871,0v1.112A.969.969,0,0,1,47.419,41.613ZM59.032,25.161A12.581,12.581,0,1,1,46.452,12.581,12.6,12.6,0,0,1,59.032,25.161ZM10.645,4.272v6.374H4.272ZM2.9,53.226V12.581h9.677V2.9h32.9v7.791a14.4,14.4,0,0,0-6.243,1.886H30V6.774H16.452V20.323H30V14.516h6.615a14.469,14.469,0,0,0-4.388,13.548H18.387V22.258H4.839V35.806H18.387V30h14.4a14.555,14.555,0,0,0,9.8,9.137v1.508a2.871,2.871,0,0,0,.388,1.424,2.9,2.9,0,0,0-1.178,1.48H30V37.742H16.452V51.29H30V45.484H41.613v7.742ZM28.065,8.71v9.677H18.387V8.71ZM16.452,24.194v9.677H6.774V24.194ZM28.065,39.677v9.677H18.387V39.677Zm21.29,16.452a2.9,2.9,0,1,1-5.806,0V44.516a.969.969,0,0,1,.968-.968h3.871a.969.969,0,0,1,.968.968Z"/><path d="M27.781,42.3l-1.368-1.368-4.155,4.155-1.251-1.251L19.638,45.2l2.62,2.62Z"/><path d="M16.168,26.813,14.8,25.445,10.645,29.6,9.394,28.348,8.025,29.716l2.62,2.62Z"/><path d="M27.781,11.329,26.413,9.961l-4.155,4.155-1.251-1.251-1.368,1.368,2.62,2.62Z"/><path d="M4.839,49.355h9.677V51.29H4.839Z"/><path d="M4.839,45.484h9.677v1.935H4.839Z"/><path d="M4.839,41.613h9.677v1.935H4.839Z"/><path d="M4.839,37.742h9.677v1.935H4.839Z"/></g></g></g></svg>