<svg xmlns="http://www.w3.org/2000/svg" xmlns:xlink="http://www.w3.org/1999/xlink" width="85" height="103.473" viewBox="0 0 85 103.473"><defs><clipPath id="a"><rect width="67" height="67" transform="translate(189 4865.382)" fill="#ffd41c"/></clipPath></defs><g transform="translate(-600 -13522)"><rect width="85" height="103.473" transform="translate(600 13522)" fill="#26d19e"/><g transform="translate(420 8675.618)" clip-path="url(#a)"><g transform="translate(189 4865.382)"><path d="M20.2,62.651l1.828.527A47.072,47.072,0,0,0,65,54.294a2.8,2.8,0,0,0,.125-4.22l-.057-.052a3.841,3.841,0,0,0-4.614-.476L54.44,53.2A23.969,23.969,0,0,1,34.2,55.4a3.6,3.6,0,0,1-.9-6.35l6.252-4.393a2.656,2.656,0,0,0-2.1-4.767L20.2,43.671l-2.846,3.073V59.786Z" fill="#ffddce"/><path d="M39.4,40.759l-6.252,4.393a3.6,3.6,0,0,0-.888,5.008A3.6,3.6,0,0,1,33.3,49.045l6.252-4.393a2.65,2.65,0,0,0,.2-4.189,2.669,2.669,0,0,1-.349.3Z" fill="#ffcbbe"/><path d="M65.151,50.1a2.82,2.82,0,0,1-.3.3,47.071,47.071,0,0,1-42.964,8.885l-1.828-.527-2.7-2.714v3.742L20.2,62.651l1.828.527A47.072,47.072,0,0,0,65,54.294a2.8,2.8,0,0,0,.154-4.189Z" fill="#ffcbbe"/><path d="M2.006,66.019H18.64A1.564,1.564,0,0,0,20.2,64.455V42.248a1.564,1.564,0,0,0-1.564-1.564H2.006A1.025,1.025,0,0,0,.982,41.709V64.994A1.025,1.025,0,0,0,2.006,66.019Z" fill="#80b4fb"/><path d="M20.2,64.455V42.248a1.564,1.564,0,0,0-1.564-1.564H16.891v20a1.564,1.564,0,0,1-1.564,1.564H.982v2.746a1.025,1.025,0,0,0,1.025,1.025H18.64A1.563,1.563,0,0,0,20.2,64.455Z" fill="#61a2f9"/><path d="M45.249,35.838l15.1-14.515a1.952,1.952,0,0,0,.207-2.581l-5.134-6.825a1.953,1.953,0,0,0-1.56-.779H33.933a1.952,1.952,0,0,0-1.56.779l-5.134,6.825a1.952,1.952,0,0,0,.207,2.581l15.1,14.515a1.952,1.952,0,0,0,2.706,0Z" fill="#80b4fb"/><path d="M60.554,18.742,55.42,11.917a1.953,1.953,0,0,0-1.56-.779H48.41a1.952,1.952,0,0,1,1.56.779L55.1,18.742a1.952,1.952,0,0,1-.207,2.581L41.172,34.52l1.372,1.319a1.952,1.952,0,0,0,2.706,0l15.1-14.515a1.953,1.953,0,0,0,.207-2.581Z" fill="#61a2f9"/><path d="M43.9,5.815a.981.981,0,0,0,.981-.981V.981a.981.981,0,0,0-1.963,0V4.833A.981.981,0,0,0,43.9,5.815Z"/><path d="M34.685,7.017a.981.981,0,1,0,1.484-1.285l-2.5-2.887A.981.981,0,1,0,32.185,4.13Z"/><path d="M51.723,7.117a.981.981,0,0,0,1.384-.1l2.5-2.887a.981.981,0,1,0-1.484-1.285l-2.5,2.887a.981.981,0,0,0,.1,1.384Z"/><path d="M41.863,36.546a2.926,2.926,0,0,0,4.067,0l15.1-14.515a2.937,2.937,0,0,0,.311-3.879l-2.026-2.694a.981.981,0,0,0-1.568,1.18l1.74,2.313h-7.79l-2.07-6.832h4.236a.976.976,0,0,1,.776.387l.749,1a.981.981,0,0,0,1.568-1.18l-.749-1a2.948,2.948,0,0,0-2.344-1.17H33.933a2.949,2.949,0,0,0-2.345,1.17l-5.134,6.825a2.937,2.937,0,0,0,.311,3.879ZM36.046,20.914l5.62,12.72-13.23-12.72Zm23.31,0L46.127,33.634l5.62-12.719h7.609ZM43.9,33.824l-5.7-12.91H49.6Zm3.676-21.7,2.069,6.832H38.151L40.22,12.12Zm-14.415.387a.976.976,0,0,1,.776-.387h4.236L36.1,18.952H28.309Z"/><path d="M59.941,48.708,53.93,52.364a22.924,22.924,0,0,1-19.41,2.1,2.618,2.618,0,0,1-.655-4.618l6.251-4.393a3.637,3.637,0,0,0-2.871-6.528l-16.06,3.524v-.2A2.548,2.548,0,0,0,18.64,39.7H10.593a.981.981,0,0,0,0,1.963H18.64a.583.583,0,0,1,.582.582V64.455a.583.583,0,0,1-.582.582H2.006a.043.043,0,0,1-.043-.043V41.709a.043.043,0,0,1,.043-.043H6.669a.981.981,0,0,0,0-1.963H2.006A2.009,2.009,0,0,0,0,41.709V64.994A2.009,2.009,0,0,0,2.006,67H18.64a2.548,2.548,0,0,0,2.545-2.545v-.5l.575.166A47.743,47.743,0,0,0,35.029,66a48.565,48.565,0,0,0,5.061-.265,47.81,47.81,0,0,0,17.739-5.457A.981.981,0,0,0,56.9,58.55a46.174,46.174,0,0,1-34.6,3.686l-1.119-.323V44.46l16.481-3.616a1.674,1.674,0,0,1,1.321,3l-6.251,4.393a4.581,4.581,0,0,0,1.147,8.081A24.88,24.88,0,0,0,54.95,54.041l6.011-3.656c1.723-1.049,4.125.094,4.075,1.8a1.822,1.822,0,0,1-.663,1.353,46.371,46.371,0,0,1-4.08,3,.981.981,0,0,0,1.074,1.643,48.338,48.338,0,0,0,4.253-3.127A3.784,3.784,0,0,0,67,52.241c.1-3.382-4.113-5.325-7.057-3.534Z"/><path d="M14.241,58.268V56.139a.981.981,0,0,0-1.963,0v2.129a.981.981,0,0,0,1.963,0Z"/></g></g></g></svg>