<svg xmlns="http://www.w3.org/2000/svg" xmlns:xlink="http://www.w3.org/1999/xlink" width="60" height="60" viewBox="0 0 60 60"><defs><clipPath id="a"><rect width="60" height="60" transform="translate(1022 18596)" fill="#26d19e"/></clipPath></defs><g transform="translate(5874 -8186)"><g transform="translate(-6896 -10410)" clip-path="url(#a)"><g transform="translate(1022 18596)"><path d="M54.645.879H42.916a4.183,4.183,0,0,0-4.183,4.183v5.025a4.185,4.185,0,0,0,3.222,4.072,1.258,1.258,0,0,1,.958,1.229v3.675a.381.381,0,0,0,.689.224l3.269-4.495A1.268,1.268,0,0,1,47.9,14.27h6.749a4.183,4.183,0,0,0,4.183-4.183V5.062A4.183,4.183,0,0,0,54.645.879Z" fill="#d5b0ec"/><path d="M42.412,14.375a1.272,1.272,0,0,1,.5,1.013v3.675a.381.381,0,0,0,.689.224l3.269-4.495A1.268,1.268,0,0,1,47.9,14.27H42.487Z" fill="#c995e4"/><path d="M54.645.879H51.7a2.367,2.367,0,0,1,2.367,2.367V11.9A2.367,2.367,0,0,1,51.7,14.27h2.947a4.183,4.183,0,0,0,4.183-4.183V5.062A4.183,4.183,0,0,0,54.645.879Z" fill="#c995e4"/><path d="M36.477,38.692c-2.368-1.083-6.843-1.782-9.046-2.076a1.509,1.509,0,0,1-1.292-1.51V28.143H15.786v6.964a1.509,1.509,0,0,1-1.292,1.51c-2.2.294-6.679.992-9.046,2.076a7.42,7.42,0,0,0-4.276,6.767V57.316a1.782,1.782,0,0,0,1.757,1.806H39a1.782,1.782,0,0,0,1.757-1.806V45.459A7.42,7.42,0,0,0,36.477,38.692Z" fill="#ffece3"/><path d="M36.477,38.692c-2.368-1.083-6.843-1.782-9.046-2.076a1.509,1.509,0,0,1-1.292-1.51V28.143H21.376v9.717a1.509,1.509,0,0,0,1.292,1.51c2.2.294,6.679.992,9.046,2.076a7.42,7.42,0,0,1,4.276,6.767V59.121H39a1.782,1.782,0,0,0,1.757-1.806V45.459A7.42,7.42,0,0,0,36.477,38.692Z" fill="#ffddce"/><path d="M36.477,38.692c-2.368-1.083-6.843-1.782-9.046-2.076h0l-6.464,6.239,0,.007,0-.007-6.464-6.239c-2.2.294-6.679.992-9.046,2.076a7.42,7.42,0,0,0-4.276,6.767V57.316a1.782,1.782,0,0,0,1.757,1.806H39a1.782,1.782,0,0,0,1.757-1.806V45.459A7.42,7.42,0,0,0,36.477,38.692Z" fill="#fc8086"/><path d="M39,59.121a1.782,1.782,0,0,0,1.757-1.806V45.459a7.42,7.42,0,0,0-4.276-6.767c-2.368-1.083-6.843-1.782-9.046-2.076h0l-3.1,2.994a32.9,32.9,0,0,1,7.389,1.836,7.42,7.42,0,0,1,4.276,6.767V59.121Z" fill="#fb636f"/><path d="M8.729,18.707l0,3.218H33.2v-3.22A12.234,12.234,0,0,0,20.962,6.472h0A12.231,12.231,0,0,0,8.729,18.707Z" fill="#fbbe66"/><path d="M24.808,17.455H33.2v6.759H24.808Z" fill="#8db9c2"/><path d="M8.729,17.455h7.64v6.759H8.729Z" fill="#8db9c2"/><path d="M26.886,12.3a2.491,2.491,0,0,0-3.429.126A6.738,6.738,0,0,1,18.682,14.4H14.919a3.057,3.057,0,0,0-2.827,3.058L12.106,25c0,5.49,6.182,8.153,8.853,8.2,2.671-.05,8.853-2.713,8.853-8.2l.013-7.546C29.83,14.83,28.694,13.924,26.886,12.3Z" fill="#ffece3"/><path d="M26.886,12.3a2.428,2.428,0,0,0-1.844-.612L25.031,25c0,4.175-3.575,6.715-6.463,7.714a8.14,8.14,0,0,0,2.39.489c2.671-.05,8.853-2.713,8.853-8.2l.013-7.546c.005-2.625-1.13-3.531-2.939-5.158Z" fill="#ffddce"/><path d="M8.73,24.214V18.707a12.233,12.233,0,1,1,24.467,0v5.509a2.942,2.942,0,0,0,2.942-2.942V18.644a15.176,15.176,0,1,0-30.352,0v2.625A2.943,2.943,0,0,0,8.73,24.214Z" fill="#a8d0d5"/><path d="M18.333,29.979H14.9a1.61,1.61,0,1,1,0-3.221h3.437a1.61,1.61,0,0,1,0,3.221Z" fill="#7ba0b0"/><path d="M16.159,43.564l4.8-.708-6.464-6.239c-.918.122-2.231.315-3.621.577l2.813,5.14a2.417,2.417,0,0,0,2.472,1.23Z" fill="#fb636f"/><path d="M31.048,37.193c-1.389-.261-2.7-.454-3.617-.576h0l-6.464,6.239,4.8.708a2.416,2.416,0,0,0,2.472-1.23Z" fill="#fb636f"/><path d="M31.243,51.843H26.179a.551.551,0,0,1-.551-.551V49.228a.551.551,0,0,1,.551-.551h5.064a.551.551,0,0,1,.551.551v2.064A.551.551,0,0,1,31.243,51.843Z" fill="#fcdd2e"/><path d="M54.183,4.732H43.7a.879.879,0,1,0,0,1.758H54.183a.879.879,0,1,0,0-1.758Z"/><path d="M54.183,8.645H43.7a.879.879,0,1,0,0,1.758H54.183a.879.879,0,1,0,0-1.758Z"/><path d="M54.645,0H48.6a.879.879,0,0,0,0,1.758h6.041a3.308,3.308,0,0,1,3.3,3.3v5.025a3.308,3.308,0,0,1-3.3,3.3H47.9a2.153,2.153,0,0,0-1.736.884l-2.368,3.256V15.388A2.125,2.125,0,0,0,42.156,13.3a3.29,3.29,0,0,1-2.544-3.217V5.062a3.308,3.308,0,0,1,3.3-3.3H44.5A.879.879,0,1,0,44.5,0H42.916a5.068,5.068,0,0,0-5.062,5.062v5.025a5.041,5.041,0,0,0,3.9,4.927.38.38,0,0,1,.281.373v3.675a1.261,1.261,0,0,0,2.278.741l3.269-4.495a.39.39,0,0,1,.315-.16h6.749a5.068,5.068,0,0,0,5.062-5.062V5.062A5.068,5.068,0,0,0,54.645,0Z"/><path d="M31.243,47.8H26.179a1.431,1.431,0,0,0-1.43,1.43v2.064a1.431,1.431,0,0,0,1.43,1.43h5.064a1.431,1.431,0,0,0,1.43-1.43V49.228A1.431,1.431,0,0,0,31.243,47.8Zm-.328,3.166H26.507V49.556h4.407Z"/><path d="M36.843,37.893c-2.433-1.113-6.857-1.822-9.285-2.146h-.01a.632.632,0,0,1-.529-.639V31.769a8.379,8.379,0,0,0,3.67-6.676H33.2a3.819,3.819,0,0,0,3.821-3.821V18.644a16.055,16.055,0,1,0-32.109,0v2.625A3.827,3.827,0,0,0,7.85,24.989v1.682a2.52,2.52,0,0,0,2.517,2.517h2.076a9.847,9.847,0,0,0,2.463,2.587v3.332a.632.632,0,0,1-.529.639c-2.426.324-6.859,1.033-9.3,2.148A8.308,8.308,0,0,0,.293,45.46v2.821a.879.879,0,1,0,1.758,0V45.46a6.546,6.546,0,0,1,3.763-5.968,23.021,23.021,0,0,1,4.6-1.312l2.5,4.575a3.311,3.311,0,0,0,2.9,1.713c.419,0,.344-.027,4.273-.595V58.242H8.121v-3.97a.879.879,0,1,0-1.758,0v3.97H2.929a.9.9,0,0,1-.878-.927v-4.9a.879.879,0,0,0-1.758,0v4.9A2.663,2.663,0,0,0,2.929,60H39a2.663,2.663,0,0,0,2.636-2.684V45.459a8.308,8.308,0,0,0-4.789-7.566Zm-9.112-.348c.537.075,1.213.175,1.958.3l-2.225,4.066a1.543,1.543,0,0,1-1.573.783l-3.032-.447Zm2.93-20.968c-.239-2.351-1.468-3.389-3.187-4.933a3.373,3.373,0,0,0-4.637.157,5.843,5.843,0,0,1-4.154,1.718H14.919a3.941,3.941,0,0,0-3.612,3.058h-1.5a11.358,11.358,0,0,1,22.312,0H30.661ZM9.615,18.334h1.6l.009,5H9.609c0-4.849-.006-4.61.006-5Zm22.7,5H30.693l.009-5H32.31C32.323,18.725,32.314,18.483,32.317,23.335ZM6.666,21.271V18.646a14.3,14.3,0,1,1,28.594,0v2.628a2.064,2.064,0,0,1-1.185,1.868V18.705a13.112,13.112,0,1,0-26.224,0v4.431a2.067,2.067,0,0,1-1.185-1.867Zm3.7,6.159a.76.76,0,0,1-.76-.76V25.093h1.621a7.73,7.73,0,0,0,.381,2.338Zm2.82-.868a6.019,6.019,0,0,1-.2-1.563l-.013-7.545a2.187,2.187,0,0,1,1.948-2.179h3.763a7.589,7.589,0,0,0,5.4-2.232,1.616,1.616,0,0,1,2.22-.095c1.744,1.565,2.652,2.275,2.648,4.5L28.933,25a6.745,6.745,0,0,1-3.244,5.561.87.87,0,0,0-.088.06,9.857,9.857,0,0,1-4.642,1.7,9.649,9.649,0,0,1-4.274-1.468h1.648a2.489,2.489,0,0,0,0-4.978H14.9a2.479,2.479,0,0,0-1.708.683ZM14.9,29.1a.731.731,0,1,1,0-1.463h3.437a.731.731,0,0,1,0,1.463Zm1.135,13.594a1.543,1.543,0,0,1-1.573-.783l-2.225-4.065c.745-.125,1.421-.226,1.958-.3l4.872,4.7Zm-.069-5.883a2.418,2.418,0,0,0,.7-1.7V32.858a10.624,10.624,0,0,0,4.277,1.225h.033a10.63,10.63,0,0,0,4.286-1.229v2.253a2.419,2.419,0,0,0,.7,1.7l-5,4.827Zm23.913,20.5a.9.9,0,0,1-.878.927H35.562v-3.97a.879.879,0,1,0-1.758,0v3.97H21.841V43.874c3.923.567,3.849.594,4.269.594a3.311,3.311,0,0,0,2.9-1.713l2.5-4.576a23.028,23.028,0,0,1,4.6,1.312,6.546,6.546,0,0,1,3.763,5.968V57.316Z"/></g></g></g></svg>