<svg xmlns="http://www.w3.org/2000/svg" xmlns:xlink="http://www.w3.org/1999/xlink" width="33" height="33" viewBox="0 0 33 33"><defs><clipPath id="a"><rect width="33" height="33" transform="translate(-6631 9107)" fill="#fff" stroke="#707070" stroke-width="1"/></clipPath></defs><g transform="translate(6631 -9107)" clip-path="url(#a)"><g transform="translate(-6631 9107)"><path d="M27.107,13.811l-.275,4.327a1.47,1.47,0,0,1,2.016,1.032l.467-7.346a1.405,1.405,0,0,0-2.153,1.1Z" fill="#ffbc85" fill-rule="evenodd"/><path d="M21.315,25.031l-.247,3.279,2.887,1.317,3.088-1.317a13.142,13.142,0,0,0,4.626-9.171l.46-7.258a1.406,1.406,0,1,0-2.806-.178l-.007.121-.467,7.346a1.47,1.47,0,0,0-2.016-1.032,2.043,2.043,0,0,0-.555.306l-1.49,1.244L22.91,21.256c-1.36,1.134-1.466,2.084-1.594,3.775Z" fill="#ffe5c1" fill-rule="evenodd"/><path d="M10.092,21.256,8.215,19.689l-1.49-1.244a2.069,2.069,0,0,0-.555-.306A1.469,1.469,0,0,0,4.154,19.17l-.467-7.346L3.679,11.7a1.407,1.407,0,0,0-2.808.178l.462,7.258A13.133,13.133,0,0,0,5.957,28.31l2.808.79,3.168-.79-.247-3.279c-.128-1.692-.236-2.641-1.594-3.775Z" fill="#ffe5c1" fill-rule="evenodd"/><path d="M6.17,18.138l-.275-4.327-.057-.887A1.41,1.41,0,0,0,4.346,11.61a1.394,1.394,0,0,0-.66.214l.467,7.346A1.469,1.469,0,0,1,6.17,18.138Z" fill="#ffbc85" fill-rule="evenodd"/><path d="M7.456,20.673,9.333,22.24c1,.836.99,1.5,1.118,3.2l.2,2.874h1.279l-.247-3.279c-.128-1.692-.236-2.641-1.594-3.776L8.215,19.689l-1.49-1.244a2.069,2.069,0,0,0-.555-.306,1.5,1.5,0,0,0-1.937.757c.7-.262,1.369.282,2.04.79Z" fill="#fed1a3" fill-rule="evenodd"/><path d="M11.934,28.31H4.475a.606.606,0,0,0-.6.6v3a.6.6,0,0,0,.6.6h8.434a.6.6,0,0,0,.6-.6v-3a.606.606,0,0,0-.6-.6Z" fill="#eb5468" fill-rule="evenodd"/><path d="M20.093,28.31a.606.606,0,0,0-.6.6v3a.6.6,0,0,0,.6.6h8.434a.6.6,0,0,0,.6-.6v-3a.606.606,0,0,0-.6-.6H20.093Z" fill="#eb5468" fill-rule="evenodd"/><path d="M20.942,18.155a6.281,6.281,0,1,0-8.883,0,5.994,5.994,0,0,0,.539.478H20.4A6.55,6.55,0,0,0,20.942,18.155Z" fill="#9fd4fe" fill-rule="evenodd"/><path d="M18.1,15.076c-.662-.871-2-.889-3.2,0a3.916,3.916,0,0,0-2.3,3.557,6.28,6.28,0,0,0,7.807,0A3.917,3.917,0,0,0,18.1,15.076Z" fill="#eb5468" fill-rule="evenodd"/><path d="M10.774,7.384l.035-1.661.948-1.365-1.569-.546-1-1.323-1,1.323L6.61,4.358l.948,1.365.035,1.661L9.183,6.9Z" fill="#ffd772" fill-rule="evenodd"/><path d="M14.875,3.716l.035,1.66L16.5,4.9l1.591.478.035-1.66.948-1.364L17.505,1.8,16.5.483,15.495,1.8l-1.567.548Z" fill="#ffd772" fill-rule="evenodd"/><path d="M21.246,4.358l.946,1.365.037,1.661,1.591-.48,1.589.48.037-1.661.948-1.365-1.569-.546-1-1.323L22.813,3.812Z" fill="#ffd772" fill-rule="evenodd"/><path d="M4.154,19.17,3.679,11.7A1.406,1.406,0,0,0,.9,11.515c1.791-.546,1.649.367,1.712,1.354l.269,5.55a4.114,4.114,0,0,0,.733,2.606c.627.625,2.322,2.487,2.887,3.024s1.627.354.946-.6c-.564-.537-2.062-2.13-2.689-2.755A1.949,1.949,0,0,1,4.154,19.17Z" fill="#fed1a3" fill-rule="evenodd"/><path d="M11.257,28.915v3a.6.6,0,0,1-.6.6h2.254a.6.6,0,0,0,.6-.6v-3a.606.606,0,0,0-.6-.6H10.655A.606.606,0,0,1,11.257,28.915Z" fill="#e5384f" fill-rule="evenodd"/><path d="M25.437,28.31h1.605a13.142,13.142,0,0,0,4.626-9.171l.46-7.258a1.411,1.411,0,0,0-1.081-1.457c-.05,1.008-.623,8.42-.728,9.092a14.286,14.286,0,0,1-.755,3.251,16.47,16.47,0,0,1-4.127,5.542Z" fill="#fed1a3" fill-rule="evenodd"/><path d="M18.951,9.149a6.284,6.284,0,0,1,.977,7.622,3.858,3.858,0,0,1,.477,1.862,6.539,6.539,0,0,0,.537-.478A6.282,6.282,0,0,0,15.892,7.461,6.247,6.247,0,0,1,18.951,9.149Z" fill="#85beef" fill-rule="evenodd"/><path d="M10.808,5.723l.948-1.365-1.569-.546-1-1.323-.361.477a7.073,7.073,0,0,1,.134,4.008l.227-.07,1.591.48Z" fill="#fbba58" fill-rule="evenodd"/><path d="M16.349.683a7.075,7.075,0,0,1-.033,4.27L16.5,4.9l1.591.478.035-1.661.948-1.364L17.505,1.8,16.5.483Z" fill="#fbba58" fill-rule="evenodd"/><path d="M23.515,2.888a7.069,7.069,0,0,1,0,4.109l.308-.093,1.589.48.037-1.661.948-1.365-1.569-.546-1-1.323Z" fill="#fbba58" fill-rule="evenodd"/><path d="M17.375,15.486a5.835,5.835,0,0,1,1.741,3.939,6.236,6.236,0,0,0,1.288-.792,3.916,3.916,0,0,0-2.3-3.557A2.563,2.563,0,0,1,17.375,15.486Z" fill="#e5384f" fill-rule="evenodd"/><path d="M18.1,15.076a2.555,2.555,0,1,0-1.6.564,2.549,2.549,0,0,0,1.6-.564Z" fill="#ffe5c1" fill-rule="evenodd"/><path d="M17.646,12.82a2.558,2.558,0,0,1-2.306,2.544,2.566,2.566,0,0,0,1.16.277,2.555,2.555,0,0,0,0-5.11c-.084,0-.169.005-.249.013a2.555,2.555,0,0,1,1.395,2.276Z" fill="#fed1a3" fill-rule="evenodd"/><path d="M26.6,31.914a.6.6,0,0,1-.6.6h2.529a.6.6,0,0,0,.6-.6v-3a.606.606,0,0,0-.6-.6H26a.606.606,0,0,1,.6.6Z" fill="#e5384f" fill-rule="evenodd"/><path d="M26.942,20.3,24.6,22.768c-.537.564-.02,1.578.96.68.564-.537,2.062-2.13,2.687-2.755a1.745,1.745,0,0,0,.6-1.523,1.315,1.315,0,0,0-.035-.147,1.48,1.48,0,0,0-1.95-.9c1.376.693.641,1.611.079,2.174Z" fill="#fed1a3" fill-rule="evenodd"/><path d="M7.077,5.879l.032,1.515a.483.483,0,0,0,.623.453l1.451-.438,1.451.438a.483.483,0,0,0,.623-.453l.032-1.515.864-1.246a.483.483,0,0,0-.238-.732l-1.431-.5L9.568,2.2a.483.483,0,0,0-.77,0L7.882,3.4l-1.431.5a.483.483,0,0,0-.238.732ZM8.337,4.268A.483.483,0,0,0,8.564,4.1l.619-.816L9.8,4.1a.484.484,0,0,0,.226.164L11,4.605l-.585.843a.483.483,0,0,0-.086.265L10.3,6.737l-.981-.3a.482.482,0,0,0-.279,0l-.981.3L8.04,5.713a.482.482,0,0,0-.086-.265L7.37,4.605Z"/><path d="M14.395,3.872l.032,1.515a.483.483,0,0,0,.622.453L16.5,5.4l1.452.436a.483.483,0,0,0,.622-.453l.032-1.515.864-1.244a.483.483,0,0,0-.238-.732L17.8,1.4,16.886.191A.483.483,0,0,0,16.5,0h0a.483.483,0,0,0-.385.191L15.2,1.4l-1.43.5a.483.483,0,0,0-.237.732Zm1.259-1.611a.482.482,0,0,0,.225-.163l.621-.816.62.815a.483.483,0,0,0,.225.164l.968.338-.584.841a.482.482,0,0,0-.086.266l-.022,1.025-.982-.3a.485.485,0,0,0-.278,0l-.982.3-.022-1.025a.482.482,0,0,0-.086-.266L14.688,2.6Z"/><path d="M21.711,5.879l.033,1.515a.483.483,0,0,0,.623.452l1.451-.438,1.449.438a.484.484,0,0,0,.623-.452l.033-1.515.865-1.246a.483.483,0,0,0-.238-.732L25.12,3.4,24.2,2.2A.483.483,0,0,0,23.819,2h0a.484.484,0,0,0-.385.191L22.516,3.4l-1.43.5a.484.484,0,0,0-.238.732Zm1.26-1.611A.483.483,0,0,0,23.2,4.1l.621-.817.62.816a.483.483,0,0,0,.226.164l.968.337-.585.842a.484.484,0,0,0-.086.265l-.023,1.024-.98-.3a.482.482,0,0,0-.28,0l-.982.3-.023-1.025a.483.483,0,0,0-.086-.265l-.584-.843Z"/><path d="M23.265,13.713A6.76,6.76,0,1,0,21.283,18.5a6.717,6.717,0,0,0,1.982-4.784ZM12.4,9.613a5.8,5.8,0,0,1,8.371,8.02,4.412,4.412,0,0,0-1.881-2.675,3.038,3.038,0,1,0-4.779,0,4.412,4.412,0,0,0-1.881,2.676,5.806,5.806,0,0,1,.17-8.021Zm2.029,3.472A2.071,2.071,0,1,1,16.5,15.157,2.074,2.074,0,0,1,14.429,13.086ZM13.089,18.4a3.435,3.435,0,0,1,1.767-2.763,3.028,3.028,0,0,0,3.289,0A3.435,3.435,0,0,1,19.913,18.4,5.813,5.813,0,0,1,13.089,18.4Z"/><path d="M32.143,10.545a1.89,1.89,0,0,0-3.2.618,1.934,1.934,0,0,0-.258-.036,1.895,1.895,0,0,0-2.007,1.767l-.055.886-.256,4.036a2.7,2.7,0,0,0-.383.242l-.018.015L22.6,20.885C21.119,22.121,20.97,23.2,20.833,25l-.214,2.832h-.527a1.089,1.089,0,0,0-1.086,1.088v3A1.088,1.088,0,0,0,20.093,33h3.1a.483.483,0,1,0,0-.967h-3.1a.121.121,0,0,1-.12-.12v-3a.122.122,0,0,1,.12-.121h8.434a.122.122,0,0,1,.12.121v3a.121.121,0,0,1-.12.12h-3.1a.483.483,0,1,0,0,.967h3.1a1.088,1.088,0,0,0,1.086-1.086v-3a1.089,1.089,0,0,0-1.086-1.088h-.3a13.193,13.193,0,0,0,3.924-8.657l.46-7.257a1.875,1.875,0,0,0-.468-1.367Zm-4.554,3.3.055-.886a.928.928,0,0,1,.978-.863.955.955,0,0,1,.189.034l-.363,5.705a1.961,1.961,0,0,0-.39-.179,2.033,2.033,0,0,0-.7-.1Zm4.057-1.99-.46,7.258a12.565,12.565,0,0,1-4.335,8.719H21.589l.208-2.759c.127-1.669.233-2.449,1.422-3.441l3.357-2.8a1.26,1.26,0,0,1,1.178-.253.9.9,0,0,1,.594.589,1.232,1.232,0,0,1-.446,1.192c-.262.262-.671.687-1.1,1.137-.587.61-1.252,1.3-1.575,1.61a.483.483,0,0,0,.666.7c.339-.322.983-.992,1.606-1.64.429-.446.834-.868,1.089-1.123a2.257,2.257,0,0,0,.747-1.882l.472-7.419a.922.922,0,0,1,1.841.116Z"/><path d="M12.909,27.827h-.527l-.214-2.832c-.136-1.8-.285-2.873-1.767-4.11L7.035,18.073l-.018-.015a2.786,2.786,0,0,0-.383-.244L6.32,12.893a1.893,1.893,0,0,0-2.007-1.765,1.953,1.953,0,0,0-.257.035,1.89,1.89,0,0,0-3.668.749L.851,19.17a13.185,13.185,0,0,0,3.922,8.657h-.3a1.089,1.089,0,0,0-1.086,1.088v3A1.088,1.088,0,0,0,4.475,33h3.1a.483.483,0,0,0,0-.967h-3.1a.121.121,0,0,1-.12-.12v-3a.122.122,0,0,1,.12-.121h8.434a.122.122,0,0,1,.12.121v3a.121.121,0,0,1-.12.12h-3.1a.483.483,0,0,0,0,.967h3.1A1.088,1.088,0,0,0,14,31.914v-3A1.088,1.088,0,0,0,12.909,27.827ZM4.377,12.093a.927.927,0,0,1,.978.862l.292,4.593a2.012,2.012,0,0,0-1.095.283L4.19,12.126A.941.941,0,0,1,4.377,12.093ZM1.816,19.108l-.462-7.258A.923.923,0,0,1,3.2,11.734l.007.116q0,.008,0,.016l.463,7.281a2.223,2.223,0,0,0,.746,1.889c.261.26.676.692,1.116,1.149.613.637,1.247,1.3,1.581,1.614a.483.483,0,0,0,.666-.7c-.319-.3-.945-.954-1.551-1.584-.443-.461-.862-.9-1.129-1.163-.624-.624-.55-1.186-.273-1.5a1.159,1.159,0,0,1,1.6-.025l3.357,2.8c1.19.994,1.3,1.773,1.422,3.441l.208,2.759H6.149a12.556,12.556,0,0,1-4.333-8.718Z"/></g></g></svg>