<svg xmlns="http://www.w3.org/2000/svg" xmlns:xlink="http://www.w3.org/1999/xlink" width="51" height="51" viewBox="0 0 51 51"><defs><clipPath id="a"><rect width="51" height="51" transform="translate(620 17997)" fill="#26d19e"/></clipPath></defs><g transform="translate(-620 -20357.902)"><g transform="translate(0 2360.902)" clip-path="url(#a)"><g transform="translate(620 17997)"><path d="M45.023,12.152a4.982,4.982,0,0,0-4.98,4.98V45.023H50V17.133A4.981,4.981,0,0,0,45.023,12.152Zm0,0" fill="#ececf1"/><path d="M5.977,12.152A4.982,4.982,0,0,0,1,17.133V45.023h9.961V17.133A4.981,4.981,0,0,0,5.977,12.152Zm0,0" fill="#ececf1"/><path d="M25.9,32.074H40.043V20.121h-26.7Zm0,0" fill="#7fe881"/><path d="M10.957,26.1V45.023a4.98,4.98,0,0,0-9.961,0A5.132,5.132,0,0,0,6.261,50h4.7L23.508,38.051Zm0,0" fill="#76e2f8"/><path d="M46.35,40.214a4.991,4.991,0,0,0-6.307,4.809V38.051H31.477L19.523,50h25.5a4.985,4.985,0,0,0,1.327-9.79Zm0,0" fill="#76e2f8"/><path d="M40.043,32.074v5.977H31.477L19.523,50H10.957L23.508,38.051,10.957,26.1V20.121h2.391L25.9,32.074Zm0,0" fill="#fed2a4"/><path d="M25.5,1a8.964,8.964,0,0,1,8.965,8.965c0,2.439-2.174,6.583-4.382,10.16-2.274,3.687-4.583,6.773-4.583,6.773s-2.309-3.086-4.583-6.773c-2.207-3.577-4.382-7.721-4.382-10.16A8.964,8.964,0,0,1,25.5,1Zm0,0" fill="#ff637b"/><path d="M25.5,5.977a3.984,3.984,0,1,1-3.984,3.984A3.989,3.989,0,0,1,25.5,5.977Zm0,0" fill="#ececf1"/><path d="M45.023,11.156a5.975,5.975,0,0,0-5.977,5.977v1.992h-7.2c2.4-4.1,3.617-7.184,3.617-9.164a9.961,9.961,0,1,0-19.922,0c0,1.981,1.217,5.059,3.617,9.164h-7.2V17.133A5.977,5.977,0,1,0,0,17.133v5.578a1,1,0,0,0,1.992,0V17.133a3.984,3.984,0,1,1,7.969,0v23.44a5.964,5.964,0,0,0-7.969,0V30.68A1,1,0,1,0,0,30.68V45.023A6.141,6.141,0,0,0,6.261,51H45.023A5.983,5.983,0,0,0,51,45.023V17.133a5.983,5.983,0,0,0-5.977-5.977Zm-3.984,5.977a3.984,3.984,0,0,1,7.969,0V40.545a5.822,5.822,0,0,0-2.409-1.3,6.011,6.011,0,0,0-5.56,1.318V17.133ZM39.047,31.078H26.3L15.838,21.117h4.525c2.175,3.474,4.317,6.344,4.339,6.374a1,1,0,0,0,1.6,0c.022-.03,2.165-2.9,4.339-6.374h8.41ZM25.5,1.992a7.978,7.978,0,0,1,7.969,7.969c0,3.7-5.834,12.251-7.969,15.239-2.168-3.036-7.969-11.575-7.969-15.239A7.978,7.978,0,0,1,25.5,1.992ZM1.992,45.023a3.984,3.984,0,1,1,7.969,0,1,1,0,0,0,1.992,0v-16.6l10.11,9.629-11.5,10.957h-4.3A4.136,4.136,0,0,1,1.992,45.023Zm22.2-6.251a1,1,0,0,0,0-1.443L11.953,25.671V21.117h1L25.212,32.8a1,1,0,0,0,.687.275H39.047v3.984h-7.57a1,1,0,0,0-.7.292L19.111,49.008H13.447ZM45.023,49.008H21.929l9.961-9.961h7.157v5.977a1,1,0,0,0,1.992,0A3.994,3.994,0,0,1,46.1,41.179a3.923,3.923,0,0,1,2.907,3.845,3.989,3.989,0,0,1-3.984,3.984Zm0,0"/><path d="M25.5,14.941a4.98,4.98,0,1,0-4.98-4.98A4.986,4.986,0,0,0,25.5,14.941Zm0-7.969a2.988,2.988,0,1,1-2.988,2.988A2.992,2.992,0,0,1,25.5,6.973Zm0,0"/><path d="M1,27.691a1,1,0,1,0-1-1A1,1,0,0,0,1,27.691Zm0,0"/></g></g></g></svg>