<svg xmlns="http://www.w3.org/2000/svg" xmlns:xlink="http://www.w3.org/1999/xlink" width="102" height="102" viewBox="0 0 102 102"><defs><clipPath id="a"><rect width="80" height="80" transform="translate(760 1690)" fill="#fff"/></clipPath></defs><g transform="translate(-749 -1679)"><circle cx="51" cy="51" r="51" transform="translate(749 1679)" fill="#a488f5"/><g clip-path="url(#a)"><g transform="translate(757.334 1687.342)"><path d="M52.743,18.72a31.317,31.317,0,0,1-7.416,22.608h-8A19.774,19.774,0,0,0,42.3,27.595a32.816,32.816,0,0,0-.947-7.459,39.48,39.48,0,0,0-2.525-6.86l12.554-1.889a28.929,28.929,0,0,1,1.361,7.332Z" fill="#96b268"/><path d="M18.664,41.328V54.659h-4a4,4,0,0,0,0,8h4v5.333a8,8,0,0,0,8,8h6.666v5.333H62.658V75.443a31.568,31.568,0,0,1,3.333-14.118,31.568,31.568,0,0,0,3.333-14.118V41.328Z" fill="#fdc8a2"/><path d="M10.665,9.332,13.332,4,16,9.332l6.666,1.333-4,4L20,20l-6.666-2.666L6.666,20,8,14.665l-4-4Z" fill="#ffb431"/><path d="M33.329,41.328A49.153,49.153,0,0,0,20,20l-6.666-2.666L6.666,20S24,28,28,41.328Z" fill="#de5540"/><path d="M38.661,41.328C36,24,22.664,10.665,22.664,10.665l-4,4L20,20a49.153,49.153,0,0,1,13.332,21.33Z" fill="#d64a34"/><path d="M73.02,23.53,64.3,17.391l6.544-9.3A9.647,9.647,0,0,1,80.17,4.108a9.647,9.647,0,0,1-.606,10.125Z" fill="#de5540"/><path d="M77.1,8.468a2.666,2.666,0,1,0,.646,3.715A2.669,2.669,0,0,0,77.1,8.468Z" fill="#ffb431"/><path d="M68.136,11.94l-5.9-.889-4.6,6.541,4.482-1.736,2.18,1.535Z" fill="#348ed8"/><path d="M76.857,18.079l2.826,5.25-4.6,6.541.122-4.805-2.18-1.535Z" fill="#348ed8"/><path d="M68.86,27.123l-6.541-4.6,4.16-3.593,4.361,3.069Z" fill="#348ed8"/><path d="M59.992,25.33s-6.666,6.666-6.666,16h6.666c5.333-4,6.666-12,6.666-12Z" fill="#ffb431"/><path d="M56.733,31.308H64.5v2.665H56.733Z" transform="matrix(0.514, -0.858, 0.858, 0.514, 1.442, 67.872)" fill="#f9a614"/><circle cx="6.666" cy="6.666" r="6.666" transform="translate(38.661 3.999)" fill="#348ed8"/><path d="M38.8,12.008a6.667,6.667,0,0,1,12.91-3.281" fill="#348ed8"/><path d="M8,39.995V34.662l4,2.666,4-2.666v6.666l4,4H13.332L10.665,50.66,8.5,45.272,4,43.994Z" fill="#ffb431"/><path d="M45.513,28.913a22.989,22.989,0,0,0,.18-8.045l2.6-.592a25,25,0,0,1-.152,9.092ZM28.647,4.528,26.41,5.978a38.334,38.334,0,0,1,2.215,3.94l2.4-1.172a41.025,41.025,0,0,0-2.373-4.218Zm4.682,78.127H62.658a1.333,1.333,0,0,0,1.333-1.333V75.443a30.364,30.364,0,0,1,.232-3.737l-2.646-.329a33.022,33.022,0,0,0-.252,4.066v4.546H34.662V77.323h9.332V74.657H26.663A6.673,6.673,0,0,1,20,67.991v-.083a10.9,10.9,0,0,0,6.437-3.136L27.606,63.6,25.72,61.715l-1.172,1.172A8.259,8.259,0,0,1,20,65.217V62.658a1.333,1.333,0,0,0-1.333-1.333h-4a2.666,2.666,0,1,1,0-5.333h4A1.333,1.333,0,0,0,20,54.659V48.493H17.331v4.833H14.665a5.333,5.333,0,0,0,0,10.665h2.666v4a9.343,9.343,0,0,0,9.332,9.332H32v4a1.333,1.333,0,0,0,1.333,1.333Zm25.72-58.268c-.275.275-6.445,6.548-7.014,15.607H48.067a32.329,32.329,0,0,0,6-21.447l-2.644.344a26.652,26.652,0,0,1-.342,7.069,30.189,30.189,0,0,1-6.373,14.034H40.111c6.005-8.749,2.639-19.782,2.488-20.262l-2.544.8c.03.1,2.633,8.692-1.024,16.046-.407-1.562-.888-3.082-1.423-4.552a23.958,23.958,0,0,0-3.152-15.405L32.2,18.043a19.018,19.018,0,0,1,2.7,7.751,70.783,70.783,0,0,0-9.1-13.637l-2.032,1.726c3.256,3.834,10.945,13.923,13.3,26.113H34.308A50.853,50.853,0,0,0,23.865,22.016q-.308-.344-.593-.651l-1.955,1.813q.268.289.56.615a48.34,48.34,0,0,1,9.619,16.2H28.963c-3.211-9.156-12.254-15.726-17.474-18.881L10.11,23.4c4.735,2.862,12.806,8.68,16,16.6H23.39A29.161,29.161,0,0,0,20.6,36.428l-1.968,1.8q.806.881,1.528,1.828v2.6H67.991v4.546A30.249,30.249,0,0,1,64.8,60.725a32.924,32.924,0,0,0-2.794,8.059l2.611.54a30.287,30.287,0,0,1,2.566-7.4,32.922,32.922,0,0,0,3.474-14.714V41.328a1.333,1.333,0,0,0-1.018-1.294A18.842,18.842,0,0,0,73,33.716l-2.583-.664c-.767,2.98-3.435,6.077-4.222,6.942H63.287a24.566,24.566,0,0,0,4.686-10.446l-2.63-.44c-.012.073-1.26,7.178-5.811,10.886h-4.82c.583-7.954,6.164-13.663,6.224-13.723l-.944-.941Zm.98,33.957a38.1,38.1,0,0,0-1.807,4.243l2.512.894a35.481,35.481,0,0,1,1.68-3.945,27.6,27.6,0,0,0,2.533-7.8l-2.63-.44a24.947,24.947,0,0,1-2.288,7.047Zm5.3-11.137V46.66H62.658v.546c0,.667-.028,1.344-.083,2.011l2.657.218C65.294,48.7,65.324,47.946,65.324,47.207ZM16.9,8.153l6.027,1.205a1.333,1.333,0,0,1,.681,2.25L20.14,15.074l1.15,4.6A1.333,1.333,0,0,1,19.5,21.235l-6.17-2.468L7.161,21.235a1.333,1.333,0,0,1-1.788-1.561l1.15-4.6L3.056,11.607a1.333,1.333,0,0,1,.681-2.25L9.765,8.153,12.14,3.4a1.333,1.333,0,0,1,2.385,0Zm3.061,3.331-4.223-.845a1.333,1.333,0,0,1-.931-.711L13.332,6.981,11.858,9.928a1.333,1.333,0,0,1-.931.711L6.7,11.484l2.238,2.238a1.333,1.333,0,0,1,.35,1.266l-.7,2.8,4.246-1.7a1.333,1.333,0,0,1,.99,0l4.245,1.7-.7-2.8a1.333,1.333,0,0,1,.35-1.266ZM77.1,8.468a2.666,2.666,0,1,0,.646,3.715A2.669,2.669,0,0,0,77.1,8.468Zm4.243-4.992A10.92,10.92,0,0,1,80.654,15l-2.233,3.172L80.857,22.7a1.333,1.333,0,0,1-.083,1.4l-4.6,6.541a1.333,1.333,0,0,1-2.423-.8l.1-4.092-2.381-1.677L70.1,27.6a1.333,1.333,0,0,1-2.011.61l-6.541-4.6a1.333,1.333,0,0,1-.1-2.1l2.868-2.477-2.381-1.676-3.816,1.478a1.333,1.333,0,0,1-1.572-2.011l4.6-6.541a1.334,1.334,0,0,1,1.289-.551l5.08.767,2.233-3.172A10.92,10.92,0,0,1,80.368,2.789a1.333,1.333,0,0,1,.976.686ZM65.8,12.936l-2.948-.444-1.6,2.266.376-.146a1.333,1.333,0,0,1,1.249.153l1.09.767Zm3.417,9.549-2.658-1.871-2.08,1.8,3.748,2.638Zm8.9.75L76.706,20.61l-1.828,2.6,1.09.767a1.333,1.333,0,0,1,.565,1.124l-.01.4ZM79.294,5.351a8.259,8.259,0,0,0-7.361,3.51l-2.706,3.845h0l-3.069,4.361,6.541,4.6,5.776-8.207a8.262,8.262,0,0,0,.821-8.114ZM63.8,30.015l-2.286-1.372-4,6.666L59.8,36.68ZM55.079,11.887l-1.933.467A7.994,7.994,0,0,1,39.14,15.728s-2.837.644-3.151.644a4,4,0,0,1-3.88-3.063,4.057,4.057,0,0,1-.113-.94,3.989,3.989,0,0,1,3.063-3.887l2.8-.675A7.982,7.982,0,0,1,39.136,5.6L41.2,7.289a5.328,5.328,0,0,0-.807,5.393l10.247-2.469a5.339,5.339,0,0,0-5.312-4.881,5.276,5.276,0,0,0-2.359.548L41.787,3.491a7.994,7.994,0,0,1,8.886,1.231l2.531-.61a4,4,0,0,1,4.825,2.952A4.059,4.059,0,0,1,58.14,8a3.987,3.987,0,0,1-3.062,3.885Zm-17.3,1.424a7.96,7.96,0,0,1-.453-2.634l-1.644.4a1.33,1.33,0,0,0-1.022,1.3,1.375,1.375,0,0,0,.039.318,1.332,1.332,0,0,0,1.607.979Zm12.292-.218L42.21,14.987a5.324,5.324,0,0,0,7.862-1.894ZM55.474,8a1.377,1.377,0,0,0-.039-.318A1.333,1.333,0,0,0,53.828,6.7l-1.377.332a7.935,7.935,0,0,1,.8,2.55l1.2-.29A1.328,1.328,0,0,0,55.474,8ZM45.327,6.665V9.332h2.666V6.666ZM3.057,43.051l3.609-3.609V34.662a1.333,1.333,0,0,1,2.073-1.109L12,35.726l3.26-2.173a1.333,1.333,0,0,1,2.073,1.109v6.114l3.609,3.609A1.333,1.333,0,0,1,20,46.66H14.155l-2.3,4.6a1.333,1.333,0,0,1-1.192.737h-.054a1.333,1.333,0,0,1-1.183-.835L7.506,46.376l-3.871-1.1a1.333,1.333,0,0,1-.578-2.225Zm3.491.28,2.316.658a1.333,1.333,0,0,1,.873.785l1.062,2.64,1.342-2.683a1.333,1.333,0,0,1,1.192-.738h3.447L15.055,42.27a1.333,1.333,0,0,1-.39-.943V37.153l-1.927,1.284a1.333,1.333,0,0,1-1.479,0L9.332,37.153v2.842a1.333,1.333,0,0,1-.39.943ZM3.709,29.3a31,31,0,0,1,7.628,3.16l1.322-2.315a33.061,33.061,0,0,0-8.371-3.447Zm59.6-22.169a12.966,12.966,0,0,0,.685-4.461H61.325a10.284,10.284,0,0,1-.52,3.538ZM81.985,35.707l.341-2.644a9.316,9.316,0,0,0-7.091,2.359l1.843,1.927a6.705,6.705,0,0,1,4.907-1.641Zm-2,8.287H77.323V46.66H74.657v2.666h2.666v2.666h2.666V49.327h2.666V46.66H79.989ZM10.665,73.323V70.657h2.666V67.991H10.665V65.324H8v2.666H5.333v2.666H8v2.666ZM74.657,59.992V57.326H71.99v2.666Zm1.333,2.666v2.666h2.666V62.658ZM2.666,61.325H5.333V58.659H2.666Zm46.66-16v2.666h2.666V45.327Zm-5.333,8v2.666H46.66V53.326ZM18.664,2.666V5.333H21.33V2.666ZM55.992,24h2.666V21.33H55.992Z"/></g></g></g></svg>