<svg xmlns="http://www.w3.org/2000/svg" width="250.414" height="248.933" viewBox="0 0 250.414 248.933">
  <g id="Grupo_95186" data-name="Grupo 95186" transform="translate(-390 -3434.303)">
    <rect id="Rectángulo_34099" data-name="Rectángulo 34099" width="36.647" height="36.647" rx="8" transform="matrix(0.985, 0.174, -0.174, 0.985, 427.87, 3535.546)" fill="#ffd41c"/>
    <circle id="Elipse_5081" data-name="Elipse 5081" cx="8.012" cy="8.012" r="8.012" transform="translate(600 3594.976)" fill="#764cf0"/>
    <path id="Trazado_114565" data-name="Trazado 114565" d="M662.568-58.417c-5.557-2.619-11.14-5.157-16.69-7.675C618.1-78.694,589.386-91.729,568-114.334a117.188,117.188,0,0,1-30.469-63.449,111.446,111.446,0,0,1,.778-37.081h-4.135a115.525,115.525,0,0,0-.663,37.657,121.313,121.313,0,0,0,31.538,65.662C586.984-88.365,616.072-75.161,644.2-62.4c6.112,2.775,12.263,5.563,18.368,8.48Z" transform="translate(93.572 3996.07) rotate(-30)" fill="#764cf0"/>
    <g id="important" transform="translate(374.999 3434.303)">
      <path id="Trazado_114546" data-name="Trazado 114546" d="M121.811,71.259,87.283,15.274a16.343,16.343,0,0,0-27.832,0L24.923,71.259a16.341,16.341,0,0,0,13.916,24.9H107.9a16.341,16.341,0,0,0,13.916-24.9Z" transform="translate(-5.866 -5.866)" fill="#26d19e"/>
      <path id="Trazado_114547" data-name="Trazado 114547" d="M62.3,113.091A9.806,9.806,0,0,1,53.95,98.154L88.478,42.169a9.808,9.808,0,0,1,16.708,0l34.528,55.985a9.807,9.807,0,0,1-8.354,14.937Z" transform="translate(-29.331 -29.331)" fill="#fc6749"/>
      <path id="Trazado_114548" data-name="Trazado 114548" d="M242.23,82.5l-3.839,6.224v32.676l30.686,17.084h7.678S242.232,82.508,242.23,82.5Z" transform="translate(-174.726 -64.532)" fill="#dbffff"/>
      <path id="Trazado_114549" data-name="Trazado 114549" d="M97.5,160.838h61.378l-30.686-49.76c-9,14.587-30.692,49.759-30.692,49.76Z" transform="translate(-64.528 -86.881)" fill="#fff"/>
      <circle id="Elipse_5079" data-name="Elipse 5079" cx="3.268" cy="3.268" r="3.268" transform="translate(64.233 60.888)" fill="#5c6b96"/>
      <path id="Trazado_114550" data-name="Trazado 114550" d="M241,156.477a3.268,3.268,0,0,1,6.535,0v14.442a3.268,3.268,0,1,1-6.535,0Z" transform="translate(-176.768 -119.834)" fill="#5c6b96"/>
      <path id="Trazado_114560" data-name="Trazado 114560" d="M238.4,145.709a4.907,4.907,0,0,0-4.9,4.9v14.442a4.9,4.9,0,1,0,9.8,0V150.61A4.907,4.907,0,0,0,238.4,145.709Zm1.634,19.343a1.634,1.634,0,1,1-3.268,0V150.61a1.634,1.634,0,1,1,3.268,0Z" transform="translate(-170.901 -113.967)"/>
      <path id="Trazado_114561" data-name="Trazado 114561" d="M238.4,272a4.9,4.9,0,1,0,4.9,4.9A4.907,4.907,0,0,0,238.4,272Zm0,6.535a1.634,1.634,0,1,1,1.634-1.634A1.636,1.636,0,0,1,238.4,278.539Z" transform="translate(-170.901 -212.75)"/>
      <path id="Trazado_114562" data-name="Trazado 114562" d="M32.973,91.929h69.056a17.976,17.976,0,0,0,15.307-27.394L82.808,8.55a17.977,17.977,0,0,0-30.614,0L17.666,64.536A17.976,17.976,0,0,0,32.973,91.929ZM20.447,66.251,54.975,10.265a14.709,14.709,0,0,1,25.051,0l34.528,55.985a14.708,14.708,0,0,1-12.526,22.411H32.973A14.708,14.708,0,0,1,20.447,66.251Z"/>
      <path id="Trazado_114563" data-name="Trazado 114563" d="M56.438,108.859h69.056a11.44,11.44,0,0,0,9.744-17.428L100.71,35.445a11.442,11.442,0,0,0-19.489,0L65.673,60.657a1.634,1.634,0,1,0,2.781,1.715L84,37.161a8.174,8.174,0,0,1,13.927,0l34.528,55.985a8.173,8.173,0,0,1-6.963,12.445H56.438a8.172,8.172,0,0,1-6.963-12.445L65.023,67.935a1.634,1.634,0,1,0-2.781-1.715L46.693,91.43a11.44,11.44,0,0,0,9.744,17.428Z" transform="translate(-23.465 -23.465)"/>
      <path id="Trazado_114564" data-name="Trazado 114564" d="M90,132.623a1.634,1.634,0,0,0,1.634,1.634h69.056a1.634,1.634,0,0,0,1.634-1.634c0-.463-.06-.56-.631-1.486L144.82,103.774c-17.283-28.025-17.283-28.025-17.309-28.063a1.634,1.634,0,0,0-2.735.07L90.632,131.136c-.571.926-.631,1.023-.631,1.487Zm36.165-52.872,31.6,51.238h-63.2Z" transform="translate(-58.662 -58.665)"/>
    </g>
  </g>
</svg>
