<svg xmlns="http://www.w3.org/2000/svg" xmlns:xlink="http://www.w3.org/1999/xlink" width="33" height="33" viewBox="0 0 33 33"><defs><clipPath id="a"><rect width="33" height="33" transform="translate(-6631 9058)" fill="#fff" stroke="#707070" stroke-width="1"/></clipPath></defs><g transform="translate(6631 -9058)" clip-path="url(#a)"><g transform="translate(-6630.828 9058)"><path d="M18.817,20.992v.83H17.535a.753.753,0,0,0-.532.218L15.31,23.733a.753.753,0,0,0,.532,1.283h.314v7.452H10.834v-.532l2.129-1.6L11.9,21.29l.442-1.756,1.155.692.442-3.1,1.464.133A3.751,3.751,0,0,1,18.817,20.992Z" fill="#e6e9ed"/><path d="M10.834,32.468H5.511A1.072,1.072,0,0,0,6.576,31.4a2.128,2.128,0,0,0-2.129-2.129H3.382a2.08,2.08,0,0,0-.484.059l-.016-.059V27.145H4.947v-.426a.516.516,0,0,1,.772-.463l.357.213,1.033-1.842-.357-.213a.543.543,0,0,1,0-.926l.357-.213L6.075,21.434l-.357.213a.516.516,0,0,1-.772-.463v-.426H2.882v-.245a3.192,3.192,0,0,1,2.9-3.215l1.948-.176.442,3.1,1.155-.692.442,1.756L8.7,30.339l2.129,1.6Z" fill="#e6e9ed"/><path d="M11.9,21.29l1.065,9.048-2.129,1.6L8.7,30.339,9.769,21.29Z" fill="#ff826e"/><path d="M12.34,19.534,11.9,21.29H9.769l-.442-1.756,1.506-.9Z" fill="#fc6e51"/><path d="M10.834,18.1l2.129-1.065.974.09-.442,3.1-1.155-.692-1.506-.9-1.506.9-1.155.692-.442-3.1.974-.09Z" fill="#ccd1d9"/><path d="M25.444,8.415l4.444,7.893a.86.86,0,0,1,.106.415.843.843,0,0,1-.841.841H20.191a.843.843,0,0,1-.841-.841.86.86,0,0,1,.106-.415L23.9,8.415a.837.837,0,0,1,.735-.431h.075a.837.837,0,0,1,.735.431Z" fill="#ff826e"/><path d="M31.059,25.016v6.919a.534.534,0,0,1-.532.532H16.156V25.016h4.961a.75.75,0,0,0,.585-.282l1.905-2.379,1.905,2.379a.75.75,0,0,0,.585.282Z" fill="#d3a06c"/><path d="M31.906,23.733a.753.753,0,0,1-.532,1.283H26.1a.75.75,0,0,1-.585-.282l-1.905-2.379v-.532h6.073a.753.753,0,0,1,.532.218Z" fill="#b27946"/><path d="M23.608,21.823v.532L21.7,24.734a.75.75,0,0,1-.585.282H15.842a.753.753,0,0,1-.532-1.283L17,22.041a.753.753,0,0,1,.532-.218h6.073Z" fill="#b27946"/><path d="M8.375,4.423l-1.98.99A1.6,1.6,0,0,0,5.511,6.84V7.984H4.979a1.614,1.614,0,0,0-.6.117l-.4-2.416a4.756,4.756,0,0,1-.059-.729A4.416,4.416,0,0,1,8.337.532H13.33a4.423,4.423,0,0,1,4.423,4.423,4.756,4.756,0,0,1-.059.729L17.29,8.1a1.614,1.614,0,0,0-.6-.117h-.532V7.452a1.6,1.6,0,0,0-1.6-1.6h-.633A11.5,11.5,0,0,1,8.375,4.423Z" fill="#656d78"/><path d="M4.979,23.952a1.065,1.065,0,1,0-1.065,1.065A1.068,1.068,0,0,0,4.979,23.952Zm-3.9.463a.543.543,0,0,0,0-.926l-.357-.213L1.854,21.29l.2.16a.51.51,0,0,0,.825-.42v-.271H4.947v.426a.516.516,0,0,0,.772.463l.357-.213,1.033,1.842-.357.213a.543.543,0,0,0,0,.926l.357.213L6.075,26.469l-.357-.213a.516.516,0,0,0-.772.463v.426H2.882v-.426a.516.516,0,0,0-.772-.463l-.357.213L.721,24.628Z" fill="#fcd770"/><path d="M6.576,31.4a1.072,1.072,0,0,1-1.065,1.065H2.317A1.068,1.068,0,0,1,1.253,31.4,2.117,2.117,0,0,1,2.9,29.333a2.08,2.08,0,0,1,.484-.059H4.446A2.128,2.128,0,0,1,6.576,31.4Z" fill="#f0d0b4"/><path d="M17.29,8.1a1.6,1.6,0,0,1-.6,3.076h-.538c.005-.059.005-.112.005-.17V7.984h.532a1.614,1.614,0,0,1,.6.117Z" fill="#f0d0b4"/><path d="M16.156,7.984v3.023c0,.059,0,.112-.005.17a4.668,4.668,0,0,1-3.188,4.258v1.6L10.834,18.1,8.7,17.032v-1.6a4.668,4.668,0,0,1-3.188-4.258c-.005-.059-.005-.112-.005-.17V6.84a1.6,1.6,0,0,1,.884-1.426l1.98-.99a11.5,11.5,0,0,0,5.551,1.432h.633a1.6,1.6,0,0,1,1.6,1.6Z" fill="#f0d0b4"/><path d="M5.511,11.007c0,.059,0,.112.005.17H4.979a1.6,1.6,0,0,1-.6-3.076,1.614,1.614,0,0,1,.6-.117h.532Z" fill="#f0d0b4"/><path d="M32.656,24.264a1.3,1.3,0,0,0-.376-.909l-1.688-1.688a1.292,1.292,0,0,0-.909-.377H19.35v-.3a4.267,4.267,0,0,0-3.9-4.271l-1.955-.177V15.8a5.192,5.192,0,0,0,3.141-4.094h.053a2.128,2.128,0,0,0,1.189-3.895l.341-2.044A4.956,4.956,0,0,0,13.329,0H8.339A4.956,4.956,0,0,0,3.45,5.771L3.79,7.815A2.128,2.128,0,0,0,4.979,11.71h.053A5.191,5.191,0,0,0,8.172,15.8v.742l-2.436.221A3.746,3.746,0,0,0,2.36,20.226H2.352v.223c0,.023,0,.045,0,.068l0,.246h0l.033.27L1.7,20.487,0,23.466l.807.489-.8.479,1.55,2.773.8-.49V28.95A2.666,2.666,0,0,0,.721,31.4a1.6,1.6,0,0,0,1.6,1.6h28.21a1.066,1.066,0,0,0,1.065-1.065V25.526a1.284,1.284,0,0,0,1.065-1.263Zm-16.811.22a.221.221,0,0,1-.156-.376l1.689-1.688a.219.219,0,0,1,.155-.064h5.394L21.29,24.4a.22.22,0,0,1-.172.083ZM8.6,17.576l1.611.805-1.626.976L8.336,17.6Zm1.641,4.246h1.182L12.4,30.1,10.834,31.27,9.27,30.1Zm1.24-1.065h-1.3l-.243-.973.893-.535.893.535Zm-.028-2.377,1.611-.805.267.024-.251,1.756Zm5.233-7.736V8.516a1.065,1.065,0,0,1,0,2.129ZM3.914,9.581A1.066,1.066,0,0,1,4.979,8.516v2.129A1.066,1.066,0,0,1,3.914,9.581ZM4.979,6.842v.61c-.057,0-.111.012-.167.017L4.5,5.6A3.891,3.891,0,0,1,8.339,1.065h4.99A3.89,3.89,0,0,1,17.168,5.6l-.312,1.872c-.056,0-.11-.017-.168-.017a2.131,2.131,0,0,0-2.129-2.129h-.633a10.969,10.969,0,0,1-7.01-2.538L6.235,3.6a11.986,11.986,0,0,0,1.049.771l-1.128.564a2.117,2.117,0,0,0-1.177,1.9ZM6.043,11V6.842a1.06,1.06,0,0,1,.588-.952l1.747-.873a12.028,12.028,0,0,0,5.548,1.371h.633a1.066,1.066,0,0,1,1.065,1.065V11a4.133,4.133,0,0,1-2.829,3.926l-.364.121V16.7l-1.6.8-1.6-.8V15.052l-.364-.121A4.133,4.133,0,0,1,6.043,11ZM1.953,25.739l-.517-.925a1.074,1.074,0,0,0,0-1.723l.6-1.052a1.031,1.031,0,0,0,.78-.05,1.048,1.048,0,0,0,.565-.7H4.418a1.066,1.066,0,0,0,.531.824,1.022,1.022,0,0,0,.927.048l.517.925a1.075,1.075,0,0,0,0,1.726l-.517.925a1.02,1.02,0,0,0-.927.048,1.068,1.068,0,0,0-.531.826H3.411a1.066,1.066,0,0,0-.531-.824,1.02,1.02,0,0,0-.927-.049Zm3.525,1.938v-.532l-.032-.432.829.494,1.55-2.773-.8-.487.8-.479L6.275,20.7l-.8.49v-.96H3.437a2.668,2.668,0,0,1,2.4-2.4l1.44-.131.485,3.4,1.229-.737.242.967L8.141,30.581l1.806,1.354H7.01a1.579,1.579,0,0,0,.1-.532,2.664,2.664,0,0,0-2.661-2.661H3.416V27.677Zm-3.16,4.258a.533.533,0,0,1-.532-.532,1.6,1.6,0,0,1,1.6-1.6H4.446a1.6,1.6,0,0,1,1.6,1.6.533.533,0,0,1-.532.532Zm9.4,0,1.806-1.355-1.089-9.257.242-.967,1.229.737.485-3.4.959.087a3.209,3.209,0,0,1,2.932,3.211v.3h-.753a1.292,1.292,0,0,0-.909.376l-1.689,1.688a1.3,1.3,0,0,0-.376.909,1.284,1.284,0,0,0,1.065,1.263v6.409Zm4.968-6.387h4.428a1.281,1.281,0,0,0,1-.482l.955-1.194v8.063H16.688Zm7.452,6.387V23.872l.955,1.194a1.279,1.279,0,0,0,1,.482h4.428v6.387Zm7.231-7.452H26.1a.22.22,0,0,1-.172-.082L24.29,22.355h5.394a.222.222,0,0,1,.156.064l1.688,1.688a.221.221,0,0,1-.156.377Z"/><path d="M26.269,29.806h1.065v1.065H26.269Z"/><path d="M28.4,29.806h1.065v1.065H28.4Z"/><path d="M24.14,10.645H25.2v3.194H24.14Z"/><path d="M24.14,14.9H25.2v1.065H24.14Z"/><path d="M20.193,18.1h8.958a1.376,1.376,0,0,0,1.2-2.05L25.91,8.153a1.376,1.376,0,0,0-1.2-.7h-.078a1.376,1.376,0,0,0-1.2.7l-4.442,7.895a1.376,1.376,0,0,0,1.2,2.049Zm-.271-1.529,4.441-7.894a.31.31,0,0,1,.27-.158h.078a.312.312,0,0,1,.271.159l4.44,7.893a.312.312,0,0,1-.271.465H20.193a.312.312,0,0,1-.311-.311.319.319,0,0,1,.04-.153Z"/><circle cx="0.532" cy="0.532" r="0.532" transform="translate(8.172 7.452)"/><circle cx="0.532" cy="0.532" r="0.532" transform="translate(12.43 7.452)"/><path d="M11.6,10.7l-.6-.3a5.081,5.081,0,0,0,.366-1.884H10.3a4,4,0,0,1-.42,1.779l-.294.588,1.541.77Z"/><path d="M10.834,13.839a2.242,2.242,0,0,0,2.017-1.247l.056-.112L11.954,12l-.056.112a1.19,1.19,0,0,1-2.129,0L9.713,12l-.952.476.056.112A2.241,2.241,0,0,0,10.834,13.839Z"/><path d="M3.914,25.548a1.6,1.6,0,1,0-1.6-1.6A1.6,1.6,0,0,0,3.914,25.548Zm0-2.129a.532.532,0,1,1-.532.532A.533.533,0,0,1,3.914,23.419Z"/><path d="M14.559,4.79V3.726h-.532a7.5,7.5,0,0,1-4.471-1.49l-.638.852a8.568,8.568,0,0,0,5.11,1.7Z"/></g></g></svg>