<svg xmlns="http://www.w3.org/2000/svg" xmlns:xlink="http://www.w3.org/1999/xlink" width="60" height="60" viewBox="0 0 60 60"><defs><clipPath id="a"><rect width="60" height="60" transform="translate(926 3930)" fill="#764cf0"/></clipPath></defs><g transform="translate(8928 7156)"><g transform="translate(-9854 -11086)" clip-path="url(#a)"><g transform="translate(926 3938.057)"><path d="M30,.879A28.647,28.647,0,0,0,6.14,13.646a4.463,4.463,0,0,0,1.984,6.566l6.015,2.569a6.166,6.166,0,0,0,6.939-1.521,12.18,12.18,0,0,1,17.844,0,6.165,6.165,0,0,0,6.938,1.521l6.016-2.569a4.463,4.463,0,0,0,1.984-6.566A28.647,28.647,0,0,0,30,.879Zm0,0" fill="#ffbe73"/><path d="M49.1,8.169a28.812,28.812,0,0,1,4.758,5.477,4.463,4.463,0,0,1-1.984,6.566l-6.015,2.569a6.166,6.166,0,0,1-6.939-1.521A12.224,12.224,0,0,0,37.4,19.874Zm0,0" fill="#f9ee80"/><path d="M6.14,13.646a4.463,4.463,0,0,0,1.984,6.566l6.015,2.569a6.165,6.165,0,0,0,6.938-1.521A12.148,12.148,0,0,1,30,17.372V.879A28.647,28.647,0,0,0,6.14,13.646Zm0,0" fill="#ff8f71"/><path d="M10.9,8.169A28.812,28.812,0,0,0,6.14,13.646a4.463,4.463,0,0,0,1.984,6.566l6.015,2.569a6.166,6.166,0,0,0,6.939-1.521A12.224,12.224,0,0,1,22.6,19.874Zm0,0" fill="#fd5c6f"/><path d="M28.54,8.262c-2.718,8.04-1.235,17.793-1.235,17.793H32.7S34.179,16.3,31.46,8.262a1.5,1.5,0,0,0-2.921,0Zm0,0" fill="#6a829a"/><path d="M35.147,27A5.147,5.147,0,1,1,30,21.852,5.147,5.147,0,0,1,35.147,27Zm0,0" fill="#a7b6c5"/><path d="M19.16,33.867a9.14,9.14,0,1,1-9.14-9.141A9.14,9.14,0,0,1,19.16,33.867Zm0,0" fill="#b18cd9"/><path d="M6.434,33.867a9.147,9.147,0,0,1,6.365-8.71,9.141,9.141,0,1,0,0,17.421,9.148,9.148,0,0,1-6.365-8.71Zm0,0" fill="#996acc"/><path d="M59.121,33.867a9.14,9.14,0,1,1-9.141-9.141A9.14,9.14,0,0,1,59.121,33.867Zm0,0" fill="#76e7e7"/><path d="M46.4,33.867a9.147,9.147,0,0,1,6.365-8.71,9.14,9.14,0,1,0,0,17.42,9.147,9.147,0,0,1-6.365-8.71Zm0,0" fill="#2eddda"/><path d="M18.346,15.632a1.8,1.8,0,0,0,0,2.545l2.9,2.9a12.235,12.235,0,0,1,2.885-2.205l-3.243-3.243a1.8,1.8,0,0,0-2.545,0Zm0,0" fill="#516980"/><path d="M41.654,15.632a1.8,1.8,0,0,0-2.545,0l-3.243,3.243a12.211,12.211,0,0,1,2.885,2.205l2.9-2.9a1.8,1.8,0,0,0,0-2.545Zm0,0" fill="#516980"/><path d="M14.7,32.975v1.459a.879.879,0,0,0,1.758,0V32.975a.879.879,0,1,0-1.758,0Zm0,0"/><path d="M4.464,32.1a.879.879,0,0,0-.879.879v1.459a.879.879,0,1,0,1.758,0V32.975A.879.879,0,0,0,4.464,32.1Zm0,0"/><path d="M10.02,33.16a2.468,2.468,0,0,0-2.07,1.116.879.879,0,1,0,1.469.965.71.71,0,0,1,.6-.324.725.725,0,0,1,.6.324.9.9,0,0,0,1.217.252.879.879,0,0,0,.252-1.217,2.469,2.469,0,0,0-2.07-1.116Zm0,0"/><path d="M55.536,32.1a.879.879,0,0,0-.879.879v1.459a.879.879,0,0,0,1.758,0V32.975A.879.879,0,0,0,55.536,32.1Zm0,0"/><path d="M43.546,32.975v1.459a.879.879,0,1,0,1.758,0V32.975a.879.879,0,1,0-1.758,0Zm0,0"/><path d="M50.581,33.556a.725.725,0,0,1-.6.324.711.711,0,0,1-.6-.324.879.879,0,1,0-1.469.965,2.476,2.476,0,0,0,4.139,0A.879.879,0,0,0,51.8,33.3a.9.9,0,0,0-1.217.252Zm0,0"/><path d="M46.206,23.589l6.015-2.569a5.353,5.353,0,0,0,3.037-3.408,5.282,5.282,0,0,0-.667-4.454A29.574,29.574,0,0,0,16.8,3.1a.879.879,0,1,0,.786,1.572,27.459,27.459,0,0,1,11.531-2.9V6.406a2.562,2.562,0,0,0-1.414,1.575,34.54,34.54,0,0,0-1.619,9.11,12.976,12.976,0,0,0-1.786.71l-2.79-2.79a2.681,2.681,0,0,0-3.049-.52L12.187,8.216a28.043,28.043,0,0,1,2.3-1.732.879.879,0,1,0-.982-1.458,29.544,29.544,0,0,0-8.1,8.132,5.283,5.283,0,0,0-.668,4.454A5.354,5.354,0,0,0,7.779,21.02l6.015,2.569a6.885,6.885,0,0,0,2.709.552,7.141,7.141,0,0,0,5.219-2.283,11.292,11.292,0,0,1,4.3-2.888c-.017,1.236.012,2.4.067,3.448a6.026,6.026,0,1,0,7.816,0c.054-1.048.084-2.212.067-3.449a11.292,11.292,0,0,1,4.3,2.889A7.14,7.14,0,0,0,43.5,24.142a6.893,6.893,0,0,0,2.708-.553ZM14.484,21.973,8.469,19.4a3.6,3.6,0,0,1-2.043-2.292,3.529,3.529,0,0,1,.444-2.976,27.837,27.837,0,0,1,4-4.749l6.344,6.343a2.68,2.68,0,0,0,.51,3.069L20,21.076a5.3,5.3,0,0,1-5.518.9Zm6.777-2.123-2.294-2.294a.921.921,0,0,1,1.3-1.3l2.454,2.455a13.052,13.052,0,0,0-1.462,1.142Zm31.868-5.715a3.528,3.528,0,0,1,.444,2.976A3.6,3.6,0,0,1,51.531,19.4l-6.015,2.569a5.293,5.293,0,0,1-5.518-.9L42.276,18.8a2.681,2.681,0,0,0,.51-3.069l6.343-6.344a27.948,27.948,0,0,1,4,4.749ZM34.268,27A4.268,4.268,0,1,1,30,22.731,4.273,4.273,0,0,1,34.268,27ZM30,20.973a5.99,5.99,0,0,0-2.191.414A38.172,38.172,0,0,1,29.372,8.544a.632.632,0,0,1,1.255,0,37.446,37.446,0,0,1,1.565,12.845A5.989,5.989,0,0,0,30,20.973ZM32.293,7.981a2.562,2.562,0,0,0-1.414-1.575V1.772A27.741,27.741,0,0,1,47.814,8.214l-6.277,6.277a2.681,2.681,0,0,0-3.049.519L35.7,17.8a12.954,12.954,0,0,0-1.787-.709,34.54,34.54,0,0,0-1.619-9.11Zm4.984,10.727,2.454-2.454a.921.921,0,0,1,1.3,1.3L38.739,19.85a13.055,13.055,0,0,0-1.462-1.142Zm0,0"/><path d="M10.02,23.848a10.019,10.019,0,1,0,10.019,10.02A10.031,10.031,0,0,0,10.02,23.848Zm0,18.281a8.261,8.261,0,1,1,8.261-8.261,8.271,8.271,0,0,1-8.261,8.261Zm0,0"/><path d="M49.98,23.848a10.019,10.019,0,1,0,5.433,18.44.879.879,0,1,0-.954-1.476,8.262,8.262,0,1,1,2.4-2.362.879.879,0,1,0,1.462.976A10.02,10.02,0,0,0,49.98,23.848Zm0,0"/></g></g></g></svg>