<svg xmlns="http://www.w3.org/2000/svg" xmlns:xlink="http://www.w3.org/1999/xlink" width="60" height="60" viewBox="0 0 60 60"><defs><clipPath id="a"><rect width="60" height="60" transform="translate(306 3930)" fill="#764cf0"/></clipPath></defs><g transform="translate(-306 -3930)" clip-path="url(#a)"><g transform="translate(305.322 3929.321)"><path d="M55.878,8.721V26.588H45.818a2.4,2.4,0,0,0-2.4,2.4V40.216h-17.7V24.529a2.4,2.4,0,0,0-2.4-2.4H5.479V8.721a2.4,2.4,0,0,1,2.4-2.4H53.481a2.4,2.4,0,0,1,2.4,2.4Z" fill="#aeaeae"/><path d="M5.479,20.455H8.755v1.678H5.479Z" fill="#868686"/><path d="M52.6,24.911h3.276v1.678H52.6Z" fill="#868686"/><path d="M52.6,10.079V26.588H45.818a2.4,2.4,0,0,0-2.4,2.4v7.957h-17.7V24.529a2.4,2.4,0,0,0-2.4-2.4H8.755V10.079A.481.481,0,0,1,9.235,9.6H52.122a.481.481,0,0,1,.479.479Z" fill="#efefef"/><path d="M52.6,24.911v1.678H45.818a2.4,2.4,0,0,0-2.4,2.4v7.957H41.744V28.985a4.08,4.08,0,0,1,4.074-4.074Z" fill="#aeaeae"/><path d="M25.724,40.215h17.7v6.637h-17.7Z" fill="#aeaeae"/><path d="M41.744,36.942v1.594H27.4V36.942H25.724v9.909H27.4V40.216H41.744v6.637h1.678V36.942Z" fill="#868686"/><path d="M60.079,28.985V52.636a2.4,2.4,0,0,1-2.4,2.4H45.818a2.4,2.4,0,0,1-2.4-2.4V28.985a2.4,2.4,0,0,1,2.4-2.4H57.682a2.4,2.4,0,0,1,2.4,2.4Z" fill="#72c2e9"/><path d="M43.421,30.984H60.078V50.637H43.421Z" fill="#efefef"/><path d="M52.729,46.9l-.979-.515-.979.515a2.976,2.976,0,0,1-4.357-2.716l.036-1.3L45.725,42a2.975,2.975,0,0,1,1.551-4.77l1.2-.31.789-1.2a2.975,2.975,0,0,1,4.972,0l.789,1.2,1.2.31A2.975,2.975,0,0,1,57.774,42l-.724.88.036,1.3A2.977,2.977,0,0,1,52.729,46.9Z" fill="#aeaeae"/><path d="M52.834,36.642l.87,1.324a1.3,1.3,0,0,0,.759.543l1.34.347a1.3,1.3,0,0,1,.676,2.079l-.815.99a1.3,1.3,0,0,0-.3.86l.04,1.443a1.3,1.3,0,0,1-1.9,1.184l-1.156-.608a1.3,1.3,0,0,0-1.207,0l-1.156.608a1.3,1.3,0,0,1-1.9-1.184l.04-1.443a1.3,1.3,0,0,0-.3-.86l-.815-.99a1.3,1.3,0,0,1,.676-2.079l1.34-.347a1.3,1.3,0,0,0,.759-.543l.87-1.324a1.3,1.3,0,0,1,2.168,0Z" fill="#efbf27"/><path d="M37.543,17.4l-2.126-.549a.4.4,0,0,1-.23-.163L33.8,14.581a3.741,3.741,0,0,0-6.251,0l-1.381,2.1a.4.4,0,0,1-.228.163l-2.133.551a3.707,3.707,0,0,0-2.754,3.053H8.755v1.678H23.327a2.4,2.4,0,0,1,2.4,2.4V36.942H27.4v-5.6c.134-.019.264-.043.391-.074A12.307,12.307,0,0,0,30.5,29.97a.376.376,0,0,1,.355,0l1.838.966a3.742,3.742,0,0,0,5.479-3.415l-.065-2.3a.389.389,0,0,1,.086-.254L39.5,23.4a3.742,3.742,0,0,0-1.953-6Z" fill="#aeaeae"/><path d="M38.2,22.334l-1.3,1.572a2.063,2.063,0,0,0-.47,1.369l.065,2.3a2.062,2.062,0,0,1-3.02,1.881l-1.841-.966a2.055,2.055,0,0,0-1.917,0l-1.841.966a2.108,2.108,0,0,1-.477.18,2.041,2.041,0,0,1-1.678-.326V24.529a2.4,2.4,0,0,0-2.4-2.4h-.314a2.062,2.062,0,0,1,1.22-3.106l2.131-.551a2.07,2.07,0,0,0,1.208-.865L28.955,15.5a2.062,2.062,0,0,1,3.447,0l1.383,2.107a2.07,2.07,0,0,0,1.208.865l2.131.551A2.064,2.064,0,0,1,38.2,22.334Z" fill="#efbf27"/><path d="M27.4,24.529v5.1a2.041,2.041,0,0,1-1.678-.326V24.529a2.4,2.4,0,0,0-2.4-2.4h-.314a2.048,2.048,0,0,1-.244-1.678h.558A4.08,4.08,0,0,1,27.4,24.529Z" fill="#e8a61e"/><path d="M25.724,24.529V52.636a2.4,2.4,0,0,1-2.4,2.4H3.674a2.4,2.4,0,0,1-2.4-2.4V24.529a2.4,2.4,0,0,1,2.4-2.4H23.327a2.4,2.4,0,0,1,2.4,2.4Z" fill="#fc5d3d"/><path d="M4.154,50.958V26.207a1.2,1.2,0,0,1,1.2-1.2h16.3a1.2,1.2,0,0,1,1.2,1.2V50.958a1.2,1.2,0,0,1-1.2,1.2H5.352a1.2,1.2,0,0,1-1.2-1.2Z" fill="#efefef"/><path d="M14.48,44.67l-.979-.515-.979.515a2.976,2.976,0,0,1-4.358-2.716l.036-1.3-.724-.88A2.975,2.975,0,0,1,9.027,35l1.2-.31.789-1.2a2.975,2.975,0,0,1,4.972,0l.789,1.2,1.2.31a2.975,2.975,0,0,1,1.551,4.77l-.724.88.036,1.3A2.976,2.976,0,0,1,14.48,44.67Z" fill="#aeaeae"/><path d="M14.585,34.414l.87,1.324a1.3,1.3,0,0,0,.759.543l1.34.347a1.3,1.3,0,0,1,.676,2.079l-.815.99a1.3,1.3,0,0,0-.3.86L17.16,42a1.3,1.3,0,0,1-1.9,1.184L14.1,42.578a1.3,1.3,0,0,0-1.207,0l-1.156.608A1.3,1.3,0,0,1,9.841,42l.04-1.443a1.3,1.3,0,0,0-.3-.86l-.815-.99a1.3,1.3,0,0,1,.676-2.079l1.34-.347a1.3,1.3,0,0,0,.759-.543l.87-1.324a1.3,1.3,0,0,1,2.168,0Z" fill="#efbf27"/><path d="M50.2,24.072a.6.6,0,0,1-.6-.6V12.6H14.268a.6.6,0,1,1,0-1.2H50.2a.6.6,0,0,1,.6.6V23.472A.6.6,0,0,1,50.2,24.072ZM11.871,12.6h-.719a.6.6,0,1,1,0-1.2h.719a.6.6,0,1,1,0,1.2Z" fill="#fff"/><path d="M39.426,35.145h-.719a.6.6,0,0,1,0-1.2h.719a.6.6,0,0,1,0,1.2Zm-3.116,0H29.24a.6.6,0,1,1,0-1.2h7.07a.6.6,0,0,1,0,1.2Z" fill="#fff"/><path d="M20.451,50.359H9.666a.6.6,0,1,1,0-1.2H20.451a.6.6,0,1,1,0,1.2Zm-13.182,0H6.55a.6.6,0,1,1,0-1.2h.719a.6.6,0,1,1,0,1.2Z" fill="#fff"/><path d="M20.451,28.007h-.719a.6.6,0,1,1,0-1.2h.719a.6.6,0,0,1,0,1.2Zm-3.116,0H6.55a.6.6,0,1,1,0-1.2H17.336a.6.6,0,0,1,0,1.2Z" fill="#fff"/><path d="M52.8,28.2H50.7a.6.6,0,1,0,0,1.2h2.1a.6.6,0,1,0,0-1.2Z"/><path d="M52.8,52.225H50.7a.6.6,0,0,0,0,1.2h2.1a.6.6,0,1,0,0-1.2Z"/><path d="M46.557,41.317l.817.99a.7.7,0,0,1,.158.441L47.491,44.2a1.9,1.9,0,0,0,2.778,1.747l1.155-.606a.7.7,0,0,1,.65,0l1.158.606a1.9,1.9,0,0,0,2.778-1.675l-.041-1.5a.677.677,0,0,1,.158-.463l.815-.99a1.9,1.9,0,0,0-.99-3.041l-1.34-.345a.7.7,0,0,1-.407-.295l-.87-1.321v0a1.9,1.9,0,0,0-3.171,0l-.87,1.323a.7.7,0,0,1-.407.295l-1.34.345A1.9,1.9,0,0,0,46.557,41.317Zm1.289-1.881,1.342-.345a1.9,1.9,0,0,0,1.107-.8l.87-1.325a.7.7,0,0,1,1.167,0h0L53.2,38.3a1.905,1.905,0,0,0,1.107.8l1.342.345a.7.7,0,0,1,.362,1.119l-.813.99a1.889,1.889,0,0,0-.431,1.277l.041,1.424v.022a.7.7,0,0,1-1.023.616l-1.155-.609a1.9,1.9,0,0,0-1.766,0l-1.155.609a.7.7,0,0,1-1.024-.616l.041-1.464a1.891,1.891,0,0,0-.429-1.258l-.815-.99a.7.7,0,0,1,.362-1.119Z"/><path d="M46.76,10.2a.6.6,0,1,0-.6-.6A.6.6,0,0,0,46.76,10.2Z"/><path d="M3.674,55.633H23.327a3,3,0,0,0,3-3V47.451h16.5v5.185a3,3,0,0,0,3,3H57.682a3,3,0,0,0,3-3V28.985a3,3,0,0,0-3-3H56.477V8.721a3,3,0,0,0-3-3H7.876a3,3,0,0,0-3,3V21.532H3.674a3,3,0,0,0-3,3v28.1A3,3,0,0,0,3.674,55.633ZM35.9,27.589a1.463,1.463,0,0,1-2.143,1.333l-1.841-.966a2.655,2.655,0,0,0-2.476,0l-1.838.966a1.442,1.442,0,0,1-1.277.041V24.531h0a3,3,0,0,0-2.943-2.994,1.463,1.463,0,0,1,1-1.929l2.131-.551a2.669,2.669,0,0,0,1.558-1.114l1.383-2.107a1.463,1.463,0,0,1,2.445,0l1.383,2.107a2.668,2.668,0,0,0,1.558,1.114l2.131.554a1.462,1.462,0,0,1,.765,2.344l-1.3,1.572a2.694,2.694,0,0,0-.606,1.786ZM59.48,50.038H44.021V31.583H59.48ZM26.323,40.815H36.84v1.52a.6.6,0,0,1-.6.6H26.323Zm16.5-1.2h-16.5V37.541h16.5Zm-16.5,6.637v-2.12h9.918a1.8,1.8,0,0,0,1.8-1.8v-1.52h4.784v5.437Zm31.359,8.181H45.818a1.8,1.8,0,0,1-1.8-1.8v-1.4H59.48v1.4A1.8,1.8,0,0,1,57.682,54.434Zm1.8-25.449v1.4H44.021v-1.4a1.8,1.8,0,0,1,1.8-1.8H57.682a1.8,1.8,0,0,1,1.8,1.8ZM6.078,8.721a1.8,1.8,0,0,1,1.8-1.8H53.481a1.8,1.8,0,0,1,1.8,1.8V25.989H53.2V10.081A1.079,1.079,0,0,0,52.122,9H49.157a.6.6,0,1,0,0,1.2,0,0,0,0,0,0,0H52V25.989H45.818a3,3,0,0,0-3,3v1.992s0,0,0,.007,0,0,0,.007v5.352h-16.5V30.222a2.663,2.663,0,0,0,1.831-.236L30,29.017a1.479,1.479,0,0,1,1.359,0l1.843.966a2.662,2.662,0,0,0,3.9-2.426l-.065-2.3a1.459,1.459,0,0,1,.333-.971l1.3-1.57v0a2.665,2.665,0,0,0-1.388-4.269l-2.131-.551a1.454,1.454,0,0,1-.858-.614L32.9,15.174a2.663,2.663,0,0,0-4.449,0L27.071,17.28a1.483,1.483,0,0,1-.858.616l-2.131.549a2.66,2.66,0,0,0-1.889,1.845,2.605,2.605,0,0,0-.055,1.242H9.354V10.2H44.364a.6.6,0,1,0,0-1.2H9.235a1.079,1.079,0,0,0-1.079,1.079V21.532H6.078Zm-4.2,15.81a1.806,1.806,0,0,1,1.8-1.8l19.653,0a1.8,1.8,0,0,1,1.8,1.8v28.1a1.807,1.807,0,0,1-1.8,1.8H3.674a1.806,1.806,0,0,1-1.8-1.8Z"/><circle cx="0.599" cy="0.599" r="0.599" transform="translate(15.804 51.556)"/><path d="M5.352,52.755h8.654a.6.6,0,1,0,0-1.2H5.352a.6.6,0,0,1-.6-.6V26.208a.6.6,0,0,1,.6-.6h16.3a.6.6,0,0,1,.6.6V50.959a.6.6,0,0,1-.6.6H18.8a.6.6,0,1,0,0,1.2h2.85a1.8,1.8,0,0,0,1.8-1.8V26.208a1.8,1.8,0,0,0-1.8-1.8H5.352a1.8,1.8,0,0,0-1.8,1.8V50.959a1.8,1.8,0,0,0,1.8,1.8Z"/><path d="M18.692,39.088a1.9,1.9,0,0,0-.987-3.039L16.362,35.7a.691.691,0,0,1-.407-.292l-.87-1.325a1.9,1.9,0,0,0-3.168,0l-.87,1.325a.691.691,0,0,1-.407.292L9.3,36.049a1.894,1.894,0,0,0-.987,3.039l.815.99a.7.7,0,0,1,.158.467l-.038,1.424a1.9,1.9,0,0,0,2.775,1.747l1.158-.609a.7.7,0,0,1,.647,0l1.158.609a1.9,1.9,0,0,0,2.778-1.678l-.041-1.5a.68.68,0,0,1,.158-.463Zm-1.74.23a1.91,1.91,0,0,0-.431,1.275l.041,1.424a.7.7,0,0,1-1.021.638l-1.158-.609a1.933,1.933,0,0,0-1.764,0l-1.158.606a.7.7,0,0,1-1.021-.626v0c0-.082.041-1.423.041-1.505a1.9,1.9,0,0,0-.431-1.2l-.815-.99A.7.7,0,0,1,9.6,37.209l1.34-.348a1.889,1.889,0,0,0,1.11-.8l.87-1.323a.7.7,0,0,1,1.165,0v0l.87,1.325a1.889,1.889,0,0,0,1.11.793l1.34.348a.7.7,0,0,1,.365,1.119Z"/></g></g></svg>