<svg xmlns="http://www.w3.org/2000/svg" xmlns:xlink="http://www.w3.org/1999/xlink" width="101" height="101" viewBox="0 0 101 101">
  <defs>
    <clipPath id="clip-path">
      <rect id="Rectángulo_34661" data-name="Rectángulo 34661" width="101" height="101" transform="translate(224 433)" fill="#ffd41c" stroke="#707070" stroke-width="1"/>
    </clipPath>
  </defs>
  <g id="Enmascarar_grupo_220" data-name="Enmascarar grupo 220" transform="translate(-224 -433)" clip-path="url(#clip-path)">
    <g id="portafolio" transform="translate(231.138 433)">
      <path id="Trazado_120566" data-name="Trazado 120566" d="M65.633,99.52H11.394A9.914,9.914,0,0,1,1.48,89.606V11.394A9.914,9.914,0,0,1,11.394,1.48h54.24a9.914,9.914,0,0,1,9.914,9.914V89.606a9.914,9.914,0,0,1-9.914,9.915Zm0,0" fill="#dd9f80"/>
      <path id="Trazado_120567" data-name="Trazado 120567" d="M31.546,89.606V11.394A9.915,9.915,0,0,1,41.461,1.48H11.394a9.914,9.914,0,0,0-9.914,9.914V89.605a9.914,9.914,0,0,0,9.914,9.915H41.461a9.915,9.915,0,0,1-9.915-9.914Zm0,0" fill="#c68d6d"/>
      <path id="Trazado_120568" data-name="Trazado 120568" d="M8.66,21.926V81.4A10.021,10.021,0,0,0,18.682,91.418H68.366V21.926a8.991,8.991,0,0,0-8.991-8.991H17.651A8.991,8.991,0,0,0,8.66,21.926Zm0,0" fill="#abebf4"/>
      <path id="Trazado_120569" data-name="Trazado 120569" d="M31.575,71.825a6.591,6.591,0,0,1-6.591-6.568c-.025-6.988-.059-18.18-.059-26.639a13.644,13.644,0,0,1,9.742-13.057,43.019,43.019,0,0,0,11.14-5.155l-.054-7.471h-28.1A8.991,8.991,0,0,0,8.66,21.926V81.4A10.021,10.021,0,0,0,18.682,91.418H68.366V71.825Zm0,0" fill="#8ed7e8"/>
      <path id="Trazado_120570" data-name="Trazado 120570" d="M56.4,55.362H20.622a2.959,2.959,0,1,1,0-5.918H56.4a2.959,2.959,0,1,1,0,5.918Zm0,0" fill="#acabb1"/>
      <path id="Trazado_120571" data-name="Trazado 120571" d="M56.4,68.226H20.622a2.959,2.959,0,1,1,0-5.918H56.4a2.959,2.959,0,1,1,0,5.918Zm0,0" fill="#acabb1"/>
      <g id="Grupo_93662" data-name="Grupo 93662">
        <path id="Trazado_120572" data-name="Trazado 120572" d="M17.663,52.4a2.96,2.96,0,0,0,2.959,2.959h4.331c-.005-1.931-.01-3.924-.015-5.918H20.622A2.959,2.959,0,0,0,17.663,52.4Zm0,0" fill="#898890"/>
        <path id="Trazado_120573" data-name="Trazado 120573" d="M17.663,65.267a2.959,2.959,0,0,0,2.959,2.959H25.7a6.561,6.561,0,0,1-.719-2.969c0-.915-.007-1.9-.01-2.949H20.622a2.959,2.959,0,0,0-2.959,2.959Zm0,0" fill="#898890"/>
        <path id="Trazado_120574" data-name="Trazado 120574" d="M56.4,81.091H20.622a2.959,2.959,0,1,1,0-5.918H56.4a2.959,2.959,0,1,1,0,5.918Zm0,0" fill="#898890"/>
      </g>
      <path id="Trazado_120575" data-name="Trazado 120575" d="M45.808,20.406H31.219a4.658,4.658,0,0,1-4.658-4.657v-3.44a4.658,4.658,0,0,1,4.658-4.657H45.808a4.657,4.657,0,0,1,4.657,4.657v3.44A4.657,4.657,0,0,1,45.808,20.406Zm0,0" fill="#eaeaea"/>
      <path id="Trazado_120576" data-name="Trazado 120576" d="M40.385,28.262l.744,1.508a2.724,2.724,0,0,0,2.052,1.491l1.664.242A2.087,2.087,0,0,1,46,35.062l-1.2,1.174a2.726,2.726,0,0,0-.784,2.413l.284,1.657a2.087,2.087,0,0,1-3.028,2.2l-1.489-.783a2.726,2.726,0,0,0-2.537,0l-1.488.783a2.087,2.087,0,0,1-3.028-2.2l.284-1.657a2.724,2.724,0,0,0-.784-2.413l-1.2-1.174A2.087,2.087,0,0,1,32.181,31.5l1.664-.242A2.724,2.724,0,0,0,35.9,29.77l.744-1.508a2.087,2.087,0,0,1,3.743,0Zm0,0" fill="#ffeb99"/>
      <path id="Trazado_120577" data-name="Trazado 120577" d="M28.7,68.226V81.4A10.022,10.022,0,0,1,18.682,91.418H73.634a11.611,11.611,0,0,0,11.61-11.611V68.226a7.435,7.435,0,0,0-7.435-7.436H36.139A7.436,7.436,0,0,0,28.7,68.226Zm0,0" fill="#ccf8ff"/>
      <path id="Trazado_120578" data-name="Trazado 120578" d="M28.7,75.174V81.4A10.021,10.021,0,0,1,18.682,91.418H73.634a11.611,11.611,0,0,0,11.61-11.611V75.174Zm0,0" fill="#abebf4"/>
      <path id="Trazado_120579" data-name="Trazado 120579" d="M31.2,37.3a1.247,1.247,0,0,1,.358,1.1l-.284,1.657a3.566,3.566,0,0,0,5.174,3.76l1.489-.783a1.245,1.245,0,0,1,1.16,0l1.489.783a3.566,3.566,0,0,0,5.174-3.76L45.472,38.4a1.247,1.247,0,0,1,.358-1.1l1.2-1.174a3.566,3.566,0,0,0-1.977-6.083L43.394,29.8a1.245,1.245,0,0,1-.939-.682l-.744-1.508a3.566,3.566,0,0,0-6.4,0l-.744,1.508a1.247,1.247,0,0,1-.939.682l-1.664.242a3.566,3.566,0,0,0-1.977,6.083ZM31.9,33.38a.582.582,0,0,1,.49-.413l1.664-.242a4.2,4.2,0,0,0,3.167-2.3l.744-1.508a.607.607,0,0,1,1.089,0l.744,1.508a4.2,4.2,0,0,0,3.166,2.3l1.665.242A.607.607,0,0,1,44.97,34l-1.2,1.174A4.205,4.205,0,0,0,42.556,38.9l.284,1.657a.608.608,0,0,1-.882.64l-1.489-.783a4.2,4.2,0,0,0-3.914,0l-1.488.783a.608.608,0,0,1-.882-.64l.284-1.657a4.2,4.2,0,0,0-1.21-3.723L32.058,34a.582.582,0,0,1-.154-.623Zm0,0"/>
      <path id="Trazado_120580" data-name="Trazado 120580" d="M60.843,52.4A4.444,4.444,0,0,0,56.4,47.964H20.622a4.438,4.438,0,0,0,0,8.877H56.4A4.444,4.444,0,0,0,60.843,52.4ZM56.4,53.882H20.622a1.479,1.479,0,1,1,0-2.959H56.4a1.479,1.479,0,1,1,0,2.959Zm0,0"/>
      <path id="Trazado_120581" data-name="Trazado 120581" d="M77.027,59.311V11.394A11.407,11.407,0,0,0,65.633,0H11.394A11.407,11.407,0,0,0,0,11.394V89.606A11.407,11.407,0,0,0,11.394,101h54.24a11.389,11.389,0,0,0,11.009-8.455A13.112,13.112,0,0,0,86.724,79.807V68.226c0-9.351-9.7-8.915-9.7-8.915Zm6.738,20.5A10.143,10.143,0,0,1,73.634,89.938H26.375A11.476,11.476,0,0,0,30.183,81.4V68.226a5.963,5.963,0,0,1,5.956-5.956H54.011a1.479,1.479,0,1,0,0-2.959H36.138a8.86,8.86,0,0,0-4.969,1.518H20.622a4.438,4.438,0,1,0,0,8.877h6.6v3.988h-6.6a4.438,4.438,0,1,0,0,8.877h6.519a8.541,8.541,0,0,1-17-1.174V21.926a7.52,7.52,0,0,1,7.511-7.511h2.519a1.479,1.479,0,1,0,0-2.959H17.652a10.483,10.483,0,0,0-10.47,10.47V81.4a11.514,11.514,0,0,0,11.5,11.5H73.4a8.434,8.434,0,0,1-7.77,5.144H11.394a8.445,8.445,0,0,1-8.435-8.435V11.394a8.444,8.444,0,0,1,8.435-8.435h54.24a8.445,8.445,0,0,1,8.435,8.435V59.31H69.846V21.925a10.482,10.482,0,0,0-10.47-10.47H51.885a6.146,6.146,0,0,0-6.077-5.284H31.219a6.144,6.144,0,0,0-6.138,6.138v3.44a6.144,6.144,0,0,0,6.138,6.137H45.808c6.967,0,6.137-7.471,6.137-7.471h7.431a7.52,7.52,0,0,1,7.511,7.511V59.31H60.359a1.479,1.479,0,1,0,0,2.959h17.45a5.963,5.963,0,0,1,5.956,5.956ZM27.348,66.747H20.622a1.479,1.479,0,1,1,0-2.959h7.79a8.858,8.858,0,0,0-1.063,2.959Zm-.125,12.865h-6.6a1.479,1.479,0,1,1,0-2.959h6.6Zm21.763-67.3v3.44a3.182,3.182,0,0,1-3.179,3.178H31.219a3.182,3.182,0,0,1-3.179-3.178v-3.44A3.183,3.183,0,0,1,31.219,9.13H45.808A3.183,3.183,0,0,1,48.987,12.309Zm0,0"/>
    </g>
  </g>
</svg>
