<svg xmlns="http://www.w3.org/2000/svg" xmlns:xlink="http://www.w3.org/1999/xlink" width="133" height="133" viewBox="0 0 133 133"><defs><clipPath id="a"><rect width="85" height="85" transform="translate(293 951)" fill="#fff" stroke="#707070" stroke-width="1"/></clipPath></defs><g transform="translate(-269 -927)"><g transform="translate(269 927)" fill="#fff8d9" stroke="#21155c" stroke-width="3"><circle cx="66.5" cy="66.5" r="66.5" stroke="none"/><circle cx="66.5" cy="66.5" r="65" fill="none"/></g><rect width="18.053" height="18.053" rx="2" transform="matrix(0.945, 0.327, -0.327, 0.945, 380.325, 1032.589)" fill="#21155c"/><g clip-path="url(#a)"><g transform="translate(291.534 949.535)"><path d="M73.276,61.551V32.241H23.448V55.689L51.293,77.672Z" fill="#ba8a5a"/><path d="M73.276,27.845l4.068,7.621a2.96,2.96,0,0,1-1.729,4.174l-18,5.667a2.919,2.919,0,0,1-3.327-1.2L48.362,35.18l-5.927,8.932a2.919,2.919,0,0,1-3.327,1.2L21.1,39.641a2.96,2.96,0,0,1-1.729-4.174l4.074-7.622Z" fill="#d39f71"/><path d="M52.758,21.987l20.517,5.864L48.362,35.18,23.448,27.851l20.517-5.864Z" fill="#a5754a"/><path d="M62.636,9.5,58.357,2.2a1.954,1.954,0,0,0-1.509-.733H39.877a1.954,1.954,0,0,0-1.509.733L34.088,9.5a1.7,1.7,0,0,0-.337.762,1.725,1.725,0,0,0,.278,1.348L46.794,28.49a1.905,1.905,0,0,0,3.136,0L62.695,11.607a1.725,1.725,0,0,0,.278-1.348,1.7,1.7,0,0,0-.337-.762Z" fill="#60dcdd"/><path d="M62.695,11.607,49.93,28.49a1.847,1.847,0,0,1-1.568.821V10.259H62.973a1.725,1.725,0,0,1-.278,1.348Z" fill="#53c5c6"/><path d="M62.973,10.259H48.362l7.328-8.793h1.158a1.954,1.954,0,0,1,1.509.733l4.279,7.3a1.7,1.7,0,0,1,.337.762Z" fill="#78edfd"/><path d="M48.362,10.259H33.751a1.7,1.7,0,0,1,.337-.762l4.279-7.3a1.954,1.954,0,0,1,1.509-.733h1.158Z" fill="#78edfd"/><path d="M49.827,37.4V58.62H46.9V37.4l1.466-2.213Z" fill="#a5754a"/><path d="M17.479,76.693l29.442,9.489a5.85,5.85,0,0,0,5.337-.91l32.9-25a3.384,3.384,0,0,0,.429-4.949V55.32a3.362,3.362,0,0,0-4.326-.558L52.568,72.934a2.166,2.166,0,0,1-2.466-.106l-9.067-6.881H62.451a3.943,3.943,0,0,0,.6-7.841L29.838,52.835a7.328,7.328,0,0,0-4.514.756L18.09,57.539a8.783,8.783,0,0,1-4.213,1.082H4.4a2.931,2.931,0,0,0-2.931,2.931V73.3a2.931,2.931,0,0,0,2.9,2.931c3.158.019,8.073.047,10.418.045a8.793,8.793,0,0,1,2.692.419Z" fill="#eabea3"/><path d="M66.256,63.017a4.037,4.037,0,0,1-1.6,2.257,3.929,3.929,0,0,1-2.213.674H33.707a1.466,1.466,0,0,1,0-2.931Z" fill="#daab94"/></g></g></g></svg>