<svg xmlns="http://www.w3.org/2000/svg" xmlns:xlink="http://www.w3.org/1999/xlink" width="295" height="284" viewBox="0 0 295 284">
  <defs>
    <clipPath id="clip-path">
      <rect id="Rect치ngulo_34646" data-name="Rect치ngulo 34646" width="125" height="125" transform="translate(895 9299)" fill="#fff" stroke="#707070" stroke-width="1"/>
    </clipPath>
  </defs>
  <g id="Grupo_93658" data-name="Grupo 93658" transform="translate(-810 -9231)">
    <rect id="Rect치ngulo_34638" data-name="Rect치ngulo 34638" width="295" height="284" transform="translate(810 9231)" fill="#26d19e"/>
    <path id="Trazado_122984" data-name="Trazado 122984" d="M-77.9-4.342V0h-3.085V-12.8h5.106a5.948,5.948,0,0,1,2.6.541,4.074,4.074,0,0,1,1.749,1.538,4.2,4.2,0,0,1,.62,2.263,3.7,3.7,0,0,1-1.34,2.993,5.561,5.561,0,0,1-3.678,1.121Zm0-2.382h2.021a1.906,1.906,0,0,0,1.367-.448,1.665,1.665,0,0,0,.47-1.266,2.059,2.059,0,0,0-.483-1.433,1.712,1.712,0,0,0-1.318-.545H-77.9Zm14.247-.105-.976-.07a1.752,1.752,0,0,0-1.793.879V0h-2.962V-9.51h2.777l.1,1.222a2.294,2.294,0,0,1,2.083-1.4,2.888,2.888,0,0,1,.826.105Zm.378,1.986a5.613,5.613,0,0,1,.554-2.536,3.96,3.96,0,0,1,1.591-1.709,4.791,4.791,0,0,1,2.435-.6,4.373,4.373,0,0,1,3.366,1.323,5.076,5.076,0,0,1,1.23,3.6v.105a4.925,4.925,0,0,1-1.235,3.529A4.384,4.384,0,0,1-58.68.176a4.434,4.434,0,0,1-3.261-1.217,4.761,4.761,0,0,1-1.327-3.3Zm2.962.185A3.538,3.538,0,0,0-59.9-2.725a1.376,1.376,0,0,0,1.222.615q1.582,0,1.617-2.435v-.3q0-2.558-1.635-2.558-1.485,0-1.608,2.206Zm7.146-.167a5.809,5.809,0,0,1,.976-3.56,3.211,3.211,0,0,1,2.725-1.3,2.731,2.731,0,0,1,2.145,1V-13.5h2.971V0h-2.663l-.149-1.02a2.8,2.8,0,0,1-2.32,1.2,3.205,3.205,0,0,1-2.689-1.3A5.993,5.993,0,0,1-53.169-4.825Zm2.962.185q0,2.531,1.477,2.531a1.458,1.458,0,0,0,1.406-.826V-6.557A1.419,1.419,0,0,0-48.713-7.4q-1.371,0-1.485,2.215Zm13.2,3.612a3.054,3.054,0,0,1-2.54,1.2,3,3,0,0,1-2.369-.91,3.826,3.826,0,0,1-.8-2.615V-9.51h2.962v6.179a1.065,1.065,0,0,0,1.187,1.222,1.548,1.548,0,0,0,1.45-.729V-9.51h2.979V0h-2.777ZM-28.5-2.109a1.317,1.317,0,0,0,.967-.338,1.241,1.241,0,0,0,.334-.945h2.777A3.288,3.288,0,0,1-25.541-.826a4.168,4.168,0,0,1-2.887,1,4.22,4.22,0,0,1-3.27-1.3,5.125,5.125,0,0,1-1.2-3.6v-.123A5.792,5.792,0,0,1-32.361-7.4a3.872,3.872,0,0,1,1.534-1.7,4.573,4.573,0,0,1,2.373-.593A4.116,4.116,0,0,1-25.51-8.657a3.647,3.647,0,0,1,1.09,2.786H-27.2A1.626,1.626,0,0,0-27.558-7a1.244,1.244,0,0,0-.967-.4q-1.151,0-1.345,1.468a10.357,10.357,0,0,0-.062,1.283,4.068,4.068,0,0,0,.343,1.986A1.187,1.187,0,0,0-28.5-2.109Zm8.78-9.765V-9.51h1.564v2.057h-1.564V-3.1a1.111,1.111,0,0,0,.193.747,1.037,1.037,0,0,0,.765.211,4.345,4.345,0,0,0,.738-.053V-.079a5.466,5.466,0,0,1-1.67.255,3.1,3.1,0,0,1-2.259-.721,2.954,2.954,0,0,1-.729-2.188v-4.72h-1.213V-9.51h1.213v-2.364Zm2.092,7.031a5.613,5.613,0,0,1,.554-2.536,3.96,3.96,0,0,1,1.591-1.709,4.791,4.791,0,0,1,2.435-.6A4.373,4.373,0,0,1-9.681-8.363a5.076,5.076,0,0,1,1.23,3.6v.105A4.925,4.925,0,0,1-9.686-1.129,4.384,4.384,0,0,1-13.03.176a4.434,4.434,0,0,1-3.261-1.217,4.761,4.761,0,0,1-1.327-3.3Zm2.962.185a3.538,3.538,0,0,0,.413,1.934,1.376,1.376,0,0,0,1.222.615q1.582,0,1.617-2.435v-.3q0-2.558-1.635-2.558-1.485,0-1.608,2.206Zm12.5,1.986a.684.684,0,0,0-.4-.606,6.016,6.016,0,0,0-1.5-.475A6.853,6.853,0,0,1-5.893-4.4a3.062,3.062,0,0,1-1.1-.971A2.319,2.319,0,0,1-7.37-6.68,2.628,2.628,0,0,1-6.289-8.837a4.453,4.453,0,0,1,2.83-.848,4.934,4.934,0,0,1,3.023.853A2.666,2.666,0,0,1,.708-6.592H-2.263q0-1.143-1.2-1.143a1.194,1.194,0,0,0-.782.259.8.8,0,0,0-.316.646.737.737,0,0,0,.387.642,3.654,3.654,0,0,0,1.235.4,10.671,10.671,0,0,1,1.49.378A2.706,2.706,0,0,1,.69-2.76,2.491,2.491,0,0,1-.466-.642,5.068,5.068,0,0,1-3.458.176a5.172,5.172,0,0,1-2.18-.439,3.645,3.645,0,0,1-1.494-1.2A2.707,2.707,0,0,1-7.668-3.05H-4.9a1.145,1.145,0,0,0,.439.962,1.808,1.808,0,0,0,1.081.3,1.422,1.422,0,0,0,.91-.246A.787.787,0,0,0-2.167-2.672ZM9.98,0H6.9V-12.8H9.98Zm4.729-9.51.1,1.116a3.225,3.225,0,0,1,2.716-1.292A2.713,2.713,0,0,1,19.74-8.8a4.226,4.226,0,0,1,.76,2.672V0H17.53V-6a1.6,1.6,0,0,0-.29-1.059A1.342,1.342,0,0,0,16.185-7.4a1.413,1.413,0,0,0-1.292.686V0H11.931V-9.51Zm11.452,7.4a1.317,1.317,0,0,0,.967-.338,1.241,1.241,0,0,0,.334-.945h2.777A3.288,3.288,0,0,1,29.118-.826a4.168,4.168,0,0,1-2.887,1,4.22,4.22,0,0,1-3.27-1.3,5.125,5.125,0,0,1-1.2-3.6v-.123A5.792,5.792,0,0,1,22.3-7.4a3.872,3.872,0,0,1,1.534-1.7A4.573,4.573,0,0,1,26.2-9.686a4.116,4.116,0,0,1,2.944,1.028,3.647,3.647,0,0,1,1.09,2.786H27.461A1.626,1.626,0,0,0,27.1-7a1.244,1.244,0,0,0-.967-.4q-1.151,0-1.345,1.468a10.357,10.357,0,0,0-.062,1.283,4.068,4.068,0,0,0,.343,1.986A1.187,1.187,0,0,0,26.161-2.109Zm4.957-2.733a5.613,5.613,0,0,1,.554-2.536,3.96,3.96,0,0,1,1.591-1.709,4.791,4.791,0,0,1,2.435-.6,4.373,4.373,0,0,1,3.366,1.323,5.076,5.076,0,0,1,1.23,3.6v.105a4.925,4.925,0,0,1-1.235,3.529A4.384,4.384,0,0,1,35.714.176a4.434,4.434,0,0,1-3.261-1.217,4.761,4.761,0,0,1-1.327-3.3Zm2.962.185a3.538,3.538,0,0,0,.413,1.934,1.376,1.376,0,0,0,1.222.615q1.582,0,1.617-2.435v-.3Q37.332-7.4,35.7-7.4q-1.485,0-1.608,2.206ZM36.1-13.5H39.23l-2.443,2.76-2.417,0Zm5.15,8.675a6.421,6.421,0,0,1,.475-2.549,3.821,3.821,0,0,1,1.362-1.709,3.591,3.591,0,0,1,2.065-.6,2.855,2.855,0,0,1,2.32,1l.105-.826h2.689V-.36a4.009,4.009,0,0,1-.584,2.184,3.75,3.75,0,0,1-1.692,1.424,6.219,6.219,0,0,1-2.566.5,5.365,5.365,0,0,1-2.026-.4A3.657,3.657,0,0,1,41.9,2.32L43.141.58a2.716,2.716,0,0,0,2.18.976A1.764,1.764,0,0,0,47.29-.466v-.3a2.781,2.781,0,0,1-2.153.94,3.437,3.437,0,0,1-2.812-1.332A5.517,5.517,0,0,1,41.251-4.72Zm2.971.185a3.383,3.383,0,0,0,.439,1.85,1.386,1.386,0,0,0,1.23.681,1.573,1.573,0,0,0,1.4-.642v-4a1.534,1.534,0,0,0-1.38-.65,1.4,1.4,0,0,0-1.239.708A3.858,3.858,0,0,0,44.222-4.641ZM54.672-9.51l.1,1.116a3.225,3.225,0,0,1,2.716-1.292A2.713,2.713,0,0,1,59.7-8.8a4.226,4.226,0,0,1,.76,2.672V0H57.494V-6a1.6,1.6,0,0,0-.29-1.059A1.342,1.342,0,0,0,56.149-7.4a1.413,1.413,0,0,0-1.292.686V0H51.9V-9.51ZM65.228,0H62.257V-9.51h2.971ZM62.082-11.962A1.322,1.322,0,0,1,62.539-13a1.724,1.724,0,0,1,1.187-.4,1.724,1.724,0,0,1,1.187.4,1.322,1.322,0,0,1,.457,1.037,1.322,1.322,0,0,1-.457,1.037,1.724,1.724,0,0,1-1.187.4,1.724,1.724,0,0,1-1.187-.4A1.322,1.322,0,0,1,62.082-11.962Zm8.42.088V-9.51h1.564v2.057H70.5V-3.1a1.111,1.111,0,0,0,.193.747,1.037,1.037,0,0,0,.765.211A4.345,4.345,0,0,0,72.2-2.2V-.079a5.466,5.466,0,0,1-1.67.255,3.1,3.1,0,0,1-2.259-.721,2.954,2.954,0,0,1-.729-2.188v-4.72H66.327V-9.51H67.54v-2.364ZM78.587,0a3.344,3.344,0,0,1-.281-.853A2.754,2.754,0,0,1,76.021.176a3.374,3.374,0,0,1-2.285-.813,2.588,2.588,0,0,1-.94-2.043,2.66,2.66,0,0,1,1.143-2.338A5.821,5.821,0,0,1,77.26-5.81h.914v-.5q0-1.316-1.134-1.316a.927.927,0,0,0-1.055,1.042H73.024A2.655,2.655,0,0,1,74.2-8.825a4.931,4.931,0,0,1,2.993-.86,4.323,4.323,0,0,1,2.874.888,3.086,3.086,0,0,1,1.081,2.435v4.21a4.311,4.311,0,0,0,.4,2V0ZM76.733-1.934a1.652,1.652,0,0,0,.918-.237,1.487,1.487,0,0,0,.523-.536V-4.228h-.861q-1.547,0-1.547,1.389a.848.848,0,0,0,.272.655A.986.986,0,0,0,76.733-1.934Z" transform="translate(957.5 9466.5)" fill="#21155c"/>
    <g id="Enmascarar_grupo_215" data-name="Enmascarar grupo 215" clip-path="url(#clip-path)">
      <g id="signo-de-interrogacion" transform="translate(895 9299)">
        <g id="Grupo_93622" data-name="Grupo 93622">
          <g id="Grupo_93619" data-name="Grupo 93619">
            <g id="Grupo_93618" data-name="Grupo 93618">
              <path id="Trazado_120507" data-name="Trazado 120507" d="M62.5,92.538A10.3,10.3,0,0,1,52.207,82.244V77.877A23.993,23.993,0,0,1,68.129,55.26,16.9,16.9,0,1,0,45.765,36.949a17.2,17.2,0,0,0-.164,2.37,10.294,10.294,0,0,1-20.589,0,37.49,37.49,0,1,1,49.98,35.352,3.372,3.372,0,0,0-2.2,3.206v4.366A10.3,10.3,0,0,1,62.5,92.538Z" fill="#8d6af2"/>
            </g>
            <path id="Trazado_120508" data-name="Trazado 120508" d="M62.5,123.169a10.3,10.3,0,0,1-10.294-10.294v-.085a10.294,10.294,0,1,1,20.589,0v.085A10.294,10.294,0,0,1,62.5,123.169Z" fill="#8d6af2"/>
          </g>
          <g id="Grupo_93621" data-name="Grupo 93621">
            <g id="Grupo_93620" data-name="Grupo 93620">
              <path id="Trazado_120509" data-name="Trazado 120509" d="M34.474,34.1a37.527,37.527,0,0,0-.36,5.214,10.286,10.286,0,0,0,5.743,9.235,10.3,10.3,0,0,1-14.845-9.235A37.5,37.5,0,0,1,65.007,1.911q1.049.069,2.083.2A37.661,37.661,0,0,0,34.474,34.1Z" fill="#673edf"/>
              <path id="Trazado_120510" data-name="Trazado 120510" d="M77.229,55.259A24,24,0,0,0,61.3,77.878v4.365a10.291,10.291,0,0,0,5.749,9.235,10.3,10.3,0,0,1-14.845-9.235V77.878A23.993,23.993,0,0,1,68.133,55.259,16.905,16.905,0,0,0,67.084,23.05,16.894,16.894,0,0,1,77.229,55.259Z" fill="#673edf"/>
            </g>
            <path id="Trazado_120511" data-name="Trazado 120511" d="M67.053,122.109a10.3,10.3,0,0,1-14.845-9.235v-.087a10.3,10.3,0,0,1,14.845-9.235,10.3,10.3,0,0,0-5.749,9.235v.087a10.291,10.291,0,0,0,5.749,9.235Z" fill="#673edf"/>
          </g>
        </g>
        <g id="Grupo_93625" data-name="Grupo 93625">
          <g id="Grupo_93624" data-name="Grupo 93624">
            <g id="Grupo_93623" data-name="Grupo 93623">
              <path id="Trazado_120512" data-name="Trazado 120512" d="M62.5,94.37A12.139,12.139,0,0,1,50.376,82.244V77.878A25.833,25.833,0,0,1,67.517,53.532,15.071,15.071,0,1,0,47.578,37.2a15.564,15.564,0,0,0-.146,2.117,12.125,12.125,0,1,1-24.25,0A39.3,39.3,0,0,1,65.125.084,39,39,0,0,1,86.182,7.959a1.831,1.831,0,0,1-2.212,2.919,35.348,35.348,0,0,0-19.085-7.14,35.638,35.638,0,0,0-38.042,35.58,8.463,8.463,0,1,0,16.926,0,19.257,19.257,0,0,1,.181-2.621A18.734,18.734,0,1,1,68.738,56.985a22.165,22.165,0,0,0-14.7,20.893v4.365a8.463,8.463,0,1,0,16.926,0V77.878a5.21,5.21,0,0,1,3.417-4.934,35.785,35.785,0,0,0,23.68-36.276,35.255,35.255,0,0,0-8.24-20.223,1.831,1.831,0,0,1,2.8-2.355A38.893,38.893,0,0,1,101.715,36.4,39.455,39.455,0,0,1,75.6,76.4a1.544,1.544,0,0,0-.977,1.482v4.365A12.141,12.141,0,0,1,62.5,94.37Z"/>
            </g>
            <path id="Trazado_120513" data-name="Trazado 120513" d="M62.5,125a12.139,12.139,0,0,1-2.539-.268,1.831,1.831,0,1,1,.767-3.581,8.469,8.469,0,0,0,10.237-8.278v-.085a8.463,8.463,0,0,0-16.926,0v.085a8.457,8.457,0,0,0,1.066,4.115,1.831,1.831,0,0,1-3.2,1.786,12.124,12.124,0,0,1-1.531-5.9v-.085a12.125,12.125,0,0,1,24.251,0v.085A12.141,12.141,0,0,1,62.5,125Z"/>
          </g>
        </g>
      </g>
    </g>
  </g>
</svg>
