<svg xmlns="http://www.w3.org/2000/svg" xmlns:xlink="http://www.w3.org/1999/xlink" width="67" height="67" viewBox="0 0 67 67">
  <defs>
    <clipPath id="clip-path">
      <rect id="Rectángulo_34708" data-name="Rectángulo 34708" width="67" height="67" transform="translate(189 13743)" fill="#ffd41c" stroke="#707070" stroke-width="1"/>
    </clipPath>
  </defs>
  <g id="Enmascarar_grupo_227" data-name="Enmascarar grupo 227" transform="translate(-189 -13743)" clip-path="url(#clip-path)">
    <g id="costo-por-adquisicion" transform="translate(188.19 13742.19)">
      <path id="Trazado_120586" data-name="Trazado 120586" d="M31.193,33.885l-2.2-1.508a4.176,4.176,0,0,1-4.1,3.4H11.763A5.525,5.525,0,0,0,6.239,41.3v3.521H30.573L32.1,43.277a6.151,6.151,0,0,0-.9-9.392Z" fill="#7c7b7a"/>
      <path id="Trazado_120587" data-name="Trazado 120587" d="M6.24,44.819v6.887l4.887-6.888Z" fill="#afafaf"/>
      <path id="Trazado_120588" data-name="Trazado 120588" d="M25.687,44.819l4.886,6.888V44.819Z" fill="#afafaf"/>
      <path id="Trazado_120589" data-name="Trazado 120589" d="M31.8,50.09H30.573V44.819H6.24V50.09H5.01a3.5,3.5,0,0,0,0,7H6.426v0a12.165,12.165,0,0,0,23.96,0H31.8a3.5,3.5,0,0,0,0-7Z" fill="#ffb69f"/>
      <circle id="Elipse_5448" data-name="Elipse 5448" cx="16.261" cy="16.261" r="16.261" transform="translate(34.589 1.479)" fill="#f0c020"/>
      <path id="Trazado_120590" data-name="Trazado 120590" d="M50.85,31.984a14.319,14.319,0,0,1-6.659-1.644.67.67,0,1,1,.626-1.185A12.917,12.917,0,0,0,63.754,17.74a12.822,12.822,0,0,0-3.775-9.129.67.67,0,0,1,.948-.948A14.25,14.25,0,0,1,50.85,31.984Zm-9-3.195a14.486,14.486,0,0,1-1.076-.972.67.67,0,0,1,.948-.948,13.025,13.025,0,0,0,.975.882.67.67,0,0,1-.847,1.039Z" fill="#f9e5af"/>
      <path id="Trazado_120591" data-name="Trazado 120591" d="M18.4,67.809a12.829,12.829,0,0,0,8.063-2.847.671.671,0,0,0,.1-.941.687.687,0,0,0-.944-.1A11.492,11.492,0,0,1,6.91,54.973V51.919l4.561-6.43H25.341L29.9,51.92v3.053a11.523,11.523,0,0,1-1.153,5.02.671.671,0,0,0,.311.9.68.68,0,0,0,.893-.308,0,0,0,0,0,0,0,12.755,12.755,0,0,0,.973-2.815H31.8a4.172,4.172,0,0,0,0-8.343h-.559V45.095l1.329-1.348a6.821,6.821,0,0,0-1-10.416l-2.2-1.506a.67.67,0,0,0-1.037.429,3.509,3.509,0,0,1-3.444,2.852H14.633a.67.67,0,1,0,0,1.34H24.888a4.848,4.848,0,0,0,4.479-3l1.447.992a5.482,5.482,0,0,1,.8,8.369l-1.326,1.343H6.91V41.3a4.824,4.824,0,0,1,2.737-4.366.672.672,0,0,0,.311-.9.685.685,0,0,0-.893-.311h0A6.184,6.184,0,0,0,5.57,41.3c0,1.268,0,4.721,0,8.123H5.01a4.172,4.172,0,0,0,0,8.343h.866A12.829,12.829,0,0,0,18.4,67.809Zm12.845-16.1V50.76H31.8a2.831,2.831,0,1,1,0,5.663h-.641A43.289,43.289,0,0,0,31.243,51.707ZM29.9,45.49V49.6L26.984,45.49Zm-22.993,0H9.828L6.91,49.6ZM5.01,56.423a2.831,2.831,0,0,1,0-5.663h.559v.948a45.667,45.667,0,0,0,.081,4.714H5.01Z"/>
      <path id="Trazado_120592" data-name="Trazado 120592" d="M27.509,63.071a.674.674,0,0,0,.941-.1s0,0,0-.006a.671.671,0,0,0-.107-.938.686.686,0,0,0-.944.107.669.669,0,0,0,.107.941Z"/>
      <circle id="Elipse_5449" data-name="Elipse 5449" cx="0.67" cy="0.67" r="0.67" transform="translate(11.282 35.106)"/>
      <path id="Trazado_120593" data-name="Trazado 120593" d="M15.493,58.645a.686.686,0,0,0-.863-.394.673.673,0,0,0-.394.863,4.457,4.457,0,0,0,8.344,0,.674.674,0,0,0-.394-.863.685.685,0,0,0-.86.394,3.129,3.129,0,0,1-2.916,2.018h0a3.117,3.117,0,0,1-2.914-2.018Z"/>
      <path id="Trazado_120594" data-name="Trazado 120594" d="M12.074,51.042v.716a.67.67,0,1,0,1.34,0v-.716a.67.67,0,1,0-1.34,0Z"/>
      <path id="Trazado_120595" data-name="Trazado 120595" d="M23.4,51.042v.716a.67.67,0,1,0,1.34,0v-.716a.67.67,0,1,0-1.34,0Z"/>
      <path id="Trazado_120596" data-name="Trazado 120596" d="M19.076,55.027V51.758a.67.67,0,0,0-1.34,0v3.269a.67.67,0,0,0,1.34,0Z"/>
      <path id="Trazado_120597" data-name="Trazado 120597" d="M50.85,27.5a.67.67,0,0,0,.67-.67V24.048h1.453a3.555,3.555,0,0,0,3.582-3.425,3.487,3.487,0,0,0-3.489-3.555h-4.34a2.209,2.209,0,0,1-2.242-2.109,2.148,2.148,0,0,1,2.149-2.19h3.642a5.029,5.029,0,0,1,3.185,1.141.67.67,0,0,0,.851-1.036,6.373,6.373,0,0,0-4.036-1.446h-.755V8.653a.67.67,0,0,0-1.34,0V11.43H48.632a3.487,3.487,0,0,0-3.489,3.555,3.555,3.555,0,0,0,3.582,3.424h4.34a2.148,2.148,0,0,1,2.149,2.19,2.209,2.209,0,0,1-2.242,2.109H49.432A5.046,5.046,0,0,1,46.4,21.691l-.186-.141a.67.67,0,1,0-.808,1.069l.186.14a6.393,6.393,0,0,0,3.837,1.288h.748v2.778a.67.67,0,0,0,.67.67Z"/>
      <path id="Trazado_120598" data-name="Trazado 120598" d="M63.907,8.025a.672.672,0,0,0,.1-.944.689.689,0,0,0-.944-.1.67.67,0,0,0,.844,1.04Z"/>
      <path id="Trazado_120599" data-name="Trazado 120599" d="M64.663,9.132a.671.671,0,0,0-.252.909v.005a15.6,15.6,0,1,1-3.222-3.975.69.69,0,0,0,.946-.056.667.667,0,0,0-.056-.946,16.911,16.911,0,1,0,3.5,4.315.686.686,0,0,0-.914-.252Z"/>
      <path id="Trazado_120600" data-name="Trazado 120600" d="M18.077,15.876h6.94a.67.67,0,1,0,0-1.34h-6.94a3.355,3.355,0,0,0-3.351,3.351v5.3L12.77,21.229a.687.687,0,0,0-.946,0,.666.666,0,0,0,0,.949l3.012,3.012a.669.669,0,0,0,1.124,0l3.013-3.013a.673.673,0,0,0,0-.949.686.686,0,0,0-.944,0s0,0-.005,0l-1.957,1.959v-5.3a2.022,2.022,0,0,1,2.01-2.01Z"/>
      <path id="Trazado_120601" data-name="Trazado 120601" d="M50.564,52.384h-6.94a.67.67,0,0,0,0,1.34h6.94a3.355,3.355,0,0,0,3.351-3.351V45.05l1.957,1.957a.67.67,0,0,0,.949-.946l-3.1-3.1a.674.674,0,0,0-.949,0l-3.1,3.1a.671.671,0,0,0,0,.946.685.685,0,0,0,.949,0l1.957-1.957v5.323a2.018,2.018,0,0,1-2.01,2.01Z"/>
    </g>
  </g>
</svg>
