<svg xmlns="http://www.w3.org/2000/svg" xmlns:xlink="http://www.w3.org/1999/xlink" width="101" height="101" viewBox="0 0 101 101">
  <defs>
    <clipPath id="clip-path">
      <rect id="Rectángulo_35008" data-name="Rectángulo 35008" width="101" height="101" transform="translate(224 433)" fill="#ffd41c"/>
    </clipPath>
  </defs>
  <g id="Enmascarar_grupo_301" data-name="Enmascarar grupo 301" transform="translate(-224 -433)" clip-path="url(#clip-path)">
    <g id="portafolio_2_" data-name="portafolio (2)" transform="translate(224 433)">
      <path id="Trazado_121942" data-name="Trazado 121942" d="M8.136,7.4V73.87a5.918,5.918,0,0,0,5.918,5.918H86.946a5.918,5.918,0,0,0,5.918-5.918V7.4a5.918,5.918,0,0,0-5.918-5.918H14.054A5.918,5.918,0,0,0,8.136,7.4Z" fill="#e8edf2"/>
      <path id="Trazado_121943" data-name="Trazado 121943" d="M86.946,1.479H81.614A5.918,5.918,0,0,1,87.532,7.4V73.87a5.918,5.918,0,0,1-5.918,5.918h5.331a5.918,5.918,0,0,0,5.918-5.918V7.4A5.918,5.918,0,0,0,86.946,1.479Z" fill="#c5d3dd"/>
      <path id="Trazado_121944" data-name="Trazado 121944" d="M86.946,1.479H14.054A5.918,5.918,0,0,0,8.136,7.4v7.989H92.864V7.4A5.918,5.918,0,0,0,86.946,1.479Z" fill="#01c0fa"/>
      <path id="Trazado_121945" data-name="Trazado 121945" d="M86.946,1.479H81.614A5.918,5.918,0,0,1,87.532,7.4v7.989h5.331V7.4A5.918,5.918,0,0,0,86.946,1.479Z" fill="#0290cf"/>
      <circle id="Elipse_5611" data-name="Elipse 5611" cx="2.488" cy="2.488" r="2.488" transform="translate(16.421 5.945)" fill="#d8ecfe"/>
      <circle id="Elipse_5612" data-name="Elipse 5612" cx="2.488" cy="2.488" r="2.488" transform="translate(26.854 5.945)" fill="#fedf30"/>
      <circle id="Elipse_5613" data-name="Elipse 5613" cx="2.488" cy="2.488" r="2.488" transform="translate(37.287 5.945)" fill="#fe9738"/>
      <path id="Trazado_121946" data-name="Trazado 121946" d="M29.475,66.214H71.524a3.16,3.16,0,0,1,3.16,3.16V96.361a3.16,3.16,0,0,1-3.16,3.16H29.475a3.16,3.16,0,0,1-3.16-3.16V69.374a3.16,3.16,0,0,1,3.16-3.16Z" fill="#aa6a51"/>
      <path id="Trazado_121947" data-name="Trazado 121947" d="M71.524,66.214H66.79a3.16,3.16,0,0,1,3.16,3.16V96.361a3.16,3.16,0,0,1-3.16,3.16h4.734a3.16,3.16,0,0,0,3.16-3.16V69.374A3.16,3.16,0,0,0,71.524,66.214Z" fill="#87523e"/>
      <path id="Trazado_121948" data-name="Trazado 121948" d="M71.524,71.343H29.475a3.16,3.16,0,0,0-3.16,3.16v2.381A6.3,6.3,0,0,0,29.5,82.359l5.3,3.019a16.058,16.058,0,0,0,7.947,2.1H60.519a16.057,16.057,0,0,0,7.947-2.1L71.5,83.649a6.3,6.3,0,0,0,3.182-5.475V74.5a3.16,3.16,0,0,0-3.16-3.16Z" fill="#87523e"/>
      <g id="Grupo_94580" data-name="Grupo 94580">
        <g id="Grupo_94577" data-name="Grupo 94577">
          <path id="Trazado_121949" data-name="Trazado 121949" d="M14.921,33.011H33.363V51.453H14.921Z" fill="#01c0fa"/>
          <path id="Trazado_121950" data-name="Trazado 121950" d="M25.409,41.946,22.238,47.56,20.989,45.4a1.484,1.484,0,0,0-2.571,0l-3.5,6.057H33.363l-5.369-9.507a1.484,1.484,0,0,0-2.585,0Z" fill="#b3dafe"/>
        </g>
        <g id="Grupo_94578" data-name="Grupo 94578">
          <path id="Trazado_121951" data-name="Trazado 121951" d="M41.279,33.011H59.721V51.453H41.279Z" fill="#01c0fa"/>
          <path id="Trazado_121952" data-name="Trazado 121952" d="M51.767,41.946,48.6,47.56,47.347,45.4a1.484,1.484,0,0,0-2.571,0l-3.5,6.057H59.721l-5.369-9.507A1.484,1.484,0,0,0,51.767,41.946Z" fill="#b3dafe"/>
        </g>
        <g id="Grupo_94579" data-name="Grupo 94579">
          <path id="Trazado_121953" data-name="Trazado 121953" d="M67.637,33.011H86.078V51.453H67.637Z" fill="#01c0fa"/>
          <path id="Trazado_121954" data-name="Trazado 121954" d="M78.125,41.946,74.954,47.56,73.7,45.4a1.484,1.484,0,0,0-2.571,0l-3.5,6.057H86.079l-5.369-9.507A1.484,1.484,0,0,0,78.125,41.946Z" fill="#b3dafe"/>
        </g>
      </g>
      <path id="Trazado_121955" data-name="Trazado 121955" d="M71.524,66.214H29.475a3.16,3.16,0,0,0-3.16,3.16v2.381A6.3,6.3,0,0,0,29.5,77.23l5.3,3.019a16.058,16.058,0,0,0,7.947,2.1H60.519a16.057,16.057,0,0,0,7.947-2.1L71.5,78.52a6.3,6.3,0,0,0,3.182-5.475V69.374A3.16,3.16,0,0,0,71.524,66.214Z" fill="#c68d7a"/>
      <path id="Trazado_121956" data-name="Trazado 121956" d="M71.524,66.214H66.79a3.16,3.16,0,0,1,3.16,3.159v3.672a6.3,6.3,0,0,1-3.182,5.475l-3.036,1.729a16.058,16.058,0,0,1-7.947,2.1h4.734a16.059,16.059,0,0,0,7.947-2.1L71.5,78.52a6.3,6.3,0,0,0,3.182-5.475V69.374A3.16,3.16,0,0,0,71.524,66.214Z" fill="#aa6a51"/>
      <path id="Trazado_121957" data-name="Trazado 121957" d="M47.481,80.458v4.986a3.019,3.019,0,1,0,6.038,0V80.458a3.019,3.019,0,1,0-6.038,0Z" fill="#fedf30"/>
      <g id="Grupo_94581" data-name="Grupo 94581">
        <path id="Trazado_121958" data-name="Trazado 121958" d="M86.947,0H14.053a7.406,7.406,0,0,0-7.4,7.4V33.861a1.479,1.479,0,1,0,2.959,0V16.866h81.77v57a4.444,4.444,0,0,1-4.438,4.438H76.164V69.374a4.645,4.645,0,0,0-4.639-4.639H60.756V61.967A4.267,4.267,0,0,0,56.493,57.7H44.506a4.267,4.267,0,0,0-4.262,4.262v2.768H38.153a1.479,1.479,0,1,0,0,2.959H71.524a1.682,1.682,0,0,1,1.68,1.681v3.671a4.828,4.828,0,0,1-2.436,4.189l-3.036,1.73a14.6,14.6,0,0,1-7.213,1.911H55v-.417a4.5,4.5,0,1,0-9,0v.417H42.745a14.6,14.6,0,0,1-7.213-1.911l-5.3-3.021A4.829,4.829,0,0,1,27.8,71.755V69.374a1.682,1.682,0,0,1,1.68-1.681h2.76a1.479,1.479,0,1,0,0-2.959h-2.76a4.645,4.645,0,0,0-4.639,4.639v8.934H14.053A4.444,4.444,0,0,1,9.615,73.87V39.779a1.479,1.479,0,0,0-2.959,0V73.87a7.406,7.406,0,0,0,7.4,7.4H24.836V96.361A4.644,4.644,0,0,0,29.475,101H71.524a4.644,4.644,0,0,0,4.639-4.639V81.267H86.947a7.406,7.406,0,0,0,7.4-7.4V7.4a7.406,7.406,0,0,0-7.4-7.4ZM43.2,61.967a1.3,1.3,0,0,1,1.3-1.3H56.493a1.3,1.3,0,0,1,1.3,1.3v2.768H43.2Zm7.3,16.952a1.541,1.541,0,0,1,1.54,1.54v1.878c0,.006,0,.013,0,.019s0,.013,0,.019v3.07a1.54,1.54,0,0,1-3.079,0v-3.07c0-.006,0-.013,0-.019s0-.013,0-.019V80.458A1.541,1.541,0,0,1,50.5,78.918ZM71.524,98.041H29.475a1.682,1.682,0,0,1-1.68-1.68V77.856a7.722,7.722,0,0,0,.972.659l5.3,3.02a17.562,17.562,0,0,0,8.678,2.3H46v1.61a4.5,4.5,0,1,0,9,0v-1.61h5.52a17.564,17.564,0,0,0,8.678-2.3l3.035-1.73a7.726,7.726,0,0,0,.972-.66V96.361a1.682,1.682,0,0,1-1.68,1.68ZM9.615,13.907V7.4a4.444,4.444,0,0,1,4.438-4.438H86.947A4.444,4.444,0,0,1,91.385,7.4v6.51Z"/>
        <path id="Trazado_121959" data-name="Trazado 121959" d="M18.909,4.466a3.967,3.967,0,1,0,3.967,3.967A3.972,3.972,0,0,0,18.909,4.466Zm0,4.975a1.008,1.008,0,1,1,1.008-1.008A1.009,1.009,0,0,1,18.909,9.441Z"/>
        <path id="Trazado_121960" data-name="Trazado 121960" d="M29.342,4.466a3.967,3.967,0,1,0,3.967,3.967A3.972,3.972,0,0,0,29.342,4.466Zm0,4.975A1.008,1.008,0,1,1,30.35,8.433,1.009,1.009,0,0,1,29.342,9.441Z"/>
        <path id="Trazado_121961" data-name="Trazado 121961" d="M39.775,4.466a3.967,3.967,0,1,0,3.967,3.967A3.971,3.971,0,0,0,39.775,4.466Zm0,4.975a1.008,1.008,0,1,1,1.008-1.008A1.009,1.009,0,0,1,39.775,9.441Z"/>
        <path id="Trazado_121962" data-name="Trazado 121962" d="M33.363,31.532H14.921a1.479,1.479,0,0,0-1.479,1.479V51.453c0,.014,0,.027,0,.041a1.476,1.476,0,0,0,1.46,1.438H33.385a1.476,1.476,0,0,0,1.455-1.437c0-.014,0-.027,0-.041V33.011a1.479,1.479,0,0,0-1.479-1.479Zm-1.479,2.959V45.825l-2.6-4.606a2.963,2.963,0,0,0-5.161,0l-1.9,3.36a2.931,2.931,0,0,0-2.519-1.4h0a2.934,2.934,0,0,0-2.567,1.482L16.4,45.931V34.491ZM30.828,49.973H17.487l2.221-3.838L20.957,48.3a1.479,1.479,0,0,0,2.569-.012l3.179-5.614Z"/>
        <path id="Trazado_121963" data-name="Trazado 121963" d="M59.721,31.532H41.279A1.479,1.479,0,0,0,39.8,33.011V51.453c0,.014,0,.027,0,.041a1.477,1.477,0,0,0,1.46,1.438h18.46a1.486,1.486,0,0,0,1.478-1.48V33.011a1.479,1.479,0,0,0-1.479-1.479Zm-1.479,2.959V45.825l-2.6-4.606a2.964,2.964,0,0,0-5.161,0l-1.9,3.36a2.964,2.964,0,0,0-5.086.079l-.736,1.275V34.491H58.241ZM57.186,49.973H43.845l2.221-3.838L47.315,48.3a1.479,1.479,0,0,0,2.569-.012l3.179-5.614Z"/>
        <path id="Trazado_121964" data-name="Trazado 121964" d="M86.078,31.532H67.637a1.479,1.479,0,0,0-1.479,1.479V51.453c0,.014,0,.027,0,.041a1.477,1.477,0,0,0,1.46,1.438H86.1a1.481,1.481,0,0,0,1.457-1.478V33.011a1.479,1.479,0,0,0-1.479-1.479ZM84.6,34.491V45.825L82,41.218a2.964,2.964,0,0,0-5.161,0l-1.9,3.36a2.964,2.964,0,0,0-5.086.078l-.736,1.275V34.491H84.6ZM83.544,49.973H70.2l2.221-3.838L73.673,48.3a1.479,1.479,0,0,0,1.281.74h.007a1.479,1.479,0,0,0,1.281-.752l3.179-5.614Z"/>
        <path id="Trazado_121965" data-name="Trazado 121965" d="M64.284,25.644A1.479,1.479,0,0,0,62.8,24.165H38.2a1.479,1.479,0,1,0,0,2.959H62.8A1.479,1.479,0,0,0,64.284,25.644Z"/>
      </g>
    </g>
  </g>
</svg>
