<svg xmlns="http://www.w3.org/2000/svg" xmlns:xlink="http://www.w3.org/1999/xlink" width="295" height="284" viewBox="0 0 295 284">
  <defs>
    <clipPath id="clip-path">
      <rect id="Rect치ngulo_34647" data-name="Rect치ngulo 34647" width="125" height="125" transform="translate(895 9615)" fill="#fff" stroke="#707070" stroke-width="1"/>
    </clipPath>
  </defs>
  <g id="Grupo_93657" data-name="Grupo 93657" transform="translate(-810 -9535)">
    <rect id="Rect치ngulo_34639" data-name="Rect치ngulo 34639" width="295" height="284" transform="translate(810 9535)" fill="#21155c"/>
    <path id="Trazado_122986" data-name="Trazado 122986" d="M-63.712-4.342V0H-66.8V-12.8h5.106a5.948,5.948,0,0,1,2.6.541,4.074,4.074,0,0,1,1.749,1.538,4.2,4.2,0,0,1,.62,2.263,3.7,3.7,0,0,1-1.34,2.993,5.561,5.561,0,0,1-3.678,1.121Zm0-2.382h2.021a1.906,1.906,0,0,0,1.367-.448,1.665,1.665,0,0,0,.47-1.266,2.059,2.059,0,0,0-.483-1.433,1.712,1.712,0,0,0-1.318-.545h-2.057Zm14.247-.105-.976-.07a1.752,1.752,0,0,0-1.793.879V0H-55.2V-9.51h2.777l.1,1.222a2.294,2.294,0,0,1,2.083-1.4,2.888,2.888,0,0,1,.826.105Zm.378,1.986a5.613,5.613,0,0,1,.554-2.536,3.96,3.96,0,0,1,1.591-1.709,4.791,4.791,0,0,1,2.435-.6,4.373,4.373,0,0,1,3.366,1.323,5.076,5.076,0,0,1,1.23,3.6v.105a4.925,4.925,0,0,1-1.235,3.529A4.384,4.384,0,0,1-44.49.176a4.434,4.434,0,0,1-3.261-1.217,4.761,4.761,0,0,1-1.327-3.3Zm2.962.185a3.538,3.538,0,0,0,.413,1.934,1.376,1.376,0,0,0,1.222.615q1.582,0,1.617-2.435v-.3q0-2.558-1.635-2.558-1.485,0-1.608,2.206Zm7.146-.167A5.809,5.809,0,0,1-38-8.385a3.211,3.211,0,0,1,2.725-1.3,2.731,2.731,0,0,1,2.145,1V-13.5h2.971V0h-2.663l-.149-1.02A2.8,2.8,0,0,1-35.3.176a3.205,3.205,0,0,1-2.689-1.3A5.993,5.993,0,0,1-38.979-4.825Zm2.962.185q0,2.531,1.477,2.531a1.458,1.458,0,0,0,1.406-.826V-6.557A1.419,1.419,0,0,0-34.523-7.4q-1.371,0-1.485,2.215Zm13.2,3.612a3.054,3.054,0,0,1-2.54,1.2,3,3,0,0,1-2.369-.91,3.826,3.826,0,0,1-.8-2.615V-9.51h2.962v6.179a1.065,1.065,0,0,0,1.187,1.222,1.548,1.548,0,0,0,1.45-.729V-9.51h2.979V0h-2.777Zm8.508-1.081a1.317,1.317,0,0,0,.967-.338,1.241,1.241,0,0,0,.334-.945h2.777A3.288,3.288,0,0,1-11.351-.826a4.168,4.168,0,0,1-2.887,1,4.22,4.22,0,0,1-3.27-1.3,5.125,5.125,0,0,1-1.2-3.6v-.123A5.792,5.792,0,0,1-18.171-7.4a3.872,3.872,0,0,1,1.534-1.7,4.573,4.573,0,0,1,2.373-.593A4.116,4.116,0,0,1-11.32-8.657a3.647,3.647,0,0,1,1.09,2.786h-2.777A1.626,1.626,0,0,0-13.368-7a1.244,1.244,0,0,0-.967-.4q-1.151,0-1.345,1.468a10.357,10.357,0,0,0-.062,1.283A4.068,4.068,0,0,0-15.4-2.663,1.187,1.187,0,0,0-14.309-2.109Zm8.78-9.765V-9.51h1.564v2.057H-5.528V-3.1a1.111,1.111,0,0,0,.193.747,1.037,1.037,0,0,0,.765.211A4.345,4.345,0,0,0-3.832-2.2V-.079A5.466,5.466,0,0,1-5.5.176,3.1,3.1,0,0,1-7.761-.545,2.954,2.954,0,0,1-8.49-2.733v-4.72H-9.7V-9.51H-8.49v-2.364Zm2.092,7.031a5.613,5.613,0,0,1,.554-2.536A3.96,3.96,0,0,1-1.292-9.088a4.791,4.791,0,0,1,2.435-.6A4.373,4.373,0,0,1,4.509-8.363a5.076,5.076,0,0,1,1.23,3.6v.105A4.925,4.925,0,0,1,4.5-1.129,4.384,4.384,0,0,1,1.16.176,4.434,4.434,0,0,1-2.1-1.042a4.761,4.761,0,0,1-1.327-3.3Zm2.962.185A3.538,3.538,0,0,0-.062-2.725a1.376,1.376,0,0,0,1.222.615q1.582,0,1.617-2.435v-.3Q2.777-7.4,1.143-7.4-.343-7.4-.466-5.194Zm12.5,1.986a.684.684,0,0,0-.4-.606,6.016,6.016,0,0,0-1.5-.475A6.853,6.853,0,0,1,8.3-4.4,3.062,3.062,0,0,1,7.2-5.37,2.319,2.319,0,0,1,6.82-6.68,2.628,2.628,0,0,1,7.9-8.837a4.453,4.453,0,0,1,2.83-.848,4.934,4.934,0,0,1,3.023.853A2.666,2.666,0,0,1,14.9-6.592H11.927q0-1.143-1.2-1.143a1.194,1.194,0,0,0-.782.259.8.8,0,0,0-.316.646.737.737,0,0,0,.387.642,3.654,3.654,0,0,0,1.235.4,10.671,10.671,0,0,1,1.49.378A2.706,2.706,0,0,1,14.88-2.76,2.491,2.491,0,0,1,13.724-.642a5.068,5.068,0,0,1-2.993.817,5.172,5.172,0,0,1-2.18-.439,3.645,3.645,0,0,1-1.494-1.2A2.707,2.707,0,0,1,6.521-3.05H9.29a1.145,1.145,0,0,0,.439.962,1.808,1.808,0,0,0,1.081.3,1.422,1.422,0,0,0,.91-.246A.787.787,0,0,0,12.023-2.672ZM29.575-4.685a5.735,5.735,0,0,1-1,3.538A3.2,3.2,0,0,1,25.884.176,2.742,2.742,0,0,1,23.73-.782V3.656H20.769V-9.51h2.769l.088.879a2.742,2.742,0,0,1,2.241-1.055,3.224,3.224,0,0,1,2.733,1.3,5.805,5.805,0,0,1,.976,3.564Zm-2.962-.185q0-2.531-1.477-2.531a1.394,1.394,0,0,0-1.406.756V-2.9a1.439,1.439,0,0,0,1.424.791q1.415,0,1.459-2.443ZM35.481.176a4.889,4.889,0,0,1-3.542-1.305,4.507,4.507,0,0,1-1.354-3.4v-.246a5.84,5.84,0,0,1,.541-2.575A3.955,3.955,0,0,1,32.7-9.075a4.763,4.763,0,0,1,2.461-.611,4.117,4.117,0,0,1,3.164,1.244,4.887,4.887,0,0,1,1.16,3.467v1.151H33.6a2.135,2.135,0,0,0,.694,1.257,2.066,2.066,0,0,0,1.389.457,2.662,2.662,0,0,0,2.2-.984l1.354,1.6A3.784,3.784,0,0,1,37.666-.277,5.3,5.3,0,0,1,35.481.176ZM35.147-7.4q-1.3,0-1.547,1.723h2.988v-.229a1.467,1.467,0,0,0-.36-1.1A1.434,1.434,0,0,0,35.147-7.4Zm11.285.571-.976-.07a1.752,1.752,0,0,0-1.793.879V0H40.7V-9.51h2.777l.1,1.222a2.294,2.294,0,0,1,2.083-1.4,2.888,2.888,0,0,1,.826.105Zm6.82,0-.976-.07a1.752,1.752,0,0,0-1.793.879V0H47.522V-9.51H50.3l.1,1.222a2.294,2.294,0,0,1,2.083-1.4,2.888,2.888,0,0,1,.826.105Zm.378,1.986a5.613,5.613,0,0,1,.554-2.536,3.96,3.96,0,0,1,1.591-1.709,4.791,4.791,0,0,1,2.435-.6,4.373,4.373,0,0,1,3.366,1.323,5.076,5.076,0,0,1,1.23,3.6v.105a4.925,4.925,0,0,1-1.235,3.529A4.384,4.384,0,0,1,58.228.176a4.434,4.434,0,0,1-3.261-1.217,4.761,4.761,0,0,1-1.327-3.3Zm2.962.185a3.538,3.538,0,0,0,.413,1.934,1.376,1.376,0,0,0,1.222.615q1.582,0,1.617-2.435v-.3q0-2.558-1.635-2.558-1.485,0-1.608,2.206Z" transform="translate(957.5 9780.5)" fill="#fff"/>
    <g id="Enmascarar_grupo_213" data-name="Enmascarar grupo 213" clip-path="url(#clip-path)">
      <g id="san-bernardo" transform="translate(895 9615)">
        <path id="Trazado_120466" data-name="Trazado 120466" d="M34.519,61.615a44.441,44.441,0,0,1-4.81,12.2l-1.671,2.895a1.354,1.354,0,0,1-1.057.685,28.573,28.573,0,0,0-1.892,5.133L15.063,120.644a2.013,2.013,0,0,0,1.947,2.525h90.98a2.013,2.013,0,0,0,1.947-2.525L99.912,82.532A28.572,28.572,0,0,0,98.02,77.4a1.354,1.354,0,0,1-1.057-.685l-1.671-2.895a44.434,44.434,0,0,1-4.81-12.2H34.519Z" fill="#c17d4f"/>
        <path id="Trazado_120467" data-name="Trazado 120467" d="M78.373,84.752A5.935,5.935,0,0,1,73.8,81.862l-.053-.09h0q-.19-.328-.386-.653h0a5.784,5.784,0,0,1-3.8,3.209,27.293,27.293,0,0,1-14.127,0,5.785,5.785,0,0,1-3.8-3.209h0c-.13.217-.44.742-.44.742a5.935,5.935,0,0,1-4.574,2.889,3.4,3.4,0,0,1-1.412-.171L42.7,88.929A7.816,7.816,0,0,1,31.038,91.1q-.553-.443-1.094-.911a.413.413,0,0,0-.672.417L30.3,94.436A17.142,17.142,0,0,0,41.352,106.29a33,33,0,0,1-8.381-4.24.346.346,0,0,0-.531.374l.894,3.338A15.26,15.26,0,0,0,45.1,116.79l.077.015a14.2,14.2,0,0,0,12.747-3.913l2.267-2.267a7.9,7.9,0,0,0,2.312-5.582,7.9,7.9,0,0,0,2.312,5.582l2.267,2.267A14.2,14.2,0,0,0,79.827,116.8l.077-.015a15.261,15.261,0,0,0,11.763-11.028l.894-3.338a.346.346,0,0,0-.531-.374,32.995,32.995,0,0,1-8.381,4.24A17.142,17.142,0,0,0,94.7,94.436L95.728,90.6a.413.413,0,0,0-.672-.417q-.541.468-1.094.911A7.816,7.816,0,0,1,82.3,88.929l-2.51-4.348a3.406,3.406,0,0,1-1.412.171" fill="#f9f6f9"/>
        <path id="Trazado_120468" data-name="Trazado 120468" d="M73.744,81.773a48.339,48.339,0,0,0-7.632-9.925l-2.3-2.3A4.5,4.5,0,0,1,62.5,66.374v0a4.5,4.5,0,0,1-1.317,3.179l-2.3,2.3a48.333,48.333,0,0,0-7.422,9.567l-.263.448h0a5.935,5.935,0,0,1-4.574,2.889,3.407,3.407,0,0,1-2.716-.984,8.8,8.8,0,0,1-2.579-6.18l-.134-25.7a18.813,18.813,0,0,1,5.51-13.4,20.556,20.556,0,0,1,14.536-6.021h2.512a20.557,20.557,0,0,1,14.536,6.021,18.813,18.813,0,0,1,5.51,13.4l-.134,25.7a8.8,8.8,0,0,1-2.579,6.18,3.407,3.407,0,0,1-2.716.984A5.935,5.935,0,0,1,73.8,81.862Z" fill="#f9f6f9"/>
        <path id="Trazado_120469" data-name="Trazado 120469" d="M62.789,43.794h-.577a9.482,9.482,0,0,0-9.482,9.482v.308a2.6,2.6,0,0,0,2.6,2.6.449.449,0,0,1,.389.224l1.341,2.322a3.794,3.794,0,0,0,3.286,1.9h4.318a3.794,3.794,0,0,0,3.286-1.9L69.286,56.4a.448.448,0,0,1,.389-.224,2.6,2.6,0,0,0,2.6-2.6v-.308A9.482,9.482,0,0,0,62.789,43.794Z" fill="#665e66"/>
        <path id="Trazado_120470" data-name="Trazado 120470" d="M33.237,56.83a55.207,55.207,0,0,1-1.881-14.288V16.332a9.038,9.038,0,0,1,1.029-4.189,8.226,8.226,0,0,0-7.622,6.091A14.912,14.912,0,0,1,20.9,24.918l-5.035,5.035A27.087,27.087,0,0,0,7.934,49.107a11.531,11.531,0,0,0,3.377,8.153L22.785,68.734A4.827,4.827,0,0,1,24.034,70.9L25.5,76.38a1.383,1.383,0,0,0,2.534.334l1.671-2.895a44.435,44.435,0,0,0,4.81-12.2Z" fill="#985e33"/>
        <path id="Trazado_120471" data-name="Trazado 120471" d="M56.386,19.967a15.01,15.01,0,0,0-4.4-10.614L46.542,3.906A49.771,49.771,0,0,0,35.878,8.5a9.044,9.044,0,0,0-4.522,7.833V42.542A55.2,55.2,0,0,0,33.237,56.83l3.63,13.547a8.628,8.628,0,0,0,4.457,5.476L41.2,51.889a18.813,18.813,0,0,1,5.51-13.4,20.549,20.549,0,0,1,6.408-4.346l2.757-10.291a15.009,15.009,0,0,0,.512-3.885Z" fill="#c17d4f"/>
        <path id="Trazado_120472" data-name="Trazado 120472" d="M66.113,71.849l-2.3-2.3A4.5,4.5,0,0,1,62.5,66.428c0-.016,0-.034,0-.054v0l-.03.511a4.494,4.494,0,0,1-1.287,2.665l-2.3,2.3a48.338,48.338,0,0,0-7.246,9.272,5.784,5.784,0,0,0,3.8,3.209,27.284,27.284,0,0,0,7.064.93h0a27.3,27.3,0,0,0,7.064-.93,5.785,5.785,0,0,0,3.8-3.209,48.34,48.34,0,0,0-7.246-9.272Z" fill="#e2dfe2"/>
        <path id="Trazado_120473" data-name="Trazado 120473" d="M91.763,56.83a55.207,55.207,0,0,0,1.881-14.288V16.332a9.038,9.038,0,0,0-1.029-4.189,8.226,8.226,0,0,1,7.622,6.091,14.914,14.914,0,0,0,3.859,6.685l5.035,5.035a27.087,27.087,0,0,1,7.934,19.153,11.531,11.531,0,0,1-3.377,8.153L102.215,68.734a4.827,4.827,0,0,0-1.249,2.163L99.5,76.38a1.383,1.383,0,0,1-2.534.334l-1.671-2.895a44.435,44.435,0,0,1-4.81-12.2Z" fill="#985e33"/>
        <path id="Trazado_120474" data-name="Trazado 120474" d="M68.615,19.967a15.01,15.01,0,0,1,4.4-10.614l5.447-5.447A49.771,49.771,0,0,1,89.122,8.5a9.044,9.044,0,0,1,4.522,7.833V42.542A55.2,55.2,0,0,1,91.763,56.83l-3.63,13.547a8.628,8.628,0,0,1-4.457,5.476L83.8,51.889a18.813,18.813,0,0,0-5.51-13.4,20.549,20.549,0,0,0-6.408-4.346L69.126,23.852a15.008,15.008,0,0,1-.511-3.885Z" fill="#c17d4f"/>
        <path id="Trazado_120475" data-name="Trazado 120475" d="M89.122,8.5a49.783,49.783,0,0,0-8.29-3.82,9.045,9.045,0,0,1,3.046,6.769V37.659a55.219,55.219,0,0,1-.758,9.115,18.807,18.807,0,0,1,.681,5.114l-.125,23.965a8.629,8.629,0,0,0,4.457-5.476l3.63-13.547a55.207,55.207,0,0,0,1.881-14.288V16.332A9.045,9.045,0,0,0,89.122,8.5Z" fill="#b16e3d"/>
        <path id="Trazado_120476" data-name="Trazado 120476" d="M78.458,3.906A49.77,49.77,0,0,0,64.236,1.831H60.764A49.768,49.768,0,0,0,46.542,3.906L51.99,9.353a15.01,15.01,0,0,1,3.885,14.5L53.117,34.142a20.554,20.554,0,0,1,8.127-1.675H62.5v0h1.256a20.549,20.549,0,0,1,8.127,1.675L69.126,23.852a15.01,15.01,0,0,1,3.885-14.5Z" fill="#e2dfe2"/>
        <path id="Trazado_120477" data-name="Trazado 120477" d="M90.481,61.615,90.86,60.2Z" fill="#8b818e"/>
        <g id="Grupo_93598" data-name="Grupo 93598">
          <path id="Trazado_120478" data-name="Trazado 120478" d="M31.558,70.971l.009,1.734a8.805,8.805,0,0,0,2.572,6.173,3.387,3.387,0,0,0,2.691.993,5.936,5.936,0,0,0,4.5-2.721l-.007-1.3a8.629,8.629,0,0,1-4.457-5.476l-2.348-8.762a44.432,44.432,0,0,1-3.232,9.213q.134.073.271.143Z" fill="#b16e3d"/>
          <path id="Trazado_120479" data-name="Trazado 120479" d="M109.937,120.644,99.912,82.532A28.572,28.572,0,0,0,98.02,77.4a1.354,1.354,0,0,1-1.057-.685l-1.671-2.895a44.438,44.438,0,0,1-4.81-12.2l-2.348,8.762a8.675,8.675,0,0,1-.389,1.132,28.568,28.568,0,0,1,2.4,6.14l4.637,17.628a18.342,18.342,0,0,1-17.739,23.009H15.683l-.62,2.358a2.013,2.013,0,0,0,1.947,2.525h90.98a2.013,2.013,0,0,0,1.947-2.525Z" fill="#b16e3d"/>
          <path id="Trazado_120480" data-name="Trazado 120480" d="M31.558,70.971l.009,1.734a8.805,8.805,0,0,0,2.572,6.173,3.387,3.387,0,0,0,2.691.993,5.936,5.936,0,0,0,4.5-2.721l-.007-1.3a8.629,8.629,0,0,1-4.457-5.476l-2.348-8.762a44.432,44.432,0,0,1-3.232,9.213q.134.073.271.143Z" fill="#b16e3d"/>
        </g>
        <path id="Trazado_120481" data-name="Trazado 120481" d="M94.63,94.7q.037-.129.072-.259L95.728,90.6a.413.413,0,0,0-.672-.417q-.541.468-1.094.911c-.076.061-.154.121-.232.179Z" fill="#e2dfe2"/>
        <path id="Trazado_120482" data-name="Trazado 120482" d="M105.392,23.623a13.093,13.093,0,0,1-3.386-5.864A10,10,0,0,0,93.713,10.4a10.859,10.859,0,0,0-3.675-3.491A51.6,51.6,0,0,0,64.236,0H60.764a51.605,51.605,0,0,0-25.8,6.914A10.862,10.862,0,0,0,31.287,10.4a10,10,0,0,0-8.294,7.354,13.1,13.1,0,0,1-3.385,5.864l-5.035,5.035A28.729,28.729,0,0,0,6.1,49.107a13.275,13.275,0,0,0,3.914,9.448L21.49,70.029a3,3,0,0,1,.775,1.342l1.469,5.483a3.211,3.211,0,0,0,.84,1.451,30.489,30.489,0,0,0-1.257,3.761L13.292,120.178A3.843,3.843,0,0,0,17.01,125H107.99a3.843,3.843,0,0,0,3.717-4.822L101.682,82.066a30.458,30.458,0,0,0-1.257-3.761,3.212,3.212,0,0,0,.84-1.451l1.47-5.484a3,3,0,0,1,.775-1.342l11.474-11.474a13.274,13.274,0,0,0,3.913-9.448,28.729,28.729,0,0,0-8.47-20.448ZM91.813,16.332V42.542a53.4,53.4,0,0,1-1.818,13.814L86.365,69.9a6.8,6.8,0,0,1-.836,1.9l.023-4.416a1.831,1.831,0,0,0-3.662-.019c-.071,13.568-.025,4.887-.053,10.214a6.934,6.934,0,0,1-2.042,4.895,1.574,1.574,0,0,1-1.256.455,4.113,4.113,0,0,1-3.162-2,50.229,50.229,0,0,0-7.969-10.378l-2.3-2.3a2.646,2.646,0,0,1-.78-1.884c0-.453,0,1.538,0-3.92h.328a5.641,5.641,0,0,0,4.871-2.812l.988-1.712A4.435,4.435,0,0,0,74.1,53.583v-.308A11.326,11.326,0,0,0,62.789,41.962h-.577A11.326,11.326,0,0,0,50.9,53.275v.308a4.435,4.435,0,0,0,3.583,4.347l.988,1.712a5.641,5.641,0,0,0,4.871,2.813h.328v3.92a2.648,2.648,0,0,1-.78,1.884l-2.3,2.3A50.234,50.234,0,0,0,49.625,80.93a4.115,4.115,0,0,1-3.163,2,1.57,1.57,0,0,1-1.256-.455,6.932,6.932,0,0,1-2.042-4.895c-.017-3.229-.111-21.27-.134-25.7C42.979,42.062,51.3,34.3,61.245,34.3h2.512c9.938,0,18.266,7.758,18.214,17.581l-.035,6.728a1.831,1.831,0,1,0,3.662.019l.035-6.728a20.773,20.773,0,0,0-6.046-14.7,22.4,22.4,0,0,0-6.162-4.375l-2.53-9.441a13.146,13.146,0,0,1,3.411-12.73l4.665-4.665a47.988,47.988,0,0,1,9.236,4.1,7.232,7.232,0,0,1,3.606,6.246ZM59.115,50a1.831,1.831,0,0,0-1.831,1.831v2.516H55.326a.766.766,0,0,1-.765-.765v-.308a7.66,7.66,0,0,1,7.651-7.651h.577a7.66,7.66,0,0,1,7.651,7.651v.308a.766.766,0,0,1-.766.765H67.716V51.834a1.831,1.831,0,1,0-3.662,0v2.577a3.606,3.606,0,0,0,2.324,3.367l-.019.033a1.969,1.969,0,0,1-1.7.982H60.341a1.968,1.968,0,0,1-1.7-.981l-.019-.033a3.606,3.606,0,0,0,2.324-3.367V51.833A1.831,1.831,0,0,0,59.115,50ZM62.5,70.825c.227.231-.824-.824,2.318,2.318a46.547,46.547,0,0,1,6.406,8,3.932,3.932,0,0,1-2.134,1.414,25.573,25.573,0,0,1-13.18,0,3.932,3.932,0,0,1-2.134-1.414,46.563,46.563,0,0,1,6.405-8c3.1-3.1,2.123-2.12,2.318-2.318ZM64.236,3.662a47.914,47.914,0,0,1,10.673,1.2L71.716,8.058a16.8,16.8,0,0,0-4.359,16.267l1.87,6.98a22.533,22.533,0,0,0-5.472-.67H61.244a22.533,22.533,0,0,0-5.472.67l1.87-6.98A16.8,16.8,0,0,0,53.284,8.058L50.091,4.865a47.917,47.917,0,0,1,10.673-1.2ZM24.08,67.439,12.606,55.965a9.636,9.636,0,0,1-2.841-6.859,25.09,25.09,0,0,1,7.4-17.858L22.2,26.213a16.767,16.767,0,0,0,4.333-7.506,6.369,6.369,0,0,1,3.111-3.965,10.8,10.8,0,0,0-.118,1.589V28.838a1.831,1.831,0,0,0,3.662,0V16.332a7.234,7.234,0,0,1,3.606-6.247,48,48,0,0,1,9.236-4.1l4.665,4.665a13.148,13.148,0,0,1,3.411,12.73l-2.53,9.441a22.413,22.413,0,0,0-6.162,4.375,20.776,20.776,0,0,0-6.046,14.7l.1,19.9a6.786,6.786,0,0,1-.836-1.9L36.3,61.171c0-.018-.009-.035-.014-.052l-1.276-4.762a53.389,53.389,0,0,1-1.819-13.814V37.383a1.831,1.831,0,1,0-3.662,0v5.159A57.056,57.056,0,0,0,31.468,57.3l1.162,4.338A42.57,42.57,0,0,1,28.123,72.9l-1.131,1.958L25.8,70.423a6.664,6.664,0,0,0-1.723-2.984Zm84.086,53.671a.182.182,0,0,1-.176.228H17.01a.182.182,0,0,1-.176-.228L26.859,83a26.825,26.825,0,0,1,1.451-4.115,3.21,3.21,0,0,0,1.313-1.253l1.671-2.895a46.241,46.241,0,0,0,3.1-6.5l.7,2.612a10.477,10.477,0,0,0,4.4,6.061l0,.685a10.572,10.572,0,0,0,3.115,7.465q.065.065.132.127l-1.63,2.823a5.987,5.987,0,0,1-8.936,1.657c-.347-.278-.7-.57-1.04-.866a2.244,2.244,0,0,0-3.64,2.274l1.027,3.831a19.274,19.274,0,0,0,2.7,5.89,2.187,2.187,0,0,0-.559,2.1l.894,3.338A17.009,17.009,0,0,0,50.54,118.671a1.831,1.831,0,0,0-.613-3.611,13.334,13.334,0,0,1-14.744-9.486,34.061,34.061,0,0,0,5.589,2.452,1.831,1.831,0,0,0,1.162-3.473,15.258,15.258,0,0,1-9.866-10.592l-.035-.132A9.64,9.64,0,0,0,44.29,89.845l1.876-3.25a5.313,5.313,0,0,0,.625-.019,7.786,7.786,0,0,0,4.87-2.324,7.652,7.652,0,0,0,3.3,1.847,29.12,29.12,0,0,0,15.076,0,7.653,7.653,0,0,0,3.3-1.847,7.789,7.789,0,0,0,4.87,2.324,5.3,5.3,0,0,0,.625.019l1.876,3.25A9.641,9.641,0,0,0,92.968,93.83l-.035.132a15.258,15.258,0,0,1-9.866,10.592,1.831,1.831,0,0,0,1.162,3.473,34.075,34.075,0,0,0,5.589-2.452,13.509,13.509,0,0,1-10.342,9.433,12.342,12.342,0,0,1-11.1-3.411l-2.267-2.267a6.023,6.023,0,0,1-1.776-4.287,1.831,1.831,0,1,0-3.662,0,6.023,6.023,0,0,1-1.776,4.287L56.626,111.6a1.831,1.831,0,0,0,2.589,2.59l2.267-2.267a9.843,9.843,0,0,0,1.017-1.193,9.861,9.861,0,0,0,1.017,1.193l2.267,2.267A16.027,16.027,0,0,0,77.116,118.9a17.132,17.132,0,0,0,16.319-12.664l.895-3.338a2.187,2.187,0,0,0-.559-2.1,19.273,19.273,0,0,0,2.7-5.89L97.5,91.079A2.244,2.244,0,0,0,93.857,88.8c-.342.3-.692.588-1.039.867a5.987,5.987,0,0,1-8.937-1.657l-1.63-2.823c.045-.042.089-.084.133-.128A10.573,10.573,0,0,0,85.5,77.6l0-.685a10.477,10.477,0,0,0,4.4-6.061l.7-2.612a46.237,46.237,0,0,0,3.1,6.5l1.671,2.9a3.207,3.207,0,0,0,1.313,1.253A26.848,26.848,0,0,1,98.141,83Zm4.228-65.145L100.92,67.439A6.665,6.665,0,0,0,99.2,70.423l-1.19,4.439L96.877,72.9a42.573,42.573,0,0,1-4.508-11.261L93.532,57.3a57.054,57.054,0,0,0,1.943-14.762V16.332a10.806,10.806,0,0,0-.118-1.589,6.371,6.371,0,0,1,3.112,3.965,16.764,16.764,0,0,0,4.333,7.506l5.035,5.035a25.09,25.09,0,0,1,7.4,17.858,9.636,9.636,0,0,1-2.841,6.859Z"/>
        <path id="Trazado_120483" data-name="Trazado 120483" d="M78.325,15.456a5.53,5.53,0,0,0-5.2,3.664,1.831,1.831,0,1,0,3.449,1.231,1.857,1.857,0,0,1,3.062-.688l3.58,3.58a8.451,8.451,0,0,1,2.492,6.016v2.4a1.831,1.831,0,0,0,3.662,0v-2.4a12.091,12.091,0,0,0-3.564-8.605l-3.58-3.58a5.481,5.481,0,0,0-3.9-1.616Z"/>
        <path id="Trazado_120484" data-name="Trazado 120484" d="M37.459,33.492a1.831,1.831,0,0,0,1.831-1.831v-2.4a8.451,8.451,0,0,1,2.492-6.016l3.58-3.58a1.857,1.857,0,0,1,3.062.688,1.831,1.831,0,1,0,3.449-1.231,5.52,5.52,0,0,0-9.1-2.048l-3.58,3.58a12.091,12.091,0,0,0-3.564,8.605v2.4A1.831,1.831,0,0,0,37.459,33.492Z"/>
      </g>
    </g>
  </g>
</svg>
