<svg xmlns="http://www.w3.org/2000/svg" xmlns:xlink="http://www.w3.org/1999/xlink" width="133" height="133" viewBox="0 0 133 133">
  <defs>
    <clipPath id="clip-path">
      <rect id="Rect치ngulo_35033" data-name="Rect치ngulo 35033" width="101" height="101" transform="translate(750 16163)" fill="#fff" stroke="#707070" stroke-width="1"/>
    </clipPath>
  </defs>
  <g id="Grupo_94726" data-name="Grupo 94726" transform="translate(-734 -16147)">
    <g id="_240_F_45534235_0gBPChSdgLWL7NQO2mupYcpNQvC23RWu" data-name="240_F_45534235_0gBPChSdgLWL7NQO2mupYcpNQvC23RWu" transform="translate(734 16147)" fill="#ccfff0" stroke="#21155c" stroke-width="3">
      <circle cx="66.5" cy="66.5" r="66.5" stroke="none"/>
      <circle cx="66.5" cy="66.5" r="65" fill="none"/>
    </g>
    <g id="Enmascarar_grupo_303" data-name="Enmascarar grupo 303" clip-path="url(#clip-path)">
      <g id="brand-image" transform="translate(750 16163)">
        <g id="Grupo_94624" data-name="Grupo 94624">
          <path id="Trazado_122025" data-name="Trazado 122025" d="M99.521,61.6V39.4a2.968,2.968,0,0,0-2.959-2.959H4.438A2.968,2.968,0,0,0,1.479,39.4V61.6a2.968,2.968,0,0,0,2.959,2.959H96.562A2.968,2.968,0,0,0,99.521,61.6Z" fill="#ffc277" fill-rule="evenodd"/>
          <path id="Trazado_122026" data-name="Trazado 122026" d="M83.115,64.555H17.885a35.519,35.519,0,0,0,65.23,0Zm0-28.11H17.885a35.519,35.519,0,0,1,65.23,0Z" fill="#fff" fill-rule="evenodd"/>
          <path id="Trazado_122027" data-name="Trazado 122027" d="M83.115,64.555H17.885a35.432,35.432,0,0,0,2.3,4.438H80.814A35.418,35.418,0,0,0,83.115,64.555ZM20.186,32.006H80.814a35.406,35.406,0,0,1,2.3,4.438H17.885a35.419,35.419,0,0,1,2.3-4.438Z" fill="#9ce4f8" fill-rule="evenodd"/>
          <path id="Trazado_122028" data-name="Trazado 122028" d="M50.5,86.008A35.515,35.515,0,0,1,17.885,64.555H8.721l-.29,10.233,11.544,6.236,6.236,11.544L39.327,92.2,50.5,99.077,61.673,92.2l13.116.372,6.236-11.544,11.544-6.236-.29-10.233H83.115A35.515,35.515,0,0,1,50.5,86.008Zm0-71.016A35.515,35.515,0,0,0,17.885,36.445H8.722l-.29-10.233,11.544-6.236L26.211,8.432,39.327,8.8,50.5,1.923,61.673,8.8l13.116-.372,6.236,11.544,11.544,6.236-.29,10.233H83.115A35.514,35.514,0,0,0,50.5,14.992Z" fill="#ffc277" fill-rule="evenodd"/>
          <g id="Grupo_94623" data-name="Grupo 94623">
            <path id="Trazado_122029" data-name="Trazado 122029" d="M20.186,68.994a35.4,35.4,0,0,1-2.3-4.438H8.721L8.6,68.994Zm72.219,0-.126-4.438H83.115a35.432,35.432,0,0,1-2.3,4.438ZM8.6,32.006h11.59a35.405,35.405,0,0,0-2.3,4.438H8.722Zm72.219,0H92.4l-.126,4.438H83.115A35.392,35.392,0,0,0,80.814,32.006Z" fill="#f69500" fill-rule="evenodd"/>
            <path id="Trazado_122030" data-name="Trazado 122030" d="M8.877,36.445H4.438A2.968,2.968,0,0,0,1.479,39.4V61.6a2.968,2.968,0,0,0,2.959,2.959H8.877A2.968,2.968,0,0,1,5.918,61.6V39.4A2.968,2.968,0,0,1,8.877,36.445Z" fill="#f69500" fill-rule="evenodd"/>
          </g>
        </g>
        <g id="Grupo_94625" data-name="Grupo 94625">
          <path id="Trazado_122031" data-name="Trazado 122031" d="M49.021,63.076h2.959v2.959H49.021Z"/>
          <path id="Trazado_122032" data-name="Trazado 122032" d="M96.562,34.965H93.8l.273-9.622L82.116,18.884,75.657,6.927l-13.585.385L50.5.186,38.928,7.311,25.343,6.927,18.884,18.884,6.927,25.343,7.2,34.965H4.438A4.443,4.443,0,0,0,0,39.4V61.6a4.444,4.444,0,0,0,4.438,4.438H7.2l-.273,9.622,11.957,6.459,6.459,11.957,13.585-.385L50.5,100.814l11.572-7.126,13.585.385,6.459-11.957,11.957-6.459L93.8,66.035h2.761A4.444,4.444,0,0,0,101,61.6V39.4A4.443,4.443,0,0,0,96.562,34.965ZM9.936,27.08l11.132-6.013L27.08,9.936l12.647.358L50.5,3.661l10.773,6.634,12.646-.358,6.013,11.131,11.132,6.013-.223,7.885H84.072a37,37,0,0,0-52.59-16.194l1.524,2.536A34.043,34.043,0,0,1,80.781,34.965H20.219A34.16,34.16,0,0,1,30.63,22.875l-1.73-2.4A37.1,37.1,0,0,0,16.93,34.965H10.16ZM91.064,73.92,79.932,79.932,73.92,91.064l-12.646-.358L50.5,97.339,39.727,90.705l-12.647.358L21.068,79.932,9.936,73.919l.224-7.885h6.768a37,37,0,0,0,67.145,0H90.84ZM98.041,61.6a1.481,1.481,0,0,1-1.479,1.479H54.938v2.959H80.781a34.037,34.037,0,0,1-60.562,0H46.062V63.076H4.438A1.481,1.481,0,0,1,2.959,61.6V39.4a1.481,1.481,0,0,1,1.479-1.479H96.562A1.481,1.481,0,0,1,98.041,39.4Z"/>
          <path id="Trazado_122033" data-name="Trazado 122033" d="M59.377,22.389h2.959v2.959H59.377Z"/>
          <path id="Trazado_122034" data-name="Trazado 122034" d="M65.295,25.349h2.959v2.959H65.295Z"/>
          <path id="Trazado_122035" data-name="Trazado 122035" d="M47.811,43.042,42.423,57.189l2.765,1.053,1.284-3.372h5.187l1.271,3.369L55.7,57.2,50.357,43.039Zm-.212,8.87,1.478-3.881,1.465,3.881Z"/>
          <path id="Trazado_122036" data-name="Trazado 122036" d="M70.011,52l-5.627-8.955H61.561V57.959H64.52v-9.14l5.627,8.955H72.97V43.018H70.011Z"/>
          <path id="Trazado_122037" data-name="Trazado 122037" d="M83.5,43.018H78.73V57.6h4.895c3.507-.061,6.053-3.128,6.053-7.293,0-4.362-2.482-7.293-6.175-7.293Zm.082,11.627h-1.9V45.977H83.5c1.555,0,3.216,1.139,3.216,4.334C86.719,53.244,85.1,54.612,83.585,54.645Z"/>
          <path id="Trazado_122038" data-name="Trazado 122038" d="M19.83,49.593a4.236,4.236,0,0,0-3.548-6.552h-4.96V57.982H16.89a4.712,4.712,0,0,0,2.94-8.389ZM14.281,46h2a1.279,1.279,0,0,1,0,2.558h-2Zm2.609,9.023H14.281V51.517H16.89a1.753,1.753,0,0,1,0,3.505Z"/>
          <path id="Trazado_122039" data-name="Trazado 122039" d="M36.792,47.635a4.689,4.689,0,0,0-4.769-4.593H27.358l0,14.94h2.959V53.02l4.46,5.272,2.259-1.911-3.67-4.339A4.629,4.629,0,0,0,36.792,47.635ZM30.316,46h1.707a1.643,1.643,0,1,1-.008,3.269l-1.7.009Z"/>
        </g>
      </g>
    </g>
    <rect id="Rect치ngulo_34073" data-name="Rect치ngulo 34073" width="18.053" height="18.053" rx="2" transform="matrix(0.945, 0.327, -0.327, 0.945, 836.325, 16252.129)" fill="#764cf0"/>
  </g>
</svg>
