<svg xmlns="http://www.w3.org/2000/svg" xmlns:xlink="http://www.w3.org/1999/xlink" width="400" height="362" viewBox="0 0 400 362"><defs><clipPath id="a"><rect width="400" height="362" transform="translate(180 366)" fill="#fff" stroke="#707070" stroke-width="1"/></clipPath><clipPath id="b"><path d="M120.031,0,324.564,99.34c8.239,0,48.871-5.47,48.871-5.47L339.482,289.788a14.918,14.918,0,0,1-14.918,14.918H149.034a14.918,14.918,0,0,1-14.918-14.918L133.029,256l-46.92,32.957L0,247.136Z" transform="translate(0 163.149) rotate(-25.905)" fill="#ffd41c"/></clipPath></defs><g transform="translate(-180 -366)" clip-path="url(#a)"><rect width="227.879" height="227.879" rx="16.363" transform="translate(241.937 486.322) rotate(-25.905)" fill="#ffd41c"/><g transform="translate(110.966 307.065)" clip-path="url(#b)"><g transform="translate(116.481 110.609)"><g transform="translate(0 0)"><path d="M523.506,172.806a113.086,113.086,0,0,1-51.362,94.762c-1.794,1.183-3.628,2.3-5.489,3.37l-.2.123a112.4,112.4,0,0,1-32.624,12.406,113.1,113.1,0,0,1-83.511-14.839l-.449-.285a113.915,113.915,0,0,1-28.289-25.531,112.956,112.956,0,0,1,1.74-142.144v-.014c.162-.2.326-.406.516-.611l.013-.014q3.446-4.117,7.3-7.894a3.413,3.413,0,0,1,.394-.367c1.793-1.767,3.628-3.452,5.544-5.083h.014a112.767,112.767,0,0,1,28.929-17.935c.488-.217.978-.422,1.48-.625h.014a113.372,113.372,0,0,1,61.811-6.835c1.875.3,3.737.666,5.571,1.074.271.054.543.123.816.176,1.427.326,2.839.679,4.239,1.074a113.036,113.036,0,0,1,83.552,109.192Z" transform="translate(-203.239 -19.845)" fill="#21155c"/><g transform="translate(158.328)"><path d="M360.613,43.416a9.337,9.337,0,0,1,5.721-4.37c9.933-2.579,20.347-3.707,30.234-1.2,11.471,2.91,22.036,11.592,24.409,23.186.92,4.487.6,9.133.1,13.686a3.293,3.293,0,0,0,.169,1.921,3.561,3.561,0,0,0,1.812,1.309c7.331,3.363,12.035,11.231,12.711,19.268s-2.289,16.095-7.041,22.613a31.4,31.4,0,0,1-11.012,9.787,35.363,35.363,0,0,1-9.262,2.918A88.579,88.579,0,0,1,393.223,134c-10.473.162-21.756.646-31.356-3.962a34.429,34.429,0,0,1-18.182-23.492,40.01,40.01,0,0,1,5.481-29.476c.234-.373-2.436-6.866-2.6-7.9a23.263,23.263,0,0,1,3.054-15.377,21.571,21.571,0,0,1,5.331-6.157c.679-.509,4.6-3.079,5.344-2.3C359.873,44.886,360.172,44.176,360.613,43.416Z" transform="translate(-342.847 -29.406)" fill="#26d19e"/><path d="M385.963,39.735a17.1,17.1,0,0,1,7.333-7.246,11.807,11.807,0,0,1,16.4,8.21c3.505-4.077,9.226-4.087,14.282-2.263a15.039,15.039,0,0,1,9.49,12.039,16.67,16.67,0,0,1-5.637,14.419,9.727,9.727,0,0,1,8.966,5.029,13.917,13.917,0,0,1,.684,10.434,18.466,18.466,0,0,1-11.289,11.867c-6.457,2.3-13.87.714-19.614-3.028s-9.995-9.413-13.263-15.44C388.233,64.38,386.543,50.385,385.963,39.735Z" transform="translate(-325.122 -31.456)" fill="#26d19e"/><g transform="translate(26.135 74.88)"><path d="M361.368,102.425v20.289l37.067-.188,4.436-38.006Z" transform="translate(-361.368 -84.521)" fill="#ffe1c2"/><path d="M361.368,104.184v10.5a31.263,31.263,0,0,0,13.006-.315c11.99-2.968,22.081-10.578,24.334-23.338A80.421,80.421,0,0,1,361.368,104.184Z" transform="translate(-361.368 -81.843)" fill="#0b0a10"/></g><g transform="translate(4.416 7.499)"><g transform="translate(0 1.716)"><path d="M358.012,125.515c17.125,10.448,43.281,5.492,49.725-16.3A200.943,200.943,0,0,0,413.086,86.9c.549-3.15.852-5.606,1.04-7.355a35.03,35.03,0,0,0,.794-7.312,34.471,34.471,0,0,0-66.433-12.69c-2.659,6.626-2.417,13.57-2.485,20.56-.051,5.231-.069,10.435.353,15.659.744,9.176,2.127,20.873,9.054,27.7A14.4,14.4,0,0,0,358.012,125.515Z" transform="translate(-345.976 -37.986)" fill="#ffe1c2"/><g transform="translate(5.423 49.026)"><ellipse cx="2.638" cy="3.044" rx="2.638" ry="3.044" transform="translate(24.061 0.78)" fill="#0b0a10"/><path d="M349.82,75.773a2.665,2.665,0,1,0,2.639-3.044A2.863,2.863,0,0,0,349.82,75.773Z" transform="translate(-349.82 -72.729)" fill="#0b0a10"/><g transform="translate(8.931 19.724)"><path d="M356.149,88.114c.735,1.547,1.849,3.291,3.564,3.031,1.874-.284,2.5-2.632,2.949-4.438Z" transform="translate(-356.149 -86.707)" fill="#fff"/></g></g><path d="M358,70.111a47.9,47.9,0,0,1-1.352,12.113,4.844,4.844,0,0,1-.786,1.911c-.428.538-1.062.886-1.468,1.441a3.149,3.149,0,0,0,.086,3.418,9.271,9.271,0,0,0,2.613,2.481" transform="translate(-342.707 -24.78)" fill="none" stroke="#0b0a10" stroke-linecap="round" stroke-linejoin="round" stroke-width="0.512"/><g transform="translate(4.178 40.744)"><path d="M370.348,71.3c4.112-.295,1.6-4.929-1.438-4.4-1.079.189-2.877,1.551-2.845,2.78C366.109,71.306,369.133,71.385,370.348,71.3Z" transform="translate(-341.896 -66.86)" fill="#f34919"/><path d="M351.092,71.544c-4.113-.295-1.6-4.929,1.437-4.4,1.079.19,2.877,1.552,2.845,2.781C355.331,71.553,352.305,71.632,351.092,71.544Z" transform="translate(-348.937 -66.759)" fill="#f34919"/></g><g transform="translate(56.538 43.826)"><path d="M400.312,69.169a9,9,0,0,1,6.457,4.977,12.337,12.337,0,0,1,.734,8.272,15.537,15.537,0,0,1-13.7,11.548,8,8,0,0,1-4.676-.9,7,7,0,0,1-3.049-5.45,15.7,15.7,0,0,1,1.077-6.346C389.153,75.46,392.735,67.984,400.312,69.169Z" transform="translate(-386.044 -69.044)" fill="#ffe1c2"/><path d="M398.6,75.292a9.031,9.031,0,0,0-4.072,2.551,27.01,27.01,0,0,0-2.939,3.868" transform="translate(-383.765 -66.476)" fill="none" stroke="#0b0a10" stroke-linecap="round" stroke-linejoin="round" stroke-width="0.55"/></g></g><path d="M364.073,37.832a12.264,12.264,0,0,0-9.751,12.557,23.323,23.323,0,0,0,1.163,6.059,17.516,17.516,0,0,0,4.5,7.431,13.257,13.257,0,0,0,12.621,2.881,22.375,22.375,0,0,0,11.6,20.1c7.16,3.916,18.88,2.955,24.982-2.467,2.948-2.619,2.977-6.343,3.094-10.253a36.419,36.419,0,0,0-2.049-13.321c-2.062-5.787-5.127-11.426-9.858-15.372a37.808,37.808,0,0,0-10.985-5.962A45.444,45.444,0,0,0,364.073,37.832Z" transform="translate(-342.553 -36.77)" fill="#26d19e"/></g></g><path d="M494.368,265.578H458.754l-1.875-15.9-2.759-23.3L451.7,242.681l-.517,10.49a112.4,112.4,0,0,1-32.624,12.406H371.737a112.522,112.522,0,0,1-36.687-14.839l-.191-38.236-.08-16.658-.15-22.38-.19-30s.217-.176.625-.5c1.82-1.427,7.418-5.788,14.009-10.53,7.309-5.245,15.856-10.953,21.794-13.6l1.209-12.23s.123.123.367.34A17.712,17.712,0,0,0,378.1,110.2l.013.014a21.222,21.222,0,0,0,10.1.978c5.776-.775,12.08-3.138,16.551-5.1,3.6-1.576,6.006-2.88,6.006-2.88l.068.217.543,1.753,3.207,10.177a108.691,108.691,0,0,1,21.672,9,99.924,99.924,0,0,1,12.474,7.976,73.581,73.581,0,0,1,14.77,14.594c12.093,16.225,21.5,41.225,26.416,69.719a263.677,263.677,0,0,1,3.763,38.521Z" transform="translate(-187.975 -1.955)" fill="#fedf5c"/><path d="M359.618,131.838l-52.385,35.387-3.468-35.733L276.009,136s-12.142,83.956,13.877,86.384,79.793-26.366,79.793-26.366Z" transform="translate(-213.158 9.669)" fill="#fedf5c"/><g transform="translate(146.627 122.403)"><path d="M451.655,236.522l-.312,10.367-.2.123a112.4,112.4,0,0,1-32.624,12.406A113.1,113.1,0,0,1,335,244.579l-.449-.285.123-37.884.055-16.726-.15-22.38.38-26.361v-.027l.055-4.118c1.82-1.427,7.418-5.788,14.009-10.53l.964,29.919a35.519,35.519,0,0,0,39.216,34.188c.406-.041.828-.095,1.249-.137a35.317,35.317,0,0,0,30.4-28.548c2.718-14.118,7.473-31.985,15.354-43.494a99.923,99.923,0,0,1,12.474,7.975c-4.089,9.879-13.3,34.473-14.376,57.613C432.917,213.627,451.655,236.522,451.655,236.522Z" transform="translate(-334.554 -118.199)" fill="#764cf0"/><g transform="translate(5.5 69.986)"><path d="M345.853,171.5a3.7,3.7,0,1,1-3.7-3.7A3.7,3.7,0,0,1,345.853,171.5Z" transform="translate(-338.452 -167.796)" fill="none" stroke="#faf0e3" stroke-miterlimit="10" stroke-width="0.241"/><path d="M403.219,171.5a3.7,3.7,0,1,1-3.7-3.7A3.7,3.7,0,0,1,403.219,171.5Z" transform="translate(-314.869 -167.796)" fill="none" stroke="#faf0e3" stroke-miterlimit="10" stroke-width="0.241"/><path d="M349.8,175.664H411.09s2.081,31.453-29.836,31.453C345.868,207.117,349.8,175.664,349.8,175.664Z" transform="translate(-333.841 -164.562)" fill="none" stroke="#faf0e3" stroke-miterlimit="10" stroke-width="0.241"/></g></g><g transform="translate(0 12.021)"><path d="M276.479,149.393l-1.909-15.959,27.581-17.347s8.327-17,11.1-16.305-1.214,20.3-3.468,26.019-7.112,19.6-7.112,19.6Z" transform="translate(-212.586 -15.396)" fill="#ffe1c2"/><path d="M302.037,91.354s-24.932,37.97-23.921,39.3,10.223,7.693,13.611,6.319,21.886-40.326,21.886-40.326Z" transform="translate(-211.14 -18.853)" fill="#26d19e"/><path d="M370.515,102.392c-.461,9.253-6.251,33.073-14.579,32.842-7.487-.2-29.092-12.814-45.968-17.5-1.849-.516-3.656-.937-5.368-1.236-15.925-2.759-45.465-6.875-62.912-.924a6.814,6.814,0,0,1-3.751.2,5.92,5.92,0,0,1-1.834-.653,6.673,6.673,0,0,1-2.921-3.1c-2.31-4.946-4.077-13.913-.516-29.3,4.593-19.824,9.186-33.82,17.244-41.063a6.647,6.647,0,0,1,7.623-.883,6.76,6.76,0,0,1,1.373.965,6.59,6.59,0,0,1,1.263,1.523c3.574,5.924,9.959,14.919,18.289,20.028,10.871,6.672,28,13.819,45.479,19.744,3.737,1.263,7.486,2.472,11.2,3.614C356.166,93.138,370.977,93.138,370.515,102.392Z" transform="translate(-230.644 -39.974)" fill="#26d19e"/><path d="M257.233,60.215c-.258,2.555-.543,5.11-.91,7.637A106.649,106.649,0,0,1,252.8,84.578c-1.1,3.532-2.419,6.983-3.833,10.381-.421,1.031-.855,2.052-1.3,3.071-1.957,4.511-5.2,13.506-9.729,17.746a5.92,5.92,0,0,1-1.834-.653,6.673,6.673,0,0,1-2.921-3.1c-2.31-4.946-4.077-13.913-.516-29.3,4.593-19.824,9.186-33.82,17.244-41.063a6.647,6.647,0,0,1,7.623-.883A90.251,90.251,0,0,1,257.233,60.215Z" transform="translate(-230.644 -39.974)" fill="#764cf0"/><g transform="translate(79.325 43.069)"><g transform="translate(54.337 25.287)"><path d="M338.112,100.237a7.946,7.946,0,0,1-5.409,4.81,9.843,9.843,0,0,1-3.452.313,12.438,12.438,0,0,1-3.886-.992c.543-5.952,3.085-10.287,4.96-15.952l.72.244a12.3,12.3,0,0,1,5.735,4.1A8.234,8.234,0,0,1,338.112,100.237Z" transform="translate(-325.366 -88.416)" fill="#764cf0"/><path d="M329.252,105.36a12.438,12.438,0,0,1-3.886-.992c.543-5.952,3.085-10.287,4.96-15.952l.72.244A53.212,53.212,0,0,1,329.252,105.36Z" transform="translate(-325.366 -88.416)" fill="#764cf0" opacity="0.46"/></g><path d="M347.406,89.845c-.461,9.253-6.251,33.073-14.579,32.842-2.324-.055-6.02-1.318-10.5-3.166-.095-.041-.2-.08-.312-.135-1.168-.476-2.392-1.006-3.656-1.562-.094-.041-.2-.082-.312-.137-9.416-4.116-21.142-9.715-31.184-12.5A30.813,30.813,0,0,0,293,97.074,63.879,63.879,0,0,0,300.827,70.5c3.737,1.263,7.486,2.472,11.2,3.614,7.161,2.215,13.6,3.669,18.969,4.987l.326.082c1.779.449,3.437.869,4.946,1.318a2.838,2.838,0,0,1,.326.095C343.6,82.63,347.65,84.94,347.406,89.845Z" transform="translate(-286.859 -70.496)" fill="#764cf0"/><g transform="translate(31.184 8.601)"><path d="M326.349,77.678a78.3,78.3,0,0,1-7.772,29.011,40.689,40.689,0,0,1-6.5,9.919c-.094-.041-.2-.08-.312-.135a41.082,41.082,0,0,0,6.508-9.933,78.019,78.019,0,0,0,7.745-28.956A2.832,2.832,0,0,1,326.349,77.678Z" transform="translate(-307.802 -76.183)" fill="#faf0e3"/><path d="M322.233,76.673a92.222,92.222,0,0,1-12.964,38.644c-.095-.041-.2-.082-.312-.137a91.786,91.786,0,0,0,12.95-38.589Z" transform="translate(-308.958 -76.591)" fill="#faf0e3"/></g></g><g transform="translate(10.548 27.877)"><path d="M253.25,59.73c-.2,1.535-.435,3.058-.707,4.579a96.637,96.637,0,0,1-2.812,12.148c-1.1,3.532-2.419,6.983-3.833,10.381-.476-.4-1.087-.924-1.765-1.549-2.732-2.527-6.413-6.59-5.979-9.756.693-4.973,3.124-13.071,5.544-14.335C245.26,60.369,250.043,59.947,253.25,59.73Z" transform="translate(-238.119 -59.73)" fill="#fff"/><path d="M250.791,62.975a96.637,96.637,0,0,1-2.812,12.148c-1.1,3.532-2.419,6.983-3.833,10.381-.476-.4-1.087-.924-1.765-1.549A94.775,94.775,0,0,0,250.791,62.975Z" transform="translate(-236.367 -58.396)" fill="#b7b8fb" opacity="0.32"/></g><g transform="translate(60.35 81.309)"><path d="M290.376,102.927s1.387-6.591,6.677-5.117c4.961,1.381,8.167,13.209,6.047,18.255a2.637,2.637,0,0,1-1.42,1.379,4.283,4.283,0,0,1-2.285.4s.433,3.816-2,4.683-2.949.347-2.949.347,1.388,4.51-1.3,6.158-4.336,1.3-4.336,1.3,1.041,3.123-1.475,3.556-6.591-3.123-6.591-3.123l-5.725,3.556s-4.422-16.652,1.648-18.648c0,0,.954-6.157,7.112-6.071C283.783,109.606,284.13,102.668,290.376,102.927Z" transform="translate(-273.39 -97.596)" fill="#ffe1c2"/><path d="M285.45,102.907s.665-5.262,5.406-5.262,6.823,6.708,7.343,9.425,2.6,10.755-3.729,10.755" transform="translate(-268.464 -97.575)" fill="none" stroke="#0b0a10" stroke-linecap="round" stroke-linejoin="round" stroke-width="0.241"/><path d="M280.778,108.044s.319-4.713,3.152-5.984,4.8-.694,6.475,1.561a42.957,42.957,0,0,1,3.765,6.7c1.274,2.574,3.549,7.108,1.271,9.715a4.787,4.787,0,0,1-4,1.28" transform="translate(-270.384 -96.033)" fill="none" stroke="#0b0a10" stroke-linecap="round" stroke-linejoin="round" stroke-width="0.241"/><path d="M275.738,112.165s.492-3.844,3.382-5.174,5.031-1.156,7.054.868,5.2,5.781,6.361,8.615a16.611,16.611,0,0,1,1.2,5.184,4.8,4.8,0,0,1-1.1,3.775,5.22,5.22,0,0,1-4.439,1.218" transform="translate(-272.456 -94.084)" fill="none" stroke="#0b0a10" stroke-linecap="round" stroke-linejoin="round" stroke-width="0.241"/><path d="M274.7,128.153s-3.47-14.745.982-17.231,8.558,3.989,9.54,5.55,4.278,7.748,3.875,10.061-2.544,3.007-6.477-.058-5.031-5.376-5.031-5.376" transform="translate(-273.412 -92.348)" fill="none" stroke="#0b0a10" stroke-linecap="round" stroke-linejoin="round" stroke-width="0.241"/></g></g><g transform="translate(59.845 5.92)"><path d="M281.171,35.651h84.607a8.114,8.114,0,0,1,8.115,8.115V61.378a8.115,8.115,0,0,1-8.115,8.115h-23.6l2.021,17.613L331.2,69.493H281.171a8.116,8.116,0,0,1-8.117-8.115V43.766A8.115,8.115,0,0,1,281.171,35.651Z" transform="translate(-273.054 -35.651)" fill="#764cf0"/><g transform="translate(11.623 7.918)"><rect width="75.976" height="2.775" fill="#faf0e3"/><rect width="75.976" height="2.775" transform="translate(0 6.592)" fill="#faf0e3"/><rect width="75.976" height="2.775" transform="translate(0 13.183)" fill="#faf0e3"/></g></g><g transform="translate(99.857 45.987)"><g transform="translate(7.524 18.709)"><path d="M319.312,121.9l7.782,2.394-7.782,2.394-2.394,7.782-2.394-7.782-7.782-2.394,7.782-2.394,2.394-7.782Z" transform="translate(-306.742 -62.172)" fill="#764cf0"/><path d="M343.477,118.718l5.743,1.767-5.743,1.767-1.767,5.743-1.767-5.743-5.743-1.767,5.743-1.767,1.767-5.743Z" transform="translate(-295.454 -62.639)" fill="#764cf0"/><path d="M343.477,83.046l5.743,1.767-5.743,1.767-1.767,5.743-1.767-5.743L334.2,84.813l5.743-1.767L341.71,77.3Z" transform="translate(-295.454 -77.304)" fill="#764cf0"/><path d="M437.366,130.906l5.743,1.767-5.743,1.767-1.767,5.743-1.767-5.743-5.743-1.767,5.743-1.767,1.767-5.743Z" transform="translate(-256.857 -57.629)" fill="#764cf0"/><path d="M452.773,142.38l5.743,1.767-5.743,1.767-1.767,5.743-1.767-5.743-5.743-1.767,5.743-1.767,1.767-5.743Z" transform="translate(-250.523 -52.912)" fill="#764cf0"/></g><ellipse cx="3.122" cy="3.122" rx="3.122" ry="3.122" transform="translate(50.42 52.501)" fill="#764cf0"/><ellipse cx="3.122" cy="3.122" rx="3.122" ry="3.122" transform="translate(0 2.082)" fill="#764cf0"/><ellipse cx="3.122" cy="3.122" rx="3.122" ry="3.122" transform="translate(41.4)" fill="#764cf0"/><ellipse cx="3.122" cy="3.122" rx="3.122" ry="3.122" transform="translate(0.983 101.938)" fill="#764cf0"/><ellipse cx="3.122" cy="3.122" rx="3.122" ry="3.122" transform="translate(202.026 81.47)" fill="#764cf0"/></g></g></g></g><g transform="translate(344.167 611.831)"><ellipse cx="41.898" cy="44.239" rx="41.898" ry="44.239" fill="#2b60ff"/><ellipse cx="41.898" cy="44.239" rx="41.898" ry="44.239" transform="translate(3.123)" fill="#f34919"/><ellipse cx="33.821" cy="35.711" rx="33.821" ry="35.711" transform="translate(11.2 8.528)" fill="#faf0e3"/><ellipse cx="23.725" cy="25.051" rx="23.725" ry="25.051" transform="translate(21.296 19.188)" fill="#f34919"/><ellipse cx="12.216" cy="12.899" rx="12.216" ry="12.899" transform="translate(32.805 31.34)" fill="#faf0e3"/><path d="M355.006,186.634l3.47-5.031,13.012-.694-6.419,5.9,4.337,6.419-11.1-.694Z" transform="translate(-283.788 -143.304)" fill="#b7b8fb"/><line x2="37.214" transform="translate(46.583 43.59)" fill="none" stroke="#0b0a10" stroke-linecap="round" stroke-linejoin="round" stroke-width="0.963"/></g><g transform="translate(466.746 599.344)"><path d="M464.407,156.179v52.858H394.919V156.179a5.666,5.666,0,0,1,5.671-5.67h58.147A5.666,5.666,0,0,1,464.407,156.179Z" transform="translate(-394.919 -150.509)" fill="#faf0e3"/><path d="M464.407,156.179v5.08H394.919v-5.08a5.666,5.666,0,0,1,5.671-5.67h58.147A5.666,5.666,0,0,1,464.407,156.179Z" transform="translate(-394.919 -150.509)" fill="#26d19e"/><g transform="translate(49.302 3.995)"><ellipse cx="1.724" cy="1.724" rx="1.724" ry="1.724" fill="#f34919"/><ellipse cx="1.724" cy="1.724" rx="1.724" ry="1.724" transform="translate(5.515)" fill="#ffd387"/><ellipse cx="1.724" cy="1.724" rx="1.724" ry="1.724" transform="translate(11.228)" fill="#b7b8fb"/></g><g transform="translate(8.34 18.817)"><rect width="14.54" height="30.886" fill="#764cf0"/><rect width="14.54" height="26.336" transform="translate(17.984 4.55)" fill="#ffd41c"/><rect width="14.54" height="21.372" transform="translate(36.477 9.514)" fill="#26d19e"/></g><g transform="translate(5.169 40.121)"><path d="M401.063,210.6h55.568l4.826-11.169" transform="translate(-401.063 -198.396)" fill="none" stroke="#0b0a10" stroke-linecap="round" stroke-linejoin="round" stroke-width="0.963"/><path d="M469.411,201.613l3.206-3.413-.207,4.24" transform="translate(-411.913 -198.2)" fill="none" stroke="#0b0a10" stroke-linecap="round" stroke-linejoin="round" stroke-width="0.963"/></g></g><rect width="37.057" height="37.058" rx="8" transform="matrix(0.985, 0.174, -0.174, 0.985, 248.372, 515.952)" fill="#26d19e"/><ellipse cx="18.701" cy="18.701" rx="18.701" ry="18.701" transform="translate(517.533 521.48)" fill="#764cf0"/></g></svg>