<svg xmlns="http://www.w3.org/2000/svg" width="297.128" height="283.369" viewBox="0 0 297.128 283.369">
  <g id="Grupo_94620" data-name="Grupo 94620" transform="translate(-981.687 -14815.8)">
    <g id="Grupo_94618" data-name="Grupo 94618" transform="translate(80.495 14712.857)">
      <path id="Trazado_121966" data-name="Trazado 121966" d="M1190.374,297.217l-.98.486-1.466.733-23.659,11.744L1144.514,320l-7.014,3.486-6.852,3.4-7.014,3.486-41.982,20.855-6.554,3.256h-.008l-4.491,2.241-14.787,7.346L1023.2,380.261a14.291,14.291,0,0,1-19.159-6.443l-.409-.818-12.673-25.525-.162-.315-3.179-6.392a.03.03,0,0,1-.009-.017l-.051-.1-.077-.17-1.653-3.324-21.75-43.789h-.009l-1.006-2.028-.3-.6-.5-1.031-3.5-7.04-2.983-6.008-5.574-11.224-2.582-5.19-3.5-7.065-2.437-4.892-.367-.741-2.506-5.045-3.332-6.707-14.147-28.474-.332-.673a14.3,14.3,0,0,1,6.29-19.091l.153-.077,8.037-3.989,5.838-2.906,10.636-5.284,3.256-1.611,22.346-11.1.222-.111,31.125-15.46,5.591-2.778,16.176-8.037,12.1-6.008,51.843-25.755a14.3,14.3,0,0,1,19.167,6.452l9.588,19.3,2.983,6.008,5.378,10.815,4.474,9.008,3.2,6.452.051.111.759,1.508,6.1,12.3,1.3,2.616,15.886,32,.026.026.963,1.935,6.759,13.594.4.81,6.255,12.6,4.381,8.821,2.83,5.7,1.347,2.693.23.469,1.432,2.889.4.81a.026.026,0,0,1,.009.017l8.292,16.687A14.294,14.294,0,0,1,1190.374,297.217Z" transform="translate(0)" fill="#ffd41c"/>
      <g id="Grupo_94617" data-name="Grupo 94617" transform="translate(934.644 169.183)">
        <g id="Grupo_94604" data-name="Grupo 94604" transform="translate(11.993 0)">
          <g id="Grupo_94582" data-name="Grupo 94582">
            <path id="Trazado_121967" data-name="Trazado 121967" d="M1165.523,196.547v94.627a18.768,18.768,0,0,1-18.272,18.742c-.166.014-.332.014-.5.014H971.08l-2.529-5.094-4.725-9.515-2.19-4.4-2.969-5.99-2.067-4.147-.31-.628-2.125-4.277-2.825-5.686V199.437a18.769,18.769,0,0,1,18.771-18.771h179.53a15.876,15.876,0,0,1,15.873,15.62C1165.523,196.373,1165.523,196.46,1165.523,196.547Z" transform="translate(-951.341 -180.666)" fill="#76a9b7"/>
            <path id="Trazado_121968" data-name="Trazado 121968" d="M1161.432,198.521v95.313a11.9,11.9,0,0,1-11.879,11.886H969.41l-4.725-9.515-2.19-4.4-2.969-5.99-2.067-4.147-.31-.628V198.521a11.878,11.878,0,0,1,11.885-11.878h180.519a11.893,11.893,0,0,1,11.879,11.878Z" transform="translate(-952.199 -181.549)" fill="#e4f3f7"/>
          </g>
          <path id="Trazado_121969" data-name="Trazado 121969" d="M1113.922,358.455h-90.067a1.739,1.739,0,0,1-1.739-1.739h0a1.739,1.739,0,0,1,1.739-1.74h90.067a1.74,1.74,0,0,1,1.74,1.74h0A1.74,1.74,0,0,1,1113.922,358.455Z" transform="translate(-961.797 -206.419)" fill="#76a9b7"/>
          <path id="Trazado_121970" data-name="Trazado 121970" d="M1114.639,351.631h-91.071l7.763-19.294h75.545Z" transform="translate(-962.012 -203.074)" fill="#527480"/>
          <g id="Grupo_94602" data-name="Grupo 94602" transform="translate(13.966 14.263)">
            <rect id="Rectángulo_35009" data-name="Rectángulo 35009" width="186.251" height="89.266" transform="translate(0 13.104)" fill="#b4dfd5"/>
            <g id="Grupo_94584" data-name="Grupo 94584">
              <rect id="Rectángulo_35010" data-name="Rectángulo 35010" width="186.251" height="13.202" fill="#e6e6ce"/>
              <g id="Grupo_94583" data-name="Grupo 94583" transform="translate(3.442 4.046)">
                <circle id="Elipse_5614" data-name="Elipse 5614" cx="2.555" cy="2.555" r="2.555" fill="#ec7772"/>
                <path id="Trazado_121971" data-name="Trazado 121971" d="M987.941,204.7a2.556,2.556,0,1,0-2.555,2.556A2.555,2.555,0,0,0,987.941,204.7Z" transform="translate(-973.401 -202.149)" fill="#fdd17a"/>
                <circle id="Elipse_5615" data-name="Elipse 5615" cx="2.555" cy="2.555" r="2.555" transform="translate(18.858)" fill="#61bda6"/>
              </g>
            </g>
            <text id="BRAND" transform="translate(99.529 65.255)" fill="#fff" font-size="27" font-family="Montserrat-Black, Montserrat" font-weight="800"><tspan x="-53.379" y="0">BRAND</tspan></text>
            <rect id="Rectángulo_35011" data-name="Rectángulo 35011" width="22.061" height="64.972" transform="translate(8.676 23.055)" fill="#61bda6"/>
            <g id="Grupo_94585" data-name="Grupo 94585" transform="translate(10.533 25.159)">
              <rect id="Rectángulo_35012" data-name="Rectángulo 35012" width="8.296" height="8.296" fill="#b4dfd5"/>
              <rect id="Rectángulo_35013" data-name="Rectángulo 35013" width="8.296" height="8.296" transform="translate(10.051)" fill="#b4dfd5"/>
            </g>
            <g id="Grupo_94586" data-name="Grupo 94586" transform="translate(10.533 35.853)">
              <rect id="Rectángulo_35014" data-name="Rectángulo 35014" width="8.296" height="8.296" fill="#b4dfd5"/>
              <rect id="Rectángulo_35015" data-name="Rectángulo 35015" width="8.296" height="8.296" transform="translate(10.051)" fill="#b4dfd5"/>
            </g>
            <g id="Grupo_94587" data-name="Grupo 94587" transform="translate(10.533 46.547)">
              <rect id="Rectángulo_35016" data-name="Rectángulo 35016" width="8.296" height="8.296" fill="#b4dfd5"/>
              <rect id="Rectángulo_35017" data-name="Rectángulo 35017" width="8.296" height="8.296" transform="translate(10.051)" fill="#b4dfd5"/>
            </g>
            <g id="Grupo_94588" data-name="Grupo 94588" transform="translate(10.533 57.241)">
              <rect id="Rectángulo_35018" data-name="Rectángulo 35018" width="8.296" height="8.296" fill="#b4dfd5"/>
              <rect id="Rectángulo_35019" data-name="Rectángulo 35019" width="8.296" height="8.296" transform="translate(10.051)" fill="#b4dfd5"/>
            </g>
            <g id="Grupo_94589" data-name="Grupo 94589" transform="translate(10.533 67.934)">
              <rect id="Rectángulo_35020" data-name="Rectángulo 35020" width="8.296" height="8.296" fill="#b4dfd5"/>
              <rect id="Rectángulo_35021" data-name="Rectángulo 35021" width="8.296" height="8.296" transform="translate(10.051)" fill="#b4dfd5"/>
            </g>
            <g id="Grupo_94601" data-name="Grupo 94601" transform="translate(34.292 31.086)">
              <g id="Grupo_94598" data-name="Grupo 94598" transform="translate(3.07 3.073)">
                <g id="Grupo_94590" data-name="Grupo 94590" transform="translate(123.909 42.625)">
                  <path id="Trazado_121972" data-name="Trazado 121972" d="M1158.4,289.3h-1.084a.361.361,0,1,1,0-.723h.723v-.723a.361.361,0,1,1,.723,0v1.084A.361.361,0,0,1,1158.4,289.3Z" transform="translate(-1156.955 -287.497)" fill="#1c1c38"/>
                </g>
                <g id="Grupo_94591" data-name="Grupo 94591" transform="translate(3.945 43.711)">
                  <path id="Trazado_121973" data-name="Trazado 121973" d="M1133.661,288.772h-2.138a.358.358,0,0,0-.361.361.362.362,0,0,0,.361.361h2.138a.363.363,0,0,0,.361-.361A.358.358,0,0,0,1133.661,288.772Zm-4.993,0h-2.146a.328.328,0,0,0-.144.029.351.351,0,0,0-.217.332.365.365,0,0,0,.217.332.316.316,0,0,0,.144.029h2.146a.367.367,0,0,0,.361-.361A.363.363,0,0,0,1128.668,288.772Zm-5,0h-2.146a.363.363,0,0,0-.361.361.367.367,0,0,0,.361.361h2.146a.367.367,0,0,0,.36-.361A.363.363,0,0,0,1123.669,288.772Zm-5,0h-2.146a.363.363,0,0,0-.361.361.367.367,0,0,0,.361.361h2.146a.363.363,0,0,0,.361-.361A.358.358,0,0,0,1118.669,288.772Zm-5,0h-2.139a.358.358,0,0,0-.361.361.362.362,0,0,0,.361.361h2.139a.362.362,0,0,0,.36-.361A.358.358,0,0,0,1113.67,288.772Zm-5,0h-2.138a.358.358,0,0,0-.361.361.362.362,0,0,0,.361.361h2.138a.363.363,0,0,0,.361-.361A.358.358,0,0,0,1108.669,288.772Zm-5,0h-2.139a.358.358,0,0,0-.361.361.363.363,0,0,0,.361.361h2.139a.362.362,0,0,0,.36-.361A.358.358,0,0,0,1103.67,288.772Zm-4.993,0h-2.146a.358.358,0,0,0-.361.361.362.362,0,0,0,.361.361h2.146a.367.367,0,0,0,.361-.361A.363.363,0,0,0,1098.677,288.772Zm-5,0h-2.146a.363.363,0,0,0-.361.361.367.367,0,0,0,.361.361h2.146a.367.367,0,0,0,.361-.361A.363.363,0,0,0,1093.677,288.772Zm-5,0h-2.145a.363.363,0,0,0-.361.361.367.367,0,0,0,.361.361h2.145a.362.362,0,0,0,.361-.361A.358.358,0,0,0,1088.677,288.772Zm-5,0h-2.138a.358.358,0,0,0-.361.361.362.362,0,0,0,.361.361h2.138a.363.363,0,0,0,.361-.361A.358.358,0,0,0,1083.678,288.772Zm-5,0h-2.139a.358.358,0,0,0-.361.361.363.363,0,0,0,.361.361h2.139a.362.362,0,0,0,.36-.361A.358.358,0,0,0,1078.678,288.772Zm-5,0h-2.138a.358.358,0,0,0-.361.361.362.362,0,0,0,.361.361h2.138a.363.363,0,0,0,.361-.361A.358.358,0,0,0,1073.678,288.772Zm-4.992,0h-2.146a.358.358,0,0,0-.361.361.363.363,0,0,0,.361.361h2.146a.367.367,0,0,0,.361-.361A.363.363,0,0,0,1068.686,288.772Zm-5,0h-2.145a.363.363,0,0,0-.361.361.367.367,0,0,0,.361.361h2.145a.367.367,0,0,0,.361-.361A.363.363,0,0,0,1063.685,288.772Zm-5,0h-2.146a.363.363,0,0,0-.361.361.367.367,0,0,0,.361.361h2.146a.363.363,0,0,0,.361-.361A.358.358,0,0,0,1058.686,288.772Zm-5,0h-2.138a.358.358,0,0,0-.361.361.363.363,0,0,0,.361.361h2.138a.362.362,0,0,0,.361-.361A.358.358,0,0,0,1053.686,288.772Zm-5,0h-2.138a.358.358,0,0,0-.361.361.362.362,0,0,0,.361.361h2.138a.363.363,0,0,0,.361-.361A.358.358,0,0,0,1048.687,288.772Zm-5,0h-2.138a.358.358,0,0,0-.361.361.363.363,0,0,0,.361.361h2.138a.362.362,0,0,0,.361-.361A.358.358,0,0,0,1043.686,288.772Zm-4.993,0h-2.145a.363.363,0,0,0-.361.361.367.367,0,0,0,.361.361h2.145a.367.367,0,0,0,.361-.361A.363.363,0,0,0,1038.694,288.772Zm-5,0h-2.146a.363.363,0,0,0-.361.361.367.367,0,0,0,.361.361h2.146a.367.367,0,0,0,.361-.361A.363.363,0,0,0,1033.694,288.772Zm-5,0h-2.145a.363.363,0,0,0-.361.361.367.367,0,0,0,.361.361h2.145a.362.362,0,0,0,.361-.361A.358.358,0,0,0,1028.694,288.772Zm-5,0h-2.138a.358.358,0,0,0-.361.361.362.362,0,0,0,.361.361h2.138a.362.362,0,0,0,.361-.361A.358.358,0,0,0,1023.695,288.772Zm-5,0h-2.138a.358.358,0,0,0-.361.361.363.363,0,0,0,.361.361h2.138a.362.362,0,0,0,.361-.361A.358.358,0,0,0,1018.695,288.772Z" transform="translate(-1016.195 -288.772)" fill="#1c1c38"/>
                </g>
                <g id="Grupo_94592" data-name="Grupo 94592" transform="translate(0.003 42.625)">
                  <path id="Trazado_121974" data-name="Trazado 121974" d="M1013.015,289.3h-1.084a.362.362,0,0,1-.361-.361v-1.084a.361.361,0,1,1,.723,0v.723h.723a.361.361,0,0,1,0,.723Z" transform="translate(-1011.57 -287.497)" fill="#1c1c38"/>
                </g>
                <g id="Grupo_94593" data-name="Grupo 94593" transform="translate(0 3.851)">
                  <path id="Trazado_121975" data-name="Trazado 121975" d="M1012.231,276.09a.377.377,0,0,0-.3-.159.363.363,0,0,0-.361.361v2.074a.362.362,0,0,0,.361.361.357.357,0,0,0,.361-.361v-2.074A.366.366,0,0,0,1012.231,276.09Zm-.3-5.007a.362.362,0,0,0-.361.361v2.074a.363.363,0,0,0,.361.361.358.358,0,0,0,.361-.361v-2.074A.357.357,0,0,0,1011.927,271.083Zm0-4.849a.367.367,0,0,0-.361.361v2.081a.344.344,0,0,0,.166.3.317.317,0,0,0,.2.066.362.362,0,0,0,.361-.361V266.6A.362.362,0,0,0,1011.927,266.234Zm0-4.848a.367.367,0,0,0-.361.361v2.08a.362.362,0,0,0,.361.361.357.357,0,0,0,.361-.361v-2.08A.362.362,0,0,0,1011.927,261.386Zm0-4.841a.362.362,0,0,0-.361.361v2.074a.363.363,0,0,0,.361.361.358.358,0,0,0,.361-.361v-2.074A.357.357,0,0,0,1011.927,256.546Zm0-4.848a.363.363,0,0,0-.361.361v2.074a.362.362,0,0,0,.361.361.357.357,0,0,0,.361-.361v-2.074A.358.358,0,0,0,1011.927,251.7Zm0-4.848a.362.362,0,0,0-.361.361v2.08a.369.369,0,0,0,.347.361h.014a.362.362,0,0,0,.361-.361v-2.08A.357.357,0,0,0,1011.927,246.85Zm0-4.849a.367.367,0,0,0-.361.361v2.081a.367.367,0,0,0,.361.361.362.362,0,0,0,.361-.361v-2.081A.362.362,0,0,0,1011.927,242Z" transform="translate(-1011.566 -242.001)" fill="#1c1c38"/>
                </g>
                <g id="Grupo_94594" data-name="Grupo 94594" transform="translate(0.003)">
                  <path id="Trazado_121976" data-name="Trazado 121976" d="M1011.931,239.29a.362.362,0,0,1-.361-.361v-1.084a.362.362,0,0,1,.361-.361h1.084a.361.361,0,0,1,0,.723h-.723v.723A.362.362,0,0,1,1011.931,239.29Z" transform="translate(-1011.57 -237.483)" fill="#1c1c38"/>
                </g>
                <g id="Grupo_94595" data-name="Grupo 94595" transform="translate(3.945)">
                  <path id="Trazado_121977" data-name="Trazado 121977" d="M1133.719,237.49a.148.148,0,0,0-.058-.007h-2.138a.361.361,0,1,0,0,.723h2.138a.358.358,0,0,0,.361-.361A.353.353,0,0,0,1133.719,237.49Zm-5.05-.007h-2.146a.361.361,0,0,0,0,.723h2.146a.361.361,0,0,0,0-.723Zm-5,0h-2.146a.361.361,0,0,0,0,.723h2.146a.361.361,0,0,0,0-.723Zm-5,0h-2.146a.361.361,0,0,0,0,.723h2.146a.361.361,0,1,0,0-.723Zm-5,0h-2.139a.361.361,0,0,0,0,.723h2.139a.361.361,0,0,0,0-.723Zm-5,0h-2.138a.361.361,0,1,0,0,.723h2.138a.361.361,0,0,0,0-.723Zm-5,0h-2.139a.361.361,0,0,0,0,.723h2.139a.361.361,0,0,0,0-.723Zm-4.993,0h-2.146a.361.361,0,0,0,0,.723h2.146a.361.361,0,0,0,0-.723Zm-5,0h-2.146a.361.361,0,0,0,0,.723h2.146a.361.361,0,0,0,0-.723Zm-5,0h-2.145a.361.361,0,0,0,0,.723h2.145a.361.361,0,1,0,0-.723Zm-5,0h-2.138a.361.361,0,0,0,0,.723h2.138a.361.361,0,1,0,0-.723Zm-5,0h-2.139a.361.361,0,0,0,0,.723h2.139a.361.361,0,0,0,0-.723Zm-5,0h-2.138a.361.361,0,0,0,0,.723h2.138a.361.361,0,1,0,0-.723Zm-4.992,0h-2.146a.361.361,0,0,0,0,.723h2.146a.361.361,0,0,0,0-.723Zm-5,0h-2.145a.361.361,0,0,0,0,.723h2.145a.361.361,0,0,0,0-.723Zm-5,0h-2.146a.361.361,0,1,0,0,.723h2.146a.361.361,0,0,0,0-.723Zm-5,0h-2.138a.361.361,0,1,0,0,.723h2.138a.361.361,0,0,0,0-.723Zm-5,0h-2.138a.361.361,0,1,0,0,.723h2.138a.361.361,0,0,0,0-.723Zm-5,0h-2.138a.361.361,0,0,0,0,.723h2.138a.361.361,0,0,0,0-.723Zm-4.993,0h-2.145a.361.361,0,1,0,0,.723h2.145a.361.361,0,0,0,0-.723Zm-5,0h-2.146a.361.361,0,0,0,0,.723h2.146a.361.361,0,0,0,0-.723Zm-5,0h-2.145a.361.361,0,0,0,0,.723h2.145a.361.361,0,1,0,0-.723Zm-4.725.13a.336.336,0,0,0-.274-.13h-2.138a.361.361,0,1,0,0,.723h2.138a.358.358,0,0,0,.361-.361A.343.343,0,0,0,1023.969,237.613Zm-5.275-.13h-2.138a.361.361,0,0,0,0,.723h2.138a.361.361,0,0,0,0-.723Z" transform="translate(-1016.195 -237.483)" fill="#1c1c38"/>
                </g>
                <g id="Grupo_94596" data-name="Grupo 94596" transform="translate(123.909)">
                  <path id="Trazado_121978" data-name="Trazado 121978" d="M1158.4,239.29a.361.361,0,0,1-.361-.361v-.723h-.723a.361.361,0,1,1,0-.723h1.084a.361.361,0,0,1,.361.361v1.084A.361.361,0,0,1,1158.4,239.29Z" transform="translate(-1156.955 -237.483)" fill="#1c1c38"/>
                </g>
                <g id="Grupo_94597" data-name="Grupo 94597" transform="translate(124.995 3.851)">
                  <path id="Trazado_121979" data-name="Trazado 121979" d="M1158.59,275.93a.36.36,0,0,0-.361.318s.007,0,0,.008v2.109a.358.358,0,0,0,.361.361.362.362,0,0,0,.361-.325v-2.11A.363.363,0,0,0,1158.59,275.93Zm0-4.848a.358.358,0,0,0-.361.361v2.08a.363.363,0,0,0,.361.361.367.367,0,0,0,.361-.361v-2.08A.362.362,0,0,0,1158.59,271.083Zm0-4.849a.363.363,0,0,0-.361.361v2.081a.363.363,0,0,0,.361.361.367.367,0,0,0,.361-.361V266.6A.367.367,0,0,0,1158.59,266.234Zm0-4.848a.363.363,0,0,0-.361.361v2.08a.358.358,0,0,0,.361.361.362.362,0,0,0,.361-.361v-2.08A.367.367,0,0,0,1158.59,261.386Zm0-4.841a.358.358,0,0,0-.361.361v2.074a.358.358,0,0,0,.361.361.363.363,0,0,0,.361-.361v-2.074A.362.362,0,0,0,1158.59,256.546Zm0-4.848a.358.358,0,0,0-.361.361v2.074a.358.358,0,0,0,.361.361.362.362,0,0,0,.361-.361v-2.074A.363.363,0,0,0,1158.59,251.7Zm0-4.848a.363.363,0,0,0-.361.361v2.08a.363.363,0,0,0,.361.361.367.367,0,0,0,.361-.361v-2.08A.367.367,0,0,0,1158.59,246.85Zm0-4.849a.363.363,0,0,0-.361.361v2.081a.363.363,0,0,0,.361.361.367.367,0,0,0,.361-.361v-2.081A.367.367,0,0,0,1158.59,242Z" transform="translate(-1158.229 -242.001)" fill="#1c1c38"/>
                </g>
              </g>
              <g id="Grupo_94599" data-name="Grupo 94599">
                <rect id="Rectángulo_35022" data-name="Rectángulo 35022" width="6.869" height="6.869" fill="#1c1c38"/>
                <rect id="Rectángulo_35023" data-name="Rectángulo 35023" width="6.869" height="6.869" transform="translate(124.99)" fill="#1c1c38"/>
              </g>
              <g id="Grupo_94600" data-name="Grupo 94600" transform="translate(0 43.709)">
                <rect id="Rectángulo_35024" data-name="Rectángulo 35024" width="6.869" height="6.869" fill="#1c1c38"/>
                <rect id="Rectángulo_35025" data-name="Rectángulo 35025" width="6.869" height="6.869" transform="translate(124.99)" fill="#1c1c38"/>
              </g>
            </g>
            <rect id="Rectángulo_35026" data-name="Rectángulo 35026" width="124.27" height="3.033" transform="translate(38.446 23.055)" fill="#61bda6"/>
            <rect id="Rectángulo_35027" data-name="Rectángulo 35027" width="124.27" height="3.033" transform="translate(38.446 86.54)" fill="#61bda6"/>
          </g>
          <g id="Grupo_94603" data-name="Grupo 94603" transform="translate(5.26 5.091)" opacity="0.4" style="mix-blend-mode: overlay;isolation: isolate">
            <path id="Trazado_121980" data-name="Trazado 121980" d="M1173.809,193.852a10.787,10.787,0,0,0-10.172-7.212H1162.1L1043.027,305.717h18.917Z" transform="translate(-970.147 -186.64)" fill="#faf9dd"/>
            <path id="Trazado_121981" data-name="Trazado 121981" d="M1140.477,186.643l-16.806,16.806-5.469,5.469-9.949,9.949-3.035,3.035-60.453,60.453-3.034,3.035L1021.4,305.72H970.716l-4.725-9.515,1.481-1.481,10.881-10.881.99-.99,5.614-5.614,5.816-5.816.217-.217,3.771-3.772,45.533-45.533,3.035-3.035,9.855-9.855,22.369-22.369Z" transform="translate(-958.766 -186.64)" fill="#faf9dd"/>
            <path id="Trazado_121982" data-name="Trazado 121982" d="M1058.759,186.643l-22.276,22.275-.094.094-9.855,9.856L1023.5,221.9l-8.2,8.2-.592.593-10.4,10.4-.376.383-6.972,6.966-2.218,2.218-2.4,2.4-5.535,5.535-5.159,5.159-.686.686L974.9,270.5,966.7,278.69l-.484.484-6.64,6.64-2.067-4.147V255.18l.723-.715v-.008l3.331-3.331,1.315-1.315,3.338-3.337.614-.614.9-.9,4.6-4.6L974.9,237.8l1.857-1.857,4.277-4.277,2.391-2.392,33.46-33.459,2.355-2.356,6.814-6.813Z" transform="translate(-957.513 -186.64)" fill="#faf9dd"/>
          </g>
        </g>
        <g id="Grupo_94605" data-name="Grupo 94605" transform="translate(0 34.555)">
          <path id="Trazado_121983" data-name="Trazado 121983" d="M980.958,276.366a40.716,40.716,0,0,0,5.308,1.464l9.448,2.154a5.455,5.455,0,0,0,2.53.17,10.157,10.157,0,0,0,3.542-1.6c1.091-.834,1.514-5.02,2.243-6.183.438-.7,1.409-.987,1.312-.56-.141.626.307,6.983.151,7.613a4.811,4.811,0,0,1-2.724,3.027,11.857,11.857,0,0,1-3.96.9,73.543,73.543,0,0,1-11.356.212c-3.379-.2-6.854-.108-10.183-.869a38.443,38.443,0,0,1-9.229-2.907,13.271,13.271,0,0,1-3.132-3.025c-2.454-2.774.86-7.724,4.313-7.031,1.925.386,3.891,2.3,5.521,3.342A33.745,33.745,0,0,0,980.958,276.366Z" transform="translate(-941.227 -228.37)" fill="#e27e5a"/>
          <path id="Trazado_121984" data-name="Trazado 121984" d="M961.375,289.118a17.828,17.828,0,0,0,4.777,2.309c3.733,1.051,7.7.2,11.5-.6q8.117-1.7,16.306-3.008a14.391,14.391,0,0,1,5.03-.2c1.229.242,2.741.711,3.553-.244.354-.415.73-.7.79-1.241a84.715,84.715,0,0,0,0-14.012c-.738.259-1.444,5.3-1.565,6.07a4.213,4.213,0,0,1-.683,2.21c-.252.288-.592.482-.868.747-.42.4-.672.959-1.084,1.371a4.324,4.324,0,0,1-2.356,1,41.476,41.476,0,0,1-11.826-.078c-4.05-.436-8.095-.936-12.105-1.649-2.254-.4-4.592-.912-6.377-2.345-2-1.606-3-4.11-4.4-6.258a2.438,2.438,0,0,0-2.835-1.319,12.237,12.237,0,0,0-6,2.063c-1.2.868-2.879,2.524-2.778,4.151.089,1.433,2.507,1.585,3.378,2.584C956.3,283.512,958.2,287.068,961.375,289.118Z" transform="translate(-939.216 -228.691)" fill="#f29d7e"/>
          <path id="Trazado_121985" data-name="Trazado 121985" d="M965.606,267.967a8.857,8.857,0,0,0-4.234,4.277c-.014.029-.029.066-.043.095a4.111,4.111,0,0,0-1.178-1.192,4.382,4.382,0,0,0-3.851-.477,5.785,5.785,0,0,0-1.778,1.134c-.108.094-.21.188-.31.289-1.359,1.294-2.515,2.933-4.306,3.374.657.7,1.307,1.41,1.943,2.125.037.036.066.072.1.108.766.86,1.525,1.741,2.262,2.63.108.123.216.253.31.376.231.267.455.542.672.809a2.382,2.382,0,0,1,.47.773,1.758,1.758,0,0,1,.05.246v.007c.058.723-.528,1.33-1.192,1.843l-.31.224c-.116.086-.232.166-.347.238a12.3,12.3,0,0,0-1.778,1.46l-2.825-5.686-11.993-24.139c1.806-2.716,3.706-5.606,7.181-5.209.246.029.492.058.73.094a25.79,25.79,0,0,1,4.081.918c.39.115.774.245,1.157.383a23.485,23.485,0,0,1,3.793,1.763,20.273,20.273,0,0,1,2.853,2.016c.355.3.7.614,1.034.954a16.782,16.782,0,0,1,1.162,1.221q.336.368.629.736c.816.976,1.56,2.009,2.276,3.049.361.528.716,1.062,1.063,1.6q.942,1.464,1.814,2.97Q965.324,267.469,965.606,267.967Z" transform="translate(-937.269 -225.647)" fill="#e289a9"/>
          <path id="Trazado_121986" data-name="Trazado 121986" d="M956.165,247.653a26.373,26.373,0,0,1-3.494,3.85,8.333,8.333,0,0,1,3.09,2.09c1.786,2.241.976,5.878,2.951,7.957a2.674,2.674,0,0,1,.974-2.083l3.017-3.308a4.32,4.32,0,0,1,4.846-1.814c-1.757-3.36-3.552-6.776-6.221-9.47-.689-.7-2.3-2.325-3.308-1.3-.458.463-.5,1.46-.739,2.047A10.661,10.661,0,0,1,956.165,247.653Z" transform="translate(-939.544 -224.467)" fill="#e27e5a"/>
          <path id="Trazado_121987" data-name="Trazado 121987" d="M972.071,228.141c.78,1.268,2.376,4.575,2.355,5.61-.024,1.131-.28,1.3-.277,2.43.005,1.931,1.837,2.489,2.367,4.529,0,.522-.937.61-1.491.658a1.077,1.077,0,0,0-.6.173c-.519.419.074,1.291-.163,1.915-.308.812-1.692.6-2.128,1.353a1.539,1.539,0,0,0,.318,1.568,2.317,2.317,0,0,1,.629,1.524c-.1.739-.992,1.255-.914,2,.044.419.25.91.058,1.285a1.979,1.979,0,0,1-1.4,1.017c-1.16.4-4.071-.524-5.012-1.31-3.734-3.117-5.853-5.845-5.679-6.538.127-.5.713-.891.6-1.4-.128-.582-.954-.581-1.463-.891a2.287,2.287,0,0,1-.818-1.375l-.5-1.641a5.519,5.519,0,0,1-.351-2.069,1.664,1.664,0,0,1,2.743-1.339,5.509,5.509,0,0,1,1.173,1.23q1.135-1.255,2.151-2.613a1.419,1.419,0,0,0,.287-.534,1.494,1.494,0,0,0-.094-.711,16.661,16.661,0,0,1-.569-2.82,4.577,4.577,0,0,1,.131-2.083,3.626,3.626,0,0,1,3.809-2.01,10.6,10.6,0,0,1,4.249,1.757A2.765,2.765,0,0,1,972.071,228.141Z" transform="translate(-940.272 -221.93)" fill="#f29d7e"/>
          <path id="Trazado_121988" data-name="Trazado 121988" d="M957.739,236.435a1.558,1.558,0,0,1,2.147.58c.152.209.354.441.61.413.209-.024.354-.215.471-.389.678-1,.111-1.544.788-2.543a7.246,7.246,0,0,1,1.737-1.4c6.477-2.13,7.2-3.991,7.2-4.13a7.457,7.457,0,0,0-3.921-5.42,15.571,15.571,0,0,0-9.385-2.077c-1.664.114-3.488,1.124-5.052,1.7a4.94,4.94,0,0,0-3.022-1.958,4.441,4.441,0,0,0-2.492.821,8.988,8.988,0,0,0-4.091,4.286c-1.153,3.135.678,6.608.281,9.924-.129,1.076-.485,2.206-.066,3.2.355.847,1.2,1.4,1.62,2.214.543,1.048.3,2.32.533,3.478a4.314,4.314,0,0,0,2.371,3.013c1.279.6,2.944.622,3.764,1.77.649.91.475,2.149.713,3.241a4.266,4.266,0,0,0,1.86,2.661,6.749,6.749,0,0,1,.986.643,4.542,4.542,0,0,1,1.006,2.446c.205.874.632,1.838,1.5,2.075a1.821,1.821,0,0,0,2.021-1.149c.325-.782-.08-4.612-.095-5.208-.044-1.745-2.613-6.987-2.75-8.532-.085-.956-.656-1.944-.257-2.818.111-.242.289-.447.4-.687a4.3,4.3,0,0,0-.055-2.426C956.35,238.593,957.739,236.435,957.739,236.435Z" transform="translate(-938.018 -221.211)" fill="#1b4e61"/>
        </g>
        <g id="Grupo_94612" data-name="Grupo 94612" transform="translate(171.502 13.461)">
          <g id="Grupo_94610" data-name="Grupo 94610" transform="translate(4.296)">
            <g id="Grupo_94609" data-name="Grupo 94609">
              <g id="Grupo_94606" data-name="Grupo 94606" transform="translate(10.967 91.778)">
                <path id="Trazado_121989" data-name="Trazado 121989" d="M1184.233,312.7c-3.714,11.165-4.467,23.065-5.192,34.808q-.226,3.67-.453,7.339a12.153,12.153,0,0,0,.069,3.063,20.253,20.253,0,0,0,.967,2.866c1.242,3.493,1.167,7.3,1.076,11a181.584,181.584,0,0,1-1.393,21.678q-.459,3.172-1.142,6.305a2.448,2.448,0,0,0,.044,1.729,2.415,2.415,0,0,0,1.493.909l5.5,1.687c1.663.51,3.822.87,4.839-.541,1.6-2.224-1.894-5.417-.668-7.87.262-.523.716-.932.985-1.451a4.76,4.76,0,0,0,.4-1.674q.83-7.254,1.66-14.507a57.467,57.467,0,0,0,.55-11.041c-.171-2.162-.587-4.306-.622-6.475-.1-6.221,2.893-12.018,5.771-17.534a30.416,30.416,0,0,0,3.258-8.068,30.765,30.765,0,0,0-.138-9.491q-.777-6.568-1.556-13.136a10.939,10.939,0,0,0-1.1-4.247c-1.666-2.885-5.845-3.827-8.956-3.578C1185.8,304.78,1185.284,309.54,1184.233,312.7Z" transform="translate(-1159.604 -304.192)" fill="#b94a5b"/>
                <path id="Trazado_121990" data-name="Trazado 121990" d="M1193.691,317.022c1.187,3.857,3.146,7.425,4.683,11.157,2.871,6.971,4.243,14.447,5.822,21.82a58.45,58.45,0,0,0,2.443,8.9c1.042,2.695,2.454,5.247,3.318,8a36.224,36.224,0,0,1,1.28,10.866,114.306,114.306,0,0,1-2.662,24.507l10.6,2.593c-1.067-3.837-.227-7.906.379-11.843a196.974,196.974,0,0,0,1.715-24.1,24.069,24.069,0,0,0-.18-4.824c-.476-2.735-1.883-5.223-2.544-7.919a29.874,29.874,0,0,1-.36-8.889q.436-7.33.872-14.661a23.607,23.607,0,0,1,.645-4.934c.427-1.537,1.161-2.969,1.675-4.479,1.266-3.714,1.16-7.747.8-11.655a5.239,5.239,0,0,0-.785-2.723,5.4,5.4,0,0,0-3.026-1.61c-6.3-1.756-12.89-3.556-19.5-2.964-2.88.257-4.838.3-5.794,3.109C1192.071,310.336,1192.8,314.132,1193.691,317.022Z" transform="translate(-1161.756 -304.149)" fill="#e8605c"/>
                <path id="Trazado_121991" data-name="Trazado 121991" d="M1187.359,426.342a2.094,2.094,0,0,1-1.408,1.617,6.188,6.188,0,0,1-2.23.274q-1.615-.006-3.229,0c-2.795,0-5.59-.009-8.381.18-4.957.336-10.109,1.252-14.766-.487a1.847,1.847,0,0,1-.573-.3,1.236,1.236,0,0,1-.344-1.1,1.949,1.949,0,0,1,.54-1.044,2.654,2.654,0,0,1,.491-.413,5.957,5.957,0,0,1,1.7-.679,43.23,43.23,0,0,1,4.6-1.015,2.838,2.838,0,0,0,.8-.213,4.391,4.391,0,0,0,.9-.736,11.573,11.573,0,0,1,2.058-1.3,33.238,33.238,0,0,0,5.407-4.387c.589-.528,1.9-1.506,2.267-.381.152.467.021.8.377,1.215a3.986,3.986,0,0,0,1.522.926,15.728,15.728,0,0,0,9.63,1.78,13.312,13.312,0,0,0,.323,4.506c.073.237.155.475.221.712A2.172,2.172,0,0,1,1187.359,426.342Z" transform="translate(-1156.411 -320.649)" fill="#f8f8dc"/>
                <path id="Trazado_121992" data-name="Trazado 121992" d="M1187.359,428.013a2.094,2.094,0,0,1-1.408,1.617,6.188,6.188,0,0,1-2.23.274q-1.615-.006-3.229,0c-2.795,0-5.59-.009-8.381.18-4.957.336-10.109,1.252-14.766-.487a1.847,1.847,0,0,1-.573-.3,1.236,1.236,0,0,1-.344-1.1,1.949,1.949,0,0,1,.54-1.044c.095.458-.18.925.508,1.318a3.332,3.332,0,0,0,1.7.286l22.964-.245a11.974,11.974,0,0,0,3.037-.294,5.938,5.938,0,0,0,2.017-1,.622.622,0,0,0,.061-.049A2.172,2.172,0,0,1,1187.359,428.013Z" transform="translate(-1156.411 -322.32)" fill="#65bda5"/>
                <path id="Trazado_121993" data-name="Trazado 121993" d="M1220.654,427.507a1.537,1.537,0,0,1-.324.945,1.989,1.989,0,0,1-.577.41q-1.534.828-3.065,1.658a16.763,16.763,0,0,1-3.094,1.411,16.336,16.336,0,0,1-2.312.454,30.1,30.1,0,0,1-4.735.454,15.114,15.114,0,0,1-4.912-.872,1.15,1.15,0,0,1-.732-.532,1.064,1.064,0,0,1,.008-.688,6.113,6.113,0,0,1,.274-.81,5.987,5.987,0,0,1,1.6-2.218,10.189,10.189,0,0,0,1.969-1.748c.262-.384.425-.827.7-1.2a6.785,6.785,0,0,1,.834-.834,7.782,7.782,0,0,0,2.2-3.688,3.055,3.055,0,0,1,2.721-2.366,5.237,5.237,0,0,1,1.752.242,6.161,6.161,0,0,1,2.832,1.461,7.443,7.443,0,0,0,.793.81,4.164,4.164,0,0,0,2.084.573.921.921,0,0,1,.523.172.95.95,0,0,1,.234.487q.454,1.842.917,3.683c.089.372.184.749.245,1.13A4.642,4.642,0,0,1,1220.654,427.507Z" transform="translate(-1162.976 -320.952)" fill="#f8f8dc"/>
                <path id="Trazado_121994" data-name="Trazado 121994" d="M1220.654,428.993a1.537,1.537,0,0,1-.324.945,1.989,1.989,0,0,1-.577.41q-1.534.828-3.065,1.658a16.763,16.763,0,0,1-3.094,1.411,16.336,16.336,0,0,1-2.312.454,30.1,30.1,0,0,1-4.735.454,15.113,15.113,0,0,1-4.912-.872,1.15,1.15,0,0,1-.732-.532,1.064,1.064,0,0,1,.008-.688,6.114,6.114,0,0,1,.274-.81c.127.044.245.094.365.135a10.759,10.759,0,0,0,2.676.638,37.582,37.582,0,0,0,6.577.266,12.544,12.544,0,0,0,6.2-2,22.089,22.089,0,0,1,3.59-2.533A4.642,4.642,0,0,1,1220.654,428.993Z" transform="translate(-1162.976 -322.437)" fill="#65bda5"/>
              </g>
              <g id="Grupo_94607" data-name="Grupo 94607" transform="translate(0 25.701)">
                <path id="Trazado_121995" data-name="Trazado 121995" d="M1173.379,262.306c-1.561.824-3.159,1.578-4.684,2.465-4.415,2.57-8.356,6.314-13.374,7.27a7,7,0,0,1-4.4-.376,10.229,10.229,0,0,0-2.648-1.338c-2.515-.423-1.238,1.908-1.557,2.888-.513,1.57-2.276,2.1-2.929,3.531-.807,1.763.522,3.783,1.895,4.88a4.673,4.673,0,0,0,3.929.977c2.735-.663,5.033-2.923,7.863-3.727,3.024-.858,6.157-1.232,9.21-1.961,5.159-1.231,10.324-2.463,15.362-4.12a20.078,20.078,0,0,0,5.779-2.688,22.386,22.386,0,0,0,2.962-2.809l2.79-2.989a.748.748,0,0,0-.085-1.308,76.631,76.631,0,0,0-6.417-5.059c-2.373-1.671-3.741-2.2-6.035-.47A56.647,56.647,0,0,1,1173.379,262.306Z" transform="translate(-1143.542 -231.018)" fill="#f29d7e"/>
                <path id="Trazado_121996" data-name="Trazado 121996" d="M1167.7,232.5c-1.426-2.557-3.476-5.005-6.3-5.777-.82-.223-1.933-.15-2.218.65a1.627,1.627,0,0,0,.753,1.688,6.3,6.3,0,0,1,1.523,1.246.592.592,0,0,1,.12.3.724.724,0,0,1-.331.528,7.367,7.367,0,0,0-2.4,2.924c-.778,2.222.695,4.545,2.093,6.44a5.906,5.906,0,0,0,2.322,2.172c.816.33,1.75.282,2.557.632a4.873,4.873,0,0,1,1.878,1.724c1.5,2.064,2.566,4.41,3.971,6.539a36.006,36.006,0,0,0,7.282,7.738c4.588,3.793,9.989,7.09,15.938,7.313,5.48.205,10.678-2.207,15.629-4.566a3.158,3.158,0,0,0,1.2-.817,2.917,2.917,0,0,0,.43-.933,13.011,13.011,0,0,0,.259-7.716,8,8,0,0,0-5.229-5.4c-3.47-.957-6.978,1-10.4,2.133a18.991,18.991,0,0,1-8.034.941A21.727,21.727,0,0,1,1178.648,246c-2.823-2.023-6.18-4.519-7.93-7.555C1169.608,236.515,1168.78,234.443,1167.7,232.5Z" transform="translate(-1145.771 -226.617)" fill="#ffbda9"/>
                <path id="Trazado_121997" data-name="Trazado 121997" d="M1189.165,250.568a29.6,29.6,0,0,1,6.487,3.2,2.754,2.754,0,0,0,1.151.531,2.636,2.636,0,0,0,1.449-.414l8.652-4.434a3.263,3.263,0,0,1,1.592-.492,2.857,2.857,0,0,1,1.263.457,12.387,12.387,0,0,1,6.03,11.221,2.788,2.788,0,0,1-.367,1.4,3.185,3.185,0,0,1-1.911,1.058l-11.7,3.222a8.657,8.657,0,0,1-3.748.459c-1.237-.216-2.4-.972-3.648-.83a80.262,80.262,0,0,0-2.482,7.858,9.326,9.326,0,0,0-.394,2.4c.005.827.217,1.639.283,2.463.479,5.979-6.487,10.463-6.455,16.461,9.032,1.448,18.274,1.1,27.32,2.454,3.36.5,6.8,1.291,9.532,3.305-.911-2.692-.545-5.629-.157-8.445,1.08-7.84,2.262-15.709,4.689-23.241,1.34-4.156,3.055-8.2,4.105-12.435s1.4-8.785.01-12.924-4.792-7.779-9.088-8.564c-5.24-.956-9.663,2.264-14.44,3.718-2.533.77-5.036,1.135-7.248,2.689a40.247,40.247,0,0,0-5,4.629C1194.2,247.209,1190.625,251.078,1189.165,250.568Z" transform="translate(-1149.721 -227.872)" fill="#e4f3f7"/>
              </g>
              <g id="Grupo_94608" data-name="Grupo 94608" transform="translate(44.211)">
                <path id="Trazado_121998" data-name="Trazado 121998" d="M1213.126,237.952c-.32.876-.745,1.714-1,2.61-.115.4-.112.966.289,1.082a.879.879,0,0,0,.736-.282c4.469-3.595,10-5.551,15.416-7.443-1.431-.75-1.989-2.477-2.418-4.034a19.787,19.787,0,0,1-.826-4.147,15.663,15.663,0,0,0-.118-1.866,8.692,8.692,0,0,0-.551-1.709,1.35,1.35,0,0,0-.4-.631,1.1,1.1,0,0,0-.631-.167,5.669,5.669,0,0,0-3,1.088,38.7,38.7,0,0,0-4.6,3.327c-1.551,1.306-3.1,2.944-2.638,5.081A12.411,12.411,0,0,1,1213.126,237.952Z" transform="translate(-1197.875 -200.14)" fill="#f29d7e"/>
                <path id="Trazado_121999" data-name="Trazado 121999" d="M1201.493,219.268c-.182,1.31-1.146,2.561-.781,3.833l1.351,0,1.411,2.476c.435.763,1.373,1.629,2.026,1.042a2.436,2.436,0,0,0,1.312,3.124,7.074,7.074,0,0,0,3.728.355,2.16,2.16,0,0,0,1.193-.344,2.331,2.331,0,0,0,.608-1.035,14.777,14.777,0,0,1,9.087-8.592c.258-.084.554-.193.637-.451a.848.848,0,0,0-.09-.571l-1.285-3.113c-.515-1.248-1.287-2.691-2.634-2.783.346-1.156-.582-2.339-1.655-2.891s-2.31-.709-3.4-1.232a16.46,16.46,0,0,1-3.483-2.788c-3-2.644-7-1.783-8.595,2.008a10.8,10.8,0,0,0-.43,4.047C1200.476,214.656,1201.8,217.045,1201.493,219.268Z" transform="translate(-1196.167 -197.689)" fill="#ffbda9"/>
                <path id="Trazado_122000" data-name="Trazado 122000" d="M1195.426,205.373a3.554,3.554,0,0,0,2.918,3.3c2.24.262,4.033-1.946,6.259-2.3a1.27,1.27,0,0,1,1.583.818c.727,1.549.377,3.5,1.329,4.918a19.12,19.12,0,0,1,1.423,1.789c.341.675.341,1.484.689,2.155s1.36,1.112,1.839.526a7.8,7.8,0,0,1-.16-3.2,3.565,3.565,0,0,1,1.806-2.539,2.34,2.34,0,0,1,2.889.647c.685,1.014.3,2.471.942,3.512.4.646,1.128,1.018,1.593,1.618.442.572.617,1.317,1.065,1.884a2.484,2.484,0,0,0,2.9.7,26.39,26.39,0,0,1-.107-4.141,54.245,54.245,0,0,1,1.164-5.956,10.449,10.449,0,0,0-.26-5.98,6.688,6.688,0,0,0-6.755-3.954,2.351,2.351,0,0,0-1.208-1.9,5.646,5.646,0,0,0-2.241-.658,20.165,20.165,0,0,0-10.924,1.729C1199.46,199.592,1195.2,201.85,1195.426,205.373Z" transform="translate(-1195.417 -196.461)" fill="#1b4e61"/>
              </g>
            </g>
          </g>
          <g id="Grupo_94611" data-name="Grupo 94611" transform="translate(0 68.072)">
            <rect id="Rectángulo_35028" data-name="Rectángulo 35028" width="101.733" height="17.703" transform="translate(0 112.186) rotate(-90)" fill="#ec7772"/>
            <path id="Trazado_122001" data-name="Trazado 122001" d="M1156.205,286.786v-1.6a8.852,8.852,0,0,0-8.852-8.852h0a8.852,8.852,0,0,0-8.852,8.852v1.6Z" transform="translate(-1138.502 -276.333)" fill="#b94a5b"/>
            <rect id="Rectángulo_35029" data-name="Rectángulo 35029" width="101.733" height="5.946" transform="translate(0 112.186) rotate(-90)" fill="#dd5858"/>
            <rect id="Rectángulo_35030" data-name="Rectángulo 35030" width="101.733" height="5.81" transform="translate(5.947 112.186) rotate(-90)" fill="#f98a8a"/>
            <path id="Trazado_122002" data-name="Trazado 122002" d="M1156.206,407.967h-17.7l9.255,14.871Z" transform="translate(-1138.502 -295.781)" fill="#ce422c"/>
            <rect id="Rectángulo_35031" data-name="Rectángulo 35031" width="2.466" height="17.703" transform="translate(0 12.919) rotate(-90)" fill="#fdd17a"/>
          </g>
        </g>
        <g id="Grupo_94616" data-name="Grupo 94616" transform="translate(22.289 100.889)">
          <g id="Grupo_94613" data-name="Grupo 94613" transform="translate(36.603 67.537)">
            <path id="Trazado_122003" data-name="Trazado 122003" d="M1116.009,410.063a15.912,15.912,0,0,0,3.491-.122l3.844-.418a4.623,4.623,0,0,1,1.853.05,1.574,1.574,0,0,1,1.173,1.3c.045.834-.773,1.43-1.511,1.823a16.323,16.323,0,0,1-9.959,2.16,5.662,5.662,0,0,1-4-2.184c-.656-1-.813-3.336.558-3.929.731-.316,1.332.264,1.968.569A8.074,8.074,0,0,0,1116.009,410.063Z" transform="translate(-1021.742 -382.775)" fill="#0f0f23"/>
            <path id="Trazado_122004" data-name="Trazado 122004" d="M1117.781,412.814a23.918,23.918,0,0,0,6.713-.483,17,17,0,0,1,2.737-.684,2.955,2.955,0,0,1,2.572.865,2.754,2.754,0,0,1,.2,2.863,7.159,7.159,0,0,1-1.951,2.285c-4.172,3.585-9.29,6.36-14.783,6.619a16.9,16.9,0,0,0-4.467.424c-1.633.532-3.182,1.808-4.855,1.422a5.224,5.224,0,0,1-1.6-.79,1.527,1.527,0,0,1-.759-.822,1.625,1.625,0,0,1,.384-1.177,26.073,26.073,0,0,0,2.633-6.355,15.431,15.431,0,0,1,1.523-3.766,5.3,5.3,0,0,1,2.25-2.068c1.087-.467,1.661.276,2.663.686A18.892,18.892,0,0,0,1117.781,412.814Z" transform="translate(-1020.433 -383.121)" fill="#1c1c38"/>
            <path id="Trazado_122005" data-name="Trazado 122005" d="M1084.38,394.767c1.511.847,3.035,1.675,4.617,2.381,4.612,2.059,9.749,3.107,13.822,6.094l-1.844,3.814c-.41.847-.915,1.779-1.816,2.049a3.45,3.45,0,0,1-2.211-.353l-14.93-5.984c-10.283-4.122-20.574-8.246-30.588-12.986a13.342,13.342,0,0,1-3.949-2.49,4.673,4.673,0,0,1-1.414-4.262c.555-2.18,2.962-3.242,5.079-4,1.136-.407,2.009-.942,3.157-.662a20.021,20.021,0,0,1,3.343,1.458c2.247,1.032,4.452,2.15,6.63,3.32,4.405,2.368,8.691,4.949,12.994,7.5C1079.627,392.038,1081.991,393.424,1084.38,394.767Z" transform="translate(-1012.219 -378.289)" fill="#165260"/>
            <path id="Trazado_122006" data-name="Trazado 122006" d="M1093.946,409.379c-1.019,3.742-4.271,9.053-5.455,10.939-.173.274-.491.3-.9.174-1.293-.39-3.446-2.32-4.342-2.652-3.5-1.293-7.015-3.034-10.744-4.566q-5.5-2.264-11.018-4.523-5.734-2.362-11.466-4.71a15.727,15.727,0,0,0-6.51-1.64c-2.536.108-4.841,1.423-7.03,2.7q-9.613,5.615-19.226,11.221l-10.744-21.639-.137-.268c.845-.368,1.719-.708,2.608-1,.007,0,.015-.007.021-.007.072-.021.145-.05.224-.072,6.185-2.009,12.991-2.839,19.147-5.021a32.608,32.608,0,0,0,5.2-2.319c.108-.058.21-.123.318-.181,2.167-1.257,4.386-2.789,6.8-3.222a5.213,5.213,0,0,1,.737-.1,6.543,6.543,0,0,1,.925-.021,13.415,13.415,0,0,1,5.8,2.175q10.089,5.7,20.172,11.4a55.264,55.264,0,0,0,9.5,4.581s0,.008.008,0a22.721,22.721,0,0,0,3.46.889c3.114.528,8.006,2.709,11.893,4.024a1.565,1.565,0,0,1,1.047,1.43A6.456,6.456,0,0,1,1093.946,409.379Z" transform="translate(-1006.37 -378.905)" fill="#1a5a6b"/>
          </g>
          <g id="Grupo_94614" data-name="Grupo 94614" transform="translate(13.092 35.724)">
            <path id="Trazado_122007" data-name="Trazado 122007" d="M1014.134,382.143a6.132,6.132,0,0,1-2.493,2.811,14.168,14.168,0,0,1-4.8,2.311,4.441,4.441,0,0,1-4.017-.643c-.08-.072-.159-.152-.232-.231a.028.028,0,0,1-.007-.014.5.5,0,0,1-.079-.087c-.037-.043-.066-.087-.1-.137a6.964,6.964,0,0,1-.744-1.394c-.2-.47-.4-.947-.586-1.431a25.725,25.725,0,0,1-1.791-13.352,7.258,7.258,0,0,1,1.8-4.1c1.011-.99,4.1-1.836,4.386.137a1.1,1.1,0,0,1,.021.216c.058,1.308-.239,2.7-.3,4.018-.065,1.4-.086,2.8-.072,4.205q.032,2.384.231,4.768a4.218,4.218,0,0,0,.557,2.066,3.651,3.651,0,0,0,2.738,1.258,19.006,19.006,0,0,0,4.7-.282C1013.607,382.23,1013.873,382.187,1014.134,382.143Z" transform="translate(-981.772 -344.486)" fill="#f39e81"/>
            <path id="Trazado_122008" data-name="Trazado 122008" d="M1024.855,382.225a5.781,5.781,0,0,1,2.631-1.1c1.259-.124,2.553.4,3.775.072a11.267,11.267,0,0,1,1.235-.381,3.754,3.754,0,0,1,2.015.477.61.61,0,0,1,.349.279c.1.259-.166.5-.4.651a36.884,36.884,0,0,1-9.487,4.134,1.852,1.852,0,0,1-2.466-1.441C1022.413,383.77,1024.049,382.776,1024.855,382.225Z" transform="translate(-985.242 -346.846)" fill="#f39e81"/>
            <path id="Trazado_122009" data-name="Trazado 122009" d="M1025.573,385.34l-.239.153c-.252.165-.505.325-.765.484h-.008a93.2,93.2,0,0,1-10.86,5.115c-.361.159-.722.318-1.083.484-1.388.628-2.76,1.3-4.119,1.987-.007,0-.015.007-.021.007-.448.224-.9.456-1.336.687l-.123.058c-.34.173-.679.354-1.012.528l-.137-.268-2.7-5.419a.028.028,0,0,1-.007-.014.5.5,0,0,1-.079-.087c-.037-.043-.066-.087-.1-.137a.213.213,0,0,0,.072-.008c.2-.014.39-.036.585-.05.282-.029.564-.05.845-.079a12.916,12.916,0,0,0,2.406-.463,25.081,25.081,0,0,0,3.945-1.914,32.5,32.5,0,0,1,3.085-1.373c.455-.181.918-.361,1.373-.534a12.339,12.339,0,0,1,3.374-.939,10.293,10.293,0,0,1,1.943.057c.109.008.224.022.332.029l4.314.441A.69.69,0,0,1,1025.573,385.34Z" transform="translate(-982.359 -347.25)" fill="#f5b7a0"/>
            <path id="Trazado_122010" data-name="Trazado 122010" d="M999.253,363.749a40.73,40.73,0,0,0,1.156,12.89,20.682,20.682,0,0,1,.925,4.8,1.554,1.554,0,0,1-.137.752.823.823,0,0,1-.282.3,2.446,2.446,0,0,1-1.365.274h-.036c-.037-.043-.066-.087-.1-.137a6.964,6.964,0,0,1-.744-1.394c-.2-.47-.4-.947-.586-1.431L979.643,342.68h-.007l-.853-1.719c.246.036.492.079.73.123,3.208.592,6.416,1.459,9.638,1.936.339.05.672.115,1,.187a29.035,29.035,0,0,1,6.416,2.738,10.732,10.732,0,0,1,3.013,1.951,9.663,9.663,0,0,1,2.117,4.284,42.132,42.132,0,0,1,1.554,10.173c-.261.043-.513.086-.773.137-.816.137-1.633.281-2.449.426a.734.734,0,0,0-.773.831Z" transform="translate(-978.783 -340.961)" fill="#fdd17a"/>
          </g>
          <g id="Grupo_94615" data-name="Grupo 94615">
            <path id="Trazado_122011" data-name="Trazado 122011" d="M991.386,311.439c.182.353.3.737.47,1.093a4.1,4.1,0,0,0,1.79,1.776,9.612,9.612,0,0,1,1.534.812,1.422,1.422,0,0,1,.58,1.519c-.239.641-1.143,1.108-.9,1.746a1.388,1.388,0,0,0,.4.475,3.577,3.577,0,0,1,1.139,2.57,2.093,2.093,0,0,0,.17,1.173,2.588,2.588,0,0,0,.436.427,2.224,2.224,0,0,1-.062,3.2,4.055,4.055,0,0,1-2.032.741c-2.882.461-5.86.581-8.581,1.641a4.061,4.061,0,0,1-2.273.476c-1.566-.343-2.27-2.674-3.873-2.623a9.583,9.583,0,0,0-1.583.447,2.8,2.8,0,0,1-2.4-.793,6.38,6.38,0,0,1-1.4-2.2,7.174,7.174,0,0,1-.731-3.45,3.272,3.272,0,0,1,1.9-2.8,11.965,11.965,0,0,1,1.521-.337c2.1-.5,3.491-2.428,4.7-4.211,1.066-1.566,2.562-3.775,4.588-4.147C988.356,308.7,990.676,310.067,991.386,311.439Z" transform="translate(-964.993 -300.507)" fill="#f5b7a0"/>
            <path id="Trazado_122012" data-name="Trazado 122012" d="M996.179,329.179c.014.3-.513.463-.9.592-.008.008-.008.008-.014.008h-.007a1.732,1.732,0,0,0-.275.108,5.826,5.826,0,0,0-1.936,1.77c-.086.123-.173.253-.252.383a15.749,15.749,0,0,0-1.6,4.22,42.275,42.275,0,0,0-1.163,4.992,15.259,15.259,0,0,0-.181,1.525,2.963,2.963,0,0,1-.448,1.7,1.888,1.888,0,0,1-2.088.4,7.714,7.714,0,0,1-1.907-1.214,22.51,22.51,0,0,0-5.881-2.941h-.007l-.853-1.719-.252-.506-.426-.874a2.9,2.9,0,0,0,1.018-1.344,4.839,4.839,0,0,0,.123-2.037c-.065-.868-.13-1.727-.2-2.587l-.152-1.929-.043-.563a1.7,1.7,0,0,1-.007-.383v-.008a.713.713,0,0,1,.065-.3,1.339,1.339,0,0,1,1.091-.628c2.283-.384,4.6.289,6.908.433,2.68.174,5.419-.368,8.041.217C995.124,328.558,996.158,328.774,996.179,329.179Z" transform="translate(-965.574 -303.282)" fill="#f39e81"/>
            <path id="Trazado_122013" data-name="Trazado 122013" d="M989.251,307.76a2.968,2.968,0,0,1-.47,1,2.073,2.073,0,0,1-.983.773c-.491.173-1.069.152-1.466.491a3.03,3.03,0,0,0-.65,1.452,3.265,3.265,0,0,1-2.638,2.167c-.361.051-.78.058-1,.34a1.528,1.528,0,0,0-.21.694.64.64,0,0,1-.029.108,2.529,2.529,0,0,1-1.6,1.785c-.419.144-.874.181-1.294.332a1.211,1.211,0,0,0-.86.932c-.05.578.492,1,.91,1.4s.737,1.134.3,1.51a1.05,1.05,0,0,1-1.207-.137,2.286,2.286,0,0,0-1.156-.563,1.344,1.344,0,0,0-1.113.874,2.9,2.9,0,0,0,.282,2.912,6.815,6.815,0,0,1,.513.7v.008a.366.366,0,0,1,.065.115,2.367,2.367,0,0,1,.13.816,2.12,2.12,0,0,0,.3,1.467c.166.188.4.3.578.477a.682.682,0,0,1,.144.2c.174.355-.036.788.08,1.163a2.145,2.145,0,0,0,.542.715,2.235,2.235,0,0,1-.506,3.245,3,3,0,0,0-.6.376,5.163,5.163,0,0,0-.412.549,2.987,2.987,0,0,1-.643.592l-.426-.874-2.97-5.968-2.529-5.094-4.725-9.515-2.19-4.4a3.127,3.127,0,0,1,3.114-.672,3.338,3.338,0,0,1,.557-2.97c.072-.086.144-.165.216-.245a3.308,3.308,0,0,1,3.179-.9,1.747,1.747,0,0,1,1.221-1.6,4.685,4.685,0,0,1,2.124-.124,2.981,2.981,0,0,1,1.662-2.442,1.817,1.817,0,0,1,.274-.108,2.97,2.97,0,0,1,2.659.361,1.739,1.739,0,0,1,.534-.261,8.534,8.534,0,0,1,1.257-.412,10.647,10.647,0,0,1,1.85.188,3.247,3.247,0,0,1,2.161,1.214,7.431,7.431,0,0,1,.8,1.257,3.568,3.568,0,0,1,3.981,2.211,6.4,6.4,0,0,1,.281,1.474A6.676,6.676,0,0,1,989.251,307.76Z" transform="translate(-963.422 -299.044)" fill="#e8605c"/>
          </g>
          <path id="Trazado_122014" data-name="Trazado 122014" d="M1066.468,343.069l-15.261,2.272-14.418,30.191,16.3-4.6Z" transform="translate(-974.261 -305.548)" fill="#0b3a47"/>
          <path id="Trazado_122015" data-name="Trazado 122015" d="M1048.8,375.766l.161,2.461L1009.4,395.874l-1.682-2.706,24.664-11.881.111-.924Z" transform="translate(-969.967 -310.379)" fill="#547989"/>
        </g>
      </g>
    </g>
    <g id="Grupo_94619" data-name="Grupo 94619" transform="translate(1040.735 14823.777)">
      <path id="Trazado_120704" data-name="Trazado 120704" d="M280.654,35.651h79.221a7.6,7.6,0,0,1,7.6,7.6V59.74a7.6,7.6,0,0,1-7.6,7.6h-22.1l1.892,16.492L327.5,67.339H280.654a7.6,7.6,0,0,1-7.6-7.6V43.25A7.6,7.6,0,0,1,280.654,35.651Z" transform="translate(-273.054 -35.651)" fill="#764cf0"/>
      <g id="Grupo_93726" data-name="Grupo 93726" transform="translate(10.883 7.414)">
        <rect id="Rectángulo_34718" data-name="Rectángulo 34718" width="71.14" height="2.599" fill="#faf0e3"/>
        <rect id="Rectángulo_34719" data-name="Rectángulo 34719" width="71.14" height="2.599" transform="translate(0 6.172)" fill="#faf0e3"/>
        <rect id="Rectángulo_34720" data-name="Rectángulo 34720" width="71.14" height="2.599" transform="translate(0 12.344)" fill="#faf0e3"/>
      </g>
    </g>
    <g id="Grupo_93740" data-name="Grupo 93740" transform="translate(981.687 14956)">
      <path id="Trazado_120716" data-name="Trazado 120716" d="M456.608,77.2H411.681a5.85,5.85,0,0,0-5.849,5.849v20.306a5.85,5.85,0,0,0,5.849,5.849h11.647l-.64,7.468,7.681-7.681h25.656a5.845,5.845,0,0,0,5.848-5.7c.142-5.648.371-14.268.581-20.039A5.844,5.844,0,0,0,456.608,77.2Z" transform="translate(-405.832 -77.202)" fill="#26d19e"/>
      <g id="Grupo_93739" data-name="Grupo 93739" transform="translate(6.188 5.938)">
        <path id="Trazado_120717" data-name="Trazado 120717" d="M461.506,94.659l-6.912-10.615-7.283,10.492-.123.123h5.472v7.159h3.127V94.659Z" transform="translate(-417.485 -84.044)" fill="#fff"/>
        <path id="Trazado_120718" data-name="Trazado 120718" d="M421.3,90.772a3.944,3.944,0,0,0-2.5-3.659.644.644,0,0,0-.266-.045,1.324,1.324,0,0,0-.184.017,2.04,2.04,0,0,0-1.406-.377c-2.372,0-3.98,2.28-3.98,4.366,0,2.491,2.371,3.98,4.43,3.98A4.125,4.125,0,0,0,421.3,90.772Zm-4.026,2.279a2.035,2.035,0,0,1-2.2-1.875,2.21,2.21,0,0,1,2.068-2.444.886.886,0,0,1,.128.008,2.815,2.815,0,0,0,.349.019.585.585,0,0,0,.138-.01,2.236,2.236,0,0,1-.487,4.3Z" transform="translate(-412.962 -84.396)" fill="#fff"/>
        <path id="Trazado_120719" data-name="Trazado 120719" d="M431.432,95.1a.877.877,0,0,0-.266-.037.983.983,0,0,0-.174.019,1.987,1.987,0,0,0-1.415-.386,4.281,4.281,0,0,0-3.99,4.357c0,2.592,2.362,4,4.45,4a4.124,4.124,0,0,0,3.9-4.283A3.958,3.958,0,0,0,431.432,95.1Zm-1.526,5.937a2.029,2.029,0,0,1-2.2-1.874,2.215,2.215,0,0,1,2.05-2.446.946.946,0,0,1,.147.009,2.592,2.592,0,0,0,.341.028.43.43,0,0,0,.155-.018,2.221,2.221,0,0,1,1.425,2A2.2,2.2,0,0,1,429.906,101.036Z" transform="translate(-414.63 -85.451)" fill="#fff"/>
        <path id="Trazado_120720" data-name="Trazado 120720" d="M426.925,88.186a2.953,2.953,0,0,0,.258-1.039,1.007,1.007,0,0,0-1.039-1.02c-.809,0-1.066.855-1.269,1.618v-.01c-4.733,12.363-4.807,12.482-4.881,12.583a1.141,1.141,0,0,0-.276.7,1.1,1.1,0,0,0,1.205,1.131c.7,0,.827-.487.955-.965v.009Z" transform="translate(-413.855 -84.319)" fill="#fff"/>
      </g>
    </g>
    <rect id="Rectángulo_34724" data-name="Rectángulo 34724" width="34.698" height="34.698" rx="8" transform="matrix(0.985, 0.174, -0.174, 0.985, 1191.293, 14832)" fill="#26d19e"/>
    <circle id="Elipse_5469" data-name="Elipse 5469" cx="17.511" cy="17.511" r="17.511" transform="translate(1040.735 15046.979)" fill="#764cf0"/>
  </g>
</svg>
