<svg xmlns="http://www.w3.org/2000/svg" xmlns:xlink="http://www.w3.org/1999/xlink" width="133" height="133" viewBox="0 0 133 133">
  <defs>
    <clipPath id="clip-path">
      <rect id="Rect치ngulo_35042" data-name="Rect치ngulo 35042" width="101" height="101" transform="translate(-4296 4463)" fill="#fff" stroke="#707070" stroke-width="1"/>
    </clipPath>
  </defs>
  <g id="Grupo_95199" data-name="Grupo 95199" transform="translate(4310 -4660.845)">
    <g id="_240_F_45534235_0gBPChSdgLWL7NQO2mupYcpNQvC23RWu" data-name="240_F_45534235_0gBPChSdgLWL7NQO2mupYcpNQvC23RWu" transform="translate(-4310 4660.845)" fill="#ccfff0" stroke="#21155c" stroke-width="3">
      <circle cx="66.5" cy="66.5" r="66.5" stroke="none"/>
      <circle cx="66.5" cy="66.5" r="65" fill="none"/>
    </g>
    <g id="Enmascarar_grupo_306" data-name="Enmascarar grupo 306" transform="translate(0 213.844)" clip-path="url(#clip-path)">
      <g id="prima_1_" data-name="prima (1)" transform="translate(-4297.182 4462.252)">
        <g id="Grupo_94719" data-name="Grupo 94719">
          <g id="Grupo_94703" data-name="Grupo 94703">
            <path id="Trazado_122128" data-name="Trazado 122128" d="M54.911,83.966l3.23,16.167H45.221l3.23-16.167Z" fill="#ff826e"/>
          </g>
          <g id="Grupo_94704" data-name="Grupo 94704">
            <path id="Trazado_122129" data-name="Trazado 122129" d="M51.681,74.292l6.153,5.281-2.923,4.393h-6.46l-2.923-4.393Z" fill="#fc6e51"/>
          </g>
          <g id="Grupo_94705" data-name="Grupo 94705">
            <path id="Trazado_122130" data-name="Trazado 122130" d="M19.381,100.133H3.23v-6.46a20.984,20.984,0,0,1,17.539-20.7L32.3,71.046l8.075,12.937,5.152-4.409,2.923,4.393-3.23,16.167Z" fill="#e6e9ed"/>
          </g>
          <g id="Grupo_94706" data-name="Grupo 94706">
            <path id="Trazado_122131" data-name="Trazado 122131" d="M83.982,100.133H58.142l-3.23-16.167,2.923-4.393,5.152,4.409,8.075-12.937,11.531,1.922a20.984,20.984,0,0,1,17.539,20.7v6.46Z" fill="#e6e9ed"/>
          </g>
          <g id="Grupo_94707" data-name="Grupo 94707">
            <path id="Trazado_122132" data-name="Trazado 122132" d="M51.681,74.292l-6.153,5.281-5.152,4.409L32.3,71.046l7.332-8.8Z" fill="#ccd1d9"/>
          </g>
          <g id="Grupo_94708" data-name="Grupo 94708">
            <path id="Trazado_122133" data-name="Trazado 122133" d="M63.73,62.244l7.332,8.8L62.987,83.982l-5.152-4.409-6.153-5.281Z" fill="#ccd1d9"/>
          </g>
          <g id="Grupo_94709" data-name="Grupo 94709">
            <path id="Trazado_122134" data-name="Trazado 122134" d="M74.292,9.69l-3.23,19.381H32.3L29.071,9.69l12.92,4.845L51.681,3.23l9.69,11.305Z" fill="#fcd770"/>
          </g>
          <g id="Grupo_94710" data-name="Grupo 94710">
            <circle id="Elipse_5617" data-name="Elipse 5617" cx="3.23" cy="3.23" r="3.23" transform="translate(48.451 16.15)" fill="#ffc729"/>
          </g>
          <g id="Grupo_94711" data-name="Grupo 94711">
            <path id="Trazado_122135" data-name="Trazado 122135" d="M71.062,29.071l9.69,16.15H61.372Z" fill="#69d6f4"/>
          </g>
          <g id="Grupo_94712" data-name="Grupo 94712">
            <path id="Trazado_122136" data-name="Trazado 122136" d="M80.752,45.221,63.73,62.244,51.681,74.292l9.69-29.071Z" fill="#4fc1e9"/>
          </g>
          <g id="Grupo_94713" data-name="Grupo 94713">
            <path id="Trazado_122137" data-name="Trazado 122137" d="M51.681,29.071l9.69,16.15H41.991Z" fill="#69d6f4"/>
          </g>
          <g id="Grupo_94714" data-name="Grupo 94714">
            <path id="Trazado_122138" data-name="Trazado 122138" d="M41.991,45.221l9.69,29.071L39.633,62.244,22.611,45.221Z" fill="#4fc1e9"/>
          </g>
          <g id="Grupo_94715" data-name="Grupo 94715">
            <path id="Trazado_122139" data-name="Trazado 122139" d="M32.3,29.071l9.69,16.15H22.611Z" fill="#69d6f4"/>
          </g>
          <g id="Grupo_94716" data-name="Grupo 94716">
            <path id="Trazado_122140" data-name="Trazado 122140" d="M61.372,45.221l-9.69,29.071-9.69-29.071Z" fill="#69d6f4"/>
          </g>
          <g id="Grupo_94717" data-name="Grupo 94717">
            <path id="Trazado_122141" data-name="Trazado 122141" d="M71.062,29.071l-9.69,16.15-9.69-16.15Z" fill="#4fc1e9"/>
          </g>
          <g id="Grupo_94718" data-name="Grupo 94718">
            <path id="Trazado_122142" data-name="Trazado 122142" d="M51.681,29.071l-9.69,16.15L32.3,29.071Z" fill="#4fc1e9"/>
          </g>
        </g>
        <g id="Grupo_94720" data-name="Grupo 94720">
          <path id="Trazado_122143" data-name="Trazado 122143" d="M51.681,24.226a4.845,4.845,0,1,0-4.845-4.845A4.851,4.851,0,0,0,51.681,24.226Zm0-6.46a1.615,1.615,0,1,1-1.615,1.615A1.618,1.618,0,0,1,51.681,17.765Z"/>
          <path id="Trazado_122144" data-name="Trazado 122144" d="M59.757,21h3.23v3.23h-3.23Z"/>
          <path id="Trazado_122145" data-name="Trazado 122145" d="M40.376,21h3.23v3.23h-3.23Z"/>
          <path id="Trazado_122146" data-name="Trazado 122146" d="M82.855,71.369,71.92,69.545l-6-7.2L82.786,45.47,72.753,28.748,76.346,7.193,61.863,12.625,51.681.748,41.5,12.625,27.016,7.193,30.61,28.748,20.577,45.47,37.448,62.341l-6,7.2L20.508,71.369a22.541,22.541,0,0,0-18.893,22.3v8.075H101.748V93.673a22.541,22.541,0,0,0-18.893-22.3Zm-13.781-.191L62.612,81.532,54.057,74.2l9.564-9.564Zm-19.3,14.4h3.812l2.584,12.941H47.19Zm4.272-3.23H49.315l-1.654-2.481L51.6,76.492l.084.084.084-.084L55.7,79.866Zm5.083-35.51L51.681,69.184,44.233,46.836Zm-14.287-3.23,6.838-11.4,6.838,11.4Zm17.693,3.23H76.853L55.377,68.313Zm1.688-3.23,6.838-11.4,6.838,11.4Zm-2.852-1.525-6.838-11.4H68.21Zm-19.381,0-6.838-11.4H48.829ZM32.3,32.21l6.838,11.4H25.464Zm8.526,14.626,7.159,21.477L26.509,46.836Zm1.655-30.392,9.2-10.732,9.2,10.734,11.357-4.259L69.694,27.456H33.669l-2.545-15.27ZM49.307,74.2l-8.555,7.332L34.291,71.18l5.452-6.543ZM4.845,93.673A19.32,19.32,0,0,1,21.039,74.555L31.5,72.813,40,86.432l5.191-4.449L46.736,84.3,43.9,98.518H21v-6.46h-3.23v6.46H4.845Zm93.673,4.845H85.6v-6.46h-3.23v6.46h-22.9L56.627,84.3l1.546-2.318,5.191,4.449,8.5-13.62,10.462,1.743A19.32,19.32,0,0,1,98.518,93.673Z"/>
          <path id="Trazado_122147" data-name="Trazado 122147" d="M1.615,43.606h16.15v3.23H1.615Z"/>
          <path id="Trazado_122148" data-name="Trazado 122148" d="M3.505,58.182H22.353v3.232H3.505Z" transform="translate(-28.903 15.164) rotate(-30.974)"/>
          <path id="Trazado_122149" data-name="Trazado 122149" d="M11.313,21.283h3.232V40.131H11.313Z" transform="translate(-20.039 25.976) rotate(-59.026)"/>
          <path id="Trazado_122150" data-name="Trazado 122150" d="M85.6,43.606h16.15v3.23H85.6Z"/>
          <path id="Trazado_122151" data-name="Trazado 122151" d="M88.813,50.331h3.23V69.163h-3.23Z" transform="matrix(0.515, -0.857, 0.857, 0.515, -7.339, 106.549)"/>
          <path id="Trazado_122152" data-name="Trazado 122152" d="M81.012,29.066H99.843V32.3H81.012Z" transform="matrix(0.857, -0.515, 0.515, 0.857, -2.896, 50.921)"/>
        </g>
      </g>
    </g>
    <rect id="Rect치ngulo_34750" data-name="Rect치ngulo 34750" width="18.053" height="18.053" rx="2" transform="matrix(0.945, 0.327, -0.327, 0.945, -4207.675, 4765.974)" fill="#764cf0"/>
  </g>
</svg>
