<svg xmlns="http://www.w3.org/2000/svg" xmlns:xlink="http://www.w3.org/1999/xlink" width="85" height="85" viewBox="0 0 85 85"><defs><clipPath id="a"><rect width="55" height="55" transform="translate(195 6111)" fill="#ffd41c"/></clipPath></defs><g transform="translate(-180 -6099)"><rect width="85" height="85" transform="translate(180 6099)" fill="#fff"/><g transform="translate(0 3)" clip-path="url(#a)"><g transform="translate(202.637 6111)"><path d="M.859,7.235v43.8a1.055,1.055,0,0,0,1.055,1.055H35.938a1.055,1.055,0,0,0,1.055-1.055V7.235A1.055,1.055,0,0,0,35.938,6.18H1.915A1.055,1.055,0,0,0,.859,7.235Zm0,0" fill="#f2f2f2"/><path d="M35.938,6.18H31.4V52.091h4.541a1.056,1.056,0,0,0,1.056-1.055V7.235A1.056,1.056,0,0,0,35.938,6.18Zm0,0" fill="#dbd9d1"/><path d="M31.819,3.986H23.094v-1.7A1.475,1.475,0,0,0,21.619.806H16.234a1.475,1.475,0,0,0-1.475,1.475v1.7H6.034a.505.505,0,0,0-.505.506V7.929a.505.505,0,0,0,.505.506H31.819a.505.505,0,0,0,.505-.506V4.492A.5.5,0,0,0,31.819,3.986Zm0,0" fill="#ee5646"/><path d="M17.521,1.775V2.842a1.144,1.144,0,0,0,1.144,1.144h4.429v-1.7A1.475,1.475,0,0,0,21.619.806H16.551A.97.97,0,0,1,17.521,1.775Zm0,0" fill="#d83e3a"/><path d="M31.819,3.986H26.751V8.435h5.068a.506.506,0,0,0,.506-.506V4.492A.506.506,0,0,0,31.819,3.986Zm0,0" fill="#d83e3a"/><path d="M8.566,32.021H6.609a.839.839,0,0,0-.839.839V46.252H9.4V32.86A.839.839,0,0,0,8.566,32.021Zm0,0" fill="#ee5646"/><path d="M16.125,26.3H14.169a.839.839,0,0,0-.839.839V46.252h3.634V27.143A.839.839,0,0,0,16.125,26.3Zm0,0" fill="#f5b556"/><path d="M23.684,21.286H21.728a.839.839,0,0,0-.839.839V46.252h3.634V22.126A.839.839,0,0,0,23.684,21.286Zm0,0" fill="#97b4fc"/><path d="M31.243,17.065H29.287a.839.839,0,0,0-.839.839V46.252h3.635V17.9A.84.84,0,0,0,31.243,17.065Zm0,0" fill="#54dac4"/><path d="M33.417,47.326H4.436a.551.551,0,0,1-.551-.551V45.265a.551.551,0,0,1,.551-.551H33.417a.551.551,0,0,1,.551.551v1.511A.551.551,0,0,1,33.417,47.326Zm0,0" fill="#3c5666"/><path d="M30.74,48.3l5.714,5.714a.606.606,0,0,0,.857,0l1.379-1.378a.606.606,0,0,0,0-.857l-5.714-5.714a.606.606,0,0,0-.857,0L30.74,47.446A.606.606,0,0,0,30.74,48.3Zm0,0" fill="#cc996a"/><path d="M29.462,31.083a9.639,9.639,0,1,0,0,13.631A9.639,9.639,0,0,0,29.462,31.083Zm0,0" fill="#cdd6df"/><path d="M29.462,31.083a9.636,9.636,0,0,0-9.525-2.435,9.594,9.594,0,0,1,4.106,2.435c.06.06.116.122.174.183a6.815,6.815,0,0,1,0,13.264c-.058.061-.114.123-.174.183a9.6,9.6,0,0,1-4.106,2.435,9.639,9.639,0,0,0,9.525-16.066Zm0,0" fill="#aebcc4"/><path d="M27.466,42.718a6.816,6.816,0,1,1,0-9.639A6.816,6.816,0,0,1,27.466,42.718Zm0,0" fill="#87dbfd"/><path d="M27.466,33.08a6.816,6.816,0,0,0-8.927-.618,6.815,6.815,0,0,1,3.445,11.494,6.873,6.873,0,0,1-.712.618A6.815,6.815,0,0,0,27.466,33.08Zm0,0" fill="#59c2e9"/><path d="M17.257,32.51a7.621,7.621,0,1,0,10.778,0A7.63,7.63,0,0,0,17.257,32.51ZM26.9,42.149a6.007,6.007,0,1,1,0-8.5A6.017,6.017,0,0,1,26.9,42.149Zm0,0"/><path d="M39.259,51.212l-1.46-1.46V7.235a1.863,1.863,0,0,0-1.861-1.861H33.13V4.492A1.312,1.312,0,0,0,31.819,3.18H23.9v-.9A2.283,2.283,0,0,0,21.619,0H16.234a2.283,2.283,0,0,0-2.281,2.281v.9H6.034A1.312,1.312,0,0,0,4.723,4.492v.883H1.915A1.863,1.863,0,0,0,.054,7.235v43.8A1.863,1.863,0,0,0,1.915,52.9H34.194l1.69,1.69a1.413,1.413,0,0,0,2,0l1.378-1.378a1.411,1.411,0,0,0,0-2ZM6.335,4.792h8.424a.806.806,0,0,0,.806-.806V2.281a.67.67,0,0,1,.669-.669h5.385a.67.67,0,0,1,.67.669V3.986a.805.805,0,0,0,.806.806h8.424V7.629H6.335ZM1.915,51.286a.25.25,0,0,1-.25-.25V7.235a.25.25,0,0,1,.25-.25H4.723v.943A1.312,1.312,0,0,0,6.034,9.24H31.819A1.313,1.313,0,0,0,33.13,7.929V6.986h2.808a.25.25,0,0,1,.25.25V48.141l-1.415-1.415V45.265a1.358,1.358,0,0,0-1.356-1.356h-.529V39.961a10.616,10.616,0,0,0,0-4.125V17.9a1.647,1.647,0,0,0-1.645-1.645H29.287A1.647,1.647,0,0,0,27.642,17.9v2.509a.806.806,0,0,0,1.611,0V17.9a.034.034,0,0,1,.033-.034h1.957a.034.034,0,0,1,.034.034V32.013a10.553,10.553,0,0,0-1.245-1.5q-.375-.375-.778-.7V24.164a.806.806,0,0,0-1.611,0v4.566a10.381,10.381,0,0,0-2.313-.919V22.126a1.646,1.646,0,0,0-1.645-1.645H21.728a1.647,1.647,0,0,0-1.645,1.645v5.653a10.408,10.408,0,0,0-2.313.884V27.143A1.647,1.647,0,0,0,16.125,25.5H14.168a1.646,1.646,0,0,0-1.645,1.645V35.31a10.563,10.563,0,0,0,0,5.178v3.421H10.211V32.86a1.647,1.647,0,0,0-1.644-1.645H6.609A1.647,1.647,0,0,0,4.965,32.86V43.909h-.53a1.357,1.357,0,0,0-1.356,1.356v1.511a1.358,1.358,0,0,0,1.356,1.356H7.53a.806.806,0,0,0,0-1.611H4.69v-1H15.509a10.477,10.477,0,0,0,1.245,1H11.28a.806.806,0,1,0,0,1.611h9.3a10.461,10.461,0,0,0,4.132,0h5.069a1.4,1.4,0,0,0,.389.741l2.413,2.412Zm26.978-7.141a8.835,8.835,0,0,1-14.771-3.931.847.847,0,0,0-.033-.12,8.914,8.914,0,0,1,0-4.39.839.839,0,0,0,.033-.12,8.835,8.835,0,0,1,17.166.477.811.811,0,0,0,.024.111,8.963,8.963,0,0,1,0,3.454.838.838,0,0,0-.024.11A8.77,8.77,0,0,1,28.892,44.145Zm2.384-.36v.124h-.085C31.22,43.868,31.248,43.826,31.277,43.785Zm-1.148,2.736H28.538a10.378,10.378,0,0,0,.9-.691ZM14.135,31.842v-4.7a.034.034,0,0,1,.034-.033h1.957a.034.034,0,0,1,.033.033v2.574a10.413,10.413,0,0,0-2.023,2.125ZM21.695,27.5V22.126a.033.033,0,0,1,.033-.034h1.957a.033.033,0,0,1,.033.034v5.39A10.519,10.519,0,0,0,21.695,27.5ZM31.526,45.52l-.06.06-.06-.06ZM8.6,32.86V43.909H6.576V32.86a.033.033,0,0,1,.033-.033H8.566A.033.033,0,0,1,8.6,32.86ZM36.883,53.307l-5.432-5.432,1.1-1.1,5.432,5.432Zm0,0"/></g></g></g></svg>