<svg xmlns="http://www.w3.org/2000/svg" xmlns:xlink="http://www.w3.org/1999/xlink" width="133" height="133" viewBox="0 0 133 133"><defs><clipPath id="a"><rect width="85" height="85" transform="translate(603 951)" fill="#fff" stroke="#707070" stroke-width="1"/></clipPath></defs><g transform="translate(-579 -927.46)"><g transform="translate(579 927.46)" fill="#fff8d9" stroke="#21155c" stroke-width="3"><circle cx="66.5" cy="66.5" r="66.5" stroke="none"/><circle cx="66.5" cy="66.5" r="65" fill="none"/></g><rect width="18.053" height="18.053" rx="2" transform="matrix(0.945, 0.327, -0.327, 0.945, 690.325, 1032.589)" fill="#21155c"/><g clip-path="url(#a)"><g transform="translate(600.167 948.167)"><path d="M28.333,16.292v2.833H22.667A5.673,5.673,0,0,0,17,24.792v2.951A11.346,11.346,0,0,0,28.333,39.076h4.375A17,17,0,0,0,62.333,27.692v-11.4Zm0,17.118a5.673,5.673,0,0,1-5.667-5.667V24.792h5.667v2.9a16.969,16.969,0,0,0,.987,5.717Z" fill="#fbbe18"/><path d="M57.51,68.708a4.081,4.081,0,0,0-4.081-4.081A6.122,6.122,0,0,1,47.307,58.5V43.672H43.225V58.5A6.122,6.122,0,0,1,37.1,64.627a4.081,4.081,0,0,0-4.081,4.081Z" fill="#fbbe18"/><path d="M57.51,68.708a4.081,4.081,0,0,0-4.081-4.081A6.122,6.122,0,0,1,47.307,58.5V43.672H43.225v5.1h2.041V68.708Z" fill="#f68820"/><path d="M62.333,16.292h-34a2.833,2.833,0,0,1,0-5.667h34a2.833,2.833,0,0,1,0,5.667Z" fill="#f68820"/><path d="M45.333,16.292h-17a2.833,2.833,0,0,1,0-5.667h17a2.833,2.833,0,0,1,0,5.667Z" fill="#fbbe18"/><path d="M68,19.125H62.333V16.292h-34v2.833h17v8.567a16.993,16.993,0,0,1-8.5,14.725,17.006,17.006,0,0,0,21.125-3.341h4.375A11.346,11.346,0,0,0,73.667,27.743V24.792A5.673,5.673,0,0,0,68,19.125Zm0,8.618a5.673,5.673,0,0,1-5.667,5.667h-.987a16.969,16.969,0,0,0,.987-5.717v-2.9H68Z" fill="#f68820"/><circle cx="2.833" cy="2.833" r="2.833" transform="translate(34 24.792)" fill="#fbd301"/><path d="M39.667,53.125H36.833V51.708a4.25,4.25,0,0,0-4.25-4.25H25.5a5.667,5.667,0,0,0-5.667,5.667V77.208a9.673,9.673,0,0,0,6.84,2.833H39.667a5.667,5.667,0,0,0,5.667-5.667V58.792A5.667,5.667,0,0,0,39.667,53.125Z" fill="#464646"/><path d="M11.333,75.792V54.542a1.417,1.417,0,0,1,1.417-1.417h7.083V77.208H12.75A1.417,1.417,0,0,1,11.333,75.792Z" fill="#323232"/><path d="M11.333,64.458V54.542a1.417,1.417,0,0,1,1.417-1.417H17V64.458Z" fill="#464646"/><path d="M28.333,52.417a.708.708,0,0,0,.708.708h7.792V51.708H29.042A.708.708,0,0,0,28.333,52.417Z" fill="#323232"/><path d="M39.667,58.792H29.75a1.417,1.417,0,1,1,0-2.833h9.917a1.417,1.417,0,1,1,0,2.833Z" fill="#58595b"/><path d="M14.167,57.847v6.611H17V57.847a1.417,1.417,0,1,0-2.833,0Z" fill="#d7e6f0"/><path d="M14.167,64.458v8.028a1.417,1.417,0,0,0,2.833,0V64.458Z" fill="#8caac8"/><path d="M2.833,54.542h8.5v21.25h-8.5Z" transform="translate(14.167 130.333) rotate(180)" fill="#fab991"/><path d="M2.833,64.458h8.5V75.792h-8.5Z" transform="translate(14.167 140.25) rotate(180)" fill="#f0915a"/><path d="M65.167,47.458H58.083a4.25,4.25,0,0,0-4.25,4.25v1.417H51a5.667,5.667,0,0,0-5.667,5.667V74.375A5.667,5.667,0,0,0,51,80.042H63.993a9.673,9.673,0,0,0,6.84-2.833V53.125A5.667,5.667,0,0,0,65.167,47.458Z" fill="#f04b37"/><path d="M60.917,58.792H51a1.417,1.417,0,1,1,0-2.833h9.917a1.417,1.417,0,1,1,0,2.833Z" fill="#ff6955"/><path d="M79.333,75.792V54.542a1.417,1.417,0,0,0-1.417-1.417H70.833V77.208h7.083A1.417,1.417,0,0,0,79.333,75.792Z" fill="#be281e"/><path d="M79.333,64.458V54.542a1.417,1.417,0,0,0-1.417-1.417h-4.25V64.458Z" fill="#f04b37"/><path d="M62.333,52.417a.708.708,0,0,1-.708.708H53.833V51.708h7.792A.708.708,0,0,1,62.333,52.417Z" fill="#be281e"/><path d="M76.5,57.847v6.611H73.667V57.847a1.417,1.417,0,1,1,2.833,0Z" fill="#d7e6f0"/><path d="M76.5,64.458v8.028a1.417,1.417,0,0,1-2.833,0V64.458Z" fill="#8caac8"/><path d="M79.333,54.542h8.5v21.25h-8.5Z" fill="#fab991"/><path d="M79.333,64.458h8.5V75.792h-8.5Z" fill="#f0915a"/><path d="M73.667,41.792H70.833V38.958a1.417,1.417,0,1,1,2.833,0Z" fill="#fabe19"/><path d="M77.917,43.208A1.417,1.417,0,0,1,76.5,44.625H73.667V41.792H76.5A1.417,1.417,0,0,1,77.917,43.208Z" fill="#fabe19"/><path d="M70.833,44.625h2.833v2.833a1.417,1.417,0,1,1-2.833,0Z" fill="#fabe19"/><path d="M66.583,43.208A1.417,1.417,0,0,1,68,41.792h2.833v2.833H68A1.417,1.417,0,0,1,66.583,43.208Z" fill="#fabe19"/><path d="M19.833,41.792H17V38.958a1.417,1.417,0,1,1,2.833,0Z" fill="#fabe19"/><path d="M24.083,43.208a1.417,1.417,0,0,1-1.417,1.417H19.833V41.792h2.833A1.417,1.417,0,0,1,24.083,43.208Z" fill="#fabe19"/><path d="M17,44.625h2.833v2.833a1.417,1.417,0,1,1-2.833,0Z" fill="#fabe19"/><path d="M12.75,43.208a1.417,1.417,0,0,1,1.417-1.417H17v2.833H14.167A1.417,1.417,0,0,1,12.75,43.208Z" fill="#fabe19"/></g></g></g></svg>