<svg xmlns="http://www.w3.org/2000/svg" width="249.424" height="345.432" viewBox="0 0 249.424 345.432">
  <g id="Grupo_95190" data-name="Grupo 95190" transform="translate(-286.484 -1476.555)">
    <g id="empatia" transform="translate(234.015 1476.556)">
      <path id="Trazado_121144" data-name="Trazado 121144" d="M391.4,241.982h-.889l1.344-18.25h4.828a6.147,6.147,0,0,1,6.147,6.147v.672A11.43,11.43,0,0,1,391.4,241.982Z" transform="translate(-270.349 -178.929)" fill="#f9a58e"/>
      <path id="Trazado_121145" data-name="Trazado 121145" d="M71.4,241.982h.89l-1.344-18.25H66.116a6.147,6.147,0,0,0-6.147,6.147v.672A11.43,11.43,0,0,0,71.4,241.982Z" transform="translate(-5.998 -178.929)" fill="#eaac9d"/>
      <path id="Trazado_121146" data-name="Trazado 121146" d="M168.465,426.878v-5.231c-5.129,3.509-10.794,5.518-14.631,5.518s-9.5-2.009-14.631-5.518v5.231a7.579,7.579,0,0,1-4.3,6.834l-6.184,2.967a.82.82,0,0,0,.355,1.56h49.522a.82.82,0,0,0,.355-1.56l-6.184-2.967A7.579,7.579,0,0,1,168.465,426.878Z" transform="translate(-60.607 -337.211)" fill="#ffcbbe"/>
      <path id="Trazado_121147" data-name="Trazado 121147" d="M169.909,75.347a28.73,28.73,0,1,0-57.3,0l1.953,26.525c1.03,13.985,18.271,23.676,26.7,23.676s25.669-9.691,26.7-23.676c0,0,1.953-26.525,1.953-26.525Z" transform="translate(-48.029 -35.595)" fill="#ffcbbe"/>
      <path id="Trazado_121148" data-name="Trazado 121148" d="M208.07,51.148a28.7,28.7,0,0,1,11.97,25.505l-1.953,26.525c-1.03,13.985-18.27,23.676-26.7,23.676a19.636,19.636,0,0,1-6.163-1.2c5.006,3.318,10.449,5.209,14.173,5.209,8.428,0,25.669-9.691,26.7-23.676l1.953-26.525a28.745,28.745,0,0,0-19.98-29.51Z" transform="translate(-106.171 -40.906)" fill="#eaac9d"/>
      <path id="Trazado_121149" data-name="Trazado 121149" d="M326.8,7.5l9.032,15.645-4.848,2.8a.3.3,0,0,1-.414-.111l-8.729-15.12a.3.3,0,0,1,.111-.414Z" transform="translate(-215.4 -5.999)" fill="#dd5790"/>
      <path id="Trazado_121150" data-name="Trazado 121150" d="M233.588,26.746,214.32,15.621a1.273,1.273,0,0,0-1.273,0l-6.279,3.624a3.242,3.242,0,1,1-3.242-5.616l6.62-3.822a5.483,5.483,0,0,1,5.484,0l4.444,2.566a5.4,5.4,0,0,0,5.4,0l.535-.308L234.63,27l-.363.21a3.251,3.251,0,0,0-.506-.36Z" transform="translate(-119.51 -7.256)" fill="#c38959"/>
      <path id="Trazado_121151" data-name="Trazado 121151" d="M150.549,93.46l2.882-1.664a3.242,3.242,0,0,0-3.242-5.616l-2.882,1.664a3.242,3.242,0,1,0,3.242,5.616Z" transform="translate(-74.549 -68.574)" fill="#c38959"/>
      <path id="Trazado_121152" data-name="Trazado 121152" d="M169.244,122.754l1.712-.989a3.242,3.242,0,0,0-3.242-5.616l-1.712.989a3.242,3.242,0,0,0,3.242,5.616Z" transform="translate(-89.5 -92.543)" fill="#b17a4a"/>
      <path id="Trazado_121153" data-name="Trazado 121153" d="M194.363,146.027l1.545-.892a3.242,3.242,0,1,0-3.242-5.616l-1.545.892a3.242,3.242,0,0,0,3.242,5.616Z" transform="translate(-109.589 -111.232)" fill="#c38959"/>
      <path id="Trazado_121154" data-name="Trazado 121154" d="M226.162,164.769l.877-.506a3.242,3.242,0,0,0-3.242-5.616l-.877.506a3.242,3.242,0,0,0,3.242,5.616Z" transform="translate(-135.02 -126.53)" fill="#b17a4a"/>
      <path id="Trazado_121155" data-name="Trazado 121155" d="M129.158,7.5l-9.032,15.645,4.848,2.8a.3.3,0,0,0,.414-.111l8.729-15.12a.3.3,0,0,0-.111-.414Z" transform="translate(-54.108 -5.999)" fill="#9dc6fb"/>
      <path id="Trazado_121156" data-name="Trazado 121156" d="M162.6,31.2a3.242,3.242,0,0,1-3.242-5.616l.275-.159a7.829,7.829,0,0,1-3.717-1.048l-.62-.357-8.62,14.931.521.3a3.237,3.237,0,0,1,.9-.772l2.819-1.628a3.3,3.3,0,0,1,4.523,1.2,3.242,3.242,0,0,1-1.218,4.374l-.669.386a3.242,3.242,0,0,1,3.242,5.616l.076-.044,1.545-.892a3.243,3.243,0,0,1,4.052,4.954,3.249,3.249,0,0,1,.77-.618l.877-.506a3.243,3.243,0,0,1,3.993,5.019l3,1.73a3.3,3.3,0,0,0,4.523-1.2,3.242,3.242,0,0,0-1.218-4.374l3.033,1.751a3.3,3.3,0,0,0,4.523-1.2,3.242,3.242,0,0,0-1.218-4.374l2.457,1.419a3.206,3.206,0,0,0,4.513-1.356l.005-.01a3.286,3.286,0,0,0-1.276-4.25l-.1-.057a3.242,3.242,0,0,0,4.429-1.187,3.5,3.5,0,0,0-1.36-4.529L170.148,27.575a1.273,1.273,0,0,0-1.273,0Z" transform="translate(-75.339 -19.209)" fill="#ffece4"/>
      <path id="Trazado_121157" data-name="Trazado 121157" d="M184.723,121.5a3.229,3.229,0,0,1-1.524-.434l.1.057a3.286,3.286,0,0,1,1.276,4.25l-.005.01a3.206,3.206,0,0,1-4.513,1.356l-2.457-1.419a3.242,3.242,0,0,1,1.218,4.374,3.3,3.3,0,0,1-4.523,1.2l-3.033-1.751a3.242,3.242,0,0,1,1.218,4.374,3.3,3.3,0,0,1-4.523,1.2l-3-1.73h0a3.239,3.239,0,0,1-.751.6l-.877.506a3.243,3.243,0,0,1-4.055-4.951,3.242,3.242,0,0,1-.768.615l-1.545.892a3.242,3.242,0,1,1-3.242-5.616l-.076.044-1.712.989a3.242,3.242,0,0,1-3.242-5.616l1.025-.592-1.527.881a3.227,3.227,0,0,1-1.869.425,22.339,22.339,0,0,0-3.578,10.747,3.053,3.053,0,0,0,3.046,3.254h39.255a3.053,3.053,0,0,0,3.046-3.254,22.326,22.326,0,0,0-3.367-10.418Z" transform="translate(-72.19 -95.865)" fill="#86f1a7"/>
      <path id="Trazado_121158" data-name="Trazado 121158" d="M188.095,136.722a22.335,22.335,0,0,0-3.368-10.418,3.228,3.228,0,0,1-1.524-.434l.1.057a3.286,3.286,0,0,1,1.276,4.25l-.005.01a3.206,3.206,0,0,1-4.513,1.356l-.09-.052q.074.609.115,1.226a3.053,3.053,0,0,1-3.041,3.254,3.365,3.365,0,0,1-2.156,0h-2.1a3.231,3.231,0,0,1-.306,2.355,3.3,3.3,0,0,1-4.523,1.2l-3-1.73h0a3.239,3.239,0,0,1-.751.6l-.877.506a3.242,3.242,0,0,1-4.861-2.933H142.809q-.037.374-.062.751a3.053,3.053,0,0,0,3.046,3.254h39.255A3.053,3.053,0,0,0,188.095,136.722Z" transform="translate(-72.194 -100.664)" fill="#80e29d"/>
      <g id="Grupo_93965" data-name="Grupo 93965" transform="translate(52.469 0)">
        <path id="Trazado_121159" data-name="Trazado 121159" d="M126.336,43.3h-3.212l.253-3.438a30.133,30.133,0,0,0-5.389-19.569l3.2-1.847a1.5,1.5,0,0,0,.55-2.052L112.7.751A1.5,1.5,0,0,0,110.653.2L105.805,3a1.79,1.79,0,0,0-.784.921,3.913,3.913,0,0,1-3.706-.1L96.871,1.251a7.006,7.006,0,0,0-6.986,0l-5.958,3.44a6.358,6.358,0,0,1-2.491-.762A1.79,1.79,0,0,0,80.649,3L75.8.2a1.5,1.5,0,0,0-2.052.55L64.717,16.4a1.5,1.5,0,0,0,.55,2.052l3.2,1.847a30.393,30.393,0,0,0-1.955,3.186,1.5,1.5,0,0,0,2.652,1.41q.344-.648.725-1.278A4.743,4.743,0,0,0,71.9,26.122a24.006,24.006,0,0,0-2.847,9.835A4.558,4.558,0,0,0,73.6,40.813h31.29a1.5,1.5,0,1,0,0-3h-3.017a4.678,4.678,0,0,0,.278-1.1,4.745,4.745,0,0,0,6.356-3.986,4.694,4.694,0,0,0,4.842-1.9,20.882,20.882,0,0,1,1.054,5.336,1.55,1.55,0,0,1-1.548,1.653H111.9a1.5,1.5,0,1,0,0,3h.956a4.558,4.558,0,0,0,4.545-4.856,24.028,24.028,0,0,0-2.588-9.345,4.554,4.554,0,0,0,2.148-2.325,27.146,27.146,0,0,1,3.422,15.355l-1.953,26.525c-.946,12.839-17.035,22.145-25.025,22.283S68.979,79.116,68.026,66.168c-.668-9.064-1.575-21.381-1.953-26.525a27.24,27.24,0,0,1,.7-8.5,1.5,1.5,0,0,0-2.917-.715,30.229,30.229,0,0,0-.781,9.432L63.33,43.3H60.118a7.658,7.658,0,0,0-7.649,7.649v.672A12.948,12.948,0,0,0,64.894,64.544l.136,1.844c.575,7.8,5.851,14.368,12.064,18.822v4.457a6.109,6.109,0,0,1-3.449,5.48l-6.184,2.967a2.322,2.322,0,0,0,1,4.416h49.522a2.322,2.322,0,0,0,1-4.416l-6.184-2.967a6.109,6.109,0,0,1-3.448-5.48V85.21c6.212-4.454,11.489-11.022,12.063-18.822l.136-1.844a12.948,12.948,0,0,0,12.425-12.922V50.95a7.657,7.657,0,0,0-7.649-7.649ZM110.854,3.554,118.385,16.6l-2.509,1.448L108.346,5ZM91.267,36.432l-.877.506A1.74,1.74,0,0,1,88.2,34.3c.284-.309.284-.28,1.331-.885a1.74,1.74,0,1,1,1.74,3.014Zm-4.889-4.887a1.73,1.73,0,0,1-.811,1.057l-1.545.892a1.74,1.74,0,1,1-1.74-3.014l1.545-.892a1.739,1.739,0,0,1,2.551,1.957ZM80.7,27.922l-1.712.989A1.74,1.74,0,0,1,77.251,25.9l1.714-.989a1.74,1.74,0,1,1,1.74,3.014Zm-2.573-6-2.883,1.664a1.74,1.74,0,0,1-1.74-3.014l2.882-1.664a1.74,1.74,0,0,1,1.74,3.014ZM75.6,3.554,78.109,5l-7.53,13.043L68.069,16.6Zm-3.548,32.6a20.99,20.99,0,0,1,1.684-6.946,4.745,4.745,0,0,0,4.676,2.93,4.749,4.749,0,0,0,6.466,4.266,4.733,4.733,0,0,0,.534,1.4c.012.02.569.006-11.813.006A1.55,1.55,0,0,1,72.051,36.157Zm38.984-7.306a1.7,1.7,0,0,1-2.419.727l-2.454-1.417,0,0-4.833-2.791a1.5,1.5,0,1,0-1.5,2.6l4.833,2.791a1.748,1.748,0,0,1,.654,2.348,1.8,1.8,0,0,1-2.457.63l-4.77-2.754a1.5,1.5,0,1,0-1.5,2.6l1.74,1a1.721,1.721,0,0,1-.389,3.151,1.859,1.859,0,0,1-1.418-.176L94.837,36.6a4.747,4.747,0,0,0-5.462-6.307,4.751,4.751,0,0,0-4.8-3.94,4.744,4.744,0,0,0-2.872-4.291,4.742,4.742,0,0,0-6.583-5.881l5.4-9.346q.4.189.821.339a4.743,4.743,0,0,0,6.667,6.12l6.165-3.558,2.739,1.581a1.5,1.5,0,1,0,1.5-2.6L95.56,7.064a2.783,2.783,0,0,0-2.774,0l-6.279,3.624a1.74,1.74,0,1,1-1.74-3.014l6.62-3.822a3.994,3.994,0,0,1,3.982,0l4.444,2.566a6.927,6.927,0,0,0,6.109.393l5.4,9.353-6.753-3.9a1.5,1.5,0,1,0-1.5,2.6l10.26,5.924a2,2,0,0,1,.787,2.516,1.739,1.739,0,0,1-2.352.6h0c-.679-.4,2.574,1.486-7.192-4.152a1.5,1.5,0,1,0-1.5,2.6l7.184,4.148.007,0,.1.057a1.783,1.783,0,0,1,.679,2.288ZM55.473,51.623V50.95a4.651,4.651,0,0,1,4.645-4.645h3.433l1.121,15.22A9.942,9.942,0,0,1,55.473,51.623Zm50.884,35.542v2.5a9.128,9.128,0,0,0,5.153,8.188l3.483,1.671H71.462l3.483-1.671A9.128,9.128,0,0,0,80.1,89.668v-2.5c4.488,2.629,9.24,4.226,12.906,4.289C97.415,91.51,102.565,89.386,106.357,87.165Zm24.625-35.542a9.942,9.942,0,0,1-9.2,9.9L122.9,46.3h3.433a4.651,4.651,0,0,1,4.645,4.645Z" transform="translate(-52.469 0)" fill="#222221"/>
        <path id="Trazado_121160" data-name="Trazado 121160" d="M182.234,238.29H170.266a1.5,1.5,0,1,0,0,3h11.968a1.5,1.5,0,1,0,0-3Z" transform="translate(-145.475 -190.571)" fill="#222221"/>
        <path id="Trazado_121161" data-name="Trazado 121161" d="M255.5,251.67v-7.88a2.5,2.5,0,0,1,2.5-2.5h7.969a1.5,1.5,0,1,0,0-3H258a5.508,5.508,0,0,0-5.5,5.5v7.88a2.5,2.5,0,0,1-2.5,2.5,1.5,1.5,0,0,0,0,3A5.508,5.508,0,0,0,255.5,251.67Z" transform="translate(-209.244 -190.571)" fill="#222221"/>
        <path id="Trazado_121162" data-name="Trazado 121162" d="M201.769,368.789a1.5,1.5,0,1,0-1.346,2.685l1.257.63a20.632,20.632,0,0,0,18.42,0l1.257-.63a1.5,1.5,0,1,0-1.346-2.685l-1.257.63a17.615,17.615,0,0,1-15.726,0Z" transform="translate(-170.131 -294.81)" fill="#222221"/>
      </g>
    </g>
    <g id="Grupo_95189" data-name="Grupo 95189" transform="translate(0 -1946.248)">
      <rect id="Rectángulo_34099" data-name="Rectángulo 34099" width="36.647" height="36.647" rx="8" transform="matrix(0.985, 0.174, -0.174, 0.985, 323.364, 3620.547)" fill="#ffd41c"/>
      <circle id="Elipse_5081" data-name="Elipse 5081" cx="8.012" cy="8.012" r="8.012" transform="translate(478.975 3682.211)" fill="#764cf0"/>
      <path id="Trazado_114565" data-name="Trazado 114565" d="M662.568-58.417c-5.557-2.619-11.14-5.157-16.69-7.675C618.1-78.694,589.386-91.729,568-114.334a117.188,117.188,0,0,1-30.469-63.449,111.446,111.446,0,0,1,.778-37.081h-4.135a115.525,115.525,0,0,0-.663,37.657,121.313,121.313,0,0,0,31.538,65.662C586.984-88.365,616.072-75.161,644.2-62.4c6.112,2.775,12.263,5.563,18.368,8.48Z" transform="translate(-10.934 4081.07) rotate(-30)" fill="#764cf0"/>
    </g>
  </g>
</svg>
