<svg xmlns="http://www.w3.org/2000/svg" xmlns:xlink="http://www.w3.org/1999/xlink" width="85" height="85" viewBox="0 0 85 85"><defs><clipPath id="a"><rect width="67" height="67" transform="translate(609 4865)" fill="#ffd41c"/></clipPath></defs><g transform="translate(-600 -4859.271)"><rect width="85" height="85" transform="translate(600 4859.271)" fill="#26d19e"/><g transform="translate(0 3.271)" clip-path="url(#a)"><g transform="translate(615.017 4865)"><path d="M32.389,66.019H22.576a1.41,1.41,0,0,1-1.394-1.193l-.58-3.708h13.76l-.58,3.708A1.411,1.411,0,0,1,32.389,66.019Zm0,0" fill="#344a5d"/><path d="M44.272,29.384a16.789,16.789,0,1,0-30.8,9.258,35.655,35.655,0,0,1,6.038,19.671v.738H35.452V57.97a34.506,34.506,0,0,1,5.975-19.232A16.708,16.708,0,0,0,44.272,29.384Zm0,0" fill="#fcea68"/><path d="M28.066,12.6a16.561,16.561,0,0,0-3.95.339A16.794,16.794,0,0,1,34.64,38.737,34.506,34.506,0,0,0,28.665,57.97v1.081h6.787V57.97a34.506,34.506,0,0,1,5.975-19.232A16.791,16.791,0,0,0,28.066,12.6Zm0,0" fill="#fed066"/><path d="M30.6,55.5H24.37V47.645a.661.661,0,0,1,.661-.66h4.9a.661.661,0,0,1,.661.66Zm0,0" fill="#fd715c"/><path d="M34.587,62.911H20.378A2.107,2.107,0,0,1,18.271,60.8V52.419a.759.759,0,0,1,.759-.759h16.9a.759.759,0,0,1,.759.759V60.8A2.107,2.107,0,0,1,34.587,62.911Zm0,0" fill="#3c5666"/><path d="M35.935,51.66H29.908v9.9a1.348,1.348,0,0,1-1.348,1.348h6.028A2.107,2.107,0,0,0,36.694,60.8V52.419A.759.759,0,0,0,35.935,51.66Zm0,0" fill="#2a3f4f"/><path d="M29.486,54.313H26.162a.981.981,0,0,0,0,1.963h3.324a.981.981,0,0,0,0-1.963Zm0,0"/><path d="M27.375,6.256a.981.981,0,0,0,.981-.981V.981a.981.981,0,0,0-1.963,0V5.274A.982.982,0,0,0,27.375,6.256Zm0,0"/><path d="M53.919,26.543H49.626a.981.981,0,0,0,0,1.963h4.293a.981.981,0,0,0,0-1.963Zm0,0"/><path d="M5.125,26.543H1.047a.981.981,0,0,0,0,1.963H5.125a.981.981,0,1,0,0-1.963Zm0,0"/><path d="M43.8,42.564a.981.981,0,0,0-1.388,1.388l3.035,3.035A.981.981,0,1,0,46.838,45.6Zm0,0"/><path d="M10.948,12.485A.981.981,0,0,0,12.336,11.1L9.3,8.062A.982.982,0,0,0,7.912,9.45Zm0,0"/><path d="M45.45,8.062,42.415,11.1A.981.981,0,1,0,43.8,12.485l3.035-3.035A.981.981,0,1,0,45.45,8.062Zm0,0"/><path d="M10.948,42.564,7.912,45.6A.982.982,0,0,0,9.3,46.987l3.035-3.035a.981.981,0,0,0-1.388-1.388Zm0,0"/><path d="M42.241,39.285a17.805,17.805,0,0,0,2.051-15.68.981.981,0,0,0-1.856.638A15.845,15.845,0,0,1,40.612,38.19a35.956,35.956,0,0,0-5.356,12.488h-3.68V47.645a1.64,1.64,0,0,0-.769-1.388,32.17,32.17,0,0,1,2.617-10.01,1.2,1.2,0,0,0-.885-1.691,2.289,2.289,0,0,0-1.394.456c-.165.112-.172.117-.291.117s-.126,0-.291-.117a2.36,2.36,0,0,0-2.788,0c-.165.112-.172.117-.291.117s-.126,0-.291-.117a2.359,2.359,0,0,0-2.788,0c-.165.112-.171.117-.291.117s-.126,0-.291-.117a2.288,2.288,0,0,0-1.394-.456.981.981,0,0,0-.981.981,1.054,1.054,0,0,0,.011.14.981.981,0,0,0,.085.57,32.2,32.2,0,0,1,2.616,10.01,1.642,1.642,0,0,0-.768,1.388v3.034h-3.73A37.177,37.177,0,0,0,14.293,38.1,15.809,15.809,0,0,1,40.5,20.411a.981.981,0,0,0,1.615-1.116A17.85,17.85,0,0,0,28.1,11.623,17.773,17.773,0,0,0,12.657,39.184a35.206,35.206,0,0,1,5.11,12.041,1.733,1.733,0,0,0-.477,1.194V60.8a3.092,3.092,0,0,0,2.75,3.07l.173,1.1A2.38,2.38,0,0,0,22.576,67h9.813a2.38,2.38,0,0,0,2.364-2.022l.172-1.1a3.092,3.092,0,0,0,2.751-3.07V52.418a1.733,1.733,0,0,0-.518-1.236A34,34,0,0,1,42.241,39.285Zm-18.2-2.2c.024,0,.046,0,.072,0a2.291,2.291,0,0,0,1.394-.456c.165-.112.172-.117.291-.117s.126,0,.291.117a2.361,2.361,0,0,0,2.788,0c.165-.112.172-.117.291-.117s.126,0,.291.117a2.289,2.289,0,0,0,1.394.456c.026,0,.048,0,.072,0A35.9,35.9,0,0,0,28.855,46H26.11A35.932,35.932,0,0,0,24.04,37.087Zm5.573,12.072v1.519H25.352V49.159Zm3.2,15.515a.426.426,0,0,1-.424.362H22.576a.427.427,0,0,1-.424-.362l-.122-.782H32.936Zm2.9-3.871a1.127,1.127,0,0,1-1.126,1.126H20.378A1.127,1.127,0,0,1,19.253,60.8v-.772H29.486a.981.981,0,0,0,0-1.963H19.253V56.276h2.342a.981.981,0,0,0,0-1.963H19.253V52.641h16.46Zm0,0"/></g></g></g></svg>