<svg xmlns="http://www.w3.org/2000/svg" xmlns:xlink="http://www.w3.org/1999/xlink" width="315" height="298.018" viewBox="0 0 315 298.018"><defs><clipPath id="a"><rect width="222.162" height="222.162" rx="19.504" transform="translate(0 99.265) rotate(-26.539)" fill="none"/></clipPath></defs><g transform="translate(-622.765 -83.922)"><rect width="222.162" height="222.162" rx="19.504" transform="translate(639.748 183.188) rotate(-26.539)" fill="#ffd41c"/><g transform="translate(755.653 107.199)"><path d="M834.847,152.254H756.9a3.7,3.7,0,0,1-3.7-3.7V110.467a3.7,3.7,0,0,1,3.7-3.7h77.944a3.7,3.7,0,0,1,3.7,3.7v38.088A3.7,3.7,0,0,1,834.847,152.254ZM756.9,107.865a2.605,2.605,0,0,0-2.6,2.6v38.088a2.606,2.606,0,0,0,2.6,2.6h77.944a2.606,2.606,0,0,0,2.6-2.6V110.467a2.606,2.606,0,0,0-2.6-2.6Z" transform="translate(-753.206 -106.77)" fill="#5e1dbb"/><g transform="translate(0 7.54)"><path d="M838,115.266H753.753a.548.548,0,0,1,0-1.1H838a.548.548,0,1,1,0,1.1Z" transform="translate(-753.206 -114.171)" fill="#5e1dbb"/></g><g transform="translate(75.706 2.445)"><path d="M828.065,112.916a.548.548,0,0,1-.278-1.019l4.482-2.649a.547.547,0,1,1,.556.941l-4.482,2.649A.535.535,0,0,1,828.065,112.916Z" transform="translate(-827.518 -109.17)" fill="#5e1dbb"/></g><g transform="translate(75.706 2.445)"><path d="M832.547,112.916a.532.532,0,0,1-.278-.077l-4.482-2.649a.546.546,0,0,1-.193-.749.54.54,0,0,1,.749-.193l4.482,2.649a.548.548,0,0,1-.278,1.019Z" transform="translate(-827.518 -109.17)" fill="#5e1dbb"/></g></g><g transform="translate(622.765 134.102)"><g transform="translate(0 0)"><path d="M769.6,137.507v78.418a4.337,4.337,0,0,1-4.343,4.329H627.093a4.334,4.334,0,0,1-4.328-4.329V137.507a4.334,4.334,0,0,1,4.328-4.329H765.253A4.337,4.337,0,0,1,769.6,137.507Z" transform="translate(-622.765 -133.178)" fill="#21155c"/></g><g transform="translate(0 0)"><path d="M769.6,137.507V142.1H622.765v-4.588a4.334,4.334,0,0,1,4.328-4.329H765.253A4.337,4.337,0,0,1,769.6,137.507Z" transform="translate(-622.765 -133.178)" fill="#fff"/></g><g transform="translate(136.375 2.165)"><circle cx="2.294" cy="2.294" r="2.294" fill="#ffb700"/></g><g transform="translate(129.025 2.165)"><circle cx="2.294" cy="2.294" r="2.294" fill="#9364ed"/></g><g transform="translate(121.675 2.165)"><circle cx="2.294" cy="2.294" r="2.294" fill="#5e1dbb"/></g><g transform="translate(15.188 22.943)"><rect width="116.455" height="6.798" fill="#26d19e"/></g><g transform="translate(18.238 43.082)"><path d="M688.707,176.38H641.123a.456.456,0,1,1,0-.913h47.584a.456.456,0,1,1,0,.913Z" transform="translate(-640.667 -175.467)" fill="#9364ed"/></g><g transform="translate(18.238 50.697)"><path d="M688.707,183.855H641.123a.456.456,0,1,1,0-.913h47.584a.456.456,0,1,1,0,.913Z" transform="translate(-640.667 -182.942)" fill="#9364ed"/></g><g transform="translate(18.238 58.314)"><path d="M688.707,191.331H641.123a.456.456,0,1,1,0-.913h47.584a.456.456,0,1,1,0,.913Z" transform="translate(-640.667 -190.418)" fill="#9364ed"/></g><g transform="translate(80.097 43.082)"><path d="M749.43,176.38H701.843a.456.456,0,1,1,0-.913H749.43a.456.456,0,0,1,0,.913Z" transform="translate(-701.387 -175.467)" fill="#9364ed"/></g><g transform="translate(80.097 50.697)"><path d="M749.43,183.855H701.843a.456.456,0,1,1,0-.913H749.43a.456.456,0,0,1,0,.913Z" transform="translate(-701.387 -182.942)" fill="#9364ed"/></g><g transform="translate(80.097 58.314)"><path d="M749.43,191.331H701.843a.456.456,0,1,1,0-.913H749.43a.456.456,0,0,1,0,.913Z" transform="translate(-701.387 -190.418)" fill="#9364ed"/></g></g><g transform="translate(639.748 83.922)"><g clip-path="url(#a)"><g transform="translate(12.367 67.531)"><path d="M534.931,178.519a118.8,118.8,0,0,1-53.957,99.548c-1.884,1.242-3.811,2.413-5.766,3.54l-.215.129a118.078,118.078,0,0,1-34.272,13.033,118.815,118.815,0,0,1-87.729-15.589l-.471-.3A119.668,119.668,0,0,1,322.8,252.06a118.66,118.66,0,0,1,1.828-149.323v-.015c.17-.213.342-.427.543-.642l.013-.015q3.62-4.325,7.665-8.292a3.59,3.59,0,0,1,.414-.385c1.884-1.856,3.811-3.626,5.824-5.339h.015a118.462,118.462,0,0,1,30.39-18.841c.513-.228,1.027-.443,1.555-.657h.015A119.1,119.1,0,0,1,436,61.371c1.97.314,3.925.7,5.852,1.128.285.056.571.129.857.185,1.5.342,2.983.713,4.453,1.128a118.745,118.745,0,0,1,87.772,114.707Z" transform="translate(-236.15 2.873)" fill="#21155c"/><g transform="translate(54.631 19.203)"><g transform="translate(34.338 19.654)"><path d="M319.947,122.288l8.175,2.515-8.175,2.515-2.515,8.175-2.515-8.175-8.175-2.515,8.175-2.515,2.515-8.175Z" transform="translate(-306.742 -59.548)" fill="#764cf0"/><path d="M343.945,119.008l6.033,1.856-6.033,1.856-1.856,6.033-1.856-6.033-6.033-1.856,6.033-1.856,1.856-6.033Z" transform="translate(-293.496 -60.097)" fill="#764cf0"/><path d="M343.945,83.336l6.033,1.856-6.033,1.856-1.856,6.033-1.856-6.033L334.2,85.193l6.033-1.856,1.856-6.033Z" transform="translate(-293.496 -77.304)" fill="#764cf0"/><path d="M437.834,131.2l6.033,1.856-6.033,1.856-1.856,6.033-1.856-6.033-6.033-1.856,6.033-1.856,1.856-6.033Z" transform="translate(-248.208 -54.218)" fill="#764cf0"/><path d="M437.834,131.2l6.033,1.856-6.033,1.856-1.856,6.033-1.856-6.033-6.033-1.856,6.033-1.856,1.856-6.033Z" transform="translate(-285.971 -75.687)" fill="#764cf0"/><path d="M453.241,142.67l6.033,1.856-6.033,1.856-1.856,6.033-1.856-6.033-6.033-1.856,6.033-1.856,1.856-6.033Z" transform="translate(-240.776 -48.684)" fill="#764cf0"/></g><g transform="translate(0)"><ellipse cx="3.28" cy="3.28" rx="3.28" ry="3.28" transform="translate(79.401 55.153)" fill="#764cf0"/><ellipse cx="3.28" cy="3.28" rx="3.28" ry="3.28" transform="translate(0 110.367)" fill="#764cf0"/><ellipse cx="3.28" cy="3.28" rx="3.28" ry="3.28" transform="translate(69.925)" fill="#764cf0"/><ellipse cx="3.28" cy="3.28" rx="3.28" ry="3.28" transform="translate(54.82 156.09)" fill="#764cf0"/><ellipse cx="3.28" cy="3.28" rx="3.28" ry="3.28" transform="translate(27.467 107.087)" fill="#764cf0"/><ellipse cx="3.28" cy="3.28" rx="3.28" ry="3.28" transform="translate(238.664 85.584)" fill="#764cf0"/></g></g><g transform="translate(175.182 337.269)"><path d="M820,453.295v31.362h39.864V443.474Z" transform="translate(-819.997 -443.474)" fill="#fd8753"/></g><g transform="translate(63.048 335.365)"><path d="M739.274,441.962l-8.358,30.228,38.458,10.634,10.975-39.693Z" transform="translate(-730.916 -441.962)" fill="#fd8753"/></g><g transform="translate(179.969)"><path d="M829.914,186.669s10.225-17.2,26.562-8.828,14.548,25.7,26.949,29.67,22.552,14.669,15.346,28.461c-6.028,11.538-22.357,7.87-22.357,7.87s-10.151,17.289-28.1,11.378-26.13-15.235-24.253-30.111S829.914,186.669,829.914,186.669Z" transform="translate(-823.8 -175.543)" fill="#26d19e"/></g><g transform="translate(154.507 6.854)"><path d="M805.969,210.254s-9.7-14.168,9.936-25.332,33.945,4.144,34.108,12.373-4.519,12.039-4.519,12.039,1.829,17.826-15.3,16.6S805.969,210.254,805.969,210.254Z" transform="translate(-803.573 -180.988)" fill="#26d19e"/></g><g transform="translate(163.727 48.938)"><path d="M829.94,214.42l.361,14.4s-2.492,4.206-10.9,5.1c-6.262.668-8.5-.695-8.5-.695l.691-7.316.685-7.135,15.129-3.729Z" transform="translate(-810.897 -214.42)" fill="#ffe1c2"/></g><g transform="translate(164.418 48.253)"><path d="M829.755,213.876a4.705,4.705,0,0,1-.384,1.4c-3.041,7.275-14.307,10.361-17.925,10.776l.685-7.135Z" transform="translate(-811.446 -213.876)"/></g><g transform="translate(156.351 14.992)"><path d="M809.755,193.009s-7.106,18.246-3.875,28.2,12.344,8,17.755,5.831a18.189,18.189,0,0,0,7.823-5.641,7.748,7.748,0,0,0,8.436-3.379c3.236-4.908.9-10.3-2.077-11.436s-6.377,1.12-6.377,1.12l2.519-5.321S821.4,176.376,809.755,193.009Z" transform="translate(-805.038 -187.453)" fill="#ffe1c2"/></g><g transform="translate(159.014 33.755)"><path d="M808.069,212.691a.68.68,0,0,1-.668-.566c-1.01-6.118,1.386-9.365,1.489-9.5a.677.677,0,0,1,1.081.816c-.021.03-2.145,2.959-1.234,8.463a.678.678,0,0,1-.558.779A.827.827,0,0,1,808.069,212.691Z" transform="translate(-807.153 -202.359)"/></g><g transform="translate(182.475 37.553)"><path d="M826.466,210.459a.676.676,0,0,1-.317-1.273l7.015-3.734a.676.676,0,0,1,.634,1.195l-7.015,3.732A.676.676,0,0,1,826.466,210.459Z" transform="translate(-825.791 -205.376)"/></g><g transform="translate(185.631 39.604)"><path d="M832.354,211.306a.675.675,0,0,1-.444-.166l-3.379-2.949a.676.676,0,1,1,.887-1.02l3.38,2.948a.677.677,0,0,1-.444,1.187Z" transform="translate(-828.298 -207.006)"/></g><g transform="translate(158.196 11.34)"><path d="M806.556,202.8a15.4,15.4,0,0,1,3.727-8.25c3.613-4.047,6.668-3.377,6.668-3.377s-5.331,11.673,3.642,15.786c6.383,2.925,10.469,1.5,10.469,1.5l9.135-9.07-18.173-14.758S805.457,182.306,806.556,202.8Z" transform="translate(-806.503 -184.552)" fill="#26d19e"/></g><g transform="translate(163.757 43.551)"><path d="M811.6,214.373a.677.677,0,0,1-.221-1.317,6.225,6.225,0,0,0,2.943-2.581.667.667,0,0,1,.924-.238.674.674,0,0,1,.238.925,7.476,7.476,0,0,1-3.664,3.172A.632.632,0,0,1,811.6,214.373Z" transform="translate(-810.921 -210.141)"/></g><g transform="translate(165.304 30.291)"><path d="M813.127,205.789a.675.675,0,0,1-.66-.827l.665-2.933-.876-1.385a.675.675,0,1,1,1.141-.724l1.028,1.623a.674.674,0,0,1,.089.512l-.726,3.207A.68.68,0,0,1,813.127,205.789Z" transform="translate(-812.15 -199.607)"/></g><g transform="translate(156.34 30.217)"><path d="M806.006,205.727a.675.675,0,0,1-.661-.827l.666-2.93-.877-1.385a.676.676,0,0,1,1.142-.724l1.027,1.623a.675.675,0,0,1,.091.512l-.726,3.2A.681.681,0,0,1,806.006,205.727Z" transform="translate(-805.029 -199.548)"/></g><g transform="translate(158.158 26.296)"><path d="M807.149,198.21a.676.676,0,0,1-.141-1.337l1.993-.422a.657.657,0,0,1,.8.52.674.674,0,0,1-.521.8l-1.991.423A.686.686,0,0,1,807.149,198.21Z" transform="translate(-806.473 -196.434)"/></g><g transform="translate(19.721 6.309)"><g transform="translate(0 2.318)"><path d="M765.229,231.014l-32.411,19.881L696.5,202.277,728.908,182.4Z" transform="translate(-696.497 -182.396)" fill="#9364ed"/></g><g transform="translate(4.191)"><path d="M768.558,229.173l-32.411,19.881-36.321-48.617,32.411-19.881Z" transform="translate(-699.826 -180.555)" fill="#fff"/></g><g transform="translate(12.617 7.892)"><path d="M707.2,202.769a.671.671,0,0,1-.577-.322.678.678,0,0,1,.222-.93l23.789-14.592a.676.676,0,0,1,.709,1.152L707.55,202.668A.663.663,0,0,1,707.2,202.769Z" transform="translate(-706.52 -186.824)" fill="#5e1dbb"/></g><g transform="translate(16.471 12.91)"><path d="M710.258,206.76a.671.671,0,0,1-.577-.322.678.678,0,0,1,.221-.93l23.789-14.594a.676.676,0,1,1,.709,1.152l-23.789,14.594A.663.663,0,0,1,710.258,206.76Z" transform="translate(-709.582 -190.811)" fill="#5e1dbb"/></g><g transform="translate(20.239 17.987)"><path d="M713.251,210.789a.677.677,0,0,1-.355-1.252l23.79-14.592a.676.676,0,0,1,.707,1.152L713.6,210.688A.674.674,0,0,1,713.251,210.789Z" transform="translate(-712.575 -194.844)" fill="#5e1dbb"/></g><g transform="translate(24.011 23.057)"><path d="M716.248,214.816a.676.676,0,0,1-.354-1.252l23.789-14.591a.676.676,0,0,1,.707,1.152L716.6,214.716A.673.673,0,0,1,716.248,214.816Z" transform="translate(-715.572 -198.872)" fill="#5e1dbb"/></g></g><g transform="translate(106.799 31.995)"><path d="M786.115,200.961l35.135,46.805-33.74,19.716-21.838-57.84Z" transform="translate(-765.672 -200.961)" fill="#ffe1c2"/></g><g transform="translate(164.226 26.083)"><path d="M816.144,199.071a.765.765,0,0,1-.223-.036l-4.174-1.456a.677.677,0,0,1,.444-1.279l4.174,1.456a.676.676,0,0,1-.222,1.315Z" transform="translate(-811.293 -196.264)"/></g><g transform="translate(34.462 49.527)"><path d="M750.11,243.773s-.755-13.346-4.785-18.634-11.08-9.394-12.59-6.334,3.274,7.49,2.519,9.3-5.792.9-13.347-1.789-12.589-11.432-12.589-11.432a13.809,13.809,0,0,0-1.007,6.611,14.646,14.646,0,0,0,1.511,4.821s-1.6-3.627-1.614,3.011c-.005,3.332,2.873,5.663,2.873,5.663s-2.267,2.735,2.518,8.779,18.13,11.583,18.13,11.583,14.856,36.259,39.282,45.829a49.653,49.653,0,0,0,43.562-3.274l-7.554-39.785S780.829,267.444,750.11,243.773Z" transform="translate(-708.207 -214.888)" fill="#ffe1c2"/></g><g transform="translate(34.831 59.05)"><path d="M721.673,231.947a.854.854,0,0,1-.137-.013c-5.992-1.255-12.57-8.047-12.847-8.338a.676.676,0,1,1,.977-.935c.064.067,6.568,6.78,12.146,7.947a.677.677,0,0,1-.138,1.339Z" transform="translate(-708.5 -222.453)"/></g><g transform="translate(36.657 68.955)"><path d="M720.165,236.489c-7-1.172-9.949-4.918-10.074-5.077a.676.676,0,0,1,1.07-.827c.029.034,2.787,3.492,9.117,4.562a.676.676,0,0,1-.113,1.342Z" transform="translate(-709.951 -230.322)"/></g><g transform="translate(53.826 129.315)"><path d="M824.219,300.9s-32.466,43.754-59.134,92.339S723.59,502.594,723.59,502.594l68.293,4.223,49.659-120.055-14.6,118.456,66.044-2.312s14.291-109.968,6.672-161.839S883.1,278.273,883.1,278.273Z" transform="translate(-723.59 -278.273)" fill="#ffe268"/></g><g transform="translate(189.048 9.537)"><path d="M835.725,211.107a.66.66,0,0,1-.419-.149.672.672,0,0,1-.108-.948c10.686-13.45-3.334-25.2-3.937-25.691a.676.676,0,0,1,.856-1.046c.159.128,15.659,13.078,4.138,27.576A.667.667,0,0,1,835.725,211.107Z" transform="translate(-831.012 -183.119)" fill="#764cf0"/></g><g transform="translate(117.031 62.135)"><path d="M773.8,256.038s25.994-29.083,57.378-30.971,41.959,13.22,43.47,20.4,4.155,58.545,2.267,61.944S862.149,316.85,841.2,318.36s-31.9-1.133-33.41-2.267-3.4-17-3.4-17l-17.753,4.533Z" transform="translate(-773.801 -224.904)" fill="#764cf0"/></g><g transform="translate(178.95 48.941)"><path d="M826.813,214.423s-8.835,19.884.359,27.769,22.877,2.783,22.877,2.783,4.615,2.956,13.439-.03,13.135-11.164,13.135-11.164Z" transform="translate(-822.99 -214.423)" fill="#26d19e"/></g><g transform="translate(82.099 4.344)"><path d="M791.194,206.646s-8.825-13.845-13.261-16.889-29.162-12.767-31.6-10.393,12.014,12.292,12.014,12.292-2.486.539-3.093,2.538a4.6,4.6,0,0,0,.485,3.632s-3.083-.1-3.949,1.986.559,4.387.559,4.387,5.682,10.372,8.91,10.594,2.806-5.516,2.806-5.516,1.176,5.234,3.993,8.115,8.593,3.183,14.567.035S791.194,206.646,791.194,206.646Z" transform="translate(-746.05 -178.994)" fill="#ffe1c2"/></g><g transform="translate(101.982 20.52)"><path d="M780.209,212.392c-6.777-.709-9.038-7.76-9.6-10.021-2.26.451-7.129,1.186-8.423-.481a1.9,1.9,0,0,1-.038-2.164c2-3.977,10.384-7.67,10.74-7.826a.677.677,0,1,1,.539,1.241c-.082.035-8.293,3.649-10.068,7.191-.122.238-.235.558-.107.725.641.821,4.508.563,7.729-.146a.689.689,0,0,1,.52.1.673.673,0,0,1,.291.443c.016.091,1.67,8.872,8.483,9.588a.677.677,0,0,1-.071,1.351Z" transform="translate(-761.846 -191.844)"/></g><g transform="translate(93.714 16.33)"><path d="M765.228,200.427a.66.66,0,0,1-.212-.035c-4.385-1.436-9.44-10.486-9.654-10.871a.676.676,0,1,1,1.183-.656c.05.089,5.006,8.97,8.893,10.243a.677.677,0,0,1-.211,1.319Z" transform="translate(-755.278 -188.516)"/></g><g transform="translate(91.106 22.501)"><path d="M764.141,206.732c-4.208,0-10.182-11.051-10.856-12.322a.676.676,0,0,1,1.195-.634c2.39,4.515,7.1,11.6,9.642,11.6a2.524,2.524,0,0,0,2.019-.85,3.6,3.6,0,0,0,.42-2.577.676.676,0,0,1,1.32-.293,4.932,4.932,0,0,1-.661,3.683,3.756,3.756,0,0,1-2.962,1.387Z" transform="translate(-753.206 -193.418)"/></g><g transform="translate(146.77 121.625)"><path d="M798.282,287.543a.7.7,0,0,1-.674-.634c-.2-3.094-.668-13.294,1.541-14.57a1.384,1.384,0,0,1,1.522.116c3.321,2.214-.889,12.616-1.765,14.676A.679.679,0,0,1,798.282,287.543Zm1.639-13.964c-.817.322-1.237,4.717-1.105,10.024C800.308,279.318,801.334,274.523,799.921,273.579Z" transform="translate(-797.426 -272.164)" fill="#fff"/></g><g transform="translate(157.002 149.698)"><path d="M824.345,309.008a122.631,122.631,0,0,1-18.222-1.308.677.677,0,0,1,.216-1.337c.421.065,42.344,6.663,61.2-11.7a.676.676,0,1,1,.945.967C857.172,306.647,838.363,309.008,824.345,309.008Z" transform="translate(-805.554 -294.465)" fill="#fff"/></g><g transform="translate(170.8 211.348)"><path d="M817.192,370.575a.676.676,0,0,1-.584-1.017c.094-.164,9.815-16.513,34.95-26.068a.667.667,0,0,1,.872.39.675.675,0,0,1-.391.872c-24.657,9.377-34.169,25.327-34.264,25.487A.675.675,0,0,1,817.192,370.575Z" transform="translate(-816.516 -343.441)" fill="#fff"/></g><g transform="translate(209.395 172.481)"><path d="M866.858,341.823c-5.369,0-9.761-1.595-13.076-4.752-6.708-6.386-6.612-16.782-6.6-17.221a.677.677,0,0,1,.426-.618l16.664-6.62a.677.677,0,0,1,.5,1.258l-16.23,6.449c.061,2.029.658,10.526,6.182,15.78,3.416,3.245,8.1,4.683,13.952,4.313a.617.617,0,0,1,.719.628.673.673,0,0,1-.628.719C868.115,341.8,867.479,341.823,866.858,341.823Z" transform="translate(-847.176 -312.564)" fill="#fff"/></g><g transform="translate(148.665 176.282)"><path d="M810.118,347.243a14.379,14.379,0,0,1-2.281-.186,9.474,9.474,0,0,1-7.12-4.746c-4.9-8.66,1.8-25.587,2.085-26.3a.689.689,0,0,1,.83-.4l25.215,7.812a.681.681,0,0,1,.463.785C829.259,324.448,824.395,347.243,810.118,347.243Zm-6.28-30.149c-1.13,3.051-6.037,17.312-1.942,24.551a8.172,8.172,0,0,0,6.158,4.073c13.435,2.183,18.888-17.476,19.792-21.188Z" transform="translate(-798.932 -315.584)" fill="#fff"/></g><g transform="translate(0 355.939)"><path d="M783.384,507.465s9.68-45.378,2.365-45.52-19.126,4.579-19.126,4.579-15.051-11.168-22.958-7.466S730.013,472.7,730.013,472.7l-43.9,19.806s-6.008,6.945-5.21,11c.622,3.165,61.58,10.822,88.343,14.034,6.9.828,13.146-3.625,14.138-10.074Z" transform="translate(-680.83 -458.306)" fill="#fff"/></g><g transform="translate(30.427 369.652)"><path d="M719.325,483.8a.686.686,0,0,1-.206-.031l-13.647-4.343a.677.677,0,1,1,.413-1.289L718.037,482l-2.773-5.788a.679.679,0,0,1,.087-.724.694.694,0,0,1,.692-.225l15.7,4.063-8.473-8.988a.677.677,0,0,1,.983-.93l10.082,10.695a.674.674,0,0,1,.089.809.689.689,0,0,1-.75.311l-16.557-4.285,2.822,5.889a.682.682,0,0,1-.1.738A.674.674,0,0,1,719.325,483.8Z" transform="translate(-705.002 -469.2)" fill="#5e1dbb"/></g><g transform="translate(148.872 355.796)"><path d="M821.171,467.217s-26.048,42.545-21.554,47.8,36.228,5.98,50.714,3.663,20.036-4.061,21.133-7.6-5.778-47.252-5.778-47.252-6.381-7.183-15.126-5.333-22.445,8.619-22.445,8.619S824.712,461.272,821.171,467.217Z" transform="translate(-799.096 -458.192)" fill="#fff"/></g><g transform="translate(171.281 364.042)"><path d="M817.574,469.606a.676.676,0,0,1-.344-1.258l5.934-3.508A.675.675,0,0,1,823.85,466l-5.934,3.509A.651.651,0,0,1,817.574,469.606Z" transform="translate(-816.898 -464.743)" fill="#5e1dbb"/></g></g></g></g><g transform="translate(648.946 264.233)"><path d="M1.955,45.241A1.955,1.955,0,0,1,0,43.286V13.774A1.955,1.955,0,0,1,1.955,11.82H38.476L55.023,0,50.971,11.82h10.25a1.955,1.955,0,0,1,1.955,1.955V43.286a1.955,1.955,0,0,1-1.955,1.955Z" transform="translate(0 0)" fill="#faf0e3" stroke="rgba(0,0,0,0)" stroke-miterlimit="10" stroke-width="1"/><g transform="translate(11.464 18.341)"><rect width="6.929" height="20.379" fill="#764cf0"/></g><g transform="translate(22.57 22.009)"><rect width="6.929" height="16.711" fill="#ffd41c"/></g><g transform="translate(44.783 22.009)"><rect width="6.929" height="16.711" fill="#26d19e"/></g><g transform="translate(33.677 28.53)"><rect width="6.929" height="10.19" fill="#21155c"/></g></g><g transform="translate(852.765 279.624)"><path d="M461.2,155.918v50.421H394.919V155.918a5.405,5.405,0,0,1,5.409-5.409h55.466A5.405,5.405,0,0,1,461.2,155.918Z" transform="translate(-394.919 -150.509)" fill="#faf0e3"/><path d="M461.2,155.918v4.845H394.919v-4.845a5.405,5.405,0,0,1,5.409-5.409h55.466A5.405,5.405,0,0,1,461.2,155.918Z" transform="translate(-394.919 -150.509)" fill="#26d19e"/><g transform="translate(47.029 3.811)"><circle cx="1.644" cy="1.644" r="1.644" fill="#f34919"/><circle cx="1.644" cy="1.644" r="1.644" transform="translate(5.261)" fill="#ffd387"/><circle cx="1.644" cy="1.644" r="1.644" transform="translate(10.71)" fill="#b7b8fb"/></g><g transform="translate(7.956 17.95)"><rect width="13.87" height="29.462" fill="#764cf0"/><rect width="13.87" height="25.122" transform="translate(17.155 4.34)" fill="#ffd41c"/><rect width="13.87" height="20.387" transform="translate(34.796 9.075)" fill="#26d19e"/></g><g transform="translate(4.931 38.271)"><path d="M401.063,210.083h53.006l4.6-10.654" transform="translate(-401.063 -198.443)" fill="none" stroke="#0b0a10" stroke-linecap="round" stroke-linejoin="round" stroke-width="0.963"/><path d="M469.411,201.456l3.058-3.255-.2,4.044" transform="translate(-414.564 -198.2)" fill="none" stroke="#0b0a10" stroke-linecap="round" stroke-linejoin="round" stroke-width="0.963"/></g></g><rect width="35.349" height="35.349" rx="8" transform="matrix(0.985, 0.174, -0.174, 0.985, 699.198, 327.878)" fill="#26d19e"/><circle cx="17.839" cy="17.839" r="17.839" transform="translate(857.058 138.1)" fill="#764cf0"/></g></svg>