<svg xmlns="http://www.w3.org/2000/svg" xmlns:xlink="http://www.w3.org/1999/xlink" width="67" height="67" viewBox="0 0 67 67">
  <defs>
    <clipPath id="clip-path">
      <rect id="Rectángulo_34710" data-name="Rectángulo 34710" width="67" height="67" transform="translate(691 13743)" fill="#ffd41c" stroke="#707070" stroke-width="1"/>
    </clipPath>
  </defs>
  <g id="Enmascarar_grupo_229" data-name="Enmascarar grupo 229" transform="translate(-691 -13743)" clip-path="url(#clip-path)">
    <g id="factura_1_" data-name="factura (1)" transform="translate(691 13743)">
      <g id="Grupo_93696" data-name="Grupo 93696">
        <g id="Grupo_93694" data-name="Grupo 93694">
          <circle id="Elipse_5451" data-name="Elipse 5451" cx="11.235" cy="11.235" r="11.235" transform="translate(37.054 1.309)" fill="#ffce62"/>
        </g>
        <g id="Grupo_93695" data-name="Grupo 93695">
          <path id="Trazado_120619" data-name="Trazado 120619" d="M48.289,23.779V65.691l-5.1-2.614-5.1,2.614-5.1-2.614-5.1,2.614-5.1-2.614-5.1,2.614-5.1-2.614-5.1,2.614V8.04l5.1,2.49,5.1-2.49,5.1,2.49,5.1-2.49,5.1,2.49L37.97,8.1A11.24,11.24,0,0,0,48.289,23.779Z" fill="#fff1d8"/>
        </g>
      </g>
      <path id="Trazado_120620" data-name="Trazado 120620" d="M16.632,18.756H32.3a1.309,1.309,0,0,0,0-2.617H16.632a1.309,1.309,0,1,0,0,2.617Z"/>
      <path id="Trazado_120621" data-name="Trazado 120621" d="M16.632,26.728H37.054a1.309,1.309,0,1,0,0-2.617H16.632a1.309,1.309,0,1,0,0,2.617Z"/>
      <path id="Trazado_120622" data-name="Trazado 120622" d="M39.339,32.082H16.632a1.309,1.309,0,1,0,0,2.617H39.339a1.309,1.309,0,1,0,0-2.617Z"/>
      <path id="Trazado_120623" data-name="Trazado 120623" d="M30.2,47.98A12.506,12.506,0,0,1,27.027,46.5a1.051,1.051,0,0,1-.238-1,1.441,1.441,0,0,1,.949-1.137,2.557,2.557,0,0,1,2.353.372l.125.106a1.309,1.309,0,1,0,1.654-2.029l-.02-.016A4.786,4.786,0,0,0,29.7,41.748v-.771a1.338,1.338,0,0,0-1.221-1.351,1.309,1.309,0,0,0-1.4,1.306v.9l-.1.028a4.031,4.031,0,0,0-2.766,3.158,3.6,3.6,0,0,0,1.195,3.542,13.639,13.639,0,0,0,3.918,1.884,1.645,1.645,0,0,1,1.191,1.929,2.155,2.155,0,0,1-2.138,1.818,3.583,3.583,0,0,1-2.546-.653,1.34,1.34,0,0,0-1.794.277,1.309,1.309,0,0,0,.324,1.889,5.764,5.764,0,0,0,2.716,1.051V57.6A1.338,1.338,0,0,0,28.3,58.946a1.309,1.309,0,0,0,1.4-1.306v-1.01a4.84,4.84,0,0,0,3.4-3.819,4.268,4.268,0,0,0-2.9-4.831Z"/>
      <path id="Trazado_120624" data-name="Trazado 120624" d="M56.9,7.6a1.309,1.309,0,0,0,2.269-1.3,12.541,12.541,0,0,0-22.189.826l-3.995,1.95-4.527-2.21a1.308,1.308,0,0,0-1.148,0L22.78,9.074l-4.527-2.21a1.308,1.308,0,0,0-1.148,0l-4.53,2.21L8.05,6.864A1.309,1.309,0,0,0,6.167,8.04V65.691a1.321,1.321,0,0,0,1.906,1.165l4.5-2.308,4.505,2.309a1.308,1.308,0,0,0,1.194,0l4.505-2.309,4.505,2.309a1.309,1.309,0,0,0,1.194,0l4.5-2.308,4.505,2.309a1.308,1.308,0,0,0,1.193,0l4.507-2.309,4.5,2.309A1.321,1.321,0,0,0,49.6,65.691V25.018A12.582,12.582,0,0,0,59.2,18.725a1.309,1.309,0,0,0-2.276-1.292,9.926,9.926,0,0,1-18.564-4.89A9.925,9.925,0,0,1,56.9,7.6ZM46.98,63.55l-3.2-1.638a1.308,1.308,0,0,0-1.194,0l-4.507,2.309L33.58,61.912a1.319,1.319,0,0,0-1.194,0l-4.5,2.308-4.505-2.309a1.308,1.308,0,0,0-1.194,0l-4.505,2.309-4.505-2.309a1.309,1.309,0,0,0-1.194,0l-3.2,1.638V10.135L12,11.706a1.308,1.308,0,0,0,1.148,0L17.679,9.5l4.527,2.21a1.308,1.308,0,0,0,1.148,0L27.882,9.5l4.527,2.21a1.308,1.308,0,0,0,1.148,0L35.9,10.562A12.559,12.559,0,0,0,46.98,25.02V63.55Z"/>
      <path id="Trazado_120625" data-name="Trazado 120625" d="M52.126,8.628l-5.565,5.565-2.108-2.108A1.309,1.309,0,0,0,42.6,13.936l3.033,3.033a1.309,1.309,0,0,0,1.851,0l6.49-6.49a1.309,1.309,0,0,0-1.851-1.851Z"/>
      <path id="Trazado_120626" data-name="Trazado 120626" d="M59.78,13.827A1.308,1.308,0,1,0,58.241,12.8a1.321,1.321,0,0,0,1.539,1.027Z"/>
    </g>
  </g>
</svg>
