<svg xmlns="http://www.w3.org/2000/svg" xmlns:xlink="http://www.w3.org/1999/xlink" width="80" height="80" viewBox="0 0 80 80">
  <defs>
    <clipPath id="clip-path">
      <rect id="Rectángulo_34753" data-name="Rectángulo 34753" width="80" height="80" transform="translate(760 16961)" fill="#ffd41c"/>
    </clipPath>
  </defs>
  <g id="Enmascarar_grupo_254" data-name="Enmascarar grupo 254" transform="translate(-760 -16961)" clip-path="url(#clip-path)">
    <g id="pivote" transform="translate(758.903 16959.602)">
      <path id="Trazado_120813" data-name="Trazado 120813" d="M73.548,10.323,63.226,2.581V6.452h-2.5A39.172,39.172,0,0,0,41.29,11.613,39.172,39.172,0,0,0,21.855,6.452h-2.5V2.581L9.032,10.323l10.323,7.742V14.193l9.015,1.5a7.742,7.742,0,0,1,6.469,7.637v7.635h12.9V23.332A7.742,7.742,0,0,1,54.211,15.7l9.015-1.5v3.871Z" fill="#d9736b"/>
      <path id="Trazado_120814" data-name="Trazado 120814" d="M56.622,51.541A15.335,15.335,0,1,0,31.088,63.029a7.671,7.671,0,0,1,2.536,5.717v4.406A6.831,6.831,0,0,0,40.438,80h1.7a6.832,6.832,0,0,0,6.814-6.85v-4.4a7.788,7.788,0,0,1,2.591-5.769,15.378,15.378,0,0,0,5.075-11.438Z" fill="#ffe38f"/>
      <path id="Trazado_120815" data-name="Trazado 120815" d="M33.624,72.258v.894A6.831,6.831,0,0,0,40.438,80h1.7a6.832,6.832,0,0,0,6.814-6.85v-.892Z" fill="#495766"/>
      <path id="Trazado_120816" data-name="Trazado 120816" d="M60.451,49.14h3.871v2.581H60.451Z"/>
      <path id="Trazado_120817" data-name="Trazado 120817" d="M17.871,49.14h3.871v2.581H17.871Z"/>
      <path id="Trazado_120818" data-name="Trazado 120818" d="M24.4,33.08h2.58v3.837H24.4Z" transform="matrix(0.701, -0.713, 0.713, 0.701, -17.28, 28.787)"/>
      <path id="Trazado_120819" data-name="Trazado 120819" d="M54.577,33.708h3.837v2.58H54.577Z" transform="matrix(0.713, -0.701, 0.701, 0.713, -8.329, 49.649)"/>
      <path id="Trazado_120820" data-name="Trazado 120820" d="M62.455,1.535a1.291,1.291,0,0,0-.713,1.154V5.27h-1.21A40.531,40.531,0,0,0,41.1,10.243,40.531,40.531,0,0,0,21.661,5.27h-1.21V2.689a1.29,1.29,0,0,0-2.065-1.032L8.065,9.4a1.29,1.29,0,0,0,0,2.064l10.323,7.742a1.29,1.29,0,0,0,2.065-1.032V15.826l7.512,1.251a6.432,6.432,0,0,1,5.391,6.365v7.635a1.29,1.29,0,0,0,1.29,1.29h12.9a1.29,1.29,0,0,0,1.29-1.29V23.441a6.432,6.432,0,0,1,5.391-6.365l7.512-1.251v2.348a1.29,1.29,0,0,0,2.065,1.032l10.323-7.742a1.29,1.29,0,0,0,0-2.064L63.806,1.657a1.289,1.289,0,0,0-1.351-.122ZM64.323,6.56V5.27L71.2,10.431l-6.882,5.161V14.3a1.291,1.291,0,0,0-1.5-1.273l-9.015,1.5a9,9,0,0,0-7.547,8.91v6.344H35.936V23.441a9,9,0,0,0-7.547-8.91l-9.015-1.5a1.291,1.291,0,0,0-1.5,1.273v1.29l-6.882-5.161L17.871,5.27V6.56a1.29,1.29,0,0,0,1.29,1.29h2.5a37.951,37.951,0,0,1,18.8,4.991,1.289,1.289,0,0,0,1.28,0,37.951,37.951,0,0,1,18.8-4.991h2.5a1.29,1.29,0,0,0,1.29-1.29Z"/>
      <path id="Trazado_120821" data-name="Trazado 120821" d="M39.806,60.688v1.356h2.581V60.688a4.506,4.506,0,0,0-.645-8.967h-1.29a1.935,1.935,0,0,1,0-3.871h1.29a1.938,1.938,0,0,1,1.935,1.935v.645h2.581v-.645a4.51,4.51,0,0,0-3.871-4.451V43.979H39.806v1.356a4.506,4.506,0,0,0,.645,8.967h1.29a1.935,1.935,0,0,1,0,3.871h-1.29a1.938,1.938,0,0,1-1.935-1.935v-.645H35.935v.645a4.51,4.51,0,0,0,3.871,4.451Z"/>
      <path id="Trazado_120822" data-name="Trazado 120822" d="M40.237,81.4h1.72a8.166,8.166,0,0,0,8.172-8.14v-4.4a6.484,6.484,0,0,1,2.188-4.807,16.77,16.77,0,1,0-22.38.054,6.353,6.353,0,0,1,2.127,4.75V73.26A8.165,8.165,0,0,0,40.237,81.4Zm1.72-2.581h-1.72a5.557,5.557,0,0,1-3.538-1.29h8.8a5.557,5.557,0,0,1-3.538,1.29Zm5.3-3.871H34.937a5.46,5.46,0,0,1-.251-1.29H47.508a5.468,5.468,0,0,1-.251,1.29ZM31.651,62.172a14,14,0,0,1-4.705-11.623A14.283,14.283,0,0,1,39.471,37.617a15.085,15.085,0,0,1,1.644-.091,14.1,14.1,0,0,1,9.48,24.6,9.067,9.067,0,0,0-3.046,6.729v2.22h-12.9V68.853a8.937,8.937,0,0,0-2.995-6.681Z"/>
    </g>
  </g>
</svg>
