<svg xmlns="http://www.w3.org/2000/svg" xmlns:xlink="http://www.w3.org/1999/xlink" width="67" height="67" viewBox="0 0 67 67">
  <defs>
    <clipPath id="clip-path">
      <rect id="Rectángulo_34758" data-name="Rectángulo 34758" width="67" height="67" transform="translate(189 4865.199)" fill="#ffd41c"/>
    </clipPath>
  </defs>
  <g id="Enmascarar_grupo_258" data-name="Enmascarar grupo 258" transform="translate(-189 -4865.199)" clip-path="url(#clip-path)">
    <g id="recompensa" transform="translate(189 4865.199)">
      <g id="Grupo_93805" data-name="Grupo 93805">
        <g id="Grupo_93804" data-name="Grupo 93804">
          <g id="Grupo_93790" data-name="Grupo 93790">
            <g id="Grupo_93789" data-name="Grupo 93789">
              <g id="Grupo_93787" data-name="Grupo 93787">
                <g id="Grupo_93785" data-name="Grupo 93785">
                  <path id="Trazado_120866" data-name="Trazado 120866" d="M18.242,42.289l5.378-1.267a.543.543,0,0,1,.627.323l2.086,5.116a.543.543,0,0,0,.985.044L39.629,22.632l-9.682-4.993L17.635,41.512a.543.543,0,0,0,.607.777Z" fill="#eab14d"/>
                </g>
                <path id="Trazado_120867" data-name="Trazado 120867" d="M34.922,20.2,24.116,41.158a.54.54,0,0,1,.131.188l2.086,5.116a.543.543,0,0,0,.985.044L39.63,22.632Z" fill="#e7a52e"/>
                <g id="Grupo_93786" data-name="Grupo 93786">
                  <path id="Trazado_120868" data-name="Trazado 120868" d="M48.758,42.289,43.38,41.023a.543.543,0,0,0-.627.323l-2.086,5.116a.543.543,0,0,1-.985.044L27.37,22.632l9.682-4.993L49.365,41.513a.543.543,0,0,1-.607.777Z" fill="#eab14d"/>
                </g>
                <path id="Trazado_120869" data-name="Trazado 120869" d="M49.365,41.512,37.053,17.639,32.41,20.033,43.229,41.011a.539.539,0,0,1,.151.012l5.378,1.267a.543.543,0,0,0,.607-.777Z" fill="#e7a52e"/>
              </g>
              <g id="Grupo_93788" data-name="Grupo 93788">
                <path id="Trazado_120870" data-name="Trazado 120870" d="M36.076,2.215a3.307,3.307,0,0,0,3.77,1.01A3.307,3.307,0,0,1,44.307,5.8a3.307,3.307,0,0,0,2.76,2.76,3.307,3.307,0,0,1,2.576,4.462,3.307,3.307,0,0,0,1.01,3.77,3.307,3.307,0,0,1,0,5.152,3.307,3.307,0,0,0-1.01,3.77,3.307,3.307,0,0,1-2.576,4.462,3.307,3.307,0,0,0-2.76,2.76,3.307,3.307,0,0,1-4.462,2.576,3.307,3.307,0,0,0-3.77,1.01,3.307,3.307,0,0,1-5.152,0,3.307,3.307,0,0,0-3.77-1.01,3.307,3.307,0,0,1-4.462-2.576,3.307,3.307,0,0,0-2.76-2.76,3.307,3.307,0,0,1-2.576-4.462,3.307,3.307,0,0,0-1.01-3.77,3.307,3.307,0,0,1,0-5.152,3.307,3.307,0,0,0,1.01-3.77A3.307,3.307,0,0,1,19.933,8.56a3.307,3.307,0,0,0,2.76-2.76,3.307,3.307,0,0,1,4.462-2.576,3.307,3.307,0,0,0,3.77-1.01,3.307,3.307,0,0,1,5.152,0Z" fill="#fc8086"/>
                <circle id="Elipse_5537" data-name="Elipse 5537" cx="12.4" cy="12.4" r="12.4" transform="translate(21.099 6.967)" fill="#fbe77b"/>
                <path id="Trazado_120871" data-name="Trazado 120871" d="M33.5,6.967a12.381,12.381,0,0,0-4.02.667,12.4,12.4,0,0,1,0,23.467A12.4,12.4,0,1,0,33.5,6.967Z" fill="#ffd064"/>
              </g>
            </g>
            <path id="Trazado_120872" data-name="Trazado 120872" d="M33.741,23.317l3.945,2.608a.437.437,0,0,0,.663-.482l-1.261-4.558a.438.438,0,0,1,.149-.459l3.7-2.946a.437.437,0,0,0-.253-.779l-4.725-.209a.437.437,0,0,1-.39-.284L33.91,11.779a.437.437,0,0,0-.819,0l-1.659,4.429a.437.437,0,0,1-.39.284l-4.725.209a.437.437,0,0,0-.253.779l3.7,2.946a.438.438,0,0,1,.149.459l-1.261,4.558a.437.437,0,0,0,.663.482l3.945-2.608a.437.437,0,0,1,.482,0Z" fill="#e7a52e"/>
          </g>
          <g id="Grupo_93803" data-name="Grupo 93803">
            <g id="Grupo_93802" data-name="Grupo 93802">
              <g id="Grupo_93801" data-name="Grupo 93801">
                <g id="Grupo_93800" data-name="Grupo 93800">
                  <g id="Grupo_93799" data-name="Grupo 93799">
                    <g id="Grupo_93798" data-name="Grupo 93798">
                      <g id="Grupo_93797" data-name="Grupo 93797">
                        <g id="Grupo_93796" data-name="Grupo 93796">
                          <g id="Grupo_93795" data-name="Grupo 93795">
                            <g id="Grupo_93794" data-name="Grupo 93794">
                              <g id="Grupo_93793" data-name="Grupo 93793">
                                <g id="Grupo_93792" data-name="Grupo 93792">
                                  <g id="Grupo_93791" data-name="Grupo 93791">
                                    <path id="Trazado_120873" data-name="Trazado 120873" d="M8.963,60.5,22.1,65.39a10,10,0,0,0,3.488.628H39.133a10,10,0,0,0,5.352-1.553L61.441,54.9a2.976,2.976,0,0,0,.484-3.9c-.921-1.353-2.444-1.588-4.12-.8L41.3,57.473l.019-1.571a4.794,4.794,0,0,0-4.1-4.272L27.164,50.472c-2.319-.328-3.478-1.105-5.5-2.288a18.017,18.017,0,0,0-9.1-2.466h-3.6Z" fill="#ffece3"/>
                                  </g>
                                </g>
                              </g>
                              <path id="Trazado_120874" data-name="Trazado 120874" d="M57.805,50.2,42.028,57.151a1.094,1.094,0,0,1-.731.322l-15.706.5a10,10,0,0,1-3.488-.628L8.963,52.453V60.5L22.1,65.39a10,10,0,0,0,3.488.628H39.133a10,10,0,0,0,5.352-1.553L61.441,54.9a2.976,2.976,0,0,0,.484-3.9C61,49.646,59.482,49.411,57.805,50.2Z" fill="#ffddce"/>
                              <path id="Trazado_120875" data-name="Trazado 120875" d="M10.959,62.494a1.731,1.731,0,0,1-1.731,1.731H6.289a1.731,1.731,0,0,1-1.731-1.731V43.721A1.731,1.731,0,0,1,6.289,41.99h2.94a1.731,1.731,0,0,1,1.731,1.731Z" fill="#7c8b96"/>
                            </g>
                          </g>
                        </g>
                      </g>
                    </g>
                  </g>
                </g>
              </g>
            </g>
          </g>
        </g>
      </g>
      <g id="Grupo_93809" data-name="Grupo 93809">
        <g id="Grupo_93808" data-name="Grupo 93808">
          <g id="Grupo_93807" data-name="Grupo 93807">
            <g id="Grupo_93806" data-name="Grupo 93806">
              <path id="Trazado_120876" data-name="Trazado 120876" d="M62.74,50.447c-1.178-1.731-3.173-2.156-5.339-1.137L42.3,55.96v-.046a1.017,1.017,0,0,0,0-.109,5.762,5.762,0,0,0-4.938-5.147l-.025,0L27.292,49.5c-2.121-.3-3.165-1.012-5.129-2.162a19.018,19.018,0,0,0-9.594-2.6h-.626V43.721a2.715,2.715,0,0,0-2.712-2.712H6.292A2.715,2.715,0,0,0,3.58,43.721V62.494a2.715,2.715,0,0,0,2.712,2.712h2.94a2.713,2.713,0,0,0,2.7-2.554l9.828,3.658a10.948,10.948,0,0,0,3.83.69H39.136a10.964,10.964,0,0,0,5.856-1.692l16.935-9.554a3.929,3.929,0,0,0,.814-5.307ZM60.862,54.1l-16.856,9.51-.043.026a9,9,0,0,1-4.827,1.4H25.594a8.988,8.988,0,0,1-3.146-.566l-10.5-3.91V53.44a.981.981,0,1,0-1.963,0v9.054a.75.75,0,0,1-.749.749H6.292a.75.75,0,0,1-.749-.749V43.721a.75.75,0,0,1,.749-.749h2.94a.75.75,0,0,1,.749.749v5.13a.981.981,0,1,0,1.963,0V46.7h.626a17.053,17.053,0,0,1,8.6,2.331c2.083,1.218,3.348,2.057,5.858,2.413l.025,0L37.1,52.6a3.8,3.8,0,0,1,3.242,3.344l-.007.544c-5.833-.068-8.052.194-11.785-.35l-1.738-.254a.981.981,0,1,0-.284,1.942l1.738.254c3.965.579,6.252.3,13.037.371a1.01,1.01,0,0,0,.4-.083L58.2,51.1l.024-.011c.889-.42,2.112-.682,2.889.461a2,2,0,0,1-.256,2.55Z"/>
              <path id="Trazado_120877" data-name="Trazado 120877" d="M15.734,22.708a2.317,2.317,0,0,1,.71,2.651,4.288,4.288,0,0,0,3.34,5.786,2.316,2.316,0,0,1,1.577,1.006l-4.6,8.912a1.524,1.524,0,0,0,1.7,2.182l5.013-1.181,1.944,4.769a1.509,1.509,0,0,0,1.344.947l.071,0a1.508,1.508,0,0,0,1.352-.826l4.3-8.34a4.293,4.293,0,0,0,2.018,0l4.3,8.34a1.508,1.508,0,0,0,1.352.826l.071,0a1.509,1.509,0,0,0,1.344-.947l1.944-4.769,5.013,1.181a1.524,1.524,0,0,0,1.7-2.182l-4.6-8.912a2.316,2.316,0,0,1,1.576-1.006,4.288,4.288,0,0,0,3.34-5.786,2.317,2.317,0,0,1,.71-2.651,4.288,4.288,0,0,0,0-6.681,2.317,2.317,0,0,1-.71-2.651,4.288,4.288,0,0,0-3.34-5.786A2.317,2.317,0,0,1,45.28,5.65a4.288,4.288,0,0,0-5.786-3.34,2.317,2.317,0,0,1-2.651-.71,4.288,4.288,0,0,0-6.681,0,2.318,2.318,0,0,1-2.651.71,4.288,4.288,0,0,0-5.786,3.34,2.317,2.317,0,0,1-1.941,1.941,4.288,4.288,0,0,0-3.34,5.786,2.317,2.317,0,0,1-.71,2.651,4.288,4.288,0,0,0,0,6.681Zm11.15,22.5-1.726-4.234a1.516,1.516,0,0,0-1.761-.908l-4.451,1.048,3.34-6.477a4.29,4.29,0,0,0,5.224,1.787,2.317,2.317,0,0,1,2.651.71,4.329,4.329,0,0,0,.58.592Zm16.723-5.142a1.518,1.518,0,0,0-1.76.908l-1.726,4.234-3.858-7.481a4.314,4.314,0,0,0,.58-.592,2.318,2.318,0,0,1,2.651-.71,4.29,4.29,0,0,0,5.224-1.787l3.34,6.477ZM16.965,17.556a4.273,4.273,0,0,0,1.31-4.889A2.325,2.325,0,0,1,20.086,9.53a4.273,4.273,0,0,0,3.579-3.579A2.325,2.325,0,0,1,26.8,4.14a4.273,4.273,0,0,0,4.889-1.31,2.325,2.325,0,0,1,3.623,0A4.274,4.274,0,0,0,40.2,4.14,2.325,2.325,0,0,1,43.34,5.951,4.274,4.274,0,0,0,46.919,9.53a2.325,2.325,0,0,1,1.811,3.137,4.273,4.273,0,0,0,1.31,4.889,2.325,2.325,0,0,1,0,3.623,4.273,4.273,0,0,0-1.31,4.889,2.325,2.325,0,0,1-1.811,3.137,4.273,4.273,0,0,0-3.579,3.579A2.325,2.325,0,0,1,40.2,34.6a4.274,4.274,0,0,0-4.889,1.31,2.325,2.325,0,0,1-3.623,0A4.274,4.274,0,0,0,26.8,34.6a2.325,2.325,0,0,1-3.137-1.811,4.274,4.274,0,0,0-3.579-3.579,2.325,2.325,0,0,1-1.811-3.137,4.273,4.273,0,0,0-1.31-4.889,2.325,2.325,0,0,1,0-3.623Z"/>
              <path id="Trazado_120878" data-name="Trazado 120878" d="M21.134,20.7a.981.981,0,0,0-.784,1.145,13.382,13.382,0,1,0,0-4.951.981.981,0,1,0,1.929.361,11.419,11.419,0,1,1,0,4.229.982.982,0,0,0-1.145-.784Z"/>
              <path id="Trazado_120879" data-name="Trazado 120879" d="M40.73,15.72l-4.365-.193-1.533-4.092a1.419,1.419,0,0,0-2.657,0l-1.533,4.092-4.365.193a1.419,1.419,0,0,0-.821,2.527l3.418,2.722-1.165,4.212a1.419,1.419,0,0,0,2.15,1.562l3.645-2.41,3.645,2.41a1.419,1.419,0,0,0,2.15-1.562L38.133,20.97l3.418-2.722a1.419,1.419,0,0,0-.821-2.527Zm-4.1,3.938a1.417,1.417,0,0,0-.484,1.488l.874,3.158L34.285,22.5h0a1.417,1.417,0,0,0-1.565,0L29.986,24.3l.874-3.158a1.417,1.417,0,0,0-.484-1.488l-2.563-2.042,3.274-.145a1.417,1.417,0,0,0,1.266-.92L33.5,13.483l1.15,3.069a1.417,1.417,0,0,0,1.266.92l3.274.145Z"/>
            </g>
          </g>
        </g>
      </g>
    </g>
  </g>
</svg>
