<svg xmlns="http://www.w3.org/2000/svg" xmlns:xlink="http://www.w3.org/1999/xlink" width="96" height="96" viewBox="0 0 96 96">
  <defs>
    <clipPath id="clip-path">
      <rect id="Rectángulo_34752" data-name="Rectángulo 34752" width="96" height="96" transform="translate(0.492 0.282)" fill="#ffd41c"/>
    </clipPath>
  </defs>
  <g id="Enmascarar_grupo_253" data-name="Enmascarar grupo 253" transform="translate(-0.492 -0.281)" clip-path="url(#clip-path)">
    <g id="objetivo_3_" data-name="objetivo (3)" transform="translate(0 0.001)">
      <circle id="Elipse_5533" data-name="Elipse 5533" cx="43.5" cy="43.5" r="43.5" transform="translate(4.492 5.28)" fill="#e9eef2"/>
      <g id="Grupo_93751" data-name="Grupo 93751" transform="translate(1.613 1.613)">
        <path id="Trazado_120803" data-name="Trazado 120803" d="M40,4h6.452V20.129H40Z" transform="translate(3.548 -4)" fill="#eb423f"/>
        <path id="Trazado_120804" data-name="Trazado 120804" d="M40,68h6.452V84.129H40Z" transform="translate(3.548 9.419)" fill="#eb423f"/>
        <path id="Trazado_120805" data-name="Trazado 120805" d="M0,0H6.452V16.129H0Z" transform="translate(93.548 43.548) rotate(90)" fill="#eb423f"/>
        <path id="Trazado_120806" data-name="Trazado 120806" d="M0,0H6.452V16.129H0Z" transform="translate(16.129 43.548) rotate(90)" fill="#eb423f"/>
        <circle id="Elipse_5534" data-name="Elipse 5534" cx="34" cy="34" r="34" transform="translate(12.879 12.667)" fill="#eb423f"/>
      </g>
      <circle id="Elipse_5535" data-name="Elipse 5535" cx="24" cy="24" r="24" transform="translate(24.492 24.28)" fill="#e9eef2"/>
      <circle id="Elipse_5536" data-name="Elipse 5536" cx="14.5" cy="14.5" r="14.5" transform="translate(33.492 34.28)" fill="#eb423f"/>
      <path id="Trazado_120807" data-name="Trazado 120807" d="M78.8,13.333l-9.677,6.452-6.452,9.677h12.9l9.677-9.677V13.333Z" transform="translate(9.914 -0.43)" fill="#3397e8"/>
      <path id="Trazado_120808" data-name="Trazado 120808" d="M74.8,10.452l-6.452,9.677-9.677,6.452v-12.9L68.344,4H74.8Z" transform="translate(9.075 -2.387)" fill="#3397e8"/>
      <path id="Trazado_120809" data-name="Trazado 120809" d="M46.051,50.962l-4.718,1.179,1.179-4.718a6.452,6.452,0,0,1,1.7-3L82.462,6.174A3.421,3.421,0,0,1,87.3,11.012L49.048,49.265a6.452,6.452,0,0,1-3,1.7Z" transform="translate(5.441 -2.141)" fill="#2978b8"/>
      <path id="Trazado_120810" data-name="Trazado 120810" d="M51.817,40.172,49.049,42.94a6.458,6.458,0,0,1-3,1.7l-4.718,1.179L42.513,41.1a6.458,6.458,0,0,1,1.7-3l2.768-2.768Z" transform="translate(5.441 4.183)" fill="#e9eef2"/>
      <path id="Trazado_120811" data-name="Trazado 120811" d="M0,0H20.526V6.842H0Z" transform="translate(68.538 23.393) rotate(-45)" fill="#1261a0"/>
      <path id="Trazado_120812" data-name="Trazado 120812" d="M98.968,23.162a1.613,1.613,0,0,0,.472-1.141V15.57a1.613,1.613,0,0,0-1.613-1.613H95.27l1.279-1.279a5.034,5.034,0,1,0-7.12-7.12L88.15,6.837V4.28a1.613,1.613,0,0,0-1.613-1.613H80.086a1.613,1.613,0,0,0-1.141.472l-7.572,7.572A44.586,44.586,0,0,0,55.892,6.153V4.28a1.613,1.613,0,0,0-1.613-1.613H47.828A1.613,1.613,0,0,0,46.215,4.28V6.153A45.156,45.156,0,0,0,6.153,46.215H4.28a1.613,1.613,0,0,0-1.613,1.613v6.452A1.613,1.613,0,0,0,4.28,55.892H6.153A45.156,45.156,0,0,0,46.215,95.954v1.874a1.613,1.613,0,0,0,1.613,1.613h6.452a1.613,1.613,0,0,0,1.613-1.613V95.954A45.156,45.156,0,0,0,95.954,55.892h1.874a1.613,1.613,0,0,0,1.613-1.613V47.828a1.613,1.613,0,0,0-1.613-1.613H95.954A44.581,44.581,0,0,0,91.4,30.734Zm-2.753-5.979v4.171l-8.732,8.733h-7.8q-.114-.155-.229-.309L92.044,17.183ZM81.7,55.892h1.25A32.245,32.245,0,0,1,55.892,82.948V81.7a1.613,1.613,0,0,0-1.613-1.613H47.828A1.613,1.613,0,0,0,46.215,81.7v1.25A32.245,32.245,0,0,1,19.159,55.892h1.25a1.613,1.613,0,0,0,1.613-1.613V47.828a1.613,1.613,0,0,0-1.613-1.613h-1.25A32.245,32.245,0,0,1,46.215,19.159v1.25a1.613,1.613,0,0,0,1.613,1.613h6.452a1.613,1.613,0,0,0,1.613-1.613V19.161a32.207,32.207,0,0,1,12.9,4.952v2.079L65.389,29.6a25.814,25.814,0,1,0,7.12,7.12l3.407-3.407h2.079a32.205,32.205,0,0,1,4.952,12.9H81.7a1.613,1.613,0,0,0-1.613,1.613v6.452A1.613,1.613,0,0,0,81.7,55.892Zm4.032-42.074,2.558,2.558L76.053,28.611,73.5,26.054ZM55.086,44.464l2.558,2.558-1.628,1.628a4.839,4.839,0,0,1-2.248,1.273l-2.109.528.528-2.11a4.836,4.836,0,0,1,1.273-2.248Zm-3.909-.653a8.063,8.063,0,0,0-2.121,3.747l-1.18,4.718a1.613,1.613,0,0,0,1.956,1.956l4.718-1.179A8.064,8.064,0,0,0,58.3,50.93l4.718-4.718a12.9,12.9,0,1,1-7.12-7.12Zm7.152-7.152a16.129,16.129,0,1,0,7.12,7.12l4.732-4.732a22.575,22.575,0,1,1-7.12-7.12Zm1.6,8.082-2.558-2.558L71.215,28.335l2.558,2.558ZM91.71,7.839A1.809,1.809,0,0,1,94.268,10.4l-3.7,3.7-2.558-2.558ZM80.754,5.892h4.171v4.171L72.331,22.657l-.309-.229v-7.8ZM69.015,13.148a1.61,1.61,0,0,0-.219.808v6.368a35.43,35.43,0,0,0-12.9-4.422V9.4a41.352,41.352,0,0,1,13.123,3.75ZM49.441,5.892h3.226V18.8H49.441ZM46.215,9.4v6.5A35.474,35.474,0,0,0,15.9,46.215H9.4A42.15,42.15,0,0,1,46.215,9.4ZM5.892,49.441H18.8v3.226H5.892ZM9.4,55.892h6.5A35.474,35.474,0,0,0,46.215,86.208v6.5A42.15,42.15,0,0,1,9.4,55.892ZM52.666,96.215H49.441v-12.9h3.226Zm3.226-3.505v-6.5A35.474,35.474,0,0,0,86.208,55.892h6.5A42.15,42.15,0,0,1,55.892,92.709ZM96.215,52.666h-12.9V49.441h12.9ZM86.2,46.215a35.434,35.434,0,0,0-4.422-12.9H88.15a1.61,1.61,0,0,0,.808-.219,41.357,41.357,0,0,1,3.75,13.123Z" transform="translate(-2.667 -2.667)"/>
    </g>
  </g>
</svg>
