<svg xmlns="http://www.w3.org/2000/svg" xmlns:xlink="http://www.w3.org/1999/xlink" width="67" height="67" viewBox="0 0 67 67">
  <defs>
    <clipPath id="clip-path">
      <rect id="Rectángulo_34756" data-name="Rectángulo 34756" width="67" height="67" transform="translate(189 4865.199)" fill="#ffd41c"/>
    </clipPath>
  </defs>
  <g id="Enmascarar_grupo_257" data-name="Enmascarar grupo 257" transform="translate(-189 -4865.199)" clip-path="url(#clip-path)">
    <g id="insignia" transform="translate(189 4865.199)">
      <g id="Grupo_93769" data-name="Grupo 93769">
        <g id="Grupo_93768" data-name="Grupo 93768">
          <g id="Grupo_93767" data-name="Grupo 93767">
            <g id="Grupo_93766" data-name="Grupo 93766">
              <g id="Grupo_93765" data-name="Grupo 93765">
                <g id="Grupo_93764" data-name="Grupo 93764">
                  <g id="Grupo_93762" data-name="Grupo 93762">
                    <g id="Grupo_93760" data-name="Grupo 93760">
                      <path id="Trazado_120841" data-name="Trazado 120841" d="M50.428,49.179V59.716a1.388,1.388,0,0,0,1.241,1.378A75.387,75.387,0,0,1,60.33,62.51a1.385,1.385,0,0,0,1.693-1.352V52.216a1.389,1.389,0,0,0-1.066-1.349,76.016,76.016,0,0,0-10.529-1.688Z" fill="#1c96f9"/>
                      <path id="Trazado_120842" data-name="Trazado 120842" d="M60.957,50.867c-.919-.222-1.882-.428-2.884-.619V62.039c.775.148,1.53.3,2.257.471a1.385,1.385,0,0,0,1.693-1.352V52.216A1.389,1.389,0,0,0,60.957,50.867Z" fill="#1785f8"/>
                    </g>
                    <g id="Grupo_93761" data-name="Grupo 93761">
                      <path id="Trazado_120843" data-name="Trazado 120843" d="M16.572,49.179V59.716a1.388,1.388,0,0,1-1.241,1.378A75.387,75.387,0,0,0,6.67,62.51a1.385,1.385,0,0,1-1.693-1.352V52.216a1.389,1.389,0,0,1,1.066-1.349A76.016,76.016,0,0,1,16.572,49.179Z" fill="#1c96f9"/>
                      <path id="Trazado_120844" data-name="Trazado 120844" d="M12.143,49.708V61.5q1.549-.226,3.188-.4a1.388,1.388,0,0,0,1.241-1.378V49.179Q14.277,49.4,12.143,49.708Z" fill="#1785f8"/>
                    </g>
                  </g>
                  <g id="Grupo_93763" data-name="Grupo 93763">
                    <path id="Trazado_120845" data-name="Trazado 120845" d="M12,55.168a1.385,1.385,0,0,0,1.695,1.351,91.154,91.154,0,0,1,19.8-2,91.153,91.153,0,0,1,19.8,2A1.385,1.385,0,0,0,55,55.168V46.227a1.388,1.388,0,0,0-1.065-1.349A89.857,89.857,0,0,0,33.5,42.734a89.849,89.849,0,0,0-20.435,2.144A1.388,1.388,0,0,0,12,46.227v8.941Z" fill="#64b9fc"/>
                    <path id="Trazado_120846" data-name="Trazado 120846" d="M53.935,44.878c-1.107-.267-2.276-.512-3.5-.735v11.79c.994.181,1.952.376,2.87.586A1.385,1.385,0,0,0,55,55.168V46.227a1.389,1.389,0,0,0-1.065-1.349Z" fill="#31a7fb"/>
                  </g>
                </g>
              </g>
            </g>
          </g>
        </g>
      </g>
      <g id="Grupo_93778" data-name="Grupo 93778">
        <g id="Grupo_93771" data-name="Grupo 93771">
          <g id="Grupo_93770" data-name="Grupo 93770">
            <path id="Trazado_120847" data-name="Trazado 120847" d="M13.614,33.872l-2.038,2.714.053,3.394a.787.787,0,0,1-1.041.757l-3.211-1.1-3.211,1.1a.788.788,0,0,1-1.042-.757l.054-3.394L1.138,33.872a.787.787,0,0,1,.4-1.225l3.244-1,1.951-2.778a.787.787,0,0,1,1.288,0l1.952,2.778,3.245,1a.787.787,0,0,1,.4,1.225Z" fill="#fddd45"/>
          </g>
          <path id="Trazado_120848" data-name="Trazado 120848" d="M13.614,33.872l-2.038,2.714.053,3.394a.787.787,0,0,1-1.041.757l-3.211-1.1-3.211,1.1a.788.788,0,0,1-1.042-.757l.029-1.833a10.03,10.03,0,0,0,8.864-5.868l1.2.369a.787.787,0,0,1,.4,1.225Z" fill="#f8c52d"/>
        </g>
        <g id="Grupo_93773" data-name="Grupo 93773">
          <g id="Grupo_93772" data-name="Grupo 93772">
            <path id="Trazado_120849" data-name="Trazado 120849" d="M23.437,9.789,21.4,12.5l.053,3.394a.787.787,0,0,1-1.041.757l-3.211-1.1-3.211,1.1a.788.788,0,0,1-1.042-.757L13,12.5,10.961,9.789a.787.787,0,0,1,.4-1.225l3.244-1,1.951-2.778a.787.787,0,0,1,1.288,0l1.951,2.778,3.245,1a.787.787,0,0,1,.4,1.225Z" fill="#fddd45"/>
          </g>
          <path id="Trazado_120850" data-name="Trazado 120850" d="M23.437,9.789,21.4,12.5l.053,3.394a.787.787,0,0,1-1.041.757l-3.211-1.1-3.211,1.1a.788.788,0,0,1-1.042-.757l.029-1.833A10.03,10.03,0,0,0,21.838,8.2l1.2.369a.787.787,0,0,1,.4,1.225Z" fill="#f8c52d"/>
        </g>
        <g id="Grupo_93775" data-name="Grupo 93775">
          <g id="Grupo_93774" data-name="Grupo 93774">
            <path id="Trazado_120851" data-name="Trazado 120851" d="M65.861,33.872l-2.038,2.714.053,3.394a.787.787,0,0,1-1.041.757l-3.211-1.1-3.211,1.1a.788.788,0,0,1-1.042-.757l.054-3.394-2.039-2.714a.787.787,0,0,1,.4-1.225l3.244-1,1.951-2.778a.787.787,0,0,1,1.288,0l1.951,2.778,3.245,1A.787.787,0,0,1,65.861,33.872Z" fill="#fddd45"/>
          </g>
          <path id="Trazado_120852" data-name="Trazado 120852" d="M65.861,33.872l-2.038,2.714.053,3.394a.787.787,0,0,1-1.041.757l-3.211-1.1-3.211,1.1a.788.788,0,0,1-1.042-.757l.029-1.833a10.03,10.03,0,0,0,8.864-5.868l1.2.369A.787.787,0,0,1,65.861,33.872Z" fill="#f8c52d"/>
        </g>
        <g id="Grupo_93777" data-name="Grupo 93777">
          <g id="Grupo_93776" data-name="Grupo 93776">
            <path id="Trazado_120853" data-name="Trazado 120853" d="M56.038,9.789,54,12.5l.053,3.394a.787.787,0,0,1-1.041.757l-3.211-1.1-3.211,1.1a.788.788,0,0,1-1.042-.757L45.6,12.5,43.563,9.789a.787.787,0,0,1,.4-1.225l3.244-1,1.951-2.778a.787.787,0,0,1,1.288,0L52.4,7.567l3.245,1a.787.787,0,0,1,.4,1.225Z" fill="#fddd45"/>
          </g>
          <path id="Trazado_120854" data-name="Trazado 120854" d="M56.038,9.789,54,12.5l.053,3.394a.787.787,0,0,1-1.041.757l-3.211-1.1-3.211,1.1a.788.788,0,0,1-1.042-.757l.029-1.833A10.03,10.03,0,0,0,54.44,8.2l1.2.369a.787.787,0,0,1,.4,1.225Z" fill="#f8c52d"/>
        </g>
      </g>
      <g id="Grupo_93784" data-name="Grupo 93784">
        <g id="Grupo_93783" data-name="Grupo 93783">
          <g id="Grupo_93782" data-name="Grupo 93782">
            <g id="Grupo_93781" data-name="Grupo 93781">
              <g id="Grupo_93779" data-name="Grupo 93779">
                <path id="Trazado_120855" data-name="Trazado 120855" d="M52.214,27.6l-6.04,8.042L46.332,45.7a2.507,2.507,0,0,1-3.318,2.411L33.5,44.851l-9.514,3.258A2.508,2.508,0,0,1,20.666,45.7l.16-10.056L14.786,27.6a2.507,2.507,0,0,1,1.268-3.9l9.613-2.957,5.783-8.228a2.5,2.5,0,0,1,4.1,0l5.783,8.228L50.946,23.7A2.507,2.507,0,0,1,52.214,27.6Z" fill="#fca62f"/>
                <path id="Trazado_120856" data-name="Trazado 120856" d="M46.333,49.176a2.507,2.507,0,0,1-3.318,2.412L33.5,48.33l-9.515,3.258a2.509,2.509,0,0,1-3.319-2.412l.09-5.673A102.339,102.339,0,0,1,33.5,42.735a102.318,102.318,0,0,1,12.743.768Z" fill="#31a7fb"/>
                <path id="Trazado_120857" data-name="Trazado 120857" d="M52.214,27.6l-6.04,8.042L46.332,45.7a2.507,2.507,0,0,1-3.318,2.411L33.5,44.851l-9.514,3.258A2.508,2.508,0,0,1,20.666,45.7l.037-2.331c17.606-3.2,24.286-14.639,26.643-20.776l3.6,1.108a2.507,2.507,0,0,1,1.268,3.9Z" fill="#f98824"/>
              </g>
              <path id="Trazado_120858" data-name="Trazado 120858" d="M41.158,34.012l.13,8.23L33.5,39.575l-7.788,2.666.13-8.23L20.9,27.429l7.869-2.42L33.5,18.273l4.732,6.735,7.868,2.42Z" fill="#fee265"/>
              <path id="Trazado_120859" data-name="Trazado 120859" d="M41.158,34.012l.13,8.23L33.5,39.575l-7.788,2.666.07-4.441A19.716,19.716,0,0,0,41.627,26.053L46.1,27.429Z" fill="#f8c52d"/>
              <g id="Grupo_93780" data-name="Grupo 93780">
                <path id="Trazado_120860" data-name="Trazado 120860" d="M61.187,49.912c-1.622-.391-3.372-.735-5.206-1.026v-2.66a2.364,2.364,0,0,0-1.816-2.3c-2.113-.51-4.433-.937-6.9-1.276l-.105-6.686L53,28.188a3.488,3.488,0,0,0-1.764-5.428L41.943,19.9,40.62,18.019a.982.982,0,0,0-1.606,1.129l1.516,2.158a.982.982,0,0,0,.515.374l9.613,2.957a1.525,1.525,0,0,1,.771,2.374L45.39,35.052a.981.981,0,0,0-.2.6l.159,10.056a1.525,1.525,0,0,1-2.019,1.467l-9.515-3.258a.982.982,0,0,0-.636,0L23.667,47.18a1.525,1.525,0,0,1-2.019-1.467l.159-10.056a.981.981,0,0,0-.2-.6L15.571,27.01a1.525,1.525,0,0,1,.771-2.374l9.613-2.957a.981.981,0,0,0,.515-.374l5.783-8.229a1.525,1.525,0,0,1,2.5,0l1.608,2.288a.981.981,0,0,0,1.606-1.129l-1.608-2.288a3.488,3.488,0,0,0-5.708,0L25.057,19.9,15.765,22.76A3.488,3.488,0,0,0,14,28.188l5.837,7.773-.105,6.686c-2.466.338-4.786.766-6.9,1.276a2.364,2.364,0,0,0-1.816,2.3v2.66c-1.833.29-3.583.634-5.206,1.026A2.364,2.364,0,0,0,4,52.216v8.942a2.363,2.363,0,0,0,2.894,2.309,74.4,74.4,0,0,1,8.547-1.4,2.365,2.365,0,0,0,2.117-2.354v-2.96A94.138,94.138,0,0,1,31.1,55.532a.981.981,0,0,0-.021-1.963h-.022a89.265,89.265,0,0,0-17.577,1.993.4.4,0,0,1-.494-.395V46.227a.406.406,0,0,1,.313-.395c1.965-.474,4.118-.876,6.407-1.2l-.016,1.048A3.488,3.488,0,0,0,24.3,49.037l9.2-3.149,9.2,3.149a3.488,3.488,0,0,0,4.618-3.355L47.3,44.634c2.29.323,4.443.725,6.407,1.2a.406.406,0,0,1,.313.395v8.941a.4.4,0,0,1-.494.395,89.509,89.509,0,0,0-17.8-2,.981.981,0,0,0-.039,1.963,94.324,94.324,0,0,1,13.759,1.229v2.96a2.365,2.365,0,0,0,2.118,2.354,74.386,74.386,0,0,1,8.547,1.4,2.383,2.383,0,0,0,.532.06,2.369,2.369,0,0,0,2.362-2.369V52.216a2.365,2.365,0,0,0-1.818-2.3ZM13.381,57.537a2.388,2.388,0,0,0,.533-.061c.546-.125,1.106-.244,1.675-.357v2.6a.405.405,0,0,1-.364.4,76.358,76.358,0,0,0-8.774,1.434.4.4,0,0,1-.34-.077.4.4,0,0,1-.153-.318V52.216a.407.407,0,0,1,.315-.4c1.482-.357,3.075-.675,4.746-.947v4.294a2.368,2.368,0,0,0,2.362,2.369Zm47.661,3.621a.4.4,0,0,1-.153.318.4.4,0,0,1-.34.077,76.344,76.344,0,0,0-8.774-1.434.406.406,0,0,1-.365-.4v-2.6c.57.114,1.13.232,1.677.358a2.388,2.388,0,0,0,.533.061,2.368,2.368,0,0,0,2.362-2.369V50.874c1.671.272,3.264.589,4.746.947a.407.407,0,0,1,.315.4v8.942Z"/>
                <path id="Trazado_120861" data-name="Trazado 120861" d="M7.377,40.675l2.893.991a1.768,1.768,0,0,0,2.341-1.7l-.048-3.058L14.4,34.461a1.768,1.768,0,0,0-.894-2.752l-2.923-.9-1.758-2.5a1.768,1.768,0,0,0-2.894,0l-1.758,2.5-2.923.9a1.768,1.768,0,0,0-.894,2.752L2.19,36.907l-.048,3.058a1.769,1.769,0,0,0,2.341,1.7ZM3.962,36,2.09,33.5l2.98-.916a.982.982,0,0,0,.515-.374l1.792-2.551,1.792,2.551a.982.982,0,0,0,.515.374l2.98.916L10.791,36a.981.981,0,0,0-.2.6l.049,3.117-2.949-1.01a.982.982,0,0,0-.636,0l-2.949,1.01L4.159,36.6a.981.981,0,0,0-.2-.6Z"/>
                <path id="Trazado_120862" data-name="Trazado 120862" d="M12.013,12.824l-.048,3.058a1.768,1.768,0,0,0,2.341,1.7l2.893-.991,2.893.991a1.768,1.768,0,0,0,2.341-1.7l-.048-3.058,1.836-2.446a1.768,1.768,0,0,0-.894-2.752l-2.923-.9-1.758-2.5a1.768,1.768,0,0,0-2.894,0l-1.758,2.5-2.923.9a1.768,1.768,0,0,0-.894,2.752ZM14.892,8.5a.982.982,0,0,0,.515-.374L17.2,5.58l1.792,2.551a.981.981,0,0,0,.515.374l2.98.916-1.872,2.493a.981.981,0,0,0-.2.6l.049,3.117-2.949-1.01a.983.983,0,0,0-.636,0l-2.949,1.01.049-3.117a.981.981,0,0,0-.2-.6L11.913,9.421Z"/>
                <path id="Trazado_120863" data-name="Trazado 120863" d="M66.914,32.853a1.77,1.77,0,0,0-1.162-1.144l-2.923-.9-1.758-2.5a1.768,1.768,0,0,0-2.894,0l-1.758,2.5-2.923.9a1.768,1.768,0,0,0-.894,2.752l1.836,2.446-.048,3.058a1.768,1.768,0,0,0,2.341,1.7l2.893-.991,2.893.991a1.768,1.768,0,0,0,2.341-1.7l-.048-3.058,1.836-2.446a1.769,1.769,0,0,0,.268-1.608ZM63.038,36a.981.981,0,0,0-.2.6l.049,3.117-2.949-1.01a.983.983,0,0,0-.636,0l-2.949,1.01.049-3.117a.981.981,0,0,0-.2-.6L54.337,33.5l2.98-.916a.982.982,0,0,0,.515-.374l1.792-2.551,1.792,2.551a.982.982,0,0,0,.515.374l2.98.916Z"/>
                <path id="Trazado_120864" data-name="Trazado 120864" d="M44.615,12.824l-.048,3.058a1.768,1.768,0,0,0,2.341,1.7l2.893-.991,2.893.991a1.768,1.768,0,0,0,2.341-1.7l-.048-3.058,1.836-2.446a1.768,1.768,0,0,0-.894-2.752l-2.923-.9-1.758-2.5a1.768,1.768,0,0,0-2.894,0L46.6,6.727l-2.923.9a1.768,1.768,0,0,0-.894,2.752ZM47.494,8.5a.981.981,0,0,0,.515-.374L49.8,5.58l1.792,2.551a.981.981,0,0,0,.515.374l2.98.916-1.872,2.493a.981.981,0,0,0-.2.6l.049,3.117-2.949-1.01a.983.983,0,0,0-.636,0l-2.949,1.01.049-3.117a.981.981,0,0,0-.2-.6L44.514,9.421Z"/>
                <path id="Trazado_120865" data-name="Trazado 120865" d="M47.034,27.126a.982.982,0,0,0-.645-.635L38.842,24.17,34.3,17.71a.982.982,0,0,0-1.606,0l-4.54,6.46-7.547,2.321a.981.981,0,0,0-.5,1.527l4.741,6.314-.018,1.158a.981.981,0,0,0,.966,1h.016a.982.982,0,0,0,.981-.966l.024-1.494a.981.981,0,0,0-.2-.6l-4.1-5.466,6.533-2.009a.982.982,0,0,0,.515-.374l3.93-5.592,3.93,5.592a.981.981,0,0,0,.515.374l6.533,2.009-4.1,5.466a.981.981,0,0,0-.2.6l.108,6.834-6.466-2.214a.982.982,0,0,0-.636,0l-6.466,2.214.011-.708a.982.982,0,0,0-.966-1h-.016a.981.981,0,0,0-.981.966l-.033,2.1a.982.982,0,0,0,1.3.944l7.47-2.558,7.47,2.558a.982.982,0,0,0,1.3-.944l-.124-7.895,4.741-6.314a.982.982,0,0,0,.148-.893Z"/>
              </g>
            </g>
          </g>
        </g>
      </g>
    </g>
  </g>
</svg>
