<svg xmlns="http://www.w3.org/2000/svg" xmlns:xlink="http://www.w3.org/1999/xlink" width="86" height="86" viewBox="0 0 86 86">
  <defs>
    <clipPath id="clip-path">
      <rect id="Rectángulo_34784" data-name="Rectángulo 34784" width="86" height="86" transform="translate(221 20728)" fill="#764cf0"/>
    </clipPath>
  </defs>
  <g id="Enmascarar_grupo_267" data-name="Enmascarar grupo 267" transform="translate(-221 -20728)" clip-path="url(#clip-path)">
    <g id="nutella" transform="translate(223.518 20728)">
      <g id="Grupo_93925" data-name="Grupo 93925">
        <path id="Trazado_121070" data-name="Trazado 121070" d="M1.714,31.162H79.251V24.9a4,4,0,0,0-3.989-3.987H5.7A4,4,0,0,0,1.714,24.9Zm0,0" fill="#955127" fill-rule="evenodd"/>
        <path id="Trazado_121071" data-name="Trazado 121071" d="M70.256,84.285a9.019,9.019,0,0,0,8.994-8.994v-7.02H1.715v7.02a9.019,9.019,0,0,0,8.994,8.994Zm0,0" fill="#955127" fill-rule="evenodd"/>
        <path id="Trazado_121072" data-name="Trazado 121072" d="M1.714,31.162H79.251v37.11H1.714Zm0,0" fill="#f91c1c" fill-rule="evenodd"/>
        <path id="Trazado_121073" data-name="Trazado 121073" d="M6.8,20.918H75.262V12.731H6.8Zm0,0" fill="#ffd89e" fill-rule="evenodd"/>
        <path id="Trazado_121074" data-name="Trazado 121074" d="M7.795,12.731H73.739a5.508,5.508,0,1,0,0-11.016H7.795a5.508,5.508,0,0,0,0,11.016Zm0,0" fill="#ffc15a" fill-rule="evenodd"/>
        <path id="Trazado_121075" data-name="Trazado 121075" d="M30.434,40.706c-2.626,2.727-2.1,7.5,1.182,10.652a9.6,9.6,0,0,0,3.6,2.2,9.57,9.57,0,0,0,2.335,3.515c3.283,3.16,8.07,3.505,10.7.778s2.1-7.5-1.187-10.652A9.448,9.448,0,0,0,43.462,45a9.487,9.487,0,0,0-2.334-3.52c-3.279-3.155-8.07-3.505-10.693-.778Zm0,0" fill="#ffc15a" fill-rule="evenodd"/>
      </g>
      <path id="Trazado_121076" data-name="Trazado 121076" d="M76.976,19.467v-5.79A7.22,7.22,0,0,0,73.739,0H7.795A7.222,7.222,0,0,0,5.084,13.915v5.323A5.709,5.709,0,0,0,0,24.9V75.291A10.721,10.721,0,0,0,10.709,86H70.256A10.721,10.721,0,0,0,80.965,75.291V24.9a5.711,5.711,0,0,0-3.989-5.437ZM4,7.223A3.8,3.8,0,0,1,7.795,3.429H73.739a3.794,3.794,0,1,1,0,7.587H7.795A3.8,3.8,0,0,1,4,7.223Zm69.545,7.223V19.2H8.512V14.445ZM5.7,22.632H75.262A2.276,2.276,0,0,1,77.536,24.9v4.543H3.428V24.9A2.277,2.277,0,0,1,5.7,22.632ZM70.256,82.571H10.709a7.288,7.288,0,0,1-7.28-7.28V69.985H33.2a1.714,1.714,0,1,0,0-3.428H3.428V32.876H77.536V66.557H47.3a1.714,1.714,0,0,0,0,3.428H77.536v5.306a7.288,7.288,0,0,1-7.28,7.28Zm0,0"/>
      <path id="Trazado_121077" data-name="Trazado 121077" d="M40.485,66.557h-.034a1.714,1.714,0,1,0,0,3.428h.034a1.714,1.714,0,1,0,0-3.428Zm0,0"/>
      <path id="Trazado_121078" data-name="Trazado 121078" d="M51.636,53.339a10.685,10.685,0,0,0-3.38-7.378,11.334,11.334,0,0,0-3.5-2.306,11.366,11.366,0,0,0-2.442-3.409,10.814,10.814,0,0,0-6.654-3.067,7.783,7.783,0,0,0-8.552,8.881,10.811,10.811,0,0,0,3.323,6.534,11.5,11.5,0,0,0,3.5,2.3A11.456,11.456,0,0,0,36.368,58.3,10.7,10.7,0,0,0,43.7,61.39a7.7,7.7,0,0,0,7.932-8.051Zm-4.617,3.32c-1.967,2.043-5.679,1.673-8.273-.823a7.889,7.889,0,0,1-1.919-2.882,1.713,1.713,0,0,0-1.065-1.026,7.925,7.925,0,0,1-2.956-1.806,7.372,7.372,0,0,1-2.291-4.441,4.606,4.606,0,0,1,1.155-3.788,4.49,4.49,0,0,1,3.308-1.311q.214,0,.432.016a7.388,7.388,0,0,1,4.529,2.121l0,0A7.827,7.827,0,0,1,41.856,45.6a1.715,1.715,0,0,0,1.073,1.03,7.783,7.783,0,0,1,2.95,1.8A7.241,7.241,0,0,1,48.208,53.4a4.484,4.484,0,0,1-1.189,3.254Zm0,0"/>
    </g>
  </g>
</svg>
