<svg xmlns="http://www.w3.org/2000/svg" xmlns:xlink="http://www.w3.org/1999/xlink" width="85" height="85" viewBox="0 0 85 85"><defs><clipPath id="a"><rect width="67" height="67" transform="translate(189 4865)" fill="#ffd41c"/></clipPath></defs><g transform="translate(-180 -7937.338)"><rect width="85" height="85" transform="translate(180 7937.338)" fill="#764cf0"/><g transform="translate(0 3081.338)" clip-path="url(#a)"><g transform="translate(191.607 4865)"><path d="M28.459,45.307c-13.173,23.309-.251.445-11.351,20.08a1.235,1.235,0,0,1-2.208-.116l-3.2-7.357a1.236,1.236,0,0,0-1.295-.731L2.454,58.234A1.235,1.235,0,0,1,1.216,56.4L12.567,36.324l7.946,4.492Zm0,0" fill="#169b62"/><path d="M59.333,58.235,51.38,57.183a1.236,1.236,0,0,0-1.295.731l-3.2,7.357a1.236,1.236,0,0,1-2.208.116L38.818,55.021l-1.776-3.144-3.714-6.57,7.947-4.491,7.946-4.492L60.571,56.4a1.235,1.235,0,0,1-1.238,1.832Zm0,0" fill="#169b62"/><path d="M20.513,40.816l7.947,4.491-5.5,9.723a8.245,8.245,0,0,1-8.616-8.67,2.971,2.971,0,0,0-3.121-3.121,8.5,8.5,0,0,1-2.438-.232l3.778-6.683Zm0,0" fill="#127d4f"/><path d="M53,43.01a8.419,8.419,0,0,1-2.439.229,2.972,2.972,0,0,0-3.121,3.121,8.132,8.132,0,0,1-2.216,6.077,8.362,8.362,0,0,1-6.405,2.584l-1.776-3.144-3.714-6.57,7.947-4.491,7.946-4.492L53,43.01Zm0,0" fill="#127d4f"/><path d="M50.695,40.61a5.607,5.607,0,0,0-5.884,5.884,5.6,5.6,0,0,1-9.757,4.041,5.6,5.6,0,0,0-8.321,0,5.6,5.6,0,0,1-9.757-4.041,5.606,5.606,0,0,0-5.884-5.884,5.6,5.6,0,0,1-4.042-9.757,5.6,5.6,0,0,0,0-8.321,5.6,5.6,0,0,1,4.042-9.757,5.606,5.606,0,0,0,5.884-5.884,5.6,5.6,0,0,1,9.757-4.042,5.6,5.6,0,0,0,8.321,0,5.6,5.6,0,0,1,9.757,4.042,5.607,5.607,0,0,0,5.884,5.884,5.6,5.6,0,0,1,4.041,9.757,5.6,5.6,0,0,0,0,8.321,5.6,5.6,0,0,1-4.041,9.757Zm0,0" fill="#1ed688"/><path d="M50.695,40.61a5.607,5.607,0,0,0-5.884,5.884,5.6,5.6,0,0,1-9.757,4.041,5.6,5.6,0,0,0-8.321,0,5.623,5.623,0,0,1-2.042,1.456,5.513,5.513,0,0,1-3.535-5.5,5.606,5.606,0,0,0-5.884-5.884,5.6,5.6,0,0,1-4.042-9.757,5.606,5.606,0,0,0,0-8.321,5.6,5.6,0,0,1,4.042-9.757,5.606,5.606,0,0,0,5.884-5.884A11.635,11.635,0,0,1,22.958,1a5.474,5.474,0,0,1,3.776,1.852,5.6,5.6,0,0,0,8.321,0,5.6,5.6,0,0,1,9.757,4.042,5.607,5.607,0,0,0,5.884,5.884,5.6,5.6,0,0,1,4.041,9.757,5.6,5.6,0,0,0,0,8.321,5.6,5.6,0,0,1-4.041,9.757Zm0,0" fill="#35e298"/><path d="M48.891,26.694A17.985,17.985,0,1,1,33.751,8.923a18,18,0,0,1,15.14,17.771Zm0,0" fill="#169b62"/><path d="M48.891,26.694A18,18,0,0,1,33.75,44.465a18,18,0,0,1,0-35.542A18,18,0,0,1,48.891,26.694Zm0,0" fill="#1ab975"/><path d="M42.9,26.738v6.469a5.072,5.072,0,0,1-5.057,5.057H27.875a2.388,2.388,0,0,1-2.381-2.381V24.92a2.388,2.388,0,0,1,2.381-2.382h2.171a.7.7,0,0,0,.542-.256L35.7,16.115a2.665,2.665,0,0,1,3.566-.531,2.633,2.633,0,0,1,.527,3.824L38.15,21.4a.7.7,0,0,0,.548,1.14,4.2,4.2,0,0,1,4.2,4.2Zm0,0" fill="#ffd993"/><path d="M18.889,36.226V24.247a1.494,1.494,0,0,1,1.494-1.494h3.342a1.773,1.773,0,0,1,1.768,1.768V35.953a1.773,1.773,0,0,1-1.768,1.768H20.383a1.494,1.494,0,0,1-1.494-1.494Zm0,0" fill="#ffa90b"/><path d="M13.223,30.264a.986.986,0,0,0-.708,1.2,19,19,0,1,0-.594-4.111.987.987,0,1,0,1.973-.067,16.987,16.987,0,1,1,.532,3.684.987.987,0,0,0-1.2-.708Zm0,0"/><path d="M39.866,14.722a3.726,3.726,0,0,0-4.98.722l-5,6.042H27.875a3.421,3.421,0,0,0-2.313.9,2.807,2.807,0,0,0-1.836-.683H20.383a2.55,2.55,0,0,0-2.547,2.547V36.226a2.55,2.55,0,0,0,2.547,2.547h3.342a2.8,2.8,0,0,0,1.651-.539,3.425,3.425,0,0,0,2.5,1.082h9.966a6.117,6.117,0,0,0,6.11-6.11V26.738A5.261,5.261,0,0,0,39.4,21.532l1.2-1.454a3.688,3.688,0,0,0-.736-5.356ZM24.441,35.953a.725.725,0,0,1-.716.715H20.383a.442.442,0,0,1-.442-.442V24.247a.442.442,0,0,1,.442-.442h3.342a.725.725,0,0,1,.716.716Zm17.4-9.215v6.469a4.009,4.009,0,0,1-4,4H27.875a1.33,1.33,0,0,1-1.328-1.329V24.92a1.33,1.33,0,0,1,1.328-1.329h2.171a1.745,1.745,0,0,0,1.353-.637l5.111-6.169a1.577,1.577,0,0,1,2.808.741c.137,1-.486,1.313-1.989,3.215a1.755,1.755,0,0,0,1.37,2.851,3.15,3.15,0,0,1,3.147,3.147Zm0,0"/><path d="M53.143,41.259A6.606,6.606,0,0,0,55.4,30.122a4.622,4.622,0,0,1,0-6.856,6.464,6.464,0,0,0,2.188-4.842,6.581,6.581,0,0,0-6.941-6.633,4.625,4.625,0,0,1-4.452-2.724.987.987,0,1,0-1.8.809,6.6,6.6,0,0,0,6.351,3.886A4.614,4.614,0,0,1,54.075,21.8a6.6,6.6,0,0,0,0,9.786A4.629,4.629,0,0,1,52.148,39.5a9.928,9.928,0,0,1-2.192.133,6.586,6.586,0,0,0-6.131,6.912,4.614,4.614,0,0,1-8.04,3.33,6.593,6.593,0,0,0-9.784,0,4.612,4.612,0,0,1-8.04-3.33c.174-3.776-2.568-6.912-7.184-6.912a4.615,4.615,0,0,1-3.064-8.046,6.6,6.6,0,0,0,0-9.786,4.613,4.613,0,0,1,3.33-8.038,6.593,6.593,0,0,0,6.928-6.578c0-.242-.015-.382-.015-.606a4.594,4.594,0,0,1,4.67-4.6A4.451,4.451,0,0,1,26,3.513a6.6,6.6,0,0,0,9.784,0,4.626,4.626,0,0,1,7.979,2.253.987.987,0,0,0,1.945-.332A6.594,6.594,0,0,0,34.321,2.189a4.619,4.619,0,0,1-6.855,0,6.577,6.577,0,0,0-9.42-.39A6.466,6.466,0,0,0,15.99,6.943a4.617,4.617,0,0,1-4.846,4.848A6.464,6.464,0,0,0,6,13.845a6.578,6.578,0,0,0,.39,9.421,4.622,4.622,0,0,1,0,6.856A6.46,6.46,0,0,0,4.2,34.962a6.655,6.655,0,0,0,4.443,6.3L.358,55.917a2.222,2.222,0,0,0,2.225,3.3c8.086-1,8.067-1.232,8.213-.905L14,65.665a2.223,2.223,0,0,0,3.972.208l7.409-13.108A6.678,6.678,0,0,0,27.466,51.2a4.619,4.619,0,0,1,6.855,0,6.7,6.7,0,0,0,2.087,1.567l3.55,6.281a.987.987,0,0,0,1.719-.973l-2.65-4.689a6.586,6.586,0,0,0,6.78-6.573c0-.27-.016-.423-.016-.608A4.618,4.618,0,0,1,50.4,41.59c.136,0,.55.022.67.014,9.189,16.278,8.674,15.29,8.674,15.4a.252.252,0,0,1-.283.247c-8.3-1.092-7.963-1.071-8.245-1.071a2.218,2.218,0,0,0-2.037,1.336c-3.365,7.5-3.088,7.506-3.429,7.506-.257,0-.077.032-2.132-3.517a.987.987,0,0,0-1.719.971l1.917,3.392a2.222,2.222,0,0,0,3.971-.208c3.305-7.4,3.1-7.552,3.461-7.5,8.358,1.1,7.978,1.071,8.251,1.071a2.223,2.223,0,0,0,2.217-2.224c0-1.025.137-.133-8.577-15.751ZM16.02,65.027c-.3-.017-.03.086-3.415-7.506A2.232,2.232,0,0,0,10.277,56.2c-8.16,1-8.015,1.209-8.191.945s-.346.489,8.629-15.544c3.863.242,5.4,2.258,5.275,4.839a6.462,6.462,0,0,0,2.055,5.143,6.79,6.79,0,0,0,4.715,1.8c-6.875,12.007-6.416,11.656-6.74,11.644Zm0,0"/></g></g></g></svg>