<svg xmlns="http://www.w3.org/2000/svg" xmlns:xlink="http://www.w3.org/1999/xlink" width="85" height="85" viewBox="0 0 85 85"><defs><clipPath id="a"><rect width="67" height="67" transform="translate(189 4865)" fill="#ffd41c"/></clipPath></defs><g transform="translate(-810 -7937.338)"><rect width="85" height="85" transform="translate(810 7937.338)" fill="#764cf0"/><g transform="translate(630 3081.338)" clip-path="url(#a)"><g transform="translate(192.144 4865)"><path d="M39.209,51.408H30.555V21.2a3.452,3.452,0,0,1,3.452-3.452h1.75A3.452,3.452,0,0,1,39.209,21.2Zm0,0" fill="#abebf4"/><path d="M39.209,36.672a47.025,47.025,0,0,1-8.654,3.083V51.408h8.654Zm0,0" fill="#8ed7e8"/><path d="M26.8,51.408H18.143V28.825a3.01,3.01,0,0,1,3.01-3.01h2.634a3.011,3.011,0,0,1,3.01,3.01Zm0,0" fill="#b2e59c"/><path d="M51.622,46.583H42.969V11.726A3.43,3.43,0,0,1,46.4,8.3h1.793a3.43,3.43,0,0,1,3.43,3.43Zm0,0" fill="#ffde55"/><path d="M51.622,28.605a56.465,56.465,0,0,1-8.654,6.114V46.583h8.654Zm0,0" fill="#ffcd00"/><path d="M14.326,40.4l17.4-9.236a2.91,2.91,0,0,1,4.216,3.151,8.43,8.43,0,0,1-2.886,5l-1.783,1.445a1.21,1.21,0,0,0,.761,2.15l7.151,0a11.317,11.317,0,0,0,6.515-2.06l7.992-5.62a3.757,3.757,0,0,1,4.546,5.976l-10.468,8.6a11.315,11.315,0,0,1-4.493,2.248L20.333,57.684Zm0,0" fill="#ffe2d9"/><path d="M23.966,49.474c-6.59-1.934-6.1-10.95-6.1-10.95L14.326,40.4l6.006,17.28L37.821,53.4c-3.685-1.024-9.613-2.683-13.855-3.928Zm0,0" fill="#ffcfc2"/><path d="M14.326,40.4l6.5,17.352A5.069,5.069,0,0,1,17.2,64.477L10.986,65.89a5.069,5.069,0,0,1-6.028-3.668L1.609,49.338A5.221,5.221,0,0,1,5.228,43Zm0,0" fill="#8ed7e8"/><path d="M20.828,57.756,19.814,55.05a16.768,16.768,0,0,0-7.69-1.362,5.085,5.085,0,0,1-5.309-5.237A35.092,35.092,0,0,1,7.6,42.326L5.228,43a5.221,5.221,0,0,0-3.619,6.334L4.958,62.222a5.069,5.069,0,0,0,6.028,3.668L17.2,64.477a5.069,5.069,0,0,0,3.624-6.721Zm0,0" fill="#7ac1dd"/><path d="M15.169,58.728a2.885,2.885,0,1,1-2.885-2.885A2.885,2.885,0,0,1,15.169,58.728Zm0,0" fill="#ffeb99"/><path d="M36.968.981H29.12a2.038,2.038,0,0,0,0,4.075h2.793l-8.185,7.879-3.881-2.007a2.038,2.038,0,0,0-2.383.375L1.637,27.253A2.038,2.038,0,0,0,4.53,30.123L19.3,15.235l3.849,1.991a2.039,2.039,0,0,0,2.349-.342l9.428-9.075v3.127a2.038,2.038,0,1,0,4.075,0V3.019s0,0,0-.006A1.887,1.887,0,0,0,36.968.981Zm0,0" fill="#97f7e5"/><path d="M59.241,35c-3.079-3.065-6.638-.2-6.638-.2V18.671a.981.981,0,1,0-1.963,0V36.187s-4.68,3.689-6.691,4.591V11.726A2.452,2.452,0,0,1,46.4,9.277h1.793a2.452,2.452,0,0,1,2.449,2.449v2.927a.981.981,0,1,0,1.963,0V11.726a4.417,4.417,0,0,0-4.412-4.411H46.4a4.417,4.417,0,0,0-4.412,4.411v29.83a10.3,10.3,0,0,1-1.8.334V21.2a4.439,4.439,0,0,0-4.433-4.434h-1.75A4.439,4.439,0,0,0,29.574,21.2v10l-1.8.954V28.825a4,4,0,0,0-3.992-3.992H21.152a4,4,0,0,0-3.991,3.992v8.963l-3.2,1.7-9,2.572a6.2,6.2,0,0,0-4.3,7.524l1.007,3.873a.981.981,0,0,0,1.9-.494L2.559,49.091A4.215,4.215,0,0,1,5.5,43.948L13.725,41.6l6.184,16.5a4.4,4.4,0,0,1-2.922,5.42l-6.218,1.412a4.069,4.069,0,0,1-4.861-2.958L4.646,57.117a.982.982,0,0,0-1.9.494l1.263,4.857A6.019,6.019,0,0,0,9.84,67c1.983,0,7.582-1.566,7.582-1.566A6.048,6.048,0,0,0,22,58.286L43.51,53.02a12.377,12.377,0,0,0,4.883-2.444l10.468-8.6A4.655,4.655,0,0,0,59.241,35ZM34.007,18.728h1.75A2.474,2.474,0,0,1,38.228,21.2v20.74l-6.193,0c-.569-.005-.175-.381-.144-.406l1.783-1.445a9.326,9.326,0,0,0,3.23-5.571,3.892,3.892,0,0,0-5.367-4.344V21.2a2.474,2.474,0,0,1,2.471-2.471Zm-14.883,10.1A2.031,2.031,0,0,1,21.152,26.8h2.634a2.031,2.031,0,0,1,2.029,2.029v4.37l-6.691,3.552ZM57.615,40.459l-10.468,8.6a10.4,10.4,0,0,1-4.1,2.053L21.375,56.419,15.547,40.867l16.639-8.832a1.929,1.929,0,0,1,2.795,2.088,7.418,7.418,0,0,1-2.542,4.438l-1.783,1.445A2.191,2.191,0,0,0,32.034,43.9l7.151,0h0a12.238,12.238,0,0,0,7.075-2.239l7.991-5.62a2.765,2.765,0,0,1,3.582.33,2.724,2.724,0,0,1-.223,4.085Zm0,0"/><path d="M16.15,58.729A3.867,3.867,0,1,0,12.283,62.6,3.871,3.871,0,0,0,16.15,58.729Zm-5.77,0a1.9,1.9,0,1,1,1.9,1.9A1.906,1.906,0,0,1,10.38,58.729Zm0,0"/><path d="M5.226,30.815,19.493,16.438,22.7,18.1a3.018,3.018,0,0,0,3.481-.507l7.766-7.475s-.214,3.839,3.02,3.839a3.023,3.023,0,0,0,3.019-3.02V3.019c0-.009,0-.019,0-.029A2.857,2.857,0,0,0,36.968,0H29.12A3.022,3.022,0,0,0,26.1,3.019c0,3.319,3.377,3.019,3.377,3.019l-5.924,5.7L20.3,10.057a3.007,3.007,0,0,0-3.53.555L.94,26.562a3.023,3.023,0,0,0,.016,4.27,2.977,2.977,0,0,0,4.27-.016ZM2.333,27.944l15.828-15.95A.892.892,0,0,1,19.4,11.8l3.88,2.007a.981.981,0,0,0,1.132-.165l8.185-7.879a.981.981,0,0,0-.68-1.688H29.12a1.056,1.056,0,0,1,0-2.113h7.848a.922.922,0,0,1,1.056,1.05c0,.009,0,.017,0,.027v7.9a1.056,1.056,0,1,1-2.112,0V7.809A.982.982,0,0,0,34.25,7.1l-9.428,9.075a1.056,1.056,0,0,1-1.218.177l-3.849-1.991a.982.982,0,0,0-1.148.18L3.833,29.432a1.012,1.012,0,0,1-1.494.006,1.057,1.057,0,0,1-.006-1.494Zm0,0"/></g></g></g></svg>