<svg xmlns="http://www.w3.org/2000/svg" xmlns:xlink="http://www.w3.org/1999/xlink" width="133" height="133" viewBox="0 0 133 133"><defs><clipPath id="a"><rect width="85" height="85" transform="translate(1223 951)" fill="#fff" stroke="#707070" stroke-width="1"/></clipPath></defs><g transform="translate(-1199 -927.46)"><g transform="translate(1199 927.46)" fill="#fff8d9" stroke="#21155c" stroke-width="3"><circle cx="66.5" cy="66.5" r="66.5" stroke="none"/><circle cx="66.5" cy="66.5" r="65" fill="none"/></g><rect width="18.053" height="18.053" rx="2" transform="matrix(0.945, 0.327, -0.327, 0.945, 1310.325, 1032.589)" fill="#21155c"/><g clip-path="url(#a)"><g transform="translate(1220.173 948.177)"><path d="M32.58,76.491h25.5v5.666H32.58Z" fill="#939393"/><path d="M32.58,82.157v1.417a4.25,4.25,0,0,0,4.25,4.25h17a4.25,4.25,0,0,0,4.25-4.25V82.157Z" fill="#686868"/><path d="M76.491,34A31.163,31.163,0,1,0,28.33,60.109V73.658a2.833,2.833,0,0,0,2.833,2.833h28.33a2.833,2.833,0,0,0,2.833-2.833V60.109A31.125,31.125,0,0,0,76.491,34Z" fill="#f9d266"/><path d="M55.244,73.658V60.109A31.163,31.163,0,0,0,41.757,3.033,31.163,31.163,0,0,0,28.33,60.109V73.658a2.833,2.833,0,0,0,2.833,2.833H52.411A2.833,2.833,0,0,0,55.244,73.658Z" fill="#fce797"/><path d="M45.328,2.833a32.093,32.093,0,0,0-3.55.2,31.221,31.221,0,0,0-27.45,27.742,31.73,31.73,0,0,0-.035,6.057H25.625l-1.082-2.164a4.38,4.38,0,1,1,7.836,0L31.3,36.829H45.328V22.664l2.164,1.082a4.377,4.377,0,1,0,0-7.83L45.328,17Z" fill="#f4a93c"/><path d="M76.364,36.829q.127-1.4.127-2.833A31.163,31.163,0,0,0,45.328,2.833V17l2.164-1.082a4.377,4.377,0,1,1,0,7.83l-2.164-1.082V36.829Z" fill="#f6b940"/><path d="M49.578,76.491H46.745V55.244H43.912V76.491H41.079V55.244H38.246a5.666,5.666,0,1,1,5.666-5.666v2.833h2.833V49.578a5.666,5.666,0,1,1,5.666,5.666H49.578Zm0-24.081h2.833a2.833,2.833,0,1,0-2.833-2.833ZM38.246,46.745a2.833,2.833,0,0,0,0,5.666h2.833V49.578A2.833,2.833,0,0,0,38.246,46.745Z" fill="#f4a93c"/><path d="M45.328,3.65V17l2.164-1.082a4.377,4.377,0,1,1,0,7.83l-2.164-1.082V36.829H69.267c.085-.935.142-1.877.142-2.833A31.163,31.163,0,0,0,45.33,3.651Z" fill="#f9d266"/></g></g></g></svg>