<svg xmlns="http://www.w3.org/2000/svg" xmlns:xlink="http://www.w3.org/1999/xlink" width="400" height="352" viewBox="0 0 400 352">
  <defs>
    <clipPath id="clip-path">
      <rect id="Rectángulo_34769" data-name="Rectángulo 34769" width="400" height="352" transform="translate(-12564 -12189)" fill="#fff" stroke="#707070" stroke-width="1"/>
    </clipPath>
  </defs>
  <g id="Enmascarar_grupo_262" data-name="Enmascarar grupo 262" transform="translate(12564 12189)" clip-path="url(#clip-path)">
    <g id="Grupo_94626" data-name="Grupo 94626" transform="translate(-13834.685 -12262.275)">
      <path id="Trazado_122061" data-name="Trazado 122061" d="M1619.232,296.986l-.979.485-1.464.732-23.631,11.73-19.732,9.806-5.95,2.954-1.056.528-6.844,3.4-.57.281-6.435,3.2-41.932,20.83-1.975.979-4.571,2.273h-.008l-4.486,2.239-14.769,7.338-32.569,16.174a14.252,14.252,0,0,1-19.136-6.435l-.409-.817-8.606-17.331-.443-.894-.094-.2-3.516-7.074-.162-.315-3.175-6.384a.03.03,0,0,1-.008-.017l-.051-.1-.077-.17-1.651-3.32-12.156-24.482-7.525-15.144-1.073-2.162-.97-1.949h-.008l-1-2.026-.3-.6-.5-1.03-3.5-7.031-2.979-6-5.482-11.032-.085-.179-2.579-5.184-3.5-7.057-2.434-4.886-.366-.741-.264-.536-2.239-4.5-3.328-6.7-8.138-16.378-5.993-12.062-.332-.672a14.282,14.282,0,0,1,6.282-19.068l.153-.077,8.027-3.984,5.252-2.613.579-.289,1.03-.511,9.594-4.767,3.252-1.609,6.58-3.269.051-.026.383-.2.7-.34,8.334-4.146,3.124-1.549,3.15-1.566.221-.111.153-.077,1.788-.885,1.771-.885,3.107-1.541,17.357-8.615,6.912-3.439,1.132-.562,4.452-2.213.085-.043,1.021-.511.375-.179,1.251-.621,13.424-6.674,12.088-6,5.491-2.724,46.291-23a14.284,14.284,0,0,1,19.145,6.444l9.576,19.281,2.979,6,5.09,10.24.281.562,4.469,9,2.349,4.733.851,1.711.051.111.758,1.507,6.095,12.283,1.294,2.613,15.867,31.964.026.026.962,1.932,6.75,13.577.4.809,6.248,12.581,4.375,8.81,2.826,5.695,1.345,2.69.23.468,1.43,2.886.4.809a.026.026,0,0,1,.009.017l8.282,16.667A14.277,14.277,0,0,1,1619.232,296.986Z" fill="#ffd41c"/>
      <g id="Grupo_94682" data-name="Grupo 94682" transform="translate(1356.468 119.778)">
        <g id="Grupo_94626-2" data-name="Grupo 94626" transform="translate(46.309 113.892)">
          <path id="Trazado_122062" data-name="Trazado 122062" d="M1466.829,349.267a231.85,231.85,0,0,1-4.375,25.486c-2.332,10.351-5.176,20.5-7.959,29.5a14.294,14.294,0,0,1-11.917-7.908l-.409-.817-8.606-17.331-.443-.894-.094-.2-3.516-7.074-.162-.315-3.175-6.384a.03.03,0,0,1-.008-.017l-.051-.1-.077-.17-1.651-3.32-12.156-24.482,7.814-68.2.221-1.881.136-1.226.017-.128.536-4.682,6.853-.485.511-.034,1.983-.145,9.968-.707,1.881-.136,6.589-.468,8.938-.63s2.613,10.4,5.159,25.418c.451,2.664.9,5.465,1.336,8.385.451,3.013.877,6.154,1.268,9.381.341,2.741.656,5.542.928,8.385.332,3.362.613,6.784.826,10.223.17,2.784.3,5.584.374,8.385A168.093,168.093,0,0,1,1466.829,349.267Z" transform="translate(-1412.23 -256.515)" fill="#aa97f7"/>
        </g>
        <g id="Grupo_94627" data-name="Grupo 94627" transform="translate(22.968 114.99)">
          <path id="Trazado_122063" data-name="Trazado 122063" d="M1438.855,344.581a75.724,75.724,0,0,1-2.664,16.974,52.16,52.16,0,0,1-7.15,15.935l-.094-.2-3.516-7.074-.162-.315-3.175-6.384a.03.03,0,0,1-.009-.017l-.051-.1-.077-.17-1.651-3.32-12.156-24.482-7.525-15.144-1.073-2.162-.97-1.949h-.008l-1-2.026-.3-.6-.5-1.03-3.5-7.031-2.979-6-5.482-11.032c.724-5.159,1.541-10.24,2.29-14.582q.332-1.928.638-3.626c.97-5.422,1.686-9.023,1.686-9.023l34.322-2.418.511-.034,1.975-.136,9.96-.7,1.881-.136.026,3.235.221,24.405.009,1.1.179,19.757.2,20.89v.119l.06,6.955v.1Z" transform="translate(-1384.81 -257.805)" fill="#ada4f7"/>
        </g>
        <g id="Grupo_94628" data-name="Grupo 94628" transform="translate(67.105 141.455)">
          <path id="Trazado_122064" data-name="Trazado 122064" d="M1461.159,289.4a.553.553,0,0,1-.5.6h-.026l-8.257.664-6.333.511-2.137.179-.34.026c.085.46.2,1.149.34,2.034.553,3.388,1.507,9.687,2.315,17.519,1.771,17.084,2.86,41.439-2.315,58.651a39.417,39.417,0,0,1-5.976,12.5c-.238.315-.485.63-.732.928l-.443-.894-.094-.2c.136-.162.264-.332.391-.5,3.184-4.2,5.38-9.874,6.853-16.344a125.19,125.19,0,0,0,2.571-26.082v-.1c.017-2.324,0-4.648-.06-6.955v-.119a299.377,299.377,0,0,0-2.511-30.67c-.809-6.129-1.507-10.011-1.532-10.172a.558.558,0,0,1,.1-.434.538.538,0,0,1,.4-.213l1.03-.085,2.128-.17,6.342-.511,8.189-.664h.068A.544.544,0,0,1,1461.159,289.4Z" transform="translate(-1436.66 -288.895)" fill="#fff"/>
        </g>
        <g id="Grupo_94629" data-name="Grupo 94629" transform="translate(29.921 126.733)">
          <path id="Trazado_122065" data-name="Trazado 122065" d="M1393.53,285.144a.552.552,0,0,1-.243-1.048c6.9-3.367,11.521-12.112,11.566-12.2a.552.552,0,0,1,.978.51c-.194.372-4.828,9.153-12.06,12.682A.549.549,0,0,1,1393.53,285.144Z" transform="translate(-1392.978 -271.6)" fill="#fff"/>
        </g>
        <g id="Grupo_94630" data-name="Grupo 94630" transform="translate(4.02 38.207)">
          <path id="Trazado_122066" data-name="Trazado 122066" d="M1396.2,175.625a46.652,46.652,0,0,0-32.359,31.322c-8.115,26.108,24.62,53.628,24.62,53.628l61.821-17.288s-7.409-67.035-14.818-73.739S1396.2,175.625,1396.2,175.625Z" transform="translate(-1362.551 -167.604)" fill="#8758e7"/>
        </g>
        <g id="Grupo_94631" data-name="Grupo 94631" transform="translate(48.361)">
          <path id="Trazado_122067" data-name="Trazado 122067" d="M1422.5,154.487s3.305-25.016,35.529-31.131,51.512,33.9,51.512,33.9l-94.905,17.378Z" transform="translate(-1414.64 -122.72)" fill="#8758e7"/>
        </g>
        <g id="Grupo_94632" data-name="Grupo 94632" transform="translate(112.125 21.546)">
          <path id="Trazado_122068" data-name="Trazado 122068" d="M1496.219,154.345a.548.548,0,0,1-.358-.131l-6.12-5.212a.551.551,0,0,1,.714-.839l6.121,5.212a.551.551,0,0,1-.358.97Z" transform="translate(-1489.547 -148.031)" fill="#50447e"/>
        </g>
        <g id="Grupo_94633" data-name="Grupo 94633" transform="translate(24.538 3.655)">
          <path id="Trazado_122069" data-name="Trazado 122069" d="M1415.992,144.182s10.3-7.143,6.3-13.92-13.993-.844-13.993-.844a7.436,7.436,0,0,0-8.924-1.322c-5.461,2.648-6.563,9.942-6.563,9.942s-5.346-.488-6.1,6.006,5.864,12.775,5.864,12.775Z" transform="translate(-1386.654 -127.014)" fill="#26d19e"/>
        </g>
        <g id="Grupo_94635" data-name="Grupo 94635" transform="translate(34.541 37.408)">
          <g id="Grupo_94634" data-name="Grupo 94634">
            <path id="Trazado_122070" data-name="Trazado 122070" d="M1399.376,166.665l-.971,12.406s1.958,3.741,9.17,4.9c5.372.863,7.27-2.572,7.27-2.572l-.164-3.98-.263-6.186-12.88-3.909Z" transform="translate(-1398.405 -166.665)" fill="#fc8165"/>
          </g>
        </g>
        <g id="Grupo_94637" data-name="Grupo 94637" transform="translate(37.672 38.066)">
          <g id="Grupo_94636" data-name="Grupo 94636">
            <path id="Trazado_122071" data-name="Trazado 122071" d="M1402.084,167.438a4.082,4.082,0,0,0,.267,1.226c2.291,6.414,9.776,8.345,12.876,8.869l-.263-6.186Z" transform="translate(-1402.084 -167.438)"/>
          </g>
        </g>
        <g id="Grupo_94639" data-name="Grupo 94639" transform="translate(27.259 8.724)">
          <g id="Grupo_94638" data-name="Grupo 94638">
            <path id="Trazado_122072" data-name="Trazado 122072" d="M1418.125,138.157s5.293,16.065,2.05,24.506-11.014,6.335-15.583,4.215a15.715,15.715,0,0,1-6.49-5.224,6.692,6.692,0,0,1-7.122-3.3c-2.567-4.382-.307-8.926,2.315-9.77s5.449,1.258,5.449,1.258l-1.928-4.706S1408.84,123.275,1418.125,138.157Z" transform="translate(-1389.851 -132.968)" fill="#fc8165"/>
          </g>
        </g>
        <g id="Grupo_94640" data-name="Grupo 94640" transform="translate(29.382 26.758)">
          <path id="Trazado_122073" data-name="Trazado 122073" d="M1398.17,159.713a.548.548,0,0,1-.356-.129l-5.274-4.458a.552.552,0,1,1,.712-.843l5.274,4.458a.551.551,0,0,1-.356.972Z" transform="translate(-1392.344 -154.154)"/>
        </g>
        <g id="Grupo_94641" data-name="Grupo 94641" transform="translate(29.568 30.087)">
          <path id="Trazado_122074" data-name="Trazado 122074" d="M1393.114,159.826a.551.551,0,0,1-.094-1.093l3.755-.659a.551.551,0,0,1,.19,1.085l-3.755.659A.515.515,0,0,1,1393.114,159.826Z" transform="translate(-1392.563 -158.065)"/>
        </g>
        <g id="Grupo_94642" data-name="Grupo 94642" transform="translate(44.116 17.327)">
          <path id="Trazado_122075" data-name="Trazado 122075" d="M1410.2,145.447a.551.551,0,0,1-.409-.921,3.9,3.9,0,0,1,5.048-.893.551.551,0,0,1-.6.927,2.819,2.819,0,0,0-3.635.706A.551.551,0,0,1,1410.2,145.447Z" transform="translate(-1409.654 -143.075)"/>
        </g>
        <g id="Grupo_94643" data-name="Grupo 94643" transform="translate(52.921 18.114)">
          <path id="Trazado_122076" data-name="Trazado 122076" d="M1423.823,145.943a.551.551,0,0,1-.383-.154,2.419,2.419,0,0,0-2.649-.483.551.551,0,0,1-.484-.99,3.507,3.507,0,0,1,3.9.68.55.55,0,0,1-.383.947Z" transform="translate(-1419.997 -144)"/>
        </g>
        <g id="Grupo_94644" data-name="Grupo 94644" transform="translate(51.6 24.207)">
          <path id="Trazado_122077" data-name="Trazado 122077" d="M1420.184,159.954a.525.525,0,0,1-.2-.038.549.549,0,0,1-.316-.712,6.773,6.773,0,0,0-1.063-7.105.551.551,0,0,1,.78-.779,7.784,7.784,0,0,1,1.311,8.281A.55.55,0,0,1,1420.184,159.954Z" transform="translate(-1418.445 -151.158)"/>
        </g>
        <g id="Grupo_94645" data-name="Grupo 94645" transform="translate(55.119 22.006)">
          <path id="Trazado_122078" data-name="Trazado 122078" d="M1423.684,152.581a.55.55,0,0,1-.541-.448l-.554-2.906a.551.551,0,1,1,1.082-.206l.554,2.906a.551.551,0,0,1-.437.644A.543.543,0,0,1,1423.684,152.581Z" transform="translate(-1422.579 -148.572)"/>
        </g>
        <g id="Grupo_94646" data-name="Grupo 94646" transform="translate(47.256 21.546)">
          <path id="Trazado_122079" data-name="Trazado 122079" d="M1414.446,152.039a.552.552,0,0,1-.541-.447l-.553-2.906a.551.551,0,1,1,1.082-.207l.554,2.906a.551.551,0,0,1-.438.644A.535.535,0,0,1,1414.446,152.039Z" transform="translate(-1413.342 -148.031)"/>
        </g>
        <g id="Grupo_94647" data-name="Grupo 94647" transform="translate(31.295 5.672)">
          <path id="Trazado_122080" data-name="Trazado 122080" d="M1419.861,141.231a5.252,5.252,0,0,0-4.244-2.863,6.713,6.713,0,0,0-5.072,1.774s.95,5.318-3.475,7.757-7.621,1.41-7.621,1.41l-2.967-1.327-1.89-4.636,9.576-8.826,11.9-5.138,5.41,5.744Z" transform="translate(-1394.592 -129.383)" fill="#26d19e"/>
        </g>
        <g id="Grupo_94648" data-name="Grupo 94648" transform="translate(45.816 32.672)">
          <path id="Trazado_122081" data-name="Trazado 122081" d="M1416.092,164.826a4.742,4.742,0,0,1-4.405-2.979.551.551,0,1,1,1.031-.389,3.6,3.6,0,0,0,3.381,2.266.551.551,0,0,1,.018,1.1Z" transform="translate(-1411.651 -161.101)"/>
        </g>
        <g id="Grupo_94649" data-name="Grupo 94649" transform="translate(109.444 14.272)">
          <path id="Trazado_122082" data-name="Trazado 122082" d="M1486.95,155.3a.49.49,0,0,1-.092-.008.551.551,0,0,1-.452-.635,23.213,23.213,0,0,1,9.517-15.087.551.551,0,0,1,.589.931,22.519,22.519,0,0,0-9.018,14.34A.552.552,0,0,1,1486.95,155.3Z" transform="translate(-1486.398 -139.486)" fill="#50447e"/>
        </g>
        <g id="Grupo_94650" data-name="Grupo 94650" transform="translate(82.816 26.626)">
          <rect id="Rectángulo_35035" data-name="Rectángulo 35035" width="128.191" height="205.507" rx="6.607" fill="#fff"/>
        </g>
        <g id="Grupo_94651" data-name="Grupo 94651" transform="translate(74.348 26.626)">
          <rect id="Rectángulo_35036" data-name="Rectángulo 35036" width="128.191" height="205.507" rx="6.607" fill="#d7d7e2"/>
        </g>
        <g id="Grupo_94652" data-name="Grupo 94652" transform="translate(62.822 70.899)">
          <path id="Trazado_122083" data-name="Trazado 122083" d="M1431.629,215.012s15.524-8.233,20.229-8.938,12.762,4.469,12.762,4.469l-4.06,2.352s6.351,13.877,5.175,15.994-4.233,0-4.233,0-7.292,7.527-9.409,7.762-13.407-4.234-13.407-4.234Z" transform="translate(-1431.629 -206.008)" fill="#fc8165"/>
        </g>
        <g id="Grupo_94653" data-name="Grupo 94653" transform="translate(0 47.094)">
          <path id="Trazado_122084" data-name="Trazado 122084" d="M1422.768,207.559l-33.645,12,3.459-41.511s-25.794,7.876-32.615,34.455,3.058,47.748,24.226,49.629,49.865-27.755,49.865-27.755Z" transform="translate(-1357.828 -178.044)" fill="#8758e7"/>
        </g>
        <g id="Grupo_94654" data-name="Grupo 94654" transform="translate(117.162 13.337)">
          <path id="Trazado_122085" data-name="Trazado 122085" d="M1504.263,141.622s-3.76-6.334-7.23-1.032-.5,20.421,2.314,21.117c3.031.752,4.916-5.015,4.916-5.015s.578,4.926,3.759,5.015,4.626-5.015,4.626-5.015,1.583,5.766,4.338,5.015c3.029-.826,4.626-20.085-1.157-22.088-2.772-.96-4.338,2-4.338,2s-1.076-3.669-4.257-3.191A3.1,3.1,0,0,0,1504.263,141.622Z" transform="translate(-1495.465 -138.388)" fill="#fc8165"/>
        </g>
        <g id="Grupo_94655" data-name="Grupo 94655" transform="translate(91.079 139.307)">
          <rect id="Rectángulo_35037" data-name="Rectángulo 35037" width="94.73" height="8.389" fill="#ada4f7"/>
        </g>
        <g id="Grupo_94656" data-name="Grupo 94656" transform="translate(91.079 157.076)">
          <rect id="Rectángulo_35038" data-name="Rectángulo 35038" width="94.73" height="8.389" fill="#ada4f7"/>
        </g>
        <g id="Grupo_94657" data-name="Grupo 94657" transform="translate(91.079 175.681)">
          <rect id="Rectángulo_35039" data-name="Rectángulo 35039" width="94.73" height="8.389" fill="#ada4f7"/>
        </g>
        <g id="Grupo_94658" data-name="Grupo 94658" transform="translate(115.101 59.197)">
          <rect id="Rectángulo_35040" data-name="Rectángulo 35040" width="46.685" height="46.685" rx="3.488" fill="#80baff"/>
        </g>
        <g id="Grupo_94663" data-name="Grupo 94663" transform="translate(88.322 73.211)">
          <path id="Trazado_122089" data-name="Trazado 122089" d="M1465.016,213.85a.549.549,0,0,1-.448-.23l-2.881-4.024a.551.551,0,1,1,.9-.642l2.881,4.024a.55.55,0,0,1-.448.872Z" transform="translate(-1461.584 -208.725)"/>
        </g>
        <g id="Grupo_94664" data-name="Grupo 94664" transform="translate(90.504 90.933)">
          <path id="Trazado_122090" data-name="Trazado 122090" d="M1466.339,232.942a.555.555,0,0,1-.449-.231l-1.64-2.3a.552.552,0,1,1,.9-.642l1.64,2.295a.553.553,0,0,1-.449.873Z" transform="translate(-1464.148 -229.543)"/>
        </g>
        <g id="Grupo_94665" data-name="Grupo 94665" transform="translate(125.409 16.02)">
          <path id="Trazado_122091" data-name="Trazado 122091" d="M1505.7,157.039a.552.552,0,0,1-.552-.552v-14.4a.552.552,0,0,1,1.1,0v14.4A.551.551,0,0,1,1505.7,157.039Z" transform="translate(-1505.153 -141.54)"/>
        </g>
        <g id="Grupo_94666" data-name="Grupo 94666" transform="translate(132.638 16.019)">
          <path id="Trazado_122092" data-name="Trazado 122092" d="M1515.354,157.712a.55.55,0,0,1-.55-.508l-1.158-15.07a.551.551,0,0,1,.507-.592.523.523,0,0,1,.592.506l1.158,15.07a.552.552,0,0,1-.508.592A.35.35,0,0,1,1515.354,157.712Z" transform="translate(-1513.645 -141.538)"/>
        </g>
        <g id="Grupo_94667" data-name="Grupo 94667" transform="translate(33.989 49.263)">
          <path id="Trazado_122093" data-name="Trazado 122093" d="M1408.869,186.624c-5.535,0-10.72-4.872-10.94-5.082a.551.551,0,0,1,.759-.8,22.34,22.34,0,0,0,5.6,3.694c4.105,1.815,7.493,1.363,10.063-1.346a.551.551,0,1,1,.8.758,8.4,8.4,0,0,1-6.041,2.773Z" transform="translate(-1397.757 -180.592)" fill="#50447e"/>
        </g>
        <g id="Grupo_94668" data-name="Grupo 94668" transform="translate(22.584 78.014)">
          <path id="Trazado_122094" data-name="Trazado 122094" d="M1432.754,245.639a.551.551,0,0,1-.507-.336l-12.618-29.747c-3.079.694-21.4,4.936-34.505,10.484a.551.551,0,1,1-.429-1.015c14.37-6.086,34.939-10.6,35.144-10.646a.552.552,0,0,1,.625.323l12.8,30.17a.552.552,0,0,1-.291.724A.586.586,0,0,1,1432.754,245.639Z" transform="translate(-1384.358 -214.367)" fill="#50447e"/>
        </g>
        <g id="Grupo_94669" data-name="Grupo 94669" transform="translate(20.816 81.107)">
          <path id="Trazado_122095" data-name="Trazado 122095" d="M1397.73,220.9c-.026-.008-.085-.043-.187-.085-.553-.23-2.213-.928-4.265-1.566-3.507-1.1-8.146-2.034-10.343-.238-.724.587-.715,1.107-.587,1.447.511,1.328,5.218,1.643,9.568,1.643.375,0,.749,0,1.124-.009.213,0,.426,0,.638-.009,1.473-.026,2.835-.077,3.856-.128a.553.553,0,0,0,.519-.451A.561.561,0,0,0,1397.73,220.9Zm-4.6.077c-4.895.06-9.3-.221-9.755-.843,0,0,.034-.094.255-.272a4.6,4.6,0,0,1,2.92-.766,23.723,23.723,0,0,1,6.631,1.277c.6.187,1.175.383,1.711.579C1394.308,220.967,1393.713,220.975,1393.134,220.975Z" transform="translate(-1382.282 -218)" fill="#50447e"/>
        </g>
        <g id="Grupo_94670" data-name="Grupo 94670" transform="translate(86.62 17.308)">
          <path id="Trazado_122096" data-name="Trazado 122096" d="M1462.569,143.489a1.376,1.376,0,0,0-1.311-.409,1.766,1.766,0,0,0-1.226.877c-.8,1.362-.375,4.111.111,6.154.247,1.021.5,1.864.63,2.256a.051.051,0,0,1,.009.034,1.028,1.028,0,0,1,.051.145.561.561,0,0,0,.528.375h.009a.547.547,0,0,0,.519-.392c.017-.051.034-.1.051-.162.187-.647.57-2.043.851-3.567C1463.173,146.706,1463.369,144.383,1462.569,143.489Zm-1.234,6.827c-.06-.238-.119-.477-.17-.715-.451-2.009-.707-4.188-.179-5.082a.673.673,0,0,1,.477-.358.523.523,0,0,1,.111-.009.208.208,0,0,1,.179.077c.528.587.272,2.894-.213,5.193Z" transform="translate(-1459.585 -143.052)" fill="#50447e"/>
        </g>
        <g id="Grupo_94671" data-name="Grupo 94671" transform="translate(29.921 51.729)">
          <path id="Trazado_122097" data-name="Trazado 122097" d="M1393.53,187.055a.551.551,0,0,1-.42-.908l2.1-2.465a.552.552,0,0,1,.84.715l-2.1,2.464A.549.549,0,0,1,1393.53,187.055Z" transform="translate(-1392.978 -183.489)" fill="#50447e"/>
        </g>
        <g id="Grupo_94672" data-name="Grupo 94672" transform="translate(36.518 54.3)">
          <path id="Trazado_122098" data-name="Trazado 122098" d="M1401.28,191.118a.515.515,0,0,1-.094-.008.551.551,0,0,1-.449-.637l.6-3.5a.547.547,0,0,1,.637-.45.553.553,0,0,1,.45.637l-.6,3.505A.551.551,0,0,1,1401.28,191.118Z" transform="translate(-1400.727 -186.509)" fill="#50447e"/>
        </g>
        <g id="Grupo_94673" data-name="Grupo 94673" transform="translate(43.693 56.054)">
          <path id="Trazado_122099" data-name="Trazado 122099" d="M1410.2,192.967a.55.55,0,0,1-.544-.469l-.495-3.3a.551.551,0,0,1,1.09-.163l.495,3.3a.55.55,0,0,1-.463.626A.447.447,0,0,1,1410.2,192.967Z" transform="translate(-1409.157 -188.569)" fill="#50447e"/>
        </g>
        <g id="Grupo_94674" data-name="Grupo 94674" transform="translate(48.993 55.105)">
          <path id="Trazado_122100" data-name="Trazado 122100" d="M1417.371,190.615a.552.552,0,0,1-.453-.235l-1.435-2.057a.551.551,0,0,1,.9-.632l1.436,2.057a.551.551,0,0,1-.452.867Z" transform="translate(-1415.383 -187.455)" fill="#50447e"/>
        </g>
        <g id="Grupo_94675" data-name="Grupo 94675" transform="translate(52.484 50.504)">
          <path id="Trazado_122101" data-name="Trazado 122101" d="M1422.948,184.01a.548.548,0,0,1-.156-.023l-2.912-.855a.551.551,0,0,1,.311-1.058l2.912.855a.552.552,0,0,1-.155,1.081Z" transform="translate(-1419.484 -182.05)" fill="#50447e"/>
        </g>
        <g id="Grupo_94676" data-name="Grupo 94676" transform="translate(60.231 80.596)">
          <path id="Trazado_122102" data-name="Trazado 122102" d="M1429.136,222.048a.551.551,0,0,1-.279-1.027l6.068-3.545a.551.551,0,1,1,.556.952l-6.068,3.546A.556.556,0,0,1,1429.136,222.048Z" transform="translate(-1428.584 -217.401)" fill="#50447e"/>
        </g>
        <g id="Grupo_94677" data-name="Grupo 94677" transform="translate(63.597 88.628)">
          <path id="Trazado_122103" data-name="Trazado 122103" d="M1433.092,231.392a.551.551,0,0,1-.29-1.021l5.6-3.453a.551.551,0,1,1,.579.938l-5.6,3.454A.552.552,0,0,1,1433.092,231.392Z" transform="translate(-1432.539 -226.837)" fill="#50447e"/>
        </g>
        <g id="Grupo_94678" data-name="Grupo 94678" transform="translate(66.908 95.166)">
          <path id="Trazado_122104" data-name="Trazado 122104" d="M1436.98,240.338a.552.552,0,0,1-.358-.97l5.526-4.718a.551.551,0,0,1,.716.838l-5.526,4.718A.549.549,0,0,1,1436.98,240.338Z" transform="translate(-1436.428 -234.517)" fill="#50447e"/>
        </g>
        <g id="Grupo_94679" data-name="Grupo 94679" transform="translate(57.631 76.059)">
          <path id="Trazado_122105" data-name="Trazado 122105" d="M1426.083,215.129a.552.552,0,0,1-.153-1.082l6.757-1.955a.551.551,0,1,1,.306,1.059l-6.757,1.956A.559.559,0,0,1,1426.083,215.129Z" transform="translate(-1425.531 -212.07)" fill="#50447e"/>
        </g>
        <g id="Grupo_94680" data-name="Grupo 94680" transform="translate(48.456 102.872)">
          <path id="Trazado_122106" data-name="Trazado 122106" d="M1415.3,265.893a.552.552,0,0,1-.22-1.057c.134-.059,13.513-5.966,21.771-15.76l5.279-5.343a.551.551,0,0,1,.784.775l-5.25,5.312c-8.4,9.961-22.008,15.969-22.144,16.027A.545.545,0,0,1,1415.3,265.893Z" transform="translate(-1414.752 -243.569)" fill="#50447e"/>
        </g>
        <g id="Grupo_94681" data-name="Grupo 94681" transform="translate(35.827 134.746)">
          <path id="Trazado_122107" data-name="Trazado 122107" d="M1402.873,323.739l-1.073-2.162a341.462,341.462,0,0,0-1.762-38.808c-.043-.4-.077-.783-.119-1.149a.512.512,0,0,1,.136-.417.546.546,0,0,1,.358-.187.563.563,0,0,1,.6.494c.009.077.017.17.026.264C1401.494,286.156,1403.614,307.71,1402.873,323.739Z" transform="translate(-1399.916 -281.013)" fill="#fff"/>
        </g>
      </g>
    </g>
    <g id="Grupo_93100" data-name="Grupo 93100" transform="translate(-12469.219 -11984.113)">
      <circle id="Elipse_5420" data-name="Elipse 5420" cx="38.865" cy="38.865" r="38.865" transform="translate(0 9.938)" fill="#764cf0"/>
      <circle id="Elipse_5421" data-name="Elipse 5421" cx="30.234" cy="30.234" r="30.234" transform="translate(8.631 18.569)" fill="#fff"/>
      <circle id="Elipse_5422" data-name="Elipse 5422" cx="21.272" cy="21.272" r="21.272" transform="translate(8.781 48.803) rotate(-45)" fill="#764cf0"/>
      <circle id="Elipse_5423" data-name="Elipse 5423" cx="11.224" cy="11.224" r="11.224" transform="translate(22.992 48.803) rotate(-45)" fill="#fff"/>
      <path id="Trazado_117391" data-name="Trazado 117391" d="M1070.884,184.661l-1.056-8.292,8.44-9.033.607,8.948Z" transform="translate(-1001.951 -167.336)" fill="#455a64"/>
      <path id="Trazado_117392" data-name="Trazado 117392" d="M1089.6,181.015l-8.563-.7-8.583,8.256,8.585.918Z" transform="translate(-1002.548 -170.288)" fill="#455a64"/>
      <path id="Trazado_117393" data-name="Trazado 117393" d="M1032.277,223.149l31.906-22.849a43.32,43.32,0,0,0-4.051-5.008L1032.8,221.718Z" transform="translate(-993.412 -173.693)" opacity="0.3"/>
      <g id="Grupo_93099" data-name="Grupo 93099" transform="translate(37.653 6.909)">
        <path id="Trazado_117394" data-name="Trazado 117394" d="M1071.246,176.589l-4,4.058-9.615,9.742-11.583,11.737-10.062,10.2c-1.629,1.65-3.332,3.254-4.9,4.964-.022.025-.047.047-.07.071-.946.959.531,2.438,1.479,1.478l4-4.057,9.615-9.743,11.582-11.736,10.062-10.2c1.629-1.65,3.331-3.253,4.9-4.964.022-.025.047-.047.07-.071.946-.958-.531-2.438-1.478-1.478Z" transform="translate(-1030.709 -176.278)" fill="#263238"/>
      </g>
    </g>
    <rect id="Rectángulo_34576" data-name="Rectángulo 34576" width="34.698" height="34.698" rx="8" transform="matrix(0.985, 0.174, -0.174, 0.985, -12268.831, -11969.09)" fill="#26d19e"/>
    <circle id="Elipse_5424" data-name="Elipse 5424" cx="14.34" cy="14.34" r="14.34" transform="translate(-12260 -12077.68)" fill="#764cf0"/>
  </g>
</svg>
