<svg xmlns="http://www.w3.org/2000/svg" xmlns:xlink="http://www.w3.org/1999/xlink" width="86" height="86" viewBox="0 0 86 86">
  <defs>
    <clipPath id="clip-path">
      <rect id="Rectángulo_34785" data-name="Rectángulo 34785" width="86" height="86" transform="translate(641 20728)" fill="#764cf0"/>
    </clipPath>
  </defs>
  <g id="Enmascarar_grupo_268" data-name="Enmascarar grupo 268" transform="translate(-641 -20728)" clip-path="url(#clip-path)">
    <g id="helado" transform="translate(641 20728)">
      <path id="Trazado_121079" data-name="Trazado 121079" d="M58.827,37,54.795,48.837,42.569,84.74,30.295,48.694,26.313,37Z" fill="#ffc299"/>
      <path id="Trazado_121080" data-name="Trazado 121080" d="M58.827,37,54.795,48.837a15.49,15.49,0,0,1-1.943.122,15.2,15.2,0,0,1-9.86-3.623c-.07.06-.141.119-.211.178a15.276,15.276,0,0,1-12.485,3.181L26.313,37Z" fill="#ff9a55"/>
      <path id="Trazado_121081" data-name="Trazado 121081" d="M55.628,15.488a14.217,14.217,0,1,1-.879-4.934A14.278,14.278,0,0,1,55.628,15.488Z" fill="#8fe5d8"/>
      <path id="Trazado_121082" data-name="Trazado 121082" d="M54.7,17.6a17.647,17.647,0,0,0-11.458,4.21A17.71,17.71,0,0,0,27.42,18.148a14.23,14.23,0,0,0,28.048-.527C55.214,17.609,54.957,17.6,54.7,17.6Z" fill="#63cec1"/>
      <path id="Trazado_121083" data-name="Trazado 121083" d="M54.748,10.554H47.764a1.751,1.751,0,0,0-1.751,1.751v.583a2,2,0,0,1-2,2h0a2,2,0,0,1-2-2v-3a1.881,1.881,0,0,0-1.881-1.881h0a1.881,1.881,0,0,0-1.881,1.881v6.777A1.751,1.751,0,0,1,36.5,18.42h0a1.751,1.751,0,0,1-1.751-1.751V12.305A1.751,1.751,0,0,0,33,10.554H28.051a14.233,14.233,0,0,1,26.7,0Z" fill="#ffa6b7"/>
      <path id="Trazado_121084" data-name="Trazado 121084" d="M45.372,33.693a12.251,12.251,0,1,1-4.5-9.487A12.217,12.217,0,0,1,45.372,33.693Z" fill="#ffc988"/>
      <path id="Trazado_121085" data-name="Trazado 121085" d="M45.372,33.693a12.217,12.217,0,0,1-4.5,9.485,15.277,15.277,0,0,1,0-18.972A12.223,12.223,0,0,1,45.372,33.693Z" fill="#ffb64d"/>
      <g id="Grupo_93926" data-name="Grupo 93926">
        <circle id="Elipse_5562" data-name="Elipse 5562" cx="12.25" cy="12.25" r="12.25" transform="translate(40.601 21.443)" fill="#c4c8f7"/>
        <path id="Trazado_121086" data-name="Trazado 121086" d="M46.605,39.735v5.911a3.085,3.085,0,0,0,3.085,3.085h0a3.085,3.085,0,0,0,3.085-3.085v-.066a1.508,1.508,0,0,1,1.508-1.508h0a1.508,1.508,0,0,1,1.508,1.508v6.18a2.733,2.733,0,0,0,2.733,2.733h0a2.733,2.733,0,0,0,2.733-2.733V35.748Z" fill="#c4c8f7"/>
      </g>
      <path id="Trazado_121087" data-name="Trazado 121087" d="M66.361,33.693A13.531,13.531,0,0,0,56.036,20.566a15.561,15.561,0,0,0-.105-10.45A15.618,15.618,0,0,0,49.84,2.5a1.26,1.26,0,1,0-1.374,2.112,13.1,13.1,0,0,1,4.326,4.682H47.763a3.014,3.014,0,0,0-3.011,3.011v.583a.737.737,0,0,1-1.475,0v-3a3.141,3.141,0,1,0-6.282,0v6.777a.491.491,0,1,1-.983,0V12.305A3.014,3.014,0,0,0,33,9.294h-3A12.986,12.986,0,0,1,43.973,2.775a1.26,1.26,0,0,0,.5-2.469A15.493,15.493,0,0,0,27.158,21.578a13.534,13.534,0,0,0-6.742,7.509,1.26,1.26,0,1,0,2.369.859A10.992,10.992,0,0,1,41.426,26.5a13.453,13.453,0,0,0,0,14.39,10.989,10.989,0,0,1-19.273-6.453,1.26,1.26,0,1,0-2.514.167,13.539,13.539,0,0,0,8.491,11.642c.007.027.014.053.023.08L41.378,85.146a1.26,1.26,0,0,0,2.385,0L54.719,52.97a3.992,3.992,0,0,0,7.8-1.209V43.128A13.566,13.566,0,0,0,66.361,33.693ZM33.122,20.183a13.429,13.429,0,0,0-3.608.494,12.994,12.994,0,0,1-.552-8.863H33a.492.492,0,0,1,.491.491v4.364a3.011,3.011,0,1,0,6.022,0V9.893a.622.622,0,1,1,1.243,0v3a3.257,3.257,0,1,0,6.514,0v-.583a.492.492,0,0,1,.491-.491h6.074a13.008,13.008,0,0,1-.353,8.386c-.21-.01-.421-.016-.634-.016a13.472,13.472,0,0,0-9.859,4.288A13.573,13.573,0,0,0,33.122,20.183ZM42.99,42.917a13.45,13.45,0,0,0,2.356,2.007v.722a4.344,4.344,0,0,0,8.412,1.525c.094-.006.187-.013.281-.021l-1.816,5.333L37.861,46.337A13.59,13.59,0,0,0,42.99,42.917ZM33.122,47.2c.116,0,.231,0,.347-.005l17.94,7.677-1.8,5.28-8.52-3.587a1.26,1.26,0,0,0-.978,2.322L48.8,62.546l-1.838,5.4L36.711,63.63l-2.454-7.205.96.4a1.26,1.26,0,0,0,.978-2.322l-3.025-1.273-2.108-6.191A13.467,13.467,0,0,0,33.122,47.2ZM44.306,75.734l-4.053-1.707L37.8,66.822l8.345,3.514Zm-1.736,5.1-1.231-3.614,2.152.906ZM61.256,34.489A1.26,1.26,0,0,0,60,35.748V51.761a1.473,1.473,0,1,1-2.946,0v-6.18a2.768,2.768,0,0,0-5.536,0v.066a1.825,1.825,0,0,1-3.65,0V39.735a1.26,1.26,0,0,0-2.52,0v1.98a10.989,10.989,0,1,1,18.5-8.023,10.911,10.911,0,0,1-1.326,5.245v-3.19A1.259,1.259,0,0,0,61.256,34.489Z"/>
      <path id="Trazado_121088" data-name="Trazado 121088" d="M57.09,28.343h-.229a1.26,1.26,0,0,0,0,2.52h.229a1.26,1.26,0,0,0,0-2.52Z"/>
      <path id="Trazado_121089" data-name="Trazado 121089" d="M59.608,31.933h-.229a1.26,1.26,0,0,0,0,2.52h.229a1.26,1.26,0,0,0,0-2.52Z"/>
      <path id="Trazado_121090" data-name="Trazado 121090" d="M29.577,40.8a1.26,1.26,0,0,0,0-2.52h-.229a1.26,1.26,0,0,0,0,2.52Z"/>
    </g>
  </g>
</svg>
