<svg xmlns="http://www.w3.org/2000/svg" xmlns:xlink="http://www.w3.org/1999/xlink" width="85" height="85" viewBox="0 0 85 85"><defs><clipPath id="a"><rect width="55" height="55" transform="translate(195 6554)" fill="#26d19e"/></clipPath></defs><g transform="translate(-180 -9520)"><g transform="translate(0 2981)"><rect width="85" height="85" transform="translate(180 6539)" fill="#fff"/><g clip-path="url(#a)"><g transform="translate(194.113 6553.113)"><path d="M49.677,3.548V16.855l-.035.035-6.174,6.174H39.032a4.444,4.444,0,0,0-3.548,1.774H23.065v21.29H42.581v3.548H19.516V23.065a8.874,8.874,0,0,0-8.871-8.871V11.381a1.746,1.746,0,0,1,.16-.736h6.937a1.779,1.779,0,0,0,1.774-1.774V1.934a1.746,1.746,0,0,1,.736-.16H47.9a1.779,1.779,0,0,1,1.774,1.774Z" fill="#e6e9ed"/><path d="M40.141,39.742a4.834,4.834,0,0,1-1.073-1.18,5,5,0,0,1-.71-1.508h-.009L34.6,40.806l-.887.355-3.282,1.313a1.492,1.492,0,0,1-2.014-1.668,1.517,1.517,0,0,1,.08-.266l1.668-4.169.887-.887,5.323-5.323A1.779,1.779,0,0,1,34.6,28.387V27.5a4.383,4.383,0,0,1,.887-2.661H23.065v21.29H42.581V41.694Z" fill="#ffeaa7"/><path d="M23.065,5.323H46.129V8.871H23.065Z" fill="#ff826e"/><path d="M19.516,1.934V8.871a1.779,1.779,0,0,1-1.774,1.774H10.8a1.789,1.789,0,0,1,.364-.523L18.993,2.3A1.789,1.789,0,0,1,19.516,1.934Z" fill="#b4dd7f"/><path d="M38.145,28.387v7.2a5.037,5.037,0,0,0,.213,1.464h-.009L34.6,40.806l-4.435-4.435.887-.887,5.323-5.323a1.787,1.787,0,0,0,1.774-1.774Z" fill="#ff826e"/><path d="M49.677,16.855a3.137,3.137,0,0,1,4.4,4.471L48.9,26.506l-7.2,7.2V29.274a2.655,2.655,0,0,0-.781-1.881,2.713,2.713,0,0,0-1.109-.665l3.664-3.664,6.174-6.174Z" fill="#ff826e"/><path d="M34.6,40.806l-.887.355-3.282,1.313a1.492,1.492,0,0,1-2.014-1.668,1.517,1.517,0,0,1,.08-.266l1.668-4.169Z" fill="#aab2bd"/><path d="M52.339,39.032l1.774,10.645H42.581V41.694Z" fill="#b4dd7f"/><path d="M37.622,29.638a1.735,1.735,0,0,1-1.251.523A1.779,1.779,0,0,1,34.6,28.387V27.5a4.383,4.383,0,0,1,.887-2.661,4.444,4.444,0,0,1,3.548-1.774h4.435L39.8,26.728a2.752,2.752,0,0,0-.772-.115.89.89,0,0,0-.887.887v.887A1.735,1.735,0,0,1,37.622,29.638Z" fill="#f0d0b4"/><path d="M49.367,27.367a24.389,24.389,0,0,1,2.972,11.665l-9.758,2.661-2.44-1.952a4.834,4.834,0,0,1-1.073-1.18,5.344,5.344,0,0,1-.923-2.972V27.5a.89.89,0,0,1,.887-.887,2.752,2.752,0,0,1,.772.115,2.713,2.713,0,0,1,1.109.665,2.655,2.655,0,0,1,.781,1.881V33.71l7.2-7.2Z" fill="#f0d0b4"/><path d="M19.516,23.065V51.452A3.547,3.547,0,0,1,15.968,55H5.323a3.547,3.547,0,0,1-3.548-3.548V23.065a8.863,8.863,0,0,0,3.548,7.1v6.21a.89.89,0,0,0,.887.887h8.871a.89.89,0,0,0,.887-.887v-6.21A8.863,8.863,0,0,0,19.516,23.065Z" fill="#969faa"/><path d="M15.15,51.421H6.232a.887.887,0,0,1-.887-.887V41.7a.887.887,0,0,1,.887-.887h8.917a.887.887,0,0,1,.887.887v8.835A.886.886,0,0,1,15.15,51.421Z" fill="#ff826e"/><path d="M15.968,30.161v6.21a.89.89,0,0,1-.887.887H6.21a.89.89,0,0,1-.887-.887v-6.21a8.871,8.871,0,0,0,10.645,0Z" fill="#69d6f4"/><path d="M19.516,23.065a8.871,8.871,0,1,1-8.871-8.871A8.863,8.863,0,0,1,19.516,23.065Z" fill="#fcd770"/><path d="M50.144,26.946l-.153-.28,4.718-4.718a4.007,4.007,0,0,0-4.145-6.637V3.548A2.665,2.665,0,0,0,47.9.887H20.252a2.645,2.645,0,0,0-1.882.78L10.538,9.5a2.642,2.642,0,0,0-.78,1.882v1.971A9.767,9.767,0,0,0,.887,23.065V51.452a4.441,4.441,0,0,0,4.435,4.435H15.968A4.441,4.441,0,0,0,20.4,51.452v-.887H55.161L53.223,38.94A25.318,25.318,0,0,0,50.144,26.946ZM51.43,38.361,42.782,40.72,40.7,39.051a4.418,4.418,0,0,1-1.664-3.464V27.5a1.776,1.776,0,0,1,1.774,1.774v6.21h1.774V34.077l6.1-6.1A23.521,23.521,0,0,1,51.43,38.361Zm-12.4-12.635A1.776,1.776,0,0,0,37.258,27.5v.887a.887.887,0,0,1-1.774,0V27.5a3.552,3.552,0,0,1,3.548-3.548h2.294L39.5,25.774a3.457,3.457,0,0,0-.472-.048ZM29.318,40.87l1.167-2.92,2.533,2.533L30.1,41.651a.614.614,0,0,1-.822-.558A.579.579,0,0,1,29.318,40.87ZM34.6,39.552l-3.181-3.181,5.364-5.364a2.589,2.589,0,0,0,.478-.122v4.7a6.24,6.24,0,0,0,.121,1.183Zm-.724-10.278H23.952V25.726H34.02a5.3,5.3,0,0,0-.31,1.774v.887A2.631,2.631,0,0,0,33.873,29.274Zm-9.921,1.774H34.23L30.681,34.6h-6.73Zm0,5.323h5.254l-1.419,3.548H23.952Zm0,5.323h3.635a2.366,2.366,0,0,0,3.17,1.6l2.065-.827v2.77H23.952Zm10.645.068.5-.2,2.954-2.954c.032.058.061.116.1.173v6.461H34.6ZM39.919,40.7l1.774,1.419v3.123H39.919ZM54.113,19.1a2.235,2.235,0,0,1-.659,1.591L42.581,31.568V29.274a3.527,3.527,0,0,0-1.325-2.743l9.017-9.017a2.249,2.249,0,0,1,3.84,1.591ZM18.629,3.916V8.871a.889.889,0,0,1-.887.887H12.787ZM10.645,15.081a7.984,7.984,0,1,1-7.984,7.984,7.994,7.994,0,0,1,7.984-7.984ZM6.21,31.746a9.673,9.673,0,0,0,8.871,0v4.625H6.21Zm9.758,22.367H5.323a2.665,2.665,0,0,1-2.661-2.661V28.658a9.849,9.849,0,0,0,1.774,1.929v5.785A1.776,1.776,0,0,0,6.21,38.145h8.871a1.776,1.776,0,0,0,1.774-1.774V30.586a9.849,9.849,0,0,0,1.774-1.929V51.452A2.665,2.665,0,0,1,15.968,54.113ZM20.4,48.79V23.065a9.767,9.767,0,0,0-8.871-9.713V11.532h6.21A2.665,2.665,0,0,0,20.4,8.871V2.661H47.9a.889.889,0,0,1,.887.887V16.488l-5.69,5.69H39.032a5.307,5.307,0,0,0-3.956,1.774h-12.9V47.016H41.694V48.79Zm23.065,0V42.371l8.157-2.225,1.441,8.644Z"/><path d="M9.758,27.371v1.9h1.774v-1.9a2.523,2.523,0,0,0,.374-4.668l-1.73-.864a.758.758,0,0,1,.339-1.436h.259a.758.758,0,0,1,.758.758v1.017h1.774V21.161a2.527,2.527,0,0,0-1.774-2.4v-1.9H9.758v1.9a2.523,2.523,0,0,0-.374,4.668l1.73.864a.758.758,0,0,1-.339,1.436h-.259a.758.758,0,0,1-.758-.758V23.952H7.984v1.017A2.527,2.527,0,0,0,9.758,27.371Z"/><path d="M15.081,39.919H6.21a1.776,1.776,0,0,0-1.774,1.774v8.871A1.776,1.776,0,0,0,6.21,52.339h8.871a1.776,1.776,0,0,0,1.774-1.774V41.694A1.776,1.776,0,0,0,15.081,39.919Zm0,3.548H13.306V41.694h1.774Zm-3.548,7.1H9.758V48.79h1.774Zm0-3.548H9.758V45.242h1.774Zm-3.548,0H6.21V45.242H7.984Zm1.774-3.548V41.694h1.774v1.774ZM7.984,41.694v1.774H6.21V41.694ZM6.21,48.79H7.984v1.774H6.21Zm7.1,1.774V45.242h1.775v5.323Z"/><path d="M47.016,4.435H22.177V9.758H47.016ZM45.242,7.984H23.952V6.21h21.29Z"/><path d="M22.177,11.532H47.016v1.774H22.177Z"/><path d="M22.177,15.081H47.016v1.774H22.177Z"/><path d="M22.177,18.629H36.371V20.4H22.177Z"/></g></g></g></g></svg>