<svg xmlns="http://www.w3.org/2000/svg" xmlns:xlink="http://www.w3.org/1999/xlink" width="85" height="85" viewBox="0 0 85 85"><defs><clipPath id="a"><rect width="67" height="67" transform="translate(189 4864.662)" fill="#ffd41c"/></clipPath></defs><g transform="translate(-180 -10152.338)"><rect width="85" height="85" transform="translate(180 10152.338)" fill="#8d6af2"/><g transform="translate(0 5296.338)" clip-path="url(#a)"><g transform="translate(187.919 4863.582)"><path d="M19.225,10.353l.227.454H15.129L12.968,6.484a3.9,3.9,0,0,1,3.5-2.161h.951a18.259,18.259,0,0,0,1.8,6.03Z" fill="#cf9e76"/><path d="M25.935,4.323a10.757,10.757,0,0,1-1.794,5.944l-.367.54H19.452l-.227-.454a18.259,18.259,0,0,1-1.8-6.03,17.989,17.989,0,0,1-.13-2.161,18.19,18.19,0,0,1,6.754,1.081A5.991,5.991,0,0,1,25.935,4.323Z" fill="#d3a06c"/><path d="M23.774,10.806v4.323H15.129V10.806h8.645Z" fill="#e6e9ed"/><path d="M36.375,34.948a21.044,21.044,0,0,1,.367,3.955,17.236,17.236,0,0,1-1.254,6.484H28.1v8.645H11.077A17.291,17.291,0,0,1,2.161,38.9,21.5,21.5,0,0,1,6.884,25.428l8.245-10.3h8.645l8.245,10.3a21.694,21.694,0,0,1,3.512,6.333A20.371,20.371,0,0,1,36.375,34.948Z" fill="#cf9e76"/><path d="M58.355,23.774H67V64.839H58.355Z" fill="#b4dd7f"/><path d="M51.871,36.742v28.1H41.065l5.522-2.756a1.757,1.757,0,0,0,0-3.134l-3.361-1.675V36.742Z" fill="#b4dd7f"/><path d="M36.742,45.387v8.645H28.1V45.387h8.645Z" fill="#b4dd7f"/><path d="M10.806,54.032V67H6.484a4.321,4.321,0,0,1-4.323-4.323V58.355a4.321,4.321,0,0,1,4.323-4.323Z" fill="#aab2bd"/><path d="M46.587,58.949a1.757,1.757,0,0,1,0,3.134l-5.522,2.756L36.742,67V54.032l6.484,3.242Z" fill="#aab2bd"/><path d="M15.129,60.516H36.742V67H15.129Z" fill="#69d6f4"/><path d="M36.742,54.032v6.484H15.129V54.032H36.742Z" fill="#ff826e"/><path d="M11.077,54.032h4.052V67H10.806V54.032Z" fill="#ffeaa7"/><path d="M20.532,24.964v-2.27H18.371v2.161H14.048v5.4a5.409,5.409,0,0,0,5.4,5.4A3.246,3.246,0,0,1,22.694,38.9v3.242H19.452A3.246,3.246,0,0,1,16.21,38.9V35.661H14.048V38.9A5.413,5.413,0,0,0,18.371,44.2v2.27h2.161V44.306h4.323V38.9a5.409,5.409,0,0,0-5.4-5.4,3.246,3.246,0,0,1-3.242-3.242V27.016h3.242a3.246,3.246,0,0,1,3.242,3.242V33.5h2.161V30.258a5.413,5.413,0,0,0-4.323-5.294Z"/><path d="M68.081,22.694H57.274V63.758H52.952v-28.1H42.145V55.526l-4.323-2.161V44.306h-.816a18.3,18.3,0,0,0,.816-5.4,22.411,22.411,0,0,0-.257-3.277A35.583,35.583,0,0,0,59.394,12.184l-2.079-.594A33.4,33.4,0,0,1,37.149,33.478a22.7,22.7,0,0,0-4.289-8.722L24.855,14.75V11.134l.182-.272a11.756,11.756,0,0,0,1.98-6.539V3.875L26.7,3.559c-.253-.254-2.672-2.478-9.409-2.478H16.21V2.161c0,.365.011.732.032,1.1A4.954,4.954,0,0,0,12,6l-.242.484,2.289,4.578V14.75L6.043,24.756A22.726,22.726,0,0,0,1.081,38.9,18.388,18.388,0,0,0,7.619,52.952H6.484a5.409,5.409,0,0,0-5.4,5.4v4.323a5.409,5.409,0,0,0,5.4,5.4H37l4.323-2.161H68.081ZM46.1,59.919a.668.668,0,0,1,0,1.2l-8.276,4.138V55.781Zm-32.05-4.806V65.919H11.887V55.113Zm21.613-8.645v6.484H29.177V46.468Zm0,8.645v4.323H16.21V55.113ZM16.21,61.6H35.661v4.323H16.21ZM24.841,4.848a9.608,9.608,0,0,1-1.6,4.814l-.042.064H20.129a17.3,17.3,0,0,1-1.721-6.461C22.192,3.428,24.126,4.392,24.841,4.848Zm-2.147,7.039v2.161H16.21V11.887ZM16.465,5.4h.023A19.524,19.524,0,0,0,17.75,9.726H15.8L14.2,6.534A2.814,2.814,0,0,1,16.465,5.4ZM3.242,38.9a20.563,20.563,0,0,1,4.489-12.8l7.918-9.9h7.606l7.918,9.9A20.541,20.541,0,0,1,35.1,34.193a32.684,32.684,0,0,1-6.83,1.355l-1.342.117.188,2.153,1.342-.117a34.809,34.809,0,0,0,7.026-1.372,20.5,20.5,0,0,1,.182,2.575,16.138,16.138,0,0,1-.941,5.4h-7.7v8.645H11.373A16.227,16.227,0,0,1,3.242,38.9Zm0,23.774V58.355a3.246,3.246,0,0,1,3.242-3.242H9.726V65.919H6.484A3.246,3.246,0,0,1,3.242,62.677Zm43.823.37a2.83,2.83,0,0,0,0-5.062l-2.759-1.379V37.823H50.79V63.758H45.642Zm18.854.711H59.435v-38.9h6.484Z"/><path d="M37.823,3.242h6.484V5.4H37.823Z"/><path d="M46.468,3.242H57.274V5.4H46.468Z"/><path d="M37.823,7.565H57.274V9.726H37.823Z"/><path d="M37.823,11.887H48.629v2.161H37.823Z"/><path d="M37.823,16.21h2.161v2.161H37.823Z"/><path d="M42.145,16.21h2.161v2.161H42.145Z"/><path d="M46.468,16.21h2.161v2.161H46.468Z"/></g></g></g></svg>