<svg xmlns="http://www.w3.org/2000/svg" xmlns:xlink="http://www.w3.org/1999/xlink" width="85" height="85" viewBox="0 0 85 85"><defs><clipPath id="a"><rect width="67" height="67" transform="translate(189 4864.662)" fill="#ffd41c"/></clipPath></defs><g transform="translate(-495 -10152.338)"><rect width="85" height="85" transform="translate(495 10152.338)" fill="#8d6af2"/><g transform="translate(315 5296.338)" clip-path="url(#a)"><g transform="translate(186.208 4862.429)"><circle cx="4.467" cy="4.467" r="4.467" transform="translate(17.867 15.633)" fill="#dbdbdb"/><path d="M30.732,23.122a1.145,1.145,0,0,1,1.066-.788h1.7V17.867H31.8a1.145,1.145,0,0,1-1.066-.788q-.144-.4-.323-.781a1.146,1.146,0,0,1,.2-1.312l1.2-1.2-3.158-3.158-1.2,1.2a1.147,1.147,0,0,1-1.312.2c-.253-.119-.515-.228-.781-.323a1.147,1.147,0,0,1-.789-1.068v-1.7H20.1v1.7a1.145,1.145,0,0,1-.788,1.066q-.4.144-.781.323a1.146,1.146,0,0,1-1.312-.2l-1.2-1.2-3.158,3.158,1.2,1.2a1.147,1.147,0,0,1,.2,1.312c-.119.253-.228.515-.323.781a1.147,1.147,0,0,1-1.068.789h-1.7v4.467h1.7a1.145,1.145,0,0,1,1.066.788q.144.4.323.781a1.146,1.146,0,0,1-.2,1.312l-1.2,1.2,3.158,3.158,1.2-1.2a1.147,1.147,0,0,1,1.312-.2c.253.119.515.228.781.323a1.147,1.147,0,0,1,.789,1.068v1.7h4.467v-1.7a1.145,1.145,0,0,1,.788-1.066q.4-.144.781-.323a1.146,1.146,0,0,1,1.312.2l1.2,1.2,3.158-3.158-1.2-1.2a1.147,1.147,0,0,1-.2-1.312c.121-.256.228-.516.324-.782Zm-8.4,1.445A4.467,4.467,0,1,1,26.8,20.1,4.467,4.467,0,0,1,22.333,24.567Z" fill="#999"/><circle cx="10.05" cy="10.05" r="10.05" transform="translate(48.017 48.017)" fill="#ffe990"/><path d="M61.417,27.917h3.35l-6.7-7.817-6.7,7.817h3.35V42.433h6.7Z" fill="#ff8088"/><path d="M30.15,68.117H5.583A1.117,1.117,0,0,1,4.467,67V63.65a1.117,1.117,0,0,1,1.117-1.117H30.15a1.117,1.117,0,0,1,1.117,1.117V67A1.117,1.117,0,0,1,30.15,68.117Z" fill="#ffe990"/><path d="M32.383,62.533H7.817A1.117,1.117,0,0,1,6.7,61.417v-3.35A1.117,1.117,0,0,1,7.817,56.95H32.383A1.117,1.117,0,0,1,33.5,58.067v3.35A1.117,1.117,0,0,1,32.383,62.533Z" fill="#edd986"/><path d="M30.15,56.95H5.583a1.117,1.117,0,0,1-1.117-1.117v-3.35a1.117,1.117,0,0,1,1.117-1.117H30.15a1.117,1.117,0,0,1,1.117,1.117v3.35A1.117,1.117,0,0,1,30.15,56.95Z" fill="#ffe990"/><path d="M32.383,51.367H7.817A1.117,1.117,0,0,1,6.7,50.25V46.9a1.117,1.117,0,0,1,1.117-1.117H32.383A1.117,1.117,0,0,1,33.5,46.9v3.35A1.117,1.117,0,0,1,32.383,51.367Z" fill="#edd986"/><path d="M37.967,45.783H13.4a1.117,1.117,0,0,1-1.117-1.117v-3.35A1.117,1.117,0,0,1,13.4,40.2H37.967a1.117,1.117,0,0,1,1.117,1.117v3.35A1.117,1.117,0,0,1,37.967,45.783Z" fill="#ffe990"/><path d="M34.617,58.067a2.236,2.236,0,0,0-2.233-2.233v-3.35a2.236,2.236,0,0,0,2.233-2.233V46.9h3.35A2.236,2.236,0,0,0,40.2,44.667v-3.35a2.236,2.236,0,0,0-2.233-2.233H13.4a2.236,2.236,0,0,0-2.233,2.233v3.35H7.817A2.236,2.236,0,0,0,5.583,46.9v3.35A2.236,2.236,0,0,0,3.35,52.483v3.35a2.236,2.236,0,0,0,2.233,2.233v3.35A2.236,2.236,0,0,0,3.35,63.65V67a2.236,2.236,0,0,0,2.233,2.233H30.15A2.236,2.236,0,0,0,32.383,67V63.65a2.236,2.236,0,0,0,2.233-2.233Zm1.117-16.75h2.233l0,3.35H35.733ZM30.15,50.25V46.9h2.233l0,3.35Zm-8.933,7.817h6.7v3.35h-6.7Zm-2.233-2.233v-3.35h6.7v3.35Zm2.233-5.583V46.9h6.7v3.35Zm6.7,2.233H30.15l0,3.35H27.917ZM26.8,41.317h6.7v3.35H26.8Zm-8.933,0h6.7v3.35h-6.7Zm-4.467,0h2.233v3.35H13.4ZM12.283,46.9h6.7v3.35h-6.7Zm4.467,5.583v3.35h-6.7v-3.35Zm2.233,5.583v3.35h-6.7v-3.35ZM7.817,46.9H10.05v3.35H7.817ZM5.583,52.483H7.817v3.35H5.583ZM7.817,67H5.583V63.65H7.817Zm0-8.933H10.05v3.35H7.817ZM16.75,67h-6.7V63.65h6.7Zm8.933,0h-6.7V63.65h6.7Zm2.233,0V63.65H30.15l0,3.35Zm2.233-5.583v-3.35h2.233l0,3.35Z"/><path d="M22.333,25.683A5.583,5.583,0,1,0,16.75,20.1,5.59,5.59,0,0,0,22.333,25.683Zm0-8.933a3.35,3.35,0,1,1-3.35,3.35A3.354,3.354,0,0,1,22.333,16.75Z"/><path d="M11.167,16.75a1.116,1.116,0,0,0-1.117,1.117v4.467a1.116,1.116,0,0,0,1.117,1.117l1.716.045a9.578,9.578,0,0,0,.389.93l-1.2,1.2a1.115,1.115,0,0,0,0,1.579l3.158,3.158a1.115,1.115,0,0,0,1.579,0l1.248-1.18a9.643,9.643,0,0,0,.929.38v1.7A1.116,1.116,0,0,0,20.1,32.383h4.467a1.116,1.116,0,0,0,1.117-1.117l.045-1.716a9.579,9.579,0,0,0,.93-.389l1.2,1.2a1.115,1.115,0,0,0,1.579,0L32.6,27.206a1.115,1.115,0,0,0,0-1.579l-1.18-1.248a9.643,9.643,0,0,0,.38-.929h1.7a1.116,1.116,0,0,0,1.117-1.117V17.867A1.116,1.116,0,0,0,33.5,16.75l-1.716-.045a9.579,9.579,0,0,0-.389-.93l1.2-1.2a1.115,1.115,0,0,0,0-1.579L29.44,9.836a1.115,1.115,0,0,0-1.579,0l-1.248,1.18a9.361,9.361,0,0,0-.929-.381v-1.7a1.116,1.116,0,0,0-1.117-1.117H20.1a1.116,1.116,0,0,0-1.117,1.117l-.045,1.716a9.579,9.579,0,0,0-.93.389l-1.2-1.2a1.115,1.115,0,0,0-1.579,0l-3.158,3.158a1.115,1.115,0,0,0,0,1.579l1.18,1.248a9.644,9.644,0,0,0-.38.929ZM14.851,14.2l-.413-.413L16.016,12.2l.413.413a2.248,2.248,0,0,0,2.578.418,7.3,7.3,0,0,1,.683-.283,2.247,2.247,0,0,0,1.525-2.117V10.05H23.45v.585a2.247,2.247,0,0,0,1.53,2.118,6.966,6.966,0,0,1,.68.281,2.25,2.25,0,0,0,2.577-.419l.413-.413,1.579,1.579-.413.413a2.248,2.248,0,0,0-.418,2.578,7.3,7.3,0,0,1,.283.683A2.246,2.246,0,0,0,31.8,18.983h.585v2.233H31.8a2.247,2.247,0,0,0-2.118,1.53,6.965,6.965,0,0,1-.281.68A2.249,2.249,0,0,0,29.817,26l.413.413L28.651,28l-.413-.413a2.248,2.248,0,0,0-2.578-.418,7.3,7.3,0,0,1-.683.283,2.246,2.246,0,0,0-1.526,2.117v.585H21.217v-.585a2.247,2.247,0,0,0-1.53-2.118,6.965,6.965,0,0,1-.68-.281,2.254,2.254,0,0,0-2.577.419L16.016,28l-1.579-1.579L14.851,26a2.248,2.248,0,0,0,.418-2.578,7.3,7.3,0,0,1-.283-.683,2.246,2.246,0,0,0-2.117-1.526h-.585V18.983h.585a2.247,2.247,0,0,0,2.118-1.53,6.965,6.965,0,0,1,.281-.68,2.248,2.248,0,0,0-.418-2.577Z"/><path d="M39.153,8.545l-1.12,3.019A17.869,17.869,0,0,0,4.467,20.1H6.7a15.636,15.636,0,0,1,30.378-5.211,1.116,1.116,0,0,0,1.044.745h.009a1.118,1.118,0,0,0,1.047-.728l2.07-5.583Z"/><path d="M6.185,23.45h-.01a1.116,1.116,0,0,0-1.072.84l-1.719,6.7,2.164.554L6.406,28.2A17.869,17.869,0,0,0,40.2,20.1H37.967a15.636,15.636,0,0,1-30.7,4.17,1.117,1.117,0,0,0-1.076-.82Z"/><path d="M58.067,54.717a1.117,1.117,0,0,1,1.117,1.117h2.233a3.345,3.345,0,0,0-2.233-3.145V51.367H56.95v1.322a3.342,3.342,0,0,0,1.117,6.495A1.117,1.117,0,1,1,56.95,60.3H54.717a3.345,3.345,0,0,0,2.233,3.145v1.322h2.233V63.445a3.342,3.342,0,0,0-1.117-6.495,1.117,1.117,0,0,1,0-2.233Z"/><path d="M58.067,46.9A11.167,11.167,0,1,0,69.233,58.067,11.179,11.179,0,0,0,58.067,46.9Zm0,20.1A8.933,8.933,0,1,1,67,58.067,8.944,8.944,0,0,1,58.067,67Z"/><path d="M54.717,43.55h6.7a1.116,1.116,0,0,0,1.117-1.117v-13.4h2.233a1.116,1.116,0,0,0,.848-1.843l-6.7-7.817a1.154,1.154,0,0,0-1.7,0l-6.7,7.817a1.116,1.116,0,0,0,.848,1.843H53.6v13.4a1.116,1.116,0,0,0,1.117,1.117Zm3.35-21.735L62.339,26.8h-.922A1.116,1.116,0,0,0,60.3,27.917v13.4H55.833v-13.4A1.116,1.116,0,0,0,54.717,26.8h-.922Z"/></g></g></g></svg>