<svg xmlns="http://www.w3.org/2000/svg" xmlns:xlink="http://www.w3.org/1999/xlink" width="85" height="85" viewBox="0 0 85 85"><defs><clipPath id="a"><rect width="67" height="67" transform="translate(189 4864.662)" fill="#ffd41c"/></clipPath></defs><g transform="translate(-495 -10037.338)"><rect width="85" height="85" transform="translate(495 10037.338)" fill="#8d6af2"/><g transform="translate(315 5181.338)" clip-path="url(#a)"><g transform="translate(189.001 4864.664)"><circle cx="15.703" cy="15.703" r="15.703" transform="translate(17.796 1.047)" fill="#febd55"/><circle cx="13.609" cy="13.609" r="13.609" transform="translate(19.89 3.141)" fill="#fc9e20"/><circle cx="12.562" cy="12.562" r="12.562" transform="translate(20.937 4.187)" fill="#ffe08c"/><path d="M65.952,46.061v19.89H53.389Z" fill="#febd55"/><path d="M57.242,46.773l2.429-3.852,6.281,3.141L53.389,65.952l-6.281-3.141,2.031-3.2Z" fill="#edf4fa"/><path d="M14.227,30.976a2.047,2.047,0,0,1,1.476-.618,7.192,7.192,0,0,1,3.863,1.12l9.746,6.208H24.6a3.574,3.574,0,0,0-2.083.66l-8.731-5.894c-.052-.042-.115-.073-.167-.115a2.027,2.027,0,0,1,.607-1.361Z" fill="#feb589"/><path d="M23.031,45.015s-9.369-7.5-13.64-10.908a8.263,8.263,0,0,0-1.015-.691v-.2a1.878,1.878,0,0,1,1.947-1.811h.147a5.7,5.7,0,0,1,3.151.932c.052.042.115.073.167.115l8.731,5.894a3.807,3.807,0,0,0-.5.419,3.622,3.622,0,0,0-1.078,2.586A3.664,3.664,0,0,0,24.6,45.015Z" fill="#feb589"/><path d="M9.39,34.106c4.271,3.413,13.64,10.908,13.64,10.908H24.6a3.664,3.664,0,0,1-3.664-3.664,3.622,3.622,0,0,1,1.078-2.586,3.808,3.808,0,0,1,.5-.419,3.574,3.574,0,0,1,2.083-.66H43.968a10.145,10.145,0,0,1,7.15,2.963l6.124,6.124-8.1,12.834-.984-.984H30.034a13.132,13.132,0,0,1-8.616-3.214L2.23,38.765a3.64,3.64,0,0,1-1.183-2.68v-.094a3.534,3.534,0,0,1,3.538-3.538h.073a7.591,7.591,0,0,1,3.716.963,8.263,8.263,0,0,1,1.015.691Z" fill="#ffd6bd"/><path d="M40.827,41.874h-15.7a4.172,4.172,0,0,1-3.712-2.288,3.608,3.608,0,0,0-.475,1.765A3.664,3.664,0,0,0,24.6,45.015H43.968A3.141,3.141,0,0,0,40.827,41.874Z" fill="#fec09b"/><path d="M54.669,44.2l-2.811,4.419a12.562,12.562,0,0,1-10.6,5.817H28.37a6.274,6.274,0,0,1-3.915-1.37L4.866,37.449a4.187,4.187,0,0,1-1.385-4.8,3.522,3.522,0,0,0-2.434,3.346v.094a3.64,3.64,0,0,0,1.183,2.68L21.419,55.41a13.132,13.132,0,0,0,8.616,3.214H48.155l.984.984,8.1-12.834Z" fill="#fec09b"/><path d="M20.937,41.351a3.622,3.622,0,0,1,1.078-2.586,3.808,3.808,0,0,1,.5-.419l-.761-.514a4.181,4.181,0,0,1-4.7.144l-7.58-4.824a1.028,1.028,0,0,1-.338-1.367,1.76,1.76,0,0,0-.763,1.431v.2a8.263,8.263,0,0,1,1.015.691c4.271,3.413,13.64,10.908,13.64,10.908H24.6a3.664,3.664,0,0,1-3.664-3.664Z" fill="#eda377"/><path d="M24.712,36.64a6.281,6.281,0,0,1-3.141-.837l-5.367-3.1A2.08,2.08,0,0,1,15.1,30.463a2.075,2.075,0,0,0-1.477,1.884c.052.042.115.073.167.115l8.731,5.894a3.574,3.574,0,0,1,2.083-.67h4.711L27.668,36.64Z" fill="#eda377"/><path d="M63.278,60.717a2.094,2.094,0,0,1-1.817-3.132l4.491-7.86V46.061L53.389,65.952H65.952V60.717Z" fill="#fc9e20"/><path d="M62.834,44.5,54.261,57.752a4.178,4.178,0,0,1-4.982,1.634l-.14.222-2.031,3.2,6.281,3.141,12.562-19.89Z" fill="#d6e0eb"/><path d="M33.5,33.5h.176A16.75,16.75,0,1,0,18.144,10.05l1.919.837A14.658,14.658,0,1,1,33.652,31.406H33.5A14.656,14.656,0,0,1,18.843,16.9l-2.094.022A16.768,16.768,0,0,0,33.5,33.5Z"/><path d="M19.367,12.841l-2.018-.556a16.682,16.682,0,0,0-.454,2.233l2.075.275a14.736,14.736,0,0,1,.4-1.952Z"/><path d="M32.452,6.281V8.375h-.523a4.711,4.711,0,0,0,0,9.422h3.141a2.617,2.617,0,0,1,0,5.234H29.312v2.094h3.141v2.094h2.094V25.124h.523a4.711,4.711,0,1,0,0-9.422H31.929a2.617,2.617,0,0,1,0-5.234h5.758V8.375H34.546V6.281Z"/><rect width="2.094" height="2.094" transform="translate(41.874 43.968)"/><path d="M66.42,45.124l-6.281-3.141a1.047,1.047,0,0,0-1.354.378l-9.84,15.575-.053-.053a1.047,1.047,0,0,0-.736-.307H30.034a12.091,12.091,0,0,1-7.93-2.957L2.937,37.992a2.647,2.647,0,0,1-.844-2A2.512,2.512,0,0,1,4.658,33.5a6.542,6.542,0,0,1,3.186.819,7.351,7.351,0,0,1,.893.606L22.376,45.832a1.047,1.047,0,0,0,.654.229H39.78V43.968H24.6a2.617,2.617,0,0,1-2.617-2.617,2.568,2.568,0,0,1,.77-1.845,2.763,2.763,0,0,1,.372-.308,2.512,2.512,0,0,1,1.475-.465H43.968a9.1,9.1,0,0,1,6.41,2.656l4.366,4.366,1.48-1.48-4.366-4.366a11.188,11.188,0,0,0-7.89-3.269H24.6a4.639,4.639,0,0,0-2.043.47l-7.734-5.216a1.183,1.183,0,0,1,.153-.186,1,1,0,0,1,.727-.3,6.145,6.145,0,0,1,3.3.956l6.609,4.21,1.124-1.766L20.128,30.6A8.233,8.233,0,0,0,15.7,29.312a3.078,3.078,0,0,0-2.217.924,3.167,3.167,0,0,0-.472.628,6.652,6.652,0,0,0-2.545-.506h-.147a3,3,0,0,0-2.669,1.59,8.917,8.917,0,0,0-3.067-.543A4.611,4.611,0,0,0,0,36.085a4.711,4.711,0,0,0,1.544,3.47L20.728,56.2a14.186,14.186,0,0,0,9.307,3.47H47.726l.081.081-1.58,2.5a1.047,1.047,0,0,0,.419,1.5l6.281,3.141a1.047,1.047,0,0,0,.463.11H65.952A1.047,1.047,0,0,0,67,65.952V46.061a1.047,1.047,0,0,0-.579-.937Zm-56.1-12.672h.147a4.681,4.681,0,0,1,2.559.749l.018.013.156.1,7.674,5.18a4.625,4.625,0,0,0-.985,2.667L10.05,33.29c-.166-.135-.341-.264-.533-.394L9.51,32.89A.921.921,0,0,1,10.322,32.452ZM53.01,64.591l-4.4-2.2L60.049,44.282l4.4,2.2ZM64.9,64.9H55.288L64.9,49.679Z"/></g></g></g></svg>