<svg xmlns="http://www.w3.org/2000/svg" xmlns:xlink="http://www.w3.org/1999/xlink" width="85" height="85" viewBox="0 0 85 85"><defs><clipPath id="a"><rect width="67" height="67" transform="translate(189 4864.662)" fill="#ffd41c"/></clipPath></defs><g transform="translate(-810 -10037.338)"><path d="M0,0H85V85H0Z" transform="translate(810 10037.338)" fill="#8d6af2"/><g transform="translate(630 5181.338)" clip-path="url(#a)"><g transform="translate(186.767 4862.429)"><path d="M3.35,13.4V5.583A2.233,2.233,0,0,1,5.583,3.35h40.2a2.233,2.233,0,0,1,2.233,2.233V13.4Z" fill="#ef5e3b"/><path d="M3.35,13.4H48.017V46.9a2.233,2.233,0,0,1-2.233,2.233H5.583A2.233,2.233,0,0,1,3.35,46.9Z" fill="#d1e4ff"/><path d="M22.333,17.867v6.7H8.933v20.1h13.4v-6.7h20.1v-20.1Z" fill="#548aff"/><path d="M16.75,53.6h8.933V68.117H16.75Z" fill="#f78e00"/><path d="M25.683,48.017h8.933v20.1H25.683Z" fill="#ffa100"/><path d="M34.617,42.433H43.55V68.117H34.617Z" fill="#ffc431"/><path d="M43.55,36.85h8.933V68.117H43.55Z" fill="#ffcc4d"/><path d="M52.483,30.15h8.933V68.117H52.483Z" fill="#ffd873"/><path d="M5.583,50.25h16.75V48.017H5.583A1.118,1.118,0,0,1,4.467,46.9V14.517H46.9V33.5h2.233V5.583a3.354,3.354,0,0,0-3.35-3.35H5.583a3.354,3.354,0,0,0-3.35,3.35V46.9a3.354,3.354,0,0,0,3.35,3.35Zm0-45.783h40.2A1.118,1.118,0,0,1,46.9,5.583v6.7H4.467v-6.7A1.118,1.118,0,0,1,5.583,4.467Z"/><circle cx="1.117" cy="1.117" r="1.117" transform="translate(5.583 5.583)"/><circle cx="1.117" cy="1.117" r="1.117" transform="translate(8.933 5.583)"/><circle cx="1.117" cy="1.117" r="1.117" transform="translate(12.283 5.583)"/><path d="M7.817,24.567v20.1a1.117,1.117,0,0,0,1.117,1.117h13.4a1.117,1.117,0,0,0,1.117-1.117V39.083H40.2V36.85H36.85V32.383h4.467V33.5H43.55V17.867a1.117,1.117,0,0,0-1.117-1.117h-20.1a1.117,1.117,0,0,0-1.117,1.117V23.45H8.933a1.117,1.117,0,0,0-1.117,1.117Zm8.933,1.117H34.617V30.15H16.75ZM21.217,36.85H16.75V32.383h4.467Zm-6.7,0H10.05V32.383h4.467ZM10.05,39.083h4.467V43.55H10.05ZM21.217,43.55H16.75V39.083h4.467ZM23.45,32.383H34.617V36.85H23.45Zm13.4-2.233V25.683h4.467V30.15Zm4.467-6.7H30.15V18.983H41.317ZM23.45,18.983h4.467V23.45H23.45Zm-13.4,6.7h4.467V30.15H10.05Z"/><path d="M11.167,18.983H13.4v2.233H11.167Z"/><path d="M16.75,18.983h2.233v2.233H16.75Z"/><path d="M26.8,41.317h2.233V43.55H26.8Z"/><path d="M8.933,67h2.233v2.233H8.933Z"/><path d="M67,67h2.233v2.233H67Z"/><path d="M61.417,29.033H52.483a1.117,1.117,0,0,0-1.117,1.117v5.583H43.55a1.117,1.117,0,0,0-1.117,1.117v4.467H34.617A1.117,1.117,0,0,0,33.5,42.433V46.9H25.683a1.117,1.117,0,0,0-1.117,1.117v4.467H16.75A1.117,1.117,0,0,0,15.633,53.6V67H13.4v2.233H64.767V67H62.533V30.15a1.117,1.117,0,0,0-1.117-1.117ZM17.867,54.717h6.7V67h-6.7ZM26.8,49.133h6.7V67H26.8Zm8.933-5.583h6.7V67h-6.7Zm8.933-5.583h6.7V67h-6.7ZM53.6,67V31.267h6.7V67Z"/></g></g></g></svg>