<svg xmlns="http://www.w3.org/2000/svg" xmlns:xlink="http://www.w3.org/1999/xlink" width="399.999" height="327.788" viewBox="0 0 399.999 327.788"><defs><clipPath id="a"><path d="M1769.356,1653.257s2.448,11.487,2.611,11.6,6.7.11,8.3-.934l-.44-11.927Z" transform="translate(-1769.356 -1651.993)" fill="#fe8e9c"/></clipPath><clipPath id="b"><path d="M1946.294,1668.4s3.085,12.4,3.248,12.509,6.7.11,8.3-.934l.261-11.949Z" transform="translate(-1946.294 -1668.024)" fill="#fe8e9c"/></clipPath><clipPath id="c"><path d="M1612.443,791.05s-6.817,26.093-8.121,27.021-20.441,27.382-19.167,28.417,8.918,4.046,11.466,3.583,18.3-21.44,19.689-22.649,5.408-36.177,5.408-36.177Z" transform="translate(-1585.095 -791.05)" fill="#764cf0"/></clipPath><clipPath id="d"><path d="M1698.357,1032.942s-17.563,39.9-19.055,44.692c-3.382,10.867,9.615,56.656,9.76,58.13s16.857,1.575,17.89,0-3.039-51.659-3.039-51.659,24.9-40.193,21.229-44.287C1720.238,1034.343,1698.357,1032.942,1698.357,1032.942Z" transform="translate(-1678.74 -1032.942)" fill="#1b3d9e"/></clipPath><clipPath id="e"><path d="M1867.369,1014.645s8.07,16.071,8.3,25.651,1.612,79.352,0,80.5-17.2,4.145-17.581,0-20.482-103.042-10.742-103.132A87.716,87.716,0,0,0,1867.369,1014.645Z" transform="translate(-1844.685 -1014.645)" fill="#1b3d9e"/></clipPath><clipPath id="f"><path d="M1723.332,535.076a1.219,1.219,0,0,0,.061-.211c.37-2.028,2.159-15.056-1.4-18.192s-15.954-1.082-14.871,5.143c0,0,2.451,7.818-.009,10.275s-5.123,4.348-3.1,4.718,3.769-1.215,4.507-.354.8,7.129,3.623,6.639a13.078,13.078,0,0,0,3.682-1.655c.472,3.587,1.118,8.266,1.386,9.185.447,1.528,11.536-1.974,13.207-3.892C1731.92,545.007,1724.778,536.72,1723.332,535.076Z" transform="translate(-1703.296 -515.223)" fill="#fe8e9c"/></clipPath><clipPath id="g"><path d="M1596.879,1169.953s.506,20.871,1.17,20.942,2.341.532,2.3-.129-.389-20.75-.731-20.966A10.67,10.67,0,0,0,1596.879,1169.953Z" transform="translate(-1596.879 -1169.732)" fill="#d4dfff"/></clipPath><clipPath id="h"><path d="M1523.631,1157.439s26.148-.594,27.575,0,.936,3.763.475,3.763-27.585.263-28.05,0S1522.384,1157.956,1523.631,1157.439Z" transform="translate(-1522.958 -1157.174)" fill="#6880e4"/></clipPath><clipPath id="i"><path d="M1570.6,1263.272c.152-.888,11.93-.888,12.441-.347s3.2,86.8,2.073,86.8-12.417.286-13.023.084S1570.119,1266.054,1570.6,1263.272Z" transform="translate(-1570.496 -1262.554)" fill="#6880e4"/></clipPath><clipPath id="j"><path d="M994.649,1761.205c.008,3.827-5.8,7.608-14.366,8.425-9.812.935-19.435-1.923-21.492-6.385a4.042,4.042,0,0,1-.389-1.694h0v5.912a2.589,2.589,0,0,0,.914,1.981c1.937,1.634,7.238,4.91,18.569,4.855,11.771-.057,15.42-3.907,16.455-5.595a2.575,2.575,0,0,0,.376-1.348Z" transform="translate(-958.402 -1761.205)" fill="#f7974d"/></clipPath><clipPath id="k"><path d="M994.719,1720.826a4.041,4.041,0,0,0-.389-1.694c-2.057-4.462-11.68-7.321-21.492-6.385-8.562.816-14.44,4.252-14.431,8.079a4.039,4.039,0,0,0,.389,1.694c2.057,4.462,11.679,7.321,21.492,6.385,8.562-.816,14.439-4.252,14.431-8.079Z" transform="translate(-958.407 -1712.57)" fill="#ffcc59"/></clipPath><clipPath id="l"><path d="M1027.145,1720.939c.008,3.827-5.8,7.608-14.366,8.425-9.812.936-19.435-1.923-21.492-6.385a4.037,4.037,0,0,1-.389-1.694h0v5.912a2.589,2.589,0,0,0,.914,1.981c1.937,1.634,7.238,4.91,18.569,4.855,11.771-.057,15.42-3.906,16.455-5.595a2.574,2.574,0,0,0,.376-1.348Z" transform="translate(-990.897 -1720.939)" fill="#f7974d"/></clipPath><clipPath id="m"><path d="M1027.214,1680.56a4.039,4.039,0,0,0-.389-1.694c-2.057-4.462-11.68-7.321-21.492-6.385-8.563.816-14.44,4.252-14.431,8.079a4.039,4.039,0,0,0,.389,1.694c2.057,4.462,11.679,7.321,21.492,6.385,8.562-.816,14.439-4.252,14.431-8.079Z" transform="translate(-990.902 -1672.304)" fill="#ffcc59"/></clipPath><clipPath id="n"><path d="M969.464,1678.916c.008,3.827-5.8,7.608-14.366,8.425-9.812.936-19.434-1.923-21.492-6.385a4.041,4.041,0,0,1-.389-1.694h0v5.912a2.59,2.59,0,0,0,.914,1.981c1.937,1.634,7.238,4.91,18.569,4.855,11.771-.057,15.42-3.907,16.455-5.595a2.575,2.575,0,0,0,.375-1.348Z" transform="translate(-933.217 -1678.916)" fill="#f7974d"/></clipPath><clipPath id="o"><path d="M1051.122,1631.864c.008,3.827-5.8,7.608-14.366,8.425-9.812.936-19.435-1.923-21.492-6.385a4.037,4.037,0,0,1-.389-1.694h0v5.912a2.59,2.59,0,0,0,.914,1.981c1.937,1.634,7.238,4.91,18.569,4.855,11.771-.057,15.42-3.907,16.455-5.595a2.577,2.577,0,0,0,.376-1.348Z" transform="translate(-1014.874 -1631.864)" fill="#f7974d"/></clipPath><clipPath id="p"><path d="M741.306,1773.243v4.217a1.314,1.314,0,0,0,.917,1.253c2.276.723,8.868,2.406,20.656,2.292,11.727-.113,18.506-1.517,20.9-2.121a1.313,1.313,0,0,0,.991-1.274v-4.366Z" transform="translate(-741.306 -1773.243)" fill="#f7974d"/></clipPath><clipPath id="q"><ellipse cx="21.731" cy="2.194" rx="21.731" ry="2.194" fill="#ffcc59"/></clipPath><clipPath id="r"><path d="M703.219,1728.219v4.217a1.314,1.314,0,0,0,.916,1.253c2.276.723,8.868,2.406,20.656,2.292,11.727-.114,18.506-1.517,20.9-2.121a1.313,1.313,0,0,0,.991-1.274v-4.366Z" transform="translate(-703.219 -1728.219)" fill="#f7974d"/></clipPath><clipPath id="t"><path d="M735.886,1662.868l-.9,4.12a1.314,1.314,0,0,0,.628,1.419c2.069,1.192,8.151,4.241,19.693,6.643,11.482,2.389,18.4,2.463,20.87,2.383a1.313,1.313,0,0,0,1.239-1.034l.931-4.266Z" transform="translate(-734.956 -1662.868)" fill="#f7974d"/></clipPath></defs><g transform="translate(-390.001 -10354.482)"><g transform="translate(102.496 10283.843)"><ellipse cx="191.001" cy="5.884" rx="191.001" ry="5.884" transform="translate(296.205 386.659)" fill="#eaf2fc"/><g transform="translate(514.342 364.597)"><g transform="translate(14.213)"><path d="M1769.356,1653.257s2.448,11.487,2.611,11.6,6.7.11,8.3-.934l-.44-11.927Z" transform="translate(-1769.356 -1651.993)" fill="#fe8e9c"/><g clip-path="url(#a)"><path d="M1764.985,1649.073s.179,3.93.953,4.376,9.81.715,10.665.03-.156-5.388-.156-5.388Z" transform="translate(-1765.696 -1648.725)" fill="#e57492"/></g></g><path d="M1707.89,1715.6c-1.228.228-6.32,1.068-10.2.108a.239.239,0,0,0-.293.277c.183.968.653,3.513.635,3.944-.023.535-14.13,5.891-15.071,7.335a7.52,7.52,0,0,0-.973,2.959.526.526,0,0,0,.55.593l26.431-1.411a.581.581,0,0,0,.542-.673l-1.129-6.947-.207-5.956A.241.241,0,0,0,1707.89,1715.6Z" transform="translate(-1681.984 -1705.253)" fill="#1b3d9e"/></g><g transform="translate(543.496 367.204)"><g transform="translate(13.841 0)"><path d="M1946.294,1668.4s3.085,12.4,3.248,12.509,6.7.11,8.3-.934l.261-11.949Z" transform="translate(-1946.294 -1668.024)" fill="#fe8e9c"/><g clip-path="url(#b)"><path d="M1946.395,1663.715s9.185,1.025,11.93-1.1l-.256-5.087-12.188.7Z" transform="translate(-1945.947 -1659.237)" fill="#e57492"/></g></g><path d="M1887.4,1732.723c-1.231.2-6.341.942-10.2-.1a.239.239,0,0,0-.3.271c.163.971.583,3.526.556,3.957-.034.534-14.245,5.608-15.214,7.033a7.459,7.459,0,0,0-1.024,2.89.581.581,0,0,0,.574.673h26.519a.581.581,0,0,0,.575-.663l-1.118-7.872-.089-5.958A.241.241,0,0,0,1887.4,1732.723Z" transform="translate(-1861.208 -1722.112)" fill="#1b3d9e"/></g><path d="M341.2,228.844c-1.934,28.689,9.383,58.1,29.019,78.9a104.937,104.937,0,0,0,27.821,21.025c36.137,18.8,81.857,16.151,116.982-4.479,16.313-9.581,30.684-22.774,48.421-29.356,23.541-8.734,49.577-4.686,74.625-2.927s52.731.168,71.251-16.787c23.308-21.339,26.127-58.016,20.476-87.257-6.6-34.141-29.8-58.344-63.079-68.406q-4.524-1.368-9.151-2.356c-32.517-6.971-62.862.6-93.838,10.429-13.715,4.353-27.587,8.537-41.983,9.832-26.254,2.362-52.62-2.824-78.912-.4-46.07,4.252-89.319,30.746-99.752,78.49A90.817,90.817,0,0,0,341.2,228.844Z" transform="translate(-44.785)" fill="#f6f9ff"/><path d="M1581.948,1120.644s-3.056,5-2.895,5.136,1.819,1.627,5.923,1.023c.187-.028,2.826-3.393,2.826-3.393Z" transform="translate(-1081.45 -842.481)" fill="#fe8e9c"/><g transform="translate(498.581 224.549)"><path d="M1612.443,791.05s-6.817,26.093-8.121,27.021-20.441,27.382-19.167,28.417,8.918,4.046,11.466,3.583,18.3-21.44,19.689-22.649,5.408-36.177,5.408-36.177Z" transform="translate(-1585.095 -791.05)" fill="#baa6f7"/><g clip-path="url(#c)"><path d="M1639.318,980.253s20.4-20.983,20.983-22.377,4.171-6.97,4.171-6.97l-4.465-6.185s-6.53,10.293-7.337,10.807-20.164,21.056-16.288,23.753A12.662,12.662,0,0,0,1639.318,980.253Z" transform="translate(-1627.611 -919.724)" fill="#764cf0"/><path d="M1734.936,819.2s-.677-15.636-.854-17.7c-1.821-21.231,3.617-27.6,3.617-27.6s2.968,40.157,1.537,42.138A11.5,11.5,0,0,1,1734.936,819.2Z" transform="translate(-1709.534 -776.687)" fill="#764cf0"/></g></g><path d="M1748.1,724.251s-8.264,13.224-6.579,25.7,3.043,40.6,3.043,40.6l14.414-1.541-6.757-63.8Z" transform="translate(-1217.304 -510.568)" fill="#a488f5"/><g transform="translate(513.814 260.921)"><g transform="translate(0 2.976)"><path d="M1698.357,1032.942s-17.563,39.9-19.055,44.692c-3.382,10.867,9.615,56.656,9.76,58.13s16.857,1.575,17.89,0-3.039-51.659-3.039-51.659,24.9-40.193,21.229-44.287C1720.238,1034.343,1698.357,1032.942,1698.357,1032.942Z" transform="translate(-1678.74 -1032.942)" fill="#21155c"/><g clip-path="url(#d)"><path d="M1755.589,1172.763a.277.277,0,0,1-.273-.235c-.328-2.171-8.036-53.191-7.476-55.54.551-2.313,15.251-41.315,15.876-42.974a.277.277,0,0,1,.518.2c-.153.406-15.312,40.627-15.856,42.907-.428,1.8,4.709,36.977,7.485,55.329a.277.277,0,0,1-.232.315A.286.286,0,0,1,1755.589,1172.763Z" transform="translate(-1736.575 -1067.182)" fill="#1c056d"/><path d="M1705.466,1070.658s5.828.341,7.972-1.225c2.768-2.022,14.674-17.643,14.674-17.643l-10.3-5.9Z" transform="translate(-1701.119 -1043.783)" fill="#1c056d"/></g></g><path d="M1840.869,1196.339s-1.445-18.912-1.8-19.438-3.792,25.668-2.4,26.445Z" transform="translate(-1810.706 -1150.5)" fill="#1c056d"/><g transform="translate(26.994)"><path d="M1867.369,1014.645s8.07,16.071,8.3,25.651,1.612,79.352,0,80.5-17.2,4.145-17.581,0-20.482-103.042-10.742-103.132A87.716,87.716,0,0,0,1867.369,1014.645Z" transform="translate(-1844.685 -1014.645)" fill="#21155c"/><g clip-path="url(#e)"><path d="M1918.082,1123.505a.277.277,0,0,1-.276-.256c-.044-.574-4.359-57.4-4.445-61.462-.085-4.031-9.84-48.063-9.939-48.508a.277.277,0,1,1,.541-.12c.4,1.816,9.866,44.531,9.952,48.616.085,4.05,4.4,60.859,4.443,61.432a.277.277,0,0,1-.255.3Z" transform="translate(-1893.862 -1013.22)" fill="#1c056d"/><path d="M1870.607,1032.212s3.6,19.977,5.39,20.715c5.241,2.158,18-4.041,22.148-11.225s-7.676-18.281-7.676-18.281Z" transform="translate(-1866.39 -1021.994)" fill="#1c056d"/></g></g></g><path d="M1771.13,712.822s-3.851,12.161-3.4,18.9,7.27,38.211,8.534,39.26,7.683.64,10.977-.354,12.182-4.444,11.6-5.253-7.3-38.169-8.187-41.5-6.309-14.938-6.309-14.938-6.259,5.551-8.172,5.307A29.868,29.868,0,0,1,1771.13,712.822Z" transform="translate(-1239.407 -497.74)" fill="#fff"/><g transform="translate(517.808 179.681)"><path d="M1723.332,535.076a1.219,1.219,0,0,0,.061-.211c.37-2.028,2.159-15.056-1.4-18.192s-15.954-1.082-14.871,5.143c0,0,2.451,7.818-.009,10.275s-5.123,4.348-3.1,4.718,3.769-1.215,4.507-.354.8,7.129,3.623,6.639a13.078,13.078,0,0,0,3.682-1.655c.472,3.587,1.118,8.266,1.386,9.185.447,1.528,11.536-1.974,13.207-3.892C1731.92,545.007,1724.778,536.72,1723.332,535.076Z" transform="translate(-1703.296 -515.223)" fill="#fe8e9c"/><g transform="translate(0)" clip-path="url(#f)"><path d="M1714.041,543.345s5.438-2.193,6.6-4.48c0,0,1.706,3.525,3.561,3.339l-1.225-7.608-11.838,3.08Z" transform="translate(-1709.865 -531.445)" fill="#e57492"/></g></g><path d="M1780.316,661.115a11.5,11.5,0,0,0,2.954-2.893.152.152,0,0,1,.283.064c.1,1.232.055,4.428-2.887,5.445Z" transform="translate(-1249.979 -455.218)" fill="#e57492"/><g transform="translate(488.333 284.106)"><g transform="translate(12.164 2.043)"><path d="M1596.879,1169.953s.506,20.871,1.17,20.942,2.341.532,2.3-.129-.389-20.75-.731-20.966A10.67,10.67,0,0,0,1596.879,1169.953Z" transform="translate(-1596.879 -1169.732)" fill="#d4dfff"/><g clip-path="url(#g)"><path d="M1605.451,1169.732s-.921,19.744,0,20.087,2.909-.617,2.909-.617l-.754-19.47h-2.155" transform="translate(-1603.714 -1169.732)" fill="#6880e4" opacity="0.4"/></g></g><g transform="translate(0.14 0)"><path d="M1523.631,1157.439s26.148-.594,27.575,0,.936,3.763.475,3.763-27.585.263-28.05,0S1522.384,1157.956,1523.631,1157.439Z" transform="translate(-1522.958 -1157.174)" fill="#6880e4"/><g clip-path="url(#h)"><path d="M1516.434,1169.068s30.765-1.882,31.235-1.223.612,2.776-.47,2.87-31.047.278-31-.19S1516.434,1169.068,1516.434,1169.068Z" transform="translate(-1517.298 -1165.992)" fill="#1c056d" opacity="0.24"/></g></g><g transform="translate(7.873 17.142)"><path d="M1570.6,1263.272c.152-.888,11.93-.888,12.441-.347s3.2,86.8,2.073,86.8-12.417.286-13.023.084S1570.119,1266.054,1570.6,1263.272Z" transform="translate(-1570.496 -1262.554)" fill="#6880e4"/><g clip-path="url(#i)"><path d="M1548.443,1251.769s-.2,74.682,15.651,82.211v9.51H1542.3v-91.721Z" transform="translate(-1546.888 -1253.524)" fill="#1c056d" opacity="0.24"/></g></g><path d="M1522.705,1792.718s30.177-.842,30.3,0,.721,4.689,0,4.689-29.816.12-30.3,0S1521.623,1793.318,1522.705,1792.718Z" transform="translate(-1522.099 -1689.022)" fill="#6880e4"/><path d="M1568.358,1296.4a.415.415,0,0,1-.024-.83c.473-.027,11.594-.671,12.94-.591a.415.415,0,0,1-.05.829c-1.3-.079-12.726.585-12.842.591Z" transform="translate(-1560.485 -1272.556)" fill="#1c056d"/><path d="M1589.68,1760.446a.468.468,0,0,1-.058,0c-1.616-.224-13.45,0-13.569,0h-.008a.415.415,0,0,1-.008-.83c.49-.01,12.019-.229,13.7,0a.415.415,0,0,1-.057.827Z" transform="translate(-1566.922 -1661.532)" fill="#1c056d"/></g><g transform="translate(530.635 208.8)"><path d="M1782.84,722.049s2.555,1,3.59,1.323-1,3.628-1.441,3.446a7.635,7.635,0,0,1-2.806-3.667.884.884,0,0,1,.657-1.1Z" transform="translate(-1782.149 -717.524)" fill="#ffe0c1"/><path d="M1828.219,694.233s-8.735,4.857-8.562,5.653,1.869,3.367,2.208,3.228,7.577-6.195,7.66-6.709S1828.219,694.233,1828.219,694.233Z" transform="translate(-1813.554 -694.233)" fill="#ffe0c1"/></g><g transform="translate(532.18 214.447)"><path d="M1805.878,729.151a2.85,2.85,0,0,0-.494,1.639c.086.805,1.048,2.483,1.372,2.408s1.891-1.841,1.72-2.437-.525-1.76-.776-1.805A15.457,15.457,0,0,0,1805.878,729.151Z" transform="translate(-1803.142 -728.951)" fill="#1b3d9e"/><path d="M1794.436,743.769s-2.226,20.333-2.594,27.762a106.88,106.88,0,0,0,.023,14.139c.167.761,3.975,7.657,4.307,7.522s3.316-7.539,3.423-8.321-1.6-19.917-1.736-23.221-2.119-18.141-2.119-18.141Z" transform="translate(-1791.643 -741.141)" fill="#1b3d9e"/></g><path d="M1637.521,1102.583s-5.064,5.334-5.235,5.334a61.75,61.75,0,0,0-5.349,3.307c-.529.471-.429,3.551-.2,5.055s3.5,1.352,4.529,1.223,5.32-1.263,5.409-2c.068-.557.021-3.806.021-3.806l6.831-3.756Z" transform="translate(-1121.228 -827.358)" fill="#fe8e9c"/><g transform="translate(511.943 209.505)"><path d="M1719.169,727.3c-.35-2.448-.828-21.885-15.941-28.507a2.627,2.627,0,0,0-3.631,1.863l-.014.07h0s-8.183,38.957-8.848,39.952-23.073,22.236-23.485,24.4,8.34,10.1,11.722,9.282c3.219-.774,21.4-16.3,25.717-21.392,1.421,12.274,2.773,23.446,3.444,23.446,1.288,0,21.156-11.774,22.811-15.821S1719.537,729.871,1719.169,727.3Z" transform="translate(-1667.236 -698.566)" fill="#a488f5"/><path d="M1897.473,909.842a22.034,22.034,0,0,0,3.564-5.055c1.468-2.935,3.507-18.871,3.507-18.871s.9,18.138-.781,21.7-5.787,6.533-5.787,6.533Z" transform="translate(-1860.021 -855.44)" fill="#764cf0"/><path d="M1811.7,949.832s1.225,3.613,6.332,4.652c0,0-5.279-3.127-5.893-6.128Z" transform="translate(-1788.199 -907.723)" fill="#764cf0"/></g><path d="M1552.2,1145.847c.042.123.184.181.143.3-.189.575-.708,2.178-.877,2.978a15.224,15.224,0,0,0-.293,2.382c-.044,1.46-7.426,1.154-7.95.246a8.211,8.211,0,0,1-.839-3.738,7.31,7.31,0,0,1,2.271-2.582C1545.267,1145.231,1551.221,1142.987,1552.2,1145.847Z" transform="translate(-1050.723 -862.377)" fill="#fe8e9c"/><path d="M1699.158,509.849s7.32-1.914,8.462-4.9c0,0-2.811,4.3,1.977,7.556,0,0-.966-3.031,1.8-2.811s1.362,4.569,0,4.481c0,0,2.689,4.614,3.782,4.5s3.28-8.207,2.723-12.85-1.3-6.439-6.067-7.368-16.345,4.334-17.645,3.405-1.792,3.246.8,3.405c0,0-1.774,1.2-.209,2.474s2.483.479,2.483.479S1696.623,510.32,1699.158,509.849Z" transform="translate(-1176.974 -321.412)" fill="#26d19e"/><path d="M1739.438,642.953s2.849.426,3.853-3.357C1743.291,639.6,1739.12,641.629,1739.438,642.953Z" transform="translate(-1215.736 -439.685)" fill="#fff"/><g transform="translate(287.505 153.308)"><circle cx="21.018" cy="21.018" r="21.018" transform="translate(0 29.724) rotate(-45)" fill="#d4dfff"/><path d="M425.136,459.862a7.679,7.679,0,0,0-1.535-2.589,10.338,10.338,0,0,0-2.2-1.836c-.728-.456-1.464-.881-2.189-1.263-.431-.227-.857-.465-1.266-.708a4.935,4.935,0,0,1-.847-.622,1.463,1.463,0,0,1-.348-.467.54.54,0,0,1-.008-.272c.009-.058.018-.112.224-.215a3.1,3.1,0,0,1,1.765-.035,9.308,9.308,0,0,1,1.905.555,10.856,10.856,0,0,1,1.957,1.022h0a1.7,1.7,0,0,0,2.448-.632l1.5-2.872a1.7,1.7,0,0,0-.5-2.158h0a13.824,13.824,0,0,0-2.851-1.622,5.386,5.386,0,0,0,.775-2.317c-.134-.838-2.731-1.312-3.783-1.531-.819-.17-1.228,1.836-1.369,2.734a11.8,11.8,0,0,0-3.076.008,8.218,8.218,0,0,0-3.079,1.056,6.324,6.324,0,0,0-2.16,2.151,7.642,7.642,0,0,0-.992,2.716,7.046,7.046,0,0,0,.24,3.558,7.721,7.721,0,0,0,1.535,2.584,9.947,9.947,0,0,0,2.133,1.778c.69.429,1.358.81,1.984,1.132l1.43.775a5.208,5.208,0,0,1,.929.631,1.582,1.582,0,0,1,.391.474.421.421,0,0,1,0,.205.621.621,0,0,1-.45.594,4.2,4.2,0,0,1-2.15.115,7.771,7.771,0,0,1-2.2-.722,11.413,11.413,0,0,1-2-1.248h0a1.7,1.7,0,0,0-2.58.571l-1.533,3.053a1.7,1.7,0,0,0,.447,2.085h0a13.4,13.4,0,0,0,3.088,1.854l.125.053a6.04,6.04,0,0,0-.838,2.557c.151.835,2.758,1.255,3.814,1.452.855.16,1.218-2.026,1.325-2.864a13.7,13.7,0,0,0,3.086.086,8.718,8.718,0,0,0,3.225-.906,7.328,7.328,0,0,0,2.494-2.1,7.415,7.415,0,0,0,1.356-3.322A7,7,0,0,0,425.136,459.862Z" transform="translate(-387.614 -427.782)" fill="#eaf2fc"/></g><g transform="translate(463.036 199.379)"><circle cx="10.324" cy="10.324" r="10.324" transform="translate(0 14.601) rotate(-45)" fill="#d4dfff"/><path d="M1431.562,686.881a3.773,3.773,0,0,0-1.395-.491,5.08,5.08,0,0,0-1.407,0c-.418.058-.829.13-1.223.215-.234.05-.469.1-.7.133a2.427,2.427,0,0,1-.515.032.716.716,0,0,1-.279-.066.269.269,0,0,1-.089-.1c-.014-.025-.028-.048.017-.152.025-.058.147-.27.654-.57a4.585,4.585,0,0,1,.892-.392,5.32,5.32,0,0,1,1.06-.232h0a.837.837,0,0,0,.723-1.01l-.34-1.555a.837.837,0,0,0-.867-.656h0a6.788,6.788,0,0,0-1.585.288,2.646,2.646,0,0,0-.439-1.117c-.314-.274-1.442.367-1.907.616-.362.194.116,1.079.346,1.461a5.8,5.8,0,0,0-1.156.973,4.038,4.038,0,0,0-.827,1.369,3.1,3.1,0,0,0-.135,1.491,3.748,3.748,0,0,0,.483,1.336,3.458,3.458,0,0,0,1.212,1.265,3.789,3.789,0,0,0,1.393.489,4.881,4.881,0,0,0,1.364,0c.4-.056.767-.123,1.1-.2l.783-.159a2.546,2.546,0,0,1,.549-.055.78.78,0,0,1,.3.055.209.209,0,0,1,.065.078.305.305,0,0,1,.018.365,2.067,2.067,0,0,1-.773.721,3.823,3.823,0,0,1-1.055.421,5.609,5.609,0,0,1-1.148.162h0a.836.836,0,0,0-.792,1.028l.385,1.633a.836.836,0,0,0,.826.644h0a6.59,6.59,0,0,0,1.748-.275l.064-.019a2.967,2.967,0,0,0,.49,1.228c.321.267,1.435-.4,1.895-.656.373-.21-.18-1.147-.4-1.5a6.742,6.742,0,0,0,1.189-.94,4.281,4.281,0,0,0,.929-1.358,3.6,3.6,0,0,0,.278-1.576,3.64,3.64,0,0,0-.537-1.679A3.442,3.442,0,0,0,1431.562,686.881Z" transform="translate(-1413.281 -673.852)" fill="#eaf2fc"/></g><g transform="translate(615.125 216.776)"><circle cx="17.594" cy="17.594" r="17.594" transform="translate(0 24.881) rotate(-45)" fill="#d4dfff"/><path d="M2420.352,829.258a6.421,6.421,0,0,0-1.877-1.68,8.652,8.652,0,0,0-2.217-.912c-.7-.181-1.39-.334-2.066-.457-.4-.073-.8-.156-1.189-.247a4.126,4.126,0,0,1-.833-.284,1.229,1.229,0,0,1-.4-.285.453.453,0,0,1-.074-.215c-.007-.048-.014-.094.125-.228a2.6,2.6,0,0,1,1.4-.472,7.788,7.788,0,0,1,1.661-.037,9.093,9.093,0,0,1,1.82.323h0a1.425,1.425,0,0,0,1.795-1.121l.475-2.67a1.425,1.425,0,0,0-.939-1.6h0a11.554,11.554,0,0,0-2.684-.577,4.513,4.513,0,0,0,.035-2.045c-.318-.636-2.51-.36-3.406-.27-.7.07-.518,1.775-.4,2.527a9.882,9.882,0,0,0-2.453.78,6.879,6.879,0,0,0-2.193,1.618,5.293,5.293,0,0,0-1.183,2.261,6.4,6.4,0,0,0-.108,2.418,5.9,5.9,0,0,0,1.087,2.78,6.464,6.464,0,0,0,1.875,1.676,8.325,8.325,0,0,0,2.15.883c.659.169,1.288.3,1.87.4l1.336.259a4.352,4.352,0,0,1,.9.27,1.324,1.324,0,0,1,.432.28.353.353,0,0,1,.051.164.519.519,0,0,1-.209.587,3.519,3.519,0,0,1-1.688.633,6.511,6.511,0,0,1-1.934-.023,9.575,9.575,0,0,1-1.915-.492h0a1.425,1.425,0,0,0-1.916,1.1l-.455,2.823a1.425,1.425,0,0,0,.881,1.552h0a11.228,11.228,0,0,0,2.932.7l.114.011a5.054,5.054,0,0,0-.026,2.253c.331.629,2.517.308,3.41.2.723-.088.463-1.924.337-2.62a11.455,11.455,0,0,0,2.485-.708,7.3,7.3,0,0,0,2.346-1.535,6.131,6.131,0,0,0,1.463-2.3,6.2,6.2,0,0,0,.246-2.993A5.865,5.865,0,0,0,2420.352,829.258Z" transform="translate(-2388.653 -804.459)" fill="#eaf2fc"/></g><g transform="translate(567.617 120.965)"><circle cx="28.818" cy="28.818" r="28.818" transform="translate(0 40.755) rotate(-45)" fill="#d4dfff"/><path d="M2183.936,303.667a10.53,10.53,0,0,0-4.114-.328,14.185,14.185,0,0,0-3.794,1.01c-1.086.455-2.144.943-3.146,1.453-.594.3-1.2.592-1.794.858a6.774,6.774,0,0,1-1.367.456,2.011,2.011,0,0,1-.8.021.744.744,0,0,1-.31-.207c-.057-.056-.111-.109-.063-.421a4.252,4.252,0,0,1,1.357-2,12.753,12.753,0,0,1,2.128-1.7,14.87,14.87,0,0,1,2.693-1.384h0a2.335,2.335,0,0,0,1.228-3.242l-2.029-3.952a2.335,2.335,0,0,0-2.809-1.151h0a18.94,18.94,0,0,0-4.071,1.91,7.386,7.386,0,0,0-1.983-2.7c-1.045-.513-3.629,2.021-4.707,3.027-.838.783,1.085,2.827,1.979,3.7a16.193,16.193,0,0,0-2.424,3.451,11.273,11.273,0,0,0-1.252,4.284,8.669,8.669,0,0,0,.7,4.121,10.482,10.482,0,0,0,2.258,3.26,9.662,9.662,0,0,0,4.175,2.546,10.588,10.588,0,0,0,4.108.325,13.633,13.633,0,0,0,3.678-.982c1.027-.434,1.981-.881,2.838-1.327l2-.988a7.152,7.152,0,0,1,1.442-.542,2.174,2.174,0,0,1,.84-.063.581.581,0,0,1,.23.163.851.851,0,0,1,.309.974,5.761,5.761,0,0,1-1.571,2.5,10.654,10.654,0,0,1-2.545,1.889,15.667,15.667,0,0,1-2.983,1.257h0a2.335,2.335,0,0,0-1.4,3.341l2.207,4.131a2.335,2.335,0,0,0,2.688,1.148h0a18.373,18.373,0,0,0,4.519-1.992l.159-.1c.518.98,1.471,2.622,2.2,2.962,1.055.491,3.587-2.1,4.643-3.124.855-.832-1.306-2.967-2.16-3.75a18.789,18.789,0,0,0,2.537-3.388,11.951,11.951,0,0,0,1.535-4.329,10.045,10.045,0,0,0-.376-4.452,10.169,10.169,0,0,0-2.648-4.146A9.6,9.6,0,0,0,2183.936,303.667Z" transform="translate(-2134.375 -269.782)" fill="#eaf2fc"/></g><g transform="translate(305.875 280.991)"><circle cx="11.638" cy="11.638" r="11.638" transform="translate(0 16.458) rotate(-45)" fill="#d4dfff"/><path d="M471.179,1197.818a4.251,4.251,0,0,0-1.656-.184,5.713,5.713,0,0,0-1.544.36c-.444.17-.877.354-1.288.547-.244.115-.491.224-.735.324a2.73,2.73,0,0,1-.557.167.815.815,0,0,1-.323,0,.3.3,0,0,1-.123-.087c-.022-.023-.043-.045-.02-.171a1.719,1.719,0,0,1,.573-.792,5.145,5.145,0,0,1,.88-.658,6.014,6.014,0,0,1,1.1-.525h0a.943.943,0,0,0,.536-1.293l-.769-1.621a.943.943,0,0,0-1.12-.5h0a7.637,7.637,0,0,0-1.667.719,2.984,2.984,0,0,0-.766-1.115c-.415-.22-1.491.77-1.938,1.162-.348.305.4,1.155.752,1.516a6.529,6.529,0,0,0-1.022,1.363,4.55,4.55,0,0,0-.56,1.713,3.5,3.5,0,0,0,.231,1.672,4.23,4.23,0,0,0,.87,1.344,3.9,3.9,0,0,0,1.653,1.08,4.271,4.271,0,0,0,1.654.183,5.505,5.505,0,0,0,1.5-.35c.42-.162.811-.331,1.162-.5l.819-.374a2.867,2.867,0,0,1,.589-.2.876.876,0,0,1,.34-.015.236.236,0,0,1,.091.069.344.344,0,0,1,.113.4,2.326,2.326,0,0,1-.666.989,4.3,4.3,0,0,1-1.051.73,6.324,6.324,0,0,1-1.22.47h0a.943.943,0,0,0-.608,1.331l.839,1.7a.943.943,0,0,0,1.071.5h0a7.426,7.426,0,0,0,1.849-.747l.065-.038a3.342,3.342,0,0,0,.851,1.223c.42.212,1.474-.8,1.913-1.2.356-.325-.49-1.214-.825-1.541a7.6,7.6,0,0,0,1.067-1.335,4.829,4.829,0,0,0,.674-1.728,4.054,4.054,0,0,0-.1-1.8,4.106,4.106,0,0,0-1.017-1.707A3.878,3.878,0,0,0,471.179,1197.818Z" transform="translate(-451.08 -1184.021)" fill="#eaf2fc"/></g><g transform="translate(392.541 353.411)"><g transform="translate(4.097 21.04)"><g transform="translate(0 7.911)"><path d="M994.649,1761.205c.008,3.827-5.8,7.608-14.366,8.425-9.812.935-19.435-1.923-21.492-6.385a4.042,4.042,0,0,1-.389-1.694h0v5.912a2.589,2.589,0,0,0,.914,1.981c1.937,1.634,7.238,4.91,18.569,4.855,11.771-.057,15.42-3.907,16.455-5.595a2.575,2.575,0,0,0,.376-1.348Z" transform="translate(-958.402 -1761.205)" fill="#f7974d"/><g clip-path="url(#j)"><path d="M965.261,1774.784c0,.361-.352,6.626.007,7.018s.784-5.944.588-6.433A.945.945,0,0,0,965.261,1774.784Z" transform="translate(-964.016 -1772.575)" fill="#ffcc59" opacity="0.5"/><path d="M982.355,1792.1s-.3,5.817-.113,5.854l.189.038s.755-5.515.34-5.7Z" transform="translate(-978.311 -1787.078)" fill="#ffcc59" opacity="0.5"/><path d="M1010.262,1803.928s-.475,5.478-.121,5.549.85-5.351.85-5.351Z" transform="translate(-1001.615 -1796.978)" fill="#ffcc59" opacity="0.5"/><path d="M1046.1,1808.79s-.371,5.8.046,5.889,1.345-5.7.649-5.8Z" transform="translate(-1031.711 -1801.05)" fill="#ffcc59" opacity="0.5"/><path d="M1094.317,1813.964s-.417-5.843-.046-5.75,1.252,5.8.927,5.843A3.047,3.047,0,0,1,1094.317,1813.964Z" transform="translate(-1072.04 -1800.566)" fill="#ffcc59" opacity="0.5"/><path d="M1130.946,1809.134s-.547-5.776-.25-5.518,1.385,5.412.818,5.465Z" transform="translate(-1102.595 -1796.71)" fill="#ffcc59" opacity="0.5"/><path d="M1156.93,1788.753s.29,6.217.481,6.207.226-6.281-.072-6.468S1156.93,1788.753,1156.93,1788.753Z" transform="translate(-1124.636 -1784.016)" fill="#ffcc59" opacity="0.5"/></g></g><g transform="translate(0.001)"><path d="M994.719,1720.826a4.041,4.041,0,0,0-.389-1.694c-2.057-4.462-11.68-7.321-21.492-6.385-8.562.816-14.44,4.252-14.431,8.079a4.039,4.039,0,0,0,.389,1.694c2.057,4.462,11.679,7.321,21.492,6.385,8.562-.816,14.439-4.252,14.431-8.079Z" transform="translate(-958.407 -1712.57)" fill="#ffcc59"/><g clip-path="url(#k)"><path d="M979.062,1740.346s-5.133,4.823,1.382,8.6,23.584,1.025,23.584,1.025-18.113-1.721-21.1-3.86-2.686-4.476-2.686-4.476l-1.183-1.292" transform="translate(-974.094 -1735.828)" fill="#f7974d" opacity="0.5"/></g></g><path d="M1175.724,1772.708s.349,6.641.233,6.731-.446-5.142-.446-5.917S1175.724,1772.708,1175.724,1772.708Z" transform="translate(-1140.194 -1762.925)" fill="#ffcc59" opacity="0.5"/></g><g transform="translate(9.383 14.49)"><g transform="translate(0 7.911)"><path d="M1027.145,1720.939c.008,3.827-5.8,7.608-14.366,8.425-9.812.936-19.435-1.923-21.492-6.385a4.037,4.037,0,0,1-.389-1.694h0v5.912a2.589,2.589,0,0,0,.914,1.981c1.937,1.634,7.238,4.91,18.569,4.855,11.771-.057,15.42-3.906,16.455-5.595a2.574,2.574,0,0,0,.376-1.348Z" transform="translate(-990.897 -1720.939)" fill="#f7974d"/><g clip-path="url(#l)"><path d="M997.756,1734.518c0,.361-.352,6.627.007,7.018s.784-5.943.588-6.433A.946.946,0,0,0,997.756,1734.518Z" transform="translate(-996.511 -1732.309)" fill="#ffcc59" opacity="0.5"/><path d="M1014.85,1751.838s-.3,5.817-.113,5.854l.189.038s.755-5.514.34-5.7Z" transform="translate(-1010.806 -1746.812)" fill="#ffcc59" opacity="0.5"/><path d="M1042.757,1763.662s-.475,5.478-.121,5.549.85-5.351.85-5.351Z" transform="translate(-1034.11 -1756.712)" fill="#ffcc59" opacity="0.5"/><path d="M1078.6,1768.524s-.371,5.8.046,5.889,1.345-5.7.649-5.8Z" transform="translate(-1064.206 -1760.784)" fill="#ffcc59" opacity="0.5"/><path d="M1126.812,1773.7s-.417-5.843-.047-5.75,1.252,5.8.927,5.843A3.04,3.04,0,0,1,1126.812,1773.7Z" transform="translate(-1104.536 -1760.301)" fill="#ffcc59" opacity="0.5"/><path d="M1163.441,1768.868s-.547-5.776-.25-5.518,1.385,5.412.818,5.465Z" transform="translate(-1135.09 -1756.444)" fill="#ffcc59" opacity="0.5"/><path d="M1189.425,1748.487s.29,6.217.481,6.207.225-6.281-.072-6.467S1189.425,1748.487,1189.425,1748.487Z" transform="translate(-1157.131 -1743.75)" fill="#ffcc59" opacity="0.5"/></g></g><g transform="translate(0.001)"><path d="M1027.214,1680.56a4.039,4.039,0,0,0-.389-1.694c-2.057-4.462-11.68-7.321-21.492-6.385-8.563.816-14.44,4.252-14.431,8.079a4.039,4.039,0,0,0,.389,1.694c2.057,4.462,11.679,7.321,21.492,6.385,8.562-.816,14.439-4.252,14.431-8.079Z" transform="translate(-990.902 -1672.304)" fill="#ffcc59"/><g clip-path="url(#m)"><path d="M1008.725,1694.231s7.567,13.453-20.927,10.6h0l15.621-9.3Z" transform="translate(-977.699 -1690.664)" fill="#f7974d" opacity="0.5"/></g></g><path d="M1208.219,1732.441s.349,6.641.233,6.731-.446-5.142-.446-5.917S1208.219,1732.441,1208.219,1732.441Z" transform="translate(-1172.689 -1722.659)" fill="#ffcc59" opacity="0.5"/></g><g transform="translate(0 7.654)"><g transform="translate(0 7.911)"><path d="M969.464,1678.916c.008,3.827-5.8,7.608-14.366,8.425-9.812.936-19.434-1.923-21.492-6.385a4.041,4.041,0,0,1-.389-1.694h0v5.912a2.59,2.59,0,0,0,.914,1.981c1.937,1.634,7.238,4.91,18.569,4.855,11.771-.057,15.42-3.907,16.455-5.595a2.575,2.575,0,0,0,.375-1.348Z" transform="translate(-933.217 -1678.916)" fill="#f7974d"/><g clip-path="url(#n)"><path d="M940.076,1692.495c0,.361-.352,6.626.007,7.018s.784-5.944.588-6.433A.945.945,0,0,0,940.076,1692.495Z" transform="translate(-938.831 -1690.286)" fill="#ffcc59" opacity="0.5"/><path d="M957.169,1709.816s-.3,5.817-.113,5.854l.189.038s.755-5.514.34-5.7Z" transform="translate(-953.126 -1704.79)" fill="#ffcc59" opacity="0.5"/><path d="M985.076,1721.639s-.475,5.478-.12,5.549.85-5.351.85-5.351Z" transform="translate(-976.429 -1714.689)" fill="#ffcc59" opacity="0.5"/><path d="M1020.919,1726.5s-.371,5.8.046,5.889,1.345-5.7.649-5.8Z" transform="translate(-1006.525 -1718.761)" fill="#ffcc59" opacity="0.5"/><path d="M1069.132,1731.675s-.417-5.843-.046-5.75,1.252,5.8.927,5.843A3.051,3.051,0,0,1,1069.132,1731.675Z" transform="translate(-1046.855 -1718.278)" fill="#ffcc59" opacity="0.5"/><path d="M1105.761,1726.846s-.547-5.776-.25-5.518,1.385,5.412.818,5.465Z" transform="translate(-1077.41 -1714.422)" fill="#ffcc59" opacity="0.5"/><path d="M1131.745,1706.464s.29,6.217.481,6.207.226-6.281-.072-6.467S1131.745,1706.464,1131.745,1706.464Z" transform="translate(-1099.451 -1701.727)" fill="#ffcc59" opacity="0.5"/></g></g><path d="M969.533,1638.537a4.041,4.041,0,0,0-.389-1.694c-2.057-4.462-11.679-7.321-21.492-6.385-8.562.817-14.439,4.252-14.431,8.079a4.041,4.041,0,0,0,.389,1.694c2.057,4.462,11.68,7.321,21.492,6.385,8.562-.816,14.439-4.252,14.431-8.079Z" transform="translate(-933.22 -1630.281)" fill="#ffcc59"/><path d="M1150.538,1690.419s.349,6.641.232,6.731-.446-5.142-.446-5.917S1150.538,1690.419,1150.538,1690.419Z" transform="translate(-1115.008 -1680.636)" fill="#ffcc59" opacity="0.5"/><path d="M1002.951,1648.672a4.423,4.423,0,0,0-1.317-1.022,9.225,9.225,0,0,0-1.7-.681c-.55-.162-1.1-.311-1.643-.442-.321-.078-.64-.161-.948-.246a4.684,4.684,0,0,1-.649-.227.983.983,0,0,1-.287-.182.153.153,0,0,1-.031-.113c0-.025,0-.048.135-.1a3.427,3.427,0,0,1,1.223-.084,10.831,10.831,0,0,1,1.377.157,11.527,11.527,0,0,1,1.459.35h0a1.523,1.523,0,0,0,1.64-.36l.765-1.259c.2-.326-.037-.7-.554-.882h0a14.385,14.385,0,0,0-2.137-.566c.19-.319.423-.783.314-1-.174-.345-2.024-.441-2.777-.492-.586-.039-.675.815-.686,1.2a13.486,13.486,0,0,0-2.136.124,7.582,7.582,0,0,0-2.037.562,3.239,3.239,0,0,0-1.293.983,2.121,2.121,0,0,0-.426,1.174,2.067,2.067,0,0,0,.511,1.477,4.453,4.453,0,0,0,1.316,1.02,8.91,8.91,0,0,0,1.654.66c.521.152,1.022.285,1.488.4l1.068.268a5.108,5.108,0,0,1,.707.227,1.126,1.126,0,0,1,.318.183.117.117,0,0,1,.02.086c-.007.164-.087.216-.255.266a4.658,4.658,0,0,1-1.483.132,8.918,8.918,0,0,1-1.6-.216,11.55,11.55,0,0,1-1.513-.443h0a1.542,1.542,0,0,0-1.737.339l-.769,1.336c-.18.312.033.667.512.854h0a13.686,13.686,0,0,0,2.325.654l.092.018c-.184.316-.464.864-.335,1.1.186.343,2.037.417,2.791.458.61.033.65-.894.644-1.249a15.784,15.784,0,0,0,2.152-.085,8.469,8.469,0,0,0,2.153-.5,4.28,4.28,0,0,0,1.53-.974,2.155,2.155,0,0,0,.62-1.441A2.05,2.05,0,0,0,1002.951,1648.672Z" transform="translate(-981.518 -1639.697)" fill="#f7974d" opacity="0.5"/></g><g transform="translate(13.283)"><g transform="translate(0 7.911)"><path d="M1051.122,1631.864c.008,3.827-5.8,7.608-14.366,8.425-9.812.936-19.435-1.923-21.492-6.385a4.037,4.037,0,0,1-.389-1.694h0v5.912a2.59,2.59,0,0,0,.914,1.981c1.937,1.634,7.238,4.91,18.569,4.855,11.771-.057,15.42-3.907,16.455-5.595a2.577,2.577,0,0,0,.376-1.348Z" transform="translate(-1014.874 -1631.864)" fill="#f7974d"/><g clip-path="url(#o)"><path d="M1021.733,1645.443c0,.361-.352,6.627.007,7.019s.784-5.944.588-6.434A.946.946,0,0,0,1021.733,1645.443Z" transform="translate(-1020.488 -1643.234)" fill="#ffcc59" opacity="0.5"/><path d="M1038.826,1662.764s-.3,5.817-.113,5.854l.189.038s.755-5.514.34-5.7Z" transform="translate(-1034.783 -1657.737)" fill="#ffcc59" opacity="0.5"/><path d="M1066.733,1674.587s-.475,5.478-.12,5.549.85-5.351.85-5.351Z" transform="translate(-1058.087 -1667.637)" fill="#ffcc59" opacity="0.5"/><path d="M1102.576,1679.45s-.371,5.8.046,5.889,1.345-5.7.649-5.8Z" transform="translate(-1088.182 -1671.709)" fill="#ffcc59" opacity="0.5"/><path d="M1150.789,1684.623s-.417-5.843-.046-5.75,1.252,5.8.927,5.843A3.05,3.05,0,0,1,1150.789,1684.623Z" transform="translate(-1128.512 -1671.226)" fill="#ffcc59" opacity="0.5"/><path d="M1187.418,1679.794s-.547-5.776-.25-5.518,1.385,5.412.818,5.465Z" transform="translate(-1159.067 -1667.37)" fill="#ffcc59" opacity="0.5"/><path d="M1213.4,1659.412s.29,6.217.481,6.207.225-6.282-.072-6.467S1213.4,1659.412,1213.4,1659.412Z" transform="translate(-1181.108 -1654.675)" fill="#ffcc59" opacity="0.5"/></g></g><path d="M1051.191,1591.486a4.04,4.04,0,0,0-.389-1.694c-2.057-4.462-11.679-7.321-21.492-6.385-8.562.816-14.44,4.252-14.431,8.079a4.037,4.037,0,0,0,.389,1.694c2.057,4.462,11.679,7.321,21.492,6.386,8.563-.817,14.439-4.252,14.431-8.079Z" transform="translate(-1014.878 -1583.229)" fill="#ffcc59"/><path d="M1232.2,1643.367s.349,6.641.233,6.731-.446-5.142-.446-5.917S1232.2,1643.367,1232.2,1643.367Z" transform="translate(-1196.666 -1633.584)" fill="#ffcc59" opacity="0.5"/><path d="M1100.742,1599.5a4.423,4.423,0,0,0-1.317-1.022,9.231,9.231,0,0,0-1.7-.681c-.55-.162-1.1-.311-1.643-.442-.321-.078-.64-.161-.948-.246a4.644,4.644,0,0,1-.649-.227.977.977,0,0,1-.287-.181.152.152,0,0,1-.031-.113c0-.024,0-.048.135-.1a3.421,3.421,0,0,1,1.223-.084,10.763,10.763,0,0,1,1.378.157,11.6,11.6,0,0,1,1.459.351h0a1.523,1.523,0,0,0,1.639-.36l.765-1.258c.2-.326-.037-.7-.554-.882h0a14.339,14.339,0,0,0-2.137-.566c.19-.319.422-.783.314-1-.174-.345-2.025-.441-2.777-.492-.585-.039-.675.815-.686,1.2a13.457,13.457,0,0,0-2.136.124,7.583,7.583,0,0,0-2.037.562,3.237,3.237,0,0,0-1.293.983,2.12,2.12,0,0,0-.426,1.174,2.068,2.068,0,0,0,.511,1.478,4.458,4.458,0,0,0,1.317,1.02,8.9,8.9,0,0,0,1.654.66c.521.152,1.022.285,1.489.4l1.068.268a5.072,5.072,0,0,1,.707.227,1.133,1.133,0,0,1,.318.183.119.119,0,0,1,.02.086c-.007.163-.088.216-.255.266a4.661,4.661,0,0,1-1.483.132,8.908,8.908,0,0,1-1.6-.216,11.531,11.531,0,0,1-1.513-.443h0a1.542,1.542,0,0,0-1.737.339l-.769,1.336c-.18.312.033.667.512.854h0a13.7,13.7,0,0,0,2.325.654l.092.017c-.184.316-.464.864-.335,1.1.186.343,2.037.417,2.791.457.61.033.65-.894.643-1.249a15.767,15.767,0,0,0,2.152-.085,8.471,8.471,0,0,0,2.153-.5,4.276,4.276,0,0,0,1.53-.974,2.154,2.154,0,0,0,.62-1.441A2.049,2.049,0,0,0,1100.742,1599.5Z" transform="translate(-1076.685 -1590.868)" fill="#f7974d"/></g></g><g transform="translate(355.128 364.222)"><g transform="translate(6.196 17.904)"><g transform="translate(0 2.194)"><path d="M741.306,1773.243v4.217a1.314,1.314,0,0,0,.917,1.253c2.276.723,8.868,2.406,20.656,2.292,11.727-.113,18.506-1.517,20.9-2.121a1.313,1.313,0,0,0,.991-1.274v-4.366Z" transform="translate(-741.306 -1773.243)" fill="#f7974d"/><g clip-path="url(#p)"><path d="M976.033,1775.968s.268,6.755-.4,6.554-.6-6.266-.6-6.266Z" transform="translate(-937.007 -1775.525)" fill="#ffcc59" opacity="0.5"/><path d="M947.195,1780.673s.268,6.755-.4,6.554-.6-6.266-.6-6.266Z" transform="translate(-912.86 -1779.464)" fill="#ffcc59" opacity="0.5"/><path d="M901.8,1782.709s.268,6.755-.4,6.554-.6-6.265-.6-6.265Z" transform="translate(-874.854 -1781.169)" fill="#ffcc59" opacity="0.5"/><path d="M857.754,1790.494s-.268-6.755.4-6.554.6,6.266.6,6.266Z" transform="translate(-838.768 -1782.197)" fill="#ffcc59" opacity="0.5"/><path d="M820.265,1787.231s-.268-6.755.4-6.554.6,6.266.6,6.266Z" transform="translate(-807.377 -1779.464)" fill="#ffcc59" opacity="0.5"/><path d="M779.638,1783.516s-.268-6.755.4-6.554.6,6.266.6,6.266Z" transform="translate(-773.359 -1776.354)" fill="#ffcc59" opacity="0.5"/><path d="M750.8,1779.8s-.268-6.755.4-6.554.6,6.266.6,6.266Z" transform="translate(-749.212 -1773.243)" fill="#ffcc59" opacity="0.5"/></g></g><ellipse cx="21.731" cy="2.194" rx="21.731" ry="2.194" fill="#ffcc59"/><g clip-path="url(#q)"><path d="M742.843,1769.638" transform="translate(-742.593 -1768.031)" fill="#ffcc59"/><path d="M745.164,1759.554a112.7,112.7,0,0,0,28.39,1.254c14.081-1.452,13.989-2.14,13.989-2.14l-6.284-1.147-36.1,2.033" transform="translate(-744.536 -1757.885)" fill="#f78537"/></g></g><g transform="translate(0 10.58)"><g transform="translate(0 2.194)"><path d="M703.219,1728.219v4.217a1.314,1.314,0,0,0,.916,1.253c2.276.723,8.868,2.406,20.656,2.292,11.727-.114,18.506-1.517,20.9-2.121a1.313,1.313,0,0,0,.991-1.274v-4.366Z" transform="translate(-703.219 -1728.219)" fill="#f7974d"/><g clip-path="url(#r)"><path d="M727.806,1731.694s.072,8.106.28,7.643.883-7.573.883-7.573Z" transform="translate(-723.807 -1731.129)" fill="#ffcc59" opacity="0.5"/><path d="M767.069,1743.447c-.02-.2-.116-6.543.193-6.312s.27,6.312.27,6.312Z" transform="translate(-756.657 -1735.679)" fill="#ffcc59" opacity="0.5"/><path d="M816.629,1744.033s-.4-6.657-.107-6.547,1.24,6.06,1.1,6.544S816.629,1744.033,816.629,1744.033Z" transform="translate(-798.002 -1735.978)" fill="#ffcc59" opacity="0.5"/><path d="M870.589,1741.209s-.353-8.466-.023-8.218.66,8.045.66,8.045l-1.114.083" transform="translate(-842.964 -1732.21)" fill="#ffcc59" opacity="0.5"/></g></g><g transform="translate(0)"><ellipse cx="21.731" cy="2.194" rx="21.731" ry="2.194" fill="#ffcc59"/><g clip-path="url(#q)"><path d="M766.916,1710.942s2.92,4.387,15.7,4.388,9.384-.669,9.384-.669-22.119-4.4-22.741-4.453A8.48,8.48,0,0,0,766.916,1710.942Z" transform="translate(-756.555 -1710.942)" fill="#f7974d" opacity="0.5"/></g></g></g><g transform="translate(5.163 0)"><g transform="translate(0 2.143)"><path d="M735.886,1662.868l-.9,4.12a1.314,1.314,0,0,0,.628,1.419c2.069,1.192,8.151,4.241,19.693,6.643,11.482,2.389,18.4,2.463,20.87,2.383a1.313,1.313,0,0,0,1.239-1.034l.931-4.266Z" transform="translate(-734.956 -1662.868)" fill="#f7974d"/><g clip-path="url(#t)"><path d="M745.378,1674.648c.188-.062,1.682-6.052,2.016-5.76s-1.46,6.092-1.46,6.092Z" transform="translate(-743.683 -1667.9)" fill="#ffcc59" opacity="0.5"/><path d="M766.916,1685.712c.382-.165,2.285-6.068,2.591-5.613s-1.86,5.894-1.86,5.894Z" transform="translate(-761.717 -1677.275)" fill="#ffcc59" opacity="0.5"/><path d="M805.794,1695.521s1.835-7.163,2.164-6.751-1.521,6.743-1.521,6.743Z" transform="translate(-794.271 -1684.542)" fill="#ffcc59" opacity="0.5"/><path d="M855.492,1707.15c.37-.979,1.274-6.29,1.48-6.307s-.7,6.557-.7,6.557Z" transform="translate(-835.885 -1694.666)" fill="#ffcc59" opacity="0.5"/><path d="M900.837,1714.9s.495-7.045.989-6.836-.3,6.836-.3,6.836Z" transform="translate(-873.854 -1700.706)" fill="#ffcc59" opacity="0.5"/><path d="M937.651,1720.782s.4-6.564.7-6.147-.075,6.147-.075,6.147Z" transform="translate(-904.679 -1706.198)" fill="#ffcc59" opacity="0.5"/><path d="M972.539,1718.886s-.495,6.274-.185,6,.649-5.811.649-5.811Z" transform="translate(-933.652 -1709.774)" fill="#ffcc59" opacity="0.5"/></g></g><ellipse cx="2.194" cy="21.731" rx="2.194" ry="21.731" transform="matrix(0.213, -0.977, 0.977, 0.213, 0.462, 4.287)" fill="#ffcc59"/></g><path d="M874.9,1741.149s10.714,2.161,15.535,1.78a1.483,1.483,0,0,1-.991,1.757S877.762,1744.565,874.9,1741.149Z" transform="translate(-846.97 -1726.272)" fill="#f78537"/></g><g transform="translate(350.357 70.641)"><path d="M1155.875,1090.792c6.151,13.946,8.414,30.781,9.215,47.516.78,16.3.343,32.67,1.061,48.97.7,15.772,2.6,31.991,8.35,45.232a55.073,55.073,0,0,0,10.928,16.8,33.8,33.8,0,0,0,12.908,8.248c9.429,3.3,19.189,2.387,28.765,2.106q1.773-.053,3.547-.074c1.117-.012,1.119-2.778,0-2.767-9.5.1-19.124,1.364-28.556-.957a32.409,32.409,0,0,1-13.089-6.477,46.734,46.734,0,0,1-11.337-14.744c-6.3-12.221-8.689-28-9.581-43.431-.93-16.109-.506-32.325-1.077-48.464-.587-16.6-2.253-33.542-7.542-48.136q-.972-2.682-2.093-5.215c-.638-1.446-2.144-.065-1.5,1.4Z" transform="translate(-1084.34 -966.808)" fill="#1c056d"/><g transform="translate(0 0)"><path d="M845.431,433.259a39.649,39.649,0,0,0-10-11.9,53.376,53.376,0,0,0-12.738-7.5c-4.09-1.711-8.2-3.256-12.213-4.594-2.385-.793-4.755-1.648-7.044-2.542a25.467,25.467,0,0,1-4.838-2.459,7.573,7.573,0,0,1-2.168-2.086,2.8,2.8,0,0,1-.266-1.378c0-.3,0-.586.963-1.283.538-.39,2.776-1.661,8.963-1.661a48.057,48.057,0,0,1,10.172,1.224,55.994,55.994,0,0,1,10.829,3.562h0a8.792,8.792,0,0,0,11.938-5.276l5.234-15.889a8.792,8.792,0,0,0-4.341-10.575h0a71.343,71.343,0,0,0-16.378-5.987q-1.027-.238-2.081-.448c1.322-4.022,3.033-10.186,2.137-12.874-1.386-4.158-15.014-4.389-20.558-4.62-4.716-.2-4.751,12.439-4.657,16.216a58.388,58.388,0,0,0-13.241,2.47,42.445,42.445,0,0,0-14.8,7.966,32.64,32.64,0,0,0-9.2,12.771,39.453,39.453,0,0,0-2.772,14.67,36.38,36.38,0,0,0,4.211,17.925,39.857,39.857,0,0,0,9.989,11.873,51.359,51.359,0,0,0,12.357,7.268c3.877,1.6,7.6,2.984,11.061,4.1l7.933,2.746a26.873,26.873,0,0,1,5.264,2.434,8.173,8.173,0,0,1,2.391,2.086,2.176,2.176,0,0,1,.17,1.047c0,2.017-.577,2.7-1.792,3.4-2.757,1.588-6.409,2.394-10.856,2.394a40.154,40.154,0,0,1-11.791-1.831c-4.216-1.3-8.842-1.8-12.1-3.612-4.875-2.706-10.167-1.315-11.824,4.009l-5.242,16.838a8.792,8.792,0,0,0,4.029,10.245h0a67.958,67.958,0,0,0,15.131,6.268c-1.154,3.985-2.364,9.278-1.5,11.689,1.472,4.128,15.1,4.077,20.649,4.192,3.709.078,4.363-7.71,4.389-12.88a72.033,72.033,0,0,0,17.968-2.185,45.009,45.009,0,0,0,15.666-7.326,37.831,37.831,0,0,0,10.945-12.778,38.288,38.288,0,0,0,4.116-18.062A36.167,36.167,0,0,0,845.431,433.259Z" transform="translate(-751.114 -345.66)" fill="#f7974d"/><path d="M804.592,424.239a39.644,39.644,0,0,0-9.995-11.9,53.387,53.387,0,0,0-12.738-7.5c-4.09-1.71-8.2-3.256-12.214-4.594-2.385-.793-4.755-1.648-7.044-2.542a25.466,25.466,0,0,1-4.838-2.459,7.571,7.571,0,0,1-2.168-2.086,2.8,2.8,0,0,1-.266-1.378c0-.3,0-.586.963-1.283.538-.39,2.776-1.661,8.963-1.661a48.057,48.057,0,0,1,10.172,1.224,55.99,55.99,0,0,1,10.829,3.562h0a8.792,8.792,0,0,0,11.938-5.276l5.234-15.889a8.792,8.792,0,0,0-4.341-10.575h0A71.327,71.327,0,0,0,783.2,356.01c1.3-4.019,2.865-9.858,2-12.454-1.386-4.158-15.014-4.389-20.558-4.62-4.315-.18-4.712,10.384-4.675,15.075a60.913,60.913,0,0,0-15.661,2.624,42.447,42.447,0,0,0-14.8,7.966,32.643,32.643,0,0,0-9.2,12.771,39.459,39.459,0,0,0-2.771,14.67,36.38,36.38,0,0,0,4.211,17.925,39.864,39.864,0,0,0,9.989,11.873,51.354,51.354,0,0,0,12.357,7.268c3.877,1.6,7.6,2.984,11.061,4.1l7.933,2.746a26.881,26.881,0,0,1,5.264,2.434,8.17,8.17,0,0,1,2.39,2.086,2.173,2.173,0,0,1,.171,1.047c0,2.017-.577,2.7-1.792,3.4-2.756,1.588-6.409,2.394-10.856,2.394a40.154,40.154,0,0,1-11.791-1.831,59.007,59.007,0,0,1-11.258-4.677h0a8.792,8.792,0,0,0-12.662,5.073l-5.242,16.838a8.792,8.792,0,0,0,4.029,10.245h0a69.2,69.2,0,0,0,17.289,6.851c.225.057.454.112.682.167-1.258,3.98-3.141,10.875-2.123,13.731,1.472,4.128,15.1,4.076,20.649,4.192,4.491.094,4.5-11.344,4.344-15.7a70.7,70.7,0,0,0,15.79-2.153,45.009,45.009,0,0,0,15.666-7.326,37.832,37.832,0,0,0,10.945-12.778,38.29,38.29,0,0,0,4.116-18.062A36.164,36.164,0,0,0,804.592,424.239Z" transform="translate(-716.919 -338.934)" fill="#ffcc59"/></g></g></g></g></svg>