<svg xmlns="http://www.w3.org/2000/svg" width="102" height="102" viewBox="0 0 102 102"><g transform="translate(-749 -11637)"><g transform="translate(0 150)"><circle cx="51" cy="51" r="51" transform="translate(749 11487)" fill="#a488f5"/><g transform="translate(694.938 11492)"><g transform="translate(73.348 1.348)"><path d="M137.539,134.2H84.891a5.391,5.391,0,0,1-5.391-5.391V58.48a5.391,5.391,0,0,1,5.391-5.391h52.648a5.391,5.391,0,0,1,5.391,5.391v70.332A5.391,5.391,0,0,1,137.539,134.2Z" transform="translate(-79.5 -44.897)" fill="#8b808e"/><path d="M377.891,53.089H372.5a5.391,5.391,0,0,1,5.391,5.391v70.332A5.391,5.391,0,0,1,372.5,134.2h5.391a5.391,5.391,0,0,0,5.391-5.391V58.48a5.391,5.391,0,0,0-5.391-5.391Z" transform="translate(-319.852 -44.897)" fill="#766c78"/><path d="M109.5,152.163V84.347a1.258,1.258,0,0,1,1.258-1.258h50.133a1.258,1.258,0,0,1,1.258,1.258v67.816a1.258,1.258,0,0,1-1.258,1.258H110.758A1.258,1.258,0,0,1,109.5,152.163Z" transform="translate(-104.109 -69.507)" fill="#f7f6f7"/><path d="M370.891,83.089H365.5a1.258,1.258,0,0,1,1.258,1.258v67.816a1.258,1.258,0,0,1-1.258,1.258h5.391a1.258,1.258,0,0,0,1.258-1.258V84.347A1.258,1.258,0,0,0,370.891,83.089Z" transform="translate(-314.109 -69.507)" fill="#edebed"/><path d="M199.176,12.172a1.794,1.794,0,0,1-1.613-.978,6.651,6.651,0,0,0-11.915,0,1.8,1.8,0,0,1-1.613.978H179.3a1.8,1.8,0,0,0-1.8,1.8v8.8a1.8,1.8,0,0,0,1.8,1.8h24.617a1.8,1.8,0,0,0,1.8-1.8v-8.8a1.8,1.8,0,0,0-1.8-1.8Z" transform="translate(-159.891 -7.5)" fill="#655e68"/><path d="M299.891,33.5H296.3V44.1a1.8,1.8,0,0,1-1.8,1.8h5.391a1.789,1.789,0,0,0,1-.307q.072-.049.138-.1a1.794,1.794,0,0,0,.645-1.2,1.825,1.825,0,0,0,.009-.184V35.3A1.8,1.8,0,0,0,299.891,33.5Z" transform="translate(-255.867 -28.828)" fill="#544f57"/><g transform="translate(10.781 21.799)"><g transform="translate(0 35.016)"><path d="M154.539,404.691l-2.059-7.779h5.551l1.822,7.424a.719.719,0,0,1-.7.89h-3.921A.719.719,0,0,1,154.539,404.691Z" transform="translate(-150.148 -383.755)" fill="#655e68"/><path d="M195.582,342.512,184.5,337.671v-9.066l11.082-4.841a.9.9,0,0,1,1.258.823v17.1A.9.9,0,0,1,195.582,342.512Z" transform="translate(-176.414 -323.688)" fill="#e2dfe3"/><path d="M227.31,323.764l-4.133,1.805v15.137l4.133,1.805a.9.9,0,0,0,1.258-.823v-17.1A.9.9,0,0,0,227.31,323.764Z" transform="translate(-208.141 -323.688)" fill="#d3ced4"/><path d="M147.586,351.053v9.066h-3.553a4.533,4.533,0,1,1,0-9.066Z" transform="translate(-139.5 -346.136)" fill="#ff8086"/></g><g transform="translate(32.523)"><circle cx="4.672" cy="4.672" r="4.672" transform="translate(0 0)" fill="#ff8086"/><path d="M337.769,128.817a4.651,4.651,0,0,0-1.912.41,4.672,4.672,0,0,1,0,8.525,4.672,4.672,0,1,0,1.912-8.934Z" transform="translate(-333.098 -128.817)" fill="#e5646e"/></g></g></g><path d="M104.887,57.183A2.24,2.24,0,0,0,102.758,57L91.933,61.732H88.662a5.879,5.879,0,0,0-3.286,10.755l1.841,6.957a2.068,2.068,0,0,0,2,1.538h3.921a2.066,2.066,0,0,0,2.007-2.559l-.97-3.951,8.585,3.75h0a2.246,2.246,0,0,0,3.145-2.058v-17.1a2.238,2.238,0,0,0-1.016-1.88ZM86.53,69.972a3.18,3.18,0,0,1,2.132-5.545h2.205v5.545ZM89.7,78.287l-1.27-4.8c.326.036,2.419.005,2.729.006l1.176,4.793Zm13.508-2.81-9.645-4.213v-7.3l9.645-4.213ZM121.324,21.8a6.02,6.02,0,1,0,6.02,6.02A6.026,6.026,0,0,0,121.324,21.8Zm0,9.344a3.324,3.324,0,1,1,3.324-3.324A3.328,3.328,0,0,1,121.324,31.143ZM124.648,57.7A11.321,11.321,0,0,0,113.34,46.392H96.785a8.613,8.613,0,1,1,0-17.226h11.551l-.794.928a1.348,1.348,0,1,0,2.048,1.752l2.7-3.152a1.359,1.359,0,0,0,0-1.752l-2.7-3.152a1.348,1.348,0,0,0-2.048,1.752l.794.928H96.785a11.308,11.308,0,1,0,0,22.616H113.34a8.613,8.613,0,1,1,0,17.226h-2.258a1.348,1.348,0,0,0,0,2.7h2.258A11.321,11.321,0,0,0,124.648,57.7Zm6.738-49.508H120.516a3.191,3.191,0,0,0-3.145-3.52h-4.738a.448.448,0,0,1-.406-.23,8,8,0,0,0-14.329,0,.448.448,0,0,1-.406.23H92.754a3.178,3.178,0,0,0-3.145,3.52H78.738A6.746,6.746,0,0,0,72,14.93V85.262A6.746,6.746,0,0,0,78.738,92h52.648a6.746,6.746,0,0,0,6.738-6.738V14.93a6.746,6.746,0,0,0-6.738-6.738Zm4.043,77.07a4.048,4.048,0,0,1-4.043,4.043H78.738A4.048,4.048,0,0,1,74.7,85.262V14.93a4.048,4.048,0,0,1,4.043-4.043H89.609v2.7H80a2.608,2.608,0,0,0-2.605,2.605V84A2.608,2.608,0,0,0,80,86.609h50.133A2.608,2.608,0,0,0,132.734,84V62.7a1.348,1.348,0,0,0-2.7,0V83.914H80.086V16.278h9.523a3.188,3.188,0,0,0,3.145,3.488H104.2a1.348,1.348,0,0,0,0-2.7H92.754a.45.45,0,0,1-.449-.449v-8.8a.45.45,0,0,1,.449-.449h4.738a3.161,3.161,0,0,0,2.82-1.726,5.3,5.3,0,0,1,9.5,0,3.161,3.161,0,0,0,2.82,1.726h4.738a.45.45,0,0,1,.449.449v8.8a.45.45,0,0,1-.449.449h-6.884a1.348,1.348,0,1,0,0,2.7h6.884a3.2,3.2,0,0,0,3.145-3.488h9.523V56.411a1.348,1.348,0,0,0,2.7,0V16.188a2.608,2.608,0,0,0-2.605-2.605h-9.613v-2.7h10.871a4.048,4.048,0,0,1,4.043,4.043Zm-31.592-51.4a1.348,1.348,0,0,0-1.906,0l-2.093,2.093-2.093-2.093a1.348,1.348,0,1,0-1.906,1.906l2.094,2.094L95.839,39.95a1.348,1.348,0,0,0,1.906,1.906l2.093-2.093,2.093,2.093a1.348,1.348,0,0,0,1.906-1.906l-2.094-2.093,2.094-2.094A1.348,1.348,0,0,0,103.837,33.858ZM125.4,71.592a1.348,1.348,0,0,0-1.906,0L121.4,73.685l-2.093-2.093A1.348,1.348,0,0,0,117.4,73.5l2.094,2.094L117.4,77.685a1.348,1.348,0,0,0,1.906,1.906L121.4,77.5l2.093,2.093a1.348,1.348,0,0,0,1.906-1.906l-2.094-2.093L125.4,73.5A1.348,1.348,0,0,0,125.4,71.592Z"/></g></g></g></svg>