<svg xmlns="http://www.w3.org/2000/svg" xmlns:xlink="http://www.w3.org/1999/xlink" width="102" height="102" viewBox="0 0 102 102"><defs><clipPath id="a"><rect width="92" height="92" transform="translate(0.256 0.256)" fill="#fff"/></clipPath></defs><g transform="translate(-329 -11637)"><g transform="translate(0 150)"><circle cx="51" cy="51" r="51" transform="translate(329 11487)" fill="#a488f5"/><g transform="translate(333.744 11491.744)" clip-path="url(#a)"><g transform="translate(0)"><circle cx="4.401" cy="4.401" r="4.401" transform="translate(19.308 62.299)" fill="#fe646f"/><path d="M13.993,70.24a4.4,4.4,0,0,1-4.4-4.4V50.747h8.8V65.839a4.4,4.4,0,0,1-4.4,4.4Z" transform="translate(1.785 9.441)" fill="#7a6d79"/><path d="M19.819,58.069H13.933a8.948,8.948,0,1,1,0-17.9h5.886A2.182,2.182,0,0,1,22,42.355V55.887A2.182,2.182,0,0,1,19.819,58.069Z" transform="translate(0.927 7.474)" fill="#8379c1"/><path d="M18.342,40.173H12.921A2.182,2.182,0,0,1,15.1,42.355V55.887a2.182,2.182,0,0,1-2.182,2.182h5.421a2.182,2.182,0,0,0,2.182-2.182V42.355A2.182,2.182,0,0,0,18.342,40.173Z" transform="translate(2.404 7.474)" fill="#6e61b6"/><path d="M43.095,30.34V71.559s-7.519-8.947-23.763-13.948V44.289C35.575,39.774,43.095,30.34,43.095,30.34Z" transform="translate(3.597 5.645)" fill="#eef5f6"/><path d="M34.8,35.342V66.734a34.829,34.829,0,0,1,5.421,4.825V30.34a33.183,33.183,0,0,1-5.421,5Z" transform="translate(6.474 5.645)" fill="#deecf1"/><path d="M42.077,75.9a2.71,2.71,0,0,1-2.71-2.71V29.467a2.71,2.71,0,0,1,5.421,0V73.193A2.71,2.71,0,0,1,42.077,75.9Z" transform="translate(7.324 4.978)" fill="#fe646f"/><path d="M79.054,24.27H55.565A2.168,2.168,0,0,1,53.4,22.1V3.311a2.168,2.168,0,0,1,2.168-2.168H79.054a2.168,2.168,0,0,1,2.168,2.168V22.1A2.168,2.168,0,0,1,79.054,24.27Z" transform="translate(9.934 0.213)" fill="#8379c1"/><path d="M75.88,1.143H70.459a2.168,2.168,0,0,1,2.168,2.168V22.1a2.168,2.168,0,0,1-2.168,2.168H75.88A2.168,2.168,0,0,0,78.048,22.1V3.311A2.168,2.168,0,0,0,75.88,1.143Z" transform="translate(13.109 0.213)" fill="#6e61b6"/><path d="M79.054,79.954H55.565A2.168,2.168,0,0,1,53.4,77.786V62.379a2.168,2.168,0,0,1,2.168-2.168H79.054a2.168,2.168,0,0,1,2.168,2.168V77.786A2.168,2.168,0,0,1,79.054,79.954Z" transform="translate(9.934 11.202)" fill="#ffd15b"/><path d="M75.88,60.211H70.459a2.168,2.168,0,0,1,2.168,2.168V77.786a2.168,2.168,0,0,1-2.168,2.168H75.88a2.168,2.168,0,0,0,2.168-2.168V62.379A2.168,2.168,0,0,0,75.88,60.211Z" transform="translate(13.109 11.202)" fill="#ffc344"/><path d="M35.4,30.916H3.311a2.168,2.168,0,0,1-2.168-2.168V7.24A2.168,2.168,0,0,1,3.311,5.072H35.4A2.168,2.168,0,0,1,37.566,7.24V28.748A2.168,2.168,0,0,1,35.4,30.916Z" transform="translate(0.213 0.944)" fill="#918291"/><path d="M30.875,5.072H25.454A2.168,2.168,0,0,1,27.623,7.24V28.748a2.168,2.168,0,0,1-2.168,2.168h5.421a2.168,2.168,0,0,0,2.168-2.168V7.24a2.168,2.168,0,0,0-2.168-2.168Z" transform="translate(4.736 0.944)" fill="#7a6d79"/><path d="M59.242,10.638h7.227a1.355,1.355,0,0,0,0-2.71H59.242a1.355,1.355,0,0,0,0,2.71Z" transform="translate(10.77 1.475)"/><path d="M72.555,12.194H59.24a1.355,1.355,0,0,0,0,2.71H72.555A1.355,1.355,0,0,0,72.555,12.194Z" transform="translate(10.772 2.269)"/><path d="M59.242,65.069a1.355,1.355,0,0,0,0,2.71h7.227a1.355,1.355,0,0,0,0-2.71Z" transform="translate(10.77 12.106)"/><path d="M57.887,70.69a1.355,1.355,0,0,0,1.355,1.355H72.557a1.355,1.355,0,0,0,0-2.71H59.242A1.355,1.355,0,0,0,57.887,70.69Z" transform="translate(10.77 12.899)"/><path d="M7.032,12.771h9.461a1.355,1.355,0,0,0,0-2.71H7.032a1.355,1.355,0,1,0,0,2.71Z" transform="translate(1.056 1.872)"/><path d="M24.211,14.824H7.03a1.355,1.355,0,0,0,0,2.71H24.211A1.355,1.355,0,0,0,24.211,14.824Z" transform="translate(1.058 2.758)"/><path d="M24.211,19.588H7.03a1.355,1.355,0,0,0,0,2.71H24.211A1.355,1.355,0,0,0,24.211,19.588Z" transform="translate(1.058 3.644)"/><path d="M76.522,44.769a1.355,1.355,0,0,0,1.355-1.355V25.838H88.267a3.527,3.527,0,0,0,3.523-3.523V3.523A3.527,3.527,0,0,0,88.267,0H64.777a3.527,3.527,0,0,0-3.523,3.523V22.315a3.527,3.527,0,0,0,3.523,3.523H75.167V42.059H52.745V34.444a4.066,4.066,0,0,0-8.131,0v1.037c-1.472,1.646-8.443,8.805-21.435,12.757a3.538,3.538,0,0,0-3.155-1.947H14.139C3.4,46.378-.032,60.683,9.3,65.687V75.28a5.756,5.756,0,0,0,11.512,0V72.027a5.786,5.786,0,0,0,7.914-4.9c9.415,4.142,14.607,9.241,15.889,10.6a4.076,4.076,0,1,0,8.131.444v-2.5a1.355,1.355,0,0,0-2.71,0v2.5a1.355,1.355,0,0,1-2.71,0V34.444a1.355,1.355,0,0,1,2.71,0V69.365a1.355,1.355,0,1,0,2.71,0V59.619H75.167V70.058H64.777a3.527,3.527,0,0,0-3.523,3.523V88.988a3.527,3.527,0,0,0,3.523,3.523H88.267a3.527,3.527,0,0,0,3.523-3.523V73.581a3.527,3.527,0,0,0-3.523-3.523H77.877V58.264a1.355,1.355,0,0,0-1.355-1.355H52.745V44.769H76.522ZM63.964,22.315V3.523a.814.814,0,0,1,.813-.813H88.267a.814.814,0,0,1,.813.813V22.315a.814.814,0,0,1-.813.813H64.777A.814.814,0,0,1,63.964,22.315ZM6.546,56.595A7.6,7.6,0,0,1,14.139,49h5.886a.828.828,0,0,1,.827.827V63.361a.828.828,0,0,1-.827.827H14.139a7.6,7.6,0,0,1-7.593-7.593Zm8.509,21.731A3.049,3.049,0,0,1,12.01,75.28V66.675c1.375.358,4.641.185,6.091.222V75.28a3.049,3.049,0,0,1-3.046,3.045ZM26.032,66.7a3.051,3.051,0,0,1-5.221,2.125V66.807a3.546,3.546,0,0,0,2.352-1.822q1.44.478,2.781.994a3.044,3.044,0,0,1,.088.721Zm-2.471-4.437V50.954a52.793,52.793,0,0,0,21.053-11.6V73.938A58.29,58.29,0,0,0,23.562,62.262ZM89.08,73.581V88.988a.814.814,0,0,1-.813.813H64.777a.814.814,0,0,1-.813-.813V73.581a.814.814,0,0,1,.813-.813H88.267A.814.814,0,0,1,89.08,73.581Z" transform="translate(0.722)"/><path d="M18.206,40.447a1.355,1.355,0,1,0,2.71,0V32.484H35.611a3.527,3.527,0,0,0,3.523-3.523V7.453a3.527,3.527,0,0,0-3.523-3.523h-3.3a1.355,1.355,0,0,0,0,2.71h3.3a.814.814,0,0,1,.813.813V28.96a.814.814,0,0,1-.813.813H3.523a.814.814,0,0,1-.813-.813V7.453a.814.814,0,0,1,.813-.813h22.63a1.355,1.355,0,0,0,0-2.71H3.523A3.527,3.527,0,0,0,0,7.453V28.96a3.527,3.527,0,0,0,3.523,3.523H18.206Z" transform="translate(0 0.731)"/></g></g></g></g></svg>