<svg xmlns="http://www.w3.org/2000/svg" xmlns:xlink="http://www.w3.org/1999/xlink" width="85" height="85" viewBox="0 0 85 85"><defs><clipPath id="a"><rect width="67" height="67" transform="translate(1029 4864.966)" fill="#fff"/></clipPath></defs><g transform="translate(-809.998 -10738.034)"><rect width="85" height="85" transform="translate(809.998 10738.034)" fill="#26d19e"/><g transform="translate(-210.002 5882.034)" clip-path="url(#a)"><g transform="translate(1029 4864.966)"><path d="M19.648,43.915c2.469,1.8,3.383,3.589,3.383,6.074H43.969c0-2.485.914-4.276,3.383-6.074a23.555,23.555,0,1,0-27.7,0Z" fill="#ffee80" fill-rule="evenodd"/><path d="M43.969,49.988H23.031a2.617,2.617,0,1,0,0,5.234H43.969a2.617,2.617,0,1,0,0-5.234Z" fill="#f3eff0" fill-rule="evenodd"/><path d="M43.969,55.223H23.031a2.617,2.617,0,1,0,0,5.234H43.969a2.617,2.617,0,0,0,0-5.234Z" fill="#f3eff0" fill-rule="evenodd"/><path d="M43.969,60.457H23.031v2.617a2.625,2.625,0,0,0,2.617,2.617h15.7a2.625,2.625,0,0,0,2.617-2.617Z" fill="#8690af" fill-rule="evenodd"/><path d="M36.241,31.236a2.741,2.741,0,0,1-5.482,0c0-3.82.249-4.064,3.836-7.574.249-.243.518-.507.809-.794a2.712,2.712,0,1,0-4.29-3.227,2.731,2.731,0,0,1-4.8-2.613A8.223,8.223,0,0,1,29.33,13.9a8.179,8.179,0,0,1,9.907,12.869c-.291.287-.561.551-.809.794-2.045,2-2.187,2.14-2.187,3.676Z" fill="#fff" fill-rule="evenodd"/><circle cx="2.741" cy="2.741" r="2.741" transform="translate(30.346 42.907) rotate(-80.792)" fill="#fff"/><path d="M33.5,0A24.837,24.837,0,0,0,20.827,3.47,1.309,1.309,0,0,0,22.163,5.72,22.247,22.247,0,0,1,46.581,42.857c-2.335,1.7-3.528,3.489-3.838,5.823H24.257c-.309-2.334-1.5-4.123-3.838-5.823a22.251,22.251,0,0,1-6.062-29.331,1.309,1.309,0,1,0-2.25-1.336,24.852,24.852,0,0,0,6.771,32.783,5.87,5.87,0,0,1,2.766,3.961,3.922,3.922,0,0,0-1.536,6.289,3.922,3.922,0,0,0,1.614,6.318v1.534A3.93,3.93,0,0,0,25.648,67h15.7a3.93,3.93,0,0,0,3.926-3.926V61.541a3.922,3.922,0,0,0,1.614-6.318,3.922,3.922,0,0,0-1.536-6.289,5.87,5.87,0,0,1,2.766-3.961A24.863,24.863,0,0,0,33.5,0Zm7.852,64.383h-15.7a1.31,1.31,0,0,1-1.309-1.309V61.766H42.66v1.309A1.31,1.31,0,0,1,41.352,64.383Zm2.617-5.234H23.031a1.309,1.309,0,0,1,0-2.617h4.58a1.309,1.309,0,1,0,0-2.617h-4.58a1.309,1.309,0,1,1,0-2.617H43.969a1.309,1.309,0,1,1,0,2.617H39.388a1.309,1.309,0,1,0,0,2.617h4.581a1.309,1.309,0,0,1,0,2.617Z"/><path d="M37.685,30.254A13.634,13.634,0,0,1,39.343,28.5c.25-.244.52-.509.813-.8A9.488,9.488,0,1,0,25.167,16.4a4.04,4.04,0,0,0,7.1,3.865,1.4,1.4,0,0,1,1.237-.726,1.4,1.4,0,0,1,1.4,1.4,1.409,1.409,0,0,1-.1.547,1.376,1.376,0,0,1-.3.452c-.289.285-.557.546-.807.791-3.666,3.587-4.229,4.139-4.229,8.509a4.05,4.05,0,1,0,8.1,0C37.55,30.541,37.587,30.415,37.685,30.254Zm-2.752.982a1.433,1.433,0,1,1-2.865,0c0-3.27,0-3.27,3.446-6.642.249-.244.518-.507.81-.794A4.018,4.018,0,0,0,33.5,16.924a4.017,4.017,0,0,0-3.535,2.091,1.423,1.423,0,0,1-2.5-1.36,6.871,6.871,0,0,1,6.034-3.6,6.87,6.87,0,0,1,4.82,11.775c-.29.286-.559.549-.807.791-2.085,2.04-2.58,2.525-2.58,4.612Z"/><path d="M29.45,40.645a4.05,4.05,0,1,0,4.05-4.05,4.054,4.054,0,0,0-4.05,4.05Zm5.482,0A1.433,1.433,0,1,1,33.5,39.212,1.434,1.434,0,0,1,34.933,40.645Z"/><path d="M16.845,9.516a1.309,1.309,0,1,0,0-2.617h0a1.309,1.309,0,0,0,0,2.617Z"/><path d="M33.5,53.914h0a1.309,1.309,0,1,0,1.31,1.309A1.308,1.308,0,0,0,33.5,53.914Z"/></g></g></g></svg>