<svg xmlns="http://www.w3.org/2000/svg" width="102" height="102" viewBox="0 0 102 102"><g transform="translate(-1169 -11637)"><g transform="translate(0 150)"><circle cx="51" cy="51" r="51" transform="translate(1169 11487)" fill="#a488f5"/><g transform="translate(1171.5 11481.617)"><g transform="translate(1.421 11.804)"><g transform="translate(17.859)"><path d="M245.522,381.356a2.449,2.449,0,0,1-2.449-2.449V356.082L245.522,355l2.449,1.082v22.825A2.449,2.449,0,0,1,245.522,381.356Z" transform="translate(-216.302 -291.132)" fill="#678d98"/><path d="M344.882,381.356a2.535,2.535,0,0,1-2.343-1.566l-9.8-23.708L334.556,355l3.668,1.082,9,21.771a2.535,2.535,0,0,1-2.342,3.5Z" transform="translate(-288.98 -291.132)" fill="#678d98"/><path d="M104.3,381.356a2.535,2.535,0,0,0,2.343-1.566l9.8-23.708-2.7-1.082-2.784,1.082-9,21.771A2.535,2.535,0,0,0,104.3,381.356Z" transform="translate(-101.767 -291.132)" fill="#678d98"/><path d="M245.522,17.883a2.449,2.449,0,0,0-2.449,2.449v7.053l2.449,1.066,2.449-1.066V20.332A2.449,2.449,0,0,0,245.522,17.883Z" transform="translate(-216.302 -17.883)" fill="#678d98"/></g><path d="M101.658,71.007V120.52a2.967,2.967,0,0,1-2.967,2.967H10.467A2.967,2.967,0,0,1,7.5,120.52V71.007a2.967,2.967,0,0,1,2.967-2.967H98.691A2.967,2.967,0,0,1,101.658,71.007Z" transform="translate(-7.5 -58.538)" fill="#eaf6ff"/><path d="M468.836,71.007V120.52a2.967,2.967,0,0,1-2.967,2.967H460.5a2.968,2.968,0,0,0,2.969-2.967V71.007A2.968,2.968,0,0,0,460.5,68.04h5.369A2.967,2.967,0,0,1,468.836,71.007Z" transform="translate(-374.678 -58.538)" fill="#c8effe"/><path d="M71.471,113.184v5.744A3.775,3.775,0,0,1,67.7,122.7H56.044a3.774,3.774,0,0,1-3.774-3.774v-5.744a3.774,3.774,0,0,1,3.774-3.774H67.7A3.775,3.775,0,0,1,71.471,113.184Z" transform="translate(-43.788 -92.07)" fill="#5986cb"/><path d="M114.811,113.184v5.744a3.775,3.775,0,0,1-3.776,3.774h-5.3a3.775,3.775,0,0,0,3.776-3.774v-5.744a3.775,3.775,0,0,0-3.776-3.774h5.3A3.775,3.775,0,0,1,114.811,113.184Z" transform="translate(-87.128 -92.07)" fill="#4278c3"/><path d="M140.169,152.571v4.337a2.85,2.85,0,0,1-2.851,2.849h-8.8a2.848,2.848,0,0,1-2.849-2.849v-4.337a2.85,2.85,0,0,1,2.849-2.851h8.8A2.852,2.852,0,0,1,140.169,152.571Z" transform="translate(-103.282 -124.743)" fill="#fff9df"/><path d="M171.586,152.571v4.337a2.85,2.85,0,0,1-2.851,2.849h-4.3a2.848,2.848,0,0,0,2.849-2.849v-4.337a2.85,2.85,0,0,0-2.849-2.851h4.3A2.852,2.852,0,0,1,171.586,152.571Z" transform="translate(-134.699 -124.743)" fill="#fff0ad"/><path d="M339.486,68.04V113.5a3.131,3.131,0,0,1-3.132,3.13H312.908a3.131,3.131,0,0,1-3.13-3.13V68.04Z" transform="translate(-252.511 -58.538)" fill="#fff9df"/><path d="M428.355,68.04V113.5a3.131,3.131,0,0,1-3.132,3.13h-5.8a3.129,3.129,0,0,0,3.13-3.13V68.04Z" transform="translate(-341.379 -58.538)" fill="#fff0ad"/><path d="M364.645,45.969v3.486a3.007,3.007,0,0,1-3.007,3.009H353.3a3.009,3.009,0,0,1-3.009-3.009V45.969A3.009,3.009,0,0,1,353.3,42.96h8.342A3.007,3.007,0,0,1,364.645,45.969Z" transform="translate(-285.346 -38.209)" fill="#7ca1b1"/><path d="M393.4,45.969v3.486a3.007,3.007,0,0,1-3.007,3.009h-4.628a3.009,3.009,0,0,0,3.009-3.009V45.969a3.009,3.009,0,0,0-3.009-3.009H390.4A3.007,3.007,0,0,1,393.4,45.969Z" transform="translate(-314.104 -38.209)" fill="#678d98"/><path d="M341.836,123.868h4.9v4.9h-4.9Z" transform="translate(-278.495 -103.789)" fill="#4278c3"/><path d="M341.836,209.421h4.9v4.9h-4.9Z" transform="translate(-278.495 -173.134)" fill="#ffd064"/><path d="M341.836,265.124h4.9v4.9h-4.9Z" transform="translate(-278.495 -218.284)" fill="#4278c3"/></g><g transform="translate(0 10.383)"><path d="M92.611,19.885H82.142a4.518,4.518,0,0,0-4.429-4.751H69.371a4.518,4.518,0,0,0-4.429,4.751H52.37V14.253a3.87,3.87,0,0,0-7.74,0v5.632H4.388A4.393,4.393,0,0,0,0,24.274V73.786a4.393,4.393,0,0,0,4.388,4.388H26.351L18.162,97.982A3.956,3.956,0,0,0,25.473,101l2.594-6.274a1.421,1.421,0,0,0-2.626-1.086l-2.594,6.274a1.114,1.114,0,0,1-2.059-.851l8.638-20.893h2.411l-3.792,9.171a1.421,1.421,0,0,0,2.626,1.086l4.241-10.257H44.63v21.4a3.87,3.87,0,1,0,7.74,0v-21.4h9.718L71.526,101a3.956,3.956,0,0,0,7.311-3.023L70.649,78.174h8.742a1.421,1.421,0,1,0,0-2.842h-75a1.548,1.548,0,0,1-1.547-1.547V24.274a1.548,1.548,0,0,1,1.547-1.547H57.267V66.765a4.557,4.557,0,0,0,4.552,4.552H85.265a4.557,4.557,0,0,0,4.552-4.552V22.727h2.794a1.548,1.548,0,0,1,1.547,1.547V73.786a1.548,1.548,0,0,1-1.547,1.547H86.2a1.421,1.421,0,0,0,0,2.842h6.411A4.393,4.393,0,0,0,97,73.786V24.274a4.394,4.394,0,0,0-4.388-4.388ZM67.574,78.174l8.638,20.893a1.114,1.114,0,0,1-2.059.851l-8.99-21.744Zm-18.046,0v21.4a1.029,1.029,0,0,1-2.056,0v-21.4ZM67.784,19.563a1.589,1.589,0,0,1,1.587-1.587h8.341A1.589,1.589,0,0,1,79.3,19.563V23.05a1.589,1.589,0,0,1-1.587,1.587H69.372a1.589,1.589,0,0,1-1.587-1.587Zm-20.313.322V14.253a1.029,1.029,0,0,1,2.056,0v5.632Zm39.5,46.879a1.712,1.712,0,0,1-1.71,1.71H61.819a1.712,1.712,0,0,1-1.71-1.71V22.727h4.834a4.518,4.518,0,0,0,4.429,4.751h8.341a4.518,4.518,0,0,0,4.429-4.751h4.834V66.765Z" transform="translate(0 -10.383)"/><path d="M47.191,259.557h30.83a1.421,1.421,0,0,0,0-2.842H48.612V245.009a1.421,1.421,0,0,0-2.842,0v13.127A1.421,1.421,0,0,0,47.191,259.557Z" transform="translate(-37.099 -199.407)"/><path d="M113.953,196.8a1.421,1.421,0,0,0-2.009-2.009l-8.1,8.1H98.365l-3.606-1.986a1.421,1.421,0,0,0-1.69.24l-3.7,3.7H85.849a1.42,1.42,0,0,0-1,.416l-6.6,6.6a1.421,1.421,0,1,0,2.009,2.009l6.184-6.184h3.524a1.42,1.42,0,0,0,1-.416l3.357-3.357,2.991,1.647a1.422,1.422,0,0,0,.685.176h6.431a1.42,1.42,0,0,0,1-.416Z" transform="translate(-63.083 -159.521)"/><path d="M335.757,124.108h4.9a1.421,1.421,0,0,0,1.421-1.421v-4.9a1.421,1.421,0,0,0-1.421-1.421h-4.9a1.421,1.421,0,0,0-1.421,1.421v4.9A1.421,1.421,0,0,0,335.757,124.108Zm1.421-4.9h2.056v2.056h-2.056Z" transform="translate(-270.995 -96.289)"/><path d="M340.655,201.92h-4.9a1.421,1.421,0,0,0-1.421,1.421v4.9a1.421,1.421,0,0,0,1.421,1.421h4.9a1.421,1.421,0,0,0,1.421-1.421v-4.9A1.421,1.421,0,0,0,340.655,201.92Zm-1.421,4.9h-2.056v-2.057h2.056Z" transform="translate(-270.995 -165.633)"/><path d="M340.655,257.624h-4.9a1.421,1.421,0,0,0-1.421,1.421v4.9a1.421,1.421,0,0,0,1.421,1.421h4.9a1.421,1.421,0,0,0,1.421-1.421v-4.9A1.421,1.421,0,0,0,340.655,257.624Zm-1.421,4.9h-2.056v-2.056h2.056Z" transform="translate(-270.995 -210.784)"/><path d="M387.81,129.294a1.421,1.421,0,0,0,0,2.842h7.968a1.421,1.421,0,0,0,0-2.842Z" transform="translate(-313.187 -106.766)"/><path d="M395.778,214.848H387.81a1.421,1.421,0,1,0,0,2.842h7.968a1.421,1.421,0,1,0,0-2.842Z" transform="translate(-313.187 -176.112)"/><path d="M416.175,270.551h-3.2a1.421,1.421,0,0,0,0,2.842h3.2a1.421,1.421,0,0,0,0-2.842Z" transform="translate(-333.584 -221.261)"/><path d="M335.757,174.913h12.735a1.421,1.421,0,1,0,0-2.842H335.757a1.421,1.421,0,1,0,0,2.842Z" transform="translate(-270.995 -141.439)"/><circle cx="1.469" cy="1.469" r="1.469" transform="translate(72.85 49.587) rotate(-13.3)"/><circle cx="1.469" cy="1.469" r="1.469" transform="translate(80.701 32.849) rotate(-67.486)"/><path d="M197.365,112.167H182.588a1.421,1.421,0,0,0,0,2.842h14.777a1.421,1.421,0,0,0,0-2.842Z" transform="translate(-146.844 -92.884)"/><path d="M239.854,148.921a1.421,1.421,0,0,0-1.421-1.421h-5.178a1.421,1.421,0,1,0,0,2.842h5.178A1.421,1.421,0,0,0,239.854,148.921Z" transform="translate(-187.912 -121.523)"/><path d="M49.964,104.752H61.615a2.347,2.347,0,0,1,1.835.878,1.421,1.421,0,1,0,2.211-1.784,5.177,5.177,0,0,0-4.047-1.935H49.964a5.2,5.2,0,0,0-5.195,5.195v5.744a5.2,5.2,0,0,0,5.195,5.195h8.711a4.324,4.324,0,0,0,4.271,4.383h8.8a4.276,4.276,0,0,0,4.271-4.271v-4.337a4.276,4.276,0,0,0-4.271-4.271h-8.8a4.276,4.276,0,0,0-4.271,4.271V115.2h-8.71a2.356,2.356,0,0,1-2.353-2.353V107.1a2.356,2.356,0,0,1,2.353-2.353Zm23.209,9.066v4.337a1.431,1.431,0,0,1-1.429,1.429h-8.8a1.456,1.456,0,0,1-1.429-1.541c3.223.035,5.3-2.609,5.3-5.655h4.932A1.431,1.431,0,0,1,73.173,113.818Zm-11.657,0a1.431,1.431,0,0,1,1.429-1.429H63.97c0,1.478-.789,2.862-2.454,2.813Z" transform="translate(-36.287 -84.57)"/></g></g></g></g></svg>