<svg xmlns="http://www.w3.org/2000/svg" xmlns:xlink="http://www.w3.org/1999/xlink" width="400" height="323" viewBox="0 0 400 323"><defs><clipPath id="a"><path d="M903.968,257.648l-31.856,15.905-56.881,28.407L799.8,309.674l-8.361,4.175-.156.078-66.135,33.028a21.778,21.778,0,0,1-24.422-3.415,21.546,21.546,0,0,1-4.777-6.341l-12.647-25.327-.457-.9-.246-.491-9.878-19.79-7.1-14.22-8.1-16.207-9.589-19.209L606.647,158.4a21.782,21.782,0,0,1,9.756-29.211l96.629-48.253,12.01-6.005L795.206,39.89a21.769,21.769,0,0,1,29.211,9.744l89.3,178.8A21.765,21.765,0,0,1,903.968,257.648Z" transform="translate(-604.35 -37.586)" fill="none"/></clipPath></defs><g transform="translate(-180 -13999)"><g transform="translate(0 143)"><rect width="400" height="323" transform="translate(180 13856)" fill="#fff"/><g transform="translate(-370.359 13824.081)"><path d="M903.957,257.641,872.1,273.549l-15.474,7.737-27.2,13.573-4.669,2.334-3.118,1.559-3.827,1.909-.625.308-1.717.859-.242.125-.517.258-14.907,7.454-8.362,4.177-.158.075-7.27,3.635h-.008l-10.68,5.336-1.851.925-1.968.975-11.956,5.978-32.391,16.175a21.761,21.761,0,0,1-29.2-9.755l-2.985-5.961-1.6-3.227-.342-.667-.475-.967v-.017l-7.245-14.482-.459-.909-.242-.492-9.5-19.026-.383-.759-1.968-3.927-.5-1.017-.85-1.709c-.008,0-.008,0-.008-.008l-2.076-4.152-1.617-3.243-.075-.167-1.15-2.293a1.041,1.041,0,0,0-.083-.167l-.825-1.634-2.668-5.353-3.377-6.753-4.369-8.738-.017-.05-5.2-10.422-1.8-3.61-9.471-18.951L606.662,158.4a21.78,21.78,0,0,1,9.755-29.206l45.739-22.836,35.717-17.85c.008-.008.017-.008.042-.017l8.138-4.06h.008L708.52,83.2l4.519-2.251,3.977-1.984,4.7-2.359,8.2-4.11h.017l6.111-3.043h.017L795.2,39.91a21.757,21.757,0,0,1,29.206,9.738l35.409,70.893,13.173,26.379,5.5,11.022.075.15,10.188,20.393v.008l.459.917,5.069,10.155,1.518,3.018,17.9,35.851A21.763,21.763,0,0,1,903.957,257.641Z" transform="translate(-4.169 -0.003)" fill="#ffd41c"/><g transform="translate(600.184 37.586)"><g clip-path="url(#a)"><g transform="translate(31.913 83.977)"><path d="M878.951,256.483A118.073,118.073,0,0,1,824.962,355.7c-.245.168-.49.334-.746.479a118.17,118.17,0,0,1-126.252.379,2.975,2.975,0,0,1-.346-.212c-.156-.089-.3-.178-.445-.279-.546-.345-1.092-.7-1.627-1.058q-3.877-2.574-7.544-5.449c-.323-.245-.657-.513-.98-.78a118.333,118.333,0,0,1-29.875-35.513c-.145-.245-.278-.5-.413-.758a117.553,117.553,0,0,1-7.833-17.93q-1.471-4.328-2.608-8.8c-.657-2.541-1.215-5.1-1.693-7.711a116.965,116.965,0,0,1-1.594-12.113c-.256-3.12-.379-6.285-.379-9.471A117.963,117.963,0,0,1,692.6,159.971q3.243-2.306,6.63-4.379a1.955,1.955,0,0,1,.323-.2q4.045-2.456,8.291-4.58c.233-.123.468-.245.713-.356,2.741-1.36,5.56-2.619,8.424-3.756H717q3.444-1.387,7-2.54a115.61,115.61,0,0,1,22.375-4.97c.646-.089,1.292-.156,1.939-.223q3.994-.435,8.078-.569c1.46-.067,2.931-.089,4.4-.089.68,0,1.348.012,2.028.022h.446a119.392,119.392,0,0,1,12.213.88c2.251.278,4.491.624,6.7,1.036A118.188,118.188,0,0,1,878.951,256.483Z" transform="translate(-642.627 -138.309)" fill="#21155c"/><g transform="translate(29.444 30.889)"><path d="M706.5,218.006l5.494,1.69-5.494,1.69-1.69,5.494-1.69-5.494-5.494-1.69,5.494-1.69,1.69-5.494Z" transform="translate(-681.215 -181.535)" fill="#764cf0"/><path d="M684.417,243.19l4.008,1.233-4.008,1.233-1.233,4.008-1.233-4.008-4.008-1.233,4.008-1.233,1.233-4.008Z" transform="translate(-677.943 -185.969)" fill="#764cf0"/><path d="M901.356,269.807l4.008,1.233-4.008,1.233-1.233,4.008-1.233-4.008-4.008-1.233,4.008-1.233,1.233-4.008Z" transform="translate(-714.011 -190.395)" fill="#764cf0"/><path d="M920.984,290.922l4.47,1.375-4.47,1.375-1.375,4.47-1.375-4.47-4.47-1.375,4.47-1.375,1.375-4.47Z" transform="translate(-717.15 -193.829)" fill="#764cf0"/><path d="M809.89,179.828l4.47,1.375-4.47,1.375-1.375,4.47-1.375-4.47-4.47-1.375,4.47-1.375,1.375-4.47Z" transform="translate(-698.68 -175.358)" fill="#764cf0"/><path d="M908.8,312.927l5.485,1.688L908.8,316.3l-1.688,5.485-1.687-5.485-5.485-1.687,5.485-1.687,1.688-5.485Z" transform="translate(-714.852 -197.318)" fill="#764cf0"/></g></g></g></g><g transform="translate(711.818 122.112)"><path d="M742.616,185.073l8.78,5.447,1.666-2.69a2.457,2.457,0,0,1,2.311-1.14,14.441,14.441,0,0,0,1.544.049,2.453,2.453,0,0,1,2.23,1.281l1.495,2.787,9.108-4.885-1.494-2.787a2.452,2.452,0,0,1,.165-2.565,14.422,14.422,0,0,0,.814-1.314,2.457,2.457,0,0,1,2.229-1.295l3.162.1.321-10.328-3.173-.1a2.46,2.46,0,0,1-2.138-1.441q-.161-.343-.343-.68t-.376-.66a2.45,2.45,0,0,1-.019-2.565l1.678-2.709-8.78-5.446-1.673,2.694a2.455,2.455,0,0,1-2.313,1.138,14.554,14.554,0,0,0-1.538-.051,2.456,2.456,0,0,1-2.227-1.281l-1.495-2.788-9.108,4.885,1.495,2.788a2.455,2.455,0,0,1-.164,2.564,14.185,14.185,0,0,0-.809,1.31,2.457,2.457,0,0,1-2.228,1.3l-3.169-.1-.321,10.327,3.171.1a2.455,2.455,0,0,1,2.13,1.437q.163.344.345.684t.376.661a2.459,2.459,0,0,1,.018,2.578Zm6.521-8.743a8.463,8.463,0,1,1,11.456,3.464A8.458,8.458,0,0,1,749.137,176.329Z" transform="translate(-738.246 -102.499)" fill="#764cf0"/><path d="M837.081,154.956l3.618,6.269,1.918-1.108a1.718,1.718,0,0,1,1.8.061,10.131,10.131,0,0,0,.937.542,1.719,1.719,0,0,1,.952,1.529v2.216h7.24v-2.216a1.719,1.719,0,0,1,.952-1.529,10.123,10.123,0,0,0,.937-.542,1.718,1.718,0,0,1,1.8-.061l1.918,1.108,3.618-6.269-1.927-1.11a1.722,1.722,0,0,1-.843-1.6c.008-.177.013-.355.013-.534s-.005-.356-.013-.532a1.717,1.717,0,0,1,.837-1.591l1.933-1.116-3.618-6.269-1.923,1.109a1.722,1.722,0,0,1-1.805-.063,10.075,10.075,0,0,0-.933-.541,1.719,1.719,0,0,1-.951-1.528v-2.217h-7.24v2.217a1.719,1.719,0,0,1-.951,1.528,10.05,10.05,0,0,0-.933.541,1.722,1.722,0,0,1-1.805.063l-1.923-1.109-3.618,6.269,1.925,1.111a1.721,1.721,0,0,1,.84,1.592c-.009.177-.014.356-.014.536s.005.357.014.534a1.724,1.724,0,0,1-.843,1.6Zm6.921-3.24a5.929,5.929,0,1,1,5.926,5.932A5.924,5.924,0,0,1,844,151.716Z" transform="translate(-754.678 -138.968)" fill="#764cf0"/><path d="M844.192,283.9l3.618,6.27,1.918-1.109a1.72,1.72,0,0,1,1.8.061,10.063,10.063,0,0,0,.938.542,1.72,1.72,0,0,1,.951,1.529V293.4h7.241v-2.216a1.719,1.719,0,0,1,.951-1.529,10.047,10.047,0,0,0,.938-.542,1.72,1.72,0,0,1,1.8-.061l1.919,1.109,3.618-6.27-1.928-1.11a1.722,1.722,0,0,1-.843-1.6c.009-.177.013-.354.013-.533s0-.356-.013-.533a1.715,1.715,0,0,1,.838-1.59l1.933-1.116-3.618-6.27-1.924,1.11a1.72,1.72,0,0,1-1.8-.063,10.063,10.063,0,0,0-.934-.54,1.72,1.72,0,0,1-.95-1.529v-2.216h-7.241v2.216a1.721,1.721,0,0,1-.95,1.529,9.931,9.931,0,0,0-.933.54,1.722,1.722,0,0,1-1.805.063l-1.924-1.11-3.618,6.27,1.925,1.11a1.719,1.719,0,0,1,.84,1.592c-.009.178-.013.356-.013.537s0,.356.013.533a1.725,1.725,0,0,1-.842,1.6Zm6.921-3.239a5.929,5.929,0,1,1,5.926,5.932A5.925,5.925,0,0,1,851.113,280.657Z" transform="translate(-755.861 -160.406)" fill="#764cf0"/></g><g transform="translate(634.518 244.182)"><g transform="translate(0 54.366)"><rect width="49.364" height="1.778" transform="translate(1.638)" fill="#455a64"/><rect width="49.364" height="1.778" transform="translate(1.638 11.4)" fill="#455a64"/><rect width="49.364" height="0.62" transform="translate(1.638 12.558)" fill="#37474f"/><rect width="52.639" height="2.858" transform="translate(0 13.178)" fill="#455a64"/><rect width="44.488" height="9.622" transform="translate(4.075 1.778)" fill="#455a64"/><rect width="44.488" height="2.303" transform="translate(4.075 1.778)" fill="#37474f"/><rect width="44.488" height="2.303" transform="translate(4.075 9.097)" fill="#37474f"/></g><g transform="translate(0.747)"><path d="M664.407,292.866s-3.02-3.869-2.9-4.268,7.766-3.89,12.472-2.831,18.041,7.687,20.669,18.276-5.02,25.768-5.217,29.3a15.437,15.437,0,0,0,1.1,6.437h-3.883a15.544,15.544,0,0,1-.784-9.889c1.294-5.922,4.667-17.139,3.177-23.257s-11.609-14.276-14.629-15.374S664.407,292.866,664.407,292.866Z" transform="translate(-648.934 -285.411)" fill="#263238"/><path d="M686.257,340.576H654.571s0-8.21,3.137-13.387,10.663-10.511,12.18-12.969a8.023,8.023,0,0,0,1.161-4.914,10.163,10.163,0,0,1-5.815,3.85,12.4,12.4,0,0,1-6.731-.235,55.932,55.932,0,0,0-5.663,2.09,5.077,5.077,0,0,1-2.51,1.457c-.941.053-3.9-3.149-3.9-5.973,0-2.36,10.073-11.127,10.073-11.127s1.36-3.242,1.726-3.974,9.674-5.177,12.132-5.02,13.25,6.134,16.839,13.91c3.451,7.478-.277,19.384-1.569,24.552C683.746,336.367,686.257,340.576,686.257,340.576Z" transform="translate(-646.428 -286.21)" fill="#455a64"/><path d="M660.912,305.535l5.342-2.926a6.137,6.137,0,0,0-3.154.077C661.9,303.221,660.912,305.535,660.912,305.535Z" transform="translate(-648.836 -288.214)" fill="#263238"/><g transform="translate(15.472)"><path d="M669.418,293.415s-4.371-7.125-4.432-7.923c-.039-.509,6.079.824,7.726,1.961a44.286,44.286,0,0,1,4.824,4.636Z" transform="translate(-664.986 -285.38)" fill="#455a64"/><path d="M667.319,287.28s3.044.9,3.642,1.6a28.613,28.613,0,0,1,1.8,2.79" transform="translate(-665.374 -285.696)" fill="#263238"/></g><path d="M656.285,347.551l30.306-3.161a12.36,12.36,0,0,0,1.287,5.166H656.2Z" transform="translate(-648.052 -295.191)" fill="#37474f"/></g></g><g transform="translate(673.567 101.247)"><g transform="translate(35.753 156.65)"><path d="M821.284,301.83s-.1.4-.3,1.159c-.025.083-.05.175-.075.267s-.05.192-.075.292c-.067.267-.142.55-.225.875-.067.258-.142.534-.217.834s-.158.609-.242.942a.479.479,0,0,0-.033.117c-.083.317-.175.65-.267,1.009s-.192.725-.284,1.117c-.142.5-.275,1.034-.425,1.592-.075.308-.158.625-.242.95-.1.367-.2.75-.3,1.142-.033.125-.067.242-.092.367-.167.634-.342,1.292-.517,1.976a2.5,2.5,0,0,0-.067.267c-.075.267-.142.542-.217.817-.142.55-.292,1.117-.442,1.7-.108.417-.225.85-.333,1.284-.267,1.026-.55,2.093-.834,3.2q-.513,1.976-1.067,4.1c-.9,3.468-1.884,7.229-2.918,11.214-.167.625-.333,1.267-.5,1.909-.125.509-.258,1.017-.392,1.534-.017.058-.033.125-.05.192-.959,3.693-1.968,7.554-3,11.547-.308,1.184-.617,2.376-.934,3.585s-.625,2.418-.942,3.643c-.175.667-.35,1.342-.525,2.018l-10.68,5.336-1.851.925-1.968.975L779.313,374.7l-32.391,16.175a21.675,21.675,0,0,1-11.672,2.209c4.26-14.357,8.646-28.822,12.648-41.879,1.3-4.26,2.568-8.379,3.769-12.289.133-.425.258-.842.392-1.259.183-.609.367-1.209.559-1.8.058-.2.117-.409.183-.6.425-1.392.842-2.743,1.251-4.069a.029.029,0,0,0,.008-.017c.559-1.809,1.1-3.568,1.626-5.253q.663-2.126,1.276-4.1c1.484-4.794,2.768-8.9,3.777-12.123a.13.13,0,0,1,.017-.067.472.472,0,0,0,.033-.1c.058-.208.125-.417.192-.617.725-2.343,1.3-4.152,1.676-5.361.35-1.126.542-1.718.542-1.718Z" transform="translate(-735.25 -301.83)" fill="#37474f"/><g transform="translate(57.987 14.55)"><path d="M820.574,321.948c-.258.9-.509,1.793-.759,2.693q-.588,2.051-1.159,4.1c-.809,2.843-1.617,5.694-2.451,8.529-.542,1.851-1.084,3.693-1.626,5.544q-3.627,12.369-7.287,24.737c-.217.725-.425,1.442-.642,2.168l-1.851.925q3.164-10.405,6.362-20.81c.734-2.376,1.459-4.744,2.193-7.112q1.213-3.914,2.435-7.821c.642-2.059,1.326-4.11,2.009-6.161q.675-2.051,1.326-4.1c.459-1.442.892-2.876,1.3-4.327C820.983,318.313,821.292,319.414,820.574,321.948Z" transform="translate(-804.8 -319.281)" fill="#263238"/></g><path d="M828.172,301.83s-.1.4-.3,1.159c-.025.083-.05.175-.075.267s-.05.192-.075.292c-.067.267-.142.55-.225.875-.067.258-.142.534-.217.834s-.158.609-.242.942a.482.482,0,0,0-.033.117c-.083.317-.175.65-.267,1.009s-.192.725-.283,1.117c-.142.5-.275,1.034-.425,1.592-.075.308-.158.625-.242.95-.1.367-.2.75-.3,1.142-.033.125-.067.242-.092.367-.167.634-.342,1.292-.517,1.976a2.46,2.46,0,0,0-.067.267c-.075.267-.142.542-.217.817-.142.55-.292,1.117-.442,1.7-.108.417-.225.85-.333,1.284-.267,1.026-.55,2.093-.834,3.2q-.513,1.976-1.067,4.1c-.9,3.468-1.884,7.229-2.918,11.214-.167.625-.333,1.267-.5,1.909-.125.509-.258,1.017-.392,1.534H818.1c-.008.058-.025.125-.042.192-.959,3.693-1.967,7.554-3,11.547-.308,1.184-.617,2.376-.934,3.585s-.625,2.418-.942,3.643c-.167.667-.342,1.342-.517,2.018h-.008l-10.68,5.336-1.851.925-1.968.975L786.2,374.7c-.675-5.169-1.351-10.322-2.026-15.391V359.3c-.05-.417-.108-.817-.158-1.234-.017-.125-.033-.233-.05-.358V357.7q-.35-2.689-.692-5.353c-.108-.784-.208-1.559-.308-2.343-.45-3.435-.9-6.812-1.326-10.122l-.275-2.1c-.075-.584-.158-1.159-.225-1.734v-.008c-.1-.742-.2-1.467-.292-2.2v-.008c-.359-2.7-.7-5.344-1.042-7.921a.182.182,0,0,0-.008-.067c-.175-1.392-.359-2.76-.534-4.1-.033-.292-.075-.575-.108-.859-.742-5.686-1.426-10.964-2.043-15.708a.283.283,0,0,1-.008-.083c-.075-.559-.15-1.109-.217-1.651s-.142-1.084-.208-1.609Z" transform="translate(-742.138 -301.83)" fill="#263238"/><g transform="translate(29.831)"><path d="M852.47,341.124l-3.118,1.559-3.827,1.909-.625.308-1.718.859-.242.125-.517.258L827.516,353.6l-8.362,4.177-.158.075-7.27,3.635h-.008l-10.68,5.336-1.851.925-1.968.975c-.042-1.334-.067-2.276-.083-2.768-.008-.258-.008-.392-.008-.392-.35-.217-.692-.425-1.042-.634-2.393-1.434-4.577-2.66-6.495-3.677-.217-.117-.434-.225-.642-.333-2.435-1.276-4.419-2.21-5.87-2.851-1.734-.767-2.693-1.109-2.693-1.109-.067-.184-.125-.367-.183-.55-.525-1.551-1.017-3.152-1.476-4.777-.9-3.118-1.7-6.353-2.409-9.613q-.513-2.314-.951-4.644c-.759-3.91-1.392-7.787-1.909-11.464a.207.207,0,0,1-.008-.067c-.025-.108-.033-.217-.05-.325-.183-1.284-.35-2.551-.509-3.777-.525-4.11-.909-7.846-1.192-10.947-.392-4.252-.575-7.3-.642-8.454-.017-.333-.025-.509-.025-.509h79.139S851.161,318.23,852.47,341.124Z" transform="translate(-771.03 -301.83)" fill="#37474f"/><path d="M859.981,344.356c.033.725.058,1.442.083,2.168l-.625.309c-.025-.834-.05-1.676-.075-2.518q-.438-15.32-.884-30.648c-.017-.309.467-.283.475.025Q859.456,329.024,859.981,344.356Z" transform="translate(-785.569 -303.761)" fill="#263238"/><g transform="translate(5.871 53.434)"><path d="M778.71,365.957A127.11,127.11,0,0,1,798.3,376.217a.226.226,0,0,1-.205.4c-6.61-3.212-13.359-6.3-19.784-9.875A.442.442,0,0,1,778.71,365.957Z" transform="translate(-778.072 -365.92)" fill="#263238"/></g><path d="M778.326,337.668c.453,2.435,1.044,4.846,1.569,7.267.494,2.27.856,4.588,1.456,6.833a11.635,11.635,0,0,0,3.183,5.728c.891.828,1.873,1.561,2.823,2.319.512.409,1.066.8,1.6,1.216-.069-.321-.125-.649-.183-.98q-.243-1.384-.474-2.772-.516-3.076-.986-6.161c-.618-4.041-1.187-8.125-2.03-12.125a.13.13,0,0,1,.252-.063c1.007,3.964,2.119,7.886,2.995,11.885.43,1.961,1.965,11.642,2.033,12.327.07.708.129,1.417.154,2.128a8.467,8.467,0,0,1,0,2.174c-.042.177-.254.148-.329.028l-.011.007a8.539,8.539,0,0,1-.615-2.1c-.177-.69-.333-1.392-.458-2.093-.045-.253-.081-.514-.117-.773-.953-.579-1.841-1.346-2.732-1.991-.96-.7-1.94-1.373-2.848-2.139a10.906,10.906,0,0,1-3.477-5.433,39.6,39.6,0,0,1-1.141-6.957c-.308-2.751-.533-5.517-.916-8.258C778.05,337.569,778.295,337.5,778.326,337.668Z" transform="translate(-772.201 -307.772)" fill="#263238"/></g></g><g transform="translate(0 0)"><g transform="translate(12.736 72.35)"><g transform="translate(1.325 0.618)"><path d="M787.709,208.88c-2.582,10.576-30.619,67.837-30.4,71.42.05.843,16.957,12.2,17.373,13.535,1.688,5.444-26.142,28.5-32.225,29.872-17.906,4.036-33.532,3.2-33.214-11.492.5-23.05,41.012-80.13,61.771-100.3C784.675,198.63,790.258,198.444,787.709,208.88Z" transform="translate(-709.233 -201.461)" fill="#ffe1c2"/></g><path d="M735.377,326.313,768.3,285.02s-9.83-3.551-10.047-5.847,23.591-51.281,28.744-65.68,1.155-17.392-14.276-5.033-72.716,92.4-64.227,110.215C714.348,330.958,735.377,326.313,735.377,326.313Z" transform="translate(-707.644 -200.719)" fill="#d1c3fa"/><g transform="translate(12.31 78.714)"><path d="M760.7,295.133a22.813,22.813,0,0,0-4.232,1.572c-1.382.6-2.75,1.226-4.115,1.863-2.681,1.25-5.363,2.541-7.956,3.968s-5.122,2.949-7.621,4.512c-.584.365-1.173.733-1.76,1.1-.237.078-.472.158-.705.24-.989.346-1.969.723-2.921,1.161a46.417,46.417,0,0,0-5.332,2.938.113.113,0,0,0,.122.191,40.8,40.8,0,0,1,5.556-2.6c.249-.1.5-.181.754-.276-1,.673-1.98,1.366-2.916,2.111a76.952,76.952,0,0,0-7.128,6.319c-.1.1.062.255.166.154,4.079-3.958,9.222-6.805,14.138-9.581,5.092-2.875,10.048-5.986,15.152-8.838q2.194-1.226,4.443-2.34a47.063,47.063,0,0,0,4.48-2.229C760.969,295.3,760.852,295.1,760.7,295.133Z" transform="translate(-722.409 -295.13)" fill="#263238"/></g></g><g transform="translate(50.342 65.907)"><g transform="translate(0.003)"><path d="M854.1,320.694l-4.669,2.334-3.118,1.559c-1.192-.083-2.5-.167-3.91-.258-.2-.008-.409-.025-.617-.042-7.32-.475-17.175-1.142-27.655-1.884h-.008c-2.7-.192-5.444-.384-8.2-.584-.409-.025-.817-.058-1.226-.092-6.795-.492-13.623-.992-19.993-1.476-.684-.05-1.359-.108-2.026-.158l-.667-.05c-1.584-.117-3.127-.242-4.627-.358l-.667-.05-.242-.025c-.367-.025-.734-.058-1.092-.083-.292-.025-.584-.05-.867-.067-.742-.058-1.476-.125-2.193-.184-1.968-.158-3.835-.308-5.578-.459-.175-.017-.35-.033-.517-.042-3.585-.308-6.628-.584-8.9-.825h-.008c-.392-.042-.759-.075-1.1-.108-.192-.025-.375-.05-.55-.067a.917.917,0,0,0-.15-.017,11.915,11.915,0,0,1-2.743-.459,10.872,10.872,0,0,1,.467-3.093.156.156,0,0,0,.017-.058c.192-.867.434-1.893.725-3.06.242-.984.517-2.076.817-3.268.192-.742.4-1.526.609-2.351v-.008c.309-1.159.642-2.376.992-3.668v-.008c1.242-4.594,2.751-10,4.452-15.874q.813-2.839,1.693-5.82c.092-.317.183-.634.284-.95,2.985-10.138,6.4-21.277,9.888-32.041,2.535-7.812,5.111-15.424,7.587-22.311a.3.3,0,0,0,.033-.092,228.96,228.96,0,0,1,9.338-22.878c.1-.2.192-.392.292-.575.042-.075.083-.158.125-.233s.075-.142.108-.217c.075-.142.15-.283.217-.417a34.815,34.815,0,0,1,1.9-3.168q.163-.238.325-.45c.1-.142.2-.275.308-.4q.175-.225.35-.425c1.134-1.284,4.886-2.6,9.321-2.885a23.86,23.86,0,0,1,8.854,1.009,16.391,16.391,0,0,1,2.034.809,14.608,14.608,0,0,1,3.877,2.61c.05.042.092.092.142.142.092.083.183.167.275.267.225.217.442.442.659.675,5.769,6.07,10.88,16.416,15.141,27.747q.838,2.226,1.634,4.486v.008c.042.125.083.242.125.367a1.856,1.856,0,0,1,.067.2c0,.008.008,0,.008,0A301.131,301.131,0,0,1,847,276.1C849.956,294.423,853.133,312.615,854.1,320.694Z" transform="translate(-752.752 -192.992)" fill="#d1c3fa"/></g><path d="M782.159,223.807c.048-.164-.219-.276-.285-.113-1.654,4.13-3.193,8.3-4.691,12.492.068-.6.133-1.2.179-1.8.122-1.587.1-3.182.249-4.768.014-.15-.229-.148-.237.006-.079,1.639-.389,3.252-.63,4.872-.217,1.461-.416,2.923-.663,4.38-.043.256-.082.514-.124.77-2.431,6.978-4.72,14.007-6.946,21.05-3.962,12.535-7.584,25.183-11.025,37.87-1.939,7.154-3.638,14.363-5.236,21.6a.119.119,0,0,0,.23.058C756.7,307.663,760.3,295.071,764,282.512c3.409-11.556,7-23.062,10.632-34.549a.132.132,0,0,0,.187-.088q.4-1.5.777-2.982C777.826,237.874,780.074,230.868,782.159,223.807Z" transform="translate(-752.748 -198.083)" fill="#263238"/></g><path d="M798.153,201.529a.038.038,0,0,1,.074.013c-.595,4.536-1.673,15.073,5.514,14.921,2.895-.062,5.642-1.677,7.954-3.287a40.29,40.29,0,0,0,6.484-5.733,59.076,59.076,0,0,0,6.185-7.5c.075-.114.247.023.166.136-1.885,2.667-3.5,5.464-5.639,7.952a35.031,35.031,0,0,1-7.007,6.356c-2.469,1.647-5.386,3.248-8.442,3.167a5.776,5.776,0,0,1-5.562-4.745A25.512,25.512,0,0,1,798.153,201.529Z" transform="translate(-709.825 -128.232)" fill="#263238"/><g transform="translate(104.408)"><g transform="translate(3.153 56.648)"><path d="M835.408,217.852c24.419,18.162,52.808,28.064,64.527,23.468,9.12-3.577,38.644-30.611,43.473-52.456,1.066-4.822-35.966-9.044-37.418-5.885-4.272,9.3-20.977,25.446-22.669,25.209-2.226-.31-27.493-5.717-47.439-10.413C811.812,192.109,822.044,207.913,835.408,217.852Z" transform="translate(-821.377 -181.886)" fill="#ffe1c2"/></g><g transform="translate(74.84)"><path d="M966.742,174.892c-1.934,7.831-12.154,22.3-15.963,24.84s-28.982-14.015-29.342-18.7,8.2-30.545,14.731-35.548S968.747,166.779,966.742,174.892Z" transform="translate(-909.699 -119.081)" fill="#ffe1c2"/><g transform="translate(0 19.279)"><path d="M919.782,175.075s-1.317-10.409-5.472-18.667c-3.494-6.943-9.465-16.857-5.8-18.875,7.52-4.145,22.405,20.587,22.405,20.587s4.815,11.966-2.272,16.731A8.479,8.479,0,0,1,919.782,175.075Z" transform="translate(-907.36 -137.065)" fill="#ffe1c2"/></g><g transform="translate(16.371)"><path d="M928.588,150.059c3.1,2.944,5.352.248,5.352.248s-4.546,6.933-1.61,10.634c2.839,3.559,7.607-1.245,7.953-1.584-.237.369-4.248,6.848-.915,10.263,3.468,3.546,7.426-2.1,7.681-2.464-.115.419-1.538,5.98,1.584,8,5.368,3.466,9.4-10.653,14.023-12.973,0,0,4.827,7.386,5.012,7.571,0,0,4.111-13.354.632-19.415a4.462,4.462,0,0,0-5.173-2.117s1.8-4.159-.739-6.93c-1.307-1.419-4.741-.59-4.741-.59s1.3-3.391-1.11-5.715c-1.92-1.861-5.065-.74-5.065-.74s12.645-16.666,8.856-19.76c-6.526-5.329-28.672,30.313-32.371,30.689C926.123,145.36,927.238,148.776,928.588,150.059Z" transform="translate(-926.995 -113.942)" fill="#ffe1c2"/><g transform="translate(6.654 20.291)"><path d="M952.274,138.392a.06.06,0,0,0-.058-.105c-6.958,3.437-13.55,9.345-17.192,16.25-.119.227,0,1.411.152,1.166C938.917,149.573,945.564,143.159,952.274,138.392Z" transform="translate(-934.976 -138.279)" fill="#263238"/><path d="M960.283,145.877c.073-.051-.012-.173-.1-.13-7.15,3.58-14.392,10.438-17.652,18.893-.112.29.078.663.233.339C945.36,159.521,954.22,150.138,960.283,145.877Z" transform="translate(-936.227 -139.519)" fill="#263238"/><path d="M950.963,174.655c3.439-7.986,9.092-14.065,15.8-19.475.088-.071-.021-.187-.11-.148-4,1.753-7.915,5.646-10.7,8.934a22.93,22.93,0,0,0-5.262,10.569C950.652,174.692,950.889,174.825,950.963,174.655Z" transform="translate(-937.587 -141.063)" fill="#263238"/></g><path d="M934.537,157.583c-.143.272.789.1.657.377-1.438,3.015-3.749,8.536-1.561,10.262,1.757,1.38,4.829-.023,5.8-1.025l2.435-2.519-1.411,3.213a14.359,14.359,0,0,0-1.195,4.488,5.129,5.129,0,0,0,1.11,4.044,2.93,2.93,0,0,0,3.62.7,8.86,8.86,0,0,0,3.208-3.069l2.3-3.454-1.042,4a13.465,13.465,0,0,0-.44,3.41,5.544,5.544,0,0,0,.8,3.1,2.64,2.64,0,0,0,2.532,1.151,5.839,5.839,0,0,0,2.767-1.734,45.88,45.88,0,0,0,4.436-5.669c.707-.988,1.416-1.981,2.173-2.941a8.669,8.669,0,0,1,2.67-2.479,9.326,9.326,0,0,0-2.4,2.678c-.675,1-1.3,2.041-1.932,3.08a39.072,39.072,0,0,1-4.229,6.028,6.819,6.819,0,0,1-3.251,2.184,3.742,3.742,0,0,1-3.8-1.553,6.788,6.788,0,0,1-1.1-3.821,14.752,14.752,0,0,1,.434-3.8l1.261.545a10.176,10.176,0,0,1-3.754,3.664,4.245,4.245,0,0,1-2.846.4,4.8,4.8,0,0,1-2.439-1.452,6.473,6.473,0,0,1-1.407-5.118,15.567,15.567,0,0,1,1.391-4.917l1.024.695c-1.274,1.231-4.537,3.175-7.53,1.378C929.269,166.495,933.639,158.913,934.537,157.583Z" transform="translate(-927.736 -121.197)" fill="#263238"/></g></g><g transform="translate(0 62.295)"><path d="M900.066,188.659l36.543,22.621s-26.683,34.315-44.173,34.714-57.764-18.609-70.53-32.705c-11.056-12.208,1.329-18.592,12.79-15.229S882.018,208.5,883.029,208,900.066,188.659,900.066,188.659Z" transform="translate(-817.596 -188.659)" fill="#d1c3fa"/><path d="M945.523,219.733a36.708,36.708,0,0,0-3.9-2.744c-1.4-.965-2.807-1.936-4.218-2.893-2.707-1.837-5.52-3.528-8.313-5.229-5.681-3.46-11.352-7.028-17.288-10.039-.113-.058-.252.106-.139.19,5.266,3.91,10.9,7.357,16.444,10.85,2.766,1.742,5.531,3.5,8.369,5.127,1.418.811,2.855,1.592,4.284,2.384a41.3,41.3,0,0,0,4.642,2.516C945.5,219.933,945.616,219.817,945.523,219.733Z" transform="translate(-833.229 -190.348)" fill="#263238"/><path d="M849.651,237.933c-.543-.573-7.284-3.9-13.661-4.384a.119.119,0,0,0-.057.23c1.8.512,3.522,1.244,5.3,1.826.359.118.726.219,1.088.333-.317-.019-.634-.041-.951-.055q-1.525-.07-3.051-.152c-.1-.006-.113.148-.019.175a14.163,14.163,0,0,0,3.026.525,13.271,13.271,0,0,0,2.307-.092c.071.02.141.046.212.065.779.211,4.909,1.7,5.715,1.763C849.687,238.179,849.724,238.01,849.651,237.933Z" transform="translate(-820.63 -196.122)" fill="#263238"/></g></g><g transform="translate(74.603 8.551)"><g transform="translate(12.53 39.233)"><path d="M803.61,206.825c5.107.858,14.294-8.1,17.293-14.555.2-.444-.748-4.9-1.647-10.37-.533-3.322-1.047-7.033-1.273-10.453-.042-.7-2.348.745-2.348.745l-4.356,1.361-14.4,4.518a54.638,54.638,0,0,1,2.936,13,7.667,7.667,0,0,1-.055,1.413c0,.065-.017.144-.016.234C799.483,195.409,798.675,205.992,803.61,206.825Z" transform="translate(-796.876 -171.256)" fill="#ffe1c2"/><path d="M799.757,192.814c0,.065-.017.144-.016.234a13.5,13.5,0,0,0,2.213-.028c14.423-1.272,15.018-19.756,15.018-19.756l-5.692.624-14.4,4.518a54.638,54.638,0,0,1,2.936,13A7.667,7.667,0,0,1,799.757,192.814Z" transform="translate(-796.876 -171.589)" fill="#263238"/></g><path d="M792.144,132.317s-6.986,2.7-8.423,9.7-.012,14.4.586,14.775S792.144,132.317,792.144,132.317Z" transform="translate(-782.056 -125.548)" fill="#26d19e"/><g transform="translate(0.912 4.184)"><path d="M820.106,142.27c2.027,7.708-2.853,29.554-8.463,34.248-8.131,6.807-21.016,6.985-26.691-2.692-5.5-9.38,1.364-37.738,7.59-41.96C801.711,125.647,817.111,130.885,820.106,142.27Z" transform="translate(-782.942 -129.216)" fill="#ffe1c2"/></g><path d="M818.031,185.719c.005,0,.006-.007,0-.007" transform="translate(-787.863 -134.425)" fill="none" stroke="#dc6a57" stroke-linecap="round" stroke-linejoin="round" stroke-width="0"/><g transform="translate(5.999 21.652)"><g transform="translate(11.847 7.754)"><path d="M803.677,161c.023-.053.1.093.087.154-.349,1.467-.5,3.207.735,3.97.038.023.018.1-.029.08C802.886,164.646,803.111,162.339,803.677,161Z" transform="translate(-803.253 -159.722)" fill="#263238"/><path d="M805.337,159.478c2.413.305,1.625,5.108-.61,4.826C802.526,164.025,803.314,159.222,805.337,159.478Z" transform="translate(-803.278 -159.468)" fill="#263238"/></g><g transform="translate(0.196 5.575)"><path d="M792.957,159.034c0-.058-.128.052-.136.113-.2,1.5-.674,3.176-2.1,3.448-.044.009-.052.084,0,.086C792.4,162.718,793.01,160.482,792.957,159.034Z" transform="translate(-789.512 -157.214)" fill="#263238"/><path d="M791.649,156.9c-2.363-.574-3.337,4.195-1.148,4.726C792.656,162.153,793.63,157.384,791.649,156.9Z" transform="translate(-789.278 -156.855)" fill="#263238"/></g><path d="M807.744,156.467a19.007,19.007,0,0,1-1.753-.96,3.23,3.23,0,0,1-1.6-1.32,1.03,1.03,0,0,1,.365-1.2,2.554,2.554,0,0,1,2.581.157,3.747,3.747,0,0,1,1.869,1.95A1.1,1.1,0,0,1,807.744,156.467Z" transform="translate(-791.582 -150.588)" fill="#26d19e"/><path d="M790.149,153.068a18.674,18.674,0,0,0,1.99-.183,3.221,3.221,0,0,0,1.994-.573,1.028,1.028,0,0,0,.145-1.248,2.552,2.552,0,0,0-2.429-.885,3.743,3.743,0,0,0-2.492,1.043A1.1,1.1,0,0,0,790.149,153.068Z" transform="translate(-789.043 -150.168)" fill="#26d19e"/><path d="M802.056,177.232c-.414.29-.848.711-1.4.669a3.988,3.988,0,0,1-1.538-.637.053.053,0,0,0-.077.066,2.03,2.03,0,0,0,1.756,1.117,1.606,1.606,0,0,0,1.386-1.124C802.225,177.24,802.116,177.19,802.056,177.232Z" transform="translate(-790.705 -154.666)" fill="#263238"/><g transform="translate(2.029 0.643)"><path d="M799.965,168.152a5.136,5.136,0,0,1-3.752,1.7,6.447,6.447,0,0,1-1.836-.216,1.824,1.824,0,0,1-.342-.1c-.106-.031-.2-.06-.318-.1a.377.377,0,0,1-.243-.383l0-.011a.725.725,0,0,1,.039-.149l0-.012.024-.13c.157-1.151.554-2.874.554-2.874-.453.141-2.745.75-2.612.158,1.108-4.906,2.34-10.362,4.48-15.01a.14.14,0,0,1,.266.083c-.879,4.757-2.589,9.328-3.548,14.093a8.984,8.984,0,0,1,2.51-.334c.155.074-.826,3.318-.856,3.841a.191.191,0,0,0,0,.057c1.884.561,3.431.218,5.511-.768C799.973,167.929,800.074,168.048,799.965,168.152Z" transform="translate(-791.477 -150.939)" fill="#263238"/></g><g transform="translate(5.701 17.814)"><path d="M795.881,172.591a6.1,6.1,0,0,0,2.1,2.259,2.741,2.741,0,0,0,1.626.372c1.24-.118,1.448-1.2,1.383-2.172a6.537,6.537,0,0,0-.3-1.515A7.891,7.891,0,0,1,795.881,172.591Z" transform="translate(-795.881 -171.535)" fill="#263238"/><path d="M798.4,175.151a2.74,2.74,0,0,0,1.626.372c1.24-.118,1.448-1.2,1.383-2.172A2.833,2.833,0,0,0,798.4,175.151Z" transform="translate(-796.3 -171.836)" fill="#ff98b9"/></g></g><path d="M816.424,159.094c-4.49,0-3.985-19.855-3.985-19.855a28.768,28.768,0,0,1-8.352,2.425,39.712,39.712,0,0,1-8.8-.449c-.625-.18,7.188-3.233,7.188-3.233s-19.579,3.664-20.613.014c-.361-1.274,8.573-14.692,22.1-13.751,9.987.695,15.549,11,15.549,11s4.813,5.381,4.589,8.524C823.8,147.979,821.182,159.094,816.424,159.094Z" transform="translate(-781.847 -124.198)" fill="#26d19e"/><g transform="translate(31.052 29.78)"><path d="M820.714,165.124s5.391-6.815,8.512-4.852-1.226,12.047-5.1,13.232a3.857,3.857,0,0,1-5.037-2.375Z" transform="translate(-819.091 -159.917)" fill="#ffe1c2"/><path d="M828.321,163.772a.052.052,0,0,1,.014.1c-2.719.919-4.262,3.3-5.393,5.793a2.13,2.13,0,0,1,3.216-.393c.067.053-.006.158-.08.138a2.373,2.373,0,0,0-2.656.673,11.507,11.507,0,0,0-1.373,2.034c-.138.23-.559.078-.453-.19.008-.02.017-.04.026-.06C821.754,168.48,824.666,163.9,828.321,163.772Z" transform="translate(-819.505 -160.558)" fill="#263238"/></g><g transform="translate(12.084 56.722)"><path d="M799.675,195.832l5.235,12.616,15.565-16.216L825,197.326s-15.113,25.653-15.223,24.5l-5.349-10.864-7.453,7.686.394-19.087Z" transform="translate(-796.446 -192.232)" fill="#ebebeb"/><path d="M796.529,210.458c.17-3.149.254-6.326.57-9.463.012-.112.185-.163.213-.032.665,3.031-.051,15.071,0,17.955.011-.011.023-.022.033-.033.311-.333,6.912-6.767,6.979-6.667,1.152,1.722,5.077,9.633,5.348,10.353,2.39-4.074,11.558-18.893,14.4-22.752a.109.109,0,0,1,.19.107c-2.1,4.3-14.233,24.25-14.423,24.2a122.985,122.985,0,0,1-5.594-11.486c-1.113,1.4-7.767,8.651-7.8,8.183A98.987,98.987,0,0,1,796.529,210.458Z" transform="translate(-796.341 -193.485)" fill="#263238"/></g></g><g transform="translate(0 120.015)"><g transform="translate(66.339 56.544)"><rect width="70.288" height="4.104" fill="#455a64"/><rect width="42.72" height="4.104" fill="#263238"/></g><path d="M794.052,318.606l-88.962,0-12.722-60.717,88.962,0Z" transform="translate(-692.368 -257.889)" fill="#455a64"/><path d="M757.677,293.219a4.8,4.8,0,0,1-4.843,5.442,6.178,6.178,0,0,1-5.987-5.442,4.8,4.8,0,0,1,4.844-5.442A6.176,6.176,0,0,1,757.677,293.219Z" transform="translate(-701.42 -262.858)" fill="#263238"/></g><g transform="translate(21.206 156.285)"><path d="M729.037,329.452c5.493,2.971,12.134,10.074,16.707,10.869a5.324,5.324,0,0,0,5.771-2.656s2.048,4.711,6.317,4.749c2.2.019,4.156-3.473,4.156-3.473s1.807,3.7,5.6,3.5c3.026-.16,4.538-3.635,4.538-3.635s3.388,2.745,6.419,1.594c6.145-2.335,7.516-28.312-1.842-32.829-4.361-2.106-4.351,4.257-4.351,4.257s-2.224-9.146-7.573-9.566-4.836,7.848-4.836,7.848-2.233-8.845-7.822-8.721c-5.818.13-3.889,8.312-3.889,8.312s-3.612-5.984-7.868-4.907c-7.029,1.775.947,15.337-.709,20.974h-9.294Z" transform="translate(-719.67 -301.391)" fill="#ffe1c2"/><path d="M735.078,339.392c-5.446-2.359-8.05,1.526-13.736.787-6.316-.821-4.265-8.237,6.829-9.551l9.621,0Z" transform="translate(-717.802 -306.252)" fill="#ffe1c2"/><g transform="translate(28.013 7.53)"><path d="M780.989,340.271a.068.068,0,0,0,.133.033c2.533-8.435,2.73-18.478-.184-26.844-.1-.274-.583-.238-.535.084C781.757,322.742,782.226,331.012,780.989,340.271Z" transform="translate(-756.222 -310.897)" fill="#263238"/><path d="M768.154,340.691c-.014.1.153.125.183.02,2.562-8.705,2.474-20.023-2.021-29.271-.154-.317-.61-.448-.46-.068C768.378,317.747,769.309,332.362,768.154,340.691Z" transform="translate(-753.799 -310.542)" fill="#263238"/><path d="M751.416,310.634c3.967,9.034,4.638,18.431,3.941,28.181-.009.127.172.127.208.023,1.641-4.676,1.438-10.939.868-15.8a26.013,26.013,0,0,0-4.7-12.546C751.627,310.348,751.332,310.44,751.416,310.634Z" transform="translate(-751.401 -310.422)" fill="#263238"/></g></g></g></g><g transform="translate(676.898 37.586)"><g transform="translate(0 19.35)"><circle cx="32.391" cy="32.391" r="32.391" fill="#764cf0"/><circle cx="24.724" cy="24.724" r="24.724" transform="translate(7.667 7.667)" fill="#fff"/><circle cx="17.668" cy="17.668" r="17.668" transform="matrix(0.232, -0.973, 0.973, 0.232, 11.108, 45.481)" fill="#764cf0"/><circle cx="9.767" cy="9.767" r="9.767" transform="matrix(0.224, -0.975, 0.975, 0.224, 20.687, 39.728)" fill="#fff"/><path d="M738.747,98.764a4.415,4.415,0,1,1-4.416-4.415A4.415,4.415,0,0,1,738.747,98.764Z" transform="translate(-701.941 -66.373)" fill="#764cf0"/></g><g transform="translate(32.391)"><g transform="translate(0 6.5)"><rect width="59.194" height="1.42" transform="translate(2.38 41.857) rotate(-45)" fill="#455a64"/><g transform="translate(0 39.77)"><path d="M740.684,97.088l-5.471,1.466,1.466-5.471Z" transform="translate(-735.212 -93.082)" fill="#263238"/></g></g><path d="M794.479,41.864l-7.848,7.848-6.156,1.878,1.878-6.156,7.848-7.848-1.878,6.156Z" transform="translate(-742.738 -37.586)" fill="#263238"/></g></g><g transform="translate(579.29 152.798)"><rect width="101.061" height="55.685" fill="#e8e1fc"/><g transform="translate(6.882 6.511)"><rect width="79.932" height="4.814" transform="translate(8.38 0.516)" fill="#fff"/><rect width="55.32" height="4.814" transform="translate(8.38 0.516)" fill="#764cf0"/><rect width="79.932" height="4.814" transform="translate(8.38 9.72)" fill="#fff"/><rect width="71.764" height="4.814" transform="translate(8.38 9.72)" fill="#ffd41c"/><rect width="79.932" height="4.814" transform="translate(8.38 18.924)" fill="#fff"/><rect width="50.946" height="4.814" transform="translate(8.38 18.924)" fill="#764cf0"/><rect width="79.932" height="4.814" transform="translate(8.38 28.128)" fill="#fff"/><rect width="58.788" height="4.814" transform="translate(8.38 28.128)" fill="#ffd41c"/><rect width="79.932" height="4.814" transform="translate(8.38 37.332)" fill="#fff"/><rect width="38.252" height="4.814" transform="translate(8.38 37.332)" fill="#764cf0"/><g transform="translate(0 18.408)"><rect width="5.846" height="5.846" fill="#764cf0"/><path d="M590.243,209.36h-.784v-.9h.769c0-.068.008-.122.009-.175.005-.236,0-.474.018-.709a.989.989,0,0,1,.876-.951,7.259,7.259,0,0,1,.981-.008v.819c-.118,0-.237,0-.354,0a1.656,1.656,0,0,0-.316.021.3.3,0,0,0-.249.285c-.009.229,0,.46,0,.71h.894c-.038.294-.07.568-.113.84,0,.027-.072.06-.111.061-.216.006-.432,0-.665,0v2.309h-.952Z" transform="translate(-587.863 -205.818)" fill="#fff"/></g><g transform="translate(0 27.612)"><rect width="5.846" height="5.846" fill="#ffd41c"/><g transform="translate(0.646 1.421)"><path d="M590.688,220.207h-.851v-.5h1.437c0,.1,0,.2,0,.3a1.381,1.381,0,0,1-1.342,1.407,1.5,1.5,0,0,1-.813-2.825,1.528,1.528,0,0,1,1.719.2c-.117.119-.231.239-.351.353-.016.015-.066,0-.1-.007a2.982,2.982,0,0,0-.385-.148.928.928,0,0,0-1.094.745.945.945,0,0,0,.742,1.112A.859.859,0,0,0,590.688,220.207Z" transform="translate(-588.32 -218.405)" fill="#fff"/><path d="M593.525,219.859c0,.114,0,.212,0,.309,0,.035,0,.071-.007.118H593.1v.427h-.427v-.419h-.427v-.429h.422v-.425h.43v.419Z" transform="translate(-588.972 -218.577)" fill="#fff"/></g></g><g transform="translate(0 36.816)"><rect width="5.846" height="5.846" fill="#764cf0"/><path d="M588.38,232.329a2.01,2.01,0,0,0,1.3-.4c-.538-.163-.752-.327-.83-.633l.361-.018a.99.99,0,0,1-.706-.913l.371.1c-.389-.49-.468-.87-.235-1.224a2.676,2.676,0,0,0,1.905.953c0-.061-.007-.107-.008-.152a.879.879,0,0,1,.51-.882.889.889,0,0,1,1.013.123.186.186,0,0,0,.2.042l.449-.165a.916.916,0,0,1-.354.454l.01.027.446-.115.017.018c-.115.116-.225.237-.347.345a.238.238,0,0,0-.1.2,2.607,2.607,0,0,1-2.373,2.614,2.641,2.641,0,0,1-1.547-.316C588.438,232.365,588.409,232.346,588.38,232.329Z" transform="translate(-587.683 -227.958)" fill="#fff"/></g><g transform="translate(0.039)"><rect width="5.846" height="5.846" fill="#764cf0"/><g transform="translate(0.77 0.76)"><path d="M592.818,185.469a.9.9,0,0,0-.948-.97q-1.2-.011-2.409,0a.9.9,0,0,0-.944.949c-.006.4,0,.8,0,1.2s0,.785,0,1.176a.916.916,0,0,0,.962.987q1.192.013,2.383,0a.91.91,0,0,0,.955-.967Q592.825,186.659,592.818,185.469Zm-.384,2.385a.523.523,0,0,1-.574.577q-1.19.008-2.382,0a.52.52,0,0,1-.575-.574q-.005-1.2,0-2.4a.527.527,0,0,1,.573-.58q1.192-.008,2.383,0a.528.528,0,0,1,.575.579c0,.4,0,.8,0,1.2S592.438,187.454,592.434,187.855Z" transform="translate(-588.514 -184.494)" fill="#fff"/><path d="M590.876,185.735a1.124,1.124,0,1,0,1.116,1.141A1.123,1.123,0,0,0,590.876,185.735Zm-.014,1.873a.76.76,0,0,1-.737-.74.749.749,0,0,1,1.5,0A.759.759,0,0,1,590.862,187.608Z" transform="translate(-588.721 -184.7)" fill="#fff"/><path d="M592.747,185.646a.257.257,0,0,1-.513-.048c.012-.158.114-.23.271-.239A.252.252,0,0,1,592.747,185.646Z" transform="translate(-589.133 -184.638)" fill="#fff"/></g></g><g transform="translate(0 9.121)"><rect width="5.846" height="5.846" fill="#ffd41c"/><g transform="translate(0.743 0.76)"><path d="M588.436,199.76c.093-.336.177-.649.269-.958a.343.343,0,0,0-.026-.277,2.163,2.163,0,1,1,4.116-.895,2.182,2.182,0,0,1-2.048,2.084,2.328,2.328,0,0,1-1.072-.2.344.344,0,0,0-.205-.016C589.134,199.576,588.8,199.666,588.436,199.76Zm.525-.509c.213-.056.394-.108.578-.146a.31.31,0,0,1,.19.024,1.931,1.931,0,0,0,.872.228,1.8,1.8,0,0,0,1.8-2.1,1.688,1.688,0,0,0-1.352-1.412,1.8,1.8,0,0,0-1.97,2.656.332.332,0,0,1,.028.211C589.068,198.887,589.014,199.057,588.961,199.252Z" transform="translate(-588.436 -195.434)" fill="#fff"/><path d="M589.894,196.938c.147-.2.344-.159.447.06.04.085.05.114.089.212a.263.263,0,0,1-.06.34c-.077.069-.07.13-.016.21a1.517,1.517,0,0,0,.655.554.145.145,0,0,0,.2-.044c.19-.227.193-.224.461-.1l.093.044a.251.251,0,0,1,.069.447.6.6,0,0,1-.605.148,2.2,2.2,0,0,1-1.312-1,.832.832,0,0,1-.164-.489A.72.72,0,0,1,589.894,196.938Z" transform="translate(-588.654 -195.663)" fill="#fff"/></g></g></g></g><g transform="translate(796.888 55.495)"><rect width="87.949" height="55.407" fill="#e8e1fc"/><g transform="translate(7.249 7.98)"><path d="M848.974,74.261c12.2-.076,24.4-.057,36.6-.088,12.2.031,24.4.012,36.6.088-12.2.076-24.4.057-36.6.088C873.377,74.317,861.176,74.337,848.974,74.261Z" transform="translate(-848.974 -69.558)" fill="#a6a6a6"/><path d="M848.974,82.937c12.2-.076,24.4-.056,36.6-.088,12.2.031,24.4.012,36.6.088-12.2.077-24.4.058-36.6.088C873.377,82.993,861.176,83.012,848.974,82.937Z" transform="translate(-848.974 -71.001)" fill="#a6a6a6"/><path d="M848.974,91.613c12.2-.076,24.4-.057,36.6-.088,12.2.031,24.4.012,36.6.088-12.2.077-24.4.058-36.6.088C873.377,91.669,861.176,91.688,848.974,91.613Z" transform="translate(-848.974 -72.443)" fill="#a6a6a6"/><path d="M848.974,100.288c12.2-.076,24.4-.057,36.6-.088,12.2.032,24.4.012,36.6.088-12.2.077-24.4.057-36.6.088C873.377,100.345,861.176,100.364,848.974,100.288Z" transform="translate(-848.974 -73.885)" fill="#a6a6a6"/><path d="M848.974,108.964c12.2-.076,24.4-.057,36.6-.088,12.2.032,24.4.013,36.6.088-12.2.076-24.4.057-36.6.088C873.377,109.021,861.176,109.04,848.974,108.964Z" transform="translate(-848.974 -75.328)" fill="#a6a6a6"/><path d="M866.628,68.638c.107,6.758.08,13.517.125,20.276-.044,6.759-.017,13.517-.125,20.277-.108-6.759-.081-13.517-.125-20.277C866.548,82.155,866.521,75.4,866.628,68.638Z" transform="translate(-851.888 -68.638)" fill="#a6a6a6"/><path d="M881.812,68.638c.108,6.758.081,13.517.125,20.276-.044,6.759-.017,13.517-.125,20.277-.107-6.759-.08-13.517-.124-20.277C881.732,82.155,881.706,75.4,881.812,68.638Z" transform="translate(-854.413 -68.638)" fill="#a6a6a6"/><path d="M897,68.638c.108,6.758.08,13.517.125,20.276-.044,6.759-.017,13.517-.125,20.277-.108-6.759-.081-13.517-.125-20.277C896.917,82.155,896.889,75.4,897,68.638Z" transform="translate(-856.938 -68.638)" fill="#a6a6a6"/><path d="M912.182,68.638c.108,6.758.08,13.517.125,20.276-.044,6.759-.018,13.517-.125,20.277-.108-6.759-.081-13.517-.125-20.277C912.1,82.155,912.075,75.4,912.182,68.638Z" transform="translate(-859.462 -68.638)" fill="#a6a6a6"/><path d="M927.366,68.638c.107,6.758.081,13.517.125,20.276-.044,6.759-.017,13.517-.125,20.277-.108-6.759-.08-13.517-.124-20.277C927.286,82.155,927.259,75.4,927.366,68.638Z" transform="translate(-861.987 -68.638)" fill="#a6a6a6"/><path d="M851.186,99.408c2.235,0,3.567-7.348,6.732-7.348s3.5,5.361,6.164,5.361S866.664,88,870.244,88s2.749,3.82,6.5,3.82,2.333-8.871,6.247-8.871,2.332,12.222,6.413,12.222c2.582,0,3.582-3.882,6.663-3.882,2.041,0,3.244,1.942,5.911,1.942,2.71,0,3.251-7.464,6.582-7.464s3.713,4.416,6.163,4.416,3.332-7.234,7.83-7.234V111.57H851.186Z" transform="translate(-849.342 -71.018)" fill="#ccfff0" opacity="0.5"/><path d="M936.782,117.277" transform="translate(-863.573 -76.725)" fill="#a6a6a6"/><path d="M851.186,99.691v-.707c.676,0,1.608-1.717,2.289-2.97,1.169-2.152,2.379-4.378,4.443-4.378,1.981,0,2.966,1.63,3.834,3.068.68,1.127,1.384,2.293,2.329,2.293.833,0,1.555-2.261,2.083-3.913.864-2.705,1.757-5.5,4.08-5.5a4.031,4.031,0,0,1,3.606,2.068,3.232,3.232,0,0,0,2.891,1.753c1.441,0,2-2.072,2.55-4.076.642-2.357,1.306-4.795,3.7-4.795,2.373,0,2.979,3.07,3.622,6.321.519,2.629,1.166,5.9,2.791,5.9.971,0,1.766-.806,2.606-1.661,1.025-1.041,2.186-2.221,4.057-2.221a5.775,5.775,0,0,1,2.85.949,6.1,6.1,0,0,0,3.061.993c.925,0,1.767-1.775,2.445-3.2,1-2.1,2.024-4.262,4.137-4.262,2.1,0,3.131,1.409,4.043,2.652.665.907,1.293,1.764,2.121,1.764.7,0,1.5-1.374,2.206-2.586,1.2-2.07,2.7-4.647,5.623-4.647v.707c-2.251,0-3.549,2.236-4.695,4.209-.982,1.69-1.758,3.025-3.134,3.025-1.437,0-2.2-1.042-3.011-2.146s-1.665-2.27-3.153-2.27c-1.392,0-2.345,2.008-3.187,3.78-.94,1.977-1.751,3.684-3.395,3.684a7.188,7.188,0,0,1-3.676-1.142,4.716,4.716,0,0,0-2.235-.8c-1.347,0-2.306.975-3.234,1.918-.95.965-1.933,1.964-3.429,1.964-2.5,0-3.121-3.162-3.784-6.511-.5-2.544-1.128-5.711-2.629-5.711-1.564,0-2.175,2.243-2.714,4.221-.651,2.391-1.266,4.65-3.534,4.65a4.192,4.192,0,0,1-3.778-2.132,3.085,3.085,0,0,0-2.718-1.688c-1.522,0-2.4,2.745-3.1,4.952-.8,2.494-1.426,4.464-3.06,4.464-1.607,0-2.405-1.322-3.251-2.723-.784-1.3-1.592-2.638-2.912-2.638-1.376,0-2.558,2.176-3.508,3.924C853.372,98.18,852.551,99.691,851.186,99.691Z" transform="translate(-849.342 -70.948)" fill="#26d19e"/><path d="M851.186,117.277" transform="translate(-849.342 -76.725)" fill="#a6a6a6" stroke="#ffc727" stroke-miterlimit="10" stroke-width="0.848"/><path d="M851.139,69.165c.081,6.686.151,13.372.157,20.056l.076,20.056-.233-.165,35.682.042,17.841.033,17.841.091-17.841.09-17.841.033-35.682.042H850.9v-.165l.076-20.056C850.987,82.537,851.058,75.851,851.139,69.165Z" transform="translate(-849.295 -68.726)" fill="#a6a6a6"/></g></g><rect width="41.433" height="41.433" rx="8" transform="matrix(0.985, 0.174, -0.174, 0.985, 617.714, 86.904)" fill="#26d19e"/><circle cx="20.909" cy="20.909" r="20.909" transform="translate(784.031 290.165)" fill="#764cf0"/></g></g></g></svg>