<svg xmlns="http://www.w3.org/2000/svg" xmlns:xlink="http://www.w3.org/1999/xlink" width="190" height="134" viewBox="0 0 190 134"><defs><clipPath id="a"><rect width="101" height="101" transform="translate(225 434)" fill="#26d19e"/></clipPath></defs><g transform="translate(-180 -417)"><rect width="190" height="134" transform="translate(180 417)" fill="#fff"/><g clip-path="url(#a)"><g transform="translate(221.633 430.634)"><path d="M70.7,77.433,52.183,95.95,38.717,82.483,45.45,75.75V65.65L57.233,53.867a7.114,7.114,0,0,1,2.079,4.654c.008.133.013.263.013.4a7.122,7.122,0,0,1-2.092,5.05Z" fill="#f4ceaf"/><path d="M53.867,67.333,67.333,80.8l8.417-8.417L62.283,58.917Z" fill="#f4ceaf"/><path d="M13.467,104.367,40.4,77.433,58.917,95.95,50.5,104.367Z" fill="#8acce7"/><rect width="7.142" height="23.806" transform="translate(67.334 80.8) rotate(-45)" fill="#ad7d4d"/><rect width="7.142" height="47.612" transform="translate(15.15 28.617) rotate(-45)" fill="#ad7d4d"/><path d="M48.817,25.25l20.2-20.2L92.583,28.617,74.908,46.292a3.571,3.571,0,0,1-5.05,0Z" fill="#eebe33"/><path d="M20.2,33.667,42.925,10.942a3.571,3.571,0,0,1,5.05,0L71.542,34.508h0a3.571,3.571,0,0,0-5.05,0L43.767,57.233Z" fill="#eedc9a"/><path d="M72.587,37.033a3.557,3.557,0,0,1-1.046,2.525l-1.683,1.683a3.57,3.57,0,0,0,0,5.05l-7.575-7.575,4.208-4.208a3.571,3.571,0,0,1,6.1,2.525Z" fill="#e88604"/><path d="M62.283,41.1l6.385,6.385a5.261,5.261,0,0,0,7.431,0L93.774,29.807a1.684,1.684,0,0,0,0-2.381L70.207,3.86a1.684,1.684,0,0,0-2.381,0L55.55,16.136,49.165,9.751a5.261,5.261,0,0,0-7.431,0L25.25,26.236l-3.86-3.86a1.684,1.684,0,0,0-2.381,0l-5.05,5.05a1.684,1.684,0,0,0,0,2.381L46.436,62.283,44.26,64.46a1.684,1.684,0,0,0-.493,1.19v9.4l-1.683,1.683-.493-.493a1.684,1.684,0,0,0-2.381,0l-25.25,25.25,2.381,2.381L40.4,79.814,56.536,95.95l-5.543,5.543,2.381,2.381,6.733-6.733a1.684,1.684,0,0,0,0-2.381l-2.176-2.176,9.4-9.4L82.976,98.824a1.684,1.684,0,0,0,2.381,0l5.05-5.05a1.684,1.684,0,0,0,0-2.381L74.764,75.75l2.176-2.176a1.684,1.684,0,0,0,0-2.381L63.474,57.726a1.684,1.684,0,0,0-2.381,0l-.148.148a8.758,8.758,0,0,0-2.522-5.2,1.684,1.684,0,0,0-2.381,0l-2.176,2.176L51.2,52.183Zm8.068-2.729-1.683,1.683a5.226,5.226,0,0,0-1.086,1.584l-2.918-2.918L67.682,35.7a1.887,1.887,0,0,1,2.669,2.669ZM69.017,7.431,90.2,28.617,73.718,45.1a1.887,1.887,0,1,1-2.669-2.669l1.683-1.683a5.255,5.255,0,0,0,0-7.431l-14.8-14.8Zm-24.9,4.7a1.889,1.889,0,0,1,2.669,0l20.1,20.1A5.231,5.231,0,0,0,65.3,33.318L43.767,54.853,22.581,33.667ZM20.2,25.947l2.669,2.67L20.2,31.286l-2.669-2.669ZM86.836,92.583l-2.67,2.67L69.714,80.8l2.669-2.669ZM62.283,61.3,73.37,72.383,67.333,78.42,56.247,67.333l2.176-2.176h0l0,0Zm-5.236-4.864a5.467,5.467,0,0,1-1,6.343l-3.367,3.367a1.684,1.684,0,0,0,0,2.381,7.847,7.847,0,0,1,0,11.086l2.381,2.381a11.167,11.167,0,0,0,3.274-7.812L64.953,80.8l-9.4,9.4L44.464,79.117,46.64,76.94a1.684,1.684,0,0,0,.493-1.19v-9.4Zm-5.561.8L48.817,59.9l-2.669-2.669,2.669-2.669Z"/></g></g></g></svg>