<svg xmlns="http://www.w3.org/2000/svg" width="60.48" height="81.489" viewBox="0 0 60.48 81.489"><g transform="translate(-539.52 -13001)"><g transform="translate(473.52 13001)"><g transform="translate(67.592 1.592)"><path d="M87.8,61.82c3,2.187,4.114,4.365,4.114,7.387h25.465c0-3.022,1.112-5.2,4.114-7.387a28.649,28.649,0,1,0-33.694,0Z" transform="translate(-76 -10)" fill="#ffee80" fill-rule="evenodd"/><path d="M184.649,382H159.183a3.183,3.183,0,1,0,0,6.366h25.465a3.183,3.183,0,0,0,0-6.366Z" transform="translate(-143.267 -322.795)" fill="#f3eff0" fill-rule="evenodd"/><path d="M184.649,422H159.183a3.183,3.183,0,1,0,0,6.366h25.465a3.183,3.183,0,0,0,0-6.366Z" transform="translate(-143.267 -356.428)" fill="#f3eff0" fill-rule="evenodd"/><path d="M201.466,462H176v3.183a3.193,3.193,0,0,0,3.183,3.183h19.1a3.193,3.193,0,0,0,3.183-3.183Z" transform="translate(-160.084 -390.062)" fill="#8690af" fill-rule="evenodd"/><g transform="translate(19.507 13.916)"><path d="M211.038,119.921a3.334,3.334,0,1,1-6.668,0c0-4.646.3-4.943,4.666-9.212.3-.3.63-.617.985-.966a3.3,3.3,0,1,0-5.218-3.925,3.322,3.322,0,0,1-5.835-3.178,10,10,0,0,1,3.665-3.809,9.948,9.948,0,0,1,12.05,15.652c-.354.349-.682.67-.985.966C211.211,117.883,211.038,118.052,211.038,119.921Z" transform="translate(-198.562 -97.437)" fill="#fff" fill-rule="evenodd"/><circle cx="3.334" cy="3.334" r="3.334" transform="matrix(0.16, -0.987, 0.987, 0.16, 5.306, 36.678)" fill="#fff"/></g></g><g transform="translate(66)"><path d="M96.24,0A30.208,30.208,0,0,0,80.827,4.22a1.592,1.592,0,1,0,1.625,2.737,27.058,27.058,0,0,1,29.7,45.168c-2.84,2.068-4.292,4.244-4.668,7.082H85c-.376-2.838-1.828-5.014-4.668-7.082a27.063,27.063,0,0,1-7.372-35.674,1.592,1.592,0,1,0-2.737-1.625A30.226,30.226,0,0,0,78.456,54.7c2.058,1.5,3.071,2.921,3.365,4.818a4.77,4.77,0,0,0-1.869,7.649,4.77,4.77,0,0,0,1.964,7.684v1.865a4.78,4.78,0,0,0,4.775,4.775h19.1a4.78,4.78,0,0,0,4.775-4.775V74.849a4.77,4.77,0,0,0,1.964-7.684,4.77,4.77,0,0,0-1.869-7.649c.293-1.9,1.306-3.319,3.365-4.818A30.24,30.24,0,0,0,96.24,0Zm9.55,78.306h-19.1A1.593,1.593,0,0,1,85.1,76.715V75.123h22.282v1.592A1.593,1.593,0,0,1,105.79,78.306Zm3.183-6.366H83.507a1.592,1.592,0,0,1,0-3.183h5.57a1.592,1.592,0,0,0,0-3.183h-5.57a1.592,1.592,0,1,1,0-3.183h25.465a1.592,1.592,0,1,1,0,3.183H103.4a1.592,1.592,0,0,0,0,3.183h5.571a1.592,1.592,0,0,1,0,3.183Z" transform="translate(-66)"/><path d="M204.391,110.318a16.584,16.584,0,0,1,2.017-2.139c.3-.3.633-.619.988-.97a11.54,11.54,0,1,0-18.23-13.739,4.914,4.914,0,0,0,8.63,4.7,1.7,1.7,0,0,1,1.5-.883,1.7,1.7,0,0,1,1.7,1.7,1.714,1.714,0,0,1-.127.665,1.673,1.673,0,0,1-.371.549c-.352.346-.677.665-.981.963-4.459,4.363-5.144,5.034-5.144,10.349a4.926,4.926,0,1,0,9.851,0C204.227,110.667,204.272,110.513,204.391,110.318Zm-3.347,1.194a1.742,1.742,0,0,1-3.485,0c0-3.977,0-3.977,4.191-8.078.3-.3.63-.617.985-.966A4.887,4.887,0,0,0,199.3,94.1a4.885,4.885,0,0,0-4.3,2.543,1.73,1.73,0,0,1-3.039-1.655A8.357,8.357,0,0,1,199.3,90.62a8.356,8.356,0,0,1,5.862,14.321c-.353.348-.679.667-.981.962-2.536,2.482-3.138,3.071-3.138,5.609Z" transform="translate(-169.061 -73.521)"/><path d="M225.053,284.578a4.926,4.926,0,1,0,4.926-4.926A4.931,4.931,0,0,0,225.053,284.578Zm6.668,0a1.742,1.742,0,1,1-1.742-1.742A1.744,1.744,0,0,1,231.721,284.578Z" transform="translate(-199.738 -235.143)"/><path d="M120.318,55.9a1.592,1.592,0,0,0,0-3.183h0a1.592,1.592,0,0,0,0,3.183Z" transform="translate(-110.334 -44.33)"/><path d="M247.589,412h0a1.592,1.592,0,1,0,1.593,1.592A1.591,1.591,0,0,0,247.588,412Z" transform="translate(-217.349 -346.428)"/></g></g></g></svg>