<svg xmlns="http://www.w3.org/2000/svg" xmlns:xlink="http://www.w3.org/1999/xlink" width="35" height="35" viewBox="0 0 35 35"><defs><clipPath id="a"><rect width="35" height="35" transform="translate(-6055 4961)" fill="#fff" stroke="#707070" stroke-width="1"/></clipPath></defs><g transform="translate(-615 -17260.563)"><g transform="translate(6670 12299.563)" clip-path="url(#a)"><g transform="translate(-6055 4961)"><path d="M31.324,3.655l-.618-2.371A1.029,1.029,0,0,0,28.983.815l-2.65,2.65a1.029,1.029,0,0,0-.264,1l.962,3.481Z" fill="#5a5a5a"/><path d="M31.324,3.655l2.371.618A1.029,1.029,0,0,1,34.164,6l-2.65,2.65a1.029,1.029,0,0,1-1,.264l-3.481-.962Z" fill="#5a5a5a"/><path d="M34.164,6l-2.65,2.65a1.028,1.028,0,0,1-1,.264l-1.356-.374a1.071,1.071,0,0,0,.792-.313l2.759-2.759a1.072,1.072,0,0,0,.079-1.428l.909.237A1.028,1.028,0,0,1,34.164,6Z" fill="#444"/><circle cx="14.693" cy="14.693" r="14.693" transform="translate(0.534 5.102)" fill="#ee6161"/><path d="M29.919,19.795A14.693,14.693,0,0,1,5.959,31.2,14.694,14.694,0,0,0,23.432,7.6a14.679,14.679,0,0,1,6.487,12.19Z" fill="#e94444"/><circle cx="10.778" cy="10.778" r="10.778" transform="translate(4.448 9.017)" fill="#f9f7f8"/><path d="M26,19.795a10.778,10.778,0,0,1-17.411,8.5A10.779,10.779,0,0,0,20.768,10.548,10.774,10.774,0,0,1,26,19.795Z" fill="#efedef"/><circle cx="6.843" cy="6.843" r="6.843" transform="translate(8.383 12.951)" fill="#ee6161"/><path d="M22.069,19.795a6.843,6.843,0,0,1-11.278,5.211A6.844,6.844,0,0,0,18.4,13.73a6.84,6.84,0,0,1,3.672,6.065Z" fill="#e94444"/><circle cx="3.107" cy="3.107" r="3.107" transform="translate(12.119 16.688)" fill="#f9f7f8"/><path d="M18.333,19.795A3.107,3.107,0,0,1,12.8,21.729a3.107,3.107,0,0,0,3.751-4.747,3.106,3.106,0,0,1,1.787,2.813Z" fill="#efedef"/><circle cx="4.813" cy="4.813" r="4.813" transform="translate(0.534 24.861)" fill="#57be92"/><path d="M10.16,29.674A4.814,4.814,0,0,1,2.274,33.38a4.814,4.814,0,0,0,5.052-8.095,4.814,4.814,0,0,1,2.834,4.389Z" fill="#09a76d"/><path d="M7.838,27.724a.928.928,0,0,0-1.312.053l-1.6,1.733a.174.174,0,0,1-.256,0l-.5-.542A.931.931,0,0,0,2.8,30.227l1.171,1.282a1.109,1.109,0,0,0,1.634,0l2.285-2.477a.928.928,0,0,0-.053-1.312Z" fill="#f9f7f8"/><path d="M7.891,29.036,5.606,31.514a1.11,1.11,0,0,1-1.634,0L3.9,31.429a1.1,1.1,0,0,0,.81-.357l2.285-2.477a.927.927,0,0,0,.112-1.11.928.928,0,0,1,.786,1.552Z" fill="#efedef"/><path d="M34.923,4.864a1.525,1.525,0,0,0-1.1-1.087l-2.081-.542L31.2,1.154a1.541,1.541,0,0,0-2.581-.7L25.971,3.1a1.544,1.544,0,0,0-.4,1.5l.881,3.186-.874.874a15.234,15.234,0,0,0-3.513-2.45.512.512,0,1,0-.462.915,14.209,14.209,0,0,1,3.25,2.26l-2.049,2.049A11.287,11.287,0,0,0,4.9,24.369,5.3,5.3,0,0,0,2.2,25.385,14.187,14.187,0,0,1,19.443,6.252a.512.512,0,1,0,.3-.979A15.218,15.218,0,0,0,1.39,26.115,5.325,5.325,0,0,0,.3,31.386a.512.512,0,0,0,.97-.329,4.3,4.3,0,1,1,1.166,1.787.512.512,0,1,0-.693.755,5.32,5.32,0,0,0,7.16.033,15.205,15.205,0,0,0,17.4-24.246l.867-.867,3.2.885a1.543,1.543,0,0,0,1.5-.4l2.65-2.65a1.524,1.524,0,0,0,.4-1.494ZM6.051,24.4A10.261,10.261,0,0,1,22.083,12.162l-2.061,2.061a7.369,7.369,0,1,0,.728.721l2.06-2.06A10.261,10.261,0,0,1,10.624,28.969,5.335,5.335,0,0,0,6.051,24.4Zm8.723-4.2a.512.512,0,0,0,.725,0l1.866-1.866a2.6,2.6,0,1,1-.735-.714L14.775,19.47a.512.512,0,0,0,0,.725Zm2.592-3.316a3.627,3.627,0,1,0,.732.717l1.926-1.926a6.342,6.342,0,1,1-.729-.72Zm9.876-4.617A14.179,14.179,0,0,1,9.637,32.825a5.3,5.3,0,0,0,1.016-2.71A11.285,11.285,0,0,0,23.535,12.159l2.048-2.048A14.255,14.255,0,0,1,27.242,12.261Zm-.68-7.931a.517.517,0,0,1,.133-.5l2.65-2.65a.5.5,0,0,1,.36-.152.544.544,0,0,1,.141.019.507.507,0,0,1,.364.368L30.754,3.5,29.433,4.821a.512.512,0,0,0-.06.051L27.289,6.956Zm7.238,1.3-2.65,2.65a.517.517,0,0,1-.5.133l-2.633-.728,3.464-3.464,2.087.544a.516.516,0,0,1,.235.865Z"/><path d="M3.593,31.855a1.626,1.626,0,0,0,1.193.528h0a1.626,1.626,0,0,0,1.192-.522l2.285-2.477A1.441,1.441,0,0,0,6.15,27.43L4.8,28.894l-.251-.273a1.443,1.443,0,0,0-2.126,1.952ZM3.2,29.292a.419.419,0,0,1,.591.024l.5.542a.686.686,0,0,0,1.009,0l1.6-1.733a.416.416,0,1,1,.611.564L5.229,31.166a.59.59,0,0,1-.439.192h0a.59.59,0,0,1-.439-.194L3.178,29.882a.419.419,0,0,1,.025-.589Z"/></g></g></g></svg>