<svg xmlns="http://www.w3.org/2000/svg" xmlns:xlink="http://www.w3.org/1999/xlink" width="35" height="35" viewBox="0 0 35 35"><defs><clipPath id="a"><rect width="35" height="35" transform="translate(-6259 4961)" fill="#fff" stroke="#707070" stroke-width="1"/></clipPath></defs><g transform="translate(-299 -17260.563)"><g transform="translate(6558 12299.563)" clip-path="url(#a)"><g transform="translate(-6257.249 4961)"><path d="M8.921,34.487H2.257v-2.35A1.238,1.238,0,0,1,3.5,30.9H7.682a1.238,1.238,0,0,1,1.238,1.238Zm0,0" fill="#a7c7d3"/><path d="M15.584,34.487H8.921V29.063a1.238,1.238,0,0,1,1.238-1.238h4.187a1.238,1.238,0,0,1,1.238,1.238Zm0,0" fill="#89b4c9"/><path d="M22.248,34.487H15.584V25.761a1.238,1.238,0,0,1,1.238-1.238h4.187a1.238,1.238,0,0,1,1.238,1.238Zm0,0" fill="#6c96b3"/><path d="M28.911,34.487H22.248V20.752a1.238,1.238,0,0,1,1.238-1.238h4.187a1.238,1.238,0,0,1,1.238,1.238Zm0,0" fill="#618aaa"/><path d="M24.056,5.485h6.7a.225.225,0,0,0,.149-.394L29.166,3.557a.225.225,0,0,1,0-.338l1.741-1.533a.225.225,0,0,0-.149-.394h-6.7Zm0,0" fill="#fdb659"/><path d="M24.59,7.446l-7.26,3.943c-.648.352-.825.97-1.051,1.767l-1.444,5.105,3.538-1.45,1.373-4.151L23.4,10.44a2.674,2.674,0,0,0,1.19-2.994Zm0,0" fill="#83d9ff"/><path d="M24.59,7.446l-.838.455a2.673,2.673,0,0,1-1.236,1.772L19.188,11.7a1.033,1.033,0,0,0-.444.558l-.475,1.437A5.388,5.388,0,0,1,15.2,16.984l-.361,1.277,3.538-1.45,1.373-4.151,3.654-2.22a2.674,2.674,0,0,0,1.19-2.994Zm0,0" fill="#5fc9ed"/><path d="M18.373,16.811l2.091,2.471c.346.459.648.781.585,1.286L20.56,24.52H19.284l-.334-3.4a.568.568,0,0,0-.34-.465l-3.776-2.4Zm0,0" fill="#38627c"/><path d="M14.835,18.261l-.2,3.746a1.646,1.646,0,0,1-.091.752l-2.408,5.066h1.354l3.62-4.809a1.957,1.957,0,0,0,.307-.889l.96-5.316Zm0,0" fill="#4f7693"/><path d="M18.113,8.255l.594,1.159a1.108,1.108,0,0,1-.481,1.492l-.459.235a1.108,1.108,0,0,1-1.491-.481L15.682,9.5a1.108,1.108,0,0,1,.481-1.492l.459-.235a1.108,1.108,0,0,1,1.491.481Zm0,0" fill="#fecbaa"/><path d="M31.246,4.705l-1.5-1.317,1.5-1.317A.738.738,0,0,0,30.758.779H24.569V.513a.513.513,0,1,0-1.026,0V7.431L19.33,9.719a1.623,1.623,0,0,0-.167-.539L18.57,8.021a1.623,1.623,0,0,0-2.182-.7l-.459.235a1.621,1.621,0,0,0-.7,2.182l.594,1.159a1.611,1.611,0,0,0,.584.635,4.494,4.494,0,0,0-.618,1.488l-.111.391a.513.513,0,0,0,.354.633.505.505,0,0,0,.14.019.513.513,0,0,0,.493-.374l.111-.391c.225-.793.363-1.217.8-1.456l.788-.428.1-.05c.032-.017.062-.035.093-.054l5.616-3.05A2.171,2.171,0,0,1,23.134,10l-3.652,2.219-.013.007-1.137.691a.513.513,0,0,0,.49.9l-.863,2.607-.63.258-1.714.7.494-1.746a.513.513,0,0,0-.987-.279l-.781,2.76a.492.492,0,0,0-.018.112l-.2,3.752a1.717,1.717,0,0,1-.042.553l-2.269,4.773H10.159a1.753,1.753,0,0,0-1.751,1.751v1.481a1.738,1.738,0,0,0-.725-.158H3.5a1.753,1.753,0,0,0-1.751,1.751v1.837H.513A.513.513,0,1,0,.513,35H30.758a.513.513,0,1,0,0-1.026H29.424V20.752A1.753,1.753,0,0,0,27.673,19h-3.1V10.052a3.2,3.2,0,0,0,.515-2.742.513.513,0,0,0-.515-.377V6h6.189a.738.738,0,0,0,.488-1.292ZM16.1,8.812a.591.591,0,0,1,.3-.347l.459-.235a.6.6,0,0,1,.8.258l.594,1.159a.6.6,0,0,1-.2.765l-.167.091-.353.181a.6.6,0,0,1-.8-.258l-.594-1.159a.591.591,0,0,1-.037-.454ZM15.071,27.47a1.741,1.741,0,0,0-.563-.15l.563-.748Zm2.436-4.133a1.933,1.933,0,0,0,.37-.919c.014-.066.267-1.449.267-1.449s.24.149.265.16a.054.054,0,0,1,.032.045l.279,2.837H17ZM20.54,20.5l-.433,3.5h-.358l-.289-2.935a1.081,1.081,0,0,0-.6-.867l-.516-.327.344-1.9s1.448,1.72,1.481,1.764c.3.39.4.546.374.768ZM15,22.987a2.781,2.781,0,0,0,.144-.952l.186-3.422,2.373-.972-.431,2.389c0,.006,0,.013,0,.019l-.357,1.975a1.954,1.954,0,0,1-.215.683l-3.466,4.6h-.286ZM2.77,32.137a.726.726,0,0,1,.725-.725H7.682a.726.726,0,0,1,.726.725v1.837H2.77Zm6.663,0V29.063a.726.726,0,0,1,.726-.725h4.187a.726.726,0,0,1,.725.725v4.911H9.434V32.137ZM28.4,20.752V33.974H22.76V30.9a.513.513,0,0,0-1.026,0v3.076H16.1V25.761a.726.726,0,0,1,.725-.725h4.187a.726.726,0,0,1,.725.725v2.571a.513.513,0,0,0,1.026,0v-7.58a.726.726,0,0,1,.726-.725h4.186a.726.726,0,0,1,.726.725ZM23.486,19a1.753,1.753,0,0,0-1.751,1.751v3.415a1.736,1.736,0,0,0-.595-.152l.418-3.384a1.981,1.981,0,0,0-.579-1.52c-.034-.045-2.028-2.412-2.028-2.412L20.174,13l3.369-2.047V19Zm1.083-14.03V1.805H30L28.827,2.834a.738.738,0,0,0,0,1.108L30,4.972H24.569Zm0,0"/></g></g></g></svg>